/* XPM */
static char *_425fdc432f34b1c8586f1fff7814a55[] = {
/* columns rows colors chars-per-pixel */
"32 32 4 1 ",
"  c None",
". c #2F2F2E",
"X c gray71",
"o c gray88",
/* pixels */
"                                ",
"                                ",
"                                ",
"                                ",
"                                ",
"                                ",
"                                ",
"                                ",
"                                ",
"                                ",
"                                ",
"                                ",
"                                ",
"                                ",
"                                ",
"                                ",
"                                ",
"                                ",
"                                ",
"                                ",
"              ..   ..           ",
"              .X...X.           ",
"              .Xoooo.           ",
"              .X..X..           ",
"              .Xoooo.           ",
"              .XXXXX.           ",
"             .XXoo...           ",
"             .XXo.Xoo.          ",
"             .Xoo....           ",
"          ...XXo.o.             ",
"         .XX.XXo.o.             ",
"         ..........             "
};
