/* XPM */
static const char *merged[] = {
/* columns rows colors chars-per-pixel */
"32 32 7 1 ",
"  c #2F2F2E",
". c #656C17",
"X c #72751B",
"o c #787B21",
"O c #7F8226",
"+ c gray71",
"@ c gray88",
/* pixels */
"XXXXXXXXXXXXXXXXXXXXXXXXXXXXXXXX",
"XXXXXXXXXXXXXXXXXXXXXXXXXXXXXXXX",
"XXXXXXXXXXXXXXXXXXXXXXXXXXXXXXXX",
"XXXXXXXXXXXXXXXXXXXXXXXXXXXXXXXX",
"XXXXXXXXXXXXXXXXXXXXXXXXXXXXXXXX",
"XXXXXXXXXXXXXXXXXXXXXXXXXXXXXXXX",
"XXXXXXXXXXXXXXXXXXXXXXXXXXXXXXXX",
"XXXXXXXXOXXXXXXXXXXXXXXXXXXXXXXX",
"XXXXXXXXooXXXXXXXXXXXXXXXXXXXXXX",
"XXXXOOoX.oXXXXXXXXXXXXXXXXXXXXXX",
"XXXXXOoo..XOOoXXXXXXXXXXXXXXXXXX",
"XXoOX.ooX.ooOXXXXXXXXXXXXXXXXXXX",
"XXXOoo.oXoooXXXXXXXXXXXXXXXXXXXX",
"XXX.ooX..oo.XXXXXXXXXXXXXXXXXXXX",
"XXXX.oXX...XXXXXXXXXXXXXXXXXXXXX",
"XXXXX.XooXXXXXXXXXXXXXXXXXXXXXXX",
"XXXXXXXO.XXXXXXXXXXXXXXXXXXXXXXX",
"XXXXXXX.XXXXXXXXXXXXXXXXXXXXXXXX",
"XXXXXXXXXXXXXXXXXXXXXXXXXXXXXXXX",
"XXXXXXXXXXXXXXXXXXXXXXXXXXXXXXXX",
"XXXXXXXXXXXXXX  XXX  XXXXXXXXXXX",
"XXXXXXXXXXXXXX +   + XXXXXXXXXXX",
"XXXXXXXXXXXXXX +@@@@ XXXXXXXXXXX",
"XXXXXXXXXXXXXX +  +  XXXXXXXXXXX",
"XXXXXXXXXXXXXX +@@@@ XXXXXXXXXXX",
"XXXXXXXXXXXXXX +++++ XXXXXXXXXXX",
"XXXXXXXXXXXXX ++@@   XXXXXXXXXXX",
"XXXXXXXXXXXXX ++@ +@@ XXXXXXXXXX",
"XXXXXXXXXXXXX +@@    XXXXXXXXXXX",
"XXXXXXXXXX   ++@ @ XXXXXXXXXXXXX",
"XXXXXXXXX ++ ++@ @ XXXXXXXXXXXXX",
"XXXXXXXXX          XXXXXXXXXXXXX"
};
