/* XPM */
static const char *bot_2[] = {
/* columns rows colors chars-per-pixel */
"64 64 188 2 ",
"   c #0D112C",
".  c #12162B",
"X  c #161C2E",
"o  c #181F2E",
"O  c #121227",
"+  c #171F30",
"@  c #1B222F",
"#  c #172031",
"$  c #182333",
"%  c #1A2836",
"&  c #1C2C3A",
"*  c #1E323E",
"=  c #21292F",
"-  c #212B33",
";  c #282D33",
":  c #2B3332",
">  c #2E3B35",
",  c #333E35",
"<  c #364336",
"1  c #3A4636",
"2  c #3B4537",
"3  c #43463A",
"4  c #424938",
"5  c #405238",
"6  c #465A3A",
"7  c #4D5D3B",
"8  c #4A5639",
"9  c #56583F",
"0  c #4C613B",
"q  c #53633C",
"w  c #5B6C3E",
"e  c #5E713F",
"r  c #5E793F",
"t  c #63743F",
"y  c #1F3541",
"u  c #213C46",
"i  c #203742",
"p  c #26484E",
"a  c #23424A",
"s  c #274D52",
"d  c #284E53",
"f  c #295155",
"g  c #2A5659",
"h  c #2C5C5D",
"j  c #3E5543",
"k  c #33635E",
"l  c #2A5E61",
"z  c #2E6162",
"x  c #2F6868",
"c  c #306764",
"v  c #316966",
"b  c #326D69",
"n  c #35736D",
"m  c #3E7E6F",
"M  c #347573",
"N  c #377A73",
"B  c #397C74",
"V  c #2E7575",
"C  c #5E7940",
"Z  c #476258",
"A  c #49775A",
"S  c #4F724F",
"D  c #626342",
"F  c #6E6F45",
"G  c #657940",
"H  c #6B7A40",
"J  c #7C7C49",
"K  c #717146",
"L  c #407B69",
"P  c #517261",
"I  c #597C68",
"U  c #407F72",
"Y  c #807F4A",
"T  c #398178",
"R  c #5E8354",
"E  c #55815B",
"W  c #578C5F",
"Q  c #5B8E5C",
"!  c #5F905A",
"~  c #6D8342",
"^  c #6E8D43",
"/  c #6A894C",
"(  c #708643",
")  c #768E45",
"_  c #788E44",
"`  c #739445",
"'  c #799245",
"]  c #749C4C",
"[  c #799F4A",
"{  c #799C46",
"}  c #668C58",
"|  c #669455",
" . c #699654",
".. c #6E9950",
"X. c #629259",
"o. c #6A935B",
"O. c #6E995E",
"+. c #729C5D",
"@. c #7B9850",
"#. c #7DA147",
"$. c #7CA148",
"%. c #7BA15A",
"&. c #4D8665",
"*. c #44826D",
"=. c #49856D",
"-. c #4E8A6C",
";. c #528963",
":. c #588D67",
">. c #538B69",
",. c #56896E",
"<. c #5C9165",
"1. c #5F9669",
"2. c #458272",
"3. c #578C70",
"4. c #5D8C75",
"5. c #629463",
"6. c #689661",
"7. c #6C9C63",
"8. c #68956C",
"9. c #719B6F",
"0. c #628E74",
"q. c #679175",
"w. c #6FA166",
"e. c #79A863",
"r. c #73A464",
"t. c #89874C",
"y. c #918F4E",
"u. c #829C48",
"i. c #809947",
"p. c #93914F",
"a. c #9B9851",
"s. c #A09D53",
"d. c #81A346",
"f. c #84A548",
"g. c #89A349",
"h. c #8CAA49",
"j. c #83A949",
"k. c #90A448",
"l. c #92AD4A",
"z. c #96B14B",
"x. c #9CB44C",
"c. c #9BB94E",
"v. c #84A657",
"b. c #86AB56",
"n. c #8BAD54",
"m. c #83A658",
"M. c #91AE52",
"N. c #8FB252",
"B. c #93B351",
"V. c #A1B74C",
"C. c #A3B94C",
"Z. c #A7A455",
"A. c #B0AC57",
"S. c #A7BA50",
"D. c #ABBD53",
"F. c #A6B459",
"G. c #BAB65A",
"H. c #BFBA5B",
"J. c #8CAA6C",
"K. c #8FA363",
"L. c #91AD6B",
"P. c #AFBE6A",
"I. c #AAC04C",
"U. c #B2C057",
"Y. c #B3C159",
"T. c #BAC55D",
"R. c #BDC760",
"E. c #BEC764",
"W. c #BEC765",
"Q. c #C1C963",
"!. c #C5CB66",
"~. c #C7CC67",
"^. c #C6CC67",
"/. c #C7CC67",
"(. c #C9CD67",
"). c #CCCF67",
"_. c #C8CD68",
"`. c #C8CD68",
"'. c #CACE69",
"]. c #C8CD68",
"[. c #CED066",
"{. c #3A8487",
"}. c #3A8688",
"|. c #3C8A8C",
" X c #439F9E",
".X c #46A7A5",
"XX c #46A8A6",
"oX c #47ABA9",
/* pixels */
"c.c.c.c.c.H.H.H.H.H.H.H.H.H.H.e.e.e.e.e.e.e.e.e.e.e.e.e.e.e.e.e.e.e.e.e.e.e.e.e.e.e.e.e.e.e.e.e.e.e.e.e.e.e.e.e.e.e.e.e.e.e.e.e.",
"c.c.c.c.c.c.H.H.H.H.H.H.c.e.e.e.c.c.c.e.e.e.e.e.e.e.e.e.e.e.e.e.e.e.e.e.e.e.e.e.q.q.q.q.e.e.e.e.e.e.e.e.e.e.e.e.e.e.e.e.e.c.c.c.",
"c.c.H.H.H.H.H.H.H.H.H.c.c.c.c.c.c.c.c.c.c.c.c.e.e.e.e.e.e.e.e.e.e.e.e.e.e.e.e.q.q.q.q.q.q.c.c.c.c.c.c.c.c.q.q.q.q.e.e.e.c.c.c.c.",
"H.H.H.H.H.H.H.H.H.H.H.c.c.c.c.c.c.c.e.e.e.e.e.e.e.e.e.e.e.e.e.e.e.e.e.q.q.q.e.q.q.q.q.q.q.q.q.q.q.q.c.c.q.q.q.q.q.q.q.e.c.c.c.c.",
"H.H.H.H.H.H.H.H.H.H.c.c.c.c.c.c.c.c.c.c.e.e.e.e.e.e.e.e.e.e.e.e.e.e.q.q.q.q.q.q.q.q.q.q.q.q.q.q.q.q.q.q.q.H.H.H.q.q.q.q.c.c.c.H.",
"c.c.c.c.c.H.H.H.H.H.c.c.c.c.c.c.c.c.c.c.c.c.e.e.e.e.e.e.e.e.e.e.e.q.q.q.q.q.H.H.H.H.q.q.q.q.H.H.H.H.q.q.H.H.H.H.H.q.q.q.q.H.H.H.",
"c.c.c.c.c.c.H.H.H.H.H.c.H.H.c.c.c.c.c.c.c.c.c.c.c.c.e.e.e.e.e.e.e.q.q.q.H.H.H.H.H.H.H.q.q.H.H.H.H.H.H.H.H.H.H.H.H.H.H.H.H.H.c.c.",
"c.c.c.c.c.c.c.c.H.H.H.H.H.H.H.c.c.c.c.c.c.c.c.c.c.c.e.e.e.e.e.q.q.q.q.H.H.H.H.H.H.H.H.q.H.H.H.H.H.H.H.H.H.H.H.H.H.H.H.H.H.H.c.c.",
"H.H.c.c.c.c.c.c.c.H.H.H.c.c.c.H.c.c.c.c.c.c.c.c.c.c.c.H.H.H.H.H.H.q.H.H.H.H.H.H.H.H.H.H.H.H.H.H.H.H.H.H.H.H.H.H.H.H.H.H.H.H.c.H.",
"H.H.H.c.c.c.c.c.c.c.c.c.c.c.c.c.c.c.c.c.c.c.c.c.c.c.H.H.c.c.H.H.H.H.H.H.H.H.H.H.H.H.H.H.H.H.H.H.H.H.H.H.H.H.H.H.H.H.H.H.H.H.H.H.",
"H.H.H.c.c.c.H.H.c.c.c.c.c.c.c.c.c.c.c.c.c.c.c.c.c.c.H.c.c.c.c.H.H.H.H.H.H.H.H.c.c.c.H.H.H.H.H.c.c.H.H.H.H.c.c.H.H.H.H.H.H.H.H.H.",
"H.H.H.c.c.H.H.H.H.H.c.c.c.c.c.c.c.c.c.c.c.c.c.c.c.c.c.c.c.c.c.c.c.c.c.H.H.H.c.c.c.c.c.H.H.c.c.c.c.c.c.H.c.c.c.c.H.H.H.H.H.H.H.H.",
"H.H.H.H.H.H.H.H.H.H.H.H.H.H.H.H.H.H.H.c.c.c.c.c.c.c.c.c.c.c.c.c.c.c.c.c.H.H.c.c.c.c.c.H.c.c.c.c.c.c.c.c.c.c.c.c.H.H.H.H.H.H.H.H.",
"H.H.H.H.H.H.H.H.H.c.c.c.c.c.c.c.c.c.c.c.c.c.c.c.c.c.c.c.c.c.c.c.c.c.c.c.c.c.c.c.c.c.c.H.c.c.c.c.c.c.c.c.c.c.c.c.H.H.H.H.H.c.c.c.",
"c.c.c.c.c.c.c.c.c.c.c.c.e.e.e.e.e.e.c.c.c.c.c.c.c.c.c.c.c.c.c.c.c.c.c.c.c.c.c.c.c.c.c.c.c.c.c.c.c.c.c.c.c.c.c.c.c.c.c.c.c.c.c.c.",
"c.c.c.c.c.c.c.c.c.c.e.e.e.e.e.e.e.e.e.c.e.e.e.e.c.c.c.c.c.c.H.H.H.c.c.c.c.c.c.c.c.c.c.c.c.c.c.c.c.c.c.c.c.c.c.c.c.c.c.c.c.c.c.c.",
"c.c.c.c.c.c.c.c.e.e.e.e.e.e.e.e.e.e.e.e.e.e.e.e.e.c.c.c.H.H.H.H.H.H.c.c.c.c.c.c.c.c.c.c.e.e.e.c.c.c.c.c.c.c.c.c.c.c.c.c.c.c.c.c.",
"c.c.c.c.c.c.c.e.e.e.e.e.e.e.e.e.e.e.e.e.e.e.e.e.e.H.H.H.H.H.H.H.H.H.H.H.H.H.e.e.e.c.c.e.e.e.e.e.c.c.c.c.c.c.c.c.c.c.c.c.c.c.c.c.",
"c.c.c.c.c.e.e.e.e.e.e.c.c.c.c.c.e.e.e.e.e.e.e.e.e.e.e.e.H.H.H.H.H.H.H.H.H.e.e.e.e.e.e.e.c.c.e.e.e.c.c.c.c.c.c.e.e.e.c.c.c.c.c.c.",
"c.c.c.e.e.e.e.e.e.e.c.c.c.c.c.c.c.e.e.e.c.c.c.e.e.e.e.e.e.e.H.H.H.e.e.e.e.e.c.c.e.e.e.c.c.c.c.e.e.e.c.c.c.c.e.e.e.e.e.c.c.c.e.e.",
"e.c.c.c.c.c.c.c.c.c.c.c.c.c.c.c.c.e.e.c.c.c.n.B N N N N :.c.c.c.c.c.<.N N N N N b.B.c.c.B.B.B.B.c.c.c.c.c.e.e.e.e.e.e.e.e.e.e.e.",
"e.e.e.e.c.c.c.c.c.c.c.c.c.c.c.c.c.c.B.N.B.n.B N *.*.*.B N 5.c.N.B.<.N N U =.*.*.B B n.n.B B N =.r.c.c.c.c.e.e.e.e.e.e.e.e.e.e.e.",
"c.c.c.c.c.c.c.c.c.c.c.c.c.c.c.c.c.N.=.N N N N >.x.x.V.v.B <.7.N N N N B v.V.x.x.>.N N N N =.=.*.=.r.c.c.e.e.e.e.c.c.c.e.e.e.e.e.",
"c.c.c.c.c.c.c.c.q.q.q.q.q.c.c.q.0.B N =.=.=.*.x.V.V.V.C.%.M N N N N U v.C.S.S.V.x.>.N N >.x.V.b.N =.w.7.r.e.e.c.c.c.c.c.c.c.c.c.",
"c.c.c.c.c.c.c.q.q.q.q.q.q.q.q.0.U N =.B.V.z.=.x.V.V.V.x.O.U 3.3.2.M %.C.S.Q.(.S.V.x.B m x.V.C.n.=.N N N -.7.r.c.c.c.c.c.c.c.c.c.",
"c.c.c.c.c.q.q.q.H.H.H.H.q.4.4.,.N N M.V.V.z.=.x.D.S.C.v.V 9.[.).L.U +.C.T._.~.D.V.x.8.8.D.S.V.C.v.N N N N N 5.B.c.c.c.c.c.c.c.c.",
"c.c.q.q.q.q.H.H.H.H.H.H.F.,.N N N N M.V.V.z.5.D.(.Q.S.6.B J.(.~.[.9.+.D.Q.~.~.~.S.D.(.(._.Q.D.C.m.B :.:.:.=.N 1.e.e.e.e.e.c.c.c.",
"H.q.q.H.H.H.H.H.H.H.H.H.8.N -.<.B N M.D.D.D.C.~.~.(.P.q.J.).~.~.(.J.v.T._.~.~.~.Y.!.~.~.~.~.Q.C.n.+.C.C.C.m.=.-.r.e.e.e.e.e.e.e.",
"H.H.H.H.H.H.H.H.H.H.e.} L >.M.C.+.B 6.W._.~.Y.~.~.~.(.).(.~.~.~.~.(.T.R.~.~.~.~._.~.~.~.~.(.Q.V.V.C.V.V.V.C.6.M K.H.H.H.H.H.H.H.",
"c.c.c.c.c.c.H.H.e.e.} > y @.I.V.C.+.9.W.(.~._.~.~.~.~.~.~._.~.~.~.(._.~.~.~._.~.~.~.~.~.(.~.Y.V.V.V.V.V.V.C.6.M K.H.H.H.H.H.H.H.",
"c.c.c.c.c.c.c.c.c.u.< X . 4 w g.V.C.Y.Y.~._._._.~.~.~._.Q.T._.~._.R.Q._.~.~.T.!._._._._.~.Y.V.V.V.C.C.C.C.n.-.>.n.c.c.c.c.c.c.c.",
"c.c.c.c.c.c.c.c.u.< . , 0 6 q g.V.V.V.V.Y.Y.Y.Y._._.Q.Y.D.C.R._.R.S.D.Q.~.~.T.Y.Y.Y.Y.Y.U.V.V.S.k.q q _ n.-.l / c.c.c.c.c.c.c.c.",
"H.H.H.c.c.g.7 q 1 X , ^ j.h.V.V.V.V.V.h.x.V.V.V.U.Y.D.x.V.V.S.Y.S.x.D.Q.~.~._.T.Y.V.V.V.V.V.k.7 2     : A z & , u.c.c.c.c.c.c.H.",
"H.H.H.H.g.1 X X X . 6 j.$.l.V.V.V.h.h.l.V.V.V.V.V.V.V.V.V.V.V.V.V.V.T._.~.~.~._._.C.V.V.V.V.l.t H H 8   & & . X < u.c.c.c.c.H.H.",
"H.H.H.Z.3 X & h a . 6 j.$.z.V.V.V.z.d.x.V.V.V.V.x.h.l.V.V.V.V.V.V.V.T._.~.~.~.~.Y.V.V.V.V.V.V.C.C.C.l.8 . 1 C > . , Z.H.H.H.H.H.",
"c.c.c.s.X & v B n u = C j.j.x.V.V.V.f.f.V.V.x.h.f.$.$.h.V.V.V.V.V.V.S.R._.(.(.U.V.V.V.V.V.V.V.V.V.V.C.H   0 j.^ > . , g.H.H.H.H.",
"c.c.c.u.X y B N N n u @ r #.j.x.V.h.$.$.f.f.f.$.$.$.$.f.V.V.V.V.V.l.z.S.D.D.D.V.V.V.V.V.V.V.V.V.V.V.C.t < ` $.d.^ > X ' c.c.H.c.",
"c.c.c.u.X y B N N N n z R d.$.j.f.$.$.$.$.$.$.d.x.x.x.l.h.V.V.V.l.$.l.V.V.V.V.V.V.x.h.V.V.V.V.V.V.V.V.g.` $.$.$.j.< X ' c.c.c.c.",
"c.c.c.u.X y N N N N N N X.$.$.$.$.$.$.z.x.d.d.x.V.V.V.V.l.j.f.f.d.$.d.z.V.V.V.V.V.x.d.j.f.h.V.V.V.V.z.d.$.$.$.#.6 @ X : g.c.c.c.",
"c.c.c.i.X X a B g % % S $.$.$.$.$.$.z.V.V.x.x.V.V.V.V.V.z.$.$.$.h.x.h.d.j.x.V.V.V.x.d.d.x.x.V.x.d.d.d.$.$.$.$.Q n y X X - O.e.c.",
"e.e.o.- X X + % $ X 6 { $.$.$.$.$.$.x.V.V.V.V.V.V.V.V.V.V.x.l.$.l.V.V.h.$.z.V.V.x.f.d.x.V.V.V.x.$.$.$.$.$.$.d.;.N n y X X o.e.e.",
"e.O.- X X $ $ + . 5 $.$.$.$.$.$.$.$.d.x.x.V.V.V.V.x.V.V.V.V.V.h.h.V.V.V.f.$.x.x.f.$.d.x.V.V.V.z.$.$.$.$.$.$.$.;.N N N & X o.e.e.",
"c.h.o X y n N g . 5 $.$.$.{ ` ] $.$.$.$.d.x.V.V.x.f.V.V.V.V.V.l.$.l.x.x.f.$.$.$.$.$.$.j.x.x.x.$.$.$.$.$.[ [ W N N N B * X o.c.c.",
"c.g.o & N N B h # X 6 ` ` 1 $ c  .$.$.$.$.d.x.x.$.f.x.x.V.V.V.h.$.$.$.$.$.$.$.$.$.$.$.$.$.$.$.$.$.$.$.X.N B N N N N n & X ~ c.c.",
"c.~ o & N N N N h $ X o o $ h N N  .] ] $.$.$.$.$.$.$.f.x.x.h.$.$.$.$.$.$.$.$.$.$.$.$.$.$.$.$.$.$.$.$.| B N N N n b * X - ~ l.c.",
"c.~ o & b N N N B g & $ . s N N N N N *.[ $.$.$.$.$.$.$.$.$.$.$.$.$.$.$.$.$.$.] $.$.$.$.$.$.$.$.$.$.$.$.X.B N n y X X ; J p.p.G.",
"l.~ : X & c b B N N B f $ . s n N N *.[ $.$.$.$.$.$.$.$.$.$.$.] [ $.$.$.$.$.] U ] $.$.$.$.] $.$.$.$.$.$.d.Q N d # X X D y.p.a.G.",
"_ _ ~ : X X * b N N N B f * * c N N ] $.$.$.$.$...$.$.$.$.$.[ &.&.[ $.$.$.] *.*.[ $.$.$.] *.$.$.$.$.$.$.[ ;.N B d $ X X J p.A.c.",
"P P ' Z X X # d B N N N N B B N N N X.$.$.$.$.X.*.$.$.$.$.[ Q &.m ;. .| | *.N ] $.$.$.$.] *.$.$.$.$.$.d.! N N N B s $ X J ' _ h.",
"I I P Z X $ f B N N N N N N N N N N N ! | | [ &.*.$.$.$.d.X.;.d.| &.m *.&.B N Q $.$.$.| ! m  .$.$.$.d.] A v N N N B y X G ' _ P ",
"q.A.p.Z X y T N N N B N N N N N N N N N N ;.$.] m  .d.d.[ &.;.$.$.d.X.] d.Q B N Q X.! N N N m X.X.X.| A y p B N N B y X G ' ' I ",
"G.y.p.J X & z B B v d c N N N N N N N N B $.$.] N m ! X.;.M W d.$.$.d. .] d.*.N N N N N N N N N N b d y . d B N B z & X J P P 0.",
"H.Z.p.t.3 X % z b y O s B N N N N N N N N Q [ W N N N N N N *...$.$.d.&.&.Q m N N N N N N N N N N v a p * * v T h % X 3 t.p.Z.H.",
"H.G.y.p.( 1 X & i . * c N N N N N N N N N N ;.N N N N N N N N *...d. .*.N N N N N N N N N N B N N N B T f . * s & X 3 t.p.y.G.H.",
"H.H.g._ ' ~ 7 1 X X s T N N N N B N N N N N N N N N N N N N N N *.W *.N N N N N N N N N N n f B N N B c * X X X 3 7 ~ ' y.Z.H.H.",
"c.c.c.g._ _ ' ~ q < & z B B B B d b N N N N N N N N N B N N N N N N N N N N N N N N N N N b $ d B B v & X 2 D D X ' _ _ g.H.H.H.",
"c.c.c.c.h.g._ ' ' 7 X & u u u u $ v B N N N N N N B b d B N N N N B f z B N N N N N N B n i X $ u u & X X 9 a.X X _ g.h.c.c.c.c.",
"c.c.c.c.X c.g._ _ X X X X X X X X * n N N N N N B b & $ f B B B B g $ h B N N N N N N u * X X X X X X , F J p.X _ g.c.c.c.c.c.c.",
"c.c.c.c.X c.c.l.g.X X e e e e e e e A E N N N n y & X X $ y y y y % X & c B N N N N N k e e e e X K K Y p.p.X X l.c.c.c.c.c.c.c.",
"c.c.c.c.X c.c.c.c.X X ' ' ' ' ' X X R R E E * / t t G j X X X X X X X X & * * b N N y * ' ' ' X X X p.p.y.X X X c.c.c.c.c.X c.c.",
"c.c.c.X X X c.c.X X X z.u._ _ _ X X R R R R X l.' ' ' ( X X X M M M X X X G G / & & {.X X X X X X X X X X X X X c.c.c.c.X X c.c.",
"c.c.X X X X X X X X X X c.z.z.X X X X R R X X X _ _ _ X X X X }.}.}.}.X X X X X X X {.{.X X X X oXX X X X X X X X c.c.X X X c.c.",
"c.X X oXoXoXX X X X X X X X X X X X X X X X X X X X X X X X {.{.{.{.{.{.X X X X X }.}.}.|..X.XXXoXoXX X X X oXX X X X X X X X c.",
"X X oXoXoXoXoXoXoXX X X X X X X oXoXX X X oXX X X X X X X }.{.{.{.{.{.{.{. XoXoXXX.X.X.XXXoXoXoXoXoXoXoXoXoXoXoXX X X X X oXX X "
};
