/* XPM */
static const char *bot_4[] = {
/* columns rows colors chars-per-pixel */
"64 64 194 2 ",
"   c #0D112C",
".  c #12152B",
"X  c #161C2E",
"o  c #181E2E",
"O  c #171F30",
"+  c #1A212F",
"@  c #172031",
"#  c #192333",
"$  c #1B2835",
"%  c #1C2C3A",
"&  c #1E323E",
"*  c #222A2E",
"=  c #202830",
"-  c #2C3633",
";  c #2E3A34",
":  c #2A383A",
">  c #313C35",
",  c #364336",
"<  c #394535",
"1  c #3E4139",
"2  c #3A4839",
"3  c #3E5038",
"4  c #415438",
"5  c #4A5C3A",
"6  c #495839",
"7  c #56583E",
"8  c #404439",
"9  c #4A603B",
"0  c #53633C",
"q  c #5A693D",
"w  c #5D723F",
"e  c #64773F",
"r  c #1E3541",
"t  c #1F3845",
"y  c #213B44",
"u  c #223F48",
"i  c #26484E",
"p  c #23424A",
"a  c #3C5242",
"s  c #274C52",
"d  c #284F53",
"f  c #295255",
"g  c #2C5C5D",
"h  c #2A5658",
"j  c #33635E",
"k  c #2A5D61",
"l  c #2E6262",
"z  c #2F6868",
"x  c #306664",
"c  c #316966",
"v  c #326C69",
"b  c #34726D",
"n  c #3E7E6E",
"m  c #347672",
"M  c #377A73",
"N  c #397C74",
"B  c #377B7F",
"V  c #2D7475",
"C  c #455345",
"Z  c #4B6649",
"A  c #4C6A49",
"S  c #54734F",
"D  c #476358",
"F  c #416A58",
"G  c #4B7B5B",
"H  c #49735A",
"J  c #5B7E52",
"K  c #6B6B44",
"L  c #636442",
"P  c #657A40",
"I  c #6A7B41",
"U  c #607340",
"Y  c #7B7B49",
"T  c #717146",
"R  c #407F6D",
"E  c #4E7F62",
"W  c #517261",
"Q  c #597C68",
"!  c #537E65",
"~  c #407F71",
"^  c #807F4A",
"/  c #3A8178",
"(  c #398077",
")  c #5E8354",
"_  c #568C5F",
"`  c #5B8E5C",
"'  c #55805C",
"]  c #5E905A",
"[  c #6E8443",
"{  c #698848",
"}  c #768E45",
"|  c #788D44",
" . c #799245",
".. c #7A9D46",
"X. c #749C4D",
"o. c #789E4A",
"O. c #749545",
"+. c #668C57",
"@. c #669456",
"#. c #699654",
"$. c #6E9951",
"%. c #629258",
"&. c #69925B",
"*. c #6E9A5F",
"=. c #769E5B",
"-. c #7DA147",
";. c #7CA148",
":. c #7CA259",
">. c #4E8765",
",. c #44816D",
"<. c #4A856D",
"1. c #4D886C",
"2. c #4F8864",
"3. c #538A62",
"4. c #598D67",
"5. c #528B6B",
"6. c #5C9165",
"7. c #5F916E",
"8. c #428072",
"9. c #578C70",
"0. c #5F8D75",
"q. c #639463",
"w. c #6B9C64",
"e. c #659667",
"r. c #749D6E",
"t. c #628E74",
"y. c #679175",
"u. c #6A9770",
"i. c #6FA165",
"p. c #79A863",
"a. c #73A464",
"s. c #86854B",
"d. c #8E8D4E",
"f. c #918F4E",
"g. c #839C48",
"h. c #93914F",
"j. c #9B9851",
"k. c #A09B51",
"l. c #81A346",
"z. c #84A548",
"x. c #89A449",
"c. c #83A848",
"v. c #8CAA49",
"b. c #90A448",
"n. c #92AD4A",
"m. c #96B14B",
"M. c #9CB54C",
"N. c #9BB94E",
"B. c #86AB56",
"V. c #8AAB55",
"C. c #81A458",
"Z. c #82A557",
"A. c #93AF51",
"S. c #8EB153",
"D. c #93B351",
"F. c #A1B74C",
"G. c #A3B94C",
"H. c #A8BB4F",
"J. c #A8A656",
"K. c #A7BA50",
"L. c #ABBD53",
"P. c #A0B654",
"I. c #BAB65A",
"U. c #BFBA5B",
"Y. c #B0BF57",
"T. c #B0AC57",
"R. c #8DAB6C",
"E. c #98A862",
"W. c #ABBC6A",
"Q. c #AAC14D",
"!. c #B1C057",
"~. c #B3C159",
"^. c #BAC55D",
"/. c #BEC761",
"(. c #BFC862",
"). c #C5CB66",
"_. c #C7CC67",
"`. c #C6CC67",
"'. c #C4CB65",
"]. c #C9CD67",
"[. c #CCCF67",
"{. c #C8CD68",
"}. c #C8CD68",
"|. c #CACE69",
" X c #C8CD68",
".X c #C0C869",
"XX c #CED066",
"oX c #3A8487",
"OX c #3A8688",
"+X c #3C8A8C",
"@X c #439F9E",
"#X c #46A7A5",
"$X c #46A8A6",
"%X c #47ABA9",
/* pixels */
"N.N.N.N.N.U.U.U.U.U.U.U.U.U.U.p.p.p.p.p.p.p.p.p.p.p.p.p.p.p.p.p.p.p.p.p.p.p.p.p.p.p.p.p.p.p.p.p.p.p.p.p.p.p.p.p.p.p.p.p.p.p.p.p.",
"N.N.N.N.N.N.U.U.U.U.U.U.N.p.p.p.N.N.N.p.p.p.p.p.p.p.p.p.p.p.p.p.p.p.p.p.p.p.p.p.y.y.y.y.p.p.p.p.p.p.p.p.p.p.p.p.p.p.p.p.p.N.N.N.",
"N.N.U.U.U.U.U.U.U.U.U.N.N.N.N.N.N.N.N.N.N.N.N.p.p.p.p.p.p.p.p.p.p.p.p.p.p.p.p.y.y.y.y.y.y.N.N.N.N.N.N.N.N.y.y.y.y.p.p.p.N.N.N.N.",
"U.U.U.U.U.U.U.U.U.U.U.N.N.N.N.N.N.N.p.p.p.p.p.p.p.p.p.p.p.p.p.p.p.p.p.y.y.y.p.y.y.y.y.y.y.y.y.y.y.y.N.N.y.y.y.y.y.y.y.p.N.N.N.N.",
"U.U.U.U.U.U.U.U.U.U.N.N.N.N.N.N.N.N.N.N.p.p.p.p.p.p.p.p.p.p.p.p.p.p.y.y.y.y.y.y.y.y.y.y.y.y.y.y.y.y.y.y.y.U.U.U.y.y.y.y.N.N.N.U.",
"N.N.N.N.N.U.U.U.U.U.N.N.N.N.N.N.N.N.N.N.N.N.p.p.p.p.p.p.p.p.p.p.p.y.y.y.y.y.U.U.U.U.y.y.y.y.U.U.U.U.y.y.U.U.U.U.U.y.y.y.y.U.U.U.",
"N.N.N.N.N.N.U.U.U.U.U.N.U.U.N.N.N.N.N.N.N.N.N.N.N.N.p.p.p.p.p.p.p.y.y.y.U.U.U.U.U.U.U.y.y.U.U.U.U.U.U.U.U.U.U.U.U.U.U.U.U.U.N.N.",
"N.N.N.N.N.N.N.N.U.U.U.U.U.U.U.N.N.N.N.N.N.N.N.N.N.N.p.p.p.p.p.y.y.y.y.U.U.U.U.U.U.U.U.y.U.U.U.U.U.U.U.U.U.U.U.U.U.U.U.U.U.U.N.N.",
"U.U.N.N.N.N.N.N.N.U.U.U.N.N.N.U.N.N.N.N.N.N.N.N.N.N.N.U.U.U.U.U.U.y.U.U.U.U.U.U.U.U.U.U.U.U.U.U.U.U.U.U.U.U.U.U.U.U.U.U.U.U.N.U.",
"U.U.U.N.N.N.N.N.N.N.N.N.N.N.N.N.N.N.N.N.N.N.N.N.N.N.U.U.N.N.U.U.U.U.U.U.U.U.U.U.U.U.U.U.U.U.U.U.U.U.U.U.U.U.U.U.U.U.U.U.U.U.U.U.",
"U.U.U.N.N.N.U.U.N.N.N.N.N.N.N.N.N.N.N.N.N.N.N.N.N.N.U.N.N.N.N.U.U.U.U.U.U.U.U.N.N.N.U.U.U.U.U.N.N.U.U.U.U.N.N.U.U.U.U.U.U.U.U.U.",
"U.U.U.N.N.U.U.U.U.U.N.N.N.N.N.N.N.N.N.N.N.N.N.N.N.N.N.N.N.N.N.N.N.N.N.U.U.U.N.N.N.N.N.U.U.N.N.N.N.N.N.U.N.N.N.N.U.U.U.U.U.U.U.U.",
"U.U.U.U.U.U.U.U.U.U.U.U.U.U.U.U.U.U.U.N.N.N.N.N.N.N.N.N.N.N.N.N.N.N.N.N.U.U.N.N.N.N.N.U.N.N.N.N.N.N.N.N.N.N.N.N.U.U.U.U.U.U.U.U.",
"U.U.U.U.U.U.U.U.U.N.N.N.N.N.N.N.N.N.N.N.N.N.N.N.N.N.N.N.N.N.N.N.N.N.N.N.N.N.N.N.N.N.N.U.N.N.N.N.N.N.N.N.N.N.N.N.U.U.U.U.U.N.N.N.",
"N.N.N.N.N.N.N.N.N.N.N.N.p.p.p.p.p.p.N.N.N.N.N.N.N.N.N.N.N.N.N.N.N.N.N.N.N.N.N.N.N.N.N.N.N.N.N.N.N.N.N.N.N.N.N.N.N.N.N.N.N.N.N.N.",
"N.N.N.N.N.N.N.N.N.N.p.p.p.p.p.p.p.p.p.N.p.p.p.p.N.N.N.N.N.N.U.U.U.N.N.N.N.N.N.N.N.N.N.N.N.N.N.N.N.N.N.N.N.N.N.N.N.N.N.N.N.N.N.N.",
"N.N.N.N.N.N.N.N.p.p.p.p.p.p.p.p.p.p.p.p.p.p.p.p.p.N.N.N.U.U.U.U.U.U.N.N.N.N.N.N.N.N.N.N.p.p.p.N.N.N.N.N.N.N.N.N.N.N.N.N.N.N.N.N.",
"N.N.N.N.N.N.N.p.p.p.p.p.p.p.p.p.p.p.p.p.p.p.p.p.p.U.U.U.U.U.U.U.U.U.U.U.U.U.p.p.p.N.N.p.p.p.p.p.N.N.N.N.N.N.N.N.N.N.N.N.N.N.N.N.",
"N.N.N.N.N.p.p.p.p.p.p.N.N.N.N.N.p.p.p.p.p.p.p.p.p.p.p.p.U.U.U.U.U.U.U.U.U.p.p.p.p.p.p.p.N.N.p.p.p.N.N.N.N.N.N.p.p.p.N.N.N.N.N.N.",
"N.N.N.p.p.p.p.p.p.p.N.N.N.N.N.N.N.p.p.p.N.N.N.p.p.p.p.p.p.p.U.U.U.p.p.p.p.p.N.N.p.p.p.N.N.N.N.p.p.p.N.N.N.N.p.p.p.p.p.N.N.N.p.p.",
"p.N.N.N.N.N.N.N.N.N.N.N.N.N.N.N.N.p.p.N.N.N.N.B.M M M M M 6.N.N.N.N.M.4.M M M M N V.D.N.N.D.D.D.D.N.N.N.N.p.p.p.p.p.p.p.p.p.p.p.",
"p.p.p.p.N.N.N.N.N.N.N.N.N.N.N.N.N.N.N.D.S.D.B.N M ,.,.,.N M q.N.S.D.6.M M ~ ,.,.,.N ,.V.B.N N M <.D.N.N.N.p.p.p.p.p.p.p.p.p.p.p.",
"N.N.N.N.N.N.N.N.N.N.N.N.N.N.N.N.N.N.S.,.M M M M <.M.M.F.C.N 6.w.M M M M ~ V.M.M.M.1.M M M M ,.,.,.<.D.N.p.p.p.p.N.N.N.p.p.p.p.p.",
"N.N.N.N.N.N.N.N.y.y.y.y.y.N.N.y.y.t.,.M <.<.<.M 4.F.F.F.G.:.m M M M M ,.V.G.G.K.G.M.5.M M 4.M.G.Z.M 1.i.w.a.p.N.N.N.N.N.N.N.N.N.",
"N.N.N.N.N.N.N.y.y.y.y.y.y.y.y.y.t.N M 1.m.F.D.<.F.F.F.F.M.q.8.9.9.8.m :.G.K.'._.K.F.m.N ,.M.F.G.V.,.M M M 5.w.D.N.N.N.N.N.N.N.N.",
"N.N.N.N.N.y.y.y.U.U.U.U.y.y.0.E.1.M M D.F.F.D.,.F.L.K.G.:.V r.XX[.R.N :.G.(.]._.L.F.M.7.e.L.K.F.G.C.m M M M M q.D.N.N.N.N.N.N.N.",
"N.N.y.y.y.y.U.U.U.U.U.U.U.T.5.M M M M A.F.F.m.q.Y.{.'.P.q.~ R.]._.XXu.=.L.'._._._.G.L.].].{.'.L.G.:.N 4.4.4.,.M e.p.p.p.p.N.N.N.",
"U.y.y.U.U.U.U.U.U.U.U.U.k.! M 5.4.N M D.L.L.L.H._._.].W.y.R.[._._.].R.V.^.{._._._.~.)._._._.].(.G.V.=.G.G.G.:.,.5.a.p.p.p.p.p.p.",
"U.U.U.U.U.U.U.U.U.U.+.S > u E A.G.*.N *.'.{.).~._._._.].[.]._._._._.].^.'.]._._._.{._._._._.].(.F.G.G.F.F.F.G.q.M E.U.U.U.U.U.U.",
"N.N.N.N.N.N.U.U.p.&., X .   | Q.G.G.*.r..X_._.{._._._._._.].]._._._.{.{._._._.{._._._._._._.).!.F.F.F.F.F.F.G.q.M E.U.U.U.U.U.U.",
"N.N.N.N.N.N.N.N.N.U . ; 5 5 0 q b.G.G.~.~._.{.{._._._.{.{.'.^.]._.{.^.'.{._._.^.).{.{.{.{.).!.F.G.H.H.G.G.G.V.<.5.S.N.N.N.N.N.N.",
"N.N.N.N.N.N.N.N.g., ; { c.c.P q b.G.F.F.F.~.~.~.{.{.'.~.~.L.!.{.(.~.G.^.{._._.G.L.~.~.~.~.Y.G.H.b.0 0 | V.w.F G S.N.N.N.N.N.N.N.",
"U.U.U.N.N.N.N.g., . 9 c.;.v.G.H.G.F.G.F.v.M.F.G.!.~.L.M.F.F.K.~.K.M.L.'._._._.^.~.F.F.F.F.F.b.5 <     - H l % < 0 g.N.N.N.N.N.U.",
"U.U.U.U.N.g.6 , X . 9 c.;.n.G.F.F.F.v.v.n.F.F.F.F.F.F.F.F.F.F.F.F.F.^.{._._._.{.{.G.F.F.F.G.n.e I I 6   % % . . X , x.N.N.N.U.U.",
"U.U.U.U.J.1 X & g y * P -.n.G.F.F.F.m.l.M.F.F.G.M.v.v.G.F.F.F.F.F.F.^.{._._._._.~.G.F.F.F.F.G.G.G.H.n.6 . < w w ; . h.U.U.U.U.U.",
"N.N.N.J.1 X % v N b t * w c.M.F.F.F.G.z.M.G.M.v.z.;.;.v.F.F.F.F.F.F.K.(.{.].].!.F.F.F.F.F.F.F.F.F.F.H.I   9 c.c.{ - > x.U.U.U.U.",
"N.N.N.g.X % v N M N v k ) ;.c.M.G.F.v.;.z.z.z.;.;.;.;.z.G.F.F.F.G.n.m.K.L.L.L.F.F.F.F.F.F.F.F.F.F.F.H.e , O.;.;.c., X ..N.N.U.N.",
"N.N.N.g.X r N M M M M M %.;.;.c.z.z.;.;.;.;.;.l.M.M.M.n.v.F.F.G.n.;.n.F.F.F.F.F.F.M.v.F.F.F.F.F.F.F.G.x.O.;.;.l.5 + X - x.N.N.N.",
"N.N.N.g.X r N N g % % Z ;.;.;.;.;.;.;.m.M.l.l.M.F.F.G.F.n.c.c.z.l.;.l.m.F.F.F.F.F.M.l.c.z.v.F.F.F.F.m.l.;.;.;.;.G r X X - x.N.N.",
"N.N.N.g.X r N g @ X 4 ..;.;.;.;.;.;.m.F.F.M.M.F.F.F.F.G.m.;.;.;.v.M.v.l.c.M.F.F.F.M.l.l.M.M.F.M.l.l.l.;.;.;.;.` N b & X X &.p.N.",
"p.p.p.+.X O $ @ . 3 ..;.;.;.;.;.;.;.M.F.F.F.F.F.F.F.F.F.F.M.n.;.n.F.F.v.;.M.F.F.F.z.l.M.F.F.F.M.;.;.;.;.;.;.l.3.M M b % X &.p.p.",
"p.p.+.$ X X X @ . 4 ;.;...O.O.o.;.;.l.l.M.M.F.F.F.F.M.F.F.F.F.M.v.n.F.M.M.v.l.M.M.l.;.c.M.F.F.F.n.;.;.;.;.;.;.3.M M N & X &.p.p.",
"N.v.= X X @ y g O X 5 ..4 + $ x $.;.;.;.;.l.M.F.F.m.x.F.F.F.F.G.v.;.n.M.M.z.;.;.;.;.;.;.c.M.M.m.;.;.;.;.o.o._ M M M m % X &.N.N.",
"N.x.+ X y m m M h O o + o @ g M @.;.;.;.;.;.l.M.M.;.z.M.F.F.F.M.v.;.;.;.;.;.;.;.;.;.;.;.;.;.;.;.;.;.l.%.M N M M b b r X = [ M.N.",
"M.[ o % M M M M N h $ % O s M M M #.X.X.;.;.;.;.;.;.;.z.M.M.v.;.;.;.;.;.;.;.;.;.;.;.;.;.;.;.;.;.;.;.;.@.N M M N u X X = P  .n.N.",
"M.[ o % M M M M M M M N s X s m M M ,.,.o.;.;.;.;.;.;.;.;.;.;.o.o.;.;.;.;.;.;.X.;.;.;.;.;.;.;.;.;.;.;.;.%.N M b r X X L d.h.h.I.",
"n.[ o % v N N M M M M M N s % x N M X.;.;.;.;.;.X.;.;.;.;.;.o.2.` l.;.;.;.;.X.R X.;.;.;.;.X.;.;.;.;.;.;.l.` M s % @ X X Y h.j.I.",
"} [ - X % l l c M M M M M M N M M M %.;.;.;.;.%.,.;.;.;.;.o.` ,.` o.l.;.;.X.,.,.o.;.;.;.X.,.;.;.;.;.;.;.o.3.M M N s @ X Y h.T.N.",
"W W [ : X X O s N M M M M M M M M M M %.#.#.o.<.,.;.;.;.l.%.3.l._ 2.#.@.@.,.M X.;.;.;.;.X.,.;.;.;.;.;.l.] M M M M N r X Y  .} v.",
"Q Q W D X @ f N M M N M M M M M M M M M M 2.;.X.R #.;.l.o.3.3.l.@.2.N ,.2.N M ` ;.;.;.@.] n #.l.;.;.l.X.G c M M M N r X P  .} W ",
"y.J.h.D X r N M M N c c M M M M M M M M N ;.;.X.M n %.%.3.m 3.l.;.l.%.X.l.` N M ` %.] M M M n %.%.%.@.G r i N M N l % X P  .} Q ",
"I.f.h.Y X r N M N v % s N M M M M M M M M ] ;.` M M M M M M _ l.;.;.l.#.X.l.,.M M M M M M M M M M v d r . s N M l $ X 1 s.W W t.",
"U.J.h.Y X $ g ( v & % x M M M M M M M M M M _ M M M M M M M ,.$.;.;.l.2.2.` n M M M M M M M M M M c p i & & c ( y X 8 s.h.h.J.U.",
"U.I.h.s.2 X $ s r . s ( M M M M M M M M M M M M M M M M M M M ,.$.l.#.,.M M M M M M M M M M N M M M N ( f . & s C 7 s.h.f.f.I.U.",
"U.U.x.} } 2 X X X X % l N M M M N M M M M M M M M M M N M M M M ,._ ,.M M M M M M M M M M b f N M M N x & X X X K ..} } f.J.U.U.",
"N.N.M.x.} [ 0 0 0 , X % p x N N s v M M M M M M M N v f N M M M M M M M M M M M M M M M N v @ s N N c % X 1 L L X  .} } x.U.U.U.",
"N.N.N.M.v.x. . . .[ X X X & y y @ c N M M M M M N b & @ f N N N M N f l N M M M M M M N b y X @ y y & X X 7 j.X X } x.v.M.N.N.N.",
"N.N.N.N.X M.x.} } X X X Z ; X X X & y H M M M b y & X X $ y y r g h @ g N M M M M M m y & X X X X X X > K Y h.X } x.M.N.N.N.N.N.",
"N.N.N.N.X N.M.n.x.X X  . .I w w w w Z J ' ' +.{ w Z A a X X X X $ $ X % x N M M M M M j w w w w X T T ^ h.h.X X n.M.N.N.N.N.N.N.",
"N.N.N.N.X N.N.N.M.X X } }  . . .X X +.) ) ) X }  . . .J A X X X X X X X % & & v M m r &  . ...X X X h.h.f.X X X N.N.N.N.N.X N.N.",
"N.N.N.X X X N.N.X X X m.g.} } } X X ) ) ) ) X n.} } } } X X X OXB m X X X P P { % % oXX X X X X X X X X X X X X N.N.N.N.X X N.N.",
"N.N.X X X X X X X X X X M.m.m.X X X X ) ) X X X } } } X X X X oXOXOXOXX X X X X X X oXoXX X X X %XX X X X X X X X N.N.X X X N.N.",
"N.X X %X%X%XX X X X X X X X X X X X X X X X X X X X X X X X oXoXoXoXoXoXX X X X X OXOXOX+X#X#X$X%X%XX X X X %XX X X X X X X X N.",
"X X %X%X%X%X%X%X%XX X X X X X X %X%XX X X %XX X X X X X X OXoXoXoXoXoXoXoX@X%X%X$X#X#X#X$X%X%X%X%X%X%X%X%X%X%X%XX X X X X %XX X "
};
