/* XPM */
static const char *bot_right5[] = {
/* columns rows colors chars-per-pixel */
"64 64 195 2 ",
"   c #0B0F2C",
".  c #0E122C",
"X  c #13162B",
"o  c #161C2E",
"O  c #181E2E",
"+  c #121227",
"@  c #171F30",
"#  c #1C232F",
"$  c #172031",
"%  c #192333",
"&  c #1B2C3A",
"*  c #192839",
"=  c #1E313E",
"-  c #21292F",
";  c #212931",
":  c #2B3836",
">  c #323D35",
",  c #303731",
"<  c #2F403B",
"1  c #344335",
"2  c #3D4A37",
"3  c #3D4038",
"4  c #384235",
"5  c #434E37",
"6  c #435339",
"7  c #465A3A",
"8  c #4B5B3A",
"9  c #4F523D",
"0  c #4D633B",
"q  c #54633C",
"w  c #5D6C3E",
"e  c #57693D",
"r  c #5E713F",
"t  c #5E793F",
"y  c #66753F",
"u  c #1F3541",
"i  c #1F3A46",
"p  c #213A44",
"a  c #213E48",
"s  c #22424B",
"d  c #26484E",
"f  c #274C51",
"g  c #284F53",
"h  c #295255",
"j  c #2C5B5C",
"k  c #295559",
"l  c #3F5744",
"z  c #2E6262",
"x  c #306664",
"c  c #316967",
"v  c #326C69",
"b  c #34726D",
"n  c #3F7E6E",
"m  c #357672",
"M  c #377A73",
"N  c #397C74",
"B  c #2E7575",
"V  c #425B45",
"C  c #4E6B4B",
"Z  c #4B6844",
"A  c #5E7940",
"S  c #476358",
"D  c #416B59",
"F  c #4E7D5A",
"G  c #46735C",
"H  c #567750",
"J  c #507E5D",
"K  c #627540",
"L  c #677C41",
"P  c #6B7B40",
"I  c #7B7A48",
"U  c #407F6E",
"Y  c #4F7B65",
"T  c #517261",
"R  c #587C68",
"E  c #417F73",
"W  c #398077",
"Q  c #398178",
"!  c #5E8454",
"~  c #5B8E5D",
"^  c #568B5F",
"/  c #5F905A",
"(  c #6E8443",
")  c #6D8D43",
"_  c #65854E",
"`  c #778E45",
"'  c #7B8F44",
"]  c #739444",
"[  c #7A9246",
"{  c #749C4C",
"}  c #789E4A",
"|  c #799C46",
" . c #648955",
".. c #658C58",
"X. c #608555",
"o. c #659456",
"O. c #6A9653",
"+. c #6E9851",
"@. c #619159",
"#. c #6E9A5F",
"$. c #6A955A",
"%. c #749E5D",
"&. c #789F59",
"*. c #7DA147",
"=. c #7BA148",
"-. c #7DA259",
";. c #4B8566",
":. c #44826D",
">. c #4B856C",
",. c #4F8B6D",
"<. c #528963",
"1. c #598E66",
"2. c #538A6A",
"3. c #5A9066",
"4. c #448272",
"5. c #578C70",
"6. c #5F8D75",
"7. c #629463",
"8. c #6C9E65",
"9. c #639968",
"0. c #689467",
"q. c #749D6E",
"w. c #618E75",
"e. c #679175",
"r. c #6A9770",
"t. c #6FA165",
"y. c #75A463",
"u. c #79A863",
"i. c #918F4E",
"p. c #839C48",
"a. c #93914F",
"s. c #809D50",
"d. c #87864C",
"f. c #81A346",
"g. c #83A548",
"h. c #8AA249",
"j. c #83A848",
"k. c #8CAA49",
"l. c #91A549",
"z. c #92AD4A",
"x. c #96B14B",
"c. c #9CB44C",
"v. c #9BB94E",
"b. c #85A756",
"n. c #86AB56",
"m. c #8AAC55",
"M. c #8BAE58",
"N. c #80A458",
"B. c #93AF51",
"V. c #8FB252",
"C. c #93B351",
"Z. c #A1B74C",
"A. c #A3B94C",
"S. c #A9BE4D",
"D. c #A8A757",
"F. c #A7BA50",
"G. c #ABBD53",
"H. c #A0B654",
"J. c #B0BF57",
"K. c #BFBA5B",
"L. c #B7B959",
"P. c #8DAB6C",
"I. c #9DAA61",
"U. c #ABBC6A",
"Y. c #B1C057",
"T. c #B4C159",
"R. c #BAC55D",
"E. c #BDC760",
"W. c #BFC761",
"Q. c #BFC862",
"!. c #C5CB66",
"~. c #C7CC67",
"^. c #C6CC67",
"/. c #C4CB65",
"(. c #C9CD67",
"). c #CCCF67",
"_. c #C8CD68",
"`. c #C8CD68",
"'. c #CACE69",
"]. c #C8CD68",
"[. c #C0C869",
"{. c #CED066",
"}. c #3A8487",
"|. c #3A8688",
" X c #3C8A8C",
".X c #3D8E90",
"XX c #3E9192",
"oX c #409697",
"OX c #429D9C",
"+X c #409798",
"@X c #43A09F",
"#X c #45A6A5",
"$X c #46A8A7",
"%X c #47ABA9",
"&X c #47ABA9",
/* pixels */
"v.v.v.v.v.K.K.K.K.K.K.K.K.K.K.u.u.u.u.u.u.u.u.u.u.u.u.u.u.u.u.u.u.u.u.u.u.u.u.u.u.u.u.u.u.u.u.u.u.u.u.u.u.v.v.v.v.v.v.v.v.v.v.o ",
"v.v.v.v.v.v.K.K.K.K.K.K.v.u.u.u.v.v.v.u.u.u.u.u.u.u.u.u.u.u.u.u.u.u.u.u.u.u.u.u.e.e.e.e.u.u.u.u.u.u.u.u.u.u.u.u.v.v.v.v.v.v.v.o ",
"v.v.K.K.K.K.K.K.K.K.K.v.v.v.v.v.v.v.v.v.v.v.v.u.u.u.u.u.u.u.u.u.u.u.u.u.u.u.u.e.e.e.e.e.e.u.u.o o o o o u.u.u.u.u.v.v.v.v.v.v.o ",
"K.K.K.K.K.K.K.K.K.K.K.v.v.v.v.v.v.v.u.u.u.u.u.u.u.u.u.u.u.u.u.u.u.u.u.e.e.e.u.e.e.e.e.e.e.u.o o o o o o o u.o o o o v.v.v.v.o o ",
"K.K.K.K.K.K.K.K.K.K.v.v.v.v.v.v.v.v.v.v.u.u.u.u.u.u.u.u.u.u.u.u.u.u.e.e.e.e.e.e.e.e.e.e.e.o o o K.K.o o o o o o o o o v.v.o o o ",
"v.v.v.v.v.K.K.K.K.K.v.v.v.v.v.v.v.v.v.v.v.v.u.u.u.u.u.u.u.u.u.u.u.e.e.e.e.e.K.K.K.K.e.e.e.K.K.K.K.K.K.K.o o K.K.K.o o o o o o o ",
"v.v.v.v.v.v.K.K.K.K.K.v.K.K.v.v.v.v.v.v.v.v.v.v.v.v.u.u.u.u.u.u.u.e.e.e.K.K.K.K.K.K.K.e.e.K.K.K.K.K.K.K.K.K.K.K.K.K.o o o o o %X",
"v.v.v.v.v.v.v.v.K.K.K.K.K.K.K.v.v.v.v.v.v.v.v.v.v.v.u.u.u.u.u.e.e.e.e.K.K.K.K.K.K.K.K.e.K.K.K.K.K.K.K.K.K.K.K.K.K.K.K.o o o %X%X",
"K.K.v.v.v.v.v.v.v.K.K.K.v.v.v.K.v.v.v.v.v.v.v.v.v.v.v.K.K.K.K.K.K.e.K.K.K.K.K.K.K.K.K.K.K.K.K.K.K.K.K.K.K.K.K.K.K.K.o o o o %X%X",
"K.K.K.v.v.v.v.v.v.v.v.v.v.v.v.v.v.v.v.v.v.v.v.v.v.v.K.K.v.v.K.K.K.K.K.K.K.K.K.K.K.K.K.K.K.K.K.K.K.K.K.K.K.K.K.K.K.K.K.K.o o o %X",
"K.K.K.v.v.v.K.K.v.v.v.v.v.v.v.v.v.v.v.v.v.v.v.v.v.v.K.v.v.v.v.K.K.K.K.K.K.K.K.v.v.v.K.K.K.K.K.v.v.K.K.K.K.v.v.v.v.K.K.K.K.o o %X",
"K.K.K.v.v.K.K.K.K.K.v.v.v.v.v.v.v.v.v.v.v.v.v.v.v.v.v.v.v.v.v.v.v.v.v.K.K.K.v.v.v.v.v.K.K.v.v.v.v.v.v.K.v.v.v.v.v.v.K.K.K.o o %X",
"K.K.K.K.K.K.K.K.K.K.K.K.K.K.K.K.K.K.K.v.v.v.v.v.v.v.v.v.v.v.v.v.v.v.v.v.K.K.v.v.v.v.v.K.v.v.v.v.v.v.v.v.v.v.v.v.v.v.K.K.K.o o %X",
"K.K.K.K.K.K.K.K.K.v.v.v.v.v.v.v.v.v.v.v.v.v.v.v.v.v.v.v.v.v.v.v.v.v.v.v.v.v.v.v.v.v.v.K.v.v.v.v.v.v.v.v.v.v.v.v.v.v.K.K.o o o %X",
"v.v.v.v.v.v.v.v.v.v.v.v.u.u.u.u.u.u.v.v.v.v.v.v.v.v.v.v.v.v.v.v.v.v.v.v.v.v.v.v.v.v.v.v.v.v.v.v.v.v.v.v.v.v.v.v.v.v.o o o o %X%X",
"v.v.v.v.v.v.v.v.v.v.u.u.u.u.u.u.u.u.u.v.u.u.u.u.v.v.v.v.v.v.K.K.K.v.v.v.v.v.v.v.v.v.v.v.v.v.v.v.v.v.v.v.v.v.v.v.v.o o o o o %X%X",
"v.v.v.v.v.v.v.v.u.u.u.u.u.u.u.u.u.u.u.u.u.u.u.u.u.v.v.v.K.K.K.K.K.K.v.v.v.v.v.v.v.v.v.v.u.u.u.v.v.v.v.v.v.v.v.v.v.v.o o o o o %X",
"v.v.v.v.v.v.v.u.u.u.u.u.u.u.u.u.u.u.u.u.u.u.u.u.u.K.K.K.K.K.K.K.K.K.K.K.K.K.u.u.u.v.v.u.u.u.u.u.v.v.v.v.v.v.v.v.v.v.v.v.o o o %X",
"v.v.v.v.v.u.u.u.u.u.u.v.v.v.v.v.u.u.u.u.u.u.u.u.u.u.u.u.K.K.K.K.K.K.K.K.K.u.u.u.u.u.u.u.v.v.u.u.u.v.v.v.v.v.v.u.v.v.v.v.v.o o %X",
"v.v.v.u.u.u.u.u.u.u.v.v.v.v.v.v.v.u.u.u.v.v.v.u.u.u.u.u.u.u.K.K.K.u.u.u.u.u.v.v.u.u.u.v.v.v.v.u.u.u.v.v.v.v.u.u.v.v.v.v.v.o o %X",
"u.v.v.v.v.v.v.v.v.v.v.v.v.v.v.v.v.u.u.v.v.v.m.N M M M M 1.v.v.v.v.v.3.M M M M M n.C.v.v.C.C.C.C.v.v.v.v.v.u.u.u.u.v.v.v.v.o %X%X",
"u.u.u.u.v.v.v.v.v.v.v.v.v.v.v.v.v.v.C.C.C.m.N M :.:.:.N M 7.v.V.C.7.M M N :.:.:.N N m.m.N N M :.y.v.v.v.v.u.u.u.u.u.u.u.o o %X%X",
"v.v.v.v.v.v.v.v.v.v.v.v.v.v.v.v.v.V.:.M M M M 2.c.c.Z.b.N 3.8.M M M M N b.Z.c.c.2.M M M M :.:.:.:.y.v.v.u.u.u.u.v.v.v.o o o o %X",
"v.v.v.v.v.v.v.v.e.e.e.e.e.v.v.e.w.N M :.:.:.:.c.Z.Z.Z.A.-.M M M M M :.b.A.F.F.Z.c.2.M M 2.c.A.n.M :.t.8.y.u.u.v.v.v.o o o o o o ",
"v.v.v.v.v.v.v.e.e.e.e.e.e.e.e.e.E M >.C.Z.x.1.m.Z.Z.Z.A.-.m 4.5.5.E 7.c.Z.E.(.G.Z.c.2.U c.Z.Z.m.>.:.M M ,.8.8.C.v.v.o o u.u.o o ",
"v.v.v.v.v.e.e.e.K.K.K.K.e.e.6.I.>.M B.A.Z.Z.C.:.Z.G.F.A.-.B q.{.).P.N -.A.E.(.~.G.Z.c.0.F.G.F.Z.A.N.m M M M M 7.C.v.o u.u.u.o o ",
"v.v.e.e.e.e.K.K.K.K.K.K.K.D.2.M M M %.c.Z.Z.x.7.J._./.H.7.E P.(.~.{.r.&.G./.(.~.~.A.G.(.(._./.G.A.-.N 1.1.1.:.M 9.u.u.u.u.u.o o ",
"K.e.e.K.K.K.K.K.K.K.K.K.K.0.M 2.1.N M C.G.G.G.S.~.~.(.U.e.P.).~.~.(.P.m.R._.~.~.~.T.!.~.~.~.(.E.A.m.%.A.A.A.-.:.2.y.u.u.u.o o %X",
"K.K.K.K.K.K.K.K.K.K.u.u. .Y 2.B.A.#.N #./._.!.T.~.~.~.(.).(.~.~.~.~.(.R.W.~.~.~.~._.~.~.~.~._.E.Z.A.A.Z.Z.Z.A.7.M 9.u.o o o %X%X",
"v.v.v.v.v.v.K.K.u.u.u...: i s.S.A.A.%.q.[.~.~._.~.~.~.~.~.~.(.~.~.~.(._.~.~.~._.~.~.~.~.~.~.!.T.Z.Z.Z.Z.Z.Z.A.7.M p o o o o %X%X",
"v.v.v.v.v.v.v.v.v.v.[ > o . 5 w l.A.A.T.T.~._._._.~.~.~._./.R._.~._.R./.(.~.~.R.!._._._._.!.Y.Z.Z.A.S.S.A.A.M.D J * o o o %X%X%X",
"v.v.v.v.v.v.v.v.v.[ > X 1 0 7 q l.A.Z.Z.Z.T.T.T.T._._./.T.G.F.E._.E.A.G./.~.~.R.T.T.T.T.T.J.Z.A.S.h.q q ' M.D * 2 h.o o o o o %X",
"K.K.K.v.v.v.v.v.v.K X 1 ) g.k.A.A.Z.A.Z.k.c.Z.Z.A.T.T.G.c.Z.Z.F.T.F.c.G./.~.~._.R.T.Z.Z.Z.Z.A.h.8 4   . , G s X o 2 o o o o o o ",
"K.K.K.K.v.v.p.7 8 > 1 ) *.k.c.Z.Z.Z.k.k.z.Z.Z.Z.Z.Z.Z.Z.Z.Z.Z.Z.Z.Z.G.!._.~.~.~._.~.A.Z.Z.Z.A.l.y L P 6 . * V > X o o v.v.o o o ",
"K.K.K.K.D.9 3 o o X 0 j.=.x.A.Z.Z.Z.g.z.Z.Z.Z.A.c.k.k.A.Z.Z.Z.Z.Z.Z.R._.~.~.~._.~.J.Z.Z.Z.Z.Z.A.A.A.S.l.5 1 ] ) : X 1 h.v.v.o o ",
"v.v.v.D.3 o & z z a - t g.g.c.A.Z.Z.g.k.c.A.c.k.g.*.*.k.Z.Z.Z.Z.Z.Z.F.W._._._.Y.G.Z.Z.Z.Z.Z.Z.Z.Z.Z.Z.S.w 7 g.g.) : o [ v.v.o o ",
"v.v.v.p.o & v N N b p # t *.g.c.A.k.*.*.g.g.g.*.*.*.*.g.A.Z.Z.Z.A.z.x.F.G.G.G.A.Z.Z.Z.Z.Z.Z.Z.Z.Z.Z.Z.S.w 7 g.*.j.4 X [ v.o o %X",
"v.v.v.p.o u N M M M b z ! *.*.g.g.*.*.*.*.*.*.f.c.c.c.z.k.Z.Z.A.z.*.z.Z.Z.Z.Z.Z.Z.c.k.c.Z.Z.Z.Z.Z.Z.A.x.] ] *.f.8 # o o o o %X%X",
"v.v.v.p.o u N M M M M M @.*.*.*.*.*.*.x.c.*.f.c.Z.Z.Z.Z.z.g.g.g.f.*.f.x.Z.Z.Z.Z.Z.c.f.g.g.k.Z.Z.Z.x.g.f.*.*.*.^ b u o o o +X%X%X",
"v.v.v.p.o u M M j * * Z =.*.*.*.*.*.x.Z.Z.c.c.Z.Z.Z.Z.A.x.*.*.=.k.c.k.f.g.c.Z.Z.Z.c.f.f.c.c.Z.c.g.f.*.*.*.*.f.<.M b = o o oX%X%X",
"u.u.u. .o o s j $ o 7 | *.*.*.*.*.*.c.Z.Z.Z.Z.Z.Z.Z.Z.Z.Z.c.z.*.z.A.c.k.*.x.Z.Z.c.g.f.c.Z.Z.Z.c.*.*.*.*.*.*.*.<.M M b & o oX%X%X",
"u.u...% o o @ % X 2 *.*.*.*.*.*.*.*.f.c.c.Z.Z.Z.Z.c.Z.Z.Z.Z.Z.k.k.Z.Z.Z.g.*.c.c.g.*.f.c.Z.Z.Z.x.*.*.*.=.} =.^ M M M N = o oX%X%X",
"v.k.; o o * * % X 6 *.*.*.| ] { =.*.*.*.f.c.Z.Z.c.g.Z.Z.Z.Z.A.z.*.z.c.c.g.*.*.*.*.*.*.g.c.c.c.*.*.*.*.@.M N M M M M m & o o %X%X",
"v.h.O o p m M j $ o 7 ] ] 2 % x O.*.*.*.*.f.c.c.*.g.c.c.Z.Z.Z.k.*.*.*.*.*.*.*.*.*.*.*.*.*.*.*.*.*.*.*.o.M M M M b b u o o o $X%X",
"v.( O & M M M N j % o O O % j M M o.{ { =.*.*.*.*.*.*.g.c.c.k.*.*.*.*.*.*.*.*.*.*.*.*.*.*.*.*.*.*.*.*.*.@.N M b p o o ; o o #X%X",
"v.( O & M M M M N k * % X f m M M M M :.} *.*.*.*.*.*.*.*.*.*.} } *.*.*.*.*.*.{ =.*.*.*.*.*.*.*.*.*.*.*.*.^ M f @ o o o o o |.$X",
"z.( O * v N M M M M N h % X f b M M :.} *.*.*.*.*.*.*.*.*.*.} <.<.} *.*.*.{ +.U { *.*.*.=.{ *.*.*.*.*.*.} <.M N f @ o o o |. X$X",
"` ( : o * z c N M M M N h = = x M M { *.*.*.*.=.+.*.*.*.*.} ^ ;.N <.+.O.O.:.M :.} *.*.*.{ :.*.*.*.*.*.f./ M M M N f % o m |.OX%X",
"T T ( : o o & c M M M M M N N M M M @.*.*.*.=.@.:.*.*.*.f.@.<.f.o.;.N :.;.N M { *.*.*.*.{ :.*.*.*.*.f.=.F v M M M N u o o |.}.OX",
"R R T S o o % h N M M M M M M M M M M / o.o.} ;.:.*.*.*.} <.<.*.*.f.@.+.f.^ N ~ =.*.*.o./ n O.*.f.{ $.F i d N M M N u o o |.}.}.",
"e.D.a.S o * h N M M N M M M M M M M M M M <.=.{ n O.f.} <.m ^ f.*.*.*.O.} f.:.M ~ @./ M M M n @.@.F k i + f N M N z * o o |.|.XX",
"L.i.a.I o u Q M N c g x M M M M M M M M N =.*.{ M n @.<.M M :.+.*.*.f.;.<.@.U M M M M M M M M M M z s s = u v W z * o o o |.|.#X",
"K.D.a.I o * j W v u + f N M M M M M M M M ~ } ^ M M M M M M M :.{ f.O.:.M M M M M M M M M M M M M M N Q h X u h * o o o o |.oX$X",
"K.L.a.d.2 o * f u X = x M M M M M M M M M M <.M M M M M M M M M :.^ :.M M M M M M M M M M M N M M M N c = o o o o o o o }.}.#X%X",
"K.K.h.` ` 2 o o o o f Q M M M M N M M M M M M M M M M M M M M M M M M M M M M M M M M M M b h N M N c = o : V o o o o }.}.+X$X%X",
"v.v.v.h.` ( q V V o & z N N N N g v M M M M M M M M M N N M M M M N k x M M M M M M M M M v % g N c = o o 8 [ [ o o }.}.+X$X%X%X",
"v.v.v.v.o $.! X. .l o & a a a a % c N M M M M M M N v p h N N N N j % j N M M M M M M N b p o % a = o > e L [ ` ` o o OX$X%X%X%X",
"v.v.v.v.o y.$.! ! H < o o o o o o = b M M M M M N v = X * p p p p * o & c N M M M M m p = o o o o o w L [ [ ` ` ` o o %X%X%X%X%X",
"v.v.v.v.o u.y.%.$.! H o o o C r r r _  .b M M b u & o o o o o o o o o o & = v M M M M j o o o o o o [ [ ` ` ` h.z.o o %X%X%X%X%X",
"v.v.v.v.o o u.u.y.y.o o o o ! [ [ [ ` o & = = & C C C o o o C K K K K K o o & v M m u = o o o o o o ` ` ` h.x.v.o o o %X%X%X%X%X",
"v.v.v.v.o o o o o o o o o o o ` ` ` o o o }.o o o o o o o o o [ [ [ [ [ o o o * & & }.}.}.}.|.o o o o p.x.v.v.o o o %X%X%X%X%X%X",
"v.v.v.o o o o o o o o %Xo o o o o o o o }. X#X#Xo o o }.o o o o ` ` ` o o o |.|.}.}.}.}.}.|.|..X%Xo o o o o o o o %X%X%X%X%X%X%X",
"v.v.o o o %X%X%X%X%X%X%X%Xo o o o o o  X X#X%X#X|.}.}.}.XXo o o o o o o o o @X#X X|.|.|. X#X#X$X%X%X%Xo o o o o %X%X%X%X%X%X%X%X",
"o o o o %X%X%X%X%X%X%X%X%X%X%X%X%X%X%X$X$X%X%X#X|.}.}.XXOX|.o o o o o o o OX%X%X$X#X$X$X$X%X%X%X%X%X%X%X%X%X%X%X%X%X%X%X%X%X%X%X"
};
