/* XPM */
static const char *bot_right4[] = {
/* columns rows colors chars-per-pixel */
"64 64 191 2 ",
"   c #0D112C",
".  c #12152B",
"X  c #161C2E",
"o  c #181E2E",
"O  c #171F30",
"+  c #1A212F",
"@  c #172031",
"#  c #192333",
"$  c #1B2835",
"%  c #1C2C3A",
"&  c #1E323E",
"*  c #222A2E",
"=  c #212931",
"-  c #2C3632",
";  c #2E3B34",
":  c #2A383A",
">  c #313C35",
",  c #354235",
"<  c #3A4635",
"1  c #3E4139",
"2  c #3A4839",
"3  c #3E5038",
"4  c #415438",
"5  c #4A5B3A",
"6  c #495839",
"7  c #4A603B",
"8  c #53633C",
"9  c #59693D",
"0  c #5D723F",
"q  c #64773F",
"w  c #1E3541",
"e  c #1F3845",
"r  c #213A44",
"t  c #223F48",
"y  c #26484E",
"u  c #23424A",
"i  c #3C5242",
"p  c #274C52",
"a  c #284F53",
"s  c #295255",
"d  c #2C5C5D",
"f  c #2A5658",
"g  c #2A5D61",
"h  c #2E6262",
"j  c #2F6868",
"k  c #306664",
"l  c #316966",
"z  c #326C69",
"x  c #34726D",
"c  c #3E7E6E",
"v  c #347672",
"b  c #377A73",
"n  c #397C74",
"m  c #2D7475",
"M  c #435C46",
"N  c #4B6749",
"B  c #4C6A4A",
"V  c #54744F",
"C  c #476358",
"Z  c #416A58",
"A  c #4B7B5B",
"S  c #49735A",
"D  c #547A55",
"F  c #657A40",
"G  c #6A7C41",
"H  c #607340",
"J  c #7B7A48",
"K  c #407F6D",
"L  c #4E7F62",
"P  c #517261",
"I  c #587C68",
"U  c #537E65",
"Y  c #407F71",
"T  c #3A8178",
"R  c #398077",
"E  c #5E8354",
"W  c #568C5F",
"Q  c #5B8E5C",
"!  c #5E905A",
"~  c #6E8443",
"^  c #6B8A43",
"/  c #768E45",
"(  c #798942",
")  c #799145",
"_  c #769845",
"`  c #7A9D46",
"'  c #749C4D",
"]  c #789E4A",
"[  c #719244",
"{  c #608555",
"}  c #668E59",
"|  c #638957",
" . c #669456",
".. c #699654",
"X. c #6E9951",
"o. c #629258",
"O. c #6A935B",
"+. c #6E9A5F",
"@. c #759E5C",
"#. c #7DA147",
"$. c #7CA148",
"%. c #7CA259",
"&. c #4E8765",
"*. c #44816D",
"=. c #4A856D",
"-. c #4D886C",
";. c #4F8864",
":. c #538A62",
">. c #598D67",
",. c #528B6B",
"<. c #5C9165",
"1. c #5F916E",
"2. c #428072",
"3. c #578C70",
"4. c #5F8D75",
"5. c #639463",
"6. c #6B9C64",
"7. c #639968",
"8. c #679666",
"9. c #749D6E",
"0. c #608E75",
"q. c #679175",
"w. c #6A9770",
"e. c #6FA165",
"r. c #75A462",
"t. c #79A863",
"y. c #918F4E",
"u. c #839C48",
"i. c #93914F",
"p. c #87864C",
"a. c #A09B51",
"s. c #81A346",
"d. c #84A548",
"f. c #88A449",
"g. c #83A848",
"h. c #8CAA49",
"j. c #90A448",
"k. c #92AD4A",
"l. c #96B14B",
"z. c #9CB44C",
"x. c #9BB94E",
"c. c #86AB56",
"v. c #8AAB55",
"b. c #81A458",
"n. c #82A557",
"m. c #93AF51",
"M. c #8EB253",
"N. c #93B351",
"B. c #A1B74C",
"V. c #A3B94C",
"C. c #A8BB4F",
"Z. c #A9A757",
"A. c #A7BA50",
"S. c #ABBD53",
"D. c #A0B654",
"F. c #BFBA5B",
"G. c #B5BA58",
"H. c #8DAB6C",
"J. c #9DAA61",
"K. c #ABBC6A",
"L. c #AAC14D",
"P. c #B1C057",
"I. c #B3C159",
"U. c #BAC55D",
"Y. c #BEC761",
"T. c #BFC862",
"R. c #C5CB66",
"E. c #C7CC67",
"W. c #C6CC67",
"Q. c #C4CB65",
"!. c #C9CD67",
"~. c #CCCF67",
"^. c #C8CD68",
"/. c #C8CD68",
"(. c #CACE69",
"). c #C8CD68",
"_. c #C0C869",
"`. c #CED066",
"'. c #3A8487",
"]. c #3A8688",
"[. c #3C8A8C",
"{. c #3D8E90",
"}. c #3E9192",
"|. c #409697",
" X c #429D9C",
".X c #409798",
"XX c #43A09F",
"oX c #45A6A5",
"OX c #46A8A7",
"+X c #47ABA9",
"@X c #47ABA9",
/* pixels */
"x.x.x.x.x.F.F.F.F.F.F.F.F.F.F.t.t.t.t.t.t.t.t.t.t.t.t.t.t.t.t.t.t.t.t.t.t.t.t.t.t.t.t.t.t.t.t.t.t.t.t.t.t.x.x.x.x.x.x.x.x.x.x.X ",
"x.x.x.x.x.x.F.F.F.F.F.F.x.t.t.t.x.x.x.t.t.t.t.t.t.t.t.t.t.t.t.t.t.t.t.t.t.t.t.t.q.q.q.q.t.t.t.t.t.t.t.t.t.t.t.t.x.x.x.x.x.x.x.X ",
"x.x.F.F.F.F.F.F.F.F.F.x.x.x.x.x.x.x.x.x.x.x.x.t.t.t.t.t.t.t.t.t.t.t.t.t.t.t.t.q.q.q.q.q.q.t.t.X X X X X t.t.t.t.t.x.x.x.x.x.x.X ",
"F.F.F.F.F.F.F.F.F.F.F.x.x.x.x.x.x.x.t.t.t.t.t.t.t.t.t.t.t.t.t.t.t.t.t.q.q.q.t.q.q.q.q.q.q.t.X X X X X X X t.X X X X x.x.x.x.X X ",
"F.F.F.F.F.F.F.F.F.F.x.x.x.x.x.x.x.x.x.x.t.t.t.t.t.t.t.t.t.t.t.t.t.t.q.q.q.q.q.q.q.q.q.q.q.X X X F.F.X X X X X X X X X x.x.X X X ",
"x.x.x.x.x.F.F.F.F.F.x.x.x.x.x.x.x.x.x.x.x.x.t.t.t.t.t.t.t.t.t.t.t.q.q.q.q.q.F.F.F.F.q.q.q.F.F.F.F.F.F.F.X X F.F.F.X X X X X X X ",
"x.x.x.x.x.x.F.F.F.F.F.x.F.F.x.x.x.x.x.x.x.x.x.x.x.x.t.t.t.t.t.t.t.q.q.q.F.F.F.F.F.F.F.q.q.F.F.F.F.F.F.F.F.F.F.F.F.F.X X X X X +X",
"x.x.x.x.x.x.x.x.F.F.F.F.F.F.F.x.x.x.x.x.x.x.x.x.x.x.t.t.t.t.t.q.q.q.q.F.F.F.F.F.F.F.F.q.F.F.F.F.F.F.F.F.F.F.F.F.F.F.F.X X X +X+X",
"F.F.x.x.x.x.x.x.x.F.F.F.x.x.x.F.x.x.x.x.x.x.x.x.x.x.x.F.F.F.F.F.F.q.F.F.F.F.F.F.F.F.F.F.F.F.F.F.F.F.F.F.F.F.F.F.F.F.X X X X +X+X",
"F.F.F.x.x.x.x.x.x.x.x.x.x.x.x.x.x.x.x.x.x.x.x.x.x.x.F.F.x.x.F.F.F.F.F.F.F.F.F.F.F.F.F.F.F.F.F.F.F.F.F.F.F.F.F.F.F.F.F.F.X X X +X",
"F.F.F.x.x.x.F.F.x.x.x.x.x.x.x.x.x.x.x.x.x.x.x.x.x.x.F.x.x.x.x.F.F.F.F.F.F.F.F.x.x.x.F.F.F.F.F.x.x.F.F.F.F.x.x.x.x.F.F.F.F.X X +X",
"F.F.F.x.x.F.F.F.F.F.x.x.x.x.x.x.x.x.x.x.x.x.x.x.x.x.x.x.x.x.x.x.x.x.x.F.F.F.x.x.x.x.x.F.F.x.x.x.x.x.x.F.x.x.x.x.x.x.F.F.F.X X +X",
"F.F.F.F.F.F.F.F.F.F.F.F.F.F.F.F.F.F.F.x.x.x.x.x.x.x.x.x.x.x.x.x.x.x.x.x.F.F.x.x.x.x.x.F.x.x.x.x.x.x.x.x.x.x.x.x.x.x.F.F.F.X X +X",
"F.F.F.F.F.F.F.F.F.x.x.x.x.x.x.x.x.x.x.x.x.x.x.x.x.x.x.x.x.x.x.x.x.x.x.x.x.x.x.x.x.x.x.F.x.x.x.x.x.x.x.x.x.x.x.x.x.x.F.F.X X X +X",
"x.x.x.x.x.x.x.x.x.x.x.x.t.t.t.t.t.t.x.x.x.x.x.x.x.x.x.x.x.x.x.x.x.x.x.x.x.x.x.x.x.x.x.x.x.x.x.x.x.x.x.x.x.x.x.x.x.x.X X X X +X+X",
"x.x.x.x.x.x.x.x.x.x.t.t.t.t.t.t.t.t.t.x.t.t.t.t.x.x.x.x.x.x.F.F.F.x.x.x.x.x.x.x.x.x.x.x.x.x.x.x.x.x.x.x.x.x.x.x.x.X X X X X +X+X",
"x.x.x.x.x.x.x.x.t.t.t.t.t.t.t.t.t.t.t.t.t.t.t.t.t.x.x.x.F.F.F.F.F.F.x.x.x.x.x.x.x.x.x.x.t.t.t.x.x.x.x.x.x.x.x.x.x.x.X X X X X +X",
"x.x.x.x.x.x.x.t.t.t.t.t.t.t.t.t.t.t.t.t.t.t.t.t.t.F.F.F.F.F.F.F.F.F.F.F.F.F.t.t.t.x.x.t.t.t.t.t.x.x.x.x.x.x.x.x.x.x.x.x.X X X +X",
"x.x.x.x.x.t.t.t.t.t.t.x.x.x.x.x.t.t.t.t.t.t.t.t.t.t.t.t.F.F.F.F.F.F.F.F.F.t.t.t.t.t.t.t.x.x.t.t.t.x.x.x.x.x.x.t.x.x.x.x.x.X X +X",
"x.x.x.t.t.t.t.t.t.t.x.x.x.x.x.x.x.t.t.t.x.x.x.t.t.t.t.t.t.t.F.F.F.t.t.t.t.t.x.x.t.t.t.x.x.x.x.t.t.t.x.x.x.x.t.t.x.x.x.x.x.X X +X",
"t.x.x.x.x.x.x.x.x.x.x.x.x.x.x.x.x.t.t.x.x.x.x.c.b b b b b <.x.x.x.x.z.>.b b b b n v.N.x.x.N.N.N.N.x.x.x.x.t.t.t.t.x.x.x.x.X +X+X",
"t.t.t.t.x.x.x.x.x.x.x.x.x.x.x.x.x.x.x.N.M.N.c.n b *.*.*.n b 5.x.M.N.<.b b Y *.*.*.n *.v.c.n n b =.N.x.x.x.t.t.t.t.t.t.t.X X +X+X",
"x.x.x.x.x.x.x.x.x.x.x.x.x.x.x.x.x.x.M.*.b b b b =.z.z.B.b.n <.6.b b b b Y v.z.z.z.-.b b b b *.*.*.=.N.x.t.t.t.t.x.x.x.X X X X +X",
"x.x.x.x.x.x.x.x.q.q.q.q.q.x.x.q.q.0.*.b =.=.=.b >.B.B.B.V.%.v b b b b *.v.V.V.A.V.z.,.b b >.z.V.n.b -.e.6.r.t.x.x.x.X X X X X X ",
"x.x.x.x.x.x.x.q.q.q.q.q.q.q.q.q.0.n b -.l.B.N.=.B.B.B.B.z.5.2.3.3.2.v %.V.A.Q.E.V.B.l.n *.z.B.V.v.*.b b b ,.6.N.x.x.X X t.t.X X ",
"x.x.x.x.x.q.q.q.F.F.F.F.q.q.4.J.-.b b N.B.B.N.*.B.S.A.V.%.m 9.`.~.H.n %.V.T.!.E.S.B.z.1.w.S.A.B.V.b.v b b b b 5.N.x.X t.t.t.X X ",
"x.x.q.q.q.q.F.F.F.F.F.F.F.Z.,.b b b b m.B.B.l.5.G.^.Q.D.5.Y H.!.E.`.w.@.S.Q.E.E.E.V.S.!.!.^.Q.S.V.%.n >.>.>.*.b 7.t.t.t.t.t.X X ",
"F.q.q.F.F.F.F.F.F.F.F.F.a.U b ,.>.n b N.S.S.S.C.E.E.!.K.q.H.~.E.E.!.H.v.U.^.E.E.E.I.R.E.E.E.^.T.V.v.@.V.V.V.%.*.,.r.t.t.t.X X +X",
"F.F.F.F.F.F.F.F.F.F.} V > t L m.V.+.n +.Q.^.R.I.E.E.E.!.~.!.E.E.E.E.!.U.Q.^.E.E.E.^.E.E.E.E.!.T.B.V.V.B.B.B.V.5.b 7.t.X X X +X+X",
"x.x.x.x.x.x.F.F.t.O., X .   ( L.V.V.+.9._.E.E.^.E.E.E.E.E.!.!.E.E.E.^.^.E.E.E.^.E.E.E.E.E.E.R.I.B.B.B.B.B.B.V.5.b r X X X X +X+X",
"x.x.x.x.x.x.x.x.x.H . ; 5 5 8 9 j.V.V.I.I.E.^.^.E.E.E.^.^.Q.U.!.E.^.U.Q.^.E.E.U.R.^.^.^.^.R.P.B.V.C.C.V.V.V.v.=.,.% X X X +X+X+X",
"x.x.x.x.x.x.x.x.u., ; ^ g.g.F 9 j.V.B.B.B.I.I.I.^.^.Q.I.I.S.P.^.T.I.V.U.^.E.E.V.S.I.I.I.I.S.V.C.j.8 8 ( v.6.Z A M.x.X X X X X +X",
"F.F.F.x.x.x.x.u., . 7 g.$.h.V.C.V.B.V.B.h.z.B.V.P.I.S.z.B.B.A.I.A.z.S.Q.E.E.E.U.I.B.B.B.B.B.j.5 <     - S h % < 8 u.X X X X X X ",
"F.F.F.F.x.u.6 , X . 7 g.$.k.V.B.B.B.h.h.k.B.B.B.B.B.B.B.B.B.B.B.B.B.U.^.E.E.E.^.^.V.B.B.B.V.k.q G G 6   % % . . X X X x.x.X X X ",
"F.F.F.F.Z.1 X & d r * F #.k.V.B.B.B.l.s.z.B.B.V.z.h.h.V.B.B.B.B.B.B.U.^.E.E.E.E.P.V.B.B.B.B.V.V.V.C.k.6 . < 0 0 - . ) x.x.x.X X ",
"x.x.x.Z.1 X % z n x e * 0 g.z.B.B.B.V.d.z.V.z.h.d.$.$.h.B.B.B.B.B.B.A.T.^.^.!.P.B.B.B.B.B.B.B.B.B.B.C.G   7 g.g.^ - > f.x.x.X X ",
"x.x.x.u.X % z n b n z g E $.g.z.V.B.h.$.d.d.d.$.$.$.$.d.V.B.B.B.V.k.l.A.S.S.S.B.B.B.B.B.B.B.B.B.B.B.C.q , [ $.$.g.< . ) x.X X +X",
"x.x.x.u.X w n b b b b b o.$.$.g.d.d.$.$.$.$.$.s.z.z.z.k.h.B.B.V.k.$.k.B.B.B.B.B.B.z.h.B.B.B.B.B.B.B.V.f.[ $.$.s.5 + X X X X +X+X",
"x.x.x.u.X w n n d % % N $.$.$.$.$.$.$.l.z.s.s.z.B.B.V.B.k.g.g.d.s.$.s.l.B.B.B.B.B.z.s.g.d.h.B.B.B.V.l.s.$.$.$.$.A w X X X .X+X+X",
"x.x.x.u.X w n d @ X 4 ` $.$.$.$.$.$.l.B.B.z.z.B.B.B.B.V.l.$.$.$.h.z.h.s.g.z.B.B.B.z.s.s.z.z.B.z.s.g.s.$.$.$.$.Q n x & X X |.+X+X",
"t.t.t.| X O $ @ . 3 ` $.$.$.$.$.$.$.z.B.B.B.B.B.B.B.B.B.B.z.k.$.k.V.B.h.$.z.B.B.B.d.s.z.B.B.B.z.$.$.$.$.$.$.s.:.b b x % X |.+X+X",
"t.t.} $ X X X @ . 4 $.$.` _ _ ] $.$.s.s.z.z.B.B.B.B.z.B.B.B.B.z.h.k.B.z.z.h.s.z.z.s.$.g.z.B.B.B.k.$.$.$.$.$.$.:.b b n & X |.+X+X",
"x.h.= X X @ r d O X 5 ` 4 + $ k X.$.$.$.$.s.z.B.B.l.f.B.B.B.B.V.h.$.k.z.z.d.$.$.$.$.$.$.g.z.z.l.$.$.$.$.] ] W b b b v % X X +X+X",
"x.f.+ X r v v b f O o + o @ d b  .$.$.$.$.$.s.z.z.$.d.z.B.B.B.z.h.$.$.$.$.$.$.$.$.$.$.$.$.$.$.$.$.$.s.o.b n b b x x w X X X oX+X",
"z.~ o % b b b b n f $ % O p b b b ..' ' $.$.$.$.$.$.$.d.z.z.h.$.$.$.$.$.$.$.$.$.$.$.$.$.$.$.$.$.$.$.$. .n b b n t X X = X X oX+X",
"z.~ o % b b b b b b b n p X a v b b *.*.] $.$.$.$.$.$.$.$.$.$.] ] $.$.$.$.$.$.' $.$.$.$.$.$.$.$.$.$.$.$.o.n b x w X X X X X ].OX",
"k.~ o % z n n b b b b b n p % k n b ' $.$.$.$.$.' $.$.$.$.$.] ;.Q s.$.$.$.$.' K ' $.$.$.$.' $.$.$.$.$.$.s.Q b p % @ X X X ].[.OX",
"/ ~ - X % h h l b b b b b b n b b b o.$.$.$.$.o.*.$.$.$.$.] Q *.Q ] s.$.$.' *.*.] $.$.$.' *.$.$.$.$.$.$.] :.b b n p @ X v ]. X+X",
"P P ~ : X X O a n b b b b b b b b b b o.....] =.*.$.$.$.s.o.:.s.W ;... . .*.b ' $.$.$.$.' *.$.$.$.$.$.s.! b b b b n w X X ].'. X",
"I I P C X @ s n b b b b b b b b b b b b b ;.$.' K ..$.s.] :.:.s. .;.n *.;.n b Q $.$.$. .! c ..s.$.$.s.' A l b b b n w X X ].'.'.",
"q.Z.i.C X w n b b n l l b b b b b b b b n $.$.' b c o.o.:.v :.s.$.s.o.' s.Q n b Q o.! b b b c o.o.o. .A w y n b n h % X X ].].}.",
"F.y.i.J X w n b n z % p n b b b b b b b b ! $.Q b b b b b b W s.$.$.s...' s.*.b b b b b b b b b b z a w . a n b h % X X X ].].oX",
"F.Z.i.J X $ d R z & % k n b b b b b b b b b W b b b b b b b *.X.$.$.s.;.;.Q c b b b b b b b b b b l u y & & l R r . X X X ].|.OX",
"F.F.i.p.2 X $ p w . a R b b b b b b b b b b b b b b b b b b b *.X.s...*.b b b b b b b b b b n b b b n R s . & p % X X X '.'.oX+X",
"F.F.f./ / 2 X X X X % k n b b b n b b b b b b b b b b n b b b b *.W *.b b b b b b b b b b x s n b b n k & X X X X X X '.'..XOX+X",
"x.x.z.f./ ~ 8 M M X X % u k n n a z b b b b b b b n z s n b b b b b b b b b b b b b b b b z @ a n n l % X , 8 8 X X '.'..XOX+X+X",
"x.x.x.z.X O.E { { V X X . % r r @ l n b b b b b n z & @ s n n n b n s h n b b b b b b n x r X @ r r & X X 6 ) ) ) X X  XOX+X+X+X",
"x.x.x.x.X r.O.E E { V X X X X X X & r S b b b x r & X X $ r r w d f @ d n b b b b b v r & X X X X X X > 0 G ) / / X X +X+X+X+X+X",
"x.x.x.x.X t.r.@.O.E E X X X N 0 0 0 0 / & & & D N N B i X X X X $ $ X % k n b b b b b d X X X X X X 0 G ) ) / f.k.X X +X+X+X+X+X",
"x.x.x.x.X X t.t.r.r.X X X X { ) ) ) ) X X X X X E E { X X X B F < X X X % & & z b v w & X X X X X X ) ) / f.l.z.X X X +X+X+X+X+X",
"x.x.x.x.X X X X X X X X X X X / / / X X X '.X X X X X X X X X ) ~ F F F X X X % % % '.'.'.'.].X X X X u.l.z.x.X X X +X+X+X+X+X+X",
"x.x.x.X X X X X X X X +XX X X X X X X X '.[.oXoXX X X '.X X X X / ) ) X X X ].].'.'.'.'.'.].].{.+XX X X X X X X X +X+X+X+X+X+X+X",
"x.x.X X X +X+X+X+X+X+X+X+XX X X X X X [.[.oX+XoX].'.'.'.}.X X X X X X X X X XXoX[.].].].[.oXoXOX+X+X+XX X X X X +X+X+X+X+X+X+X+X",
"X X X X +X+X+X+X+X+X+X+X+X+X+X+X+X+X+XOXOX+X+XoX].'.'.}. X].X X X X X X X  X+X+XOXoXoXoXOX+X+X+X+X+X+X+X+X+X+X+X+X+X+X+X+X+X+X+X"
};
