/* XPM */
static const char *bot_left5[] = {
/* columns rows colors chars-per-pixel */
"64 64 198 2 ",
"   c #0E122C",
".  c #13162B",
"X  c #161C2E",
"o  c #191F2E",
"O  c #121227",
"+  c #171F30",
"@  c #0B0F2C",
"#  c #1D242E",
"$  c #172031",
"%  c #192333",
"&  c #1B2C3A",
"*  c #192838",
"=  c #1E313E",
"-  c #21292F",
";  c #212930",
":  c #2C3734",
">  c #333D35",
",  c #303731",
"<  c #344335",
"1  c #3C4936",
"2  c #3E4238",
"3  c #384336",
"4  c #424A38",
"5  c #425238",
"6  c #465A3A",
"7  c #4C5C3B",
"8  c #4F523D",
"9  c #57593F",
"0  c #4D633B",
"q  c #53633C",
"w  c #5C6C3E",
"e  c #57693D",
"r  c #5E713F",
"t  c #5E793F",
"y  c #63753F",
"u  c #1F3541",
"i  c #1F3A46",
"p  c #213A44",
"a  c #213E48",
"s  c #22424B",
"d  c #26484E",
"f  c #274C51",
"g  c #284F53",
"h  c #244652",
"j  c #295255",
"k  c #2C5B5C",
"l  c #295559",
"z  c #33635E",
"x  c #2E6262",
"c  c #306664",
"v  c #316967",
"b  c #326C69",
"n  c #34726D",
"m  c #3F7E6E",
"M  c #357672",
"N  c #377A73",
"B  c #397C73",
"V  c #367B7F",
"C  c #2E7575",
"Z  c #405C43",
"A  c #5A5C40",
"S  c #4F6C4C",
"D  c #4B6844",
"F  c #5E6041",
"G  c #5E7940",
"H  c #416B59",
"J  c #4E7D5A",
"K  c #46735C",
"L  c #507E5D",
"P  c #667B41",
"I  c #6B7B40",
"U  c #607340",
"Y  c #7B7B48",
"T  c #636542",
"R  c #407F6E",
"E  c #4F7B65",
"W  c #517161",
"Q  c #597D68",
"!  c #417F73",
"~  c #398077",
"^  c #398178",
"/  c #5F8454",
"(  c #5B8E5D",
")  c #568B5F",
"_  c #5F905A",
"`  c #6D8D43",
"'  c #6C8545",
"]  c #778E45",
"[  c #7A8F44",
"{  c #739444",
"}  c #7A9246",
"|  c #749C4C",
" . c #789E4A",
".. c #799C46",
"X. c #648955",
"o. c #659456",
"O. c #6A9653",
"+. c #6E9851",
"@. c #619159",
"#. c #6E9A5F",
"$. c #69945A",
"%. c #769E5B",
"&. c #7DA147",
"*. c #7BA148",
"=. c #7DA259",
"-. c #4B8566",
";. c #44826D",
":. c #4B856C",
">. c #4F8B6D",
",. c #528963",
"<. c #598E66",
"1. c #538A6A",
"2. c #5A9066",
"3. c #578C70",
"4. c #448272",
"5. c #629463",
"6. c #6C9E65",
"7. c #679568",
"8. c #749D6E",
"9. c #638E74",
"0. c #679175",
"q. c #6A9770",
"w. c #6FA165",
"e. c #79A863",
"r. c #74A464",
"t. c #85844B",
"y. c #8E8D4E",
"u. c #918F4E",
"i. c #839C48",
"p. c #93914F",
"a. c #809D50",
"s. c #9B9851",
"d. c #81A346",
"f. c #83A548",
"g. c #8AA349",
"h. c #8CAA49",
"j. c #83A848",
"k. c #91A549",
"l. c #92AD4A",
"z. c #96B14B",
"x. c #9CB44C",
"c. c #9BB94E",
"v. c #85A756",
"b. c #86AB56",
"n. c #8AAC55",
"m. c #8BAE58",
"M. c #80A458",
"N. c #93AF51",
"B. c #8FB253",
"V. c #93B351",
"C. c #A1B74C",
"Z. c #A3B94C",
"A. c #A9BE4D",
"S. c #A6A354",
"D. c #A8AA5A",
"F. c #A7BA50",
"G. c #ABBD53",
"H. c #A0B654",
"J. c #B0BF57",
"K. c #BBB65A",
"L. c #BFBA5B",
"P. c #B0BF58",
"I. c #B0AC57",
"U. c #8DAB6C",
"Y. c #98A862",
"T. c #ABBC6A",
"R. c #B1C057",
"E. c #B4C159",
"W. c #BAC55D",
"Q. c #BDC760",
"!. c #BFC761",
"~. c #BFC862",
"^. c #C5CB66",
"/. c #C7CC67",
"(. c #C6CC67",
"). c #C4CB65",
"_. c #C9CD67",
"`. c #CCCF67",
"'. c #C8CD68",
"]. c #C8CD68",
"[. c #CACE69",
"{. c #C8CD68",
"}. c #C0C869",
"|. c #CED066",
" X c #377C80",
".X c #3A8487",
"XX c #3A8588",
"oX c #3B8A8C",
"OX c #3D8E90",
"+X c #3E9192",
"@X c #409697",
"#X c #429C9C",
"$X c #409798",
"%X c #43A09F",
"&X c #45A6A5",
"*X c #46A8A7",
"=X c #47ABA9",
"-X c #47ABA9",
/* pixels */
"X X c.c.c.c.c.c.X X L.L.L.L.L.e.e.e.e.e.e.e.e.e.e.e.e.e.e.e.e.e.e.e.e.e.e.e.e.e.e.e.e.e.e.e.e.e.e.e.e.e.e.e.e.e.e.e.e.e.e.e.e.e.",
"=XX X X X X X X X L.L.L.c.e.e.e.c.c.c.e.e.e.e.e.e.e.e.e.e.e.e.e.e.e.e.e.e.e.e.e.0.0.0.0.e.e.e.e.e.e.e.e.e.e.e.e.e.e.e.e.e.c.c.c.",
"=X=XX X X X X X X L.L.c.c.c.c.c.c.c.c.c.c.c.c.e.e.e.e.e.e.e.e.e.e.e.e.e.e.e.e.0.0.0.0.0.0.c.c.c.c.c.c.c.c.0.0.0.0.e.e.e.c.c.c.c.",
"=XX X X X X X X X L.L.c.c.c.c.c.c.c.e.e.e.e.e.e.e.e.e.e.e.e.e.e.e.e.e.0.0.0.e.0.0.0.0.0.0.0.0.0.0.0.c.c.0.0.0.0.0.0.0.e.c.c.c.c.",
"X X X e.e.e.e.X X L.c.c.c.c.c.c.c.c.c.c.e.e.e.e.e.e.e.e.e.e.e.e.e.e.0.0.0.0.0.0.0.0.0.0.0.0.0.0.0.0.0.0.0.L.L.L.0.0.0.0.c.c.c.L.",
"X X e.e.e.e.e.X X X c.c.c.c.c.c.c.c.c.c.c.c.e.e.e.e.e.e.e.e.e.e.e.0.0.0.0.0.L.L.L.L.0.0.0.0.L.L.L.L.0.0.L.L.L.L.L.0.0.0.0.L.L.L.",
"X X e.e.e.e.e.e.X X X e.e.e.c.c.c.c.c.c.c.c.c.c.c.c.e.e.e.e.e.e.e.0.0.0.L.L.L.L.L.L.L.0.0.L.L.L.L.L.L.L.L.L.L.L.L.L.L.L.L.L.c.c.",
"X X e.e.e.e.e.e.e.e.e.e.e.e.c.c.c.c.c.c.c.c.c.c.c.c.e.e.e.e.e.0.0.0.0.L.L.L.L.L.L.L.L.0.L.L.L.L.L.L.L.L.L.L.L.L.L.L.L.L.L.L.c.c.",
"X X e.e.e.e.e.c.c.c.c.e.e.e.e.e.e.c.c.c.c.c.c.c.c.c.c.L.L.L.L.L.L.0.L.L.L.L.L.L.L.L.L.L.L.L.L.L.L.L.L.L.L.L.L.L.L.L.L.L.L.L.c.L.",
"X X X e.e.X c.c.c.c.c.c.c.c.c.c.c.c.c.c.c.c.c.c.c.c.L.L.c.c.L.L.L.L.L.L.L.L.L.L.L.L.L.L.L.L.L.L.L.L.L.L.L.L.L.L.L.L.L.L.L.L.L.L.",
"X X X X X X L.L.c.c.c.c.c.c.c.c.c.c.c.c.c.c.c.c.c.c.L.c.c.c.c.L.L.L.L.L.L.L.L.c.c.c.L.L.L.L.L.c.c.L.L.L.L.c.c.L.L.L.L.L.L.L.L.L.",
"=XX X X X L.L.L.L.L.c.c.c.c.c.c.c.c.c.c.c.c.c.c.c.c.c.c.c.c.c.c.c.c.c.L.L.L.c.c.c.c.c.L.L.c.c.c.c.c.c.L.c.c.c.c.L.L.L.L.L.L.L.L.",
"=XX X X c.c.L.L.L.L.L.L.L.L.L.L.L.L.L.c.c.c.c.c.c.c.c.c.c.c.c.c.c.c.c.c.L.L.c.c.c.c.c.L.c.c.c.c.c.c.c.c.c.c.c.c.L.L.L.L.L.L.L.L.",
"X X X c.c.c.L.L.L.c.c.c.c.c.c.c.c.c.c.c.c.c.c.c.c.c.c.c.c.c.c.c.c.c.c.c.c.c.c.c.c.c.c.L.c.c.c.c.c.c.c.c.c.c.c.c.L.L.L.L.L.c.c.c.",
"X X c.c.c.c.X c.c.c.c.c.e.e.e.e.e.e.c.c.c.c.c.c.c.c.c.c.c.c.c.c.c.c.c.c.c.c.c.c.c.c.c.c.c.c.c.c.c.c.c.c.c.c.c.c.c.c.c.c.c.c.c.c.",
"X X c.c.c.X X c.c.c.e.e.e.e.e.e.e.e.e.c.e.e.e.e.c.c.c.c.c.c.L.L.L.c.c.c.c.c.c.c.c.c.c.c.c.c.c.c.c.c.c.c.c.c.c.c.c.c.c.c.c.c.c.c.",
"X X X c.X X X e.e.e.e.e.e.e.e.e.e.e.e.e.e.e.e.e.e.c.c.c.L.L.L.L.L.L.c.c.c.c.c.c.c.c.c.c.e.e.e.c.c.c.c.c.c.c.c.c.c.c.c.c.c.c.c.c.",
"=XX X X X X e.e.e.e.e.e.e.e.e.e.e.e.e.e.e.e.e.e.e.L.L.L.L.L.L.L.L.L.L.L.L.L.e.e.e.c.c.e.e.e.e.e.c.c.c.c.c.c.c.c.c.c.c.c.c.c.c.c.",
"=X=X=X=XX X e.e.e.e.e.c.c.c.c.c.e.e.e.e.e.e.e.e.e.e.e.e.L.L.L.L.L.L.L.L.L.e.e.e.e.e.e.e.c.c.e.e.e.c.c.c.c.c.c.e.e.e.c.c.c.c.c.c.",
"=X=X=X=XX X e.e.e.c.c.c.c.c.c.c.c.e.e.e.c.c.c.e.e.e.e.e.e.e.L.L.L.e.e.e.e.e.c.c.e.e.e.c.c.c.c.e.e.e.c.c.c.c.e.e.e.e.e.c.c.c.e.e.",
"=X=X=X=XX X X c.c.c.c.c.c.c.c.c.c.e.e.c.c.c.n.B N N N N <.c.c.c.c.c.2.N N N N N b.V.c.c.V.V.V.V.c.c.c.c.c.e.e.e.e.e.e.e.e.e.e.e.",
"=X=X=XX X X X X c.c.c.c.c.c.c.c.c.c.V.V.V.n.B N ;.;.;.B N 5.c.B.V.5.N N B ;.;.;.B B n.n.B B N ;.r.c.c.c.c.e.e.e.e.e.e.e.e.e.e.e.",
"=X=XX X X X X X X X X c.c.c.c.c.c.B.;.N N N N 1.x.x.C.v.B 2.6.N N N M B v.C.x.x.1.N N N N ;.;.;.;.r.c.c.e.e.e.e.c.c.c.e.e.e.e.e.",
"=XX X X X L.L.X X X X X X c.c.0.9.B N ;.;.;.;.x.C.C.C.Z.=.M N N N N ;.v.Z.F.F.C.x.1.N N 1.x.Z.b.M ;.w.6.r.e.e.c.c.c.c.c.c.c.c.c.",
"=XX X X L.L.L.L.L.L.X X X X X 0.4.N :.V.C.z.<.n.C.C.C.Z.=.M 4.3.3.! 5.x.C.Q._.G.C.x.1.R x.C.C.n.:.;.N N >.6.6.V.c.c.c.c.c.c.c.c.",
"=XX X L.L.L.L.L.L.L.L.L.L.L.D.Y.:.N N.Z.C.C.V.;.C.G.F.Z.=.C 8.|.`.U.B =.Z.Q._./.G.C.x.7.G.G.F.C.Z.M.M M M M N 5.V.c.c.c.c.c.c.c.",
"=XX X L.L.L.L.L.L.L.L.L.L.D.1.M M N %.x.C.C.z.5.P.'.).H.5.! U._./.|.q.%.G.)._././.Z.G._.'.'.).G.Z.=.B <.<.<.;.M 7.e.e.e.e.c.c.c.",
"=XX X L.L.c.c.c.L.L.L.L.L.7.M 1.2.B M V.G.G.G.A././._.T.0.U.`././._.U.n.W.'./././.E.^./././._.Q.Z.n.%.Z.Z.Z.=.;.1.r.e.e.e.e.e.e.",
"=XX X L.c.c.c.c.c.L.e.e.X.E 1.N.Z.#.B #.).'.^.E./././._.`._././././._.W.!././././.'././././._.Q.C.Z.Z.C.C.C.Z.5.M Y.L.L.L.L.L.L.",
"=X=XX X c.c.c.c.c.e.e.X.: i a.A.Z.Z.#.8.}././.'././././././._./././._.'./././.'././././././.^.R.C.C.C.C.Z.C.Z.5.M Y.L.L.L.L.L.L.",
"=X=XX X X c.c.c.c.c.} < X   4 w k.Z.Z.E.E./.'.'.'./././.'.).W.'./.'.W.)._././.W.^.'.'.'.'.^.R.C.C.Z.A.A.Z.Z.m.H L B.c.c.c.c.c.c.",
"=X=X=XX X X c.c.c.} > . < 0 6 q k.Z.C.C.C.E.E.E.E.'.'.).E.G.F.Q.'.Q.Z.G.)././.W.E.E.E.E.E.J.C.Z.A.g.q q [ m.H * 1 g.c.c.c.c.c.c.",
"=X=X=XX X X X c.c.U . < ` f.h.Z.Z.C.Z.C.h.x.C.C.Z.E.E.G.x.C.C.F.E.F.x.G.)././.'.W.E.C.C.C.C.Z.g.7 3 @   , K s . X 1 g.c.c.c.c.L.",
"=X=XX X X X X X 7 > < ` &.h.x.C.C.C.h.h.l.C.C.C.C.C.C.C.C.C.C.C.C.C.G.^.'./././.'./.Z.C.C.C.Z.k.y P I 5   * Z > . X ] c.c.c.L.L.",
"=XX X X S.8 2 X X . 0 j.*.z.Z.C.C.C.f.l.C.C.C.Z.x.h.h.Z.C.C.C.C.C.C.W.'./././.'./.J.C.C.C.C.C.Z.Z.Z.A.k.5 < { ` : . 2 S.L.L.L.L.",
"=XX X S.2 X & x x a - G f.f.x.Z.C.C.f.h.x.Z.x.h.f.&.&.h.C.C.C.C.C.C.F.!.'.'.'.R.G.C.C.C.C.C.C.C.C.C.C.A.w 6 f.f.` : X } L.L.L.L.",
"=XX X i.X & b B B n p # t &.f.x.Z.h.&.&.f.f.f.&.&.&.&.f.Z.C.C.C.Z.l.z.F.G.G.G.Z.C.C.C.C.C.C.C.C.C.C.C.A.w 6 f.&.j.3 X } c.c.L.c.",
"=XX X i.X u B N N N n x / &.&.f.f.&.&.&.&.&.&.d.x.x.x.l.h.C.C.Z.l.&.l.C.C.C.C.C.C.x.h.x.C.C.C.C.C.C.Z.z.{ { &.d.7 $ X : g.c.c.c.",
"=XX X X X u B N N N N M @.&.&.&.&.&.&.z.x.&.d.x.C.C.C.C.l.f.f.f.d.&.d.z.C.C.C.C.C.x.d.f.f.h.C.C.C.z.f.d.&.&.&.) n u X X : g.c.c.",
"=X=XX X X u N B k * * D *.&.&.&.&.&.z.C.C.x.x.C.C.C.C.Z.z.&.&.*.h.x.h.d.f.x.C.C.C.x.d.d.x.x.C.x.f.d.&.&.&.&.d.,.M n = X X $.e.c.",
"=X=X=XoXX X s k $ X 6 ..&.&.&.&.&.&.x.C.C.C.C.C.C.C.C.C.C.x.l.&.l.Z.x.h.&.z.C.C.x.f.d.x.C.C.C.x.&.&.&.&.&.&.&.,.M N n & X $.e.e.",
"=X=X+X* X X + % . 5 &.&.&.&.&.&.&.&.d.x.x.C.C.C.C.x.C.C.C.C.C.h.h.C.C.C.f.&.x.x.f.&.d.x.C.C.C.z.&.&.&.*. .*.) N N N N = X $.e.e.",
"=X#X* X X * * % . 1 &.&.&...{ | *.&.&.&.d.x.C.C.x.f.C.C.C.C.Z.l.&.l.x.x.f.&.&.&.&.&.&.f.x.x.x.&.&.&.&.@.N B N N N N M & X $.c.c.",
"=X@X+ X p M N k $ X 6 { { 1 % c O.&.&.&.&.d.x.x.&.f.x.x.C.C.C.h.&.&.&.&.&.&.&.&.&.&.&.&.&.&.&.&.&.&.&.o.N N N N n n u X ; ' c.c.",
"*XV X & N N N B k % X $ o % k M N o.| | *.&.&.&.&.&.&.f.x.x.h.&.&.&.&.&.&.&.&.&.&.&.&.&.&.&.&.&.&.&.&.&.@.B M n p X X ; P } l.c.",
"*XX X & M N N N B l * % . f M N N N N ;. .&.&.&.&.&.&.&.&.&.&. . .&.&.&.&.&.&.| *.&.&.&.&.&.&.&.&.&.&.&.&.) M f + X X T y.p.p.K.",
"%XX X * b B N N N N B l % . f n N N ;. .&.&.&.&.&.&.&.&.&.&. .,.,. .&.&.&.| +.R | &.&.&.*.| &.&.&.&.&.&. .,.M B f + X X Y p.s.K.",
".XX X X * x v B N N N B j = = c M N | &.&.&.&.*.+.&.&.&.&. .) -.B ,.+.O.O.;.M ;. .&.&.&.| ;.&.&.&.&.&.d._ M N N B f % X Y p.I.c.",
".XX X > X . & v M N N N N B B N N N @.&.&.&.*.@.;.&.&.&.d.@.,.d.o.-.B ;.-.B N | &.&.&.&.| ;.&.&.&.&.d.*.J b M N N B u X Y } ] h.",
"+XX X Y X X % j B N N N N N N N N N N _ o.o. .-.;.&.&.&. .,.,.&.&.d.@.+.d.) B ( *.&.&.o._ m O.&.d.| o.J i d B N N B u X P } ] W ",
"=XX X X X * l B N M B N N N N N N N N M N ,.*.| m O.d. .,.M ) d.&.&.&.O. .d.;.M ( @._ N M N m @.o.J l i O f B N B x * X P } ] Q ",
"*X.XX X X p ^ N B v g c B N N N N N N N B *.&.| N m @.,.M M ;.| &.&.d.-.,.@.R N M M M N N N N M M x s s = u b ^ x * X 2 t.W W 9.",
"*X@XXXM X * k ~ b u O f B N N N N N N N N (  .) N N M M N N M ;.| d.O.;.M M N N N N N N N N N N N M B ^ j . u j * X 4 t.p.p.S.L.",
"=X*X.X Xh X * f u . = c M N N N N N N N N N ,.M N N N N N N N M ;.) ;.M N N N N N N N N N N B N N N B v = X X X 2 9 t.p.u.u.K.L.",
"=X*X@X.XX X X . X X f ^ N N N N B N N N N N M N N N N N N N N N M M N N N N N N N N N N N n j B N B v = X > F A t.} } ] u.S.L.L.",
"=X=X*X#XX X q q q < & x B B B B g b N N N N N N N N N B B N N N N B l c B N N N N N N N M b $ g B v = X X 9 s.p.} ] ] ] g.L.L.L.",
"=X=X=X*XX X } } } 7 X & a a a a % v B N N N N N N N b p j B B B B k % k B N N N N N N B n p X % a = X > e X X X ] ] g.h.c.c.c.c.",
"=X=X=X=XX X g.] } ' 3 X X X X X X = n N N N N N B b = . * p p p p * X & v B N N N N M p = X X X X : w P } } ] X X g.c.c.c.c.c.c.",
"=X=X=X=X=XX X l.g.] ' r r X X X X X = p n N N n u & X X X X X X X X X X & = b M N N N z w r X X r P } } ] ] ] X X X X c.c.c.c.c.",
"=X=X=X=X=XX X X c.z.g.} X X X X X X X .X.X= = & X X S S S S S S X X X X y y & b N N X.X.} } X X X ] ] ] ] g.z.X X X X X c.c.c.c.",
"=X=X=X=X=X=XX X X X X X X X .X.X.X.X.X.X.X.XoX#XX X / / / / / / X X X X X X X * & & ] ] ] ] X X X X ] i.z.c.X X X X X X c.c.c.c.",
"=X=X=X=X=X=X=XX X X X X X *X*XOX.XXXXX.X.XoX&X*XXXX X / / / / X X X .XX X X X X .XX X ] ] X X X =XX X X X X X X X =XX X X c.c.c.",
"=X=X=X=X=X=X=X=X=X=X=X=X=X=X=X*X*X*X*XoXoX&X=X*XXXX X X X X X X X X .X.X.XXX%X*XoXX X X X X X *X=X=XX X X X X X =X=X=XX X X c.c.",
"=X=X=X=X=X=X=X=X=X=X=X=X=X=X=X=X=X=X=X*X*X=X=X*X.X.XX X X X X X X .X.X.X.X#X=X=X*X*XX X X X =X=X=X=X=X=X=X=X=X=X=X=X=X=X=XX X X "
};
