/* XPM */
static const char *bot_left8[] = {
/* columns rows colors chars-per-pixel */
"64 64 190 2 ",
"   c #0D112C",
".  c #13162B",
"X  c #161C2E",
"o  c #191F2E",
"O  c #121227",
"+  c #171F30",
"@  c #1C232E",
"#  c #172031",
"$  c #192333",
"%  c #1A2837",
"&  c #1C2C3A",
"*  c #1A2738",
"=  c #1E323E",
"-  c #21292F",
";  c #242C33",
":  c #2D3834",
">  c #333E35",
",  c #364236",
"<  c #394636",
"1  c #3D4138",
"2  c #3A4A36",
"3  c #434739",
"4  c #405238",
"5  c #465A3A",
"6  c #4D5D3B",
"7  c #4A5639",
"8  c #4C613B",
"9  c #53633C",
"0  c #5B6D3E",
"q  c #5E713F",
"w  c #5E793F",
"e  c #66743F",
"r  c #1F3541",
"t  c #213B45",
"y  c #213E48",
"u  c #26484E",
"i  c #24434A",
"p  c #274D52",
"a  c #284E53",
"s  c #244652",
"d  c #295256",
"f  c #2C5B5C",
"g  c #2B5759",
"h  c #3E5543",
"j  c #33635E",
"k  c #2A5E61",
"l  c #2E6161",
"z  c #2F6868",
"x  c #306764",
"c  c #316966",
"v  c #326C69",
"b  c #34736D",
"n  c #3E7E6F",
"m  c #347673",
"M  c #377A73",
"N  c #397C73",
"B  c #367B7F",
"V  c #2E7575",
"C  c #506F4D",
"Z  c #5E7940",
"A  c #51704D",
"S  c #49775A",
"D  c #5B7E52",
"F  c #4B6844",
"G  c #626342",
"H  c #657A41",
"J  c #6A7C41",
"K  c #7C7B49",
"L  c #407B69",
"P  c #517261",
"I  c #597D68",
"U  c #407F72",
"Y  c #398178",
"T  c #398077",
"R  c #5F8454",
"E  c #578C5F",
"W  c #5B8E5C",
"Q  c #5F905A",
"!  c #6C8242",
"~  c #6D8D48",
"^  c #778E45",
"/  c #798E44",
"(  c #739445",
")  c #799145",
"_  c #749C4C",
"`  c #799F4A",
"'  c #799C46",
"]  c #658B56",
"[  c #669455",
"{  c #699654",
"}  c #6E9950",
"|  c #629259",
" . c #6A935B",
".. c #6D995F",
"X. c #729C5D",
"o. c #7B9850",
"O. c #7DA147",
"+. c #7CA148",
"@. c #7BA15A",
"#. c #4D8665",
"$. c #44826D",
"%. c #49856D",
"&. c #4E8A6C",
"*. c #528963",
"=. c #588D67",
"-. c #538B69",
";. c #56896E",
":. c #5C9165",
">. c #5F9669",
",. c #578C70",
"<. c #458272",
"1. c #629463",
"2. c #689661",
"3. c #6C9C63",
"4. c #68956C",
"5. c #719B6F",
"6. c #628E74",
"7. c #679175",
"8. c #6FA166",
"9. c #79A863",
"0. c #73A464",
"q. c #8A884C",
"w. c #918F4E",
"e. c #829C48",
"r. c #93914F",
"t. c #9C9A51",
"y. c #81A346",
"u. c #84A548",
"i. c #8AA249",
"p. c #8CAA49",
"a. c #83A949",
"s. c #90A448",
"d. c #92AD4A",
"f. c #96B14B",
"g. c #9CB44C",
"h. c #9BB94E",
"j. c #84A657",
"k. c #86AB56",
"l. c #8BAD54",
"z. c #83A658",
"x. c #91AE52",
"c. c #8FB252",
"v. c #93B351",
"b. c #A1B74C",
"n. c #A3B94C",
"m. c #A5A254",
"M. c #A9A555",
"N. c #A7BA50",
"B. c #ABBD53",
"V. c #AAB05F",
"C. c #A2B754",
"Z. c #BBB65A",
"A. c #BFBA5B",
"S. c #B0AC57",
"D. c #8CAA6C",
"F. c #8FA363",
"G. c #97AC66",
"H. c #AFBE6A",
"J. c #AAC04C",
"K. c #B2C057",
"L. c #B3C159",
"P. c #BAC55D",
"I. c #BEC761",
"U. c #BEC765",
"Y. c #C1C963",
"T. c #C5CB66",
"R. c #C7CC67",
"E. c #C6CC67",
"W. c #C7CC67",
"Q. c #C9CD67",
"!. c #CCCF67",
"~. c #C8CD68",
"^. c #C8CD68",
"/. c #CACE69",
"(. c #C8CD68",
"). c #CED066",
"_. c #377C80",
"`. c #3A8487",
"'. c #3A8588",
"]. c #3B8A8C",
"[. c #3D8E90",
"{. c #3E9192",
"}. c #409697",
"|. c #429C9C",
" X c #409798",
".X c #43A09F",
"XX c #45A6A5",
"oX c #46A8A7",
"OX c #47ABA9",
"+X c #47ABA9",
/* pixels */
"X X h.h.h.h.h.h.X X A.A.A.A.A.9.9.9.9.9.9.9.9.9.9.9.9.9.9.9.9.9.9.9.9.9.9.9.9.9.9.9.9.9.9.9.9.9.9.9.9.9.9.9.9.9.9.9.9.9.9.9.9.9.",
"OXX X X X X X X X A.A.A.h.9.9.9.h.h.h.9.9.9.9.9.9.9.9.9.9.9.9.9.9.9.9.9.9.9.9.9.7.7.7.7.9.9.9.9.9.9.9.9.9.9.9.9.9.9.9.9.9.h.h.h.",
"OXOXX X X X X X X A.A.h.h.h.h.h.h.h.h.h.h.h.h.9.9.9.9.9.9.9.9.9.9.9.9.9.9.9.9.7.7.7.7.7.7.h.h.h.h.h.h.h.h.7.7.7.7.9.9.9.h.h.h.h.",
"OXX X X X X X X X A.A.h.h.h.h.h.h.h.9.9.9.9.9.9.9.9.9.9.9.9.9.9.9.9.9.7.7.7.9.7.7.7.7.7.7.7.7.7.7.7.h.h.7.7.7.7.7.7.7.9.h.h.h.h.",
"X X X 9.9.9.9.X X A.h.h.h.h.h.h.h.h.h.h.9.9.9.9.9.9.9.9.9.9.9.9.9.9.7.7.7.7.7.7.7.7.7.7.7.7.7.7.7.7.7.7.7.A.A.A.7.7.7.7.h.h.h.A.",
"X X 9.9.9.9.9.X X X h.h.h.h.h.h.h.h.h.h.h.h.9.9.9.9.9.9.9.9.9.9.9.7.7.7.7.7.A.A.A.A.7.7.7.7.A.A.A.A.7.7.A.A.A.A.A.7.7.7.7.A.A.A.",
"X X 9.9.9.9.9.9.X X X 9.9.9.h.h.h.h.h.h.h.h.h.h.h.h.9.9.9.9.9.9.9.7.7.7.A.A.A.A.A.A.A.7.7.A.A.A.A.A.A.A.A.A.A.A.A.A.A.A.A.A.h.h.",
"X X 9.9.9.9.9.9.9.9.9.9.9.9.h.h.h.h.h.h.h.h.h.h.h.h.9.9.9.9.9.7.7.7.7.A.A.A.A.A.A.A.A.7.A.A.A.A.A.A.A.A.A.A.A.A.A.A.A.A.A.A.h.h.",
"X X 9.9.9.9.9.h.h.h.h.9.9.9.9.9.9.h.h.h.h.h.h.h.h.h.h.A.A.A.A.A.A.7.A.A.A.A.A.A.A.A.A.A.A.A.A.A.A.A.A.A.A.A.A.A.A.A.A.A.A.A.h.A.",
"X X X 9.9.X h.h.h.h.h.h.h.h.h.h.h.h.h.h.h.h.h.h.h.h.A.A.h.h.A.A.A.A.A.A.A.A.A.A.A.A.A.A.A.A.A.A.A.A.A.A.A.A.A.A.A.A.A.A.A.A.A.A.",
"X X X X X X A.A.h.h.h.h.h.h.h.h.h.h.h.h.h.h.h.h.h.h.A.h.h.h.h.A.A.A.A.A.A.A.A.h.h.h.A.A.A.A.A.h.h.A.A.A.A.h.h.A.A.A.A.A.A.A.A.A.",
"OXX X X X A.A.A.A.A.h.h.h.h.h.h.h.h.h.h.h.h.h.h.h.h.h.h.h.h.h.h.h.h.h.A.A.A.h.h.h.h.h.A.A.h.h.h.h.h.h.A.h.h.h.h.A.A.A.A.A.A.A.A.",
"OXX X X h.h.A.A.A.A.A.A.A.A.A.A.A.A.A.h.h.h.h.h.h.h.h.h.h.h.h.h.h.h.h.h.A.A.h.h.h.h.h.A.h.h.h.h.h.h.h.h.h.h.h.h.A.A.A.A.A.A.A.A.",
"X X X h.h.h.A.A.A.h.h.h.h.h.h.h.h.h.h.h.h.h.h.h.h.h.h.h.h.h.h.h.h.h.h.h.h.h.h.h.h.h.h.A.h.h.h.h.h.h.h.h.h.h.h.h.A.A.A.A.A.h.h.h.",
"X X h.h.h.h.X h.h.h.h.h.9.9.9.9.9.9.h.h.h.h.h.h.h.h.h.h.h.h.h.h.h.h.h.h.h.h.h.h.h.h.h.h.h.h.h.h.h.h.h.h.h.h.h.h.h.h.h.h.h.h.h.h.",
"X X h.h.h.X X h.h.h.9.9.9.9.9.9.9.9.9.h.9.9.9.9.h.h.h.h.h.h.A.A.A.h.h.h.h.h.h.h.h.h.h.h.h.h.h.h.h.h.h.h.h.h.h.h.h.h.h.h.h.h.h.h.",
"X X X h.X X X 9.9.9.9.9.9.9.9.9.9.9.9.9.9.9.9.9.9.h.h.h.A.A.A.A.A.A.h.h.h.h.h.h.h.h.h.h.9.9.9.h.h.h.h.h.h.h.h.h.h.h.h.h.h.h.h.h.",
"OXX X X X X 9.9.9.9.9.9.9.9.9.9.9.9.9.9.9.9.9.9.9.A.A.A.A.A.A.A.A.A.A.A.A.A.9.9.9.h.h.9.9.9.9.9.h.h.h.h.h.h.h.h.h.h.h.h.h.h.h.h.",
"OXOXOXOXX X 9.9.9.9.9.h.h.h.h.h.9.9.9.9.9.9.9.9.9.9.9.9.A.A.A.A.A.A.A.A.A.9.9.9.9.9.9.9.h.h.9.9.9.h.h.h.h.h.h.9.9.9.h.h.h.h.h.h.",
"OXOXOXOXX X 9.9.9.h.h.h.h.h.h.h.h.9.9.9.h.h.h.9.9.9.9.9.9.9.A.A.A.9.9.9.9.9.h.h.9.9.9.h.h.h.h.9.9.9.h.h.h.h.9.9.9.9.9.h.h.h.9.9.",
"OXOXOXOXX X X h.h.h.h.h.h.h.h.h.h.9.9.h.h.h.l.N M M M M =.h.h.h.h.h.:.M M M M M k.v.h.h.v.v.v.v.h.h.h.h.h.9.9.9.9.9.9.9.9.9.9.9.",
"OXOXOXX X X X X h.h.h.h.h.h.h.h.h.h.v.c.v.l.N M $.$.$.N M 1.h.c.v.:.M M U %.$.$.N N l.l.N N M %.0.h.h.h.h.9.9.9.9.9.9.9.9.9.9.9.",
"OXOXX X X X X X X X X h.h.h.h.h.h.c.%.M M M M -.g.g.b.j.N :.3.M M M M N j.b.g.g.-.M M M M %.%.$.%.0.h.h.9.9.9.9.h.h.h.9.9.9.9.9.",
"OXX X X X A.A.X X X X X X h.h.7.6.N M %.%.%.$.g.b.b.b.n.@.m M M M M U j.n.N.N.b.g.-.M M -.g.b.k.M %.8.3.0.9.9.h.h.h.h.h.h.h.h.h.",
"OXX X X A.A.A.A.A.A.X X X X X 6.U M %.v.b.f.%.g.b.b.b.g...U ,.,.<.m @.n.N.Y.Q.N.b.g.N n g.b.n.l.%.M M M &.3.0.h.h.h.h.h.h.h.h.h.",
"OXX X A.A.A.A.A.A.A.A.A.A.V.G.;.M M x.b.b.f.%.g.B.N.n.j.V 5.).!.D.U X.n.P.~.R.B.b.g.4.4.B.N.b.n.j.M M M M M 1.v.h.h.h.h.h.h.h.h.",
"OXX X A.A.A.A.A.A.A.A.A.V.;.M M M M x.b.b.f.1.B.Q.Y.C.2.N D.Q.R.).5.X.B.Y.Q.R.R.N.B.Q.Q.~.Y.B.n.z.N =.=.=.%.M >.9.9.9.9.9.h.h.h.",
"OXX X A.A.h.h.h.A.A.A.A.4.M &.:.N M x.B.B.B.n.R.R.Q.H.7.D.!.R.R.Q.D.j.P.~.R.R.R.L.T.R.R.R.R.Y.n.l.X.n.n.n.z.%.&.0.9.9.9.9.9.9.9.",
"OXX X A.h.h.h.h.h.A.9.] L -.x.n.X.N 2.U.~.R.L.R.R.R.Q.!.Q.R.R.R.R.Q.P.I.R.R.R.R.~.R.R.R.R.Q.Y.b.b.b.b.b.b.n.2.m F.A.A.A.A.A.A.A.",
"OXOXX X h.h.h.h.h.9.] > r o.J.b.n.X.5.U.Q.R.~.R.R.R.R.R.R.~.R.R.R.Q.~.R.R.R.~.R.R.R.R.R.Q.R.L.b.b.b.b.b.b.n.2.m F.A.A.A.A.A.A.A.",
"OXOXX X X h.h.h.h.e., X . 3 0 i.b.n.L.L.R.~.~.~.R.R.R.~.Y.P.~.R.~.I.Y.~.R.R.P.T.~.~.~.~.R.L.b.b.b.n.n.n.n.l.&.-.l.h.h.h.h.h.h.h.",
"OXOXOXX X X h.h.e., . > 8 5 9 i.b.b.b.b.L.L.L.L.~.~.Y.L.B.n.I.~.I.N.B.Y.R.R.P.L.L.L.L.L.K.b.b.N.s.9 9 / l.&.k ~ h.h.h.h.h.h.h.h.",
"OXOXOXX X X X h.H X > ~ a.p.b.b.b.b.b.p.g.b.b.b.K.L.B.g.b.b.N.L.N.g.B.Y.R.R.~.P.L.b.b.b.b.b.s.6 <     : S l & > e.h.h.h.h.h.h.A.",
"OXOXX X X X X X , . 8 a.+.d.b.b.b.p.p.d.b.b.b.b.b.b.b.b.b.b.b.b.b.b.P.~.R.R.R.~.~.n.b.b.b.b.d.e J J 7   & & O X , e.h.h.h.h.A.A.",
"OXX X X M.1 X X X . 5 a.+.d.b.b.b.f.y.g.b.b.b.b.g.p.d.b.b.b.b.b.b.b.P.~.R.R.R.R.L.b.b.b.b.b.b.n.n.n.d.7 . < Z > . > m.A.A.A.A.A.",
"OXX X M.1 X & l l y - Z y.a.g.b.b.b.u.u.b.b.g.p.u.+.+.p.b.b.b.b.b.b.N.I.~.Q.Q.K.b.b.b.b.b.b.b.b.b.b.n.J   8 a.~ : . > i.A.A.A.A.",
"OXX X e.X & v N N b t @ w O.a.g.b.p.+.+.u.u.u.+.+.+.+.u.b.b.b.b.b.d.f.N.B.B.B.b.b.b.b.b.b.b.b.b.b.b.n.e , ( +.y.~ : X ) h.h.A.h.",
"OXX X e.X r N M M N b l R y.+.a.u.+.+.+.+.+.+.y.g.g.g.d.p.b.b.b.d.+.d.b.b.b.b.b.b.g.p.g.b.b.b.b.b.b.b.i.( +.+.+.a.< X ) h.h.h.h.",
"OXX X X X r N M M M M M | +.+.+.+.+.+.f.g.+.y.g.b.b.b.b.d.a.u.u.y.+.y.f.b.b.b.b.b.g.y.a.u.p.b.b.b.b.f.y.+.+.+.O.5 @ X ; i.h.h.h.",
"OXOXX X X r M N g % * F +.+.+.+.+.+.f.b.b.g.g.b.b.b.b.b.f.+.+.+.p.g.p.y.a.g.b.b.b.g.y.y.g.g.b.g.y.y.y.+.+.+.+.W b r X X ; ..9.h.",
"OXOXOX].X X i f # X 5 ' +.+.+.+.+.+.g.b.b.b.b.b.b.b.b.b.b.g.d.+.d.b.b.p.+.f.b.b.g.u.y.g.b.b.b.g.+.+.+.+.+.+.y.*.M b r X X  .9.9.",
"OXOX{.* X X + # . 2 +.+.+.+.+.+.+.+.y.g.g.b.b.b.b.g.b.b.b.b.b.p.p.b.b.b.u.+.g.g.u.+.y.g.b.b.b.f.+.+.+.+.+.+.+.*.M M m & X  .9.9.",
"OX|.% X X % % # . 4 +.+.+.' ( _ +.+.+.+.y.g.b.b.g.u.b.b.b.b.b.d.+.d.g.g.u.+.+.+.+.+.+.a.g.g.g.+.+.+.+.+.` ` E M M M N = X  .h.h.",
"OX}.+ X t m M f # X 5 ( ( 2 $ x { +.+.+.+.y.g.g.+.u.g.g.b.b.b.p.+.+.+.+.+.+.+.+.+.+.+.+.+.+.+.+.+.+.+.| M N M M M M b & X ! h.h.",
"oXB X & M M M N f # X o o $ f M M { _ _ +.+.+.+.+.+.+.u.g.g.p.+.+.+.+.+.+.+.+.+.+.+.+.+.+.+.+.+.+.+.+.[ N M M N b v = X - ! d.h.",
"oXX X & M M M M N g & $ . p m M M M M $.` +.+.+.+.+.+.+.+.+.+.+.+.+.+.+.+.+.+._ +.+.+.+.+.+.+.+.+.+.+.+.| N M b r X X ; K r.r.Z.",
".XX X & v N M M M M N d # . p b M M $.` +.+.+.+.+.+.+.+.+.+.+._ ` +.+.+.+.+._ U _ +.+.+.+._ +.+.+.+.+.+.y.W M a # X X G w.r.t.Z.",
"`.X X X & l c N M M M N d = = x N M _ +.+.+.+.+.} +.+.+.+.+.` #.#.` +.+.+._ $.$.` +.+.+._ $.+.+.+.+.+.+.` *.M N a # X X K r.S.h.",
"`.X X > X . & c M M M M M N N M M M | +.+.+.+.| $.+.+.+.+.` W #.n *.{ [ [ $.M _ +.+.+.+._ $.+.+.+.+.+.y.Q M M M N p # X K ) ^ p.",
"{.X X K X X # d N M M M M M M M M M M Q [ [ ` #.$.+.+.+.y.| *.y.[ #.n $.#.N M W +.+.+.[ Q n { +.+.+.y._ S c M M M N r X H ) ^ P ",
"OXX X X X % d N M M N N M M M M M M M M M *.+._ n { y.y.` #.*.+.+.y.| _ y.W N M W | Q M M M n | | | [ S r u N M M N r X H ) ) I ",
"oX`.X X X t Y M N c a x M M M M M M M M N +.+._ M n Q | *.m E y.+.+.y.{ _ y.$.M M M M M M M M M M v a r O a N M N l & X K P P 6.",
"oX{.'.m X * f T v r O p N M M M M M M M M W ` E M M M M M M $.} +.+.y.#.#.W n M M M M M M M M M M c i u = = c Y f % X 3 q.r.m.A.",
"OXoX`._.s X % p r . = x M M M M M M M M M M *.M M M M M M M M $.} y.{ $.M M M M M M M M M M N M M M N Y d O = p & X 3 q.r.w.Z.A.",
"OXoX X`.X X X X X X p Y M M M M N M M M M M M M M M M M M M M M $.E $.M M M M M M M M M M b d N M M N x = X X X 3 6 ! ) w.M.A.A.",
"OXOXoX|.X X 9 9 9 , & l N N N N a v M M M M M M M M M N M M M M M M M M M M M M M M M M M v # a N N c & X 1 G G ! ) ^ ^ i.A.A.A.",
"OXOXOXoXX X ) ) ) 6 X & y y y y # c N M M M M M M N v p N M M M M N d l M M M M M M M N b t X # y y & X X X X X ) ^ i.p.h.h.h.h.",
"OXOXOXOXX X i.^ ) ! < X X X X X X = b M M M M M N v & # d N N N N g # f N M M M M M m t = X X X X X X > 0 J ) X X i.h.h.h.h.h.h.",
"OXOXOXOXOXX X d.i.^ ! q q X X X X X = t b M M b r & X X # r r r r % X & x N M M M M M j 0 q X X q q q J ) ) ^ X X X X h.h.h.h.h.",
"OXOXOXOXOXX X X h.f.i.) X X X X X X X `.`.= = & X X C h X X X X X X X X & = = v M M ] ~ ) ) X X X ) ) ) ^ i.f.X X X X X h.h.h.h.",
"OXOXOXOXOXOXX X X X X X X X `.`.`.`.`.`.`.`.].|.X X R D A A A A X X X X X X X & & & ^ / ^ ^ X X X X ^ e.f.h.X X X X X X h.h.h.h.",
"OXOXOXOXOXOXOXX X X X X X oXoX[.`.'.'.`.`.].XXoX'.X X R R R R X X X '.X X X X X `.X X ^ ^ X X X OXX X X X X X X X OXX X X h.h.h.",
"OXOXOXOXOXOXOXOXOXOXOXOXOXOXOXoXoXoXoX].].XXOXoX'.X X X X X X X X X `.`.`.'..XoX].X X X X X X oXOXOXX X X X X X OXOXOXX X X h.h.",
"OXOXOXOXOXOXOXOXOXOXOXOXOXOXOXOXOXOXOXoXoXOXOXoX'.`.X X X X X X X `.`.`.`.|.OXOXoXoXX X X X OXOXOXOXOXOXOXOXOXOXOXOXOXOXOXX X X "
};
