/* XPM */
static const char *bot_right3[] = {
/* columns rows colors chars-per-pixel */
"64 64 184 2 ",
"   c #0D112C",
".  c #12162B",
"X  c #161C2E",
"o  c #181E2E",
"O  c #121227",
"+  c #171F30",
"@  c #1A212F",
"#  c #172031",
"$  c #182233",
"%  c #1B2835",
"&  c #1C2C3A",
"*  c #1D313E",
"=  c #222A2E",
"-  c #202A32",
";  c #2E3B34",
":  c #2A3333",
">  c #333E34",
",  c #354235",
"<  c #3A4736",
"1  c #35443A",
"2  c #3E5038",
"3  c #43463A",
"4  c #415438",
"5  c #4C5C3B",
"6  c #495639",
"7  c #4B603B",
"8  c #53633C",
"9  c #5B6E3E",
"0  c #5E713F",
"q  c #64773F",
"w  c #1F3541",
"e  c #1F3845",
"r  c #213C45",
"t  c #26484E",
"y  c #24434B",
"u  c #274D52",
"i  c #284E53",
"p  c #295155",
"a  c #2A5659",
"s  c #2C5B5D",
"d  c #2A5D61",
"f  c #2E6262",
"g  c #2F6868",
"h  c #316664",
"j  c #316966",
"k  c #326D6A",
"l  c #35736E",
"z  c #3E7E6E",
"x  c #347673",
"c  c #377A73",
"v  c #397C74",
"b  c #4D6A49",
"n  c #506E4C",
"m  c #5E7A40",
"M  c #54744F",
"N  c #476258",
"B  c #49775A",
"V  c #657A41",
"C  c #6A7C41",
"Z  c #7B7A48",
"A  c #477F68",
"S  c #517161",
"D  c #587C68",
"F  c #567E63",
"G  c #407F71",
"H  c #398077",
"J  c #398178",
"K  c #5E8354",
"L  c #578C5F",
"P  c #5B8E5C",
"I  c #5F905A",
"U  c #6E8443",
"Y  c #6D8C43",
"T  c #68884E",
"R  c #708643",
"E  c #768E45",
"W  c #798D44",
"Q  c #799145",
"!  c #769845",
"~  c #7A9D46",
"^  c #749C4D",
"/  c #799E4A",
"(  c #719244",
")  c #618656",
"_  c #669455",
"`  c #699654",
"'  c #6E9950",
"]  c #629259",
"[  c #69925B",
"{  c #6F995D",
"}  c #729C5D",
"|  c #7DA147",
" . c #7CA148",
".. c #7CA259",
"X. c #4D8665",
"o. c #44816D",
"O. c #4B866D",
"+. c #4E896C",
"@. c #528963",
"#. c #588D67",
"$. c #528B6A",
"%. c #598A6D",
"&. c #5D9165",
"*. c #5F9669",
"=. c #578C70",
"-. c #5E8D75",
";. c #448272",
":. c #649562",
">. c #689661",
",. c #6B9A62",
"<. c #66966D",
"1. c #739C6E",
"2. c #608E75",
"3. c #679175",
"4. c #6FA165",
"5. c #75A463",
"6. c #79A863",
"7. c #918F4E",
"8. c #839D48",
"9. c #809947",
"0. c #93914F",
"q. c #86854B",
"w. c #A19D52",
"e. c #81A345",
"r. c #84A548",
"t. c #8AA449",
"y. c #84A948",
"u. c #8CAA49",
"i. c #90A448",
"p. c #93AD4A",
"a. c #96B14B",
"s. c #9CB44C",
"d. c #9BB94E",
"f. c #86AA56",
"g. c #8AAC55",
"h. c #81A458",
"j. c #86A858",
"k. c #92AF52",
"l. c #8FB153",
"z. c #93B351",
"x. c #A1B74C",
"c. c #A4B94C",
"v. c #ACBD4F",
"b. c #AAA655",
"n. c #A6BA51",
"m. c #ABBC53",
"M. c #A6B459",
"N. c #BFBA5B",
"B. c #B7B959",
"V. c #8CAA6C",
"C. c #9EAA61",
"Z. c #AFBE6A",
"A. c #B3C157",
"S. c #B3C158",
"D. c #B4C25A",
"F. c #BAC55D",
"G. c #BDC760",
"H. c #BEC766",
"J. c #BDC769",
"K. c #C1C963",
"L. c #C5CB66",
"P. c #C7CC67",
"I. c #C6CC67",
"U. c #C5CB66",
"Y. c #C9CD67",
"T. c #CCCF67",
"R. c #C8CD68",
"E. c #C8CD68",
"W. c #CACE69",
"Q. c #C8CD68",
"!. c #CED066",
"~. c #3A8487",
"^. c #3A8688",
"/. c #3C8A8C",
"(. c #3D8E90",
"). c #3E9192",
"_. c #409697",
"`. c #429C9C",
"'. c #409798",
"]. c #43A09F",
"[. c #45A6A5",
"{. c #46A8A7",
"}. c #47ABA9",
"|. c #47ABA9",
/* pixels */
"d.d.d.d.d.N.N.N.N.N.N.N.N.N.N.6.6.6.6.6.6.6.6.6.6.6.6.6.6.6.6.6.6.6.6.6.6.6.6.6.6.6.6.6.6.6.6.6.6.6.6.6.6.d.d.d.d.d.d.d.d.d.d.X ",
"d.d.d.d.d.d.N.N.N.N.N.N.d.6.6.6.d.d.d.6.6.6.6.6.6.6.6.6.6.6.6.6.6.6.6.6.6.6.6.6.3.3.3.3.6.6.6.6.6.6.6.6.6.6.6.6.d.d.d.d.d.d.d.X ",
"d.d.N.N.N.N.N.N.N.N.N.d.d.d.d.d.d.d.d.d.d.d.d.6.6.6.6.6.6.6.6.6.6.6.6.6.6.6.6.3.3.3.3.3.3.6.6.X X X X X 6.6.6.6.6.d.d.d.d.d.d.X ",
"N.N.N.N.N.N.N.N.N.N.N.d.d.d.d.d.d.d.6.6.6.6.6.6.6.6.6.6.6.6.6.6.6.6.6.3.3.3.6.3.3.3.3.3.3.6.X X X X X X X 6.X X X X d.d.d.d.X X ",
"N.N.N.N.N.N.N.N.N.N.d.d.d.d.d.d.d.d.d.d.6.6.6.6.6.6.6.6.6.6.6.6.6.6.3.3.3.3.3.3.3.3.3.3.3.X X X N.N.X X X X X X X X X d.d.X X X ",
"d.d.d.d.d.N.N.N.N.N.d.d.d.d.d.d.d.d.d.d.d.d.6.6.6.6.6.6.6.6.6.6.6.3.3.3.3.3.N.N.N.N.3.3.3.N.N.N.N.N.N.N.X X N.N.N.X X X X X X X ",
"d.d.d.d.d.d.N.N.N.N.N.d.N.N.d.d.d.d.d.d.d.d.d.d.d.d.6.6.6.6.6.6.6.3.3.3.N.N.N.N.N.N.N.3.3.N.N.N.N.N.N.N.N.N.N.N.N.N.X X X X X }.",
"d.d.d.d.d.d.d.d.N.N.N.N.N.N.N.d.d.d.d.d.d.d.d.d.d.d.6.6.6.6.6.3.3.3.3.N.N.N.N.N.N.N.N.3.N.N.N.N.N.N.N.N.N.N.N.N.N.N.N.X X X }.}.",
"N.N.d.d.d.d.d.d.d.N.N.N.d.d.d.N.d.d.d.d.d.d.d.d.d.d.d.N.N.N.N.N.N.3.N.N.N.N.N.N.N.N.N.N.N.N.N.N.N.N.N.N.N.N.N.N.N.N.X X X X }.}.",
"N.N.N.d.d.d.d.d.d.d.d.d.d.d.d.d.d.d.d.d.d.d.d.d.d.d.N.N.d.d.N.N.N.N.N.N.N.N.N.N.N.N.N.N.N.N.N.N.N.N.N.N.N.N.N.N.N.N.N.N.X X X }.",
"N.N.N.d.d.d.N.N.d.d.d.d.d.d.d.d.d.d.d.d.d.d.d.d.d.d.N.d.d.d.d.N.N.N.N.N.N.N.N.d.d.d.N.N.N.N.N.d.d.N.N.N.N.d.d.d.d.N.N.N.N.X X }.",
"N.N.N.d.d.N.N.N.N.N.d.d.d.d.d.d.d.d.d.d.d.d.d.d.d.d.d.d.d.d.d.d.d.d.d.N.N.N.d.d.d.d.d.N.N.d.d.d.d.d.d.N.d.d.d.d.d.d.N.N.N.X X }.",
"N.N.N.N.N.N.N.N.N.N.N.N.N.N.N.N.N.N.N.d.d.d.d.d.d.d.d.d.d.d.d.d.d.d.d.d.N.N.d.d.d.d.d.N.d.d.d.d.d.d.d.d.d.d.d.d.d.d.N.N.N.X X }.",
"N.N.N.N.N.N.N.N.N.d.d.d.d.d.d.d.d.d.d.d.d.d.d.d.d.d.d.d.d.d.d.d.d.d.d.d.d.d.d.d.d.d.d.N.d.d.d.d.d.d.d.d.d.d.d.d.d.d.N.N.X X X }.",
"d.d.d.d.d.d.d.d.d.d.d.d.6.6.6.6.6.6.d.d.d.d.d.d.d.d.d.d.d.d.d.d.d.d.d.d.d.d.d.d.d.d.d.d.d.d.d.d.d.d.d.d.d.d.d.d.d.d.X X X X }.}.",
"d.d.d.d.d.d.d.d.d.d.6.6.6.6.6.6.6.6.6.d.6.6.6.6.d.d.d.d.d.d.N.N.N.d.d.d.d.d.d.d.d.d.d.d.d.d.d.d.d.d.d.d.d.d.d.d.d.X X X X X }.}.",
"d.d.d.d.d.d.d.d.6.6.6.6.6.6.6.6.6.6.6.6.6.6.6.6.6.d.d.d.N.N.N.N.N.N.d.d.d.d.d.d.d.d.d.d.6.6.6.d.d.d.d.d.d.d.d.d.d.d.X X X X X }.",
"d.d.d.d.d.d.d.6.6.6.6.6.6.6.6.6.6.6.6.6.6.6.6.6.6.N.N.N.N.N.N.N.N.N.N.N.N.N.6.6.6.d.d.6.6.6.6.6.d.d.d.d.d.d.d.d.d.d.d.d.X X X }.",
"d.d.d.d.d.6.6.6.6.6.6.d.d.d.d.d.6.6.6.6.6.6.6.6.6.6.6.6.N.N.N.N.N.N.N.N.N.6.6.6.6.6.6.6.d.d.6.6.6.d.d.d.d.d.d.6.d.d.d.d.d.X X }.",
"d.d.d.6.6.6.6.6.6.6.d.d.d.d.d.d.d.6.6.6.d.d.d.6.6.6.6.6.6.6.N.N.N.6.6.6.6.6.d.d.6.6.6.d.d.d.d.6.6.6.d.d.d.d.6.6.d.d.d.d.d.X X }.",
"6.d.d.d.d.d.d.d.d.d.d.d.d.d.d.d.d.6.6.d.d.d.d.f.c c c c c &.d.d.d.d.s.#.c c c c v g.z.d.d.z.z.z.z.d.d.d.d.6.6.6.6.d.d.d.d.X }.}.",
"6.6.6.6.d.d.d.d.d.d.d.d.d.d.d.d.d.d.d.z.l.z.f.v c o.o.o.v c :.d.l.z.&.c c G o.o.o.v o.g.f.v v c O.z.d.d.d.6.6.6.6.6.6.6.X X }.}.",
"d.d.d.d.d.d.d.d.d.d.d.d.d.d.d.d.d.d.l.o.c c c c #.s.s.x.h.v &.>.c c c c G f.s.s.s.+.c c c c o.o.o.O.z.d.6.6.6.6.d.d.d.X X X X }.",
"d.d.d.d.d.d.d.d.3.3.3.3.3.d.d.3.3.2.o.c O.O.o.o.s.x.x.x.c...x c c c c o.f.x.n.m.x.s.$.c c #.s.x.f.o.O.4.,.5.6.d.d.d.X X X X X X ",
"d.d.d.d.d.d.d.3.3.3.3.3.3.3.3.3.-.v c +.s.x.z.o.s.x.x.x.s.:.G =.=.;.x ..x.n.K.P.n.x.s.v o.s.x.x.c.h.c c c $.5.d.d.d.X X 6.6.X X ",
"d.d.d.d.d.3.3.3.N.N.N.N.3.-.-.C.O.c $.s.x.s...&.m.m.x.s.>.v V.T.!.1.o.f.m.K.Y.P.n.x.n.2.<.n.x.x.s.>.x c c c :.z.d.d.X 6.6.6.X X ",
"d.d.3.3.3.3.N.N.N.N.N.N.M.%.c c c c k.x.x.s.:.m.E.K.n.:.v V.T.P.T.1.} v.K.E.P.P.c.m.L.Y.Y.L.m.x.h.v #.#.#.o.c *.6.6.6.6.6.6.X X ",
"N.3.3.N.N.N.N.N.N.N.N.w.F c +.&.v c k.m.m.m.c.P.P.Y.Z.3.V.T.P.P.Y.V.j.F.E.P.P.P.S.L.P.P.P.Y.K.x.g.} c.c.c.h.o.+.5.6.6.6.6.X X }.",
"N.N.N.N.N.N.N.N.N.N.[ 1 r F z.c.} v >.H.E.P.D.P.P.P.Y.T.Y.P.P.P.P.Y.F.G.Y.P.P.P.E.P.P.P.P.Y.K.x.x.c.x.x.x.c.>.x <.6.6.X X X }.}.",
"d.d.d.d.d.d.N.N.6.[ 1 X   6 p.c.c.} 1.J.Y.P.E.P.P.P.P.P.Y.E.P.P.P.E.E.P.P.P.E.P.P.P.P.P.Y.P.S.x.x.x.x.x.x.c.>.x r X X X X X }.}.",
"d.d.d.d.d.d.d.d.8.< . ; 7 - < i.x.c.D.D.P.E.E.E.P.P.P.E.K.F.E.P.E.G.K.E.P.P.F.L.E.E.E.E.P.S.x.x.x.c.c.c.c.f.+.$.g.X X X X }.}.}.",
"d.d.d.d.d.d.d.d.V X ; Y y.0 8 t.x.x.x.x.S.S.S.D.E.E.K.S.m.c.G.E.G.n.m.K.P.P.F.S.S.S.S.S.A.x.x.v.i.8 8 W g.+.d T d.d.X X X X X }.",
"N.N.N.d.d.t.5 8 < . 7 y. .u.x.x.x.x.x.x.u.s.x.x.A.S.m.s.x.x.n.S.m.s.m.K.P.P.E.F.D.x.x.x.x.x.i.5 <     : B f & > 8.d.X X X X X X ",
"N.N.N.N.t.< X X X . 5 y. .p.x.x.x.x.u.u.p.x.x.x.x.x.x.x.x.x.x.x.x.x.F.E.P.P.P.E.P.c.x.x.x.x.p.V C C 6   & & O X , X X d.d.X X X ",
"N.N.N.b.3 X & s s r = V | p.x.x.x.x.a.e.s.x.x.x.x.s.u.p.x.x.x.x.x.x.m.K.E.P.P.P.P.c.x.x.x.x.x.c.c.c.p.6 . < m ; . X 8.d.d.d.X X ",
"d.d.d.w.X & j v v l e = q y.s.x.x.x.x.r.u.x.x.s.u.r. . .p.x.x.x.x.x.x.m.K.E.Y.P.m.x.x.x.x.x.x.x.x.x.c.C   7 y.Y ; . > t.d.d.X X ",
"d.d.d.8.X w v c c v k d K  .y.s.x.x.u. . .r.r.r. . . . .u.x.x.x.x.x.p.a.m.m.m.m.x.x.x.x.x.x.x.x.x.x.c.q , (  .| Y ; X Q d.X X }.",
"d.d.d.8.X w v c c c c c ]  . .y.r.r. . . . . . .y.s.s.s.p.u.x.x.x.p. .p.x.x.x.x.x.x.s.u.x.x.x.x.x.x.x.t.(  . . .y.< X X X X }.}.",
"d.d.d.8.X w c v s & & b  . . . . . . . .s.s. .e.s.x.x.x.x.p.y.y.r. . .e.s.x.x.x.x.x.s. .y.r.u.x.x.x.a.r. . . .| 5 @ X X X }.}.}.",
"d.d.d.9.X X y s $ X 4 ~  . . . . . . .s.x.x.s.s.x.x.x.x.x.p. . . .u.s.r.e.y.s.x.x.x.s. .y.s.s.x.s.r.e. . . . .P l w X X & '.}.}.",
"6.6.[ - X X + $ . 2 ~  . . . . . . . .s.x.x.x.x.x.x.x.x.x.x.s.u. .p.x.s.r. .s.x.x.s.r.e.s.x.x.x.a. . . . . .e.@.c l w X X _.}.}.",
"6.{ - X X $ $ # . 4  . .~ ! ! / /  . .e.s.s.x.x.x.x.s.x.x.x.x.x.u.p.x.x.x.r. .s.s.r. .e.s.x.x.x.a. . . . . . .@.c c x & X _.}.}.",
"d.u.@ X w l x a + X 5 ~ 4 @ % h v ^  . . .y.s.x.x.a.u.x.x.x.x.x.u. .p.s.s.r. . . . . . .y.s.s.a. . . . ./ / L c c c v * X X }.}.",
"d.t.o & x c c c a + o @ o $ s c c `  . . . .r.s.s. .r.s.x.x.x.s.u. . . . . . . . . . . . . . . . . . .] c v c c c c l & X X {.}.",
"s.U o & c c c c v a % & + u c c c c ` ^  . . . . . . .r.s.s.u. . . . . . . . . . . . . . . . . . . . ._ v c c c l k * X X X [.}.",
"s.U o & k c c c c c c v u X i x c c o.o./  . . . . . . . . . . . . . . . . . .^  . . . . . . . . . . . .] v c l w X X X X X ^.[.",
"p.U : X & h k v c c c c v u & h c c ^  . . . . . . . . . . . .^ /  . . . . .^ G ^  . . . .^  . . . . . .e.P c i # X X X X ^./.{.",
"E E U : X X & j c c c c c c c c c c ^  . . . . .'  . . . . ./ X.X./  . . .^ G o./  . . .^ o. . . . . . ./ @.c v i $ X X x ^.`.}.",
"S S Q N X X $ i v c c c c c c c c c ]  . . . .] o. . . . ./ P X.z @.` _ _ o.c ^  . . . .^ o. . . . . .e.I c c c v u $ X X ^.^.`.",
"D D S N X $ p v c c v c c c c c c c c I _ _ / X.o. . . .e.] @.e._ X.z o.X.v c P  . . ._ I z `  . . .e.^ B j v c c v w X X ^.~.~.",
"3.b.0.N X w J c v j p j c c c c c c c c c @. .^ z ` e.e./ X.@. . .e.] ^ r.P v c P ] I c c c z ] ] ] _ B w t v c c v w X X ^.^.).",
"B.7.0.Z X & f H k r O u v c c c c c c c v  . .^ c z I ] @.x L e. . .e.` ^ e.o.c c c c c c c c c c j i w O i v c v f & X X ^.^.[.",
"N.b.0.q.3 X % p r . * h v c c c c c c c c P / L c c c c c c o.'  . .e.X.X.P z c c c c c c c c c c j y t * * j J f % X X X ^._.{.",
"N.B.7.0.R < X X X X u J c c c c v c c c c c @.c c c c c c c c o.' r.` o.c c c c c c c c c c v c c c v J p O * u & X X X ^.~.[.}.",
"N.N.t.E Q U 5 5 X X & h v v c c p k c c c c c c c c c c c c c c o.L o.c c c c c c c c c c l p v c c v h * X X X X X X ^.~.'.{.}.",
"d.d.s.t.E E Q ) ) X X & y r j H * j v c c c c c c c c v c c c c c c c c c c c c c c c c c k $ i v v j & X , 8 8 X X ~.~.'.{.}.}.",
"d.d.d.s.X [ K K K M X X X . * r $ w l c c c c c c v j i v c c c c v p f c c c c c c c v l r X $ r r & X X 6 Q Q E X X `.{.}.}.}.",
"d.d.d.d.X 5.[ K K ) M X X X : X X X w l c c c c v k & $ p v v v v a $ s v c c c c c x r * X X X X X X > 9 C Q E E X X }.}.}.}.}.",
"d.d.d.d.X 6.5.} [ K K X X X M 0 0 0 0 T l c c l w & X X $ w w w w % X & h v c c c c c s X X X X X X 0 C Q Q E t.p.X X }.}.}.}.}.",
"d.d.d.d.X X 6.6.5.5.X X X X K Q Q Q Q X & * * & b b n X X X X X X X X X & * * k c x w * X X X X X X Q Q E t.a.s.X X X }.}.}.}.}.",
"d.d.d.d.X X X X X X X X X X X E E E X X X ~.X X X X X X X X X V V V V V X X X & & & ~.~.~.~.^.X X X X 8.a.s.d.X X X }.}.}.}.}.}.",
"d.d.d.X X X X X X X X }.X X X X X X X X ~./.[.[.X X X ^.X X X X Q Q Q X X X ^.^.~.~.~.~.~.^.^.(.}.X X X X X X X X }.}.}.}.}.}.}.",
"d.d.X X X }.}.}.}.}.}.}.}.X X X X X X /./.[.}.[.^.~.~.~.).X X X X X X X X X ].[./.^.^.^./.[.[.{.}.}.}.X X X X X }.}.}.}.}.}.}.}.",
"X X X X }.}.}.}.}.}.}.}.}.}.}.}.}.}.}.{.{.}.}.[.^.~.~.).`.^.X X X X X X X `.}.}.{.[.[.[.{.}.}.}.}.}.}.}.}.}.}.}.}.}.}.}.}.}.}.}."
};
