/* XPM */
static const char *bot_5[] = {
/* columns rows colors chars-per-pixel */
"64 64 195 2 ",
"   c #0B0F2C",
".  c #0E122C",
"X  c #13162B",
"o  c #161C2E",
"O  c #181E2E",
"+  c #121227",
"@  c #171F30",
"#  c #1C232F",
"$  c #172031",
"%  c #192333",
"&  c #1B2C3A",
"*  c #192839",
"=  c #1E323E",
"-  c #21292F",
";  c #202830",
":  c #2C3633",
">  c #2B3938",
",  c #323D35",
"<  c #353A34",
"1  c #344335",
"2  c #3D4A37",
"3  c #3E4238",
"4  c #384235",
"5  c #424A38",
"6  c #435339",
"7  c #465A3A",
"8  c #4C5C3B",
"9  c #4F523D",
"0  c #57593F",
"q  c #4D633B",
"w  c #53633C",
"e  c #5C6C3E",
"r  c #57693D",
"t  c #5E713F",
"y  c #5E793F",
"u  c #63753F",
"i  c #1F3541",
"p  c #1F3A46",
"a  c #213A44",
"s  c #213E48",
"d  c #22424B",
"f  c #26484E",
"g  c #274C51",
"h  c #284F53",
"j  c #295255",
"k  c #2C5B5C",
"l  c #295559",
"z  c #33635E",
"x  c #2E6262",
"c  c #306664",
"v  c #316967",
"b  c #326C69",
"n  c #34726D",
"m  c #3F7E6E",
"M  c #357671",
"N  c #377A73",
"B  c #397C73",
"V  c #2E7575",
"C  c #405C43",
"Z  c #5A5C40",
"A  c #4D6B49",
"S  c #5E6041",
"D  c #5E7940",
"F  c #476358",
"G  c #416B59",
"H  c #4E7D5A",
"J  c #46735C",
"K  c #517D5B",
"L  c #617540",
"P  c #667A41",
"I  c #6B7C41",
"U  c #7B7B48",
"Y  c #636542",
"T  c #407F6E",
"R  c #4F7B65",
"E  c #517261",
"W  c #597C68",
"Q  c #417F73",
"!  c #398077",
"~  c #398178",
"^  c #5E8354",
"/  c #55815B",
"(  c #5B8E5D",
")  c #568B5F",
"_  c #5F905A",
"`  c #6E8443",
"'  c #6D8D43",
"]  c #69874C",
"[  c #768E45",
"{  c #7A8F44",
"}  c #739444",
"|  c #7A9246",
" . c #749C4C",
".. c #789E4A",
"X. c #799C46",
"o. c #648A57",
"O. c #659456",
"+. c #6A9653",
"@. c #6E9851",
"#. c #619159",
"$. c #6A925B",
"%. c #6E9A5F",
"&. c #679858",
"*. c #769E5B",
"=. c #7DA147",
"-. c #7BA148",
";. c #7DA259",
":. c #4B8566",
">. c #44826D",
",. c #4B856C",
"<. c #4F8B6D",
"1. c #528963",
"2. c #598E66",
"3. c #538A6A",
"4. c #5A9066",
"5. c #448272",
"6. c #578C70",
"7. c #5F8D75",
"8. c #629463",
"9. c #6C9E65",
"0. c #679568",
"q. c #749D6E",
"w. c #638E74",
"e. c #679175",
"r. c #6A9770",
"t. c #6FA165",
"y. c #79A863",
"u. c #74A464",
"i. c #85844B",
"p. c #8E8D4E",
"a. c #918F4E",
"s. c #839C48",
"d. c #93914F",
"f. c #809D50",
"g. c #9B9851",
"h. c #81A346",
"j. c #83A548",
"k. c #89A349",
"l. c #83A848",
"z. c #8CAA49",
"x. c #91A549",
"c. c #92AD4A",
"v. c #96B14B",
"b. c #9CB54C",
"n. c #9BB94E",
"m. c #85A756",
"M. c #86AB56",
"N. c #8AAC55",
"B. c #8BAE58",
"V. c #80A458",
"C. c #93AF51",
"Z. c #8FB253",
"A. c #93B351",
"S. c #A1B74C",
"D. c #A3B94C",
"F. c #A9BE4D",
"G. c #A6A354",
"H. c #A9A958",
"J. c #A7BA50",
"K. c #ABBD53",
"L. c #A0B654",
"P. c #B0BF57",
"I. c #BAB65A",
"U. c #BFBA5B",
"Y. c #B0BF58",
"T. c #B0AC57",
"R. c #8DAB6C",
"E. c #98A862",
"W. c #ABBC6A",
"Q. c #B1C057",
"!. c #B6C35A",
"~. c #B3C159",
"^. c #BAC55D",
"/. c #BDC760",
"(. c #BFC761",
"). c #BFC862",
"_. c #C5CB66",
"`. c #C7CC67",
"'. c #C6CC67",
"]. c #C4CB65",
"[. c #C9CD67",
"{. c #CCCF67",
"}. c #C8CD68",
"|. c #C8CD68",
" X c #CACE69",
".X c #C8CD68",
"XX c #C0C869",
"oX c #CED066",
"OX c #3A8487",
"+X c #3A8688",
"@X c #3C8A8C",
"#X c #439F9E",
"$X c #46A7A5",
"%X c #46A8A6",
"&X c #47ABA9",
/* pixels */
"n.n.n.n.n.U.U.U.U.U.U.U.U.U.U.y.y.y.y.y.y.y.y.y.y.y.y.y.y.y.y.y.y.y.y.y.y.y.y.y.y.y.y.y.y.y.y.y.y.y.y.y.y.y.y.y.y.y.y.y.y.y.y.y.",
"n.n.n.n.n.n.U.U.U.U.U.U.n.y.y.y.n.n.n.y.y.y.y.y.y.y.y.y.y.y.y.y.y.y.y.y.y.y.y.y.e.e.e.e.y.y.y.y.y.y.y.y.y.y.y.y.y.y.y.y.y.n.n.n.",
"n.n.U.U.U.U.U.U.U.U.U.n.n.n.n.n.n.n.n.n.n.n.n.y.y.y.y.y.y.y.y.y.y.y.y.y.y.y.y.e.e.e.e.e.e.n.n.n.n.n.n.n.n.e.e.e.e.y.y.y.n.n.n.n.",
"U.U.U.U.U.U.U.U.U.U.U.n.n.n.n.n.n.n.y.y.y.y.y.y.y.y.y.y.y.y.y.y.y.y.y.e.e.e.y.e.e.e.e.e.e.e.e.e.e.e.n.n.e.e.e.e.e.e.e.y.n.n.n.n.",
"U.U.U.U.U.U.U.U.U.U.n.n.n.n.n.n.n.n.n.n.y.y.y.y.y.y.y.y.y.y.y.y.y.y.e.e.e.e.e.e.e.e.e.e.e.e.e.e.e.e.e.e.e.U.U.U.e.e.e.e.n.n.n.U.",
"n.n.n.n.n.U.U.U.U.U.n.n.n.n.n.n.n.n.n.n.n.n.y.y.y.y.y.y.y.y.y.y.y.e.e.e.e.e.U.U.U.U.e.e.e.e.U.U.U.U.e.e.U.U.U.U.U.e.e.e.e.U.U.U.",
"n.n.n.n.n.n.U.U.U.U.U.n.U.U.n.n.n.n.n.n.n.n.n.n.n.n.y.y.y.y.y.y.y.e.e.e.U.U.U.U.U.U.U.e.e.U.U.U.U.U.U.U.U.U.U.U.U.U.U.U.U.U.n.n.",
"n.n.n.n.n.n.n.n.U.U.U.U.U.U.U.n.n.n.n.n.n.n.n.n.n.n.y.y.y.y.y.e.e.e.e.U.U.U.U.U.U.U.U.e.U.U.U.U.U.U.U.U.U.U.U.U.U.U.U.U.U.U.n.n.",
"U.U.n.n.n.n.n.n.n.U.U.U.n.n.n.U.n.n.n.n.n.n.n.n.n.n.n.U.U.U.U.U.U.e.U.U.U.U.U.U.U.U.U.U.U.U.U.U.U.U.U.U.U.U.U.U.U.U.U.U.U.U.n.U.",
"U.U.U.n.n.n.n.n.n.n.n.n.n.n.n.n.n.n.n.n.n.n.n.n.n.n.U.U.n.n.U.U.U.U.U.U.U.U.U.U.U.U.U.U.U.U.U.U.U.U.U.U.U.U.U.U.U.U.U.U.U.U.U.U.",
"U.U.U.n.n.n.U.U.n.n.n.n.n.n.n.n.n.n.n.n.n.n.n.n.n.n.U.n.n.n.n.U.U.U.U.U.U.U.U.n.n.n.U.U.U.U.U.n.n.U.U.U.U.n.n.U.U.U.U.U.U.U.U.U.",
"U.U.U.n.n.U.U.U.U.U.n.n.n.n.n.n.n.n.n.n.n.n.n.n.n.n.n.n.n.n.n.n.n.n.n.U.U.U.n.n.n.n.n.U.U.n.n.n.n.n.n.U.n.n.n.n.U.U.U.U.U.U.U.U.",
"U.U.U.U.U.U.U.U.U.U.U.U.U.U.U.U.U.U.U.n.n.n.n.n.n.n.n.n.n.n.n.n.n.n.n.n.U.U.n.n.n.n.n.U.n.n.n.n.n.n.n.n.n.n.n.n.U.U.U.U.U.U.U.U.",
"U.U.U.U.U.U.U.U.U.n.n.n.n.n.n.n.n.n.n.n.n.n.n.n.n.n.n.n.n.n.n.n.n.n.n.n.n.n.n.n.n.n.n.U.n.n.n.n.n.n.n.n.n.n.n.n.U.U.U.U.U.n.n.n.",
"n.n.n.n.n.n.n.n.n.n.n.n.y.y.y.y.y.y.n.n.n.n.n.n.n.n.n.n.n.n.n.n.n.n.n.n.n.n.n.n.n.n.n.n.n.n.n.n.n.n.n.n.n.n.n.n.n.n.n.n.n.n.n.n.",
"n.n.n.n.n.n.n.n.n.n.y.y.y.y.y.y.y.y.y.n.y.y.y.y.n.n.n.n.n.n.U.U.U.n.n.n.n.n.n.n.n.n.n.n.n.n.n.n.n.n.n.n.n.n.n.n.n.n.n.n.n.n.n.n.",
"n.n.n.n.n.n.n.n.y.y.y.y.y.y.y.y.y.y.y.y.y.y.y.y.y.n.n.n.U.U.U.U.U.U.n.n.n.n.n.n.n.n.n.n.y.y.y.n.n.n.n.n.n.n.n.n.n.n.n.n.n.n.n.n.",
"n.n.n.n.n.n.n.y.y.y.y.y.y.y.y.y.y.y.y.y.y.y.y.y.y.U.U.U.U.U.U.U.U.U.U.U.U.U.y.y.y.n.n.y.y.y.y.y.n.n.n.n.n.n.n.n.n.n.n.n.n.n.n.n.",
"n.n.n.n.n.y.y.y.y.y.y.n.n.n.n.n.y.y.y.y.y.y.y.y.y.y.y.y.U.U.U.U.U.U.U.U.U.y.y.y.y.y.y.y.n.n.y.y.y.n.n.n.n.n.n.y.y.y.n.n.n.n.n.n.",
"n.n.n.y.y.y.y.y.y.y.n.n.n.n.n.n.n.y.y.y.n.n.n.y.y.y.y.y.y.y.U.U.U.y.y.y.y.y.n.n.y.y.y.n.n.n.n.y.y.y.n.n.n.n.y.y.y.y.y.n.n.n.y.y.",
"y.n.n.n.n.n.n.n.n.n.n.n.n.n.n.n.n.y.y.n.n.n.N.B N N N N 2.n.n.n.n.n.4.N N N N N M.A.n.n.A.A.A.A.n.n.n.n.n.y.y.y.y.y.y.y.y.y.y.y.",
"y.y.y.y.n.n.n.n.n.n.n.n.n.n.n.n.n.n.A.A.A.N.B N >.>.>.B N 8.n.Z.A.8.N N B >.>.>.B B N.N.B B N >.u.n.n.n.n.y.y.y.y.y.y.y.y.y.y.y.",
"n.n.n.n.n.n.n.n.n.n.n.n.n.n.n.n.n.Z.>.N N N N 3.b.b.S.m.B 4.9.N N N N B m.S.b.b.3.N N N N >.>.>.>.u.n.n.y.y.y.y.n.n.n.y.y.y.y.y.",
"n.n.n.n.n.n.n.n.e.e.e.e.e.n.n.e.w.B N >.>.>.>.b.S.S.S.D.;.N N N N N >.m.D.J.J.S.b.3.N N 3.b.D.M.N >.t.9.u.y.y.n.n.n.n.n.n.n.n.n.",
"n.n.n.n.n.n.n.e.e.e.e.e.e.e.e.e.Q N ,.A.S.v.2.N.S.S.S.D.;.M 5.6.6.Q 8.b.S./.[.K.S.b.3.T b.S.S.N.,.>.N N <.9.9.A.n.n.n.n.n.n.n.n.",
"n.n.n.n.n.e.e.e.U.U.U.U.e.e.7.E.,.N C.D.S.S.A.>.S.K.J.D.;.V q.oX{.R.B ;.D./.[.[.K.S.b.0.K.K.J.S.D.V.M N N N N 8.A.n.n.n.n.n.n.n.",
"n.n.e.e.e.e.U.U.U.U.U.U.U.H.3.N N N *.b.S.S.v.8.Y.}.].L.8.Q R.[.`.oXr.*.K.].[.`.`.D.K.[.}.}.].K.D.;.B 2.2.2.>.N 0.y.y.y.y.n.n.n.",
"U.e.e.U.U.U.U.U.U.U.U.U.U.0.N 3.2.B N A.K.K.K.F.`.`.[.W.e.R.{.`.`.[.R.N.^.}.`.`.`.~._.`.`.`.[./.D.N.*.D.D.D.;.>.3.u.y.y.y.y.y.y.",
"U.U.U.U.U.U.U.U.U.U.y.y.o.R 3.C.D.%.B %.].}._.!.`.`.`.[.{.[.`.`.`.`.[.!.(.`.`.`.`.}.`.`.`.`.[./.S.D.D.S.S.S.D.8.N E.U.U.U.U.U.U.",
"n.n.n.n.n.n.U.U.y.y.y.o.> p f.F.D.D.%.q.XX`.`.}.`.`.`.`.`.`.[.`.`.`.[.}.`.`.`.}.`.`.`.`.`.`._.Q.S.S.S.S.S.S.D.8.N E.U.U.U.U.U.U.",
"n.n.n.n.n.n.n.n.n.n.| 1 o . 5 e x.D.D.!.!.`.}.}.}.`.`.`.}.].^.}.`.}.^.].}.`.`.!._.}.}.}.}._.Q.S.S.D.F.F.D.D.B.G K Z.n.n.n.n.n.n.",
"n.n.n.n.n.n.n.n.n.| , X 1 q 7 w x.D.S.S.S.~.~.~.!.}.}.].~.K.J./.}./.J.K.].`.`.!.~.~.~.~.~.P.S.D.F.k.w w { B.G * 2 k.n.n.n.n.n.n.",
"U.U.U.n.n.n.n.n.n.L X 1 ' j.z.D.D.S.D.S.z.b.S.S.D.~.~.K.b.S.S.J.~.J.b.K.].`.`.}.^.!.S.b.S.S.D.k.8 4   . : J d X o 2 k.n.n.n.n.U.",
"U.U.U.U.n.n.s.7 8 , 1 ' =.z.b.S.S.S.z.z.c.S.S.S.S.S.S.S.S.S.S.S.S.S.K._.}.`.`.`.}.`.D.S.S.S.D.x.u P I 6 . * C , X o [ n.n.n.U.U.",
"U.U.U.U.G.9 3 o o X q l.-.v.D.S.S.S.j.c.S.S.S.D.b.z.z.D.S.S.S.S.S.S.^.}.`.`.`.}.`.P.S.S.S.S.S.D.D.D.F.x.5 1 } ' : X 3 G.U.U.U.U.",
"n.n.n.H.3 o & x x s - y j.j.b.D.S.S.j.z.b.D.b.z.j.=.=.z.S.S.S.S.S.S.J.(.}.}.}.Q.K.S.S.S.S.S.S.S.S.S.S.F.e 7 j.j.' : o | U.U.U.U.",
"n.n.n.s.o & b B B n a # y =.j.b.D.z.=.=.j.j.j.=.=.=.=.j.D.S.S.S.D.c.v.J.K.K.K.D.S.S.S.S.S.S.S.S.S.S.S.F.e 7 j.=.l.4 X | n.n.U.n.",
"n.n.n.s.o i B N N N n x ^ =.=.j.j.=.=.=.=.=.=.h.b.b.b.c.z.S.S.D.c.=.c.S.S.S.S.S.S.b.z.b.S.S.S.S.S.S.D.v.} } =.h.8 # o : k.n.n.n.",
"n.n.n.s.o i B N N N N N #.=.=.=.=.=.=.v.b.=.h.b.S.S.S.S.c.j.j.j.h.=.h.v.S.S.S.S.S.b.h.j.j.z.S.S.S.v.j.h.=.=.=.) n i o o : k.n.n.",
"n.n.n.s.o i N N k * * A -.=.=.=.=.=.v.S.S.b.b.S.S.S.S.D.v.=.=.-.z.b.z.h.j.b.S.S.S.b.h.h.b.b.S.b.j.h.=.=.=.=.h.1.N n = o o $.y.n.",
"y.y.y.o.o o d k @ o 7 X.=.=.=.=.=.=.b.S.S.S.S.S.S.S.S.S.S.b.c.=.c.D.b.z.=.v.S.S.b.j.h.b.S.S.S.b.=.=.=.=.=.=.=.1.N N n & o $.y.y.",
"y.y.o.% o o @ % X 2 =.=.=.=.=.=.=.=.h.b.b.S.S.S.S.b.S.S.S.S.S.z.z.S.S.S.j.=.b.b.j.=.h.b.S.S.S.v.=.=.=.-...-.) N N N B = o $.y.y.",
"n.z.; o o * * % X 6 =.=.=.X.}  .-.=.=.=.h.b.S.S.b.j.S.S.S.S.D.c.=.c.b.b.j.=.=.=.=.=.=.j.b.b.b.=.=.=.=.#.N B N N N N M & o $.n.n.",
"n.k.O o a M N k $ o 7 } } 2 % c +.=.=.=.=.h.b.b.=.j.b.b.S.S.S.z.=.=.=.=.=.=.=.=.=.=.=.=.=.=.=.=.=.=.=.O.N N N N n n i o ; ` n.n.",
"n.` O & N N N B k % o O O % k N N O. . .-.=.=.=.=.=.=.j.b.b.z.=.=.=.=.=.=.=.=.=.=.=.=.=.=.=.=.=.=.=.=.=.#.B N n a o o ; P | c.n.",
"n.` O & N N N N B l * % X g M N N N N >...=.=.=.=.=.=.=.=.=.=.....=.=.=.=.=.=. .-.=.=.=.=.=.=.=.=.=.=.=.=.) N g @ o o Y p.d.d.I.",
"c.` O * b B N N N N B j % X g n N N >...=.=.=.=.=.=.=.=.=.=...1.1...=.=.=. .@.T  .=.=.=.-. .=.=.=.=.=.=...1.N B g @ o o U d.g.I.",
"[ ` : o * x v B N N N B j = = c N N  .=.=.=.=.-.@.=.=.=.=...) :.B 1.@.+.+.>.N >...=.=.=. .>.=.=.=.=.=.h._ N N N B g % o U d.T.n.",
"E E ` > o X & v N N N N N B B N N N #.=.=.=.-.#.>.=.=.=.h.#.1.h.O.:.B >.:.B N  .=.=.=.=. .>.=.=.=.=.h.-.H b N N N B i o U | [ z.",
"W W E F o o % j B N N N N N N N N N N _ O.O...:.>.=.=.=...1.1.=.=.h.#.@.h.) B ( -.=.=.O._ m +.=.h. .&.H p f B N N B i o P | [ E ",
"e.H.d.F o * j B N N B B N N N N N N N N N 1.-. .m +.h...1.M ) h.=.=.=.+...h.>.N ( #._ N N N m #.#.H l p + g B N B x * o P | [ W ",
"I.a.d.U o i ~ N B v h c N N N N N N N N B -.=. .N m #.1.N N >.@.=.=.h.:.1.#.T N N N N N N N N N N x d d = i b ! x * o 3 i.E E w.",
"U.G.d.U o * k ! b i + g B N N N N N N N N ( ..) N N N N N N N >. .h.+.>.N N N N N N N N N N N N N N B ~ j X i j * o 5 i.d.d.G.U.",
"U.I.d.i.2 o * g i X = c N N N N N N N N N N 1.N N N N N N N N N >.) >.N N N N N N N N N N N B N N N B v = o o o 3 0 i.d.a.a.I.U.",
"U.U.k.[ [ 2 o o o o g ~ N N N N B N N N N N N N N N N N N N N N N N N N N N N N N N N N N n j B N B v = o < S Z i.| [ [ a.H.U.U.",
"n.n.n.k.[ ` w w w 1 * x B B B B h b N N N N N N N N N B B N N N N B l c N N N N N N N N N b % h B v = o o 0 g.d.o [ [ [ k.U.U.U.",
"n.n.n.n.z.k.| | | 8 o & s s s s % v B N N N N N N B b a j B B B B k % k B N N N N N N B n a o % s = o , r U d.o o [ k.z.n.n.n.n.",
"n.n.n.n.o n.k.[ [ o o o o o o o o = n N N N N N B b = X * a a a a * o & v B N N N N M a = o o o o : e P d.d.d.o [ k.n.n.n.n.n.n.",
"n.n.n.n.o n.n.c.k.o o t t t t t t t K / N N N n i & o o o o o o o o o o & = b N N N N z e t t t o U d.d.d.a.o o c.n.n.n.n.n.n.n.",
"n.n.n.n.o n.n.n.n.o o | | | | | o o ^ ^ / / = ] u u L A A o o o o o o o u u > b N M i = | | | o o o a.a.a.o o o n.n.n.n.n.o n.n.",
"n.n.n.o o o n.n.o o o v.s.[ [ [ o o ^ ^ ^ ^ o c.| | | | o o o +X+X+Xo o o | I ] & & OXo o o o o o o o o o o o o n.n.n.n.o o n.n.",
"n.n.o o o o o o o o o o n.v.v.o o o o ^ ^ o o o [ [ [ o o o o OXOXOXOXo o o o o o o OXOXo o o o &Xo o o o o o o o n.n.o o o n.n.",
"n.o o &X&X&Xo o o o o o o o o o o o o o o o o o o o o o o o OXOXOXOXOXOXo o o o o +X+X+X@X$X$X%X&X&Xo o o o &Xo o o o o o o o n.",
"o o &X&X&X&X&X&X&Xo o o o o o o &X&Xo o o &Xo o o o o o o +XOXOXOXOXOXOXOX#X&X&X%X$X%X%X%X&X&X&X&X&X&X&X&X&X&X&Xo o o o o &Xo o "
};
