/* XPM */
static const char *bot_left2[] = {
/* columns rows colors chars-per-pixel */
"64 64 187 2 ",
"   c #0D112C",
".  c #12162B",
"X  c #161C2E",
"o  c #191F2E",
"O  c #121227",
"+  c #171F30",
"@  c #1C232E",
"#  c #172031",
"$  c #182333",
"%  c #1A2836",
"&  c #1B2C3A",
"*  c #1E323E",
"=  c #21292F",
"-  c #242C33",
";  c #2D3834",
":  c #333E35",
">  c #313535",
",  c #364336",
"<  c #394536",
"1  c #3B4537",
"2  c #43463A",
"3  c #424938",
"4  c #405238",
"5  c #465A3A",
"6  c #4D5D3B",
"7  c #4A5639",
"8  c #4C613B",
"9  c #53633C",
"0  c #5B6D3E",
"q  c #5E713F",
"w  c #5E793F",
"e  c #66743F",
"r  c #1F3541",
"t  c #213C46",
"y  c #203742",
"u  c #26484E",
"i  c #23424A",
"p  c #274D52",
"a  c #284E53",
"s  c #295155",
"d  c #2A5659",
"f  c #2C5C5D",
"g  c #3E5543",
"h  c #33635E",
"j  c #2A5E61",
"k  c #2E6162",
"l  c #2F6868",
"z  c #306764",
"x  c #316966",
"c  c #326D69",
"v  c #35736E",
"b  c #3E7E6F",
"n  c #357672",
"m  c #377A73",
"M  c #397C74",
"N  c #367B7F",
"B  c #2E7575",
"V  c #506F4D",
"C  c #5E7940",
"Z  c #51704D",
"A  c #49775A",
"S  c #53734B",
"D  c #626342",
"F  c #6A7C41",
"G  c #657A41",
"H  c #7B7B49",
"J  c #407B69",
"K  c #517261",
"L  c #597D68",
"P  c #407F72",
"I  c #398178",
"U  c #5F8454",
"Y  c #578C5F",
"T  c #5B8E5C",
"R  c #5F905A",
"E  c #6C8242",
"W  c #6D8D48",
"Q  c #778E45",
"!  c #798E44",
"~  c #739445",
"^  c #799145",
"/  c #749C4C",
"(  c #799F4A",
")  c #799C46",
"_  c #658B56",
"`  c #669455",
"'  c #699654",
"]  c #6E9950",
"[  c #629259",
"{  c #6A935B",
"}  c #6D995F",
"|  c #729C5D",
" . c #7B9850",
".. c #7DA147",
"X. c #7CA148",
"o. c #7BA15A",
"O. c #4D8665",
"+. c #44826D",
"@. c #49856D",
"#. c #4E8A6C",
"$. c #528963",
"%. c #588D67",
"&. c #538B69",
"*. c #56896E",
"=. c #5C9165",
"-. c #5F9669",
";. c #578C70",
":. c #458272",
">. c #629463",
",. c #689661",
"<. c #6C9C63",
"1. c #68956C",
"2. c #719B6F",
"3. c #628E74",
"4. c #679175",
"5. c #6FA166",
"6. c #79A863",
"7. c #73A464",
"8. c #8A884C",
"9. c #918F4E",
"0. c #829C48",
"q. c #93914F",
"w. c #9C9A51",
"e. c #A09D53",
"r. c #81A346",
"t. c #84A548",
"y. c #8AA249",
"u. c #8CAA49",
"i. c #83A949",
"p. c #90A448",
"a. c #92AD4A",
"s. c #96B14B",
"d. c #9CB44C",
"f. c #9BB94E",
"g. c #84A657",
"h. c #86AB56",
"j. c #8BAD54",
"k. c #83A658",
"l. c #91AE52",
"z. c #8FB252",
"x. c #93B351",
"c. c #A1B74C",
"v. c #A3B94C",
"b. c #A5A254",
"n. c #A7BA50",
"m. c #ABBD53",
"M. c #AAB05F",
"N. c #A2B754",
"B. c #BBB65A",
"V. c #BFBA5B",
"C. c #B0AC57",
"Z. c #8CAA6C",
"A. c #8FA363",
"S. c #97AC66",
"D. c #AFBE6A",
"F. c #AAC04C",
"G. c #B2C057",
"H. c #B3C159",
"J. c #BAC55D",
"K. c #BEC761",
"L. c #BEC765",
"P. c #C1C963",
"I. c #C5CB66",
"U. c #C7CC67",
"Y. c #C6CC67",
"T. c #C7CC67",
"R. c #C9CD67",
"E. c #CCCF67",
"W. c #C8CD68",
"Q. c #C8CD68",
"!. c #CACE69",
"~. c #C8CD68",
"^. c #CED066",
"/. c #377D81",
"(. c #3A8487",
"). c #3A8588",
"_. c #3B898B",
"`. c #3D8E90",
"'. c #3F9394",
"]. c #409697",
"[. c #429C9C",
"{. c #409798",
"}. c #43A09F",
"|. c #45A6A5",
" X c #46A8A7",
".X c #47ABA9",
"XX c #47ABA9",
/* pixels */
"X X f.f.f.f.f.f.X X V.V.V.V.V.6.6.6.6.6.6.6.6.6.6.6.6.6.6.6.6.6.6.6.6.6.6.6.6.6.6.6.6.6.6.6.6.6.6.6.6.6.6.6.6.6.6.6.6.6.6.6.6.6.",
".XX X X X X X X X V.V.V.f.6.6.6.f.f.f.6.6.6.6.6.6.6.6.6.6.6.6.6.6.6.6.6.6.6.6.6.4.4.4.4.6.6.6.6.6.6.6.6.6.6.6.6.6.6.6.6.6.f.f.f.",
".X.XX X X X X X X V.V.f.f.f.f.f.f.f.f.f.f.f.f.6.6.6.6.6.6.6.6.6.6.6.6.6.6.6.6.4.4.4.4.4.4.f.f.f.f.f.f.f.f.4.4.4.4.6.6.6.f.f.f.f.",
".XX X X X X X X X V.V.f.f.f.f.f.f.f.6.6.6.6.6.6.6.6.6.6.6.6.6.6.6.6.6.4.4.4.6.4.4.4.4.4.4.4.4.4.4.4.f.f.4.4.4.4.4.4.4.6.f.f.f.f.",
"X X X 6.6.6.6.X X V.f.f.f.f.f.f.f.f.f.f.6.6.6.6.6.6.6.6.6.6.6.6.6.6.4.4.4.4.4.4.4.4.4.4.4.4.4.4.4.4.4.4.4.V.V.V.4.4.4.4.f.f.f.V.",
"X X 6.6.6.6.6.X X X f.f.f.f.f.f.f.f.f.f.f.f.6.6.6.6.6.6.6.6.6.6.6.4.4.4.4.4.V.V.V.V.4.4.4.4.V.V.V.V.4.4.V.V.V.V.V.4.4.4.4.V.V.V.",
"X X 6.6.6.6.6.6.X X X 6.6.6.f.f.f.f.f.f.f.f.f.f.f.f.6.6.6.6.6.6.6.4.4.4.V.V.V.V.V.V.V.4.4.V.V.V.V.V.V.V.V.V.V.V.V.V.V.V.V.V.f.f.",
"X X 6.6.6.6.6.6.6.6.6.6.6.6.f.f.f.f.f.f.f.f.f.f.f.f.6.6.6.6.6.4.4.4.4.V.V.V.V.V.V.V.V.4.V.V.V.V.V.V.V.V.V.V.V.V.V.V.V.V.V.V.f.f.",
"X X 6.6.6.6.6.f.f.f.f.6.6.6.6.6.6.f.f.f.f.f.f.f.f.f.f.V.V.V.V.V.V.4.V.V.V.V.V.V.V.V.V.V.V.V.V.V.V.V.V.V.V.V.V.V.V.V.V.V.V.V.f.V.",
"X X X 6.6.X f.f.f.f.f.f.f.f.f.f.f.f.f.f.f.f.f.f.f.f.V.V.f.f.V.V.V.V.V.V.V.V.V.V.V.V.V.V.V.V.V.V.V.V.V.V.V.V.V.V.V.V.V.V.V.V.V.V.",
"X X X X X X V.V.f.f.f.f.f.f.f.f.f.f.f.f.f.f.f.f.f.f.V.f.f.f.f.V.V.V.V.V.V.V.V.f.f.f.V.V.V.V.V.f.f.V.V.V.V.f.f.V.V.V.V.V.V.V.V.V.",
".XX X X X V.V.V.V.V.f.f.f.f.f.f.f.f.f.f.f.f.f.f.f.f.f.f.f.f.f.f.f.f.f.V.V.V.f.f.f.f.f.V.V.f.f.f.f.f.f.V.f.f.f.f.V.V.V.V.V.V.V.V.",
".XX X X f.f.V.V.V.V.V.V.V.V.V.V.V.V.V.f.f.f.f.f.f.f.f.f.f.f.f.f.f.f.f.f.V.V.f.f.f.f.f.V.f.f.f.f.f.f.f.f.f.f.f.f.V.V.V.V.V.V.V.V.",
"X X X f.f.f.V.V.V.f.f.f.f.f.f.f.f.f.f.f.f.f.f.f.f.f.f.f.f.f.f.f.f.f.f.f.f.f.f.f.f.f.f.V.f.f.f.f.f.f.f.f.f.f.f.f.V.V.V.V.V.f.f.f.",
"X X f.f.f.f.X f.f.f.f.f.6.6.6.6.6.6.f.f.f.f.f.f.f.f.f.f.f.f.f.f.f.f.f.f.f.f.f.f.f.f.f.f.f.f.f.f.f.f.f.f.f.f.f.f.f.f.f.f.f.f.f.f.",
"X X f.f.f.X X f.f.f.6.6.6.6.6.6.6.6.6.f.6.6.6.6.f.f.f.f.f.f.V.V.V.f.f.f.f.f.f.f.f.f.f.f.f.f.f.f.f.f.f.f.f.f.f.f.f.f.f.f.f.f.f.f.",
"X X X f.X X X 6.6.6.6.6.6.6.6.6.6.6.6.6.6.6.6.6.6.f.f.f.V.V.V.V.V.V.f.f.f.f.f.f.f.f.f.f.6.6.6.f.f.f.f.f.f.f.f.f.f.f.f.f.f.f.f.f.",
".XX X X X X 6.6.6.6.6.6.6.6.6.6.6.6.6.6.6.6.6.6.6.V.V.V.V.V.V.V.V.V.V.V.V.V.6.6.6.f.f.6.6.6.6.6.f.f.f.f.f.f.f.f.f.f.f.f.f.f.f.f.",
".X.X.X.XX X 6.6.6.6.6.f.f.f.f.f.6.6.6.6.6.6.6.6.6.6.6.6.V.V.V.V.V.V.V.V.V.6.6.6.6.6.6.6.f.f.6.6.6.f.f.f.f.f.f.6.6.6.f.f.f.f.f.f.",
".X.X.X.XX X 6.6.6.f.f.f.f.f.f.f.f.6.6.6.f.f.f.6.6.6.6.6.6.6.V.V.V.6.6.6.6.6.f.f.6.6.6.f.f.f.f.6.6.6.f.f.f.f.6.6.6.6.6.f.f.f.6.6.",
".X.X.X.XX X X f.f.f.f.f.f.f.f.f.f.6.6.f.f.f.j.M m m m m %.f.f.f.f.f.=.m m m m m h.x.f.f.x.x.x.x.f.f.f.f.f.6.6.6.6.6.6.6.6.6.6.6.",
".X.X.XX X X X X f.f.f.f.f.f.f.f.f.f.x.z.x.j.M m +.+.+.M m >.f.z.x.=.m m P @.+.+.M M j.j.M M m @.7.f.f.f.f.6.6.6.6.6.6.6.6.6.6.6.",
".X.XX X X X X X X X X f.f.f.f.f.f.z.@.m m m m &.d.d.c.g.M =.<.m m m m M g.c.d.d.&.m m m m @.@.+.@.7.f.f.6.6.6.6.f.f.f.6.6.6.6.6.",
".XX X X X V.V.X X X X X X f.f.4.3.M m @.@.@.+.d.c.c.c.v.o.n m m m m P g.v.n.n.c.d.&.m m &.d.c.h.m @.5.<.7.6.6.f.f.f.f.f.f.f.f.f.",
".XX X X V.V.V.V.V.V.X X X X X 3.P m @.x.c.s.@.d.c.c.c.d.} P ;.;.:.n o.v.n.P.R.n.c.d.M b d.c.v.j.@.m m m #.<.7.f.f.f.f.f.f.f.f.f.",
".XX X V.V.V.V.V.V.V.V.V.V.M.S.*.m m l.c.c.s.@.d.m.n.v.g.B 2.^.E.Z.P | v.J.W.U.m.c.d.1.1.m.n.c.v.g.m m m m m >.x.f.f.f.f.f.f.f.f.",
".XX X V.V.V.V.V.V.V.V.V.M.*.m m m m l.c.c.s.>.m.R.P.N.,.M Z.R.U.^.2.| m.P.R.U.U.n.m.R.R.W.P.m.v.k.M %.%.%.@.m -.6.6.6.6.6.f.f.f.",
".XX X V.V.f.f.f.V.V.V.V.1.m #.=.M m l.m.m.m.v.U.U.R.D.4.Z.E.U.U.R.Z.g.J.W.U.U.U.H.I.U.U.U.U.P.v.j.| v.v.v.k.@.#.7.6.6.6.6.6.6.6.",
".XX X V.f.f.f.f.f.V.6._ J &.l.v.| M ,.L.W.U.H.U.U.U.R.E.R.U.U.U.U.R.J.K.U.U.U.U.W.U.U.U.U.R.P.c.c.c.c.c.c.v.,.n A.V.V.V.V.V.V.V.",
".X.XX X f.f.f.f.f.6._ : r  .F.c.v.| 2.L.R.U.W.U.U.U.U.U.U.W.U.U.U.R.W.U.U.U.W.U.U.U.U.U.R.U.H.c.c.c.c.c.c.v.,.n A.V.V.V.V.V.V.V.",
".X.XX X X f.f.f.f.0., X . 3 0 y.c.v.H.H.U.W.W.W.U.U.U.W.P.J.W.U.W.K.P.W.U.U.J.I.W.W.W.W.U.H.c.c.c.v.v.v.v.j.#.&.j.f.f.f.f.f.f.f.",
".X.X.XX X X f.f.0., . : 8 5 9 y.c.c.c.c.H.H.H.H.W.W.P.H.m.v.K.W.K.n.m.P.U.U.J.H.H.H.H.H.G.c.c.n.p.9 9 ! j.#.j W f.f.f.f.f.f.f.f.",
".X.X.XX X X X 9 < X : W i.u.c.c.c.c.c.u.d.c.c.c.G.H.m.d.c.c.n.H.n.d.m.P.U.U.W.J.H.c.c.c.c.c.p.6 1     > A k & : 0.f.f.f.f.f.f.V.",
".X.XX X X X X X X . 5 i.X.a.c.c.c.u.u.a.c.c.c.c.c.c.c.c.c.c.c.c.c.c.J.W.U.U.U.W.W.v.c.c.c.c.a.e F F 7   & & . X , 0.f.f.f.f.V.V.",
".XX X X 2 X & f i . 5 i.X.s.c.c.c.s.r.d.c.c.c.c.d.u.a.c.c.c.c.c.c.c.J.W.U.U.U.U.H.c.c.c.c.c.c.v.v.v.a.7 . < C : . : b.V.V.V.V.V.",
".XX X e.X & x M v t = C r.i.d.c.c.c.t.t.c.c.d.u.t.X.X.u.c.c.c.c.c.c.n.K.W.R.R.G.c.c.c.c.c.c.c.c.c.c.v.F   8 i.W ; . : y.V.V.V.V.",
".XX X 0.X r M m M v t @ w ..i.d.c.u.X.X.t.t.t.X.X.X.X.t.c.c.c.c.c.a.s.n.m.m.m.c.c.c.c.c.c.c.c.c.c.c.v.e , ~ X.r.W ; X ^ f.f.V.f.",
".XX X 0.X r M m m m v k U r.X.i.t.X.X.X.X.X.X.r.d.d.d.a.u.c.c.c.a.X.a.c.c.c.c.c.c.d.u.d.c.c.c.c.c.c.c.y.~ X.X.X.i.< X ^ f.f.f.f.",
".XX X X X r m m m m m m [ X.X.X.X.X.X.s.d.X.r.d.c.c.c.c.a.i.t.t.r.X.r.s.c.c.c.c.c.d.r.i.t.u.c.c.c.c.s.r.X.X.X...5 @ X - y.f.f.f.",
".X.XX X X X i M d % % V X.X.X.X.X.X.s.c.c.d.d.c.c.c.c.c.s.X.X.X.u.d.u.r.i.d.c.c.c.d.r.r.d.d.c.d.r.r.r.X.X.X.X.T v r X X - } 6.f.",
".X.X'.& X X + % $ X 5 ) X.X.X.X.X.X.d.c.c.c.c.c.c.c.c.c.c.d.a.X.a.c.c.u.X.s.c.c.d.t.r.d.c.c.c.d.X.X.X.X.X.X.r.$.m v r X X { 6.6.",
".X[.& X X $ $ + . 1 X.X.X.X.X.X.X.X.r.d.d.c.c.c.c.d.c.c.c.c.c.u.u.c.c.c.t.X.d.d.t.X.r.d.c.c.c.s.X.X.X.X.X.X.X.$.m m n & X { 6.6.",
".X[.+ X r v n d . 4 X.X.X.) ~ / X.X.X.X.r.d.c.c.d.t.c.c.c.c.c.a.X.a.d.d.t.X.X.X.X.X.X.i.d.d.d.X.X.X.X.X.( ( Y m m m M * X { f.f.",
".X{.+ & n m M f # X 5 ~ ~ < $ z ' X.X.X.X.r.d.d.X.t.d.d.c.c.c.u.X.X.X.X.X.X.X.X.X.X.X.X.X.X.X.X.X.X.X.[ m M m m m m v & X E f.f.",
" XN X & m m m m f $ X o o $ f m m ' / / X.X.X.X.X.X.X.t.d.d.u.X.X.X.X.X.X.X.X.X.X.X.X.X.X.X.X.X.X.X.X.` M m m m v c * X = E a.f.",
" XX X & c m m m M d & $ . p n m m m m +.( X.X.X.X.X.X.X.X.X.X.X.X.X.X.X.X.X.X./ X.X.X.X.X.X.X.X.X.X.X.X.[ M m v r X X - H q.q.B.",
"}.X X X & z c M m m M s $ . p v m m +.( X.X.X.X.X.X.X.X.X.X.X./ ( X.X.X.X.X./ P / X.X.X.X./ X.X.X.X.X.X.r.T m a # X X D 9.q.w.B.",
"(.X X > X X * c m m m M s * * z m m / X.X.X.X.X.] X.X.X.X.X.( O.O.( X.X.X./ +.+.( X.X.X./ +.X.X.X.X.X.X.( $.m M a $ X X H q.C.f.",
"(.X X H X X $ a M m m m m M M m m m [ X.X.X.X.[ +.X.X.X.X.( T O.b $.' ` ` +.m / X.X.X.X./ +.X.X.X.X.X.r.R m m m M p $ X H ^ Q u.",
"'.X X H X $ s M m m m m m m m m m m m R ` ` ( O.+.X.X.X.r.[ $.r.` O.b +.O.M m T X.X.X.` R b ' X.X.X.r./ A x m m m M r X G ^ Q K ",
".XX X X X r I m m m M m m m m m m m m m m $.X./ b ' r.r.( O.$.X.X.r.[ / r.T M m T [ R m m m b [ [ [ ` A r u M m m M r X G ^ Q L ",
"|.(.X X X & k M M x a z m m m m m m m m M X.X./ m b R [ $.n Y r.X.X.r.' / r.+.m m m m m m m m m m c a r . a M m M k & X H K K 3.",
" X{.).N X X % k c r O p M m m m m m m m m T ( Y m m m m m m +.] X.X.r.O.O.T b m m m m m m m m m m x i u * * x I j % X 2 8.q.b.V.",
".X|.(.)./.X X & y . * z m m m m m m m m m m $.m m m m m m m m +.] r.' +.m m m m m m m m m m M m m m M I s . * p & X 2 8.q.9.B.V.",
".X X{.(.X X X < X X p I m m m m M m m m m m m m m m m m m m m m +.Y +.m m m m m m m m m m v s M m m M z * X X X 2 6 E ^ 9.b.V.V.",
".X.X X[.X X ^ E 9 , & k M M M M a c m m m m m m m m m M m m m m m m m m m m m m m m m m m c $ a M M x & X 1 D D E ^ Q Q y.V.V.V.",
".X.X.X XX X Q ^ ^ 6 X & t t t t $ x M m m m m m m m c a M m m m m M s k M m m m m m m M v y X $ t t & X X X X X ^ Q y.u.f.f.f.f.",
".X.X.X.XX X y.Q ^ E < X X X X X X * v m m m m m M c & $ s M M M M d $ f M m m m m m n t * X X X X X X : 0 F ^ X X y.f.f.f.f.f.f.",
".X.X.X.X.XX X a.y.Q E q q X X X X X * y v m m v r & X X $ r r r r % X & z M m m m m m h 0 q X X q q q F ^ ^ Q X X X X f.f.f.f.f.",
".X.X.X.X.XX X X f.s.y.^ X X X X X X X (.(.* * & X X V g X X X X X X X X & * * c m m _ W ^ ^ X X X ^ ^ ^ Q y.s.X X X X X f.f.f.f.",
".X.X.X.X.X.XX X X X X X X X ).(.(.(.(.(.(.(._.[.X X U S Z Z Z Z X X X X X X X & & & Q ! Q Q X X X X Q 0.s.f.X X X X X X f.f.f.f.",
".X.X.X.X.X.X.XX X X X X X |.|.`.(.).).(.(._.|.|.).X X U U U U X X X ).X X X X X (.X X Q Q X X X .XX X X X X X X X .XX X X f.f.f.",
".X.X.X.X.X.X.X.X.X.X.X.X.X.X.X X|.|.|._._.|..X|.(.X X X X X X X X X (.(.(.).}.|._.X X X X X X  X.X.XX X X X X X .X.X.XX X X f.f.",
".X.X.X.X.X.X.X.X.X.X.X.X.X.X.X.X.X.X.X X X.X.X|.).(.X X X X X X X (.(.(.(.[..X.X X|.X X X X .X.X.X.X.X.X.X.X.X.X.X.X.X.X.XX X X "
};
