/* XPM */
static const char *bot_left7[] = {
/* columns rows colors chars-per-pixel */
"64 64 191 2 ",
"   c #0D112C",
".  c #13162B",
"X  c #161C2E",
"o  c #191F2E",
"O  c #121227",
"+  c #171F30",
"@  c #1C232E",
"#  c #172031",
"$  c #192333",
"%  c #1A2837",
"&  c #1C2C3A",
"*  c #1A2738",
"=  c #1E323E",
"-  c #21292F",
";  c #242C33",
":  c #2D3834",
">  c #333E35",
",  c #364236",
"<  c #394636",
"1  c #3D4138",
"2  c #3A4A36",
"3  c #434739",
"4  c #405238",
"5  c #465A3A",
"6  c #4D5D3B",
"7  c #4A5639",
"8  c #4C613B",
"9  c #53633C",
"0  c #5B6D3E",
"q  c #5E713F",
"w  c #5E793F",
"e  c #66743F",
"r  c #1F3541",
"t  c #213B45",
"y  c #213E48",
"u  c #26484E",
"i  c #24434A",
"p  c #274D52",
"a  c #284E53",
"s  c #244652",
"d  c #295256",
"f  c #2C5B5C",
"g  c #2B5759",
"h  c #3E5543",
"j  c #33635E",
"k  c #2A5E61",
"l  c #2E6161",
"z  c #2F6868",
"x  c #306764",
"c  c #316966",
"v  c #326C69",
"b  c #34736D",
"n  c #3E7E6F",
"m  c #347673",
"M  c #377A73",
"N  c #397C73",
"B  c #367B7F",
"V  c #2E7575",
"C  c #506F4D",
"Z  c #5E7940",
"A  c #51704D",
"S  c #49775A",
"D  c #53734B",
"F  c #626342",
"G  c #657A41",
"H  c #6A7C41",
"J  c #7C7B49",
"K  c #407F6D",
"L  c #417665",
"P  c #517261",
"I  c #597D68",
"U  c #407F72",
"Y  c #398178",
"T  c #398077",
"R  c #5F8454",
"E  c #578C5F",
"W  c #5B8E5D",
"Q  c #5E905B",
"!  c #6C8242",
"~  c #6D8D48",
"^  c #778E45",
"/  c #798E44",
"(  c #739445",
")  c #799145",
"_  c #759C4C",
"`  c #799F4A",
"'  c #799C46",
"]  c #658B56",
"[  c #669456",
"{  c #699654",
"}  c #6D9851",
"|  c #619259",
" . c #6A935B",
".. c #6D995F",
"X. c #729C5D",
"o. c #7B9850",
"O. c #7DA147",
"+. c #7CA148",
"@. c #7BA15A",
"#. c #4D8665",
"$. c #44826D",
"%. c #49856C",
"&. c #4E8A6C",
"*. c #4F8864",
"=. c #528962",
"-. c #588D67",
";. c #538B69",
":. c #56896E",
">. c #5C9165",
",. c #5F9669",
"<. c #578C70",
"1. c #458272",
"2. c #629463",
"3. c #689661",
"4. c #6C9C63",
"5. c #68956C",
"6. c #719B6F",
"7. c #628E74",
"8. c #679175",
"9. c #6FA166",
"0. c #79A863",
"q. c #73A464",
"w. c #8A884C",
"e. c #918F4E",
"r. c #829C48",
"t. c #93914F",
"y. c #9C9A51",
"u. c #81A346",
"i. c #84A548",
"p. c #8AA249",
"a. c #8CAA49",
"s. c #83A949",
"d. c #90A448",
"f. c #92AD4A",
"g. c #96B14B",
"h. c #9CB44C",
"j. c #9BB94E",
"k. c #84A657",
"l. c #86AB56",
"z. c #8BAD54",
"x. c #83A658",
"c. c #91AE52",
"v. c #8FB252",
"b. c #93B351",
"n. c #A1B74C",
"m. c #A3B94C",
"M. c #A5A254",
"N. c #A9A555",
"B. c #A7BA50",
"V. c #ABBD53",
"C. c #AAB05F",
"Z. c #A2B754",
"A. c #BBB65A",
"S. c #BFBA5B",
"D. c #B0AC57",
"F. c #8CAA6C",
"G. c #8FA363",
"H. c #97AC66",
"J. c #AFBE6A",
"K. c #AAC04C",
"L. c #B2C057",
"P. c #B3C159",
"I. c #BAC55D",
"U. c #BEC761",
"Y. c #BEC765",
"T. c #C1C963",
"R. c #C5CB66",
"E. c #C7CC67",
"W. c #C6CC67",
"Q. c #C7CC67",
"!. c #C9CD67",
"~. c #CCCF67",
"^. c #C8CD68",
"/. c #C8CD68",
"(. c #CACE69",
"). c #C8CD68",
"_. c #CED066",
"`. c #377C80",
"'. c #3A8487",
"]. c #3A8588",
"[. c #3B8A8C",
"{. c #3D8E90",
"}. c #3E9192",
"|. c #409697",
" X c #429C9C",
".X c #409798",
"XX c #43A09F",
"oX c #45A6A5",
"OX c #46A8A7",
"+X c #47ABA9",
"@X c #47ABA9",
/* pixels */
"X X j.j.j.j.j.j.X X S.S.S.S.S.0.0.0.0.0.0.0.0.0.0.0.0.0.0.0.0.0.0.0.0.0.0.0.0.0.0.0.0.0.0.0.0.0.0.0.0.0.0.0.0.0.0.0.0.0.0.0.0.0.",
"+XX X X X X X X X S.S.S.j.0.0.0.j.j.j.0.0.0.0.0.0.0.0.0.0.0.0.0.0.0.0.0.0.0.0.0.8.8.8.8.0.0.0.0.0.0.0.0.0.0.0.0.0.0.0.0.0.j.j.j.",
"+X+XX X X X X X X S.S.j.j.j.j.j.j.j.j.j.j.j.j.0.0.0.0.0.0.0.0.0.0.0.0.0.0.0.0.8.8.8.8.8.8.j.j.j.j.j.j.j.j.8.8.8.8.0.0.0.j.j.j.j.",
"+XX X X X X X X X S.S.j.j.j.j.j.j.j.0.0.0.0.0.0.0.0.0.0.0.0.0.0.0.0.0.8.8.8.0.8.8.8.8.8.8.8.8.8.8.8.j.j.8.8.8.8.8.8.8.0.j.j.j.j.",
"X X X 0.0.0.0.X X S.j.j.j.j.j.j.j.j.j.j.0.0.0.0.0.0.0.0.0.0.0.0.0.0.8.8.8.8.8.8.8.8.8.8.8.8.8.8.8.8.8.8.8.S.S.S.8.8.8.8.j.j.j.S.",
"X X 0.0.0.0.0.X X X j.j.j.j.j.j.j.j.j.j.j.j.0.0.0.0.0.0.0.0.0.0.0.8.8.8.8.8.S.S.S.S.8.8.8.8.S.S.S.S.8.8.S.S.S.S.S.8.8.8.8.S.S.S.",
"X X 0.0.0.0.0.0.X X X 0.0.0.j.j.j.j.j.j.j.j.j.j.j.j.0.0.0.0.0.0.0.8.8.8.S.S.S.S.S.S.S.8.8.S.S.S.S.S.S.S.S.S.S.S.S.S.S.S.S.S.j.j.",
"X X 0.0.0.0.0.0.0.0.0.0.0.0.j.j.j.j.j.j.j.j.j.j.j.j.0.0.0.0.0.8.8.8.8.S.S.S.S.S.S.S.S.8.S.S.S.S.S.S.S.S.S.S.S.S.S.S.S.S.S.S.j.j.",
"X X 0.0.0.0.0.j.j.j.j.0.0.0.0.0.0.j.j.j.j.j.j.j.j.j.j.S.S.S.S.S.S.8.S.S.S.S.S.S.S.S.S.S.S.S.S.S.S.S.S.S.S.S.S.S.S.S.S.S.S.S.j.S.",
"X X X 0.0.X j.j.j.j.j.j.j.j.j.j.j.j.j.j.j.j.j.j.j.j.S.S.j.j.S.S.S.S.S.S.S.S.S.S.S.S.S.S.S.S.S.S.S.S.S.S.S.S.S.S.S.S.S.S.S.S.S.S.",
"X X X X X X S.S.j.j.j.j.j.j.j.j.j.j.j.j.j.j.j.j.j.j.S.j.j.j.j.S.S.S.S.S.S.S.S.j.j.j.S.S.S.S.S.j.j.S.S.S.S.j.j.S.S.S.S.S.S.S.S.S.",
"+XX X X X S.S.S.S.S.j.j.j.j.j.j.j.j.j.j.j.j.j.j.j.j.j.j.j.j.j.j.j.j.j.S.S.S.j.j.j.j.j.S.S.j.j.j.j.j.j.S.j.j.j.j.S.S.S.S.S.S.S.S.",
"+XX X X j.j.S.S.S.S.S.S.S.S.S.S.S.S.S.j.j.j.j.j.j.j.j.j.j.j.j.j.j.j.j.j.S.S.j.j.j.j.j.S.j.j.j.j.j.j.j.j.j.j.j.j.S.S.S.S.S.S.S.S.",
"X X X j.j.j.S.S.S.j.j.j.j.j.j.j.j.j.j.j.j.j.j.j.j.j.j.j.j.j.j.j.j.j.j.j.j.j.j.j.j.j.j.S.j.j.j.j.j.j.j.j.j.j.j.j.S.S.S.S.S.j.j.j.",
"X X j.j.j.j.X j.j.j.j.j.0.0.0.0.0.0.j.j.j.j.j.j.j.j.j.j.j.j.j.j.j.j.j.j.j.j.j.j.j.j.j.j.j.j.j.j.j.j.j.j.j.j.j.j.j.j.j.j.j.j.j.j.",
"X X j.j.j.X X j.j.j.0.0.0.0.0.0.0.0.0.j.0.0.0.0.j.j.j.j.j.j.S.S.S.j.j.j.j.j.j.j.j.j.j.j.j.j.j.j.j.j.j.j.j.j.j.j.j.j.j.j.j.j.j.j.",
"X X X j.X X X 0.0.0.0.0.0.0.0.0.0.0.0.0.0.0.0.0.0.j.j.j.S.S.S.S.S.S.j.j.j.j.j.j.j.j.j.j.0.0.0.j.j.j.j.j.j.j.j.j.j.j.j.j.j.j.j.j.",
"+XX X X X X 0.0.0.0.0.0.0.0.0.0.0.0.0.0.0.0.0.0.0.S.S.S.S.S.S.S.S.S.S.S.S.S.0.0.0.j.j.0.0.0.0.0.j.j.j.j.j.j.j.j.j.j.j.j.j.j.j.j.",
"+X+X+X+XX X 0.0.0.0.0.j.j.j.j.j.0.0.0.0.0.0.0.0.0.0.0.0.S.S.S.S.S.S.S.S.S.0.0.0.0.0.0.0.j.j.0.0.0.j.j.j.j.j.j.0.0.0.j.j.j.j.j.j.",
"+X+X+X+XX X 0.0.0.j.j.j.j.j.j.j.j.0.0.0.j.j.j.0.0.0.0.0.0.0.S.S.S.0.0.0.0.0.j.j.0.0.0.j.j.j.j.0.0.0.j.j.j.j.0.0.0.0.0.j.j.j.0.0.",
"+X+X+X+XX X X j.j.j.j.j.j.j.j.j.j.0.0.j.j.j.z.N M M M M -.j.j.j.j.j.>.M M M M M l.b.j.j.b.b.b.b.j.j.j.j.j.0.0.0.0.0.0.0.0.0.0.0.",
"+X+X+XX X X X X j.j.j.j.j.j.j.j.j.j.b.v.b.z.N M $.$.$.N M 2.j.v.b.>.M M U %.$.$.N N z.z.N N M %.q.j.j.j.j.0.0.0.0.0.0.0.0.0.0.0.",
"+X+XX X X X X X X X X j.j.j.j.j.j.v.%.M M M M ;.h.h.n.k.N >.4.M M M M N k.n.h.h.;.M M M M %.%.$.%.q.j.j.0.0.0.0.j.j.j.0.0.0.0.0.",
"+XX X X X S.S.X X X X X X j.j.8.7.N M %.%.%.$.h.n.n.n.m.@.m M M M M U k.m.B.B.m.h.;.M M ;.h.m.l.M %.9.4.q.0.0.j.j.j.j.j.j.j.j.j.",
"+XX X X S.S.S.S.S.S.X X X X X 7.U M %.b.n.g.%.h.n.n.n.h...U <.<.1.m @.m.B.T.!.B.n.h.N n h.n.m.z.%.M M M &.4.q.j.j.j.j.j.j.j.j.j.",
"+XX X S.S.S.S.S.S.S.S.S.S.C.H.:.M M c.m.n.g.%.h.V.B.m.k.V 6._.~.F.U X.m.I.^.E.V.n.h.5.5.V.B.n.m.k.M M M M M 2.b.j.j.j.j.j.j.j.j.",
"+XX X S.S.S.S.S.S.S.S.S.C.:.M M M M c.n.n.g.2.V.!.T.Z.3.N F.!.E._.6.X.V.T.!.E.E.B.V.!.!.^.T.V.m.x.N -.-.-.%.M ,.0.0.0.0.0.j.j.j.",
"+XX X S.S.j.j.j.S.S.S.S.5.M &.>.N M c.V.V.V.m.E.E.!.J.8.F.~.E.E.!.F.k.I.^.E.E.E.P.W.E.E.E.E.T.m.z.X.m.m.m.x.%.&.q.0.0.0.0.0.0.0.",
"+XX X S.j.j.j.j.j.S.0.] L ;.c.m.X.N 3.Y.^.E.P.E.E.E.!.~.!.E.E.E.E.!.I.U.E.E.E.E.^.E.E.E.E.!.T.n.n.m.n.n.n.m.3.m G.S.S.S.S.S.S.S.",
"+X+XX X j.j.j.j.j.0.] > r o.K.m.m.X.6.Y.!.E.^.E.E.E.E.E.E.^.E.E.E.!.^.E.E.E.^.E.E.E.E.E.E.W.P.n.n.n.n.n.n.m.3.m G.S.S.S.S.S.S.S.",
"+X+XX X X j.j.j.j.r., X   3 0 p.m.m.P.P.E.^.^.^.E.E.E.^.T.I.^.E.^.U.T.^.E.E.I.W.^.^.^.^.E.P.n.n.m.m.m.m.m.z.&.;.z.j.j.j.j.j.j.j.",
"+X+X+XX X X j.j.r., . > 8 5 9 p.m.n.n.n.P.P.P.P.^.^.T.P.V.m.U.^.U.B.V.T.E.E.I.P.P.P.P.P.L.n.m.B.d.9 9 / z.&.k ~ j.j.j.j.j.j.j.j.",
"+X+X+XX X X X j.G X > ~ s.a.m.m.n.m.n.a.h.n.n.m.L.P.V.h.n.n.B.P.B.h.V.T.E.E.^.I.P.n.n.n.n.m.d.6 <     : S l & > r.j.j.j.j.j.j.S.",
"+X+XX X X X X X , . 8 s.+.f.m.n.n.a.a.f.n.n.n.n.n.n.n.n.n.n.n.n.n.n.I.^.E.E.E.^.^.m.n.n.n.m.f.e H H 7   & & . X , r.j.j.j.j.S.S.",
"+XX X X N.1 X X X . 5 s.+.f.m.n.n.g.u.h.n.n.n.m.h.a.a.m.n.n.n.n.n.n.I.^.E.E.E.E.L.m.n.n.n.n.m.m.m.m.f.7 . < Z > . > M.S.S.S.S.S.",
"+XX X N.1 X & l l y - Z u.s.h.n.n.m.s.i.h.m.h.a.i.O.O.a.n.n.n.n.n.n.B.U.^.^.!.L.n.n.n.n.n.n.n.n.n.n.m.H   8 s.~ : . > p.S.S.S.S.",
"+XX X r.X & v N N b t @ w O.s.h.m.a.O.O.i.i.i.O.O.O.O.i.m.n.n.n.m.f.g.B.V.V.V.n.n.n.n.n.n.n.n.n.n.n.m.e , ( O.O.~ : X ) j.j.S.j.",
"+XX X r.X r N M M M b l R O.O.s.i.O.O.O.O.O.O.u.h.h.h.f.a.n.n.m.f.O.f.n.n.n.n.n.n.h.a.h.n.n.n.n.n.n.m.p.( O.O.O.s.< X ) j.j.j.j.",
"+XX X X X r N M M M M M | O.O.O.O.O.O.g.h.O.u.h.n.n.n.n.f.s.s.i.u.O.u.g.n.n.n.n.n.h.u.s.i.a.n.n.n.n.g.s.O.O.O.O.5 @ X ; p.j.j.j.",
"+X+XX X X r M N g % * C +.O.O.O.O.O.g.n.n.h.h.n.n.n.n.m.g.O.O.+.a.h.a.u.s.h.n.n.n.h.u.u.h.h.n.h.s.s.u.O.O.O.O.W b r X X ; ..0.j.",
"+X+X+X[.X X i f + X 5 ' O.O.O.O.O.O.h.n.n.n.n.n.n.n.n.n.n.h.f.O.f.m.h.a.O.g.n.n.h.i.u.h.n.n.n.h.O.O.O.O.O.O.O.=.M b r X X  .0.0.",
"+X+X}.* X X + # . 2 O.O.O.O.O.O.O.O.u.h.h.n.n.n.n.h.n.n.n.n.n.a.a.n.n.n.i.O.h.h.i.O.u.h.n.n.n.g.O.O.O.O.O.O.O.=.M M m & X  .0.0.",
"+X X% X X % % # . 4 O.O.O.' ( _ +.O.O.O.u.h.n.n.h.i.n.n.n.n.m.f.O.f.h.h.i.O.+.O.O.O.O.s.h.h.h.O.O.O.O.+.` ` =.M M M N = X  .j.j.",
"+X|.+ X t m M f # X 5 ( ( 2 $ x { O.O.O.O.u.h.h.O.i.h.h.n.n.n.a.O.O.O.O.O.O.O.O.O.O.O.O.O.O.O.O.O.O.O.| M N M M M M b & X ! j.j.",
"OXB X & M M M N f # X o o $ f M M [ _ _ +.O.O.O.O.O.O.i.h.h.a.O.O.O.O.O.O.O.O.O.O.O.O.O.O.O.O.O.O.O.O.[ N M M M b v = X - ! f.j.",
"OXX X & M M M M N g & $ . p m M M M M $.` O.O.O.O.O.O.O.O.O.O.O.O.O.O.O.O.O.O._ +.O.O.O.O.O.O.O.O.O.O.O.| N M b r X X ; J t.t.A.",
"XXX X & v N M M M M N d # . p b M M $.` O.O.O.O.O.O.O.O.O.O.O.` _ O.O.O.O.O._ K _ O.O.O.+._ O.O.O.O.O.O.u.W M a # X X F e.t.y.A.",
"'.X X X & l c N M M M N d = = x M M _ O.O.O.O.+.} O.O.O.O.` { #.*.` O.O.O._ K $.` O.O.O._ $.O.O.O.O.O.O.` =.M N a # X X J t.D.j.",
"'.X X > X . & c M M M M M N N M M M | O.O.+.{ [ =.O.O.O.` =.n $.m =.{ [ { $.%.` O.O.O.O.[ =.O.O.O.O.O.u.Q M M M N p # X J ) ^ a.",
"}.X X J X X # d N M M M M M M M M M M Q [ ` #.K O.O.O.O.[ N [ { #.n $.#.N M W +.O.O.[ | n { O.O.O.O.u._ S v M M M N r X G ) ^ P ",
"+XX X X X % d N M M N M M M M M M M M M =.` ` n [ O.u.` =.=.u.O.u.[ } u.Q n M W | | M M M N | | | | [ S r u N M M N r X G ) ) I ",
"OX'.X X X t Y M N c a x M M M M M M M N ` O.` M N Q | =.m =.u.O.O.O.{ _ u.#.M M M M M M M M M M M v a r O p N M N l & X J P P 7.",
"OX}.].m X * f T v r O p N M M M M M M M W ` W M M M M M M $.} O.O.u.=.#.W K M M M M M M M M M M M c i u = = c Y f % X 3 w.t.M.S.",
"+XOX'.`.s X % p r . = x M M M M M M M M M =.M M M M M M M M $.} u.{ $.M M M M M M M M M M M N M M M N Y d . = p & X 3 w.t.e.A.S.",
"+XOX.X'.X X X X X X p Y M M M M N M M M M M M M M M M M M M M $.E $.M M M M M M M M M M M b d N M M N x = X X X 3 6 ! ) e.N.S.S.",
"+X+XOX XX X 9 9 9 , & l N N N N a v M M M M M M M M M N M M M M M M N M M M M M M M M M M v # a N N c & X 1 F F ! ) ^ ^ p.S.S.S.",
"+X+X+XOXX X ) ) ) 6 X & y y y y # c N M M M M M M M v p N M M M M N d l M M M M M M M N b t X # y y & X X X X X ) ^ p.a.j.j.j.j.",
"+X+X+X+XX X p.^ ) ! < X X X X X X = b M M M M M N v & # d N N N N g # f N M M M M M m t = X X X X X X > 0 H ) X X p.j.j.j.j.j.j.",
"+X+X+X+X+XX X f.p.^ ! q q X X X X X = t b M M b r & X X # r r r r % X & x N M M M M M j 0 q X X q q q H ) ) ^ X X X X j.j.j.j.j.",
"+X+X+X+X+XX X X j.g.p.) X X X X X X X '.'.= = & X X C h X X X X X X X X & = = v M M ] ~ ) ) X X X ) ) ) ^ p.g.X X X X X j.j.j.j.",
"+X+X+X+X+X+XX X X X X X X X '.'.'.'.'.'.'.'.[. XX X R D A A A A X X X X X X X & & & ^ / ^ ^ X X X X ^ r.g.j.X X X X X X j.j.j.j.",
"+X+X+X+X+X+X+XX X X X X X OXOX{.'.].].'.'.[.oXOX].X X R R R R X X X ].X X X X X '.X X ^ ^ X X X +XX X X X X X X X +XX X X j.j.j.",
"+X+X+X+X+X+X+X+X+X+X+X+X+X+X+XOXOXOXOX[.[.oX+XOX].X X X X X X X X X '.'.'.].XXOX[.X X X X X X OX+X+XX X X X X X +X+X+XX X X j.j.",
"+X+X+X+X+X+X+X+X+X+X+X+X+X+X+X+X+X+X+XOXOX+X+XOX].'.X X X X X X X '.'.'.'. X+X+XOXOXX X X X +X+X+X+X+X+X+X+X+X+X+X+X+X+X+XX X X "
};
