/* XPM */
static const char *bot_3[] = {
/* columns rows colors chars-per-pixel */
"64 64 190 2 ",
"   c #0D112C",
".  c #12162B",
"X  c #161C2E",
"o  c #181E2E",
"O  c #121227",
"+  c #171F30",
"@  c #1A212F",
"#  c #172031",
"$  c #182233",
"%  c #1B2835",
"&  c #1C2C3A",
"*  c #1D313E",
"=  c #222A2E",
"-  c #212B33",
";  c #282D33",
":  c #2B3432",
">  c #2E3B34",
",  c #333E35",
"<  c #3C3F37",
"1  c #354335",
"2  c #3A4736",
"3  c #37433A",
"4  c #3E5038",
"5  c #43463A",
"6  c #45483A",
"7  c #415438",
"8  c #4D5D3B",
"9  c #495639",
"0  c #56583F",
"q  c #4B603B",
"w  c #54633C",
"e  c #5C6F3F",
"r  c #5E713F",
"t  c #63743F",
"y  c #607B3F",
"u  c #1F3541",
"i  c #1F3845",
"p  c #213B45",
"a  c #26484E",
"s  c #24434B",
"d  c #274D52",
"f  c #284E53",
"g  c #295155",
"h  c #2A5659",
"j  c #2C5B5D",
"k  c #3E5543",
"l  c #33635E",
"z  c #2A5D61",
"x  c #2E6262",
"c  c #2F6868",
"v  c #316664",
"b  c #316966",
"n  c #326D6A",
"m  c #35736E",
"M  c #3E7E6E",
"N  c #347573",
"B  c #377A73",
"V  c #397C74",
"C  c #4A6648",
"Z  c #5E7A40",
"A  c #476258",
"S  c #49775A",
"D  c #527D5A",
"F  c #626342",
"G  c #6E6F45",
"H  c #657A40",
"J  c #6B7A40",
"K  c #7C7C49",
"L  c #717146",
"P  c #477F68",
"I  c #517261",
"U  c #597C68",
"Y  c #567E63",
"T  c #407F71",
"R  c #807F4A",
"E  c #398077",
"W  c #398178",
"Q  c #5E8354",
"!  c #578C5F",
"~  c #5B8E5C",
"^  c #56815A",
"/  c #5F905A",
"(  c #6D8342",
")  c #6D8C43",
"_  c #6A894C",
"`  c #708643",
"'  c #768E45",
"]  c #788E44",
"[  c #7A9245",
"{  c #7A9D46",
"}  c #749C4D",
"|  c #799E4A",
" . c #749545",
".. c #669455",
"X. c #699654",
"o. c #6E9950",
"O. c #629259",
"+. c #69925B",
"@. c #6F995D",
"#. c #729C5D",
"$. c #7DA147",
"%. c #7CA148",
"&. c #7CA259",
"*. c #4D8665",
"=. c #44816D",
"-. c #4B866D",
";. c #4E896C",
":. c #528963",
">. c #588D67",
",. c #528B6A",
"<. c #598A6D",
"1. c #5D9165",
"2. c #5F9669",
"3. c #578C70",
"4. c #5E8D75",
"5. c #448272",
"6. c #649562",
"7. c #689661",
"8. c #6B9A62",
"9. c #67956E",
"0. c #739C6E",
"q. c #628E74",
"w. c #679175",
"e. c #6FA165",
"r. c #79A863",
"t. c #73A464",
"y. c #89874C",
"u. c #918F4E",
"i. c #839D48",
"p. c #809947",
"a. c #93914F",
"s. c #9B9851",
"d. c #A19D52",
"f. c #81A345",
"g. c #84A548",
"h. c #89A349",
"j. c #84A948",
"k. c #8CAA49",
"l. c #90A448",
"z. c #92AD4A",
"x. c #96B14B",
"c. c #9CB54C",
"v. c #9BB94E",
"b. c #86AA56",
"n. c #8AAC55",
"m. c #81A458",
"M. c #86A858",
"N. c #92AF52",
"B. c #8FB153",
"V. c #93B351",
"C. c #A1B74C",
"Z. c #A4B94C",
"A. c #ACBD4F",
"S. c #A7A455",
"D. c #A6BA51",
"F. c #ABBC53",
"G. c #A6B459",
"H. c #BAB65A",
"J. c #BFBA5B",
"K. c #B0BF56",
"L. c #B0AC57",
"P. c #8CAA6C",
"I. c #8FA363",
"U. c #9EAA61",
"Y. c #AFBE6A",
"T. c #B3C157",
"R. c #B3C159",
"E. c #BAC55D",
"W. c #BDC760",
"Q. c #BEC766",
"!. c #BDC769",
"~. c #C1C963",
"^. c #C5CB66",
"/. c #C7CC67",
"(. c #C6CC67",
"). c #C5CB66",
"_. c #C9CD67",
"`. c #CCCF67",
"'. c #C8CD68",
"]. c #C8CD68",
"[. c #CACE69",
"{. c #C8CD68",
"}. c #CED066",
"|. c #3A8487",
" X c #3A8688",
".X c #3C8A8C",
"XX c #439F9E",
"oX c #46A7A5",
"OX c #46A8A6",
"+X c #47ABA9",
/* pixels */
"v.v.v.v.v.J.J.J.J.J.J.J.J.J.J.r.r.r.r.r.r.r.r.r.r.r.r.r.r.r.r.r.r.r.r.r.r.r.r.r.r.r.r.r.r.r.r.r.r.r.r.r.r.r.r.r.r.r.r.r.r.r.r.r.",
"v.v.v.v.v.v.J.J.J.J.J.J.v.r.r.r.v.v.v.r.r.r.r.r.r.r.r.r.r.r.r.r.r.r.r.r.r.r.r.r.w.w.w.w.r.r.r.r.r.r.r.r.r.r.r.r.r.r.r.r.r.v.v.v.",
"v.v.J.J.J.J.J.J.J.J.J.v.v.v.v.v.v.v.v.v.v.v.v.r.r.r.r.r.r.r.r.r.r.r.r.r.r.r.r.w.w.w.w.w.w.v.v.v.v.v.v.v.v.w.w.w.w.r.r.r.v.v.v.v.",
"J.J.J.J.J.J.J.J.J.J.J.v.v.v.v.v.v.v.r.r.r.r.r.r.r.r.r.r.r.r.r.r.r.r.r.w.w.w.r.w.w.w.w.w.w.w.w.w.w.w.v.v.w.w.w.w.w.w.w.r.v.v.v.v.",
"J.J.J.J.J.J.J.J.J.J.v.v.v.v.v.v.v.v.v.v.r.r.r.r.r.r.r.r.r.r.r.r.r.r.w.w.w.w.w.w.w.w.w.w.w.w.w.w.w.w.w.w.w.J.J.J.w.w.w.w.v.v.v.J.",
"v.v.v.v.v.J.J.J.J.J.v.v.v.v.v.v.v.v.v.v.v.v.r.r.r.r.r.r.r.r.r.r.r.w.w.w.w.w.J.J.J.J.w.w.w.w.J.J.J.J.w.w.J.J.J.J.J.w.w.w.w.J.J.J.",
"v.v.v.v.v.v.J.J.J.J.J.v.J.J.v.v.v.v.v.v.v.v.v.v.v.v.r.r.r.r.r.r.r.w.w.w.J.J.J.J.J.J.J.w.w.J.J.J.J.J.J.J.J.J.J.J.J.J.J.J.J.J.v.v.",
"v.v.v.v.v.v.v.v.J.J.J.J.J.J.J.v.v.v.v.v.v.v.v.v.v.v.r.r.r.r.r.w.w.w.w.J.J.J.J.J.J.J.J.w.J.J.J.J.J.J.J.J.J.J.J.J.J.J.J.J.J.J.v.v.",
"J.J.v.v.v.v.v.v.v.J.J.J.v.v.v.J.v.v.v.v.v.v.v.v.v.v.v.J.J.J.J.J.J.w.J.J.J.J.J.J.J.J.J.J.J.J.J.J.J.J.J.J.J.J.J.J.J.J.J.J.J.J.v.J.",
"J.J.J.v.v.v.v.v.v.v.v.v.v.v.v.v.v.v.v.v.v.v.v.v.v.v.J.J.v.v.J.J.J.J.J.J.J.J.J.J.J.J.J.J.J.J.J.J.J.J.J.J.J.J.J.J.J.J.J.J.J.J.J.J.",
"J.J.J.v.v.v.J.J.v.v.v.v.v.v.v.v.v.v.v.v.v.v.v.v.v.v.J.v.v.v.v.J.J.J.J.J.J.J.J.v.v.v.J.J.J.J.J.v.v.J.J.J.J.v.v.J.J.J.J.J.J.J.J.J.",
"J.J.J.v.v.J.J.J.J.J.v.v.v.v.v.v.v.v.v.v.v.v.v.v.v.v.v.v.v.v.v.v.v.v.v.J.J.J.v.v.v.v.v.J.J.v.v.v.v.v.v.J.v.v.v.v.J.J.J.J.J.J.J.J.",
"J.J.J.J.J.J.J.J.J.J.J.J.J.J.J.J.J.J.J.v.v.v.v.v.v.v.v.v.v.v.v.v.v.v.v.v.J.J.v.v.v.v.v.J.v.v.v.v.v.v.v.v.v.v.v.v.J.J.J.J.J.J.J.J.",
"J.J.J.J.J.J.J.J.J.v.v.v.v.v.v.v.v.v.v.v.v.v.v.v.v.v.v.v.v.v.v.v.v.v.v.v.v.v.v.v.v.v.v.J.v.v.v.v.v.v.v.v.v.v.v.v.J.J.J.J.J.v.v.v.",
"v.v.v.v.v.v.v.v.v.v.v.v.r.r.r.r.r.r.v.v.v.v.v.v.v.v.v.v.v.v.v.v.v.v.v.v.v.v.v.v.v.v.v.v.v.v.v.v.v.v.v.v.v.v.v.v.v.v.v.v.v.v.v.v.",
"v.v.v.v.v.v.v.v.v.v.r.r.r.r.r.r.r.r.r.v.r.r.r.r.v.v.v.v.v.v.J.J.J.v.v.v.v.v.v.v.v.v.v.v.v.v.v.v.v.v.v.v.v.v.v.v.v.v.v.v.v.v.v.v.",
"v.v.v.v.v.v.v.v.r.r.r.r.r.r.r.r.r.r.r.r.r.r.r.r.r.v.v.v.J.J.J.J.J.J.v.v.v.v.v.v.v.v.v.v.r.r.r.v.v.v.v.v.v.v.v.v.v.v.v.v.v.v.v.v.",
"v.v.v.v.v.v.v.r.r.r.r.r.r.r.r.r.r.r.r.r.r.r.r.r.r.J.J.J.J.J.J.J.J.J.J.J.J.J.r.r.r.v.v.r.r.r.r.r.v.v.v.v.v.v.v.v.v.v.v.v.v.v.v.v.",
"v.v.v.v.v.r.r.r.r.r.r.v.v.v.v.v.r.r.r.r.r.r.r.r.r.r.r.r.J.J.J.J.J.J.J.J.J.r.r.r.r.r.r.r.v.v.r.r.r.v.v.v.v.v.v.r.r.r.v.v.v.v.v.v.",
"v.v.v.r.r.r.r.r.r.r.v.v.v.v.v.v.v.r.r.r.v.v.v.r.r.r.r.r.r.r.J.J.J.r.r.r.r.r.v.v.r.r.r.v.v.v.v.r.r.r.v.v.v.v.r.r.r.r.r.v.v.v.r.r.",
"r.v.v.v.v.v.v.v.v.v.v.v.v.v.v.v.v.r.r.v.v.v.v.b.B B B B B 1.v.v.v.v.c.>.B B B B V n.V.v.v.V.V.V.V.v.v.v.v.r.r.r.r.r.r.r.r.r.r.r.",
"r.r.r.r.v.v.v.v.v.v.v.v.v.v.v.v.v.v.v.V.B.V.b.V B =.=.=.V B 6.v.B.V.1.B B T =.=.=.V =.n.b.V V B -.V.v.v.v.r.r.r.r.r.r.r.r.r.r.r.",
"v.v.v.v.v.v.v.v.v.v.v.v.v.v.v.v.v.v.B.=.B B B B >.c.c.C.m.V 1.7.B B B B T b.c.c.c.;.B B B B =.=.=.-.V.v.r.r.r.r.v.v.v.r.r.r.r.r.",
"v.v.v.v.v.v.v.v.w.w.w.w.w.v.v.w.w.q.=.B -.-.=.=.c.C.C.C.Z.&.N B B B B =.b.C.D.F.C.c.,.B B >.c.C.b.=.-.e.8.t.r.v.v.v.v.v.v.v.v.v.",
"v.v.v.v.v.v.v.w.w.w.w.w.w.w.w.w.4.V B ;.c.C.V.=.c.C.C.C.c.6.T 3.3.5.N &.C.D.~./.D.C.c.V =.c.C.C.Z.m.B B B ,.t.v.v.v.v.v.v.v.v.v.",
"v.v.v.v.v.w.w.w.J.J.J.J.w.4.4.U.-.B ,.c.C.c.&.1.F.F.C.c.7.V P.`.}.0.=.b.F.~._./.Z.C.D.q.9.D.C.C.c.7.N B B B 6.V.v.v.v.v.v.v.v.v.",
"v.v.w.w.w.w.J.J.J.J.J.J.G.<.B B B B N.C.C.c.6.F.].~.D.6.V P.`./.`.0.#.A.~.]././.Z.F.^._._.^.F.C.m.V >.>.>.=.B 2.r.r.r.r.r.v.v.v.",
"J.w.w.J.J.J.J.J.J.J.J.d.Y B ;.1.V B N.F.F.F.Z././._.Y.w.P.`././._.P.M.E.]./././.R.^./././._.~.C.n.#.Z.Z.Z.m.=.;.t.r.r.r.r.r.r.r.",
"J.J.J.J.J.J.J.J.J.J.+.3 p Y V.Z.#.V 7.Q.]./.R./././._.`._././././._.E.W././././.]././././._.~.C.C.Z.C.C.C.Z.7.N I.J.J.J.J.J.J.J.",
"v.v.v.v.v.v.J.J.r.+.3 X   9 z.Z.Z.#.0.!._./.]./././././._.]./././.].]./././.]./././././._./.R.C.C.C.C.C.C.Z.7.N I.J.J.J.J.J.J.J.",
"v.v.v.v.v.v.v.v.i.2 . > q - 2 l.C.Z.R.R./.].].]./././.].~.E.]./.].W.~.]././.E.^.].].].]./.R.C.C.C.Z.Z.Z.Z.b.;.,.n.v.v.v.v.v.v.v.",
"v.v.v.v.v.v.v.v.H X > ) j.r w h.C.C.C.C.R.R.R.R.].].~.R.F.Z.W.].W.D.F.~././.E.R.R.R.R.R.T.C.C.A.l.w w ] n.;.z _ v.v.v.v.v.v.v.v.",
"J.J.J.v.v.h.8 w 2 . q j.%.k.C.C.C.C.C.C.k.c.C.C.T.R.F.c.C.C.D.R.F.c.F.~././.].E.R.C.C.C.C.C.l.8 2     : S x & , i.v.v.v.v.v.v.J.",
"J.J.J.J.h.2 X X X . 8 j.%.z.C.C.C.C.k.k.z.C.C.C.C.C.C.C.C.C.C.C.C.C.E.]./././.]./.Z.C.C.C.C.z.H J J 9   & & O X 1 i.v.v.v.v.J.J.",
"J.J.J.S.5 X & j j p = H $.z.C.C.C.C.x.f.c.C.C.C.C.c.k.z.C.C.C.C.C.C.F.~.]././././.Z.C.C.C.C.C.Z.Z.Z.z.9 . 2 Z > . , S.J.J.J.J.J.",
"v.v.v.d.X & b V V m i = r j.c.C.C.C.C.g.k.C.C.c.k.g.%.%.z.C.C.C.C.C.C.F.~.]._./.K.C.C.C.C.C.C.C.C.C.Z.J   q j.) > . , h.J.J.J.J.",
"v.v.v.i.X u V B B V n z Q %.j.c.C.C.k.%.%.g.g.g.%.%.%.%.k.C.C.C.C.C.z.x.F.F.F.F.C.C.C.C.C.C.C.C.C.C.Z.t 1  .%.$.) > X [ v.v.J.v.",
"v.v.v.i.X u V B B B B B O.%.%.j.g.g.%.%.%.%.%.%.j.c.c.c.z.k.C.C.C.z.%.z.C.C.C.C.C.C.c.k.C.C.C.C.C.C.C.h.) %.%.%.j.1 X [ v.v.v.v.",
"v.v.v.i.X u B V j & & C %.%.%.%.%.%.%.%.c.c.%.f.c.C.C.C.C.z.j.j.g.%.%.f.c.C.C.C.C.C.c.%.j.g.k.C.C.C.x.g.%.%.%.$.9 @ X : h.v.v.v.",
"v.v.v.p.X X s j $ X 7 { %.%.%.%.%.%.%.c.C.C.c.c.C.C.C.C.C.z.%.%.%.k.c.g.f.j.c.C.C.C.c.%.j.c.c.C.c.g.f.%.%.%.%.~ m u X X - @.r.v.",
"r.r.+.- X X + $ . 4 { %.%.%.%.%.%.%.%.c.C.C.C.C.C.C.C.C.C.C.c.k.%.z.C.c.g.%.c.C.C.c.g.f.c.C.C.C.x.%.%.%.%.%.f.:.B m u X X +.r.r.",
"r.@.- X X $ $ # . 7 %.%.{  . .| | %.%.f.c.c.C.C.C.C.c.C.C.C.C.C.k.z.C.C.C.g.%.c.c.g.%.f.c.C.C.C.x.%.%.%.%.%.%.:.B B N & X +.r.r.",
"v.k.@ X u m N h + X 8 { 7 @ % v V } %.%.%.j.c.C.C.x.k.C.C.C.C.C.k.%.z.c.c.g.%.%.%.%.%.%.j.c.c.x.%.%.%.%.| | ! B B B V * X +.v.v.",
"v.h.o & N B B B h + o @ o $ j B B X.%.%.%.%.g.c.c.%.g.c.C.C.C.c.k.%.%.%.%.%.%.%.%.%.%.%.%.%.%.%.%.%.%.O.B V B B B B m & X ( c.v.",
"c.( o & B B B B V h % & + d B B B B X.} %.%.%.%.%.%.%.g.c.c.k.%.%.%.%.%.%.%.%.%.%.%.%.%.%.%.%.%.%.%.%...V B B B m n * X - ( z.v.",
"c.( o & n B B B B B B V d X d N B B =.=.| %.%.%.%.%.%.%.%.%.%.%.%.%.%.%.%.%.%.} %.%.%.%.%.%.%.%.%.%.%.%.O.V B m u X X ; K a.a.H.",
"z.( : X & v n V B B B B V d & v B B } %.%.%.%.%.%.%.%.%.%.%.%.} | %.%.%.%.%.} T } %.%.%.%.} %.%.%.%.%.%.f.~ B d # X X F u.a.s.H.",
"] ] ( : X X & n B B B B B B B B B B } %.%.%.%.%.o.%.%.%.%.%.| *.*.| %.%.%.} T =.| %.%.%.} =.%.%.%.%.%.%.| :.B V d $ X X K a.L.v.",
"I I [ A X X # d V B B B B B B B B B O.%.%.%.%.O.=.%.%.%.%.| ~ *.M :.X.....=.B } %.%.%.%.} =.%.%.%.%.%.f./ B B B V d $ X K [ ] k.",
"U U I A X $ g V B B V B B B B B B B B / ....| *.=.%.%.%.f.O.:.f...*.M =.*.V B ~ %.%.%.../ M X.%.%.%.f.} S b B B B V u X H [ ] I ",
"w.L.a.A X u E B V n g b B B B B B B B B B :.%.} M X.f.f.| *.:.%.%.f.O.} g.~ V B ~ O./ B B B M O.O.O...S u a V B B V u X H [ ] U ",
"H.u.a.K X & x E n p O d V B B B B B B B V %.%.} B M / O.:.N ! f.%.%.f.X.} f.=.B B B B B B B B B B n f u O d V B V x & X K I I q.",
"J.S.a.y.5 X % g p . * v B B B B B B B B B ~ | ! B B B B B B =.o.%.%.f.*.*.~ M B B B B B B B B B B b s a * * b E z % X 5 y.a.S.J.",
"J.H.u.a.` 2 X X X X d E B B B B V B B B B B :.B B B B B B B B =.o.g.X.=.B B B B B B B B B B V B B B V E g O * d & X 6 y.a.u.H.J.",
"J.J.h.] [ ( 8 8 q < & v V V B B g n B B B B B B B B B B B B B B =.! =.B B B B B B B B B B m g V B B V v * X X X 5 8 ( [ u.S.J.J.",
"v.v.c.h.] ] [ [ [ 8 X & s p b E * b V B B B B B B B B V B B B B B B B B B B B B B B B B B n $ d V V b & X 3 F F X [ ] ] h.J.J.J.",
"v.v.v.c.k.h.] ] [ ( X X X X * p $ u m B B B B B B V n d V B B B B V g x V B B B B B B V m p X $ p p * X X 0 s.X X ] h.k.c.v.v.v.",
"v.v.v.v.X c.h.] ] X X X C e : X X X u m B B B B V n & $ g V V V V h $ j V B B B B B N p * X X X X X X , G K a.X ] h.c.v.v.v.v.v.",
"v.v.v.v.X v.c.z.h.X X [ [ [ H r r r C D B B B m u & X X $ u u u u % X & v V B B B B B l e r r r X L L R a.a.X X z.c.v.v.v.v.v.v.",
"v.v.v.v.X v.v.v.c.X X ] ] ] [ [ X X Q Q ^ ^ * _ t t H k X X X X X X X X & * * n B N u * [ [ [ X X X a.a.u.X X X v.v.v.v.v.X v.v.",
"v.v.v.X X X v.v.X X X x.i.] ' ] X X Q Q Q Q X z.[ [ [ ` X X X N N N X X X H H _ & & |.X X X X X X X X X X X X X v.v.v.v.X X v.v.",
"v.v.X X X X X X X X X X c.x.c.X X X X Q Q X X X ] ] ] X X X X  X X X XX X X X X X X |.|.X X X X +XX X X X X X X X v.v.X X X v.v.",
"v.X X +X+X+XX X X X X X X X X X X X X X X X X X X X X X X X |.|.|.|.|.|.X X X X X  X X X.XoXoXOX+X+XX X X X +XX X X X X X X X v.",
"X X +X+X+X+X+X+X+XX X X X X X X +X+XX X X +XX X X X X X X  X|.|.|.|.|.|.|.XX+X+XOXoXoXoXOX+X+X+X+X+X+X+X+X+X+X+XX X X X X +XX X "
};
