/* XPM */
static const char *bot_left3[] = {
/* columns rows colors chars-per-pixel */
"64 64 186 2 ",
"   c #0D112C",
".  c #12162B",
"X  c #161C2E",
"o  c #181E2E",
"O  c #121227",
"+  c #171F30",
"@  c #1A212F",
"#  c #172031",
"$  c #182233",
"%  c #1B2835",
"&  c #1C2C3A",
"*  c #1E323E",
"=  c #222A2E",
"-  c #222C32",
";  c #282D33",
":  c #2E3B34",
">  c #2B3332",
",  c #333E35",
"<  c #313535",
"1  c #354235",
"2  c #3A4636",
"3  c #37433A",
"4  c #3E5038",
"5  c #43463A",
"6  c #415438",
"7  c #4D5D3B",
"8  c #495639",
"9  c #4B603B",
"0  c #54633C",
"q  c #5B6D3E",
"w  c #5E713F",
"e  c #64773F",
"r  c #1F3541",
"t  c #1F3845",
"y  c #213B45",
"u  c #24454C",
"i  c #274D52",
"p  c #284E53",
"a  c #295155",
"s  c #2A5659",
"d  c #2C5B5D",
"f  c #3E5543",
"g  c #33635E",
"h  c #2A5D61",
"j  c #2E6262",
"k  c #2F6868",
"l  c #316664",
"z  c #316966",
"x  c #326D6A",
"c  c #35736E",
"v  c #3E7E6E",
"b  c #347772",
"n  c #377A73",
"m  c #397C74",
"M  c #367B7F",
"N  c #506F4D",
"B  c #5E7A40",
"V  c #51704D",
"C  c #49775A",
"Z  c #52734C",
"A  c #626342",
"S  c #647B41",
"D  c #6A7D41",
"F  c #7B7B49",
"G  c #477F68",
"H  c #517261",
"J  c #577D66",
"K  c #407F71",
"L  c #398077",
"P  c #398178",
"I  c #5E8454",
"U  c #578C5F",
"Y  c #5B8E5C",
"T  c #5F905A",
"R  c #6C8142",
"E  c #6D8C43",
"W  c #6C8C4E",
"Q  c #768E45",
"!  c #798E44",
"~  c #799145",
"^  c #7A9D46",
"/  c #749C4D",
"(  c #799E4A",
")  c #749545",
"_  c #669455",
"`  c #699654",
"'  c #6E9950",
"]  c #629259",
"[  c #6A925B",
"{  c #729C5D",
"}  c #658952",
"|  c #7DA147",
" . c #7CA148",
".. c #7CA259",
"X. c #4D8665",
"o. c #44816D",
"O. c #4B866D",
"+. c #4E896C",
"@. c #528963",
"#. c #588D67",
"$. c #528B6A",
"%. c #598A6D",
"&. c #5D9165",
"*. c #5F9669",
"=. c #578C70",
"-. c #5F8D75",
";. c #448272",
":. c #649562",
">. c #689661",
",. c #6B9A62",
"<. c #67956E",
"1. c #739C6E",
"2. c #628E74",
"3. c #679175",
"4. c #6FA165",
"5. c #79A863",
"6. c #73A464",
"7. c #8A884C",
"8. c #918F4E",
"9. c #839D48",
"0. c #93914F",
"q. c #9C9A51",
"w. c #A19D52",
"e. c #81A345",
"r. c #84A448",
"t. c #8AA349",
"y. c #84A948",
"u. c #8CAA49",
"i. c #93AD4A",
"p. c #90A448",
"a. c #95B14B",
"s. c #9CB44C",
"d. c #9BB94E",
"f. c #86AA56",
"g. c #8AAC55",
"h. c #81A458",
"j. c #86A858",
"k. c #92AF52",
"l. c #8FB153",
"z. c #93B351",
"x. c #A1B74C",
"c. c #A4B94C",
"v. c #ACBD4F",
"b. c #A5A254",
"n. c #A6BA51",
"m. c #ABBC53",
"M. c #AAB05F",
"N. c #A2B754",
"B. c #BBB65A",
"V. c #BFBA5B",
"C. c #B0BF56",
"Z. c #B0AC57",
"A. c #8DA869",
"S. c #9CAA61",
"D. c #AFBE6A",
"F. c #B3C157",
"G. c #B3C158",
"H. c #B4C25A",
"J. c #BAC55D",
"K. c #BEC761",
"L. c #BDC769",
"P. c #C1C963",
"I. c #C5CB66",
"U. c #C7CC67",
"Y. c #C6CC67",
"T. c #C5CB66",
"R. c #C9CD67",
"E. c #CCCF67",
"W. c #C8CD68",
"Q. c #CACE69",
"!. c #C8CD68",
"~. c #CED066",
"^. c #377D81",
"/. c #3A8487",
"(. c #3A8588",
"). c #3B898B",
"_. c #3D8E90",
"`. c #3F9394",
"'. c #409697",
"]. c #429C9C",
"[. c #409798",
"{. c #43A09F",
"}. c #45A6A5",
"|. c #46A8A7",
" X c #47ABA9",
".X c #47ABA9",
/* pixels */
"X X d.d.d.d.d.d.X X V.V.V.V.V.5.5.5.5.5.5.5.5.5.5.5.5.5.5.5.5.5.5.5.5.5.5.5.5.5.5.5.5.5.5.5.5.5.5.5.5.5.5.5.5.5.5.5.5.5.5.5.5.5.",
" XX X X X X X X X V.V.V.d.5.5.5.d.d.d.5.5.5.5.5.5.5.5.5.5.5.5.5.5.5.5.5.5.5.5.5.3.3.3.3.5.5.5.5.5.5.5.5.5.5.5.5.5.5.5.5.5.d.d.d.",
" X XX X X X X X X V.V.d.d.d.d.d.d.d.d.d.d.d.d.5.5.5.5.5.5.5.5.5.5.5.5.5.5.5.5.3.3.3.3.3.3.d.d.d.d.d.d.d.d.3.3.3.3.5.5.5.d.d.d.d.",
" XX X X X X X X X V.V.d.d.d.d.d.d.d.5.5.5.5.5.5.5.5.5.5.5.5.5.5.5.5.5.3.3.3.5.3.3.3.3.3.3.3.3.3.3.3.d.d.3.3.3.3.3.3.3.5.d.d.d.d.",
"X X X 5.5.5.5.X X V.d.d.d.d.d.d.d.d.d.d.5.5.5.5.5.5.5.5.5.5.5.5.5.5.3.3.3.3.3.3.3.3.3.3.3.3.3.3.3.3.3.3.3.V.V.V.3.3.3.3.d.d.d.V.",
"X X 5.5.5.5.5.X X X d.d.d.d.d.d.d.d.d.d.d.d.5.5.5.5.5.5.5.5.5.5.5.3.3.3.3.3.V.V.V.V.3.3.3.3.V.V.V.V.3.3.V.V.V.V.V.3.3.3.3.V.V.V.",
"X X 5.5.5.5.5.5.X X X 5.5.5.d.d.d.d.d.d.d.d.d.d.d.d.5.5.5.5.5.5.5.3.3.3.V.V.V.V.V.V.V.3.3.V.V.V.V.V.V.V.V.V.V.V.V.V.V.V.V.V.d.d.",
"X X 5.5.5.5.5.5.5.5.5.5.5.5.d.d.d.d.d.d.d.d.d.d.d.d.5.5.5.5.5.3.3.3.3.V.V.V.V.V.V.V.V.3.V.V.V.V.V.V.V.V.V.V.V.V.V.V.V.V.V.V.d.d.",
"X X 5.5.5.5.5.d.d.d.d.5.5.5.5.5.5.d.d.d.d.d.d.d.d.d.d.V.V.V.V.V.V.3.V.V.V.V.V.V.V.V.V.V.V.V.V.V.V.V.V.V.V.V.V.V.V.V.V.V.V.V.d.V.",
"X X X 5.5.X d.d.d.d.d.d.d.d.d.d.d.d.d.d.d.d.d.d.d.d.V.V.d.d.V.V.V.V.V.V.V.V.V.V.V.V.V.V.V.V.V.V.V.V.V.V.V.V.V.V.V.V.V.V.V.V.V.V.",
"X X X X X X V.V.d.d.d.d.d.d.d.d.d.d.d.d.d.d.d.d.d.d.V.d.d.d.d.V.V.V.V.V.V.V.V.d.d.d.V.V.V.V.V.d.d.V.V.V.V.d.d.V.V.V.V.V.V.V.V.V.",
" XX X X X V.V.V.V.V.d.d.d.d.d.d.d.d.d.d.d.d.d.d.d.d.d.d.d.d.d.d.d.d.d.V.V.V.d.d.d.d.d.V.V.d.d.d.d.d.d.V.d.d.d.d.V.V.V.V.V.V.V.V.",
" XX X X d.d.V.V.V.V.V.V.V.V.V.V.V.V.V.d.d.d.d.d.d.d.d.d.d.d.d.d.d.d.d.d.V.V.d.d.d.d.d.V.d.d.d.d.d.d.d.d.d.d.d.d.V.V.V.V.V.V.V.V.",
"X X X d.d.d.V.V.V.d.d.d.d.d.d.d.d.d.d.d.d.d.d.d.d.d.d.d.d.d.d.d.d.d.d.d.d.d.d.d.d.d.d.V.d.d.d.d.d.d.d.d.d.d.d.d.V.V.V.V.V.d.d.d.",
"X X d.d.d.d.X d.d.d.d.d.5.5.5.5.5.5.d.d.d.d.d.d.d.d.d.d.d.d.d.d.d.d.d.d.d.d.d.d.d.d.d.d.d.d.d.d.d.d.d.d.d.d.d.d.d.d.d.d.d.d.d.d.",
"X X d.d.d.X X d.d.d.5.5.5.5.5.5.5.5.5.d.5.5.5.5.d.d.d.d.d.d.V.V.V.d.d.d.d.d.d.d.d.d.d.d.d.d.d.d.d.d.d.d.d.d.d.d.d.d.d.d.d.d.d.d.",
"X X X d.X X X 5.5.5.5.5.5.5.5.5.5.5.5.5.5.5.5.5.5.d.d.d.V.V.V.V.V.V.d.d.d.d.d.d.d.d.d.d.5.5.5.d.d.d.d.d.d.d.d.d.d.d.d.d.d.d.d.d.",
" XX X X X X 5.5.5.5.5.5.5.5.5.5.5.5.5.5.5.5.5.5.5.V.V.V.V.V.V.V.V.V.V.V.V.V.5.5.5.d.d.5.5.5.5.5.d.d.d.d.d.d.d.d.d.d.d.d.d.d.d.d.",
" X X X XX X 5.5.5.5.5.d.d.d.d.d.5.5.5.5.5.5.5.5.5.5.5.5.V.V.V.V.V.V.V.V.V.5.5.5.5.5.5.5.d.d.5.5.5.d.d.d.d.d.d.5.5.5.d.d.d.d.d.d.",
" X X X XX X 5.5.5.d.d.d.d.d.d.d.d.5.5.5.d.d.d.5.5.5.5.5.5.5.V.V.V.5.5.5.5.5.d.d.5.5.5.d.d.d.d.5.5.5.d.d.d.d.5.5.5.5.5.d.d.d.5.5.",
" X X X XX X X d.d.d.d.d.d.d.d.d.d.5.5.d.d.d.d.f.n n n n n &.d.d.d.d.s.#.n n n n m g.z.d.d.z.z.z.z.d.d.d.d.5.5.5.5.5.5.5.5.5.5.5.",
" X X XX X X X X d.d.d.d.d.d.d.d.d.d.d.z.l.z.f.m n o.o.o.m n :.d.l.z.&.n n K o.o.o.m o.g.f.m m n O.z.d.d.d.5.5.5.5.5.5.5.5.5.5.5.",
" X XX X X X X X X X X d.d.d.d.d.d.d.l.o.n n n n #.s.s.x.h.m &.>.n n n n K f.s.s.s.+.n n n n o.o.o.O.z.d.5.5.5.5.d.d.d.5.5.5.5.5.",
" XX X X X V.V.X X X X X X d.d.3.3.2.o.n O.O.o.o.s.x.x.x.c...b n n n n o.f.x.n.m.x.s.$.n n #.s.x.f.o.O.4.,.6.5.d.d.d.d.d.d.d.d.d.",
" XX X X V.V.V.V.V.V.X X X X X 3.-.m n +.s.x.z.o.s.x.x.x.s.:.K =.=.;.b ..x.n.P.U.n.x.s.m o.s.x.x.c.h.n n n $.6.d.d.d.d.d.d.d.d.d.",
" XX X V.V.V.V.V.V.V.V.V.V.M.S.S.O.n $.s.x.s...&.m.m.x.s.>.m A.E.~.1.o.f.m.P.R.U.c.x.N.2.<.m.x.x.s.>.b n n n :.z.d.d.d.d.d.d.d.d.",
" XX X V.V.V.V.V.V.V.V.V.M.%.n n n n k.x.x.s.:.m.W.P.N.:.m A.E.U.E.1.{ v.P.W.U.U.c.m.T.R.R.T.m.x.h.m #.#.#.o.n *.5.5.5.5.5.d.d.d.",
" XX X V.V.d.d.d.V.V.V.w.J n +.&.m n k.m.m.m.c.U.U.R.D.3.A.E.U.U.R.A.j.J.W.U.U.U.G.T.U.U.U.R.P.x.g.{ c.c.c.h.o.+.6.5.5.5.5.5.5.5.",
" XX X V.d.d.d.d.d.V.[ 3 y G z.c.{ m >.L.W.U.G.U.U.U.R.E.R.U.U.U.U.R.J.K.R.U.U.U.W.U.U.U.U.R.P.x.x.c.x.x.x.c.>.b A.V.V.V.V.V.V.V.",
" X XX X d.d.d.d.d.[ 3 X   8 i.c.c.{ 1.L.R.U.W.U.U.U.U.U.R.W.U.U.U.R.W.U.U.U.W.U.U.U.U.U.R.T.G.x.x.x.x.x.x.c.>.b A.V.V.V.V.V.V.V.",
" X XX X X d.d.d.9.2 . : 9 - 2 p.x.c.H.H.U.W.W.W.U.U.U.W.P.J.W.U.W.K.P.W.U.U.J.T.W.W.W.W.U.G.x.x.x.c.c.c.c.f.+.$.g.d.d.d.d.d.d.d.",
" X X XX X X d.d.S X : E y.w 0 t.x.x.x.x.G.G.G.H.W.W.P.G.m.n.K.W.K.n.m.P.U.U.J.G.G.G.G.G.F.x.x.v.p.0 0 ! g.+.h W d.d.d.d.d.d.d.d.",
" X X XX X X X 0 2 . 9 y. .u.x.x.x.x.x.x.u.s.x.x.F.G.m.s.x.x.n.G.m.s.m.P.U.U.W.J.H.x.x.x.x.x.p.7 2     > C j & , 9.d.d.d.d.d.d.V.",
" X XX X X X X X X . 7 y. .i.x.x.x.x.u.u.i.x.x.x.x.x.x.x.x.x.x.x.x.x.J.W.U.U.U.W.U.c.x.x.x.x.i.S D D 8   & & O X 1 9.d.d.d.d.V.V.",
" XX X X 5 X & d d y = S | i.x.x.x.x.a.e.s.x.x.x.x.s.u.i.x.x.x.x.x.x.m.P.W.U.U.U.U.c.x.x.x.x.x.c.c.c.i.8 . 2 B : . , b.V.V.V.V.V.",
" XX X w.X & z m m c t = w y.s.x.x.x.x.r.u.x.x.s.u.r. . .i.x.x.x.x.x.x.m.P.W.R.U.C.x.x.x.x.x.x.x.x.x.c.D   9 y.E : . , t.V.V.V.V.",
" XX X 9.X r m n n m x h I  .y.s.x.x.u. . .r.r.r. . . . .u.x.x.x.x.x.i.a.m.m.m.m.x.x.x.x.x.x.x.x.x.x.c.e 1 )  .| E : X ~ d.d.V.d.",
" XX X 9.X r m n n n n n ]  . .y.r.r. . . . . . .y.s.s.s.i.u.x.x.x.i. .i.x.x.x.x.x.x.s.u.x.x.x.x.x.x.x.t.E  . . .y.2 X ~ d.d.d.d.",
" XX X X X r n m d & & N  . . . . . . . .s.s. .e.s.x.x.x.x.i.y.y.r. . .e.s.x.x.x.x.x.s. .y.r.u.x.x.x.a.r. . . .| 8 @ X > t.d.d.d.",
" X XX X X X u d # X 6 ^  . . . . . . .s.x.x.s.s.x.x.x.x.x.i. . . .u.s.r.e.y.s.x.x.x.s. .y.s.s.x.s.r.e. . . . .Y c r X X - [ 5.d.",
" X X`.& X X + # . 4 ^  . . . . . . . .s.x.x.x.x.x.x.x.x.x.x.s.u. .i.x.s.r. .s.x.x.s.r.e.s.x.x.x.a. . . . . .e.@.n c r X X [ 5.5.",
" X].& X X # # + . 6  . .^ ) ) ( (  . .e.s.s.x.x.x.x.s.x.x.x.x.x.u.i.x.x.x.r. .s.s.r. .e.s.x.x.x.a. . . . . . .@.n n b & X [ 5.5.",
" X].# X r b b s + X 7 ^ 6 @ % l m /  . . .y.s.x.x.a.u.x.x.x.x.x.u. .i.s.s.r. . . . . . .y.s.s.a. . . . .( ( U n n n m * X [ d.d.",
" X[.+ & b n n n s + o @ o # d n n `  . . . .r.s.s. .r.s.x.x.x.s.u. . . . . . . . . . . . . . . . . . .] n m n n n n c & X R s.d.",
"|.M X & n n n n m s % & + i n n n n ` /  . . . . . . .r.s.s.u. . . . . . . . . . . . . . . . . . . . ._ m n n n c x * X - R i.d.",
"|.X X & x n n n n n n m i X p b n n o.o.(  . . . . . . . . . . . . . . . . . ./  . . . . . . . . . . . .] m n c r X X ; F 0.0.B.",
"{.X X X & l x m n n n n m i & l m n /  . . . . . . . . . . . ./ (  . . . . ./ K /  . . . ./  . . . . . .e.Y n p # X X A 8.0.q.B.",
"/.X X < X X & x n n n n n n m n n n /  . . . . .'  . . . . .( X.X.(  . . ./ K o.(  . . ./ o. . . . . . .( @.n m p # X X F 0.Z.d.",
"/.X X F X X # p m n n n n n n n n n ]  . . . .] o. . . . .( Y X.v @.` _ _ o.n /  . . . ./ o. . . . . .e.T n n n m i # X F ~ Q u.",
"`.X X F X # a m n n m n n n n n n n n T _ _ ( X.o. . . .e.] @.e._ X.v o.X.m n Y  . . ._ T v `  . . .e./ C z n n n m r X S ~ Q H ",
" XX X X X r P n m x a z n n n n n n n n n @. ./ v ` e.e.( X.@. . .e.] / r.Y m n Y ] T n n n v ] ] ] _ C r u m n n m r X S ~ ~ J ",
"}./.X X X & j L x y O i m n n n n n n n m  . ./ n v T ] @.b U e. . .e.` / e.o.n n n n n n n n n n x p r O p m n m j & X F H H 2.",
"|.[.(.M X X % a y . * l m n n n n n n n n Y ( U n n n n n n o.'  . .e.X.X.Y v n n n n n n n n n m z u u * * z P h % X 5 7.0.b.V.",
" X}./.(.^.X X X X X p P n n n n m n n n n n @.n n n n n n n n o.' r.` o.n n n n n n n n n n m n n n m P a O r i & X 5 7.0.8.B.V.",
" X|.[./.X X X 7 7 , & l m m n n a x n n n n n n n n n n n n n n o.U o.n n n n n n n n n n c a m n n m l * X X X 5 7 R ~ 8.b.V.V.",
" X X|.].X X ~ ~ ~ 7 X & u y z L * z m n n n n n n n n m n n n n n n n n n n n n n n n n n x # p m m z & X 3 A A R ~ Q Q t.V.V.V.",
" X X X|.X X Q Q ~ R 1 X X . * y # r c n n n n n n m x p m n n n n m a j m n n n n n n m c y X # y y & X X X X X ~ Q t.u.s.d.d.d.",
" X X X XX X t.Q Q ~ R q q X X X X X r c n n n n m x & # a m m m m s # d m n n n n n b y * X X X X X X , q D ~ X X t.s.d.d.d.d.d.",
" X X X X XX X i.t.Q ~ ~ ~ X X X X X X * c n n c r & X X # r r r r % X & l m n n n n n g q w X X w w w D ~ ~ Q X X X X d.d.d.d.d.",
" X X X X XX X X s.a.9.Q X X X X X X X (./.* * & X X N f X X X X X X X X & * * x n n } W ~ ~ X X X ~ ~ ~ Q t.a.X X X X X d.d.d.d.",
" X X X X X XX X X X X X X X (./././././././.).].X X I Z V V V V X X X X X X X & & & Q ! Q Q X X X X Q 9.a.s.X X X X X X d.d.d.d.",
" X X X X X X XX X X X X X }.}._./.(.(././.).}.}.(.X X I I I I X X X (.X X X X X /.X X Q Q X X X  XX X X X X X X X  XX X X d.d.d.",
" X X X X X X X X X X X X X X X|.}.}.}.).).}. X}.(.X X X X X X X X X /././.(.{.}.).X X X X X X |. X XX X X X X X  X X XX X X d.d.",
" X X X X X X X X X X X X X X X X X X X|.|. X X}.(./.X X X X X X X /./././.]. X X|.}.X X X X  X X X X X X X X X X X X X X XX X X "
};
