/* XPM */
static const char *bot_right1[] = {
/* columns rows colors chars-per-pixel */
"64 64 186 2 ",
"   c #0D112C",
".  c #13162B",
"X  c #161C2E",
"o  c #181E2E",
"O  c #121227",
"+  c #171E30",
"@  c #1B222F",
"#  c #172031",
"$  c #192333",
"%  c #1A2837",
"&  c #1C2C3A",
"*  c #1E323E",
"=  c #21292F",
"-  c #202830",
";  c #2E3B34",
":  c #2B3636",
">  c #323E34",
",  c #2F403B",
"<  c #354236",
"1  c #3C4B37",
"2  c #3E4139",
"3  c #3A4636",
"4  c #405238",
"5  c #49563A",
"6  c #465A3A",
"7  c #4B5B3A",
"8  c #404936",
"9  c #4C613B",
"0  c #53633C",
"q  c #5B6B3E",
"w  c #5E713F",
"e  c #5E793F",
"r  c #66743F",
"t  c #1F3541",
"y  c #213C45",
"u  c #213E48",
"i  c #26484E",
"p  c #24434A",
"a  c #3F5744",
"s  c #274D52",
"d  c #284E53",
"f  c #295256",
"g  c #2B5759",
"h  c #2C5B5C",
"j  c #2A5E61",
"k  c #2E6161",
"l  c #2F6868",
"z  c #306764",
"x  c #316966",
"c  c #326C69",
"v  c #34736D",
"b  c #3E7E6F",
"n  c #347672",
"m  c #377A73",
"M  c #397C74",
"N  c #2E7575",
"B  c #435C46",
"V  c #4D6A4B",
"C  c #4B6844",
"Z  c #506E4C",
"A  c #5E7940",
"S  c #476358",
"D  c #49775A",
"F  c #567750",
"G  c #667A41",
"H  c #6A7C41",
"J  c #7B7A48",
"K  c #407B69",
"L  c #517261",
"P  c #587C68",
"I  c #407F72",
"U  c #398178",
"Y  c #398077",
"T  c #5E8454",
"R  c #578C5F",
"E  c #5B8E5C",
"W  c #5F905A",
"Q  c #6E8443",
"!  c #6E8D43",
"~  c #68884D",
"^  c #768E45",
"/  c #798D43",
"(  c #739445",
")  c #799145",
"_  c #749C4C",
"`  c #799F4A",
"'  c #799C46",
"]  c #648956",
"[  c #668D59",
"{  c #608555",
"}  c #669455",
"|  c #699654",
" . c #6E9950",
".. c #629259",
"X. c #6B955C",
"o. c #729D5D",
"O. c #7B9850",
"+. c #7DA147",
"@. c #7CA148",
"#. c #7BA15A",
"$. c #4D8665",
"%. c #44826D",
"&. c #49856D",
"*. c #4E8A6C",
"=. c #528963",
"-. c #588D67",
";. c #538B69",
":. c #56896E",
">. c #5C9165",
",. c #5F9669",
"<. c #458272",
"1. c #578C70",
"2. c #5D8C75",
"3. c #629463",
"4. c #689661",
"5. c #6C9C63",
"6. c #67956C",
"7. c #719B6F",
"8. c #608E75",
"9. c #679175",
"0. c #6FA166",
"q. c #74A463",
"w. c #79A863",
"e. c #918F4E",
"r. c #839C48",
"t. c #93914F",
"y. c #87864C",
"u. c #81A346",
"i. c #84A548",
"p. c #8AA249",
"a. c #83A949",
"s. c #8CAA49",
"d. c #90A448",
"f. c #92AD4A",
"g. c #96B14B",
"h. c #9CB44C",
"j. c #9BB94E",
"k. c #84A657",
"l. c #86AB56",
"z. c #8BAD54",
"x. c #83A658",
"c. c #91AE52",
"v. c #8FB252",
"b. c #93B351",
"n. c #A1B74C",
"m. c #A3B94C",
"M. c #A9A555",
"N. c #A7BA50",
"B. c #ABBD53",
"V. c #A6B459",
"C. c #BFBA5B",
"Z. c #BAB55A",
"A. c #8CAA6C",
"S. c #91AD6B",
"D. c #AFBE6A",
"F. c #AAC04C",
"G. c #B2C057",
"H. c #B3C159",
"J. c #BAC55D",
"K. c #BEC761",
"L. c #BEC765",
"P. c #C1C963",
"I. c #C5CB66",
"U. c #C7CC67",
"Y. c #C6CC67",
"T. c #C7CC67",
"R. c #C9CD67",
"E. c #CCCF67",
"W. c #C8CD68",
"Q. c #C8CD68",
"!. c #CACE69",
"~. c #C8CD68",
"^. c #CED066",
"/. c #3A8487",
"(. c #3A8688",
"). c #3C8A8C",
"_. c #3D8E90",
"`. c #3E9192",
"'. c #409697",
"]. c #429C9C",
"[. c #409798",
"{. c #43A09F",
"}. c #45A6A5",
"|. c #46A8A7",
" X c #47ABA9",
".X c #47ABA9",
/* pixels */
"j.j.j.j.j.C.C.C.C.C.C.C.C.C.C.w.w.w.w.w.w.w.w.w.w.w.w.w.w.w.w.w.w.w.w.w.w.w.w.w.w.w.w.w.w.w.w.w.w.w.w.w.w.j.j.j.j.j.j.j.j.j.j.X ",
"j.j.j.j.j.j.C.C.C.C.C.C.j.w.w.w.j.j.j.w.w.w.w.w.w.w.w.w.w.w.w.w.w.w.w.w.w.w.w.w.9.9.9.9.w.w.w.w.w.w.w.w.w.w.w.w.j.j.j.j.j.j.j.X ",
"j.j.C.C.C.C.C.C.C.C.C.j.j.j.j.j.j.j.j.j.j.j.j.w.w.w.w.w.w.w.w.w.w.w.w.w.w.w.w.9.9.9.9.9.9.w.w.X X X X X w.w.w.w.w.j.j.j.j.j.j.X ",
"C.C.C.C.C.C.C.C.C.C.C.j.j.j.j.j.j.j.w.w.w.w.w.w.w.w.w.w.w.w.w.w.w.w.w.9.9.9.w.9.9.9.9.9.9.w.X X X X X X X w.X X X X j.j.j.j.X X ",
"C.C.C.C.C.C.C.C.C.C.j.j.j.j.j.j.j.j.j.j.w.w.w.w.w.w.w.w.w.w.w.w.w.w.9.9.9.9.9.9.9.9.9.9.9.X X X C.C.X X X X X X X X X j.j.X X X ",
"j.j.j.j.j.C.C.C.C.C.j.j.j.j.j.j.j.j.j.j.j.j.w.w.w.w.w.w.w.w.w.w.w.9.9.9.9.9.C.C.C.C.9.9.9.C.C.C.C.C.C.C.X X C.C.C.X X X X X X X ",
"j.j.j.j.j.j.C.C.C.C.C.j.C.C.j.j.j.j.j.j.j.j.j.j.j.j.w.w.w.w.w.w.w.9.9.9.C.C.C.C.C.C.C.9.9.C.C.C.C.C.C.C.C.C.C.C.C.C.X X X X X  X",
"j.j.j.j.j.j.j.j.C.C.C.C.C.C.C.j.j.j.j.j.j.j.j.j.j.j.w.w.w.w.w.9.9.9.9.C.C.C.C.C.C.C.C.9.C.C.C.C.C.C.C.C.C.C.C.C.C.C.C.X X X  X X",
"C.C.j.j.j.j.j.j.j.C.C.C.j.j.j.C.j.j.j.j.j.j.j.j.j.j.j.C.C.C.C.C.C.9.C.C.C.C.C.C.C.C.C.C.C.C.C.C.C.C.C.C.C.C.C.C.C.C.X X X X  X X",
"C.C.C.j.j.j.j.j.j.j.j.j.j.j.j.j.j.j.j.j.j.j.j.j.j.j.C.C.j.j.C.C.C.C.C.C.C.C.C.C.C.C.C.C.C.C.C.C.C.C.C.C.C.C.C.C.C.C.C.C.X X X  X",
"C.C.C.j.j.j.C.C.j.j.j.j.j.j.j.j.j.j.j.j.j.j.j.j.j.j.C.j.j.j.j.C.C.C.C.C.C.C.C.j.j.j.C.C.C.C.C.j.j.C.C.C.C.j.j.j.j.C.C.C.C.X X  X",
"C.C.C.j.j.C.C.C.C.C.j.j.j.j.j.j.j.j.j.j.j.j.j.j.j.j.j.j.j.j.j.j.j.j.j.C.C.C.j.j.j.j.j.C.C.j.j.j.j.j.j.C.j.j.j.j.j.j.C.C.C.X X  X",
"C.C.C.C.C.C.C.C.C.C.C.C.C.C.C.C.C.C.C.j.j.j.j.j.j.j.j.j.j.j.j.j.j.j.j.j.C.C.j.j.j.j.j.C.j.j.j.j.j.j.j.j.j.j.j.j.j.j.C.C.C.X X  X",
"C.C.C.C.C.C.C.C.C.j.j.j.j.j.j.j.j.j.j.j.j.j.j.j.j.j.j.j.j.j.j.j.j.j.j.j.j.j.j.j.j.j.j.C.j.j.j.j.j.j.j.j.j.j.j.j.j.j.C.C.X X X  X",
"j.j.j.j.j.j.j.j.j.j.j.j.w.w.w.w.w.w.j.j.j.j.j.j.j.j.j.j.j.j.j.j.j.j.j.j.j.j.j.j.j.j.j.j.j.j.j.j.j.j.j.j.j.j.j.j.j.j.X X X X  X X",
"j.j.j.j.j.j.j.j.j.j.w.w.w.w.w.w.w.w.w.j.w.w.w.w.j.j.j.j.j.j.C.C.C.j.j.j.j.j.j.j.j.j.j.j.j.j.j.j.j.j.j.j.j.j.j.j.j.X X X X X  X X",
"j.j.j.j.j.j.j.j.w.w.w.w.w.w.w.w.w.w.w.w.w.w.w.w.w.j.j.j.C.C.C.C.C.C.j.j.j.j.j.j.j.j.j.j.w.w.w.j.j.j.j.j.j.j.j.j.j.j.X X X X X  X",
"j.j.j.j.j.j.j.w.w.w.w.w.w.w.w.w.w.w.w.w.w.w.w.w.w.C.C.C.C.C.C.C.C.C.C.C.C.C.w.w.w.j.j.w.w.w.w.w.j.j.j.j.j.j.j.j.j.j.j.j.X X X  X",
"j.j.j.j.j.w.w.w.w.w.w.j.j.j.j.j.w.w.w.w.w.w.w.w.w.w.w.w.C.C.C.C.C.C.C.C.C.w.w.w.w.w.w.w.j.j.w.w.w.j.j.j.j.j.j.w.j.j.j.j.j.X X  X",
"j.j.j.w.w.w.w.w.w.w.j.j.j.j.j.j.j.w.w.w.j.j.j.w.w.w.w.w.w.w.C.C.C.w.w.w.w.w.j.j.w.w.w.j.j.j.j.w.w.w.j.j.j.j.w.w.j.j.j.j.j.X X  X",
"w.j.j.j.j.j.j.j.j.j.j.j.j.j.j.j.j.w.w.j.j.j.z.M m m m m -.j.j.j.j.j.>.m m m m m l.b.j.j.b.b.b.b.j.j.j.j.j.w.w.w.w.j.j.j.j.X  X X",
"w.w.w.w.j.j.j.j.j.j.j.j.j.j.j.j.j.j.b.v.b.z.M m %.%.%.M m 3.j.v.b.3.m m I %.%.%.M M z.z.M M m &.q.j.j.j.j.w.w.w.w.w.w.w.X X  X X",
"j.j.j.j.j.j.j.j.j.j.j.j.j.j.j.j.j.v.&.m m m m ;.h.h.n.k.M >.5.m m m m M k.n.h.h.;.m m m m %.%.%.&.q.j.j.w.w.w.w.j.j.j.X X X X  X",
"j.j.j.j.j.j.j.j.9.9.9.9.9.j.j.9.8.M m &.&.&.%.h.n.n.n.m.#.n m m m m I k.m.N.N.m.h.;.m m ;.h.m.l.m &.0.5.q.w.w.j.j.j.X X X X X X ",
"j.j.j.j.j.j.j.9.9.9.9.9.9.9.9.8.I m &.b.n.g.&.h.n.n.n.h.X.I 1.1.<.n #.m.N.P.R.N.n.h.M b h.n.m.z.%.m m m *.5.q.j.j.j.X X w.w.X X ",
"j.j.j.j.j.9.9.9.C.C.C.C.9.2.2.:.m m c.m.n.g.%.h.B.N.m.k.N 7.^.E.S.I o.m.J.W.U.B.n.h.6.6.B.N.n.m.k.m m m m m 3.b.j.j.X w.w.w.X X ",
"j.j.9.9.9.9.C.C.C.C.C.C.V.:.m m m m c.n.n.g.3.B.R.P.N.4.M A.R.U.^.7.o.B.P.U.U.U.N.B.R.R.W.P.B.m.x.M -.-.-.%.m ,.w.w.w.w.w.w.X X ",
"C.9.9.C.C.C.C.C.C.C.C.C.7.m *.>.M m c.B.B.B.m.U.U.R.D.9.A.E.U.U.R.A.k.J.W.U.U.U.H.Y.U.U.U.U.P.m.z.o.m.m.m.x.%.*.q.w.w.w.w.X X  X",
"C.C.C.C.C.C.C.C.C.C.w.] K ;.c.m.o.M 4.L.W.U.H.U.U.U.R.E.R.U.U.U.U.R.J.K.U.U.U.U.W.U.U.U.U.R.P.n.m.m.n.n.n.m.4.n 6.w.w.X X X  X X",
"j.j.j.j.j.j.C.C.w.w.[ ; t O.F.m.m.o.7.L.R.U.W.U.U.U.U.U.U.W.U.U.U.R.W.U.U.U.W.U.U.U.U.U.U.Y.H.n.n.n.n.n.n.m.4.n u X X X X X  X X",
"j.j.j.j.j.j.j.j.j.r.< X   8 q p.m.m.H.H.U.W.W.W.U.U.U.W.P.J.W.U.W.K.P.W.U.U.J.Y.W.W.W.W.U.H.n.n.m.m.m.m.m.z.*.;.z.X X X X  X X X",
"j.j.j.j.j.j.j.j.r.< . > 9 6 0 p.m.n.n.n.H.H.H.H.W.W.P.H.B.m.K.W.K.N.B.P.U.U.J.H.H.H.H.H.G.n.m.N.d.0 0 / z.*.j ~ j.j.X X X X X  X",
"C.C.C.j.j.j.j.j.G X > ! a.s.m.m.n.m.n.s.h.n.n.m.G.H.B.h.n.n.N.H.N.h.B.P.U.U.W.J.H.m.n.n.n.m.d.7 3     : D k & > r.j.X X X X X X ",
"C.C.C.C.j.p.5 7 < . 6 a.@.f.m.n.n.s.s.f.n.n.n.n.n.n.n.n.n.n.n.n.n.n.J.W.U.U.U.W.W.m.n.n.n.m.f.r H H 5   & & O X < X X j.j.X X X ",
"C.C.C.C.M.2 X X X . 6 a.@.g.m.n.n.g.u.h.n.n.n.m.h.s.s.m.n.n.n.n.n.n.J.W.U.U.U.U.G.m.n.n.n.n.m.m.m.m.f.5 . 3 A ; . X r.j.j.j.X X ",
"j.j.j.M.2 X & k k u = A a.a.h.n.n.m.a.i.h.m.h.s.i.+.+.s.n.n.n.n.n.n.N.K.W.W.W.G.n.n.n.n.n.n.n.n.n.n.m.H   9 a.! ; . > p.j.j.X X ",
"j.j.j.r.X & c M M v y @ e +.a.h.m.s.+.+.i.i.i.+.+.+.+.i.m.n.n.n.m.f.g.N.B.B.B.n.n.n.n.n.n.n.n.n.n.n.m.r < ( +.+.! ; X ) j.X X  X",
"j.j.j.r.X t M m m m v k T +.+.a.i.+.+.+.+.+.+.u.h.h.h.f.s.n.n.m.f.+.f.n.n.n.n.n.n.h.s.h.n.n.n.n.n.n.m.p.( +.+.+.a.3 X X X X  X X",
"j.j.j.r.X t M m m m m m ..+.+.+.+.+.+.g.h.+.u.h.n.n.n.n.f.a.a.i.u.+.u.g.n.n.n.n.n.h.u.a.i.s.n.n.n.n.g.u.+.+.+.+.6 @ X X X  X X X",
"j.j.j.r.X t m m g % % C @.+.+.+.+.+.g.n.n.h.h.n.n.n.n.m.g.+.+.@.s.h.s.u.a.h.n.n.n.h.u.u.h.h.n.h.a.a.u.+.+.+.+.E v t X X & [. X X",
"w.w.w.] X X p h # X 6 ' +.+.+.+.+.+.h.n.n.n.n.n.n.n.n.n.n.h.f.+.f.m.h.s.+.g.n.n.h.i.u.h.n.n.n.h.+.+.+.+.+.+.+.=.m v t X X '. X X",
"w.w.[ % X X + $ . 1 +.+.+.+.+.+.+.+.u.h.h.n.n.n.n.h.n.n.n.n.n.s.s.n.n.n.i.+.h.h.i.+.u.h.n.n.n.g.+.+.+.+.+.+.+.=.m m n & X '. X X",
"j.s.- X X % % $ . 4 +.+.+.' ( _ @.+.+.+.u.h.n.n.h.i.n.n.n.n.m.f.+.f.h.h.i.+.+.+.+.+.+.a.h.h.h.+.+.+.+.@.` ` =.m m m M * X X  X X",
"j.p.o X y n m h # X 6 ( ( 1 $ z | +.+.+.+.u.h.h.+.i.h.h.n.n.n.s.+.+.+.+.+.+.+.+.+.+.+.+.+.+.+.+.+.+.+...m M m m m m v & X X |. X",
"j.Q o & m m m m g $ X o o $ h m m } _ _ @.+.+.+.+.+.+.i.h.h.s.+.+.+.+.+.+.+.+.+.+.+.+.+.+.+.+.+.+.+.+.} M m m m v c * X X X }. X",
"j.Q o & m m m m M g & $ . s n m m m m %.` +.+.+.+.+.+.+.+.+.+.+.+.+.+.+.+.+.+._ @.+.+.+.+.+.+.+.+.+.+.+...M m v t X X X X X (.}.",
"f.Q o & c M m m m m M f $ . s v m m %.` +.+.+.+.+.+.+.+.+.+.+._ _ +.+.+.+.+._ I _ +.+.+.@._ +.+.+.+.+.+.u.E m d # X X X X (.).|.",
"^ Q : X & k x M m m m M f * * z m m _ +.+.+.+.@. .+.+.+.+.+.` $.$.` +.+.+._ I %.` +.+.+._ %.+.+.+.+.+.+.` =.m M d $ X X n (.]. X",
"L L Q : X X & x m m m m m M M m m m ..+.+.+.@...%.+.+.+.+.` E $.b =.| } } %.m _ +.+.+.+._ %.+.+.+.+.+.u.W m m m M s $ X X (.(.].",
"P P L S X X $ f M m m m m m m m m m m W } } ` $.%.+.+.+.u...=.u.} $.M %.$.M m E @.+.+.} W b | +.+.+.u._ D l m m m M t X X (././.",
"9.M.t.S X % f M m m M m m m m m m m m m m =.@._ b | u.u.` $.=.+.+.u..._ u.E M m E ..W m m m b ......} D t i M m m M t X X (.(.`.",
"Z.e.t.J X t U m M x d z m m m m m m m m M @.+._ m b W ..=.n R u.+.+.u.| _ u.%.m m m m m m m m m m c d t O s M m M k & X X (.(.}.",
"C.M.t.J X % h Y c t O s M m m m m m m m m E ` R m m m m m m %. .+.+.u.$.$.E b m m m m m m m m m m x p i * * x U k % X X X (.'.|.",
"C.Z.t.y.1 X % s t . * z m m m m m m m m m m =.m m m m m m m m %. .u.| %.m m m m m m m m m m M m m m M U f O t s & X X X (./.}. X",
"C.C.p.^ ^ 1 X X X X s U m m m m M m m m m m m m m m m m m m m m %.R %.m m m m m m m m m m v f M m m M z * X X X X X X (./.[.|. X",
"j.j.j.p.^ Q 0 B B X & k M M M M d c m m m m m m m m m M m m m m m m m m m m m m m m m m m c $ d M M x & X < 0 0 X X /./.[.|. X X",
"j.j.j.j.X X.{ { ] a X & u u u u $ x M m m m m m m M c d M m m m m M f k m m m m m m m M v y X $ u u & X X 7 ) ) ) X X ].|. X X X",
"j.j.j.j.X q.X.T T F , X X X X X X * v m m m m m M c & $ f M M M M g $ h M m m m m m n y * X X X X X X > q H ) ^ ^ X X  X X X X X",
"j.j.j.j.X w.q.o.X.T F X X X V w w w ~ ] v m m v t & X X $ t t t t % X & z M m m m m m h X X X X X X w H ) ) ^ p.f.X X  X X X X X",
"j.j.j.j.X X w.w.q.q.X X X X T ) ) ) ) X & * * & V V Z X X X X X X X X X & * * c m n t * X X X X X X ) ) ^ p.g.j.X X X  X X X X X",
"j.j.j.j.X X X X X X X X X X X ^ ^ ^ X X X /.X X X X X X X X X G G G G G X X X & & & /./././.(.X X X X r.g.j.j.X X X  X X X X X X",
"j.j.j.X X X X X X X X  XX X X X X X X X /.).}.}.X X X /.X X X X ) ) ) X X X (.(./././././.(.(._. XX X X X X X X X  X X X X X X X",
"j.j.X X X  X X X X X X X XX X X X X X ).).}. X}././././.`.X X X X X X X X X {.}.).(.(.(.).}.}.|. X X XX X X X X  X X X X X X X X",
"X X X X  X X X X X X X X X X X X X X X|.|. X X}.(././.`.].(.X X X X X X X ]. X X|.}.}.}.|. X X X X X X X X X X X X X X X X X X X"
};
