/* XPM */
static const char *bot_7[] = {
/* columns rows colors chars-per-pixel */
"64 64 190 2 ",
"   c #0D112C",
".  c #13162B",
"X  c #161C2E",
"o  c #181E2E",
"O  c #121227",
"+  c #171E30",
"@  c #1B222F",
"#  c #172031",
"$  c #192333",
"%  c #1A2837",
"&  c #1C2C3A",
"*  c #1E323E",
"=  c #21292F",
"-  c #222B32",
";  c #282D33",
":  c #2B3432",
">  c #2C3936",
",  c #333E35",
"<  c #364236",
"1  c #3C4B37",
"2  c #3D4138",
"3  c #3A4636",
"4  c #434739",
"5  c #405238",
"6  c #49563A",
"7  c #465A3A",
"8  c #4C5D3B",
"9  c #56583F",
"0  c #4C613B",
"q  c #53633C",
"w  c #5B6C3E",
"e  c #5E713F",
"r  c #5E793F",
"t  c #63743F",
"y  c #1F3541",
"u  c #213B45",
"i  c #213E48",
"p  c #26484E",
"a  c #24434A",
"s  c #274D52",
"d  c #284E53",
"f  c #295256",
"g  c #2C5B5C",
"h  c #2B5759",
"j  c #3E5543",
"k  c #33635E",
"l  c #2A5E61",
"z  c #2E6161",
"x  c #2F6868",
"c  c #306764",
"v  c #316966",
"b  c #326C69",
"n  c #34726D",
"m  c #3E7E6F",
"M  c #347574",
"N  c #377A73",
"B  c #397C73",
"V  c #2E7575",
"C  c #5E7940",
"Z  c #476358",
"A  c #49775A",
"S  c #4F724F",
"D  c #626342",
"F  c #6E6F45",
"G  c #657940",
"H  c #6B7A40",
"J  c #7C7B49",
"K  c #717146",
"L  c #407F6D",
"P  c #417665",
"I  c #517261",
"U  c #597C68",
"Y  c #407F72",
"T  c #807F4A",
"R  c #398178",
"E  c #398077",
"W  c #5E8354",
"Q  c #55815B",
"!  c #578C5F",
"~  c #5B8E5D",
"^  c #5E905B",
"/  c #6D8343",
"(  c #6E8D43",
")  c #6A894C",
"_  c #768E45",
"`  c #788E44",
"'  c #739445",
"]  c #7A9245",
"[  c #759C4C",
"{  c #799F4A",
"}  c #799C46",
"|  c #668D59",
" . c #648A57",
".. c #669456",
"X. c #699654",
"o. c #6D9851",
"O. c #619259",
"+. c #6A935B",
"@. c #6D995F",
"#. c #729C5D",
"$. c #7B9850",
"%. c #7DA147",
"&. c #7CA148",
"*. c #7BA15A",
"=. c #4D8665",
"-. c #44826D",
";. c #49856C",
":. c #4E8A6C",
">. c #4F8864",
",. c #528962",
"<. c #588D67",
"1. c #538B69",
"2. c #56896E",
"3. c #5C9165",
"4. c #5F9669",
"5. c #458272",
"6. c #578C70",
"7. c #5D8C75",
"8. c #629463",
"9. c #689661",
"0. c #6C9C63",
"q. c #68956C",
"w. c #719B6F",
"e. c #628E74",
"r. c #679175",
"t. c #6FA166",
"y. c #79A863",
"u. c #73A464",
"i. c #89884C",
"p. c #908F4E",
"a. c #829C48",
"s. c #93914F",
"d. c #9B9851",
"f. c #81A346",
"g. c #84A548",
"h. c #89A349",
"j. c #83A949",
"k. c #8CAA49",
"l. c #90A448",
"z. c #92AD4A",
"x. c #96B14B",
"c. c #9CB44C",
"v. c #9BB94E",
"b. c #84A657",
"n. c #86AB56",
"m. c #8BAD54",
"M. c #83A658",
"N. c #91AE52",
"B. c #8FB252",
"V. c #93B351",
"C. c #A1B74C",
"Z. c #A3B94C",
"A. c #A5A254",
"S. c #AAA655",
"D. c #B0AC57",
"F. c #A7BA50",
"G. c #ABBD53",
"H. c #A6B459",
"J. c #BAB65A",
"K. c #BFBA5B",
"L. c #8CAA6C",
"P. c #8FA363",
"I. c #91AD6B",
"U. c #AFBE6A",
"Y. c #AAC04C",
"T. c #B2C057",
"R. c #B3C159",
"E. c #BAC55D",
"W. c #BDC760",
"Q. c #BEC764",
"!. c #BEC765",
"~. c #C1C963",
"^. c #C5CB66",
"/. c #C7CC67",
"(. c #C6CC67",
"). c #C7CC67",
"_. c #C9CD67",
"`. c #CCCF67",
"'. c #C8CD68",
"]. c #C8CD68",
"[. c #CACE69",
"{. c #C8CD68",
"}. c #CED066",
"|. c #3A8487",
" X c #3A8688",
".X c #3C8A8C",
"XX c #439F9E",
"oX c #46A7A5",
"OX c #46A8A6",
"+X c #47ABA9",
/* pixels */
"v.v.v.v.v.K.K.K.K.K.K.K.K.K.K.y.y.y.y.y.y.y.y.y.y.y.y.y.y.y.y.y.y.y.y.y.y.y.y.y.y.y.y.y.y.y.y.y.y.y.y.y.y.y.y.y.y.y.y.y.y.y.y.y.",
"v.v.v.v.v.v.K.K.K.K.K.K.v.y.y.y.v.v.v.y.y.y.y.y.y.y.y.y.y.y.y.y.y.y.y.y.y.y.y.y.r.r.r.r.y.y.y.y.y.y.y.y.y.y.y.y.y.y.y.y.y.v.v.v.",
"v.v.K.K.K.K.K.K.K.K.K.v.v.v.v.v.v.v.v.v.v.v.v.y.y.y.y.y.y.y.y.y.y.y.y.y.y.y.y.r.r.r.r.r.r.v.v.v.v.v.v.v.v.r.r.r.r.y.y.y.v.v.v.v.",
"K.K.K.K.K.K.K.K.K.K.K.v.v.v.v.v.v.v.y.y.y.y.y.y.y.y.y.y.y.y.y.y.y.y.y.r.r.r.y.r.r.r.r.r.r.r.r.r.r.r.v.v.r.r.r.r.r.r.r.y.v.v.v.v.",
"K.K.K.K.K.K.K.K.K.K.v.v.v.v.v.v.v.v.v.v.y.y.y.y.y.y.y.y.y.y.y.y.y.y.r.r.r.r.r.r.r.r.r.r.r.r.r.r.r.r.r.r.r.K.K.K.r.r.r.r.v.v.v.K.",
"v.v.v.v.v.K.K.K.K.K.v.v.v.v.v.v.v.v.v.v.v.v.y.y.y.y.y.y.y.y.y.y.y.r.r.r.r.r.K.K.K.K.r.r.r.r.K.K.K.K.r.r.K.K.K.K.K.r.r.r.r.K.K.K.",
"v.v.v.v.v.v.K.K.K.K.K.v.K.K.v.v.v.v.v.v.v.v.v.v.v.v.y.y.y.y.y.y.y.r.r.r.K.K.K.K.K.K.K.r.r.K.K.K.K.K.K.K.K.K.K.K.K.K.K.K.K.K.v.v.",
"v.v.v.v.v.v.v.v.K.K.K.K.K.K.K.v.v.v.v.v.v.v.v.v.v.v.y.y.y.y.y.r.r.r.r.K.K.K.K.K.K.K.K.r.K.K.K.K.K.K.K.K.K.K.K.K.K.K.K.K.K.K.v.v.",
"K.K.v.v.v.v.v.v.v.K.K.K.v.v.v.K.v.v.v.v.v.v.v.v.v.v.v.K.K.K.K.K.K.r.K.K.K.K.K.K.K.K.K.K.K.K.K.K.K.K.K.K.K.K.K.K.K.K.K.K.K.K.v.K.",
"K.K.K.v.v.v.v.v.v.v.v.v.v.v.v.v.v.v.v.v.v.v.v.v.v.v.K.K.v.v.K.K.K.K.K.K.K.K.K.K.K.K.K.K.K.K.K.K.K.K.K.K.K.K.K.K.K.K.K.K.K.K.K.K.",
"K.K.K.v.v.v.K.K.v.v.v.v.v.v.v.v.v.v.v.v.v.v.v.v.v.v.K.v.v.v.v.K.K.K.K.K.K.K.K.v.v.v.K.K.K.K.K.v.v.K.K.K.K.v.v.K.K.K.K.K.K.K.K.K.",
"K.K.K.v.v.K.K.K.K.K.v.v.v.v.v.v.v.v.v.v.v.v.v.v.v.v.v.v.v.v.v.v.v.v.v.K.K.K.v.v.v.v.v.K.K.v.v.v.v.v.v.K.v.v.v.v.K.K.K.K.K.K.K.K.",
"K.K.K.K.K.K.K.K.K.K.K.K.K.K.K.K.K.K.K.v.v.v.v.v.v.v.v.v.v.v.v.v.v.v.v.v.K.K.v.v.v.v.v.K.v.v.v.v.v.v.v.v.v.v.v.v.K.K.K.K.K.K.K.K.",
"K.K.K.K.K.K.K.K.K.v.v.v.v.v.v.v.v.v.v.v.v.v.v.v.v.v.v.v.v.v.v.v.v.v.v.v.v.v.v.v.v.v.v.K.v.v.v.v.v.v.v.v.v.v.v.v.K.K.K.K.K.v.v.v.",
"v.v.v.v.v.v.v.v.v.v.v.v.y.y.y.y.y.y.v.v.v.v.v.v.v.v.v.v.v.v.v.v.v.v.v.v.v.v.v.v.v.v.v.v.v.v.v.v.v.v.v.v.v.v.v.v.v.v.v.v.v.v.v.v.",
"v.v.v.v.v.v.v.v.v.v.y.y.y.y.y.y.y.y.y.v.y.y.y.y.v.v.v.v.v.v.K.K.K.v.v.v.v.v.v.v.v.v.v.v.v.v.v.v.v.v.v.v.v.v.v.v.v.v.v.v.v.v.v.v.",
"v.v.v.v.v.v.v.v.y.y.y.y.y.y.y.y.y.y.y.y.y.y.y.y.y.v.v.v.K.K.K.K.K.K.v.v.v.v.v.v.v.v.v.v.y.y.y.v.v.v.v.v.v.v.v.v.v.v.v.v.v.v.v.v.",
"v.v.v.v.v.v.v.y.y.y.y.y.y.y.y.y.y.y.y.y.y.y.y.y.y.K.K.K.K.K.K.K.K.K.K.K.K.K.y.y.y.v.v.y.y.y.y.y.v.v.v.v.v.v.v.v.v.v.v.v.v.v.v.v.",
"v.v.v.v.v.y.y.y.y.y.y.v.v.v.v.v.y.y.y.y.y.y.y.y.y.y.y.y.K.K.K.K.K.K.K.K.K.y.y.y.y.y.y.y.v.v.y.y.y.v.v.v.v.v.v.y.y.y.v.v.v.v.v.v.",
"v.v.v.y.y.y.y.y.y.y.v.v.v.v.v.v.v.y.y.y.v.v.v.y.y.y.y.y.y.y.K.K.K.y.y.y.y.y.v.v.y.y.y.v.v.v.v.y.y.y.v.v.v.v.y.y.y.y.y.v.v.v.y.y.",
"y.v.v.v.v.v.v.v.v.v.v.v.v.v.v.v.v.y.y.v.v.v.m.B N N N N <.v.v.v.v.v.3.N N N N N n.V.v.v.V.V.V.V.v.v.v.v.v.y.y.y.y.y.y.y.y.y.y.y.",
"y.y.y.y.v.v.v.v.v.v.v.v.v.v.v.v.v.v.V.B.V.m.B N -.-.-.B N 8.v.B.V.3.N N Y ;.-.-.B B m.m.B B N ;.u.v.v.v.v.y.y.y.y.y.y.y.y.y.y.y.",
"v.v.v.v.v.v.v.v.v.v.v.v.v.v.v.v.v.B.;.N N N N 1.c.c.C.b.B 3.0.N N N N B b.C.c.c.1.N N N N ;.;.-.;.u.v.v.y.y.y.y.v.v.v.y.y.y.y.y.",
"v.v.v.v.v.v.v.v.r.r.r.r.r.v.v.r.e.B N ;.;.;.-.c.C.C.C.Z.*.M N N N N Y b.Z.F.F.Z.c.1.N N 1.c.Z.n.N ;.t.0.u.y.y.v.v.v.v.v.v.v.v.v.",
"v.v.v.v.v.v.v.r.r.r.r.r.r.r.r.e.Y N ;.V.C.x.;.c.C.C.C.c.@.Y 6.6.5.M *.Z.F.~._.F.C.c.B m c.C.Z.m.;.N N N :.0.u.v.v.v.v.v.v.v.v.v.",
"v.v.v.v.v.r.r.r.K.K.K.K.r.7.7.2.N N N.Z.C.x.;.c.G.F.Z.b.V w.}.`.I.Y #.Z.E.'./.G.C.c.q.q.G.F.C.Z.b.N N N N N 8.V.v.v.v.v.v.v.v.v.",
"v.v.r.r.r.r.K.K.K.K.K.K.H.2.N N N N N.C.C.x.8.G._.~.F.9.B L._./.}.w.#.G.~./././.F.G._._.'.~.G.Z.M.B <.<.<.;.N 4.y.y.y.y.y.v.v.v.",
"K.r.r.K.K.K.K.K.K.K.K.K.q.N :.3.B N N.G.G.G.Z././._.U.r.L.`././._.L.b.E.'./././.R.(././././.~.Z.m.#.Z.Z.Z.M.;.:.u.y.y.y.y.y.y.y.",
"K.K.K.K.K.K.K.K.K.K.y. .P 1.N.Z.#.B 9.!.'./.R./././._.`._././././._.E.W././././.'././././._.~.C.Z.Z.C.C.C.Z.9.M P.K.K.K.K.K.K.K.",
"v.v.v.v.v.v.K.K.y.y.| > y $.Y.Z.Z.#.w.!._./.'././././././.'./././._.'./././.'././././././.(.R.C.C.C.C.C.C.Z.9.M P.K.K.K.K.K.K.K.",
"v.v.v.v.v.v.v.v.v.a.< X   4 w h.Z.Z.R.R./.'.'.'./././.'.~.E.'./.'.W.~.'././.E.(.'.'.'.'./.R.C.C.Z.Z.Z.Z.Z.m.:.1.m.v.v.v.v.v.v.v.",
"v.v.v.v.v.v.v.v.a.< . , 0 7 q h.Z.C.C.C.R.R.R.R.'.'.~.R.G.Z.W.'.W.F.G.~././.E.R.R.R.R.R.T.C.Z.F.l.q q ` m.:.l ) v.v.v.v.v.v.v.v.",
"K.K.K.v.v.v.v.v.G X , ( j.k.Z.Z.C.Z.C.k.c.C.C.Z.T.R.G.C.C.C.F.R.F.c.G.~././.'.E.R.C.C.C.C.Z.l.8 3     : A z & , a.v.v.v.v.v.v.K.",
"K.K.K.K.v.a.6 8 < . 7 j.&.z.Z.C.C.k.k.z.C.C.C.C.C.C.C.C.C.C.C.C.C.C.E.'./././.'.'.Z.C.C.C.Z.z.t H H 6   & & . X < a.v.v.v.v.K.K.",
"K.K.K.K.A.2 X X X . 0 j.&.x.Z.C.C.x.f.c.C.C.C.Z.c.k.k.Z.C.C.C.C.C.C.E.'././././.T.Z.C.C.C.C.Z.Z.Z.Z.z.6 . 3 C , . , A.K.K.K.K.K.",
"v.v.v.S.2 X & z z i = C j.j.c.C.C.Z.j.g.c.Z.c.k.g.%.%.k.C.C.C.C.C.C.F.W.'.'._.T.C.C.C.C.C.C.C.C.C.C.Z.H   0 j.( > . , h.K.K.K.K.",
"v.v.v.a.X & b B B n u @ r %.j.c.Z.k.%.%.g.g.g.%.%.%.%.g.Z.C.C.C.Z.z.x.F.G.G.G.C.C.C.C.C.C.C.C.C.C.C.Z.t < ' %.%.( > X ] v.v.K.v.",
"v.v.v.a.X y B N N N n z W %.%.j.g.%.%.%.%.%.%.f.c.c.c.z.k.C.C.C.z.%.z.C.C.C.C.C.C.c.k.c.C.C.C.C.C.C.Z.h.' %.%.%.j.< X ] v.v.v.v.",
"v.v.v.a.X y B N N N N N O.%.%.%.%.%.%.x.c.%.f.c.C.C.C.C.z.j.j.g.f.%.f.x.C.C.C.C.C.c.f.j.g.k.C.C.C.C.x.j.%.%.%.%.7 @ X : h.v.v.v.",
"v.v.v.a.X y N B h % % S &.%.%.%.%.%.x.C.C.c.c.C.C.C.C.Z.x.%.%.&.k.c.k.f.j.c.C.C.C.c.f.f.c.c.C.c.j.j.f.%.%.%.%.~ n y X X - @.y.v.",
"y.y.y. .X X a g + X 7 } %.%.%.%.%.%.c.C.C.C.C.C.C.C.C.C.C.c.z.%.z.Z.c.k.%.x.C.C.c.g.f.c.C.C.C.c.%.%.%.%.%.%.%.,.N n y X X +.y.y.",
"y.y.| % X X + # . 1 %.%.%.%.%.%.%.%.f.c.c.C.C.C.C.c.C.C.C.C.C.k.k.C.C.C.g.%.c.c.g.%.f.c.C.C.C.x.%.%.%.%.%.%.%.,.N N N & X +.y.y.",
"v.k.- X X % % # . 5 %.%.%.} ' [ &.%.%.%.f.c.C.C.c.g.C.C.C.C.Z.z.%.z.c.c.g.%.&.%.%.%.%.j.c.c.c.%.%.%.%.&.{ { ,.N N N B * X +.v.v.",
"v.h.o X u N N g # X 7 ' ' 1 $ c X.%.%.%.%.f.c.c.%.g.c.c.C.C.C.k.%.%.%.%.%.%.%.%.%.%.%.%.%.%.%.%.%.%.%.O.N B N N N N n & X / v.v.",
"v./ o & N N N B h # X o o $ g N N ..[ [ &.%.%.%.%.%.%.g.c.c.k.%.%.%.%.%.%.%.%.%.%.%.%.%.%.%.%.%.%.%.%...B N N N n b * X - / z.v.",
"v./ o & B N N N B h & # . s N N N N N -.{ %.%.%.%.%.%.%.%.%.%.%.%.%.%.%.%.%.%.[ &.%.%.%.%.%.%.%.%.%.%.%.O.B N n y X X ; J s.s.J.",
"z./ o & b B N N N N B f # . s n N N -.{ %.%.%.%.%.%.%.%.%.%.%.{ { %.%.%.%.%.[ L [ %.%.%.&.[ %.%.%.%.%.%.f.~ N d # X X D p.s.d.J.",
"_ / : X & z v B N N N B f * * c N N [ %.%.%.%.&.o.%.%.%.%.{ X.=.>.{ %.%.%.[ L -.{ %.%.%.[ -.%.%.%.%.%.%.{ ,.N B d # X X J s.D.v.",
"I I / ; X X & v N N N N N B B N N N O.%.%.&.X...,.%.%.%.{ ,.m -.M ,.X...X.-.;.{ %.%.%.%...,.%.%.%.%.%.f.^ N N N B s # X J ] _ k.",
"U U I Z X X # f B N N N N N N N N N N ^ ..{ =.L %.%.%.%...B ..X.=.m -.=.B N ~ &.%.%...O.m X.%.%.%.%.f.[ A b N N N B y X G ] _ I ",
"r.S.s.Z X % f B N N B B N N N N N N N N ,.{ { m ..%.f.{ ,.,.f.%.f...o.f.^ m N ~ O.O.N N N B O.O.O.O...A y p B N N B y X G ] ] U ",
"J.p.s.J X y R N B v d c N N N N N N N B { %.{ N B ^ O.,.M ,.f.%.%.%.X.[ f.=.N N N N N N N N N N N b d y O s B N B z & X J I I e.",
"K.A.s.J X % g E b y O s B N N N N N N N ~ { ~ N N N N N N -.o.%.%.f.,.=.~ L N N N N N N N N N N N v a p * * v R g % X 4 i.s.A.K.",
"K.J.s.i.1 X % s y . * c N N N N N N N N N ,.N N N N N N N N -.o.f.X.-.N N N N N N N N N N N B N N N B R f . * s & X 4 i.s.p.J.K.",
"K.K.h._ _ 1 X X X X s R N N N N B N N N N N N N N N N N N N N -.! -.N N N N N N N N N N N n f B N N B c * X X X 4 8 / ] p.S.K.K.",
"v.v.v.h._ / q q q < & z B B B B d b N N N N N N N N N B N N N N N N B N N N N N N N N N N b # d B B v & X 2 D D X ] _ _ h.K.K.K.",
"v.v.v.v.k.h.] ] ] 8 X & i i i i # v B N N N N N N B b d B N N N N B f z B N N N N N N B n u X # i i & X X 9 d.X X _ h.k.v.v.v.v.",
"v.v.v.v.X v.h._ _ X X X X X X X X * n N N N N N B b & # f B B B B h # g B N N N N N N u * X X X X X X , F J s.X _ h.v.v.v.v.v.v.",
"v.v.v.v.X v.v.z.h.X X e e e e e e e A Q N N N n y & X X # y y y y % X & c B N N N N N k e e e e X K K T s.s.X X z.v.v.v.v.v.v.v.",
"v.v.v.v.X v.v.v.v.X X ] ] ] ] ] X X W W Q Q * ) t t G j X X X X X X X X & * * b N N y * ] ] ] X X X s.s.p.X X X v.v.v.v.v.X v.v.",
"v.v.v.X X X v.v.X X X x.a._ _ _ X X W W W W X z.] ] ] _ X X X M M M X X X G G ) & & |.X X X X X X X X X X X X X v.v.v.v.X X v.v.",
"v.v.X X X X X X X X X X v.x.x.X X X X W W X X X _ _ _ X X X X  X X X XX X X X X X X |.|.X X X X +XX X X X X X X X v.v.X X X v.v.",
"v.X X +X+X+XX X X X X X X X X X X X X X X X X X X X X X X X |.|.|.|.|.|.X X X X X  X X X.XoXoXOX+X+XX X X X +XX X X X X X X X v.",
"X X +X+X+X+X+X+X+XX X X X X X X +X+XX X X +XX X X X X X X  X|.|.|.|.|.|.|.XX+X+XOXoXoXoXOX+X+X+X+X+X+X+X+X+X+X+XX X X X X +XX X "
};
