/* XPM */
static const char *bot_1[] = {
/* columns rows colors chars-per-pixel */
"64 64 189 2 ",
"   c #0D112C",
".  c #13162B",
"X  c #161C2E",
"o  c #181E2E",
"O  c #121227",
"+  c #171E30",
"@  c #1B222F",
"#  c #172031",
"$  c #192333",
"%  c #1A2837",
"&  c #1C2C3A",
"*  c #1E323E",
"=  c #21292F",
"-  c #222B32",
";  c #282D33",
":  c #2B3432",
">  c #2E3B34",
",  c #29373A",
"<  c #333E35",
"1  c #364236",
"2  c #3C4B37",
"3  c #3D4138",
"4  c #3A4636",
"5  c #434739",
"6  c #405238",
"7  c #49563A",
"8  c #465A3A",
"9  c #4C5D3B",
"0  c #56583F",
"q  c #4C613B",
"w  c #53633C",
"e  c #5B6C3E",
"r  c #5E713F",
"t  c #5E793F",
"y  c #63743F",
"u  c #1F3541",
"i  c #213B45",
"p  c #213E48",
"a  c #26484E",
"s  c #24434A",
"d  c #274D52",
"f  c #284E53",
"g  c #295256",
"h  c #2C5B5C",
"j  c #2B5759",
"k  c #3E5543",
"l  c #33635E",
"z  c #2A5E61",
"x  c #2E6161",
"c  c #2F6868",
"v  c #306764",
"b  c #316966",
"n  c #326C69",
"m  c #34726D",
"M  c #3E7E6F",
"N  c #347573",
"B  c #377A73",
"V  c #397C73",
"C  c #2E7575",
"Z  c #5E7940",
"A  c #476358",
"S  c #49775A",
"D  c #4F724F",
"F  c #626342",
"G  c #6E6F45",
"H  c #657940",
"J  c #6B7A40",
"K  c #7C7B49",
"L  c #717146",
"P  c #407B69",
"I  c #517261",
"U  c #597C68",
"Y  c #407F72",
"T  c #807F4A",
"R  c #398178",
"E  c #398077",
"W  c #5E8354",
"Q  c #55815B",
"!  c #578C5F",
"~  c #5B8E5C",
"^  c #5F905A",
"/  c #6D8343",
"(  c #6E8D43",
")  c #6A894C",
"_  c #768E45",
"`  c #788E44",
"'  c #739445",
"]  c #7A9245",
"[  c #749C4C",
"{  c #799F4A",
"}  c #799C46",
"|  c #668D59",
" . c #648A57",
".. c #669455",
"X. c #699654",
"o. c #6E9950",
"O. c #629259",
"+. c #6A935B",
"@. c #6D995F",
"#. c #729C5D",
"$. c #7B9850",
"%. c #7DA147",
"&. c #7CA148",
"*. c #7BA15A",
"=. c #4D8665",
"-. c #44826D",
";. c #49856D",
":. c #4E8A6C",
">. c #528963",
",. c #588D67",
"<. c #538B69",
"1. c #56896E",
"2. c #5C9165",
"3. c #5F9669",
"4. c #458272",
"5. c #578C70",
"6. c #5D8C75",
"7. c #629463",
"8. c #689661",
"9. c #6C9C63",
"0. c #68956C",
"q. c #719B6F",
"w. c #628E74",
"e. c #679175",
"r. c #6FA166",
"t. c #79A863",
"y. c #73A464",
"u. c #89884C",
"i. c #908F4E",
"p. c #829C48",
"a. c #93914F",
"s. c #9B9851",
"d. c #81A346",
"f. c #84A548",
"g. c #89A349",
"h. c #83A949",
"j. c #8CAA49",
"k. c #90A448",
"l. c #92AD4A",
"z. c #96B14B",
"x. c #9CB44C",
"c. c #9BB94E",
"v. c #84A657",
"b. c #86AB56",
"n. c #8BAD54",
"m. c #83A658",
"M. c #91AE52",
"N. c #8FB252",
"B. c #93B351",
"V. c #A1B74C",
"C. c #A3B94C",
"Z. c #A5A254",
"A. c #AAA655",
"S. c #B0AC57",
"D. c #A7BA50",
"F. c #ABBD53",
"G. c #A6B459",
"H. c #BAB65A",
"J. c #BFBA5B",
"K. c #8CAA6C",
"L. c #8FA363",
"P. c #91AD6B",
"I. c #AFBE6A",
"U. c #AAC04C",
"Y. c #B2C057",
"T. c #B3C159",
"R. c #BAC55D",
"E. c #BDC760",
"W. c #BEC764",
"Q. c #BEC765",
"!. c #C1C963",
"~. c #C5CB66",
"^. c #C7CC67",
"/. c #C6CC67",
"(. c #C7CC67",
"). c #C9CD67",
"_. c #CCCF67",
"`. c #C8CD68",
"'. c #C8CD68",
"]. c #CACE69",
"[. c #C8CD68",
"{. c #CED066",
"}. c #3A8487",
"|. c #3A8688",
" X c #3C8A8C",
".X c #439F9E",
"XX c #46A7A5",
"oX c #46A8A6",
"OX c #47ABA9",
/* pixels */
"c.c.c.c.c.J.J.J.J.J.J.J.J.J.J.t.t.t.t.t.t.t.t.t.t.t.t.t.t.t.t.t.t.t.t.t.t.t.t.t.t.t.t.t.t.t.t.t.t.t.t.t.t.t.t.t.t.t.t.t.t.t.t.t.",
"c.c.c.c.c.c.J.J.J.J.J.J.c.t.t.t.c.c.c.t.t.t.t.t.t.t.t.t.t.t.t.t.t.t.t.t.t.t.t.t.e.e.e.e.t.t.t.t.t.t.t.t.t.t.t.t.t.t.t.t.t.c.c.c.",
"c.c.J.J.J.J.J.J.J.J.J.c.c.c.c.c.c.c.c.c.c.c.c.t.t.t.t.t.t.t.t.t.t.t.t.t.t.t.t.e.e.e.e.e.e.c.c.c.c.c.c.c.c.e.e.e.e.t.t.t.c.c.c.c.",
"J.J.J.J.J.J.J.J.J.J.J.c.c.c.c.c.c.c.t.t.t.t.t.t.t.t.t.t.t.t.t.t.t.t.t.e.e.e.t.e.e.e.e.e.e.e.e.e.e.e.c.c.e.e.e.e.e.e.e.t.c.c.c.c.",
"J.J.J.J.J.J.J.J.J.J.c.c.c.c.c.c.c.c.c.c.t.t.t.t.t.t.t.t.t.t.t.t.t.t.e.e.e.e.e.e.e.e.e.e.e.e.e.e.e.e.e.e.e.J.J.J.e.e.e.e.c.c.c.J.",
"c.c.c.c.c.J.J.J.J.J.c.c.c.c.c.c.c.c.c.c.c.c.t.t.t.t.t.t.t.t.t.t.t.e.e.e.e.e.J.J.J.J.e.e.e.e.J.J.J.J.e.e.J.J.J.J.J.e.e.e.e.J.J.J.",
"c.c.c.c.c.c.J.J.J.J.J.c.J.J.c.c.c.c.c.c.c.c.c.c.c.c.t.t.t.t.t.t.t.e.e.e.J.J.J.J.J.J.J.e.e.J.J.J.J.J.J.J.J.J.J.J.J.J.J.J.J.J.c.c.",
"c.c.c.c.c.c.c.c.J.J.J.J.J.J.J.c.c.c.c.c.c.c.c.c.c.c.t.t.t.t.t.e.e.e.e.J.J.J.J.J.J.J.J.e.J.J.J.J.J.J.J.J.J.J.J.J.J.J.J.J.J.J.c.c.",
"J.J.c.c.c.c.c.c.c.J.J.J.c.c.c.J.c.c.c.c.c.c.c.c.c.c.c.J.J.J.J.J.J.e.J.J.J.J.J.J.J.J.J.J.J.J.J.J.J.J.J.J.J.J.J.J.J.J.J.J.J.J.c.J.",
"J.J.J.c.c.c.c.c.c.c.c.c.c.c.c.c.c.c.c.c.c.c.c.c.c.c.J.J.c.c.J.J.J.J.J.J.J.J.J.J.J.J.J.J.J.J.J.J.J.J.J.J.J.J.J.J.J.J.J.J.J.J.J.J.",
"J.J.J.c.c.c.J.J.c.c.c.c.c.c.c.c.c.c.c.c.c.c.c.c.c.c.J.c.c.c.c.J.J.J.J.J.J.J.J.c.c.c.J.J.J.J.J.c.c.J.J.J.J.c.c.J.J.J.J.J.J.J.J.J.",
"J.J.J.c.c.J.J.J.J.J.c.c.c.c.c.c.c.c.c.c.c.c.c.c.c.c.c.c.c.c.c.c.c.c.c.J.J.J.c.c.c.c.c.J.J.c.c.c.c.c.c.J.c.c.c.c.J.J.J.J.J.J.J.J.",
"J.J.J.J.J.J.J.J.J.J.J.J.J.J.J.J.J.J.J.c.c.c.c.c.c.c.c.c.c.c.c.c.c.c.c.c.J.J.c.c.c.c.c.J.c.c.c.c.c.c.c.c.c.c.c.c.J.J.J.J.J.J.J.J.",
"J.J.J.J.J.J.J.J.J.c.c.c.c.c.c.c.c.c.c.c.c.c.c.c.c.c.c.c.c.c.c.c.c.c.c.c.c.c.c.c.c.c.c.J.c.c.c.c.c.c.c.c.c.c.c.c.J.J.J.J.J.c.c.c.",
"c.c.c.c.c.c.c.c.c.c.c.c.t.t.t.t.t.t.c.c.c.c.c.c.c.c.c.c.c.c.c.c.c.c.c.c.c.c.c.c.c.c.c.c.c.c.c.c.c.c.c.c.c.c.c.c.c.c.c.c.c.c.c.c.",
"c.c.c.c.c.c.c.c.c.c.t.t.t.t.t.t.t.t.t.c.t.t.t.t.c.c.c.c.c.c.J.J.J.c.c.c.c.c.c.c.c.c.c.c.c.c.c.c.c.c.c.c.c.c.c.c.c.c.c.c.c.c.c.c.",
"c.c.c.c.c.c.c.c.t.t.t.t.t.t.t.t.t.t.t.t.t.t.t.t.t.c.c.c.J.J.J.J.J.J.c.c.c.c.c.c.c.c.c.c.t.t.t.c.c.c.c.c.c.c.c.c.c.c.c.c.c.c.c.c.",
"c.c.c.c.c.c.c.t.t.t.t.t.t.t.t.t.t.t.t.t.t.t.t.t.t.J.J.J.J.J.J.J.J.J.J.J.J.J.t.t.t.c.c.t.t.t.t.t.c.c.c.c.c.c.c.c.c.c.c.c.c.c.c.c.",
"c.c.c.c.c.t.t.t.t.t.t.c.c.c.c.c.t.t.t.t.t.t.t.t.t.t.t.t.J.J.J.J.J.J.J.J.J.t.t.t.t.t.t.t.c.c.t.t.t.c.c.c.c.c.c.t.t.t.c.c.c.c.c.c.",
"c.c.c.t.t.t.t.t.t.t.c.c.c.c.c.c.c.t.t.t.c.c.c.t.t.t.t.t.t.t.J.J.J.t.t.t.t.t.c.c.t.t.t.c.c.c.c.t.t.t.c.c.c.c.t.t.t.t.t.c.c.c.t.t.",
"t.c.c.c.c.c.c.c.c.c.c.c.c.c.c.c.c.t.t.c.c.c.n.V B B B B ,.c.c.c.c.c.2.B B B B B b.B.c.c.B.B.B.B.c.c.c.c.c.t.t.t.t.t.t.t.t.t.t.t.",
"t.t.t.t.c.c.c.c.c.c.c.c.c.c.c.c.c.c.B.N.B.n.V B -.-.-.V B 7.c.N.B.2.B B Y ;.-.-.V V n.n.V V B ;.y.c.c.c.c.t.t.t.t.t.t.t.t.t.t.t.",
"c.c.c.c.c.c.c.c.c.c.c.c.c.c.c.c.c.N.;.B B B B <.x.x.V.v.V 2.9.B B B B V v.V.x.x.<.B B B B ;.;.-.;.y.c.c.t.t.t.t.c.c.c.t.t.t.t.t.",
"c.c.c.c.c.c.c.c.e.e.e.e.e.c.c.e.w.V B ;.;.;.-.x.V.V.V.C.*.N B B B B Y v.C.D.D.V.x.<.B B <.x.V.b.B ;.r.9.y.t.t.c.c.c.c.c.c.c.c.c.",
"c.c.c.c.c.c.c.e.e.e.e.e.e.e.e.w.Y B ;.B.V.z.;.x.V.V.V.x.@.Y 5.5.4.N *.C.D.!.).D.V.x.V M x.V.C.n.;.B B B :.9.y.c.c.c.c.c.c.c.c.c.",
"c.c.c.c.c.e.e.e.J.J.J.J.e.6.6.1.B B M.V.V.z.;.x.F.D.C.v.C q.{._.P.Y #.C.R.`.^.F.V.x.0.0.F.D.V.C.v.B B B B B 7.B.c.c.c.c.c.c.c.c.",
"c.c.e.e.e.e.J.J.J.J.J.J.G.1.B B B B M.V.V.z.7.F.).!.D.8.V K.).^.{.q.#.F.!.^.^.^.D.F.).).`.!.F.C.m.V ,.,.,.;.B 3.t.t.t.t.t.c.c.c.",
"J.e.e.J.J.J.J.J.J.J.J.J.0.B :.2.V B M.F.F.F.C.^.^.).I.e.K._.^.^.).K.v.R.`.^.^.^.T./.^.^.^.^.!.C.n.#.C.C.C.m.;.:.y.t.t.t.t.t.t.t.",
"J.J.J.J.J.J.J.J.J.J.t. .P <.M.C.#.V 8.Q.`.^.T.^.^.^.)._.).^.^.^.^.).R.E.^.^.^.^.`.^.^.^.^.).!.V.V.C.V.V.V.C.8.N L.J.J.J.J.J.J.J.",
"c.c.c.c.c.c.J.J.t.t.| > u $.U.V.C.#.q.Q.).^.`.^.^.^.^.^.^.`.^.^.^.).`.^.^.^.`.^.^.^.^.^.)./.T.V.V.V.V.V.V.C.8.N L.J.J.J.J.J.J.J.",
"c.c.c.c.c.c.c.c.c.p.1 X . 5 e g.V.C.T.T.^.`.`.`.^.^.^.`.!.R.`.^.`.E.!.`.^.^.R./.`.`.`.`.^.T.V.V.V.C.C.C.C.n.:.<.n.c.c.c.c.c.c.c.",
"c.c.c.c.c.c.c.c.p.1 . < q 8 w g.V.V.V.V.T.T.T.T.`.`.!.T.F.C.E.`.E.D.F.!.^.^.R.T.T.T.T.T.Y.V.V.D.k.w w ` n.:.z ) c.c.c.c.c.c.c.c.",
"J.J.J.c.c.c.c.c.H X < ( h.j.V.V.V.V.V.j.x.V.V.V.Y.T.F.x.V.V.D.T.D.x.F.!.^.^.`.R.T.V.V.V.V.V.k.9 4     : S x & < p.c.c.c.c.c.c.J.",
"J.J.J.J.c.p.7 9 1 . 8 h.&.l.V.V.V.j.j.l.V.V.V.V.V.V.V.V.V.V.V.V.V.V.R.`.^.^.^.`.`.C.V.V.V.V.l.y J J 7   & & O X 1 p.c.c.c.c.J.J.",
"J.J.J.J.Z.3 X X X . q h.&.z.V.V.V.z.d.x.V.V.V.V.x.j.l.V.V.V.V.V.V.V.R.`.^.^.^.^.T.V.V.V.V.V.V.C.C.C.l.7 . 4 Z > . < Z.J.J.J.J.J.",
"c.c.c.A.3 X & x x p = Z h.h.x.V.V.V.f.f.V.V.x.j.f.&.&.j.V.V.V.V.V.V.D.E.`.).).Y.V.V.V.V.V.V.V.V.V.V.C.J   q h.( > . < g.J.J.J.J.",
"c.c.c.p.X & n V V m i @ t %.h.x.V.j.&.&.f.f.f.&.&.&.&.f.V.V.V.V.V.l.z.D.F.F.F.V.V.V.V.V.V.V.V.V.V.V.C.y 1 ' &.d.( > X ] c.c.J.c.",
"c.c.c.p.X u V B B V m x W d.&.h.f.&.&.&.&.&.&.d.x.x.x.l.j.V.V.V.l.&.l.V.V.V.V.V.V.x.j.V.V.V.V.V.V.V.V.g.' &.&.&.h.1 X ] c.c.c.c.",
"c.c.c.p.X u V B B B B B O.&.&.&.&.&.&.z.x.&.d.x.V.V.V.V.l.h.f.f.d.&.d.z.V.V.V.V.V.x.d.h.f.j.V.V.V.V.z.d.&.&.&.%.8 @ X : g.c.c.c.",
"c.c.c.p.X u B V j % % D &.&.&.&.&.&.z.V.V.x.x.V.V.V.V.V.z.&.&.&.j.x.j.d.h.x.V.V.V.x.d.d.x.x.V.x.d.d.d.&.&.&.&.~ m u X X - @.t.c.",
"t.t.t. .X X s h + X 8 } &.&.&.&.&.&.x.V.V.V.V.V.V.V.V.V.V.x.l.&.l.V.V.j.&.z.V.V.x.f.d.x.V.V.V.x.&.&.&.&.&.&.d.>.B m u X X +.t.t.",
"t.t.| % X X + # . 2 &.&.&.&.&.&.&.&.d.x.x.V.V.V.V.x.V.V.V.V.V.j.j.V.V.V.f.&.x.x.f.&.d.x.V.V.V.z.&.&.&.&.&.&.&.>.B B B & X +.t.t.",
"c.j.- X X % % # . 2 &.&.&.} ' [ &.&.&.&.d.x.V.V.x.f.V.V.V.V.V.l.&.l.x.x.f.&.&.&.&.&.&.h.x.x.x.&.&.&.&.&.{ { ! B B B V * X +.c.c.",
"c.g.o X i B B h # X 8 ' ' 2 $ v X.&.&.&.&.d.x.x.&.f.x.x.V.V.V.j.&.&.&.&.&.&.&.&.&.&.&.&.&.&.&.&.&.&.&.O.B V B B B B m & X / c.c.",
"c./ o & B B B V h # X o o $ h B B X.[ [ &.&.&.&.&.&.&.f.x.x.j.&.&.&.&.&.&.&.&.&.&.&.&.&.&.&.&.&.&.&.&...V B B B m n * X - / l.c.",
"c./ o & B B B B V j & # . d B B B B B -.{ &.&.&.&.&.&.&.&.&.&.&.&.&.&.&.&.&.&.[ &.&.&.&.&.&.&.&.&.&.&.&.O.V B m u X X ; K a.a.H.",
"l./ o & n V B B B B V g # . d m B B -.{ &.&.&.&.&.&.&.&.&.&.&.[ { &.&.&.&.&.[ Y [ &.&.&.&.[ &.&.&.&.&.&.d.~ B f # X X F i.a.s.H.",
"_ / : X & x b V B B B V g * * v V B [ &.&.&.&.&.o.&.&.&.&.&.{ =.=.{ &.&.&.[ -.-.{ &.&.&.[ -.&.&.&.&.&.&.{ >.B V f # X X K a.S.c.",
"I I / , X . & b B B B B B V V B B B O.&.&.&.&.O.-.&.&.&.&.{ ~ =.M >.X.....-.B [ &.&.&.&.[ -.&.&.&.&.&.d.^ B B B V d # X K ] _ j.",
"U U I A X X # g V B B B B B B B B B B ^ ....{ =.-.&.&.&.d.O.>.d...=.M -.=.V B ~ &.&.&...^ M X.&.&.&.d.[ S b B B B V u X H ] _ I ",
"e.A.a.A X % g V B B V V B B B B B B B B B >.&.[ M X.d.d.{ =.>.&.&.d.O.[ d.~ V B ~ O.^ B B B M O.O.O...S u a V B B V u X H ] ] U ",
"H.i.a.K X u R B V b f v B B B B B B B B V &.&.[ B M ^ O.>.N ! d.&.&.d.X.[ d.-.B B B B B B B B B B n f u O f V B V x & X K I I w.",
"J.Z.a.K X % h E n u O d V B B B B B B B B ~ { ! B B B B B B -.o.&.&.d.=.=.~ M B B B B B B B B B B b s a * * b R h % X 5 u.a.Z.J.",
"J.H.a.u.2 X % d u . * v B B B B B B B B B B >.B B B B B B B B -.o.d.X.-.B B B B B B B B B B V B B B V R g O * d & X 5 u.a.i.H.J.",
"J.J.g._ _ 2 X X X X d R B B B B V B B B B B B B B B B B B B B B -.! -.B B B B B B B B B B m g V B B V v * X X X 5 9 / ] i.A.J.J.",
"c.c.c.g._ / w w w 1 & x V V V V f n B B B B B B B B B V B B B B B B B B B B B B B B B B B n # f V V b & X 3 F F X ] _ _ g.J.J.J.",
"c.c.c.c.j.g.] ] ] 9 X & p p p p # b V B B B B B B V n f V B B B B V g x V B B B B B B V m i X # p p & X X 0 s.X X _ g.j.c.c.c.c.",
"c.c.c.c.X c.g._ _ X X X X X X X X * m B B B B B V n & # g V V V V j # h V B B B B B B i * X X X X X X < G K a.X _ g.c.c.c.c.c.c.",
"c.c.c.c.X c.c.l.g.X X r r r r r r r S Q B B B m u & X X # u u u u % X & v V B B B B B l r r r r X L L T a.a.X X l.c.c.c.c.c.c.c.",
"c.c.c.c.X c.c.c.c.X X ] ] ] ] ] X X W W Q Q * ) y y H k X X X X X X X X & * * n B B u * ] ] ] X X X a.a.i.X X X c.c.c.c.c.X c.c.",
"c.c.c.X X X c.c.X X X z.p._ _ _ X X W W W W X l.] ] ] _ X X X N N N X X X H H ) & & }.X X X X X X X X X X X X X c.c.c.c.X X c.c.",
"c.c.X X X X X X X X X X c.z.z.X X X X W W X X X _ _ _ X X X X |.|.|.|.X X X X X X X }.}.X X X X OXX X X X X X X X c.c.X X X c.c.",
"c.X X OXOXOXX X X X X X X X X X X X X X X X X X X X X X X X }.}.}.}.}.}.X X X X X |.|.|. XXXXXoXOXOXX X X X OXX X X X X X X X c.",
"X X OXOXOXOXOXOXOXX X X X X X X OXOXX X X OXX X X X X X X |.}.}.}.}.}.}.}..XOXOXoXXXXXXXoXOXOXOXOXOXOXOXOXOXOXOXX X X X X OXX X "
};
