/* XPM */
static const char *bot_right6[] = {
/* columns rows colors chars-per-pixel */
"64 64 190 2 ",
"   c #0D122C",
".  c #13162B",
"X  c #161C2E",
"o  c #181E2E",
"O  c #121227",
"+  c #171E30",
"@  c #1C222E",
"#  c #172031",
"$  c #192333",
"%  c #1A2837",
"&  c #1C2D3A",
"*  c #182739",
"=  c #1D313D",
"-  c #21292F",
";  c #232B31",
":  c #2C3836",
">  c #313E35",
",  c #2F403B",
"<  c #364335",
"1  c #3C4B37",
"2  c #3E4139",
"3  c #3A4636",
"4  c #405238",
"5  c #495639",
"6  c #465A3A",
"7  c #4B5B3A",
"8  c #404936",
"9  c #4C613B",
"0  c #54633C",
"q  c #596B3E",
"w  c #5D713E",
"e  c #5E793F",
"r  c #66753F",
"t  c #1F3541",
"y  c #1F3A45",
"u  c #213C45",
"i  c #213E48",
"p  c #23434B",
"a  c #26484E",
"s  c #314F48",
"d  c #3E5544",
"f  c #274D52",
"g  c #284F53",
"h  c #295256",
"j  c #2C5B5C",
"k  c #295659",
"l  c #2B5F62",
"z  c #2E6161",
"x  c #306764",
"c  c #316967",
"v  c #326C69",
"b  c #34726D",
"n  c #3E7E6F",
"m  c #357672",
"M  c #377A73",
"N  c #397D74",
"B  c #2E7575",
"V  c #425A44",
"C  c #4D6A4B",
"Z  c #4B6844",
"A  c #506E4C",
"S  c #5E7940",
"D  c #476358",
"F  c #47765A",
"G  c #567750",
"H  c #667A41",
"J  c #6A7C41",
"K  c #617540",
"L  c #7B7A48",
"P  c #417F6D",
"I  c #417665",
"U  c #517261",
"Y  c #587C68",
"T  c #407F72",
"R  c #398078",
"E  c #398077",
"W  c #5E8454",
"Q  c #5B8E5C",
"!  c #54875D",
"~  c #5E905B",
"^  c #6E8443",
"/  c #6D8C43",
"(  c #65854E",
")  c #768E45",
"_  c #798D43",
"`  c #739445",
"'  c #799145",
"]  c #749C4C",
"[  c #799F4A",
"{  c #799C46",
"}  c #648956",
"|  c #668D59",
" . c #608555",
".. c #659456",
"X. c #699654",
"o. c #6D9851",
"O. c #619159",
"+. c #6B955C",
"@. c #729D5D",
"#. c #769A50",
"$. c #7DA147",
"%. c #7BA048",
"&. c #7BA15A",
"*. c #4D8665",
"=. c #44816D",
"-. c #49856D",
";. c #4F8A6D",
":. c #528963",
">. c #588D67",
",. c #538B69",
"<. c #56896E",
"1. c #5C9165",
"2. c #5F9669",
"3. c #458272",
"4. c #578C70",
"5. c #5D8C75",
"6. c #629463",
"7. c #689661",
"8. c #6C9C63",
"9. c #67956C",
"0. c #719B6F",
"q. c #608E75",
"w. c #679175",
"e. c #6FA166",
"r. c #74A463",
"t. c #79A863",
"y. c #918F4E",
"u. c #869E47",
"i. c #839C48",
"p. c #93914F",
"a. c #87864C",
"s. c #81A346",
"d. c #84A548",
"f. c #8AA249",
"g. c #8CAA49",
"h. c #83A949",
"j. c #90A448",
"k. c #92AD4A",
"l. c #96B14B",
"z. c #9CB44C",
"x. c #9BB94E",
"c. c #84A657",
"v. c #86AB56",
"b. c #8BAC54",
"n. c #83A658",
"m. c #91AE52",
"M. c #8EB154",
"N. c #93B351",
"B. c #A1B74C",
"V. c #A3B94C",
"C. c #A9A555",
"Z. c #A7BA50",
"A. c #ABBD53",
"S. c #A6B459",
"D. c #BFBA5B",
"F. c #BAB55A",
"G. c #8CAA6C",
"H. c #91AD6B",
"J. c #AFBE6A",
"K. c #AAC04C",
"L. c #B2C057",
"P. c #B3C159",
"I. c #BAC55D",
"U. c #BEC761",
"Y. c #BEC765",
"T. c #C1C963",
"R. c #C5CB66",
"E. c #C7CC67",
"W. c #C6CC67",
"Q. c #C7CC67",
"!. c #C9CD67",
"~. c #CCCF67",
"^. c #C8CD68",
"/. c #C8CD68",
"(. c #CACE69",
"). c #C8CD68",
"_. c #CED066",
"`. c #3A8487",
"'. c #3A8688",
"]. c #3C8A8C",
"[. c #3D8E90",
"{. c #3E9192",
"}. c #409697",
"|. c #429C9C",
" X c #409798",
".X c #43A09F",
"XX c #45A6A5",
"oX c #46A8A7",
"OX c #47ABA9",
"+X c #47ABA9",
/* pixels */
"x.x.x.x.x.D.D.D.D.D.D.D.D.D.D.t.t.t.t.t.t.t.t.t.t.t.t.t.t.t.t.t.t.t.t.t.t.t.t.t.t.t.t.t.t.t.t.t.t.t.t.t.t.x.x.x.x.x.x.x.x.x.x.X ",
"x.x.x.x.x.x.D.D.D.D.D.D.x.t.t.t.x.x.x.t.t.t.t.t.t.t.t.t.t.t.t.t.t.t.t.t.t.t.t.t.w.w.w.w.t.t.t.t.t.t.t.t.t.t.t.t.x.x.x.x.x.x.x.X ",
"x.x.D.D.D.D.D.D.D.D.D.x.x.x.x.x.x.x.x.x.x.x.x.t.t.t.t.t.t.t.t.t.t.t.t.t.t.t.t.w.w.w.w.w.w.t.t.X X X X X t.t.t.t.t.x.x.x.x.x.x.X ",
"D.D.D.D.D.D.D.D.D.D.D.x.x.x.x.x.x.x.t.t.t.t.t.t.t.t.t.t.t.t.t.t.t.t.t.w.w.w.t.w.w.w.w.w.w.t.X X X X X X X t.X X X X x.x.x.x.X X ",
"D.D.D.D.D.D.D.D.D.D.x.x.x.x.x.x.x.x.x.x.t.t.t.t.t.t.t.t.t.t.t.t.t.t.w.w.w.w.w.w.w.w.w.w.w.X X X D.D.X X X X X X X X X x.x.X X X ",
"x.x.x.x.x.D.D.D.D.D.x.x.x.x.x.x.x.x.x.x.x.x.t.t.t.t.t.t.t.t.t.t.t.w.w.w.w.w.D.D.D.D.w.w.w.D.D.D.D.D.D.D.X X D.D.D.X X X X X X X ",
"x.x.x.x.x.x.D.D.D.D.D.x.D.D.x.x.x.x.x.x.x.x.x.x.x.x.t.t.t.t.t.t.t.w.w.w.D.D.D.D.D.D.D.w.w.D.D.D.D.D.D.D.D.D.D.D.D.D.X X X X X OX",
"x.x.x.x.x.x.x.x.D.D.D.D.D.D.D.x.x.x.x.x.x.x.x.x.x.x.t.t.t.t.t.w.w.w.w.D.D.D.D.D.D.D.D.w.D.D.D.D.D.D.D.D.D.D.D.D.D.D.D.X X X OXOX",
"D.D.x.x.x.x.x.x.x.D.D.D.x.x.x.D.x.x.x.x.x.x.x.x.x.x.x.D.D.D.D.D.D.w.D.D.D.D.D.D.D.D.D.D.D.D.D.D.D.D.D.D.D.D.D.D.D.D.X X X X OXOX",
"D.D.D.x.x.x.x.x.x.x.x.x.x.x.x.x.x.x.x.x.x.x.x.x.x.x.D.D.x.x.D.D.D.D.D.D.D.D.D.D.D.D.D.D.D.D.D.D.D.D.D.D.D.D.D.D.D.D.D.D.X X X OX",
"D.D.D.x.x.x.D.D.x.x.x.x.x.x.x.x.x.x.x.x.x.x.x.x.x.x.D.x.x.x.x.D.D.D.D.D.D.D.D.x.x.x.D.D.D.D.D.x.x.D.D.D.D.x.x.x.x.D.D.D.D.X X OX",
"D.D.D.x.x.D.D.D.D.D.x.x.x.x.x.x.x.x.x.x.x.x.x.x.x.x.x.x.x.x.x.x.x.x.x.D.D.D.x.x.x.x.x.D.D.x.x.x.x.x.x.D.x.x.x.x.x.x.D.D.D.X X OX",
"D.D.D.D.D.D.D.D.D.D.D.D.D.D.D.D.D.D.D.x.x.x.x.x.x.x.x.x.x.x.x.x.x.x.x.x.D.D.x.x.x.x.x.D.x.x.x.x.x.x.x.x.x.x.x.x.x.x.D.D.D.X X OX",
"D.D.D.D.D.D.D.D.D.x.x.x.x.x.x.x.x.x.x.x.x.x.x.x.x.x.x.x.x.x.x.x.x.x.x.x.x.x.x.x.x.x.x.D.x.x.x.x.x.x.x.x.x.x.x.x.x.x.D.D.X X X OX",
"x.x.x.x.x.x.x.x.x.x.x.x.t.t.t.t.t.t.x.x.x.x.x.x.x.x.x.x.x.x.x.x.x.x.x.x.x.x.x.x.x.x.x.x.x.x.x.x.x.x.x.x.x.x.x.x.x.x.X X X X OXOX",
"x.x.x.x.x.x.x.x.x.x.t.t.t.t.t.t.t.t.t.x.t.t.t.t.x.x.x.x.x.x.D.D.D.x.x.x.x.x.x.x.x.x.x.x.x.x.x.x.x.x.x.x.x.x.x.x.x.X X X X X OXOX",
"x.x.x.x.x.x.x.x.t.t.t.t.t.t.t.t.t.t.t.t.t.t.t.t.t.x.x.x.D.D.D.D.D.D.x.x.x.x.x.x.x.x.x.x.t.t.t.x.x.x.x.x.x.x.x.x.x.x.X X X X X OX",
"x.x.x.x.x.x.x.t.t.t.t.t.t.t.t.t.t.t.t.t.t.t.t.t.t.D.D.D.D.D.D.D.D.D.D.D.D.D.t.t.t.x.x.t.t.t.t.t.x.x.x.x.x.x.x.x.x.x.x.x.X X X OX",
"x.x.x.x.x.t.t.t.t.t.t.x.x.x.x.x.t.t.t.t.t.t.t.t.t.t.t.t.D.D.D.D.D.D.D.D.D.t.t.t.t.t.t.t.x.x.t.t.t.x.x.x.x.x.x.t.x.x.x.x.x.X X OX",
"x.x.x.t.t.t.t.t.t.t.x.x.x.x.x.x.x.t.t.t.x.x.x.t.t.t.t.t.t.t.D.D.D.t.t.t.t.t.x.x.t.t.t.x.x.x.x.t.t.t.x.x.x.x.t.t.x.x.x.x.x.X X OX",
"t.x.x.x.x.x.x.x.x.x.x.x.x.x.x.x.x.t.t.x.x.x.b.N M M M M >.x.x.x.x.x.1.M M M M M v.N.x.x.N.N.N.N.x.x.x.x.x.t.t.t.t.x.x.x.x.X OXOX",
"t.t.t.t.x.x.x.x.x.x.x.x.x.x.x.x.x.x.N.N.N.b.N M =.=.=.N M 6.x.M.N.6.M M T =.=.=.N N b.b.N N M -.r.x.x.x.x.t.t.t.t.t.t.t.X X OXOX",
"x.x.x.x.x.x.x.x.x.x.x.x.x.x.x.x.x.M.-.M M M M ,.z.z.B.c.N 1.8.M M M M N c.B.z.z.,.M M M M =.=.=.-.r.x.x.t.t.t.t.x.x.x.X X X X OX",
"x.x.x.x.x.x.x.x.w.w.w.w.w.x.x.w.q.N M -.-.-.=.z.B.B.B.V.&.m M M M M T c.V.Z.Z.V.z.,.M M ,.z.V.v.M -.e.8.r.t.t.x.x.x.X X X X X X ",
"x.x.x.x.x.x.x.w.w.w.w.w.w.w.w.q.T M -.N.B.l.-.z.B.B.B.z.+.T 4.4.3.m &.V.Z.T.!.Z.B.z.N n z.B.V.b.=.M M M ;.8.r.x.x.x.X X t.t.X X ",
"x.x.x.x.x.w.w.w.D.D.D.D.w.5.5.<.M M m.V.B.l.=.z.A.Z.V.c.B 0._.~.H.T @.V.I.^.E.A.B.z.9.9.A.Z.B.V.c.M M M M M 6.N.x.x.X t.t.t.X X ",
"x.x.w.w.w.w.D.D.D.D.D.D.S.<.M M M M m.B.B.l.6.A.!.T.Z.7.N G.!.E._.0.@.A.T.E.E.E.Z.A.!.!.^.T.A.V.n.N >.>.>.=.M 2.t.t.t.t.t.t.X X ",
"D.w.w.D.D.D.D.D.D.D.D.D.0.M ;.1.N M m.A.A.A.V.E.E.!.J.w.G.~.E.E.!.G.c.I.^.E.E.E.P.W.E.E.E.E.T.V.b.@.V.V.V.n.=.;.r.t.t.t.t.X X OX",
"D.D.D.D.D.D.D.D.D.D.t.} I ,.m.V.@.N 7.Y.^.E.P.E.E.E.!.~.!.E.E.E.E.!.I.U.E.E.E.E.^.E.E.E.E.!.T.B.B.V.B.B.B.V.7.M 9.t.t.X X X OXOX",
"x.x.x.x.x.x.D.D.t.t.| > y #.K.V.V.@.0.Y.!.E.^.E.E.E.E.E.E.^.E.E.E.!.^.E.E.E.^.E.E.E.E.E.E.W.P.B.B.B.B.B.B.V.7.m i X X X X X OXOX",
"x.x.x.x.x.x.x.x.x.i.< X   8 q f.V.V.P.P.E.^.^.^.E.E.E.^.T.I.^.E.^.U.T.^.E.E.I.W.^.^.^.^.E.P.B.B.V.V.V.V.V.b.;.>.M.X X X X OXOXOX",
"x.x.x.x.x.x.x.x.i.< . > 9 6 0 f.V.B.B.B.P.P.P.P.^.^.T.P.A.V.U.^.U.Z.A.T.E.E.I.P.P.P.P.P.L.B.V.Z.j.0 0 _ M.;.l V u.x.X X X X X OX",
"D.D.D.x.x.x.x.x.H X > / h.g.V.V.B.V.V.g.z.B.B.V.L.P.A.z.B.B.Z.P.Z.z.A.T.E.E.^.I.P.B.B.B.B.V.j.7 3     : d p * . 3 u.X X X X X X ",
"D.D.D.D.x.d.5 7 < . 6 h.%.k.V.B.B.g.g.k.B.B.B.B.B.B.B.B.B.B.B.B.B.B.I.^.E.E.E.^.^.V.B.B.B.V.k.r H J 5   . < w : . X X x.x.X X X ",
"D.D.D.D.C.2 X X X . 6 h.%.l.V.B.B.l.s.z.B.B.B.V.z.g.g.V.B.B.B.B.B.B.I.^.E.E.E.E.P.V.B.B.B.B.V.V.V.V.k.5   9 h./ : X ' x.x.x.X X ",
"x.x.x.C.2 X & z z i - S h.h.z.B.B.V.d.f.z.V.z.g.d.%.%.g.B.B.B.B.B.B.Z.U.^.!.!.L.B.B.B.B.B.B.B.B.B.B.V.r > ` %.h.1 . > d.x.x.X X ",
"x.x.x.i.X & v N N b u @ e $.h.z.V.g.%.%.d.d.d.%.%.%.%.d.V.B.B.B.V.k.l.Z.A.A.A.B.B.B.B.B.B.B.B.B.B.B.V.u./ $.%.%./ : X ' x.X X OX",
"x.x.x.i.X t N M M N b z W %.%.h.d.%.%.%.%.%.%.s.z.z.z.k.g.B.B.V.k.%.k.B.B.B.B.B.B.z.g.z.B.B.B.B.V.V.l.s.%.%.%.%.h.< X X X X OXOX",
"x.x.x.i.X t N M M M M M O.%.%.%.%.%.%.l.z.s.s.z.B.B.V.B.k.h.h.d.s.%.s.l.B.B.B.B.B.z.s.h.d.g.B.z.d.d.s.%.%.%.%.~ s @ X X X OXOXOX",
"x.x.x.i.X t M M j % % Z %.%.%.%.%.%.l.B.B.z.z.B.B.B.B.V.l.%.%.%.g.z.g.s.h.z.B.B.B.z.s.s.z.z.B.z.%.%.%.%.%.%.s.:.b t X X &  XOXOX",
"t.t.t.} X X p j # X 6 { %.%.%.%.%.%.z.B.B.B.B.B.B.B.B.B.B.z.k.%.k.V.B.g.%.l.B.B.z.d.s.z.B.B.B.z.%.%.%.%.%.%.%.:.M b t X X }.OXOX",
"t.t.| % X X + $ . 4 [ %.%.%.%.%.%.%.s.z.z.B.B.B.B.z.B.B.B.B.B.g.g.B.B.B.d.%.z.z.d.%.s.z.B.B.B.l.%.%.%.%.[ %.Q M M M m & X }.OXOX",
"x.g.; X X % % $ . 4 %.%.%.{ ` { %.%.%.%.s.z.B.B.z.d.B.B.B.B.V.k.%.k.B.z.d.%.%.%.%.%.%.h.z.z.z.%.%.%.s.O.M n M M M M N = X X OXOX",
"x.f.o X u m M j # X 6 ` ` 1 $ x X.%.%.%.%.s.z.z.%.d.z.z.B.B.B.g.%.%.%.%.%.%.%.%.%.%.%.%.%.%.%.%.%.%.s...M M M M M M b & X X oXOX",
"x.^ o & M M M M j $ X o o $ j M M X.] ] %.%.%.%.%.%.%.d.z.z.g.%.%.%.%.%.%.%.[ %.%.%.%.%.%.%.%.%.%.%.%.%.O.M M b v v = X X X XXOX",
"x.^ o & M M M M N k & $ . f m M M M =.=.[ %.%.%.%.%.%.%.%.%.%.%.%.%.%.%.%.] =.] %.%.%.%.] %.%.%.%.%.%.%.%.Q M f $ X X X X X '.XX",
"k.^ o & v N M M M M N h $ . f m M =.] %.%.%.%.%.%.%.%.%.%.%.[ ] %.%.%.%.] =.=.] %.%.%.[ =.%.%.%.%.%.%.%.[ :.M N i X X X X '.].oX",
") ^ : X & z c N M M M N h = = x M ] %.%.%.%.%.o.%.%.%.%.%.[ :.*.[ s.%.s.*.M ] %.%.%.%.[ =.%.%.%.%.%.%.s.~ M M N f $ X X m '.|.OX",
"U U ^ : X X & c M M M M M N N M M ~ %.%.%.%.O.=.%.%.%.%.[ Q *.n *.X...X.=.M ~ %.%.%.X.O.n X.[ X.X.X.] %.F v M M N f $ X X '.'.|.",
"Y Y U D X X $ h N M M M M M M M M M Q ....[ *.=.%.%.%.%...*.s.X.*.n =.*.*.n M Q ..O.M M M n Q M v k F ! y a N M M N t X X '.`.`.",
"w.C.p.D X % h N M M N M M M M M M M M M :.%.[ n ..%.s.[ :.:.s.%.s...o.s.s.*.M M M M M M M M M M c u a y O f N M M N t X X '.'.{.",
"F.y.p.L X t R M N c g x M M M M M M M N %.%.[ M N ~ O.:.m :.s.%.%.s.X.] X.P M M M M M M M M M M M N x p = t v N N z & X X '.'.XX",
"D.C.p.L X % j E v t O f N M M M M M M M Q [ Q M M M M M M =.o.%.%.s.:.*.P M M M M M M M M M N M M M M R h O t g g % X X X '.}.oX",
"D.F.p.a.1 X % f t . = x M M M M M M M M M :.M M M M M M M M =.o.s.X.=.M M M M M M M M M M b h N N M M N h X X X X X X X '.`.XXOX",
"D.D.f.) ) 1 X X X X f R M M M M N M M M M M M M M M M M M M M =.Q =.M M M M M M M M M M M v $ p h N N x = : V X X X X '.`. XoXOX",
"x.x.x.f.) ^ 0 V V X & z N N N N g v M M M M M M M M M N M M M M M M N M M M M M M M M N m i X . % p p = X 7 ' ' X X `.`. XoXOXOX",
"x.x.x.x.X +. . .} d X & i i i i $ c N M M M M M M N v g N M M M M N h z N M M M M M m i u X X ; q X X X > J ' ) ) X X |.oXOXOXOX",
"x.x.x.x.X r.+.W W G , X X X X X X = b M M M M M N v & $ h N N N N k # j N N N M M M M j q q q K X X q q J ' ) ) ) X X OXOXOXOXOX",
"x.x.x.x.X t.r.8.+.W G X X X C w w w ( } b M M b t & X X $ t t t t % X & t = t v M m u = X X X X X X ' ' ' ) ) d.k.X X OXOXOXOXOX",
"x.x.x.x.X X t.t.r.r.X X X X W ' ' ' ) X & = = & C C A X X X X X X X X X X X X & = = X X X X X X X X ) ) ) d.l.x.X X X OXOXOXOXOX",
"x.x.x.x.X X X X X X X X X X X ) ) ) X X X `.X X X X X X X X X H H H H H X X X X X X `.`.`.`.'.X X X X i.l.x.x.X X X OXOXOXOXOXOX",
"x.x.x.X X X X X X X X OXX X X X X X X X `.].XXXXX X X `.X X X X ' ' ' X X X '.'.`.`.`.`.`.'.`.[.OXX X X X X X X X OXOXOXOXOXOXOX",
"x.x.X X X OXOXOXOXOXOXOXOXX X X X X X ].].XXOXXX`.`.`.`.{.X X X X X X X X X .XXX].'.'.'.].XXXXoXOXOXOXX X X X X OXOXOXOXOXOXOXOX",
"X X X X OXOXOXOXOXOXOXOXOXOXOXOXOXOXOXoXoXOXOXXX'.`.`.{.|.'.X X X X X X X |.OXOXoXXXoXXXoXOXOXOXOXOXOXOXOXOXOXOXOXOXOXOXOXOXOXOX"
};
