/* XPM */
static const char *bot_right2[] = {
/* columns rows colors chars-per-pixel */
"64 64 185 2 ",
"   c #0D112C",
".  c #12162B",
"X  c #161C2E",
"o  c #181F2E",
"O  c #121227",
"+  c #171F30",
"@  c #1B222F",
"#  c #172031",
"$  c #182333",
"%  c #1A2836",
"&  c #1C2C3A",
"*  c #1E323E",
"=  c #21292F",
"-  c #202A33",
";  c #2D3834",
":  c #323E34",
">  c #2F403B",
",  c #354236",
"<  c #3A4636",
"1  c #3A4A36",
"2  c #424739",
"3  c #405238",
"4  c #465A3A",
"5  c #4C5C3B",
"6  c #4A5639",
"7  c #4C613B",
"8  c #53633C",
"9  c #5B6B3E",
"0  c #5E713F",
"q  c #5E793F",
"w  c #66743F",
"e  c #1F3541",
"r  c #213C46",
"t  c #203742",
"y  c #26484E",
"u  c #23424A",
"i  c #3F5744",
"p  c #274D52",
"a  c #284E53",
"s  c #295155",
"d  c #2A5659",
"f  c #2C5B5D",
"g  c #2A5E61",
"h  c #2E6162",
"j  c #2F6868",
"k  c #306764",
"l  c #316966",
"z  c #326D69",
"x  c #35736E",
"c  c #3E7E6F",
"v  c #357672",
"b  c #377A73",
"n  c #397C74",
"m  c #2E7575",
"M  c #435C46",
"N  c #4D6A4B",
"B  c #4B6844",
"V  c #506E4C",
"C  c #5E7940",
"Z  c #476258",
"A  c #49775A",
"S  c #567750",
"D  c #667A41",
"F  c #6A7C41",
"G  c #7B7A48",
"H  c #407B69",
"J  c #517161",
"K  c #587C68",
"L  c #407F72",
"P  c #398178",
"I  c #5E8354",
"U  c #578C5F",
"Y  c #5B8E5C",
"T  c #5F905A",
"R  c #6E8443",
"E  c #6E8D43",
"W  c #68884D",
"Q  c #708643",
"!  c #768E45",
"~  c #798E44",
"^  c #739445",
"/  c #799145",
"(  c #749C4C",
")  c #799F4A",
"_  c #799C46",
"`  c #648955",
"'  c #668D59",
"]  c #669455",
"[  c #699654",
"{  c #6E9950",
"}  c #629259",
"|  c #6B955C",
" . c #729D5D",
".. c #7B9850",
"X. c #7DA147",
"o. c #7CA148",
"O. c #7BA15A",
"+. c #4D8665",
"@. c #44826D",
"#. c #49856D",
"$. c #4E8A6C",
"%. c #528963",
"&. c #588D67",
"*. c #538B69",
"=. c #56896E",
"-. c #5C9165",
";. c #5F9669",
":. c #458272",
">. c #578C70",
",. c #5D8C75",
"<. c #629463",
"1. c #689661",
"2. c #6C9C63",
"3. c #67956C",
"4. c #719B6F",
"5. c #608E75",
"6. c #679175",
"7. c #6FA166",
"8. c #74A463",
"9. c #79A863",
"0. c #918F4E",
"q. c #839C48",
"w. c #809947",
"e. c #93914F",
"r. c #86854B",
"t. c #A09D53",
"y. c #81A346",
"u. c #84A548",
"i. c #8AA349",
"p. c #8CAA49",
"a. c #83A949",
"s. c #90A448",
"d. c #92AD4A",
"f. c #96B14B",
"g. c #9CB44C",
"h. c #9BB94E",
"j. c #84A657",
"k. c #86AB56",
"l. c #8BAD54",
"z. c #83A658",
"x. c #91AE52",
"c. c #8FB252",
"v. c #93B351",
"b. c #A1B74C",
"n. c #A3B94C",
"m. c #AAA655",
"M. c #A7BA50",
"N. c #ABBD53",
"B. c #A6B459",
"V. c #BFBA5B",
"C. c #BAB55A",
"Z. c #8CAA6C",
"A. c #91AD6B",
"S. c #AFBE6A",
"D. c #AAC04C",
"F. c #B2C057",
"G. c #B3C159",
"H. c #BAC55D",
"J. c #BEC761",
"K. c #BEC765",
"L. c #C1C963",
"P. c #C5CB66",
"I. c #C7CC67",
"U. c #C6CC67",
"Y. c #C7CC67",
"T. c #C9CD67",
"R. c #CCCF67",
"E. c #C8CD68",
"W. c #C8CD68",
"Q. c #CACE69",
"!. c #C8CD68",
"~. c #CED066",
"^. c #3A8487",
"/. c #3A8688",
"(. c #3C8A8C",
"). c #3D8E90",
"_. c #3E9192",
"`. c #409697",
"'. c #429C9C",
"]. c #409798",
"[. c #43A09F",
"{. c #45A6A5",
"}. c #46A8A7",
"|. c #47ABA9",
" X c #47ABA9",
/* pixels */
"h.h.h.h.h.V.V.V.V.V.V.V.V.V.V.9.9.9.9.9.9.9.9.9.9.9.9.9.9.9.9.9.9.9.9.9.9.9.9.9.9.9.9.9.9.9.9.9.9.9.9.9.9.h.h.h.h.h.h.h.h.h.h.X ",
"h.h.h.h.h.h.V.V.V.V.V.V.h.9.9.9.h.h.h.9.9.9.9.9.9.9.9.9.9.9.9.9.9.9.9.9.9.9.9.9.6.6.6.6.9.9.9.9.9.9.9.9.9.9.9.9.h.h.h.h.h.h.h.X ",
"h.h.V.V.V.V.V.V.V.V.V.h.h.h.h.h.h.h.h.h.h.h.h.9.9.9.9.9.9.9.9.9.9.9.9.9.9.9.9.6.6.6.6.6.6.9.9.X X X X X 9.9.9.9.9.h.h.h.h.h.h.X ",
"V.V.V.V.V.V.V.V.V.V.V.h.h.h.h.h.h.h.9.9.9.9.9.9.9.9.9.9.9.9.9.9.9.9.9.6.6.6.9.6.6.6.6.6.6.9.X X X X X X X 9.X X X X h.h.h.h.X X ",
"V.V.V.V.V.V.V.V.V.V.h.h.h.h.h.h.h.h.h.h.9.9.9.9.9.9.9.9.9.9.9.9.9.9.6.6.6.6.6.6.6.6.6.6.6.X X X V.V.X X X X X X X X X h.h.X X X ",
"h.h.h.h.h.V.V.V.V.V.h.h.h.h.h.h.h.h.h.h.h.h.9.9.9.9.9.9.9.9.9.9.9.6.6.6.6.6.V.V.V.V.6.6.6.V.V.V.V.V.V.V.X X V.V.V.X X X X X X X ",
"h.h.h.h.h.h.V.V.V.V.V.h.V.V.h.h.h.h.h.h.h.h.h.h.h.h.9.9.9.9.9.9.9.6.6.6.V.V.V.V.V.V.V.6.6.V.V.V.V.V.V.V.V.V.V.V.V.V.X X X X X |.",
"h.h.h.h.h.h.h.h.V.V.V.V.V.V.V.h.h.h.h.h.h.h.h.h.h.h.9.9.9.9.9.6.6.6.6.V.V.V.V.V.V.V.V.6.V.V.V.V.V.V.V.V.V.V.V.V.V.V.V.X X X |.|.",
"V.V.h.h.h.h.h.h.h.V.V.V.h.h.h.V.h.h.h.h.h.h.h.h.h.h.h.V.V.V.V.V.V.6.V.V.V.V.V.V.V.V.V.V.V.V.V.V.V.V.V.V.V.V.V.V.V.V.X X X X |.|.",
"V.V.V.h.h.h.h.h.h.h.h.h.h.h.h.h.h.h.h.h.h.h.h.h.h.h.V.V.h.h.V.V.V.V.V.V.V.V.V.V.V.V.V.V.V.V.V.V.V.V.V.V.V.V.V.V.V.V.V.V.X X X |.",
"V.V.V.h.h.h.V.V.h.h.h.h.h.h.h.h.h.h.h.h.h.h.h.h.h.h.V.h.h.h.h.V.V.V.V.V.V.V.V.h.h.h.V.V.V.V.V.h.h.V.V.V.V.h.h.h.h.V.V.V.V.X X |.",
"V.V.V.h.h.V.V.V.V.V.h.h.h.h.h.h.h.h.h.h.h.h.h.h.h.h.h.h.h.h.h.h.h.h.h.V.V.V.h.h.h.h.h.V.V.h.h.h.h.h.h.V.h.h.h.h.h.h.V.V.V.X X |.",
"V.V.V.V.V.V.V.V.V.V.V.V.V.V.V.V.V.V.V.h.h.h.h.h.h.h.h.h.h.h.h.h.h.h.h.h.V.V.h.h.h.h.h.V.h.h.h.h.h.h.h.h.h.h.h.h.h.h.V.V.V.X X |.",
"V.V.V.V.V.V.V.V.V.h.h.h.h.h.h.h.h.h.h.h.h.h.h.h.h.h.h.h.h.h.h.h.h.h.h.h.h.h.h.h.h.h.h.V.h.h.h.h.h.h.h.h.h.h.h.h.h.h.V.V.X X X |.",
"h.h.h.h.h.h.h.h.h.h.h.h.9.9.9.9.9.9.h.h.h.h.h.h.h.h.h.h.h.h.h.h.h.h.h.h.h.h.h.h.h.h.h.h.h.h.h.h.h.h.h.h.h.h.h.h.h.h.X X X X |.|.",
"h.h.h.h.h.h.h.h.h.h.9.9.9.9.9.9.9.9.9.h.9.9.9.9.h.h.h.h.h.h.V.V.V.h.h.h.h.h.h.h.h.h.h.h.h.h.h.h.h.h.h.h.h.h.h.h.h.X X X X X |.|.",
"h.h.h.h.h.h.h.h.9.9.9.9.9.9.9.9.9.9.9.9.9.9.9.9.9.h.h.h.V.V.V.V.V.V.h.h.h.h.h.h.h.h.h.h.9.9.9.h.h.h.h.h.h.h.h.h.h.h.X X X X X |.",
"h.h.h.h.h.h.h.9.9.9.9.9.9.9.9.9.9.9.9.9.9.9.9.9.9.V.V.V.V.V.V.V.V.V.V.V.V.V.9.9.9.h.h.9.9.9.9.9.h.h.h.h.h.h.h.h.h.h.h.h.X X X |.",
"h.h.h.h.h.9.9.9.9.9.9.h.h.h.h.h.9.9.9.9.9.9.9.9.9.9.9.9.V.V.V.V.V.V.V.V.V.9.9.9.9.9.9.9.h.h.9.9.9.h.h.h.h.h.h.9.h.h.h.h.h.X X |.",
"h.h.h.9.9.9.9.9.9.9.h.h.h.h.h.h.h.9.9.9.h.h.h.9.9.9.9.9.9.9.V.V.V.9.9.9.9.9.h.h.9.9.9.h.h.h.h.9.9.9.h.h.h.h.9.9.h.h.h.h.h.X X |.",
"9.h.h.h.h.h.h.h.h.h.h.h.h.h.h.h.h.9.9.h.h.h.l.n b b b b &.h.h.h.h.h.-.b b b b b k.v.h.h.v.v.v.v.h.h.h.h.h.9.9.9.9.h.h.h.h.X |.|.",
"9.9.9.9.h.h.h.h.h.h.h.h.h.h.h.h.h.h.v.c.v.l.n b @.@.@.n b <.h.c.v.<.b b L @.@.@.n n l.l.n n b #.8.h.h.h.h.9.9.9.9.9.9.9.X X |.|.",
"h.h.h.h.h.h.h.h.h.h.h.h.h.h.h.h.h.c.#.b b b b *.g.g.b.j.n -.2.b b b b n j.b.g.g.*.b b b b @.@.@.#.8.h.h.9.9.9.9.h.h.h.X X X X |.",
"h.h.h.h.h.h.h.h.6.6.6.6.6.h.h.6.5.n b #.#.#.@.g.b.b.b.n.O.v b b b b L j.n.M.M.n.g.*.b b *.g.n.k.b #.7.2.8.9.9.h.h.h.X X X X X X ",
"h.h.h.h.h.h.h.6.6.6.6.6.6.6.6.5.L b #.v.b.f.#.g.b.b.b.g.| L >.>.:.v O.n.M.L.T.M.b.g.n c g.b.n.l.@.b b b $.2.8.h.h.h.X X 9.9.X X ",
"h.h.h.h.h.6.6.6.V.V.V.V.6.,.,.=.b b x.n.b.f.@.g.N.M.n.j.m 4.~.R.A.L  .n.H.E.I.N.b.g.3.3.N.M.b.n.j.b b b b b <.v.h.h.X 9.9.9.X X ",
"h.h.6.6.6.6.V.V.V.V.V.V.B.=.b b b b x.b.b.f.<.N.T.L.M.1.n Z.T.I.~.4. .N.L.I.I.I.M.N.T.T.E.L.N.n.z.n &.&.&.@.b ;.9.9.9.9.9.9.X X ",
"V.6.6.V.V.V.V.V.V.V.V.V.4.b $.-.n b x.N.N.N.n.I.I.T.S.6.Z.R.I.I.T.Z.j.H.E.I.I.I.G.U.I.I.I.I.L.n.l. .n.n.n.z.@.$.8.9.9.9.9.X X |.",
"V.V.V.V.V.V.V.V.V.V.9.` H *.x.n. .n 1.K.E.I.G.I.I.I.T.R.T.I.I.I.I.T.H.J.I.I.I.I.E.I.I.I.I.T.L.b.n.n.b.b.b.n.1.v 3.9.9.X X X |.|.",
"h.h.h.h.h.h.V.V.9.9.' : e ..D.n.n. .4.K.T.I.E.I.I.I.I.I.I.E.I.I.I.T.E.I.I.I.E.I.I.I.I.I.I.U.G.b.b.b.b.b.b.n.1.v r X X X X X |.|.",
"h.h.h.h.h.h.h.h.h.q., X   2 9 i.n.n.G.G.I.E.E.E.I.I.I.E.L.H.E.I.E.J.L.E.I.I.H.U.E.E.E.E.I.G.b.b.n.n.n.n.n.l.$.*.l.X X X X |.|.|.",
"h.h.h.h.h.h.h.h.q., . : 7 4 8 i.n.b.b.b.G.G.G.G.E.E.L.G.N.n.J.E.J.M.N.L.I.I.H.G.G.G.G.G.F.b.n.M.s.8 8 ~ l.$.g W h.h.X X X X X |.",
"V.V.V.h.h.i.5 8 < X : E a.p.n.n.b.n.n.p.g.b.b.n.F.G.N.g.b.b.M.G.M.g.N.L.I.I.E.H.G.b.b.b.b.n.s.5 <     ; A h & : q.h.X X X X X X ",
"V.V.V.V.i.< X X X . 4 a.o.d.n.b.b.p.p.d.b.b.b.b.b.b.b.b.b.b.b.b.b.b.H.E.I.I.I.E.E.n.b.b.b.n.d.w F F 6   & & . X , X X h.h.X X X ",
"V.V.V.m.2 X & f u . 4 a.o.f.n.b.b.f.y.g.b.b.b.n.g.p.p.n.b.b.b.b.b.b.H.E.I.I.I.I.F.n.b.b.b.b.n.n.n.n.d.6 . < C : . X q.h.h.h.X X ",
"h.h.h.t.X & l n x r = C a.a.g.b.b.n.u.u.g.n.g.p.u.o.o.p.b.b.b.b.b.b.M.J.E.E.T.F.b.b.b.b.b.b.b.b.b.b.n.F   7 a.E ; . : i.h.h.X X ",
"h.h.h.q.X e n b n x r @ q X.a.g.n.p.o.o.u.u.u.o.o.o.o.u.n.b.b.b.n.d.f.M.N.N.N.b.b.b.b.b.b.b.b.b.b.b.n.w , ^ o.y.E ; X / h.X X |.",
"h.h.h.q.X e n b b b x h I o.o.a.u.o.o.o.o.o.o.y.g.g.g.d.p.b.b.n.d.o.d.b.b.b.b.b.b.g.p.g.b.b.b.b.b.b.n.i.^ o.o.o.a., X X X X |.|.",
"h.h.h.q.X e b b b b b b } o.o.o.o.o.o.f.g.o.y.g.b.b.b.b.d.a.a.u.y.o.y.f.b.b.b.b.b.g.y.a.u.p.b.b.b.b.f.y.o.o.o.X.4 @ X X X |.|.|.",
"h.h.h.w.X X u n d % % B o.o.o.o.o.o.f.b.b.g.g.b.b.b.b.n.f.o.o.o.p.g.p.y.a.g.b.b.b.g.y.y.g.g.b.g.y.y.y.o.o.o.o.Y x e X X & ].|.|.",
"9.9.' - X X + % $ X 4 _ o.o.o.o.o.o.g.b.b.b.b.b.b.b.b.b.b.g.d.o.d.n.b.p.o.f.b.b.g.u.y.g.b.b.b.g.o.o.o.o.o.o.y.%.b x e X X `.|.|.",
"9.| - X X $ $ + . 3 o.o.o.o.o.o.o.o.y.g.g.b.b.b.b.g.b.b.b.b.b.p.p.b.b.b.u.o.g.g.u.o.y.g.b.b.b.f.o.o.o.o.o.o.o.%.b b v & X `.|.|.",
"h.p.@ X e x v d . 3 o.o.o._ ^ ( o.o.o.o.y.g.b.b.g.u.b.b.b.b.n.d.o.d.g.g.u.o.o.o.o.o.o.a.g.g.g.o.o.o.o.o.) ) U b b b n * X X |.|.",
"h.i.o & v b n f # X 4 ^ ^ 1 $ k [ o.o.o.o.y.g.g.o.u.g.g.b.b.b.p.o.o.o.o.o.o.o.o.o.o.o.o.o.o.o.o.o.o.o.} b n b b b b x & X X }.|.",
"h.R o & b b b b f $ X o o $ f b b [ ( ( o.o.o.o.o.o.o.u.g.g.p.o.o.o.o.o.o.o.o.o.o.o.o.o.o.o.o.o.o.o.o.] n b b b x z * X X X {.|.",
"h.R o & z b b b n d & $ . p v b b b b @.) o.o.o.o.o.o.o.o.o.o.o.o.o.o.o.o.o.o.( o.o.o.o.o.o.o.o.o.o.o.o.} n b x e X X X X X /.}.",
"d.R ; X & k z n b b n s $ . p x b b @.) o.o.o.o.o.o.o.o.o.o.o.( ) o.o.o.o.o.( L ( o.o.o.o.( o.o.o.o.o.o.y.Y b a # X X X X /.(.}.",
"! ! R ; X X * z b b b n s * * k b b ( o.o.o.o.o.{ o.o.o.o.o.) +.+.) o.o.o.( @.@.) o.o.o.( @.o.o.o.o.o.o.) %.b n a $ X X v /.'.|.",
"J J / Z X X $ a n b b b b n n b b b } o.o.o.o.} @.o.o.o.o.) Y +.c %.[ ] ] @.b ( o.o.o.o.( @.o.o.o.o.o.y.T b b b n p $ X X /.^.'.",
"K K J Z X $ s n b b b b b b b b b b b T ] ] ) +.@.o.o.o.y.} %.y.] +.c @.+.n b Y o.o.o.] T c [ o.o.o.y.( A l b b b n e X X /.^.^.",
"6.m.e.Z X e P b b b n b b b b b b b b b b %.o.( c [ y.y.) +.%.o.o.y.} ( y.Y n b Y } T b b b c } } } ] A e y n b b n e X X /./._.",
"C.0.e.G X & h n n l a k b b b b b b b b n o.o.( b c T } %.v U y.o.o.y.[ ( y.@.b b b b b b b b b b z a e . a n b n h & X X /./.{.",
"V.m.e.r.2 X % h z e O p n b b b b b b b b Y ) U b b b b b b @.{ o.o.y.+.+.Y c b b b b b b b b b b l u y * * l P h % X X X /.`.}.",
"V.C.0.e.Q < X & t . * k b b b b b b b b b b %.b b b b b b b b @.{ y.[ @.b b b b b b b b b b n b b b n P s . * p & X X X /.^.{.|.",
"V.V.i.! / R 5 < X X p P b b b b n b b b b b b b b b b b b b b b @.U @.b b b b b b b b b b x s n b b n k * X X X X X X /.^.].}.|.",
"h.h.h.i.! ! / S M X & h n n n n a z b b b b b b b b b n b b b b b b b b b b b b b b b b b z $ a n n l & X , 8 8 X X ^.^.].}.|.|.",
"h.h.h.h.X | I I ` i X & r r r r $ l n b b b b b b n z a n b b b b n s h b b b b b b b n x t X $ r r & X X 6 / / / X X '.}.|.|.|.",
"h.h.h.h.X 8.| I I S > X X X X X X * x b b b b b n z & $ s n n n n d $ f n b b b b b v r * X X X X X X : 9 F / ! ! X X |.|.|.|.|.",
"h.h.h.h.X 9.8. .' I S X X X N 0 0 0 W ` x b b x e & X X $ e e e e % X & k n b b b b b f X X X X X X 0 F / / ! i.d.X X |.|.|.|.|.",
"h.h.h.h.X X 9.9.8.8.X X X X I / / / ~ X & * * & N N V X X X X X X X X X & * * z b v e * X X X X X X / / ! i.f.h.X X X |.|.|.|.|.",
"h.h.h.h.X X X X X X X X X X X ! ! ! X X X ^.X X X X X X X X X D D D D D X X X & & & ^.^.^.^./.X X X X q.f.h.h.X X X |.|.|.|.|.|.",
"h.h.h.X X X X X X X X |.X X X X X X X X ^.(.{.{.X X X ^.X X X X / / / X X X /./.^.^.^.^.^././.).|.X X X X X X X X |.|.|.|.|.|.|.",
"h.h.X X X |.|.|.|.|.|.|.|.X X X X X X (.(.{.|.{.^.^.^.^._.X X X X X X X X X [.{.(./././.(.{.{.}.|.|.|.X X X X X |.|.|.|.|.|.|.|.",
"X X X X |.|.|.|.|.|.|.|.|.|.|.|.|.|.|.}.}.|.|.{./.^.^._.'./.X X X X X X X '.|.|.}.{.{.{.}.|.|.|.|.|.|.|.|.|.|.|.|.|.|.|.|.|.|.|."
};
