/* XPM */
static const char *bot_left4[] = {
/* columns rows colors chars-per-pixel */
"64 64 194 2 ",
"   c #0D112C",
".  c #12152B",
"X  c #161C2E",
"o  c #181E2E",
"O  c #171F30",
"+  c #1A212F",
"@  c #172031",
"#  c #192333",
"$  c #1B2835",
"%  c #1C2C3A",
"&  c #1A2738",
"*  c #1E323E",
"=  c #222A2E",
"-  c #212930",
";  c #2C3533",
":  c #2E3B35",
">  c #323B35",
",  c #364336",
"<  c #394535",
"1  c #3E4139",
"2  c #31433D",
"3  c #3E5038",
"4  c #415438",
"5  c #4A5D3A",
"6  c #495839",
"7  c #4B4E3C",
"8  c #4A603B",
"9  c #53633C",
"0  c #5B6E3E",
"q  c #59663C",
"w  c #5D733F",
"e  c #64773F",
"r  c #1E3541",
"t  c #1F3845",
"y  c #213A44",
"u  c #223F48",
"i  c #26484E",
"p  c #23424A",
"a  c #3C5242",
"s  c #274C52",
"d  c #284F53",
"f  c #244652",
"g  c #295255",
"h  c #2C5C5D",
"j  c #2A5658",
"k  c #33635E",
"l  c #2A5D61",
"z  c #2E6262",
"x  c #2F6868",
"c  c #306664",
"v  c #316966",
"b  c #326C69",
"n  c #34726D",
"m  c #3E7E6E",
"M  c #347673",
"N  c #377A73",
"B  c #397C74",
"V  c #367B7F",
"C  c #2D7475",
"Z  c #455345",
"A  c #4D6A4A",
"S  c #506F4D",
"D  c #54734F",
"F  c #4B7B5B",
"G  c #477058",
"H  c #577D56",
"J  c #416A58",
"K  c #646542",
"L  c #657B40",
"P  c #6A7D41",
"I  c #607340",
"U  c #7B7B48",
"Y  c #407F6D",
"T  c #4E7F62",
"R  c #517161",
"E  c #567D67",
"W  c #407F71",
"Q  c #3A8178",
"!  c #398077",
"~  c #5E8354",
"^  c #568C5F",
"/  c #5B8E5C",
"(  c #5E905A",
")  c #6C8745",
"_  c #768E45",
"`  c #798C43",
"'  c #799145",
"]  c #7A9D46",
"[  c #749C4D",
"{  c #789E4A",
"}  c #749545",
"|  c #638855",
" . c #669456",
".. c #699654",
"X. c #6E9951",
"o. c #629258",
"O. c #69925B",
"+. c #6E9A5F",
"@. c #769E5B",
"#. c #7DA147",
"$. c #7CA148",
"%. c #7CA259",
"&. c #4E8765",
"*. c #44816D",
"=. c #4A856D",
"-. c #4D886C",
";. c #4F8864",
":. c #538A62",
">. c #598D67",
",. c #528B6B",
"<. c #5C9165",
"1. c #5F916E",
"2. c #428072",
"3. c #578C70",
"4. c #5F8D75",
"5. c #639463",
"6. c #6B9C64",
"7. c #659667",
"8. c #749D6E",
"9. c #628E74",
"0. c #679175",
"q. c #6A9770",
"w. c #6FA165",
"e. c #79A863",
"r. c #73A464",
"t. c #88874C",
"y. c #918F4E",
"u. c #839C48",
"i. c #93914F",
"p. c #9C9A51",
"a. c #A09B51",
"s. c #81A346",
"d. c #84A548",
"f. c #89A449",
"g. c #83A848",
"h. c #8CAA49",
"j. c #90A448",
"k. c #93AE4A",
"l. c #96B14B",
"z. c #9CB44C",
"x. c #9BB94E",
"c. c #86AB56",
"v. c #8AAB55",
"b. c #81A458",
"n. c #82A557",
"m. c #93AF51",
"M. c #8EB153",
"N. c #93B351",
"B. c #A1B74C",
"V. c #A3B94C",
"C. c #A8BB4F",
"Z. c #A8A858",
"A. c #A7BA50",
"S. c #ABBD53",
"D. c #A0B654",
"F. c #BBB65A",
"G. c #BFBA5B",
"H. c #B0BF57",
"J. c #B0AC57",
"K. c #8DAB6C",
"L. c #98A862",
"P. c #ABBC6A",
"I. c #B1C057",
"U. c #B3C159",
"Y. c #BAC55D",
"T. c #AAC14D",
"R. c #BEC761",
"E. c #BFC862",
"W. c #C5CB66",
"Q. c #C7CC67",
"!. c #C6CC67",
"~. c #C4CB65",
"^. c #C9CD67",
"/. c #CCCF67",
"(. c #C8CD68",
"). c #C8CD68",
"_. c #CACE69",
"`. c #C8CD68",
"'. c #C0C869",
"]. c #CED066",
"[. c #377C80",
"{. c #3A8587",
"}. c #3A8588",
"|. c #3B898C",
" X c #3D8E90",
".X c #3E9192",
"XX c #409697",
"oX c #429C9C",
"OX c #409798",
"+X c #43A09F",
"@X c #45A6A5",
"#X c #46A8A7",
"$X c #47ABA9",
"%X c #47ABA9",
/* pixels */
"X X x.x.x.x.x.x.X X G.G.G.G.G.e.e.e.e.e.e.e.e.e.e.e.e.e.e.e.e.e.e.e.e.e.e.e.e.e.e.e.e.e.e.e.e.e.e.e.e.e.e.e.e.e.e.e.e.e.e.e.e.e.",
"$XX X X X X X X X G.G.G.x.e.e.e.x.x.x.e.e.e.e.e.e.e.e.e.e.e.e.e.e.e.e.e.e.e.e.e.0.0.0.0.e.e.e.e.e.e.e.e.e.e.e.e.e.e.e.e.e.x.x.x.",
"$X$XX X X X X X X G.G.x.x.x.x.x.x.x.x.x.x.x.x.e.e.e.e.e.e.e.e.e.e.e.e.e.e.e.e.0.0.0.0.0.0.x.x.x.x.x.x.x.x.0.0.0.0.e.e.e.x.x.x.x.",
"$XX X X X X X X X G.G.x.x.x.x.x.x.x.e.e.e.e.e.e.e.e.e.e.e.e.e.e.e.e.e.0.0.0.e.0.0.0.0.0.0.0.0.0.0.0.x.x.0.0.0.0.0.0.0.e.x.x.x.x.",
"X X X e.e.e.e.X X G.x.x.x.x.x.x.x.x.x.x.e.e.e.e.e.e.e.e.e.e.e.e.e.e.0.0.0.0.0.0.0.0.0.0.0.0.0.0.0.0.0.0.0.G.G.G.0.0.0.0.x.x.x.G.",
"X X e.e.e.e.e.X X X x.x.x.x.x.x.x.x.x.x.x.x.e.e.e.e.e.e.e.e.e.e.e.0.0.0.0.0.G.G.G.G.0.0.0.0.G.G.G.G.0.0.G.G.G.G.G.0.0.0.0.G.G.G.",
"X X e.e.e.e.e.e.X X X e.e.e.x.x.x.x.x.x.x.x.x.x.x.x.e.e.e.e.e.e.e.0.0.0.G.G.G.G.G.G.G.0.0.G.G.G.G.G.G.G.G.G.G.G.G.G.G.G.G.G.x.x.",
"X X e.e.e.e.e.e.e.e.e.e.e.e.x.x.x.x.x.x.x.x.x.x.x.x.e.e.e.e.e.0.0.0.0.G.G.G.G.G.G.G.G.0.G.G.G.G.G.G.G.G.G.G.G.G.G.G.G.G.G.G.x.x.",
"X X e.e.e.e.e.x.x.x.x.e.e.e.e.e.e.x.x.x.x.x.x.x.x.x.x.G.G.G.G.G.G.0.G.G.G.G.G.G.G.G.G.G.G.G.G.G.G.G.G.G.G.G.G.G.G.G.G.G.G.G.x.G.",
"X X X e.e.X x.x.x.x.x.x.x.x.x.x.x.x.x.x.x.x.x.x.x.x.G.G.x.x.G.G.G.G.G.G.G.G.G.G.G.G.G.G.G.G.G.G.G.G.G.G.G.G.G.G.G.G.G.G.G.G.G.G.",
"X X X X X X G.G.x.x.x.x.x.x.x.x.x.x.x.x.x.x.x.x.x.x.G.x.x.x.x.G.G.G.G.G.G.G.G.x.x.x.G.G.G.G.G.x.x.G.G.G.G.x.x.G.G.G.G.G.G.G.G.G.",
"$XX X X X G.G.G.G.G.x.x.x.x.x.x.x.x.x.x.x.x.x.x.x.x.x.x.x.x.x.x.x.x.x.G.G.G.x.x.x.x.x.G.G.x.x.x.x.x.x.G.x.x.x.x.G.G.G.G.G.G.G.G.",
"$XX X X x.x.G.G.G.G.G.G.G.G.G.G.G.G.G.x.x.x.x.x.x.x.x.x.x.x.x.x.x.x.x.x.G.G.x.x.x.x.x.G.x.x.x.x.x.x.x.x.x.x.x.x.G.G.G.G.G.G.G.G.",
"X X X x.x.x.G.G.G.x.x.x.x.x.x.x.x.x.x.x.x.x.x.x.x.x.x.x.x.x.x.x.x.x.x.x.x.x.x.x.x.x.x.G.x.x.x.x.x.x.x.x.x.x.x.x.G.G.G.G.G.x.x.x.",
"X X x.x.x.x.X x.x.x.x.x.e.e.e.e.e.e.x.x.x.x.x.x.x.x.x.x.x.x.x.x.x.x.x.x.x.x.x.x.x.x.x.x.x.x.x.x.x.x.x.x.x.x.x.x.x.x.x.x.x.x.x.x.",
"X X x.x.x.X X x.x.x.e.e.e.e.e.e.e.e.e.x.e.e.e.e.x.x.x.x.x.x.G.G.G.x.x.x.x.x.x.x.x.x.x.x.x.x.x.x.x.x.x.x.x.x.x.x.x.x.x.x.x.x.x.x.",
"X X X x.X X X e.e.e.e.e.e.e.e.e.e.e.e.e.e.e.e.e.e.x.x.x.G.G.G.G.G.G.x.x.x.x.x.x.x.x.x.x.e.e.e.x.x.x.x.x.x.x.x.x.x.x.x.x.x.x.x.x.",
"$XX X X X X e.e.e.e.e.e.e.e.e.e.e.e.e.e.e.e.e.e.e.G.G.G.G.G.G.G.G.G.G.G.G.G.e.e.e.x.x.e.e.e.e.e.x.x.x.x.x.x.x.x.x.x.x.x.x.x.x.x.",
"$X$X$X$XX X e.e.e.e.e.x.x.x.x.x.e.e.e.e.e.e.e.e.e.e.e.e.G.G.G.G.G.G.G.G.G.e.e.e.e.e.e.e.x.x.e.e.e.x.x.x.x.x.x.e.e.e.x.x.x.x.x.x.",
"$X$X$X$XX X e.e.e.x.x.x.x.x.x.x.x.e.e.e.x.x.x.e.e.e.e.e.e.e.G.G.G.e.e.e.e.e.x.x.e.e.e.x.x.x.x.e.e.e.x.x.x.x.e.e.e.e.e.x.x.x.e.e.",
"$X$X$X$XX X X x.x.x.x.x.x.x.x.x.x.e.e.x.x.x.x.c.N N N N N <.x.x.x.x.z.>.N N N N B v.N.x.x.N.N.N.N.x.x.x.x.e.e.e.e.e.e.e.e.e.e.e.",
"$X$X$XX X X X X x.x.x.x.x.x.x.x.x.x.x.N.M.N.c.B N *.*.*.B N 5.x.M.N.<.N N W *.*.*.B *.v.c.B B N =.N.x.x.x.e.e.e.e.e.e.e.e.e.e.e.",
"$X$XX X X X X X X X X x.x.x.x.x.x.x.M.*.N N N N =.z.z.B.b.B <.6.N N N N W v.z.z.z.-.N N N N *.*.*.=.N.x.e.e.e.e.x.x.x.e.e.e.e.e.",
"$XX X X X G.G.X X X X X X x.x.0.0.9.*.N =.=.=.N >.B.B.B.V.%.M N N N N *.v.V.V.A.V.z.,.N N >.z.V.n.N -.w.6.r.e.x.x.x.x.x.x.x.x.x.",
"$XX X X G.G.G.G.G.G.X X X X X 0.9.B N -.l.B.N.=.B.B.B.B.z.5.2.3.3.2.M %.V.A.~.Q.A.B.l.B *.z.B.V.v.*.N N N ,.6.N.x.x.x.x.x.x.x.x.",
"$XX X G.G.G.G.G.G.G.G.G.G.G.Z.L.-.N N N.B.B.N.*.B.S.A.V.%.C 8.]./.K.B %.V.E.^.Q.S.B.z.1.7.S.A.B.V.b.M N N N N 5.N.x.x.x.x.x.x.x.",
"$XX X G.G.G.G.G.G.G.G.G.G.Z.,.N N N N m.B.B.l.5.H.(.~.D.5.W K.^.Q.].q.@.S.~.Q.Q.Q.V.S.^.^.(.~.S.V.%.B >.>.>.*.N 7.e.e.e.e.x.x.x.",
"$XX X G.G.x.x.x.G.G.G.G.a.E N ,.>.B N N.S.S.S.C.Q.Q.^.P.0.K./.Q.Q.^.K.v.Y.(.Q.Q.Q.U.W.Q.Q.Q.^.E.V.v.@.V.V.V.%.*.,.r.e.e.e.e.e.e.",
"$XX X G.x.x.x.x.x.G.O.D : u T m.V.+.B +.~.(.W.U.Q.Q.Q.^./.^.Q.Q.Q.Q.^.Y.~.(.Q.Q.Q.(.Q.Q.Q.Q.^.E.B.V.V.B.B.B.V.5.N L.G.G.G.G.G.G.",
"$X$XX X x.x.x.x.x.O.2 X .   ` T.V.V.+.8.'.Q.Q.(.Q.Q.Q.Q.Q.^.^.Q.Q.Q.(.(.Q.Q.Q.(.Q.Q.Q.Q.Q.Q.W.I.B.B.B.B.B.B.V.5.N L.G.G.G.G.G.G.",
"$X$XX X X x.x.x.x.I . : 5 5 9 q j.V.V.U.U.Q.(.(.Q.Q.Q.(.(.~.Y.^.Q.(.Y.~.(.Q.Q.Y.W.(.(.(.(.W.I.B.V.C.C.V.V.V.v.=.,.M.x.x.x.x.x.x.",
"$X$X$XX X X x.x.u., : ) g.g.L q j.V.B.B.B.U.U.U.(.(.~.U.U.S.I.(.E.U.V.Y.(.Q.Q.V.S.U.U.U.U.H.V.C.j.9 9 ` v.6.J F M.x.x.x.x.x.x.x.",
"$X$X$XX X X X u., . 8 g.$.h.V.C.V.B.V.B.h.z.B.V.I.U.S.z.B.B.A.U.A.z.S.~.Q.Q.Q.Y.U.B.B.B.B.B.j.5 <     ; G z % < 9 u.x.x.x.x.x.G.",
"$X$XX X X X X X X . 8 g.$.k.V.B.B.B.h.h.k.B.B.B.B.B.B.B.B.B.B.B.B.B.Y.(.Q.Q.Q.(.(.V.B.B.B.V.k.e P P 6   % % . . X < f.x.x.x.G.G.",
"$XX X X Z.1 X * h y = L #.k.V.B.B.B.l.s.z.B.B.V.z.h.h.V.B.B.B.B.B.B.Y.(.Q.Q.Q.Q.I.V.B.B.B.B.V.V.V.C.k.6 . < w w ; . i.G.G.G.G.G.",
"$XX X Z.1 X % b B n t = w g.z.B.B.B.V.d.z.V.z.h.d.$.$.h.B.B.B.B.B.B.A.E.(.(.^.I.B.B.B.B.B.B.B.B.B.B.C.P   8 g.g.) ; > f.G.G.G.G.",
"$XX X u.X % b B N B b l ~ $.g.z.V.B.h.$.d.d.d.$.$.$.$.d.V.B.B.B.V.k.l.A.S.S.S.B.B.B.B.B.B.B.B.B.B.B.C.e , } $.$.g.< . ' x.x.G.x.",
"$XX X u.X r B N N N N N o.$.$.g.d.d.$.$.$.$.$.s.z.z.z.k.h.B.B.V.k.$.k.B.B.B.B.B.B.z.h.B.B.B.B.B.B.B.V.f.} $.$.s.5 + X ; f.x.x.x.",
"$XX X X X r B B h % % A $.$.$.$.$.$.$.l.z.s.s.z.B.B.V.B.k.g.g.d.s.$.s.l.B.B.B.B.B.z.s.g.d.h.B.B.B.B.l.s.$.$.$.$.F r X X ; f.x.x.",
"$X$XX X X r B h @ X 4 ] $.$.$.$.$.$.l.B.B.z.z.B.B.B.B.V.l.$.$.$.h.z.h.s.g.z.B.B.B.z.s.s.z.z.B.z.s.s.s.$.$.$.$./ B n * X X O.e.x.",
"$X$X$X|.X O & @ . 3 ] $.$.$.$.$.$.$.z.B.B.B.B.B.B.B.B.B.B.z.k.$.k.V.z.h.$.z.B.B.B.d.s.z.B.B.B.z.$.$.$.$.$.$.s.:.N N n % X O.e.e.",
"$X$X.X% X X X @ . 4 $.$.] } } { $.$.s.s.z.z.B.B.B.B.z.B.B.B.B.z.h.k.B.z.z.h.s.z.z.s.$.g.z.B.B.B.k.$.$.$.$.$.$.:.N N B * X O.e.e.",
"$XoX& X X @ y h O X 5 ] 4 + $ c X.$.$.$.$.s.z.B.B.l.f.B.B.B.B.V.h.$.k.z.z.d.$.$.$.$.$.$.g.z.z.l.$.$.$.$.{ { ^ N N N M % X O.x.x.",
"$XXX@ X y M M N j O o + o @ h N  .$.$.$.$.$.s.z.z.$.d.z.B.B.B.z.h.$.$.$.$.$.$.$.$.$.$.$.$.$.$.$.$.$.s.o.N B N N n n r X - ) z.x.",
"#XV X % N N N N B j & % O s N N N ..[ [ $.$.$.$.$.$.$.d.z.z.h.$.$.$.$.$.$.$.$.$.$.$.$.$.$.$.$.$.$.$.$. .B N N B u X X - L ' k.x.",
"#XX X % N N N N N N N B s X s M N N *.*.{ $.$.$.$.$.$.$.$.$.$.{ { $.$.$.$.$.$.[ $.$.$.$.$.$.$.$.$.$.$.$.o.B N n r X X K y.i.i.F.",
"+XX X % b B B N N N N N B s % c B N [ $.$.$.$.$.[ $.$.$.$.$.{ ;./ s.$.$.$.$.[ Y [ $.$.$.$.[ $.$.$.$.$.$.s./ N s % @ X X U i.p.F.",
"{.X X X % z z v N N N N N N B N N N o.$.$.$.$.o.*.$.$.$.$.{ / *./ { s.$.$.[ *.*.{ $.$.$.[ *.$.$.$.$.$.$.{ :.N N B s @ X U i.J.x.",
"{.X X > X X O s B N N N N N N N N N N o.....{ =.*.$.$.$.s.o.:.s.^ ;... . .*.N [ $.$.$.$.[ *.$.$.$.$.$.s.( N N N N B r X U ' _ h.",
".XX X U X @ g B N N B N N N N N N N N N N ;.$.[ Y ..$.s.{ :.:.s. .;.B *.;.B N / $.$.$. .( m ..s.$.$.s.[ F v N N N B r X L _ _ R ",
"$XX X X X r B N N B v v N N N N N N N N B $.$.[ N m o.o.:.M :.s.$.s.o.[ s./ B N / o.( N N N m o.o.o. .F r i B N B z % X L ' _ E ",
"@X{.X X X r B N B b % s B N N N N N N N N ( $./ N N N N N N ^ s.$.$.s...[ s.*.N N N N N N N N N N b d r . s B N z % X 1 t.R R 9.",
"#X.X}.M X & h ! b * % c B N N N N N N N N N ^ N N N N N N N *.X.$.$.s.;.;./ m N N N N N N N N N N v p i * * v ! y . 7 t.i.i.Z.G.",
"$X@X{.[.f X & s r . s ! N N N N N N N N N N N N N N N N N N N *.X.s...*.N N N N N N N N N N B N N N B ! g . * s Z 9 t.i.y.y.F.G.",
"$X$XOX{.X X X X X X % c B N N N B N N N N N N N N N N B N N N N *.^ *.N N N N N N N N N N n g B N N B c * X X X K ' _ _ y.Z.G.G.",
"$X$X#XOXX X 9 9 9 , X % p c B B s b N N N N N N N B b g B N N N N N N N N N N N N N N N N b @ s B B v % X 1 K K P ' _ _ f.G.G.G.",
"$X$X$X#XX X ' ' ' ) , X . % y y @ v B N N N N N B n * @ g B B B N B g z B N N N N N N B n y X @ y y * X X X X X ' _ f.h.z.x.x.x.",
"$X$X$X$XX X f._ _ ' ) 0 0 X X X X * y y n N N n y * X X & y y r h j @ h B N N N N N M y * X X X X X X > 0 P ' X X f.z.x.x.x.x.x.",
"$X$X$X$X$XX X k.f._ ' ' ' X X X X X X X * * * H A X X a X X X X & & X % c B N N N N N k 0 w X X w w w P ' ' _ X X X X x.x.x.x.x.",
"$X$X$X$X$XX X X z.l.u._ X X X X X X X {.{.X X X X X | H A A A S X X X X % * * b N N | ..' ' X X X ' ' ' _ f.l.X X X X X x.x.x.x.",
"$X$X$X$X$X$XX X X X X X X X }.{.{.{.{.{.{.{.|.oXX X ~ ~ ~ ~ ~ | X X X X X X X % % % _ _ _ _ X X X X _ u.l.z.X X X X X X x.x.x.x.",
"$X$X$X$X$X$X$XX X X X X X @X@X X{.}.}.{.{.|.@X@X{.X X ~ ~ ~ ~ X X X }.X X X X X {.X X _ _ X X X $XX X X X X X X X $XX X X x.x.x.",
"$X$X$X$X$X$X$X$X$X$X$X$X$X$X$X#X@X@X@X|.|.@X$X@X}.X X X X X X X X X {.{.{.}.+X@X|.X X X X X X #X$X$XX X X X X X $X$X$XX X X x.x.",
"$X$X$X$X$X$X$X$X$X$X$X$X$X$X$X$X$X$X$X#X#X$X$X@X{.{.X X X X X X X {.{.{.{.oX$X$X#X@XX X X X $X$X$X$X$X$X$X$X$X$X$X$X$X$X$XX X X "
};
