/* XPM */
static const char *bot_left6[] = {
/* columns rows colors chars-per-pixel */
"64 64 195 2 ",
"   c #0D122C",
".  c #13162B",
"X  c #161C2E",
"o  c #191F2E",
"O  c #121227",
"+  c #171F30",
"@  c #1D242E",
"#  c #172031",
"$  c #192333",
"%  c #1A2837",
"&  c #192738",
"*  c #1C2C3A",
"=  c #1D313D",
"-  c #252D32",
";  c #2C3834",
":  c #323D35",
">  c #21292F",
",  c #364335",
"<  c #394536",
"1  c #3C4638",
"2  c #424938",
"3  c #405238",
"4  c #465A3A",
"5  c #4C5C3A",
"6  c #4A5639",
"7  c #57593F",
"8  c #4C613B",
"9  c #53633C",
"0  c #596A3D",
"q  c #5C713E",
"w  c #5E793F",
"e  c #65763F",
"r  c #1F3541",
"t  c #1F3A45",
"y  c #213C46",
"u  c #213E48",
"i  c #23434B",
"p  c #26484E",
"a  c #314F48",
"s  c #3E5543",
"d  c #274D52",
"f  c #284F53",
"g  c #244652",
"h  c #295256",
"j  c #2C5B5C",
"k  c #295659",
"l  c #32605B",
"z  c #2B5F62",
"x  c #2E6161",
"c  c #306764",
"v  c #316967",
"b  c #326C69",
"n  c #34726D",
"m  c #3E7E6F",
"M  c #347672",
"N  c #377A73",
"B  c #397C74",
"V  c #367B7F",
"C  c #2E7575",
"Z  c #5C5E40",
"A  c #425842",
"S  c #506F4D",
"D  c #5E6041",
"F  c #51704D",
"G  c #5E7940",
"H  c #47765A",
"J  c #53734B",
"K  c #616242",
"L  c #657A41",
"P  c #6A7C41",
"I  c #617540",
"U  c #7C7B49",
"Y  c #417F6D",
"T  c #417665",
"R  c #517261",
"E  c #597D68",
"W  c #407F72",
"Q  c #398078",
"!  c #398077",
"~  c #5F8454",
"^  c #5B8E5C",
"/  c #54875D",
"(  c #5E905B",
")  c #6D8342",
"_  c #6D8C43",
"`  c #6A8B4E",
"'  c #778E45",
"]  c #798E44",
"[  c #739445",
"{  c #799245",
"}  c #749C4C",
"|  c #799F4A",
" . c #799C46",
".. c #668B55",
"X. c #659456",
"o. c #699654",
"O. c #6D9851",
"+. c #619159",
"@. c #6A935B",
"#. c #6D995F",
"$. c #729C5D",
"%. c #769A50",
"&. c #7DA147",
"*. c #7BA048",
"=. c #7BA15A",
"-. c #4D8665",
";. c #44816D",
":. c #49856D",
">. c #4F8A6D",
",. c #528963",
"<. c #588D67",
"1. c #538B69",
"2. c #56896E",
"3. c #5C9165",
"4. c #5F9669",
"5. c #578C70",
"6. c #458272",
"7. c #629463",
"8. c #689661",
"9. c #6C9C63",
"0. c #68956C",
"q. c #719B6F",
"w. c #628E74",
"e. c #679175",
"r. c #6FA166",
"t. c #79A863",
"y. c #73A464",
"u. c #8A884C",
"i. c #918F4E",
"p. c #869E47",
"a. c #839C48",
"s. c #93914F",
"d. c #9B9851",
"f. c #81A346",
"g. c #84A548",
"h. c #8AA249",
"j. c #8CAA49",
"k. c #83A949",
"l. c #92AD4A",
"z. c #90A448",
"x. c #96B14B",
"c. c #9CB44C",
"v. c #9BB94E",
"b. c #84A657",
"n. c #86AB56",
"m. c #8BAC54",
"M. c #83A658",
"N. c #91AE52",
"B. c #8EB154",
"V. c #93B351",
"C. c #A1B74C",
"Z. c #A3B94C",
"A. c #A8A455",
"S. c #A7BA50",
"D. c #ABBD53",
"F. c #AAB05F",
"G. c #A2B754",
"H. c #BBB65A",
"J. c #BFBA5B",
"K. c #B0AC57",
"L. c #8DA769",
"P. c #97AC66",
"I. c #AFBE6A",
"U. c #B2C057",
"Y. c #B3C159",
"T. c #BAC55D",
"R. c #AAC04C",
"E. c #BEC761",
"W. c #BEC765",
"Q. c #C1C963",
"!. c #C5CB66",
"~. c #C7CC67",
"^. c #C6CC67",
"/. c #C7CC67",
"(. c #C9CD67",
"). c #CCCF67",
"_. c #C8CD68",
"`. c #C8CD68",
"'. c #CACE69",
"]. c #C8CD68",
"[. c #CED066",
"{. c #377C80",
"}. c #3A8487",
"|. c #3A8588",
" X c #3B8A8C",
".X c #3D8E90",
"XX c #3E9192",
"oX c #409697",
"OX c #429C9C",
"+X c #409798",
"@X c #43A09F",
"#X c #45A6A5",
"$X c #46A8A7",
"%X c #47ABA9",
"&X c #47ABA9",
/* pixels */
"X X v.v.v.v.v.v.X X J.J.J.J.J.t.t.t.t.t.t.t.t.t.t.t.t.t.t.t.t.t.t.t.t.t.t.t.t.t.t.t.t.t.t.t.t.t.t.t.t.t.t.t.t.t.t.t.t.t.t.t.t.t.",
"%XX X X X X X X X J.J.J.v.t.t.t.v.v.v.t.t.t.t.t.t.t.t.t.t.t.t.t.t.t.t.t.t.t.t.t.e.e.e.e.t.t.t.t.t.t.t.t.t.t.t.t.t.t.t.t.t.v.v.v.",
"%X%XX X X X X X X J.J.v.v.v.v.v.v.v.v.v.v.v.v.t.t.t.t.t.t.t.t.t.t.t.t.t.t.t.t.e.e.e.e.e.e.v.v.v.v.v.v.v.v.e.e.e.e.t.t.t.v.v.v.v.",
"%XX X X X X X X X J.J.v.v.v.v.v.v.v.t.t.t.t.t.t.t.t.t.t.t.t.t.t.t.t.t.e.e.e.t.e.e.e.e.e.e.e.e.e.e.e.v.v.e.e.e.e.e.e.e.t.v.v.v.v.",
"X X X t.t.t.t.X X J.v.v.v.v.v.v.v.v.v.v.t.t.t.t.t.t.t.t.t.t.t.t.t.t.e.e.e.e.e.e.e.e.e.e.e.e.e.e.e.e.e.e.e.J.J.J.e.e.e.e.v.v.v.J.",
"X X t.t.t.t.t.X X X v.v.v.v.v.v.v.v.v.v.v.v.t.t.t.t.t.t.t.t.t.t.t.e.e.e.e.e.J.J.J.J.e.e.e.e.J.J.J.J.e.e.J.J.J.J.J.e.e.e.e.J.J.J.",
"X X t.t.t.t.t.t.X X X t.t.t.v.v.v.v.v.v.v.v.v.v.v.v.t.t.t.t.t.t.t.e.e.e.J.J.J.J.J.J.J.e.e.J.J.J.J.J.J.J.J.J.J.J.J.J.J.J.J.J.v.v.",
"X X t.t.t.t.t.t.t.t.t.t.t.t.v.v.v.v.v.v.v.v.v.v.v.v.t.t.t.t.t.e.e.e.e.J.J.J.J.J.J.J.J.e.J.J.J.J.J.J.J.J.J.J.J.J.J.J.J.J.J.J.v.v.",
"X X t.t.t.t.t.v.v.v.v.t.t.t.t.t.t.v.v.v.v.v.v.v.v.v.v.J.J.J.J.J.J.e.J.J.J.J.J.J.J.J.J.J.J.J.J.J.J.J.J.J.J.J.J.J.J.J.J.J.J.J.v.J.",
"X X X t.t.X v.v.v.v.v.v.v.v.v.v.v.v.v.v.v.v.v.v.v.v.J.J.v.v.J.J.J.J.J.J.J.J.J.J.J.J.J.J.J.J.J.J.J.J.J.J.J.J.J.J.J.J.J.J.J.J.J.J.",
"X X X X X X J.J.v.v.v.v.v.v.v.v.v.v.v.v.v.v.v.v.v.v.J.v.v.v.v.J.J.J.J.J.J.J.J.v.v.v.J.J.J.J.J.v.v.J.J.J.J.v.v.J.J.J.J.J.J.J.J.J.",
"%XX X X X J.J.J.J.J.v.v.v.v.v.v.v.v.v.v.v.v.v.v.v.v.v.v.v.v.v.v.v.v.v.J.J.J.v.v.v.v.v.J.J.v.v.v.v.v.v.J.v.v.v.v.J.J.J.J.J.J.J.J.",
"%XX X X v.v.J.J.J.J.J.J.J.J.J.J.J.J.J.v.v.v.v.v.v.v.v.v.v.v.v.v.v.v.v.v.J.J.v.v.v.v.v.J.v.v.v.v.v.v.v.v.v.v.v.v.J.J.J.J.J.J.J.J.",
"X X X v.v.v.J.J.J.v.v.v.v.v.v.v.v.v.v.v.v.v.v.v.v.v.v.v.v.v.v.v.v.v.v.v.v.v.v.v.v.v.v.J.v.v.v.v.v.v.v.v.v.v.v.v.J.J.J.J.J.v.v.v.",
"X X v.v.v.v.X v.v.v.v.v.t.t.t.t.t.t.v.v.v.v.v.v.v.v.v.v.v.v.v.v.v.v.v.v.v.v.v.v.v.v.v.v.v.v.v.v.v.v.v.v.v.v.v.v.v.v.v.v.v.v.v.v.",
"X X v.v.v.X X v.v.v.t.t.t.t.t.t.t.t.t.v.t.t.t.t.v.v.v.v.v.v.J.J.J.v.v.v.v.v.v.v.v.v.v.v.v.v.v.v.v.v.v.v.v.v.v.v.v.v.v.v.v.v.v.v.",
"X X X v.X X X t.t.t.t.t.t.t.t.t.t.t.t.t.t.t.t.t.t.v.v.v.J.J.J.J.J.J.v.v.v.v.v.v.v.v.v.v.t.t.t.v.v.v.v.v.v.v.v.v.v.v.v.v.v.v.v.v.",
"%XX X X X X t.t.t.t.t.t.t.t.t.t.t.t.t.t.t.t.t.t.t.J.J.J.J.J.J.J.J.J.J.J.J.J.t.t.t.v.v.t.t.t.t.t.v.v.v.v.v.v.v.v.v.v.v.v.v.v.v.v.",
"%X%X%X%XX X t.t.t.t.t.v.v.v.v.v.t.t.t.t.t.t.t.t.t.t.t.t.J.J.J.J.J.J.J.J.J.t.t.t.t.t.t.t.v.v.t.t.t.v.v.v.v.v.v.t.t.t.v.v.v.v.v.v.",
"%X%X%X%XX X t.t.t.v.v.v.v.v.v.v.v.t.t.t.v.v.v.t.t.t.t.t.t.t.J.J.J.t.t.t.t.t.v.v.t.t.t.v.v.v.v.t.t.t.v.v.v.v.t.t.t.t.t.v.v.v.t.t.",
"%X%X%X%XX X X v.v.v.v.v.v.v.v.v.v.t.t.v.v.v.m.B N N N N <.v.v.v.v.v.3.N N N N N n.V.v.v.V.V.V.V.v.v.v.v.v.t.t.t.t.t.t.t.t.t.t.t.",
"%X%X%XX X X X X v.v.v.v.v.v.v.v.v.v.V.B.V.m.B N ;.;.;.B N 7.v.B.V.7.N N W ;.;.;.B B m.m.B B N :.y.v.v.v.v.t.t.t.t.t.t.t.t.t.t.t.",
"%X%XX X X X X X X X X v.v.v.v.v.v.B.:.N N N N 1.c.c.C.b.B 3.9.N N N N B b.C.c.c.1.N N N N ;.;.;.:.y.v.v.t.t.t.t.v.v.v.t.t.t.t.t.",
"%XX X X X J.J.X X X X X X v.v.e.w.B N :.:.:.;.c.C.C.C.Z.=.M N N N N W b.Z.S.S.Z.c.1.N N 1.c.Z.n.N :.r.9.y.t.t.v.v.v.v.v.v.v.v.v.",
"%XX X X J.J.J.J.J.J.X X X X X w.W N :.V.C.x.:.c.C.C.C.c.#.W 5.5.6.M =.Z.S.Q.~.S.C.c.B m c.C.Z.m.;.N N N >.9.y.v.v.v.v.v.v.v.v.v.",
"%XX X J.J.J.J.J.J.J.J.J.J.F.P.2.N N N.Z.C.x.;.c.D.S.Z.b.C q.[.).L.W $.Z.E._.~.D.C.c.0.0.D.S.C.Z.b.N N N N N 7.V.v.v.v.v.v.v.v.v.",
"%XX X J.J.J.J.J.J.J.J.J.F.2.N N N N N.C.C.x.7.D.(.Q.G.8.B L.(.~.[.q.$.D.Q._.~.~.S.D.(.(._.Q.D.Z.M.B <.<.<.;.N 4.t.t.t.t.t.v.v.v.",
"%XX X J.J.v.v.v.J.J.J.J.0.N >.3.B N N.D.D.D.Z.~.~.(.I.e.L.).~.~.(.L.b.T._.~.~.~.Y.^.~.~.~.~.Q.Z.m.$.Z.Z.Z.M.;.>.y.t.t.t.t.t.t.t.",
"%XX X J.v.v.v.v.v.J.t...T 1.N.Z.$.B 8.W._.~.Y.~.~.~.(.).(.~.~.~.~.(.T.E.~.~.~.~._.~.~.~.~.(.Q.C.Z.Z.C.C.C.Z.8.N L.J.J.J.J.J.J.J.",
"%X%XX X v.v.v.v.v.t...: t %.R.Z.Z.$.q.W.(.~._.~.~.~.~.~.~._.~.~.~.(._.~.~.~._.~.~.~.~.~.~.^.Y.C.C.C.C.C.C.Z.8.M L.J.J.J.J.J.J.J.",
"%X%XX X X v.v.v.v.a., X . 2 0 h.Z.Z.Y.Y.~._._._.~.~.~._.Q.T._.~._.E.Q._.~.~.T.^._._._._.~.Y.C.C.Z.Z.Z.Z.Z.m.>.<.B.v.v.v.v.v.v.v.",
"%X%X%XX X X v.v.a., . : 8 4 9 h.Z.C.C.C.Y.Y.Y.Y._._.Q.Y.D.S.E._.E.S.D.Q.~.~.T.Y.Y.Y.Y.Y.U.C.Z.S.z.9 9 ] B.>.z A p.v.v.v.v.v.v.v.",
"%X%X%XX X X X v.L X : _ k.j.Z.Z.C.Z.Z.j.c.C.C.Z.U.Y.D.c.C.C.S.Y.S.c.D.Q.~.~._.T.Y.C.C.C.C.Z.z.5 1     ; s i & . < p.v.v.v.v.v.J.",
"%X%XX X X X X X , . 4 k.*.l.Z.C.C.j.j.l.C.C.C.C.C.C.C.C.C.C.C.C.C.C.T._.~.~.~._._.Z.C.C.C.Z.l.e L P 6   . , q ; . < h.v.v.v.J.J.",
"%XX X X A.1 X X X . 4 k.*.x.Z.C.C.x.f.c.C.C.C.Z.c.j.j.Z.C.C.C.C.C.C.T._.~.~.~.~.Y.Z.C.C.C.C.Z.Z.Z.Z.l.6   8 k._ ; X s.J.J.J.J.J.",
"%XX X A.1 X * x x u > G k.k.c.Z.C.Z.g.g.C.Z.c.j.g.*.*.j.C.C.C.C.C.C.S.E._.(.(.U.C.C.C.C.C.C.C.C.C.C.Z.e : [ *.k.1 . : h.J.J.J.J.",
"%XX X a.X * b B B n y @ w &.k.c.Z.j.*.*.g.g.g.*.*.*.*.g.Z.C.C.C.Z.l.x.S.D.D.D.C.C.C.C.C.C.C.C.C.C.C.Z.p._ &.*.*._ ; X { v.v.J.v.",
"%XX X a.X r B N N B n x ~ *.*.k.g.*.*.*.*.*.*.f.c.c.c.l.j.C.C.Z.l.*.l.C.C.C.C.C.C.c.j.c.C.C.C.C.Z.Z.x.f.*.*.*.*.k., . { v.v.v.v.",
"%XX X X X r B N N N N N +.*.*.*.*.*.*.x.c.f.f.c.C.C.Z.C.l.k.k.g.f.*.f.x.C.C.C.C.C.c.f.k.g.j.C.c.g.g.f.*.*.*.*.( a @ X - h.v.v.v.",
"%X%XX X X r N B k % & S *.*.*.*.*.*.x.C.C.c.c.C.C.C.C.Z.x.*.*.*.j.c.j.f.k.c.C.C.C.c.f.f.c.c.C.c.*.*.*.*.*.*.f.,.n r X X - #.t.v.",
"%X%X%X XX X i j + X 4  .*.*.*.*.*.*.c.C.C.C.C.C.C.C.C.C.C.c.l.*.l.Z.C.j.*.x.C.C.c.g.f.c.C.C.C.c.*.*.*.*.*.*.*.,.N n r X X @.t.t.",
"%X%XXX& X X + # . 1 *.*.*.*.*.*.*.*.f.c.c.C.C.C.C.c.C.C.C.C.C.j.j.C.C.C.g.*.c.c.g.*.f.c.C.C.C.x.*.*.*.*.| *.^ N N N M * X @.t.t.",
"%XOX% X X % % # . 3 *.*.*. .[ } *.*.*.*.f.c.C.C.c.g.C.C.C.C.Z.l.*.l.C.c.g.*.*.*.*.*.*.k.c.c.c.*.*.*.f.+.N m N N N N B = X @.v.v.",
"%XoX+ X y M N j # X 4 [ [ 1 $ c o.*.*.*.*.f.c.c.*.g.c.c.C.C.C.j.*.*.*.*.*.*.*.*.*.*.*.*.*.*.*.*.*.*.f.X.N N N N N N n * X ) v.v.",
"$XV X * N N N B j # X o o $ j N N o.} } *.*.*.*.*.*.*.g.c.c.j.*.*.*.*.*.*.*.| *.*.*.*.*.*.*.*.*.*.*.*.*.+.B N n b b = X > ) l.v.",
"$XX X * N N N N B k * $ . d M N N N ;.;.| *.*.*.*.*.*.*.*.*.*.*.*.*.*.*.*.} ;.} *.*.*.*.} *.*.*.*.*.*.*.*.^ N d # X X - U s.s.H.",
"@XX X * b B N N N N B h # . d n N ;.} *.*.*.*.*.*.*.*.*.*.*.| } *.*.*.*.} ;.;.} *.*.*.| ;.*.*.*.*.*.*.*.| ,.N B y X X K i.s.d.H.",
"}.X X X * x v B N N N B h = = c B } *.*.*.*.*.O.*.*.*.*.*.| ,.-.| f.*.f.-.N } *.*.*.*.| ;.*.*.*.*.*.*.f.( N N B d # X X U s.K.v.",
"}.X X : X . * v N N N N N B B N N ( *.*.*.*.+.;.*.*.*.*.| ^ -.m -.o.X.o.;.N ( *.*.*.o.+.m o.| o.o.o.} *.H b N N B d # X U { ' j.",
"XXX X U X X # h B N N N N N N N N N ^ X.X.| -.;.*.*.*.*.X.-.f.o.-.m ;.-.-.m N ^ X.+.N N N m ^ N b k H / t p B N N B r X L { ' R ",
"%XX X X X % h B N N B B N N N N N N N N ,.*.| m X.*.f.| ,.,.f.*.f.X.O.f.f.-.N N N N N N N N N B v y p t O d B N N B r X L { { E ",
"#X}.X X X y Q N B v d c N N N N N N N B *.*.| N B ( +.,.M ,.f.*.*.f.o.} o.Y N N N N N N N N N N N B c i = r b B B x * X U R R w.",
"$XoX|.M X & j ! b r O d B N N N N N N N ^ | ^ N N N N N N ;.O.*.*.f.,.-.Y N N N N N N N N N B N N N N Q h O r f d & X 2 u.s.A.J.",
"%X#X}.{.g X % d r . = c N N N N N N N N N ,.N N N N N N N N ;.O.f.o.;.N N N N N N N N N N n h B B N N B h X X X X X 2 u.s.i.H.J.",
"%X$X+X}.X X X . X X d Q N N N N B N N N N N N N N N N N N N N ;.^ ;.N N N N N N N N N N B b # i h B B c = : D Z Z 5 ) { i.A.J.J.",
"%X%X$XOXX X 9 9 9 , * x B B B B d b N N N N N N N N N B N N N N N N B N N N N N N N N B M y X . % i i = X 7 d.s.{ { ' ' g.J.J.J.",
"%X%X%X$XX X { { { 5 X * y y y y # v B N N N N N N B b d B N N N N B h x B N N N N N M y y X X - 0 2 X X : X X X ' ' h.j.v.v.v.v.",
"%X%X%X%XX X h.' { ) < X X X X X X = n N N N N N B b * # h B B B B k # j B B B N N N N l 0 X X I { ) 0 0 P { ' X X h.v.v.v.v.v.v.",
"%X%X%X%X%XX X l.h.' ) q q X X X X X = y n N N n r * X X # r r r r % X * r r r b N N ..` { { X X ' { { { { ' ' X X X X v.v.v.v.v.",
"%X%X%X%X%XX X X v.x.h.{ X X X X X X X }.}.= = * X X S s X X X X X X X X 5 e X * = ` ' ] ' ' X X X ' ' ' ' h.x.X X X X X v.v.v.v.",
"%X%X%X%X%X%XX X X X X X X X |.}.}.}.}.}.}.}. XOXX X ~ J F F F F X X X X X X X X X X ' ' ' ' X X X X ' a.x.v.X X X X X X v.v.v.v.",
"%X%X%X%X%X%X%XX X X X X X #X#X.X}.|.|.}.}. X#X#X|.X X ~ ~ ~ ~ X X X |.X X X X X }.X X ' ' X X X %XX X X X X X X X %XX X X v.v.v.",
"%X%X%X%X%X%X%X%X%X%X%X%X%X%X%X$X#X#X#X X X#X%X#X|.X X X X X X X X X }.}.}.|.@X#X XX X X X X X $X%X%XX X X X X X %X%X%XX X X v.v.",
"%X%X%X%X%X%X%X%X%X%X%X%X%X%X%X%X%X%X%X$X$X%X%X#X|.}.X X X X X X X }.}.}.}.OX%X%X$X#XX X X X %X%X%X%X%X%X%X%X%X%X%X%X%X%X%XX X X "
};
