/* XPM */
static const char *bot_right7[] = {
/* columns rows colors chars-per-pixel */
"64 64 188 2 ",
"   c #0D112C",
".  c #13162B",
"X  c #161C2E",
"o  c #181E2E",
"O  c #121227",
"+  c #171E30",
"@  c #1B222F",
"#  c #172031",
"$  c #192333",
"%  c #1A2837",
"&  c #1C2C3A",
"*  c #1E323E",
"=  c #21292F",
"-  c #202830",
";  c #2E3B34",
":  c #2B3636",
">  c #323E34",
",  c #2F403B",
"<  c #354236",
"1  c #3C4B37",
"2  c #3E4139",
"3  c #3A4636",
"4  c #405238",
"5  c #49563A",
"6  c #465A3A",
"7  c #4B5B3A",
"8  c #404936",
"9  c #4C613B",
"0  c #53633C",
"q  c #5B6B3E",
"w  c #5E713F",
"e  c #5E793F",
"r  c #66743F",
"t  c #1F3541",
"y  c #213C45",
"u  c #213E48",
"i  c #26484E",
"p  c #24434A",
"a  c #3F5744",
"s  c #274D52",
"d  c #284E53",
"f  c #295256",
"g  c #2B5759",
"h  c #2C5B5C",
"j  c #2A5E61",
"k  c #2E6161",
"l  c #2F6868",
"z  c #306764",
"x  c #316966",
"c  c #326C69",
"v  c #34736D",
"b  c #3E7E6F",
"n  c #347673",
"m  c #377A73",
"M  c #397C73",
"N  c #2E7575",
"B  c #435C46",
"V  c #4D6A4B",
"C  c #4B6844",
"Z  c #506E4C",
"A  c #5E7940",
"S  c #476358",
"D  c #49775A",
"F  c #567750",
"G  c #667A41",
"H  c #6A7C41",
"J  c #7B7A48",
"K  c #407F6D",
"L  c #417665",
"P  c #517261",
"I  c #587C68",
"U  c #407F72",
"Y  c #398178",
"T  c #398077",
"R  c #5E8454",
"E  c #578C5F",
"W  c #5B8E5D",
"Q  c #5E905B",
"!  c #6E8443",
"~  c #6E8D43",
"^  c #68884D",
"/  c #768E45",
"(  c #798D43",
")  c #739445",
"_  c #799145",
"`  c #759C4C",
"'  c #799F4A",
"]  c #799C46",
"[  c #648956",
"{  c #668D59",
"}  c #608555",
"|  c #669456",
" . c #699654",
".. c #6D9851",
"X. c #619259",
"o. c #6B955C",
"O. c #729D5D",
"+. c #7B9850",
"@. c #7DA147",
"#. c #7CA148",
"$. c #7BA15A",
"%. c #4D8665",
"&. c #44826D",
"*. c #49856C",
"=. c #4E8A6C",
"-. c #4F8864",
";. c #528962",
":. c #588D67",
">. c #538B69",
",. c #56896E",
"<. c #5C9165",
"1. c #5F9669",
"2. c #458272",
"3. c #578C70",
"4. c #5D8C75",
"5. c #629463",
"6. c #689661",
"7. c #6C9C63",
"8. c #67956C",
"9. c #719B6F",
"0. c #608E75",
"q. c #679175",
"w. c #6FA166",
"e. c #74A463",
"r. c #79A863",
"t. c #918F4E",
"y. c #839C48",
"u. c #93914F",
"i. c #87864C",
"p. c #81A346",
"a. c #84A548",
"s. c #8AA249",
"d. c #83A949",
"f. c #8CAA49",
"g. c #90A448",
"h. c #92AD4A",
"j. c #96B14B",
"k. c #9CB44C",
"l. c #9BB94E",
"z. c #84A657",
"x. c #86AB56",
"c. c #8BAD54",
"v. c #83A658",
"b. c #91AE52",
"n. c #8FB252",
"m. c #93B351",
"M. c #A1B74C",
"N. c #A3B94C",
"B. c #A9A555",
"V. c #A7BA50",
"C. c #ABBD53",
"Z. c #A6B459",
"A. c #BFBA5B",
"S. c #BAB55A",
"D. c #8CAA6C",
"F. c #91AD6B",
"G. c #AFBE6A",
"H. c #AAC04C",
"J. c #B2C057",
"K. c #B3C159",
"L. c #BAC55D",
"P. c #BEC761",
"I. c #BEC765",
"U. c #C1C963",
"Y. c #C5CB66",
"T. c #C7CC67",
"R. c #C6CC67",
"E. c #C7CC67",
"W. c #C9CD67",
"Q. c #CCCF67",
"!. c #C8CD68",
"~. c #C8CD68",
"^. c #CACE69",
"/. c #C8CD68",
"(. c #CED066",
"). c #3A8487",
"_. c #3A8688",
"`. c #3C8A8C",
"'. c #3D8E90",
"]. c #3E9192",
"[. c #409697",
"{. c #429C9C",
"}. c #409798",
"|. c #43A09F",
" X c #45A6A5",
".X c #46A8A7",
"XX c #47ABA9",
"oX c #47ABA9",
/* pixels */
"l.l.l.l.l.A.A.A.A.A.A.A.A.A.A.r.r.r.r.r.r.r.r.r.r.r.r.r.r.r.r.r.r.r.r.r.r.r.r.r.r.r.r.r.r.r.r.r.r.r.r.r.r.l.l.l.l.l.l.l.l.l.l.X ",
"l.l.l.l.l.l.A.A.A.A.A.A.l.r.r.r.l.l.l.r.r.r.r.r.r.r.r.r.r.r.r.r.r.r.r.r.r.r.r.r.q.q.q.q.r.r.r.r.r.r.r.r.r.r.r.r.l.l.l.l.l.l.l.X ",
"l.l.A.A.A.A.A.A.A.A.A.l.l.l.l.l.l.l.l.l.l.l.l.r.r.r.r.r.r.r.r.r.r.r.r.r.r.r.r.q.q.q.q.q.q.r.r.X X X X X r.r.r.r.r.l.l.l.l.l.l.X ",
"A.A.A.A.A.A.A.A.A.A.A.l.l.l.l.l.l.l.r.r.r.r.r.r.r.r.r.r.r.r.r.r.r.r.r.q.q.q.r.q.q.q.q.q.q.r.X X X X X X X r.X X X X l.l.l.l.X X ",
"A.A.A.A.A.A.A.A.A.A.l.l.l.l.l.l.l.l.l.l.r.r.r.r.r.r.r.r.r.r.r.r.r.r.q.q.q.q.q.q.q.q.q.q.q.X X X A.A.X X X X X X X X X l.l.X X X ",
"l.l.l.l.l.A.A.A.A.A.l.l.l.l.l.l.l.l.l.l.l.l.r.r.r.r.r.r.r.r.r.r.r.q.q.q.q.q.A.A.A.A.q.q.q.A.A.A.A.A.A.A.X X A.A.A.X X X X X X X ",
"l.l.l.l.l.l.A.A.A.A.A.l.A.A.l.l.l.l.l.l.l.l.l.l.l.l.r.r.r.r.r.r.r.q.q.q.A.A.A.A.A.A.A.q.q.A.A.A.A.A.A.A.A.A.A.A.A.A.X X X X X XX",
"l.l.l.l.l.l.l.l.A.A.A.A.A.A.A.l.l.l.l.l.l.l.l.l.l.l.r.r.r.r.r.q.q.q.q.A.A.A.A.A.A.A.A.q.A.A.A.A.A.A.A.A.A.A.A.A.A.A.A.X X X XXXX",
"A.A.l.l.l.l.l.l.l.A.A.A.l.l.l.A.l.l.l.l.l.l.l.l.l.l.l.A.A.A.A.A.A.q.A.A.A.A.A.A.A.A.A.A.A.A.A.A.A.A.A.A.A.A.A.A.A.A.X X X X XXXX",
"A.A.A.l.l.l.l.l.l.l.l.l.l.l.l.l.l.l.l.l.l.l.l.l.l.l.A.A.l.l.A.A.A.A.A.A.A.A.A.A.A.A.A.A.A.A.A.A.A.A.A.A.A.A.A.A.A.A.A.A.X X X XX",
"A.A.A.l.l.l.A.A.l.l.l.l.l.l.l.l.l.l.l.l.l.l.l.l.l.l.A.l.l.l.l.A.A.A.A.A.A.A.A.l.l.l.A.A.A.A.A.l.l.A.A.A.A.l.l.l.l.A.A.A.A.X X XX",
"A.A.A.l.l.A.A.A.A.A.l.l.l.l.l.l.l.l.l.l.l.l.l.l.l.l.l.l.l.l.l.l.l.l.l.A.A.A.l.l.l.l.l.A.A.l.l.l.l.l.l.A.l.l.l.l.l.l.A.A.A.X X XX",
"A.A.A.A.A.A.A.A.A.A.A.A.A.A.A.A.A.A.A.l.l.l.l.l.l.l.l.l.l.l.l.l.l.l.l.l.A.A.l.l.l.l.l.A.l.l.l.l.l.l.l.l.l.l.l.l.l.l.A.A.A.X X XX",
"A.A.A.A.A.A.A.A.A.l.l.l.l.l.l.l.l.l.l.l.l.l.l.l.l.l.l.l.l.l.l.l.l.l.l.l.l.l.l.l.l.l.l.A.l.l.l.l.l.l.l.l.l.l.l.l.l.l.A.A.X X X XX",
"l.l.l.l.l.l.l.l.l.l.l.l.r.r.r.r.r.r.l.l.l.l.l.l.l.l.l.l.l.l.l.l.l.l.l.l.l.l.l.l.l.l.l.l.l.l.l.l.l.l.l.l.l.l.l.l.l.l.X X X X XXXX",
"l.l.l.l.l.l.l.l.l.l.r.r.r.r.r.r.r.r.r.l.r.r.r.r.l.l.l.l.l.l.A.A.A.l.l.l.l.l.l.l.l.l.l.l.l.l.l.l.l.l.l.l.l.l.l.l.l.X X X X X XXXX",
"l.l.l.l.l.l.l.l.r.r.r.r.r.r.r.r.r.r.r.r.r.r.r.r.r.l.l.l.A.A.A.A.A.A.l.l.l.l.l.l.l.l.l.l.r.r.r.l.l.l.l.l.l.l.l.l.l.l.X X X X X XX",
"l.l.l.l.l.l.l.r.r.r.r.r.r.r.r.r.r.r.r.r.r.r.r.r.r.A.A.A.A.A.A.A.A.A.A.A.A.A.r.r.r.l.l.r.r.r.r.r.l.l.l.l.l.l.l.l.l.l.l.l.X X X XX",
"l.l.l.l.l.r.r.r.r.r.r.l.l.l.l.l.r.r.r.r.r.r.r.r.r.r.r.r.A.A.A.A.A.A.A.A.A.r.r.r.r.r.r.r.l.l.r.r.r.l.l.l.l.l.l.r.l.l.l.l.l.X X XX",
"l.l.l.r.r.r.r.r.r.r.l.l.l.l.l.l.l.r.r.r.l.l.l.r.r.r.r.r.r.r.A.A.A.r.r.r.r.r.l.l.r.r.r.l.l.l.l.r.r.r.l.l.l.l.r.r.l.l.l.l.l.X X XX",
"r.l.l.l.l.l.l.l.l.l.l.l.l.l.l.l.l.r.r.l.l.l.c.M m m m m :.l.l.l.l.l.<.m m m m m x.m.l.l.m.m.m.m.l.l.l.l.l.r.r.r.r.l.l.l.l.X XXXX",
"r.r.r.r.l.l.l.l.l.l.l.l.l.l.l.l.l.l.m.n.m.c.M m &.&.&.M m 5.l.n.m.5.m m U &.&.&.M M c.c.M M m *.e.l.l.l.l.r.r.r.r.r.r.r.X X XXXX",
"l.l.l.l.l.l.l.l.l.l.l.l.l.l.l.l.l.n.*.m m m m >.k.k.M.z.M <.7.m m m m M z.M.k.k.>.m m m m &.&.&.*.e.l.l.r.r.r.r.l.l.l.X X X X XX",
"l.l.l.l.l.l.l.l.q.q.q.q.q.l.l.q.0.M m *.*.*.&.k.M.M.M.N.$.n m m m m U z.N.V.V.N.k.>.m m >.k.N.x.m *.w.7.e.r.r.l.l.l.X X X X X X ",
"l.l.l.l.l.l.l.q.q.q.q.q.q.q.q.0.U m *.m.M.j.*.k.M.M.M.k.o.U 3.3.2.n $.N.N.U.W.V.M.k.M b k.M.N.c.&.m m m =.7.e.l.l.l.X X r.r.X X ",
"l.l.l.l.l.q.q.q.A.A.A.A.q.4.4.,.m m b.N.M.j.&.k.C.V.N.z.N 9.(.Q.F.U O.N.L.!.T.C.M.k.8.8.C.V.M.N.z.m m m m m 5.m.l.l.X r.r.r.X X ",
"l.l.q.q.q.q.A.A.A.A.A.A.Z.,.m m m m b.M.M.j.5.C.W.U.V.6.M D.W.T.(.9.O.C.U.W.T.T.V.C.W.W.!.U.C.N.v.M :.:.:.&.m 1.r.r.r.r.r.r.X X ",
"A.q.q.A.A.A.A.A.A.A.A.A.9.m =.<.M m b.C.C.C.N.T.T.W.G.q.D.Q.T.T.W.D.z.L.!.T.T.T.K.R.T.T.T.T.U.N.c.O.N.N.N.v.&.=.e.r.r.r.r.X X XX",
"A.A.A.A.A.A.A.A.A.A.r.[ L >.b.N.O.M 6.I.!.T.K.T.T.T.W.Q.W.T.T.T.T.W.L.P.T.T.T.T.!.T.T.T.T.W.U.M.N.N.M.M.M.N.6.n 8.r.r.X X X XXXX",
"l.l.l.l.l.l.A.A.r.r.{ ; t +.H.N.N.O.9.I.W.T.!.T.T.T.T.T.T.!.T.T.T.W.!.T.T.T.!.T.T.T.T.T.T.R.K.M.M.M.M.M.M.N.6.n u X X X X X XXXX",
"l.l.l.l.l.l.l.l.l.y.< X   8 q s.N.N.K.K.T.!.!.!.T.T.T.!.U.L.!.T.!.P.U.!.T.T.L.R.!.!.!.!.T.K.M.M.N.N.N.N.N.c.=.>.c.X X X X XXXXXX",
"l.l.l.l.l.l.l.l.y.< . > 9 6 0 s.N.M.M.M.K.K.K.K.!.!.U.K.C.N.P.!.P.V.C.U.T.T.L.K.K.K.K.K.J.M.N.V.g.0 0 ( c.=.j ^ l.l.X X X X X XX",
"A.A.A.l.l.l.l.l.G X > ~ d.f.N.N.M.N.M.f.k.M.M.N.J.K.C.k.M.M.V.K.V.k.C.U.T.T.!.L.K.N.M.M.M.N.g.7 3     : D k & > y.l.X X X X X X ",
"A.A.A.A.l.s.5 7 < . 6 d.#.h.N.M.M.f.f.h.M.M.M.M.M.M.M.M.M.M.M.M.M.M.L.!.T.T.T.!.!.N.M.M.M.N.h.r H H 5   & & . X < X X l.l.X X X ",
"A.A.A.A.B.2 X X X . 6 d.#.j.N.M.M.j.p.k.M.M.M.N.k.f.f.N.M.M.M.M.M.M.L.!.T.T.T.T.J.N.M.M.M.M.N.N.N.N.h.5 . 3 A ; . X y.l.l.l.X X ",
"l.l.l.B.2 X & k k u = A d.d.k.M.M.N.d.a.k.N.k.f.a.@.@.f.M.M.M.M.M.M.V.P.!.!.!.J.M.M.M.M.M.M.M.M.M.M.N.H   9 d.~ ; . > s.l.l.X X ",
"l.l.l.y.X & c M M v y @ e @.d.k.N.f.@.@.a.a.a.@.@.@.@.a.N.M.M.M.N.h.j.V.C.C.C.M.M.M.M.M.M.M.M.M.M.M.N.r < ) @.@.~ ; X _ l.X X XX",
"l.l.l.y.X t M m m m v k R @.@.d.a.@.@.@.@.@.@.p.k.k.k.h.f.M.M.N.h.@.h.M.M.M.M.M.M.k.f.k.M.M.M.M.M.M.N.s.) @.@.@.d.3 X X X X XXXX",
"l.l.l.y.X t M m m m m m X.@.@.@.@.@.@.j.k.@.p.k.M.M.M.M.h.d.d.a.p.@.p.j.M.M.M.M.M.k.p.d.a.f.M.M.M.M.j.d.@.@.@.@.6 @ X X X XXXXXX",
"l.l.l.y.X t m m g % % C #.@.@.@.@.@.j.M.M.k.k.M.M.M.M.N.j.@.@.#.f.k.f.p.d.k.M.M.M.k.p.p.k.k.M.k.d.d.p.@.@.@.@.W v t X X & }.XXXX",
"r.r.r.[ X X p h # X 6 ] @.@.@.@.@.@.k.M.M.M.M.M.M.M.M.M.M.k.h.@.h.N.k.f.@.j.M.M.k.a.p.k.M.M.M.k.@.@.@.@.@.@.@.;.m v t X X [.XXXX",
"r.r.{ % X X + $ . 1 @.@.@.@.@.@.@.@.p.k.k.M.M.M.M.k.M.M.M.M.M.f.f.M.M.M.a.@.k.k.a.@.p.k.M.M.M.j.@.@.@.@.@.@.@.;.m m n & X [.XXXX",
"l.f.- X X % % $ . 4 @.@.@.] ) ` #.@.@.@.p.k.M.M.k.a.M.M.M.M.N.h.@.h.k.k.a.@.#.@.@.@.@.d.k.k.k.@.@.@.@.#.' ' ;.m m m M * X X XXXX",
"l.s.o X y n m h # X 6 ) ) 1 $ z  .@.@.@.@.p.k.k.@.a.k.k.M.M.M.f.@.@.@.@.@.@.@.@.@.@.@.@.@.@.@.@.@.@.@.X.m M m m m m v & X X .XXX",
"l.! o & m m m M g $ X o o $ h m m | ` ` #.@.@.@.@.@.@.a.k.k.f.@.@.@.@.@.@.@.@.@.@.@.@.@.@.@.@.@.@.@.@.| M m m m v c * X X X  XXX",
"l.! o & m m m m M g & $ . s n m m m m &.' @.@.@.@.@.@.@.@.@.@.@.@.@.@.@.@.@.@.` #.@.@.@.@.@.@.@.@.@.@.@.X.M m v t X X X X X _. X",
"h.! o & c M m m m m M f $ . s v m m &.' @.@.@.@.@.@.@.@.@.@.@.' ` @.@.@.@.@.` K ` @.@.@.#.` @.@.@.@.@.@.p.W m d # X X X X _.`..X",
"/ ! : X & k x M m m m M f * * z m m ` @.@.@.@.#...@.@.@.@.'  .%.-.' @.@.@.` K &.' @.@.@.` &.@.@.@.@.@.@.' ;.m M d $ X X n _.{.XX",
"P P ! : X X & x m m m m m M M m m m X.@.@.#. .| ;.@.@.@.' ;.b &.n ;. .|  .&.*.' @.@.@.@.| ;.@.@.@.@.@.p.Q m m m M s $ X X _._.{.",
"I I P S X X $ f M m m m m m m m m m m Q | ' %.K @.@.@.@.| M |  .%.b &.%.M m W #.@.@.| X.b  .@.@.@.@.p.` D c m m m M t X X _.).).",
"q.B.u.S X % f M m m M m m m m m m m m m ;.' ' b | @.p.' ;.;.p.@.p.| ..p.Q b m W X.X.m m m M X.X.X.X.| D t i M m m M t X X _._.].",
"S.t.u.J X t Y m M x d z m m m m m m m M ' @.' m M Q X.;.n ;.p.@.@.@. .` p.%.m m m m m m m m m m m c d t O s M m M k & X X _._. X",
"A.B.u.J X % h T c t O s M m m m m m m m W ' W m m m m m m &...@.@.p.;.%.W K m m m m m m m m m m m x p i * * x Y k % X X X _.[..X",
"A.S.u.i.1 X % s t . * z m m m m m m m m m ;.m m m m m m m m &...p. .&.m m m m m m m m m m m M m m m M Y f . * s & X X X _.). XXX",
"A.A.s./ / 1 X X X X s Y m m m m M m m m m m m m m m m m m m m &.E &.m m m m m m m m m m m v f M m m M z * X X X X X X _.).}..XXX",
"l.l.l.s./ ! 0 B B X & k M M M M d c m m m m m m m m m M m m m m m m M m m m m m m m m m m c $ d M M x & X < 0 0 X X ).).}..XXXXX",
"l.l.l.l.X o.} } [ a X & u u u u $ x M m m m m m m M c d M m m m m M f k m m m m m m m M v y X $ u u & X X 7 _ _ _ X X {..XXXXXXX",
"l.l.l.l.X e.o.R R F , X X X X X X * v m m m m m M c & $ f M M M M g # h M m m m m m n y * X X X X X X > q H _ / / X X XXXXXXXXXX",
"l.l.l.l.X r.e.O.o.R F X X X V w w w ^ [ v m m v t & X X $ t t t t % X & z M m m m m m h X X X X X X w H _ _ / s.h.X X XXXXXXXXXX",
"l.l.l.l.X X r.r.e.e.X X X X R _ _ _ _ X & * * & V V Z X X X X X X X X X & * * c m n t * X X X X X X _ _ / s.j.l.X X X XXXXXXXXXX",
"l.l.l.l.X X X X X X X X X X X / / / X X X ).X X X X X X X X X G G G G G X X X & & & ).).).)._.X X X X y.j.l.l.X X X XXXXXXXXXXXX",
"l.l.l.X X X X X X X X XXX X X X X X X X ).`. X XX X X ).X X X X _ _ _ X X X _._.).).).).)._._.'.XXX X X X X X X X XXXXXXXXXXXXXX",
"l.l.X X X XXXXXXXXXXXXXXXXX X X X X X `.`. XXX X).).).).].X X X X X X X X X |. X`._._._.`. X X.XXXXXXXX X X X X XXXXXXXXXXXXXXXX",
"X X X X XXXXXXXXXXXXXXXXXXXXXXXXXXXXXX.X.XXXXX X_.).).].{._.X X X X X X X {.XXXX.X X X X.XXXXXXXXXXXXXXXXXXXXXXXXXXXXXXXXXXXXXXX"
};
