/* XPM */
static const char *bot_6[] = {
/* columns rows colors chars-per-pixel */
"64 64 195 2 ",
"   c #0D122C",
".  c #13162B",
"X  c #161C2E",
"o  c #181E2E",
"O  c #121227",
"+  c #171E30",
"@  c #1C222E",
"#  c #172031",
"$  c #192333",
"%  c #1A2837",
"&  c #1C2C3A",
"*  c #182739",
"=  c #1D313D",
"-  c #21292F",
";  c #232C32",
":  c #282D33",
">  c #2C3533",
",  c #2B3936",
"<  c #313E35",
"1  c #393C36",
"2  c #364335",
"3  c #394536",
"4  c #3C4B37",
"5  c #3E4139",
"6  c #404B36",
"7  c #44473A",
"8  c #405238",
"9  c #495639",
"0  c #465A3A",
"q  c #4C5C3A",
"w  c #57593F",
"e  c #4C613B",
"r  c #53633C",
"t  c #596B3E",
"y  c #5D713F",
"u  c #5E793F",
"i  c #63753F",
"p  c #1F3541",
"a  c #1F3A45",
"s  c #213C45",
"d  c #213E48",
"f  c #23434B",
"g  c #26484E",
"h  c #314F48",
"j  c #3E5543",
"k  c #274D52",
"l  c #284F53",
"z  c #295256",
"x  c #2C5B5C",
"c  c #295659",
"v  c #32605B",
"b  c #2B5F62",
"n  c #2E6161",
"m  c #306764",
"M  c #316967",
"N  c #326C69",
"B  c #34726D",
"V  c #3E7E6F",
"C  c #347573",
"Z  c #377A73",
"A  c #397C74",
"S  c #2E7575",
"D  c #5C5E40",
"F  c #425842",
"G  c #5E6041",
"H  c #5E7940",
"J  c #476358",
"K  c #47765A",
"L  c #4F724F",
"P  c #616242",
"I  c #657941",
"U  c #6B7B40",
"Y  c #617540",
"T  c #7C7C49",
"R  c #417F6D",
"E  c #417665",
"W  c #517261",
"Q  c #597C68",
"!  c #407F72",
"~  c #398078",
"^  c #398077",
"/  c #5E8354",
"(  c #54815B",
")  c #5B8E5C",
"_  c #578C5F",
"`  c #5E905B",
"'  c #6E8443",
"]  c #6D8C43",
"[  c #68874C",
"{  c #698A4F",
"}  c #768E45",
"|  c #788E44",
" . c #739445",
".. c #799145",
"X. c #749C4C",
"o. c #799F4A",
"O. c #799C46",
"+. c #668C57",
"@. c #659456",
"#. c #699654",
"$. c #6D9851",
"%. c #619159",
"&. c #6A935B",
"*. c #6D995F",
"=. c #729C5D",
"-. c #769A50",
";. c #7DA147",
":. c #7BA048",
">. c #7BA15A",
",. c #4D8665",
"<. c #44816D",
"1. c #49856D",
"2. c #4F8A6D",
"3. c #528963",
"4. c #588D67",
"5. c #538B69",
"6. c #56896E",
"7. c #5C9165",
"8. c #5F9669",
"9. c #458272",
"0. c #578C70",
"q. c #5D8C75",
"w. c #629463",
"e. c #689661",
"r. c #6C9C63",
"t. c #68956C",
"y. c #719B6F",
"u. c #628E74",
"i. c #679175",
"p. c #6FA166",
"a. c #79A863",
"s. c #73A464",
"d. c #89884C",
"f. c #918F4E",
"g. c #869E47",
"h. c #839C48",
"j. c #93914F",
"k. c #9B9851",
"l. c #81A346",
"z. c #84A548",
"x. c #89A349",
"c. c #8CAA49",
"v. c #83A949",
"b. c #90A448",
"n. c #92AD4A",
"m. c #96B14B",
"M. c #9CB44C",
"N. c #9BB94E",
"B. c #84A657",
"V. c #86AB56",
"C. c #8BAC54",
"Z. c #83A658",
"A. c #91AE52",
"S. c #8EB154",
"D. c #93B351",
"F. c #A1B74C",
"G. c #A3B94C",
"H. c #A6A354",
"J. c #AAA655",
"K. c #A7BA50",
"L. c #ABBD53",
"P. c #A6B459",
"I. c #BAB65A",
"U. c #BFBA5B",
"Y. c #B0AC57",
"T. c #8CAA6C",
"R. c #8FA363",
"E. c #91AD6B",
"W. c #AFBE6A",
"Q. c #AAC04C",
"!. c #B2C057",
"~. c #B3C159",
"^. c #BAC55D",
"/. c #BDC760",
"(. c #BEC764",
"). c #BEC765",
"_. c #C1C963",
"`. c #C5CB66",
"'. c #C7CC67",
"]. c #C6CC67",
"[. c #C7CC67",
"{. c #C9CD67",
"}. c #CCCF67",
"|. c #C8CD68",
" X c #C8CD68",
".X c #CACE69",
"XX c #C8CD68",
"oX c #CED066",
"OX c #3A8487",
"+X c #3A8688",
"@X c #3C8A8C",
"#X c #439F9E",
"$X c #46A7A5",
"%X c #46A8A6",
"&X c #47ABA9",
/* pixels */
"N.N.N.N.N.U.U.U.U.U.U.U.U.U.U.a.a.a.a.a.a.a.a.a.a.a.a.a.a.a.a.a.a.a.a.a.a.a.a.a.a.a.a.a.a.a.a.a.a.a.a.a.a.a.a.a.a.a.a.a.a.a.a.a.",
"N.N.N.N.N.N.U.U.U.U.U.U.N.a.a.a.N.N.N.a.a.a.a.a.a.a.a.a.a.a.a.a.a.a.a.a.a.a.a.a.i.i.i.i.a.a.a.a.a.a.a.a.a.a.a.a.a.a.a.a.a.N.N.N.",
"N.N.U.U.U.U.U.U.U.U.U.N.N.N.N.N.N.N.N.N.N.N.N.a.a.a.a.a.a.a.a.a.a.a.a.a.a.a.a.i.i.i.i.i.i.N.N.N.N.N.N.N.N.i.i.i.i.a.a.a.N.N.N.N.",
"U.U.U.U.U.U.U.U.U.U.U.N.N.N.N.N.N.N.a.a.a.a.a.a.a.a.a.a.a.a.a.a.a.a.a.i.i.i.a.i.i.i.i.i.i.i.i.i.i.i.N.N.i.i.i.i.i.i.i.a.N.N.N.N.",
"U.U.U.U.U.U.U.U.U.U.N.N.N.N.N.N.N.N.N.N.a.a.a.a.a.a.a.a.a.a.a.a.a.a.i.i.i.i.i.i.i.i.i.i.i.i.i.i.i.i.i.i.i.U.U.U.i.i.i.i.N.N.N.U.",
"N.N.N.N.N.U.U.U.U.U.N.N.N.N.N.N.N.N.N.N.N.N.a.a.a.a.a.a.a.a.a.a.a.i.i.i.i.i.U.U.U.U.i.i.i.i.U.U.U.U.i.i.U.U.U.U.U.i.i.i.i.U.U.U.",
"N.N.N.N.N.N.U.U.U.U.U.N.U.U.N.N.N.N.N.N.N.N.N.N.N.N.a.a.a.a.a.a.a.i.i.i.U.U.U.U.U.U.U.i.i.U.U.U.U.U.U.U.U.U.U.U.U.U.U.U.U.U.N.N.",
"N.N.N.N.N.N.N.N.U.U.U.U.U.U.U.N.N.N.N.N.N.N.N.N.N.N.a.a.a.a.a.i.i.i.i.U.U.U.U.U.U.U.U.i.U.U.U.U.U.U.U.U.U.U.U.U.U.U.U.U.U.U.N.N.",
"U.U.N.N.N.N.N.N.N.U.U.U.N.N.N.U.N.N.N.N.N.N.N.N.N.N.N.U.U.U.U.U.U.i.U.U.U.U.U.U.U.U.U.U.U.U.U.U.U.U.U.U.U.U.U.U.U.U.U.U.U.U.N.U.",
"U.U.U.N.N.N.N.N.N.N.N.N.N.N.N.N.N.N.N.N.N.N.N.N.N.N.U.U.N.N.U.U.U.U.U.U.U.U.U.U.U.U.U.U.U.U.U.U.U.U.U.U.U.U.U.U.U.U.U.U.U.U.U.U.",
"U.U.U.N.N.N.U.U.N.N.N.N.N.N.N.N.N.N.N.N.N.N.N.N.N.N.U.N.N.N.N.U.U.U.U.U.U.U.U.N.N.N.U.U.U.U.U.N.N.U.U.U.U.N.N.U.U.U.U.U.U.U.U.U.",
"U.U.U.N.N.U.U.U.U.U.N.N.N.N.N.N.N.N.N.N.N.N.N.N.N.N.N.N.N.N.N.N.N.N.N.U.U.U.N.N.N.N.N.U.U.N.N.N.N.N.N.U.N.N.N.N.U.U.U.U.U.U.U.U.",
"U.U.U.U.U.U.U.U.U.U.U.U.U.U.U.U.U.U.U.N.N.N.N.N.N.N.N.N.N.N.N.N.N.N.N.N.U.U.N.N.N.N.N.U.N.N.N.N.N.N.N.N.N.N.N.N.U.U.U.U.U.U.U.U.",
"U.U.U.U.U.U.U.U.U.N.N.N.N.N.N.N.N.N.N.N.N.N.N.N.N.N.N.N.N.N.N.N.N.N.N.N.N.N.N.N.N.N.N.U.N.N.N.N.N.N.N.N.N.N.N.N.U.U.U.U.U.N.N.N.",
"N.N.N.N.N.N.N.N.N.N.N.N.a.a.a.a.a.a.N.N.N.N.N.N.N.N.N.N.N.N.N.N.N.N.N.N.N.N.N.N.N.N.N.N.N.N.N.N.N.N.N.N.N.N.N.N.N.N.N.N.N.N.N.N.",
"N.N.N.N.N.N.N.N.N.N.a.a.a.a.a.a.a.a.a.N.a.a.a.a.N.N.N.N.N.N.U.U.U.N.N.N.N.N.N.N.N.N.N.N.N.N.N.N.N.N.N.N.N.N.N.N.N.N.N.N.N.N.N.N.",
"N.N.N.N.N.N.N.N.a.a.a.a.a.a.a.a.a.a.a.a.a.a.a.a.a.N.N.N.U.U.U.U.U.U.N.N.N.N.N.N.N.N.N.N.a.a.a.N.N.N.N.N.N.N.N.N.N.N.N.N.N.N.N.N.",
"N.N.N.N.N.N.N.a.a.a.a.a.a.a.a.a.a.a.a.a.a.a.a.a.a.U.U.U.U.U.U.U.U.U.U.U.U.U.a.a.a.N.N.a.a.a.a.a.N.N.N.N.N.N.N.N.N.N.N.N.N.N.N.N.",
"N.N.N.N.N.a.a.a.a.a.a.N.N.N.N.N.a.a.a.a.a.a.a.a.a.a.a.a.U.U.U.U.U.U.U.U.U.a.a.a.a.a.a.a.N.N.a.a.a.N.N.N.N.N.N.a.a.a.N.N.N.N.N.N.",
"N.N.N.a.a.a.a.a.a.a.N.N.N.N.N.N.N.a.a.a.N.N.N.a.a.a.a.a.a.a.U.U.U.a.a.a.a.a.N.N.a.a.a.N.N.N.N.a.a.a.N.N.N.N.a.a.a.a.a.N.N.N.a.a.",
"a.N.N.N.N.N.N.N.N.N.N.N.N.N.N.N.N.a.a.N.N.N.C.A Z Z Z Z 4.N.N.N.N.N.7.Z Z Z Z Z V.D.N.N.D.D.D.D.N.N.N.N.N.a.a.a.a.a.a.a.a.a.a.a.",
"a.a.a.a.N.N.N.N.N.N.N.N.N.N.N.N.N.N.D.S.D.C.A Z <.<.<.A Z w.N.S.D.w.Z Z ! <.<.<.A A C.C.A A Z 1.s.N.N.N.N.a.a.a.a.a.a.a.a.a.a.a.",
"N.N.N.N.N.N.N.N.N.N.N.N.N.N.N.N.N.S.1.Z Z Z Z 5.M.M.F.B.A 7.r.Z Z Z Z A B.F.M.M.5.Z Z Z Z <.<.<.1.s.N.N.a.a.a.a.N.N.N.a.a.a.a.a.",
"N.N.N.N.N.N.N.N.i.i.i.i.i.N.N.i.u.A Z 1.1.1.<.M.F.F.F.G.>.C Z Z Z Z ! B.G.K.K.G.M.5.Z Z 5.M.G.V.Z 1.p.r.s.a.a.N.N.N.N.N.N.N.N.N.",
"N.N.N.N.N.N.N.i.i.i.i.i.i.i.i.u.! Z 1.D.F.m.1.M.F.F.F.M.*.! 0.0.9.C >.G.K._.{.K.F.M.A V M.F.G.C.<.Z Z Z 2.r.s.N.N.N.N.N.N.N.N.N.",
"N.N.N.N.N.i.i.i.U.U.U.U.i.q.q.6.Z Z A.G.F.m.<.M.L.K.G.B.S y.oX}.E.! =.G.^.|.'.L.F.M.t.t.L.K.F.G.B.Z Z Z Z Z w.D.N.N.N.N.N.N.N.N.",
"N.N.i.i.i.i.U.U.U.U.U.U.P.6.Z Z Z Z A.F.F.m.w.L.{._.K.e.A T.{.'.oXy.=.L._.'.'.'.K.L.{.{.|._.L.G.Z.A 4.4.4.<.Z 8.a.a.a.a.a.N.N.N.",
"U.i.i.U.U.U.U.U.U.U.U.U.t.Z 2.7.A Z A.L.L.L.G.'.'.{.W.i.T.}.'.'.{.T.B.^.|.'.'.'.~.].'.'.'.'._.G.C.=.G.G.G.Z.<.2.s.a.a.a.a.a.a.a.",
"U.U.U.U.U.U.U.U.U.U.a.+.E 5.A.G.=.A e.).|.'.~.'.'.'.{.}.{.'.'.'.'.{.^./.'.'.'.'.|.'.'.'.'.{._.F.G.G.F.F.F.G.e.Z R.U.U.U.U.U.U.U.",
"N.N.N.N.N.N.U.U.a.a.+., a -.Q.G.G.=.y.).{.'.|.'.'.'.'.'.'.|.'.'.'.{.|.'.'.'.|.'.'.'.'.'.'.].~.F.F.F.F.F.F.G.e.C R.U.U.U.U.U.U.U.",
"N.N.N.N.N.N.N.N.N.h.2 X . 6 t x.G.G.~.~.'.|.|.|.'.'.'.|._.^.|.'.|./._.|.'.'.^.].|.|.|.|.'.~.F.F.G.G.G.G.G.C.2.4.S.N.N.N.N.N.N.N.",
"N.N.N.N.N.N.N.N.h.2 . < e 0 r x.G.F.F.F.~.~.~.~.|.|._.~.L.G./.|./.K.L._.'.'.^.~.~.~.~.~.!.F.G.K.b.r r | S.2.b F g.N.N.N.N.N.N.N.",
"U.U.U.N.N.N.N.N.I X < ] v.c.G.G.F.G.G.c.M.F.F.G.!.~.L.F.F.F.K.~.K.M.L._.'.'.|.^.~.F.F.F.F.G.b.q 3     > j f & X 3 h.N.N.N.N.N.U.",
"U.U.U.U.N.x.9 q 2 . 0 v.:.n.G.F.F.c.c.n.F.F.F.F.F.F.F.F.F.F.F.F.F.F.^.|.'.'.'.|.|.G.F.F.F.G.n.i I U 9   . 2 y , . 3 x.N.N.N.U.U.",
"U.U.U.U.H.5 X X X . 0 v.:.m.G.F.F.m.l.M.F.F.F.G.M.c.c.G.F.F.F.F.F.F.^.|.'.'.'.'.~.G.F.F.F.F.G.G.G.G.n.9   e v.] , X j.U.U.U.U.U.",
"N.N.N.J.5 X & n n d - H v.v.M.F.F.G.z.x.M.G.M.c.z.:.:.c.F.F.F.F.F.F.K./.|.{.{.!.F.F.F.F.F.F.F.F.F.F.G.i <  .:.v.4 . < x.U.U.U.U.",
"N.N.N.h.X & N A A B s @ u ;.v.M.G.c.:.:.z.z.z.:.:.:.:.z.G.F.F.F.G.n.m.K.L.L.L.F.F.F.F.F.F.F.F.F.F.F.G.g.] ;.:.:.] , X ..N.N.U.N.",
"N.N.N.h.X p A Z Z A B n / :.:.v.z.:.:.:.:.:.:.l.M.M.M.n.c.F.F.G.n.:.n.F.F.F.F.F.F.M.c.M.F.F.F.F.G.G.m.l.:.:.:.:.v.2 X ..N.N.N.N.",
"N.N.N.h.X p A Z Z Z Z Z %.:.:.:.:.:.:.m.M.l.l.M.F.F.G.F.n.v.v.z.l.:.l.m.F.F.F.F.F.M.l.v.z.c.F.M.z.z.l.:.:.:.:.` h @ X > x.N.N.N.",
"N.N.N.h.X p Z Z c % % L :.:.:.:.:.:.m.F.F.M.M.F.F.F.F.G.m.:.:.:.c.M.c.l.v.M.F.F.F.M.l.l.M.M.F.M.:.:.:.:.:.:.l.3.B p X X ; *.a.N.",
"a.a.a.+.X X f x + X 0 O.:.:.:.:.:.:.M.F.F.F.F.F.F.F.F.F.F.M.n.:.n.G.F.c.:.m.F.F.M.z.l.M.F.F.F.M.:.:.:.:.:.:.:.3.Z B p X X &.a.a.",
"a.a.+.% X X + $ . 8 :.:.:.:.:.:.:.:.l.M.M.F.F.F.F.F.F.F.F.F.F.c.c.F.F.F.z.:.M.M.z.:.l.M.F.F.F.m.:.:.:.:.o.:.) Z Z Z C & X &.a.a.",
"N.c.; X X % % $ . 8 :.:.:.O. .X.:.:.:.:.l.M.F.F.M.z.F.F.F.F.G.n.:.n.F.M.z.:.:.:.:.:.:.v.M.M.M.:.:.:.l.%.Z V Z Z Z Z A = X &.N.N.",
"N.x.o X s C Z x # X 0  . .4 $ m #.:.:.:.:.l.M.M.:.z.M.M.F.F.F.c.:.:.:.:.:.:.:.:.:.:.:.:.:.:.:.:.:.:.l.@.Z Z Z Z Z Z B & X ' N.N.",
"N.' o & Z Z Z A x $ X o o $ x Z Z #.X.X.:.:.:.:.:.:.:.z.M.M.c.:.:.:.:.:.:.:.o.:.:.:.:.:.:.:.:.:.:.:.:.:.%.Z Z B N N = X ; ' n.N.",
"N.' o & Z Z Z Z A c & $ . k C Z Z Z <.<.o.:.:.:.:.:.:.:.:.:.:.:.:.:.:.:.:.X.<.X.:.:.:.:.X.:.:.:.:.:.:.:.:.) Z k $ X X : T j.j.I.",
"n.' o & N A Z Z Z Z A z $ . k B Z <.X.:.:.:.:.:.:.:.:.:.:.:.o.X.:.:.:.:.X.<.<.X.:.:.:.o.<.:.:.:.:.:.:.:.o.3.Z A d X X P f.j.k.I.",
"} ' > X & n M A Z Z Z A z = = m A X.:.:.:.:.:.$.:.:.:.:.:.o.3.,.o.l.:.l.,.Z X.:.:.:.:.o.<.:.:.:.:.:.:.l.` Z Z A k $ X X T j.Y.N.",
"W W ' : X X & M Z Z Z Z Z A A Z Z ` :.:.:.:.%.<.:.:.:.:.o.) ,.V ,.#.@.#.<.Z ` :.:.:.#.%.V #.o.#.#.#.X.:.K N Z Z A k $ X T ..} c.",
"Q Q W J X X $ z A Z Z Z Z Z Z Z Z Z ) @.@.o.,.<.:.:.:.:.@.,.l.#.,.V <.,.,.V Z ) @.%.Z Z Z V ) Z N c K ( a g A Z Z A p X I ..} W ",
"i.J.j.J X % z A Z Z A A Z Z Z Z Z Z Z Z 3.:.o.V @.:.l.o.3.3.l.:.l.@.$.l.l.,.Z Z Z Z Z Z Z Z Z Z M s g a O k A Z Z A p X I ..} Q ",
"I.f.j.T X p ~ Z A M l m Z Z Z Z Z Z Z A :.:.o.Z A ` %.3.C 3.l.:.:.l.#.X.#.R Z Z Z Z Z Z Z Z Z Z Z A m f = p N A A n & X T W W u.",
"U.H.j.T X % x ^ N p O k A Z Z Z Z Z Z Z ) o.) Z Z Z Z Z Z <.$.:.:.l.3.,.R Z Z Z Z Z Z Z Z Z A Z Z Z Z ~ z O p l k % X 7 d.j.H.U.",
"U.I.j.d.4 X % k p . = m Z Z Z Z Z Z Z Z Z 3.Z Z Z Z Z Z Z Z <.$.l.#.<.Z Z Z Z Z Z Z Z Z Z B z A A Z Z A z X X X X X 7 d.j.f.I.U.",
"U.U.x.} } 4 X X X X k ~ Z Z Z Z A Z Z Z Z Z Z Z Z Z Z Z Z Z Z <._ <.Z Z Z Z Z Z Z Z Z Z Z N $ f z A A m = 1 G D D q ' ..f.J.U.U.",
"N.N.N.x.} ' r r r 2 & n A A A A l N Z Z Z Z Z Z Z Z Z A Z Z Z Z Z Z A Z Z Z Z Z Z Z Z A C d X . % f f = X w k.j.X ..} } x.U.U.U.",
"N.N.N.N.c.x.......q X & d d d d $ M A Z Z Z Z Z Z A N l A Z Z Z Z A z n A Z Z Z Z Z C d s X X : t 6 X X < T j.X X } x.c.N.N.N.N.",
"N.N.N.N.X N.x.} } X X X X X X X X = B Z Z Z Z Z A N & $ z A A A A c $ x A A A Z Z Z Z v t t t Y X ' t t T j.j.X } x.N.N.N.N.N.N.",
"N.N.N.N.X N.N.n.x.X X y y y y y y y W ( Z Z Z B p & X X $ p p p p % X & p p p N Z C s { ........X j.j.j.j.f.X X n.N.N.N.N.N.N.N.",
"N.N.N.N.X N.N.N.N.X X ..........X X / / ( ( = [ i i I j X X X X X X X X q i i [ { = X X } } ..X X X j.f.f.X X X N.N.N.N.N.X N.N.",
"N.N.N.X X X N.N.X X X m.h.} } } X X / / / / X n.......} X X X C C C X X X ....| X X OXX X X X X X X X X X X X X N.N.N.N.X X N.N.",
"N.N.X X X X X X X X X X N.m.m.X X X X / / X X X } } } X X X X +X+X+X+XX X X X X X X OXOXX X X X &XX X X X X X X X N.N.X X X N.N.",
"N.X X &X&X&XX X X X X X X X X X X X X X X X X X X X X X X X OXOXOXOXOXOXX X X X X +X+X+X@X$X$X%X&X&XX X X X &XX X X X X X X X N.",
"X X &X&X&X&X&X&X&XX X X X X X X &X&XX X X &XX X X X X X X +XOXOXOXOXOXOXOX#X&X&X%X$X%X$X%X&X&X&X&X&X&X&X&X&X&X&XX X X X X &XX X "
};
