/* XPM */
static const char *enemy_left[] = {
/* columns rows colors chars-per-pixel */
"74 79 16 1 ",
"  c #161C2E",
". c #693D5B",
"X c #685757",
"o c #417168",
"O c #B65555",
"+ c #9E7466",
"@ c #977B6B",
"# c #38B251",
"$ c #D9945F",
"% c #C5836E",
"& c #95D562",
"* c #FFED44",
"= c #D5B583",
"- c #EFE1AB",
"; c white",
": c None",
/* pixels */
"::::::::::::::::::::::::::::::::::::::::::::::::::::::::++++:::$$:::::::::",
"::::::::::::::::::::::::::::::::::::::::::::::::::::::+$$$$++:::$$$$$:::::",
"::::::::::::::::::::::::::::::::::::::::::::::::::::+$$$$$$++:::$$$$$$$:::",
":::::::::::::::::::::::::::::::::::::::::::::::::::+++++++++++:::$$$$$$$::",
"::::::::::::::::::::::::::::::::::::::::::::::::::++++++:::::::::$$$$$$$$:",
"::::::::::::::::::::::::::::::::::::::::::::::::::+++::::::::::::$$**$$$$:",
"::::::::::::::::::::::::::::::::::::::::::::::::::+::::::::::::::$$***$$$$",
"::::::::::::::::::::::::::::::::::::::::::::::::::::::::::::::::$$$****$$$",
"::::::::::::::::::::::::::::::::::::::::::::::::::::::::::::::::$$$$***$$$",
":::::::::::::::::::::::::::::::::::    :::::::::::::::::::::::$$$$$$***$$$",
"::::::::::::::::::::::::::::::::::     ::::::::::::::::::::$$$$$$$$*$**$$ ",
"::::::::::::::::::::::::::::::::    %  :::::::::::::::::::$$$$$$$$**$$$$$ ",
"::::::::::::::::::::::::::::::    O%%  ::::::::::::::::::$$$$$$$$****$$$$ ",
":::::::::::::::::::::::::::::    OO%%  :::::::::::::::::$$$$$$$$*****$$$$ ",
":::::::::::::::::::::::::::     OOO%%   :::::::::::::::$$$$$$$****;**$$$  ",
"::::::::::::::::::::::::::     OOOO%%%  ::::::::::::::$$$$*******;;*$$$$  ",
":::::::::     :::::::::::     O%%%OO%%   :::::::::::: $$$********;**$$$  :",
":::::::::      :::::::::    ...%%%OO%%%   ::::::  ::: $$******;*****$$$  :",
":::::::::  &&   :::::       ...O%%%OO%%%  ::::    ::: $$****;;;****$$$  ::",
":::::::::  #&&   :::         ...%%%OO%%%   :      ::  $*****;;****$$$$ :::",
"::::::::::  &&   :     .OOO  ....%%OOO%%      &&  ::  $***;*;;***$$$$  :::",
"::::::::::  #&&      ...OOOO   ...OOOO%%    #&&&  :: $$***;;;***$$$$  ::::",
"::::::::::  #&&     .....OOOOO  ..OOOOO    #&&&&  :: $$**;;;****$$$  :::::",
"::::::::::  ##&     ......OOOOOOO..OOOO  ###&&&& ::: $$**;;;***$$$   :::::",
"::::::::::  ##         .....OOOOOO..OO  ###&&&&  ::: $$**;*;***$$   ::::::",
"::::::::::: #   ..OO     .....OOOOOOO oo###&&&   :::  $==;*****$   :::::::",
":::::::::::    ...OOOOO   .....OOOOO ooo###&&&   :::   --------=  ::::::::",
":::::::::::   .....OOOOOOO.......OO  oo###&&&   ::::  ==----====  ::::::::",
":::::::::::  ........OOOOOOOOOOOOOO ooo###&&   :::::  ==-----= =  ::::::::",
":::::::::::  ..........OOOOOOOOOOOOoooo###&&   :::::  ===-----    ::::::::",
"::::::::::   .............OOOOOOOOOoooo###&     ::::  -== ==--=   ::::::::",
"::::::::::   ..............OOOOOOOO ooo###&      :::  --   =====  ::::::::",
":::::::::             ........OOOO  oooo##&      :::  ===   ====  ::::::::",
"::::::::                ........OO   ooo##   %%   ::    ==    =   ::::::::",
":::::::    ########        ...OOOOO  oooo#  O%%%  :::             ::::::::",
"::::::   ##&&&#######        ..OOOOO  ooo#  O%%%  ::::           :::::::::",
":::::   #&&&&&#########oo     ..OOOOOOOOOO%%%%%%  ::::  XXXX    ::::::::::",
"::::   #&&&&&##########ooo     .OOOOOOOO%%%%%%%%  ::::  XXXXX  :::::::::::",
":::   &&&&&&###########oooo     OOOOOO%%%%%%%%%%  ::::  @@@XX  :::::::::::",
"::   #&&&&#############oooooooo  OOOOOOOOOOOOO%%  ::::  @@@XX  :::::::::::",
":  ##########     ####oooooo     OOOOOOOOOOOO%%%  ::::  @@@XX ::::::::::::",
"   #######          oooooo       OOOOOOOOOO%%%%   ::::  @@@XX ::::::::::::",
"  ####      :        oooooooo    OOOOOOOOOOOOO    ::::  @@XXX ::::::::::::",
"  ##      :::   ooo  ooooooo     OOOOOOOOOOO     :::::  @@XX  ::::::::::::",
"        :::::  ooooooooooooo    ..OOOOOOO.   ..  ::::   XXXX  ::::::::::::",
"     ::::::::  oooooooooooooo  .....O..........  :::          ::::::::::::",
":::::::::::::  oooooooooooo   ...OOOOOOOOOOOOO.  ::: ##        :::::::::::",
":::::::::::::   oooooooooo   ...OOOOOOOOOOOOOOO  :: ###    &&   ::::::::::",
"::::::::::::::   oooooooo   ...OOOOOOOOOOOOOOOO  :: ##   &&&&   ::::::::::",
":::::::::::::     ooooo   .....OOOOOOOOOOO   OO  :: ##  &&&&&#  ::::::::::",
"::::::::::::   .. oooo  .........OOOOOOOOO       ::  #  &&&&##  ::::::::::",
"::::::::::::  .....ooo............OOOOOOOOO            &&&&###  ::::::::::",
":::::::::::   .....  .............OOOOOOOOOOO          #######  ::::::::::",
"::::::::     ......................OOOOOOOOOOOO        #######  ::::::::::",
":::::::      ......................OOOOOOOO       :    ######  :::::::::::",
"::::::   ##    ..     ...........                 :::   #####  :::::::::::",
":::::   ###                                ==@@=  :::         ::::::::::::",
":::::  ##### XX@@ @@@@        XXX===@@===@@==@@=  :::        :::::::::::::",
":::::  ##### XX@  @@@@  @@XX@@XXX===@@===@@       :::  X     :::::::::::::",
":::::  #####      @XX@  @@XX@@                    :::  XXX   :::::::::::::",
":::::  #####       XX                       ....  :::  @@X   :::::::::::::",
":::::   ###o                  ...................  ::  @@X   :::::::::::::",
"::::::          @@   @@@  .................OOOOOO   ::      ::::::::::::::",
":::::::        XX@   @XX   ...........OOOOOOOOOOOO  :::    :::::::::::::::",
":::::::::::   @XXX   XXXX  ...........OOOOOOOO      ::::::::::::::::::::::",
":::::::::::  @@@      X@@@     .......              ::::::::::::::::::::::",
":::::::::::: @@         @@                     :::::::::::::::::::::::::::",
"::::::::::::         :      ::         :     :::::::::::::::::::::::::::::",
"::::::::::::::     :::::    :::::::::::::    :::::::::::::::::::::::::::::",
"::::::::::::::    ::::::::::::::::::::::::   :::::::::::::::::::::::::::::",
"::::::::::::::    ::::::::::::::::::::::::    ::::::::::::::::::::::::::::",
":::::::::::::::   ::::::::::::::::::::::::    ::::::::::::::::::::::::::::",
":::::::::::::     :::::::::::::::::::::::::     ::::::::::::::::::::::::::",
":::::::::::::     :::::::::::::::::::::::::     ::::::::::::::::::::::::::",
"::::::::::::::::::::::::::::::::::::::::::::::::::::::::::::::::::::::::::",
"::::::::::::::::::::::::::::::::::::::::::::::::::::::::::::::::::::::::::",
"::::::::::::::::::::::::::::::::::::::::::::::::::::::::::::::::::::::::::",
"::::::::::::::::::::::::::::::::::::::::::::::::::::::::::::::::::::::::::",
"::::::::::::::::::::::::::::::::::::::::::::::::::::::::::::::::::::::::::"
};
