/* XPM */
static const char *enemy[] = {
/* columns rows colors chars-per-pixel */
"64 64 219 2 ",
"   c #0D172C",
".  c #13162C",
"X  c #151B2E",
"o  c #191C2F",
"O  c #1A1E30",
"+  c #201E31",
"@  c #19212F",
"#  c #1C2231",
"$  c #1A2931",
"%  c #1A2834",
"&  c #1B3434",
"*  c #1D3B35",
"=  c #242334",
"-  c #272A36",
";  c #292A36",
":  c #2A2439",
">  c #322635",
",  c #31263C",
"<  c #35293D",
"1  c #3A2A38",
"2  c #26353A",
"3  c #35333C",
"4  c #383338",
"5  c #3A343D",
"6  c #482D3A",
"7  c #44383C",
"8  c #58353E",
"9  c #1F4237",
"0  c #254838",
"q  c #314239",
"w  c #394F3C",
"e  c #23553B",
"r  c #245C3D",
"t  c #25613E",
"y  c #2D613F",
"u  c #53413D",
"i  c #362940",
"p  c #3C2B43",
"a  c #243942",
"s  c #3B3741",
"d  c #432E46",
"f  c #462F48",
"g  c #473545",
"h  c #433D44",
"j  c #4B324B",
"k  c #5A3440",
"l  c #52344E",
"z  c #563551",
"x  c #593753",
"c  c #553D54",
"v  c #5E3955",
"b  c #6E3B43",
"n  c #653A48",
"m  c #743E45",
"M  c #613A56",
"N  c #663C5A",
"B  c #6A3D5C",
"V  c #703F5C",
"C  c #2A4549",
"Z  c #315253",
"A  c #355958",
"S  c #2A7543",
"D  c #2C7B44",
"F  c #307247",
"G  c #38645C",
"H  c #3B6761",
"J  c #3E6B64",
"K  c #3F7865",
"L  c #4C4746",
"P  c #4D4449",
"I  c #51474B",
"U  c #584748",
"Y  c #544B4C",
"T  c #5D524E",
"R  c #5A4B52",
"E  c #565552",
"W  c #5E5151",
"Q  c #7F4248",
"!  c #785847",
"~  c #70514F",
"^  c #744059",
"/  c #7A435A",
"(  c #645553",
")  c #6E5052",
"_  c #695956",
"`  c #6C5A59",
"'  c #507246",
"]  c #75625C",
"[  c #79655D",
"{  c #7B695C",
"}  c #486766",
"|  c #406E66",
" . c #417167",
".. c #417168",
"X. c #776B62",
"o. c #834349",
"O. c #8C464B",
"+. c #94494D",
"@. c #994B4E",
"#. c #834559",
"$. c #884759",
"%. c #8D4858",
"&. c #9C4D57",
"*. c #954B58",
"=. c #815C51",
"-. c #9D5558",
";. c #A24F55",
":. c #A34F58",
">. c #A65257",
",. c #AC5255",
"<. c #B65555",
"1. c #B95656",
"2. c #B75957",
"3. c #8F6B56",
"4. c #BB635D",
"5. c #A8715A",
"6. c #846E62",
"7. c #9D6863",
"8. c #8A7365",
"9. c #9E7466",
"0. c #927868",
"q. c #957A6A",
"w. c #9B7E6D",
"e. c #BE6E62",
"r. c #A47464",
"t. c #AB7964",
"y. c #BF7064",
"u. c #B87B68",
"i. c #C06E62",
"p. c #C07466",
"a. c #C47B6A",
"s. c #2D8446",
"d. c #2F8B48",
"f. c #33994B",
"g. c #399057",
"h. c #35A54E",
"j. c #35AA4F",
"k. c #39AB54",
"l. c #37B251",
"z. c #38B451",
"x. c #39B953",
"c. c #3F8262",
"v. c #5E854C",
"b. c #679750",
"n. c #6B9751",
"m. c #55A752",
"M. c #47B954",
"N. c #79AD57",
"B. c #7DB459",
"V. c #679175",
"C. c #79A863",
"Z. c #5CC158",
"A. c #65C55A",
"S. c #75CA5C",
"D. c #FFED3D",
"F. c #9BB94E",
"G. c #82BB5B",
"H. c #BFBA5B",
"J. c #8F826B",
"K. c #96846C",
"L. c #B78263",
"P. c #A68D70",
"I. c #AD9571",
"U. c #B29974",
"Y. c #B99E77",
"T. c #BDA279",
"R. c #CD8B5C",
"E. c #D5915F",
"W. c #D9945F",
"Q. c #DC9C5D",
"!. c #E2A959",
"~. c #E7B455",
"^. c #EABB53",
"/. c #C68A61",
"(. c #C5836E",
"). c #D99360",
"_. c #DF9860",
"`. c #CA8670",
"'. c #E19961",
"]. c #CAA674",
"[. c #88CA5E",
"{. c #84D15F",
"}. c #92CE60",
"|. c #85D560",
" X c #8CD261",
".X c #94D562",
"XX c #98D763",
"oX c #99DA64",
"OX c #F2CF4D",
"+X c #F6D84A",
"@X c #EEC552",
"#X c #F9DF51",
"$X c #FAE347",
"%X c #FFED43",
"&X c #FFEE4C",
"*X c #FFF042",
"=X c #FFEF57",
"-X c #FFF05F",
";X c #E1C773",
":X c #FFF066",
">X c #FFF278",
",X c #BEAA82",
"<X c #CEAF80",
"1X c #D8B885",
"2X c #DAC290",
"3X c #E4CA93",
"4X c #EBD89A",
"5X c #F8EA94",
"6X c #EDDDA7",
"7X c #EFE1AE",
"8X c #F1E3A3",
"9X c #F1E2AB",
"0X c #FFF7A9",
"qX c #FFF8B7",
"wX c #FFF9C4",
"eX c #F6EDD0",
"rX c #FFFCDB",
"tX c #FFFDE8",
"yX c #FFFFFE",
/* pixels */
"F.F.F.F.F.H.H.H.W.H.H.H.9.t.t.L.C.C.C.C.C.C.C.C.C.C.C.C.C.C.C.C.C.C.C.C.C.C.C.C.C.C.C.C.C.C.C.C.C.C.C.C.C.C.C.C.C.C.C.C.C.C.C.C.",
"F.F.F.F.W.W.W.W.W.H.H.9.r.E.W.W././.F.C.C.C.C.C.C.C.C.C.C.C.C.C.C.C.C.C.C.C.C.C.V.V.V.V.C.C.C.C.C.C.C.C.C.C.C.C.C.C.C.C.C.F.F.F.",
"F.F.W.W.W.W.W.W.H.H.H.9.r.L.L.L.L.L.r.9.F.F.F.C.C.C.C.C.C.C.C.C.C.C.C.C.C.C.C.V.V.V.V.V.V.F.F.F.F.F.F.F.F.V.V.V.V.C.C.C.F.F.F.F.",
"H.W.W.W.W.Q.W.W.H.H.H.F.F.F.F.9.9.9.9.9.9.C.C.C.C.C.C.C.C.C.C.C.C.C.C.V.V.V.C.V.V.V.V.V.V.V.V.V.V.V.F.F.V.V.V.V.V.V.V.C.F.F.F.F.",
"H.W.W.Q.OX$XQ.W.H.H.F.F.F.F.F.F.F.F.9.9.9.C.C.C.C.C.C.C.C.C.C.C.C.C.V.V.V.V.V.V.V.V.V.V.V.V.V.V.V.V.V.V.V.H.H.H.V.V.V.V.F.F.F.H.",
"W.W.Q.OX%X%XQ.W.H.H.F.F.F.F.F.F.F.F.F.F.F.F.C.C.C.C.C.C.C.C.C.C.C.V.V.V.V.V.H.H.H.H.V.V.V.V.H.H.H.H.V.V.H.H.H.H.H.V.V.V.V.H.H.H.",
"W.).^.*X%X@XQ.W.W.H.H.F.H.H.F.F.F.F.F.F.F.F.F.F.F.F.C.C.C.C.C.C.C.V.V.V.H.H.H.H.H.H.H.V.V.H.H.H.H.H.H.H.H.H.H.H.H.H.H.H.H.H.F.F.",
"E.).^.*X%X!.).W.W.W.H.H.H.H.H.F.F.F.F.F.F.F.F.F.F.F.C.C.C.C.X X X X V.H.H.H.H.H.H.H.H.V.H.H.H.H.H.H.H.H.H.H.H.H.H.H.H.H.H.H.F.F.",
"7 E.~.$X~.OX!.W.W.W.W.W.W.F.F.H.F.F.F.F.F.F.F.F.F.F.F.H.H.H.X o = . . H.H.H.H.H.H.H.H.H.H.H.H.H.H.H.H.H.H.H.H.H.H.H.H.H.H.H.F.H.",
"4 E.W.W.!.$X$X!.W.W.W.W.W.W.F.F.F.F.F.F.F.F.F.F.F.F.H.H.F.F.X = 7.g > . X H.H.H.H.H.H.H.H.H.H.H.H.H.H.H.H.H.H.H.H.H.H.H.H.H.H.H.",
"4 E.W.).OX*X%X$X!.).W.W.W.W.W.F.F.F.F.F.F.F.F.F.F.F.H.F.F.F.X = u.a.@.> X X H.F.F.F.H.H.H.H.H.F.F.H.H.H.H.F.F.H.H.H.H.H.H.H.H.H.",
"# ! W.W.OX&X0X&X$XOX!.W.W.W.W.W.F.F.F.F.F.F.F.F.F.F.F.F.F.F.X = u.p.1.@.1 X X X F.F.F.H.H.F.F.F.F.F.F.H.F.F.F.F.H.H.H.H.H.H.H.H.",
". 7 R.W.Q.#XrXqX%X*X$X+X+XOXQ.W.W.H.H.F.F.F.F.F.F.F.F.F.F.X X 3.(.p.<.2.>.1 X X X F.F.H.F.F.F.F.F.F.F.F.F.F.F.F.H.H.H.H.H.H.H.H.",
"H.X ~ '.W.+X-X0X%X-X=XD.%X%X+XQ.).u F.F.F.F.F.F.F.F.F.F.X . 1 u.a.<.4.(.(.-.< : X X X H.F.F.F.F.F.F.F.F.X . X X H.H.H.H.H.F.F.F.",
"F.. 7 u.W.^.%X%XD.0XwX5X&X%X*X@X).u F.F.F.X X F.F.F.F.F.X 7 t.(.e.2.p.(.p./ B x X X X X F.F.F.F.F.F.F.X - ' q X F.F.F.F.F.F.F.F.",
"F.F.  ! _.W.^.%X%X:XrXyX-X%X%X$X!.8   F.C.X X X X X F.X . =.`.a.<.4.(.(.-.B M , X X X X X X F.F.F.F.X - n.|.F . F.F.F.F.F.F.F.F.",
"F.F.F.; 5.W.W.~.%XD.0XyX>XqX%X*X^.U X C.C.. ' B.q @ X X . =.`.4.<.4.(.7.^ N z X 6 @.@.n : O X X F.X X q .Xb.$ F.F.F.F.F.F.F.F.F.",
"F.F.F.F.= 3.W.W.^.*X&XqXtXtX:X*X^.R.4 C.C.. ' oX[.m.* X . ) u.2.<.1.-.B x = > 6 ,.1.<./ M x = X X X # G.{.D . F.F.F.F.F.F.F.F.F.",
"F.F.F.F.X @ 3.).!.+X%X&XtXyXwX%X^.E.4 C.C.. ' oX.X Xf.e * X O.1.<.<.#.^ n 8 ,.<.1.>./ B B B l X X X $ [.A.D X C.C.C.F.F.F.F.F.F.",
"F.F.F.C.C.X @ =.).^.*X&XrXqXwX*X^.E.4 C.F.F.q B.XX.XA.x.f.* 6 ,.<.#.^ >.1.1.<.,.%./ B B d i , X X X @ ' z.D X C.C.C.C.F.F.F.C.C.",
"C.F.F.F.F.F.X o ! @X&X&X:X:XeX;XQ.! # F.F.F.. 2 G.XX{.z.z.K A g ;.:.>.1.<.<.#./ N N d : O o 1 O.n l : X t S . C.C.C.C.C.C.C.C.C.",
"C.C.C.C.F.F.F.. Y 3X4X4X8X8X7X6XJ.# X F.F.F.X X b.XX{.M.l.g...G 1 ;.1.,.:./ N N B l > > +.;.,.<.#.B v : X $ C.C.C.C.C.C.C.C.C.C.",
"F.F.F.F.F.F.F.. T T.T.2X6X9X9X3X1XL . F.F.F.F.X # b..XS.l.z.c.J a 6 1.&.#.#.#.#.#.&.<.<.1.<.&.#.B B B M : X C.C.F.F.F.C.C.C.C.C.",
"F.F.F.F.F.F.F.X 5 h J.9X9X9X6X2X1XL . F.F.H.H.X X - }.S.l.z.c...J Y 1.<.<.<.<.<.<.<.<.<.*.#.B B B B B B z X C.F.F.F.F.F.F.F.F.F.",
"F.F.F.F.F.F.F.X . Y 2X9X3X,XX.<X3XE . F.H.H.H.X X @ ' S.l.z.c...K ` 1.<.<.<.<.<.<.&./ #.B B B B B B B B z X X F.F.F.F.F.F.F.F.F.",
"F.F.F.F.F.V.V.. L <X1X1XU.3 # J.9XE . H.H.H.X . . . q S.l.k.c...H 7 ,.<.<.<.,.,.&.B N B B M v v v v v M j X X F.F.F.F.F.F.F.F.F.",
"F.F.V.V.V.V.H.. L ].Y.K.3 # { T.P.h . H.H.X . < 7 X 2 m.z.g... .Z . 8 1.:.&.^ B B B B x j O O O o o o o o . X X C.C.C.C.C.F.F.F.",
"H.V.V.H.H.H.H.X . L h . X ; 6.Y . X X H.H.X 5 r.(.n o 0 k.K ..J @ = o.1.&.$.B B v d d = X X . * t t t t t t * . X C.C.C.C.C.C.C.",
"H.H.H.H.H.H.H.H.X . X X X X . X X X H.H.H.. ~ `.(.,.+ 0 g.| | C = O.1.<.<.%.M i : . X X X $ D f.x.z.z.M.S.S.m.D & X X H.H.H.H.H.",
"F.F.F.F.F.F.H.H.C.X X # I R R s X C.C.C.C.. ~ `.(.u.r.5.7.>.-.@.@.1.<.<.%.M : X X X C G d.f.z.z.z.z.l.M. XXX X|.m.& X X H.H.H.H.",
"F.F.F.F.F.F.F.F.F.X X P ` ] ] P . C.C.C.C.. ~ `.(.(.`.(.(.i.4.1.1.<.<.1.^ = X X # Z ....k.z.z.z.z.z.z.z.M. XXX.X Xm.q X X F.F.F.",
"F.F.F.F.F.F.F.F.F.F.X Y ` q.w.W . C.C.C.C.. ~ `.p.y.y.y.y.y.y.2.<.<.1.@.> a C a Z .... .k.l.z.z.z.z.z.z.z.M.S. XXXXXG.0 . X F.F.",
"H.H.H.F.F.F.F.F.F.F.X I ` q.w.W . F.F.F.C.. ~ `.p.<.<.<.<.<.<.<.<.<.1.8   a C Z ........c.z.z.z.D e r e S l.l.M.Z.Z.Z.h.S * X H.",
"H.H.H.H.F.F.F.F.F.F.X Y ` 0.w.( . C.C.C.C.X ; 3.(.a.e.<.<.<.<.<.<.<.1.n . X X % 2 Z ......K G * $ . . . # 9 * s.j.h.j.z.x.t X X ",
"H.H.H.H.H.H.H.F.F.F.X h _ ] w.( . C.C.C.C.X X # Q &.2.1.<.<.<.<.<.<.1.8 . X # A H J ......G O O & & X X X F.X $ $ $ * f.h.z.9 X ",
"F.F.F.H.H.H.H.H.F.F.X O W ` 8.Y . X F.F.F.F.X : < = m o.>.1.1.1.<.1.,.n O X X 2 ..........H a Z ..| C o X F.F.F.X X X X 0 s.& X ",
"F.F.F.F.H.H.H.H.H.F.X X 3 s s ; X X X F.F.F.X j B f p j / %.%.%.,.%./ B l O # Z ....................J % X F.F.F.F.F.F.X X X X X ",
"F.F.F.F.F.F.F.F.F.F.X # @ . . X r d.& F.F.F.X j *.:.:.:.:.&.&.:.<.&.:.#.B z = 2 C .......... .......H # X F.F.F.F.F.F.F.F.F.F.F.",
"F.F.F.F.F.F.F.F.F.X X b.B.q - . t z.f.$ F.F.. m 1.1.1.1.1.1.1.1.<.1.1.<.#.B x + X C | ............H 2 X X H.H.C.C.C.F.F.F.F.F.F.",
"F.F.F.F.F.F.F.F.F.X * B.XX.XN.2 X s.k.$ F.F.. o.1.O.o.@.<.<.<.<.<.<.<.1.<./ B x , = C A | ......G & . X C.C.C.C.C.C.C.C.C.C.C.F.",
"C.C.C.C.C.C.C.C.F.X D Z..X.XoXv.. s.S # F.F.X 6 n O   6 1.<.<.<.<.<.<.:.%.V B B B z p # C J ....C , p o X C.C.C.C.C.C.C.C.C.C.C.",
"C.C.C.C.F.F.F.F.F.X D z.M. X.XG.w * # X X X X . . o > +.<.<.<.<.<.1.:.V N B B B B B B z j | J } c M B j X X C.C.C.C.C.C.C.C.C.C.",
"F.F.F.F.F.F.F.F.F.X D z.z.M.M.M.y . X X X X X = > +.;.1.<.<.<.<.<.<.%.N B B B B B B B B B R - f B B B M = X C.C.C.C.C.C.C.C.F.F.",
"F.F.F.F.F.F.F.F.F.X t j.z.z.l.x.r X X X X X . 8 o.O.@.1.1.1.1.1.1.:.B B B B B B B B B B B B N B B B B B l X X . X F.F.F.F.F.F.F.",
"F.F.F.F.F.F.F.F.F.F.X d.x.z.x.f.* X X V.V.X X . . . = b b b b b b n d x B B B B B B B B N f d d d v B j i X * t $ X F.F.F.F.F.F.",
"F.F.F.F.F.F.F.F.F.F.X 9 e e e * X X H.H.H.. Y { _ 8.{ X X X X X X X X = i < < < < < < < , o X X X : < o X X S x.s.$ X H.H.H.H.H.",
"F.F.F.F.F.V.V.V.V.V.F.X X X . o O X H.H.H.. ] P.0.].Y.{ q.U.U.6.6.U.U.6.Y Y - # # # # X # ] { 6.h I [ W h 0 h.z.z.d.@ X H.H.H.H.",
"F.F.F.F.V.V.V.V.V.V.V.X X O = h 5 . H.H.H.X # # # = 3 [ q.I.I.6.6.I.U.{ Y R 8.8.( [ q.3 = 0.8.w.I O _ W h e z.z.z.h.# X H.H.H.F.",
"V.V.F.V.V.V.H.H.V.V.V.X X = ` { h . H.H.H.X : i i , X X X X X X X X X X X o T W h Y _ ; # ( ` _ 3 . X X X e z.z.z.h.# X H.F.F.F.",
"V.V.V.V.V.H.H.H.H.V.V.X X = ] K.P . H.H.X : x B B N j f f f f f f f f f f d O . X X . X X O 5 ; . X X X X C k.z.l.r X X F.F.F.V.",
"V.H.H.V.V.H.H.H.H.H.H.H.X O ; 3 = H.H.X X k ,.:.:.:.&.^ ^ ^ ^ B B B B B B B z z z < . W [ _ X . P [ ; X X # 2 9 * X X F.F.F.F.V.",
"H.H.H.H.H.H.H.H.H.H.H.H.H.X X . H.H.H.X > +.@.@.<.1.1.<.<.<.<.^ B B B B B B B B l X # W ] [ o . W { W ; X X X X X X F.H.H.V.V.V.",
"H.H.H.H.H.F.F.F.H.H.H.H.H.F.F.F.F.H.H.X X o o o b o.Q Q Q Q Q B B B B B B l j j i ; _ [ ` h X X 3 P ] 8.5 X X F.F.H.H.H.H.H.H.H.",
"H.H.H.H.F.F.F.F.F.H.H.H.F.F.F.C.C.C.C.C.C.C.C.X X . . . . . X i p p p p p O X X . Y K.( s X X X X X P q.[ X F.H.H.H.H.H.H.H.H.H.",
"H.H.F.F.F.F.F.F.F.H.H.H.F.F.C.C.C.C.C.C.C.C.C.C.C.X X X X X X X . X X X X X C.C.X ; s # . F.X X X X X 5 3 X H.H.H.F.F.F.H.H.H.H.",
"F.F.F.F.F.F.F.F.F.F.F.H.F.F.C.C.C.C.C.C.C.C.C.C.C.X X X X F.F.C.C.C.C.C.C.F.F.C.X X . C.F.F.F.F.X X X . H.H.H.H.F.F.F.F.F.H.H.H.",
"F.F.F.F.F.F.F.F.F.F.F.F.C.C.C.C.C.C.C.C.C.C.C.C.C.X X X C.C.C.C.C.C.C.C.F.F.F.F.F.C.C.C.C.C.F.F.X X X X F.F.F.F.F.F.F.F.F.F.F.F.",
"F.F.F.F.F.F.C.C.C.C.C.C.C.C.C.C.F.F.F.C.C.C.C.C.X X X X C.C.C.C.C.C.C.C.F.F.F.F.F.F.F.F.F.F.F.F.X X X F.F.F.F.F.F.F.F.F.F.F.F.F.",
"F.F.F.F.F.F.F.F.F.C.C.C.C.C.C.F.F.F.F.F.C.C.F.X X X X C.C.C.C.C.F.F.C.C.F.F.F.F.F.F.F.F.F.F.F.F.X X X X X F.C.C.C.F.F.F.F.F.F.F.",
"F.F.F.F.F.F.F.F.F.F.F.F.C.C.C.F.F.F.F.F.C.F.F.X X X X C.C.C.C.F.F.F.F.C.C.F.F.F.F.F.F.F.F.F.F.F.X X X X X C.C.C.C.C.F.F.F.F.F.F.",
"F.F.F.F.F.F.H.H.F.F.F.F.F.F.F.F.F.F.F.F.F.F.F.F.F.F.F.F.F.F.F.F.F.F.F.F.F.F.F.F.F.F.F.F.F.F.C.C.C.F.F.F.C.C.C.C.C.C.F.F.F.F.F.F.",
"F.F.F.F.F.H.H.H.H.F.F.F.F.H.H.H.H.F.F.F.F.F.F.F.F.F.F.F.F.F.F.F.F.F.F.F.F.F.F.F.F.F.F.F.F.C.C.C.C.C.C.C.C.C.C.C.C.C.F.F.F.F.F.F.",
"F.F.F.H.H.H.H.H.H.H.H.H.H.H.H.H.H.H.H.F.F.F.F.F.F.F.F.C.C.C.C.F.F.F.F.F.F.F.F.F.F.F.F.F.C.C.C.C.C.C.C.C.C.C.C.C.C.C.C.C.C.F.F.F.",
"C.C.H.H.H.H.H.H.H.H.H.H.H.H.H.H.C.C.C.C.F.F.C.C.C.C.C.C.C.C.C.C.C.F.F.C.C.C.C.F.F.F.F.C.C.C.C.C.C.C.C.C.C.C.C.C.C.C.C.C.C.C.C.C."
};
