/* XPM */
static const char *enemy_down[] = {
/* columns rows colors chars-per-pixel */
"79 80 15 1 ",
"  c #161C2E",
". c #693D5B",
"X c #685757",
"o c #417168",
"O c #B65555",
"+ c #977B6B",
"@ c #38B251",
"# c #D9945F",
"$ c #C5836E",
"% c #95D562",
"& c #FFED44",
"* c #D5B583",
"= c #EFE1AB",
"- c white",
"; c None",
/* pixels */
";;;;;;;;;#####&&&&;;;;;;;;;;;;;;;;;;;;;;;;;;;;;;;;;;;;;;;;;;;;;;;;;;;;;;;;;;;;;",
";;;;;;#######&&&&&&&&;;;;;;;;;;;;;;;;;;;;;;;;;;;;;;;;;;;;;;;;;;;;;;;;;;;;;;;;;;",
";;;;;########&&&&&&&&&;;;;;;;;;;;;;;;;;;;;;;;;;;;;;;;;;;;;;;;;;;;;;;;;;;;;;;;;;",
";;;;##########&&&&&&&&&&;;;;;;;;;;;;;;;;;;;;;;;;;;;;;;;;;;;;;;;;;;;;;;;;;;;;;;;",
";;;###&&&&#############&&;;;;;;;;;;;;;;;;;;;;;;;;;;;;;;;;;;;;;;;;;;;;;;;;;;;;;;",
";;#&&&&&&&&&##############;;;;;;;;;;;;;;;;;;;;;;;;;;;;;;;;;;;;;;;;;;;;;;;;;;;;;",
";;#&&&&&&&&&&&#############;;;;;;;;;;;;;;;;;;;;;;;;;;;;;;;;;;;;;;;;;;;;;;;;;;;;",
";#&&&&&&&&&&&##############;;;;;;;;;;;;;;;;;;;          ;;;;;;;;;;;;;;;;;;;;;;;",
";#&&&&--&&&&&&&&&###########;;;;;;;;;;;;;;;;            ;;;;;;;;;;;;;;;;;;;;;;;",
";&&&&---&&&&&&&&&###########;;;;;;;;;;;;;      OOOOOO  ;;;;;;;;;;;;;;;;;;;;;;;;",
"#--&&---&&&#&&&###;;;#######;;;;;;;;;;;;     $OOOOOOO  ;;;;;;;;;;;;;;;;;;;;;;;;",
"#--&&--&&&##&&#  ;;;;;######;;;;;;;;;;;    $$$OOOOO.   ;;;;;;;;;;;;;;;;;;;;;;;;",
" ------&&&####  ;;;;;;;;####;;;;;;;;;;    $$$OOOO.      ;;;;;;;;;;;;;;;;;;;;;;;",
" -------&&###  ;;;;;;;;;####;;;;;;;;;   $$$OOOOOO....   ;;;;;;;;;;;;;;;;;;;;;;;",
" -------&&### ;;;;;;;;;;###;;;;;;;;;   $$OOO    O....    ;;;;;;;;;;;;;;;;;;;;;;",
"  --&---&&&#  ;;;;;;;;;;;;;;;;;;;;;;   $$OO.       ....   ;;;;;;;;;;;;;;;;;;;;;",
"  &&&---&&&#  ;;;;;;;;;;;;;;;;;;;;;   $$OO.          ..    ;;;;;;;;;;;;;;;;;;;;",
"; &&&----&&&   ;;;;;;;;;;;;;#####;   $OOOO.....OOOOO....    ;;;;;;;;;;;;;;;;;;;",
";  &&&---&&&   ;;;;      ;;;#####;  OOOOOOOOOOOOOOOO.....   ;;;;;;;;      ;;;;;",
";;  &&----&&    ;;;  %@    ;######  O$$$$$OOOOOOOOOO......   ;;;;;    @%  ;;;;;",
";;   &&---&&&   ;;;  %%@@   ;######OO$$$$$OO     OOO......   ;;;;   @@%%  ;;;;;",
";;;   &&&&****   ;;   %@@@    ######OOO.             ......   ;    @@@%   ;;;;;",
";;;;   *=====**  ;;;  %%@@@@   #####O..                 ....     @@@@%%  ;;;;;;",
";;;;  *========   ;;  %%%@@@@   #####.         OOOO.........    @@@@%%   ;;;;;;",
";;;;  ****====**  ;;;  %%%@@@o   O###...OOOOOOOOOOOOOOOO....   o@@@%%%  ;;;;;;;",
";;;;  * *=====**  ;;;   %%@@@oo   OOOOOOOOOOOOOOOOOOOOO....   oo@@@%%   ;;;;;;;",
";;;;    =====***  ;;;;  %%%@@ooo  OOOOOO$$$OOOOOOOOOOO.....  ooo@@%%%  ;;;;;;;;",
";;;;   *==** **=  ;;;;   %%@@ooo OOOO$$$$$$$$$$$OO.......... ooo@@%%   ;;;;;;;;",
";;;;  *****   ==  ;;;;;  %%@@ooooOO$$$$$$$$$$$$$............oooo@@%%  ;;;;;;;;;",
";;;;  ****   ***  ;;;;;;  @@@ooooO$$$$$$$$OOOOOOO...........oooo@@@  ;;;;;;;;;;",
";;;;   *    **    ;;;;;;  @@ooooO$$$$$OOOOOOOOOOOO...........oooo@@  ;;;;;;;;;;",
";;;;             ;;;;;;;   ooooo$$$$$OOOOOOOOOOOOO...........ooooo   ;;;;;;;;;;",
";;;;;           ;;;;;;;;;      $$$$OOOOOOOOOOOOO..............      ;;;;;;;;;;;",
";;;;;;    XXXX  ;;;;;;;;;     O$$$OOO    OOOOO.......  OOOO....     ;;;;;;;;;;;",
";;;;;;;  XXXXX  ;;;;;;;;;   OOOOOOOO       OO......      OOO.....   ;;;;;;;;;;;",
";;;;;;;  XX+++  ;;;;;;;;   OO$$OOOO                       OOO.....   ;;;;;;;;;;",
";;;;;;;  XX+++  ;;;;;;;;  OO$$$OOO    @@            ooo    OOO.....  ;;;;;;;;;;",
";;;;;;;; XX+++  ;;;;;;;;  OO$$$OOO   @@@@@@       @@ooo    OOOO....  ;;;;;;;;;;",
";;;;;;;; XX+++  ;;;;;;;;  OO$$OOO   o@@@@@@@@@@@@@@@oooo    OOO....  ;;;;;;;;;;",
";;;;;;;; XXX++  ;;;;;;;;  OO$$OOO   ooo@@@@@@@@@@@@@@oo     OOOO...  ;;;;;;;;;;",
";;;;;;;;  XX++  ;;;;;;;;   OOOOO  ooooo  @@@@@@@@@@@@ ooooo  OOO...  ;;;;;;;;;;",
";;;;;;;;  XXXX    ;;;;;;;   OOOOO    ooo  @%%@@@@@@@@ ooooo   OO...  ;;;;;;;;;;",
";;;;;;;;           ;;;;;;;   OOOO   oooo  @%%%@@@@@@@ ooooo   OO..   ;;;;;;;;;;",
";;;;;;;        @@  ;;;;;;;;   OOOO   oooo  @%%@@@@@@  oooo   OO..   ;;;;;;;;;;;",
";;;;;;   %%    @@@  ;;;;;;;;   OOO    ooo   %%%@@@@@  ooo    OO.   ;;;;;;;;;;;;",
";;;;;;   %%%%   @@  ;;;;;;;;;   OOO    oo   %%%@@@@   oo    OO    ;;;;;;;;;;;;;",
";;;;;;  @%%%%%  @@  ;;;;;;;;;;   ...   ooo  %%%@@@@  ooo   OO..   ;;;;;;;;;;;;;",
";;;;;;  @@%%%%  @   ;;;;;;;;;; .......  oo   %%%@@   oo   O.....  ;;;;;;;;;;;;;",
";;;;;;  @@@%%%%     ;;;;;;;;;  OOOOO...  oo  %%%@@  oo   O......  ;;;;;;;;;;;;;",
";;;;;;  @@@@@@@       ;;;;;;;  OOOOO....  ..  @@@  ..  .........  ;;;;;;;;;;;;;",
";;;;;;  @@@@@@@          ;;;;  OOOOOO.......  @@@  .............  ;;;;;;;;;;;;;",
";;;;;;;  @@@@@@                OOOOOOOOO.....  @@ ..............   ;;;    ;;;;;",
";;;;;;;  @@@@@   ;;;           OOOOOOOOOOO...     ............      ;       ;;;",
";;;;;;;;         ;;;;;;         OOOOOOOOOOO...    ...........          @@    ;;",
";;;;;;;;;        ;;;;;;;;;;       OOOOOOOOO...............      X     @@@@@   ;",
";;;;;;;;;     X  ;;;;;;;;;;;        OOOOOOO..............    X++X    @@@@@@   ;",
";;;;;;;;;   XXX  ;;;;;;;;;;;  +          OO...........    *++X++X    @@@@@@@   ",
";;;;;;;;;   X++  ;;;;;;;;;;;  ++**                      ***++X       @@@@@@@   ",
";;;;;;;;;   X++  ;;;;;;;;;;;   +**++****      ***     +****          @@@@@@@   ",
";;;;;;;;;;      ;;;;;;;;;;;;     *++****+++  *****  ++++        .     @@@@@@   ",
";;;;;;;;;;;    ;;;;;;;;;;;;;           ++++  *+++*   +      ......  ;   @@@   ;",
";;;;;;;;;;;;;;;;;;;;;;;;;;;;  ..             *+++       ..........   ;        ;",
";;;;;;;;;;;;;;;;;;;;;;;;;;;   .........       +++       ...........   ;      ;;",
";;;;;;;;;;;;;;;;;;;;;;;;;;;  OOOOOOO...    **     +++   ...........   ;;;;;;;;;",
";;;;;;;;;;;;;;;;;;;;;;;;;;;  OOOOOOOO..   ++*      XX   .....         ;;;;;;;;;",
";;;;;;;;;;;;;;;;;;;;;;;;;;; OOOOOOOOO..   ++       XXX                ;;;;;;;;;",
";;;;;;;;;;;;;;;;;;;;;;;;;;  OOOO         **+    ;;  ++            ;;;;;;;;;;;;;",
";;;;;;;;;;;;;;;;;;;;;;;;;;               ****  ;;;;  ++   ;;;;     ;;;;;;;;;;;;",
";;;;;;;;;;;;;;;;;;;;;;;;;;            ;   *** ;;;;;      ;;;;;;    ;;;;;;;;;;;;",
";;;;;;;;;;;;;;;;;;;;;;;;;;;;;;;;;    ;;;      ;;;;;;     ;;;;     ;;;;;;;;;;;;;",
";;;;;;;;;;;;;;;;;;;;;;;;;;;;;;;;;    ;;;;     ;;;;;;;;;;;;;;;    ;;;;;;;;;;;;;;",
";;;;;;;;;;;;;;;;;;;;;;;;;;;;;;;;;    ;;;;;;;;;;;;;;;;;;;;;;;;     ;;;;;;;;;;;;;",
";;;;;;;;;;;;;;;;;;;;;;;;;;;;;;;;;   ;;;;;;;;;;;;;;;;;;;;;;;;;;    ;;;;;;;;;;;;;",
";;;;;;;;;;;;;;;;;;;;;;;;;;;;;;;     ;;;;;;;;;;;;;;;;;;;;;;;;;;;   ;;;;;;;;;;;;;",
";;;;;;;;;;;;;;;;;;;;;;;;;;;;;;;     ;;;;;;;;;;;;;;;;;;;;;;;;;;;;;;;;;;;;;;;;;;;",
";;;;;;;;;;;;;;;;;;;;;;;;;;;;;;;;;;;;;;;;;;;;;;;;;;;;;;;;;;;;;;;;;;;;;;;;;;;;;;;",
";;;;;;;;;;;;;;;;;;;;;;;;;;;;;;;;;;;;;;;;;;;;;;;;;;;;;;;;;;;;;;;;;;;;;;;;;;;;;;;",
";;;;;;;;;;;;;;;;;;;;;;;;;;;;;;;;;;;;;;;;;;;;;;;;;;;;;;;;;;;;;;;;;;;;;;;;;;;;;;;",
";;;;;;;;;;;;;;;;;;;;;;;;;;;;;;;;;;;;;;;;;;;;;;;;;;;;;;;;;;;;;;;;;;;;;;;;;;;;;;;",
";;;;;;;;;;;;;;;;;;;;;;;;;;;;;;;;;;;;;;;;;;;;;;;;;;;;;;;;;;;;;;;;;;;;;;;;;;;;;;;"
};
