/* XPM */
static const char *enemy_up[] = {
/* columns rows colors chars-per-pixel */
"91 75 14 1 ",
"  c #161C2E",
". c #693D5B",
"X c #685757",
"o c #417168",
"O c #B65555",
"+ c #977B6B",
"@ c #38B251",
"# c #D9945F",
"$ c #C5836E",
"% c #95D562",
"& c #FFED44",
"* c #D5B583",
"= c #EFE1AB",
"- c None",
/* pixels */
"------------------------------------------------------------------------&&&&&#-------------",
"---------------------------------------------------------------------###&&&&&####----------",
"---------------------------------------------------------------------##############--------",
"----------------------------------------------------------------------##############-------",
"-----------------------         -----------------------------------------#####-----##------",
"-----------------------           --------------------------------#&&####-####-------------",
"-----------------------  OOOOOO      ----------------------######&&&&&&&&######------------",
"-----------------------   OOOOOO$     --------------------#######&&&&&&&&&&########--------",
"-----------------------    OOOOOO$$    ---------------################&&&&&&########-------",
"----------------------      OOOOOO$$    -------------####################&&&##&&#####------",
"----------------------      OOOOOOO$$$   ---------------------------##########&&&&####-----",
"---------------------        OOOOOOO$$$   -----------------------------########&&&&###-----",
"---------------------  ...    OOOOOOO$$$   -----------------------------#######&&&&&###----",
"--------------------   .....  OOOOOOO$$$   -------------------------------#####&&&&&&###---",
"-------------------   ....... ..OOOOOOO$$   ------------------------------#####&&&&&&###---",
"-------------------   ............OOOOOO$$   -----------------------------######&&&&&&###--",
"-----      -------     ........OOOOOOOOO$$$  ------------------------------#####&&&&&&###--",
"-----  @@   ------      ....OOOOOOOOOOOO$$$$  --------      --------------- ###&&&&&&&&##--",
"-----  @@@%   ----  .    ...OOOOOOOOOOO$$$$$  ------    @@  --------------- ###&&&&&&&&##--",
"-----   @@@%   --  ....   ..OOOOOOOOOO$$$$$$$  ----   @@%%  --------------- ###&&&&&&&&###-",
"------  @@@@%      .........OOOOO$$$$$$$$$$$O  --    @@%%  ---------------  ###&&&&&&&&&##-",
"------   @@@%%%   ...........OOOOO$$$$$$OOOOO      @@@@%   ---------------  ##&&&&&&&&&&##-",
"-------  oo@@%%%   ...........OOOOOOOOOOOOOOO     o@@@%%  ---------------  ##&&&&&&&&&&&##-",
"-------  oo@@%%%   ..............OOOOOOO$OOOO    oo@@@%%  ---------------  &&&&&&&&&&&&&#&-",
"--------  oo@@%%%   .............OOOOOOO$$OO.   oo@@@%%  ---------------  &&&&&&&&&&&&&&#& ",
"--------  ooo@@%%% .....O......OOOOOOOOOO$$..  ooo@@@%   ---------------  &&&&&&&&&&&&&&#& ",
"---------  oo@@%%%%.....OOOO..OOOOOOOOOOOO$.. ooo@@@%%  ---------------- &&&&&&&&&&&&&&&## ",
"---------  ooo@@@  ......OOOOOOOOOOOOOOOOOO...ooo@@@%   ---------------  &&&&&&&&&&&&&&&## ",
"----------  oo@@@ ........OOOOOOOOOOOOOOOOO... oo@@@%  ----------------  &&&&&&&&&&&&&&&## ",
"----------   oo@  ...........OOOOOOOOOOOOO.... ooo@%  -----------------  &&&&&&&&&&&&&&&## ",
"-----------      ...............OOOOOOOOO.....  oo@   -----------------  &&&&&&&&&&&&&&&#  ",
"----------       ...................OOOOO......      ------------------- &&&&&&&&&&&&&&##  ",
"----------    .............O...........OOOOOOO.      ------------------- &&&&&&&&&&&&&&&  -",
"----------  ...............OOOOOOOOOOOOOOOOOOO$$$$    -----------------  &&&&&&&&&&&&&&   -",
"---------  ................OOOOOOOOOOOOOOOOOOO$$$$$   ----------------    &&&&&&&&&&&&&   -",
"---------  ............O....OOOOOOOOOOOOOOOOO$$$$$$$  ---------------   *==**&&&&&&&&&   --",
"---------   ..........OOO....OOOOOOOOOOOOOO$$$$O$$$$  ---------------  ***===&&&&&&&&   ---",
"----------  ..........OOOOOOOOOOO$$$$$$$OO$$$OOOO$$   --------------  =**======** &&   ----",
"----------   ..........OOOOOOOOOOOO$$$OOOOOOOOOOO$$  --------------   =**======*  &   -----",
"-----------   ..........OOOOOOOOOOOOOOOOOOOOOOOOOO   --------------  *=  ====*==  ---------",
"-----------    ..........OOOO..OOOOOOOOOOOOOOOOO.   ---------------   *   *==***   --------",
"------------    ...........OO...OOOOOOOOOOOOOO..   ----------------   **  *== **   --------",
"----     ----    .................OOOOOOO......    ---------------        ***      --------",
"---        ---    ............................    ----------------        ***     ---------",
"--    @@@   --        ......................      ---------------  XXX    ***    ----------",
"-    @@@@@@ -  .........................          ---------------  +XXX    *    -----------",
"-   @@@@@@@     ..........       ...........   O  --------------  +++XX         -----------",
"   @@@@@@@@     ...........         ......OOOOOO ---------------  +++XX        ------------",
"   @@@@@@@   X   .......................OOOOOOO  ----------       +++XX    ----------------",
"   @@@@@@@   XX   .....................OOOOOOOO   -------    @   +++XX    -----------------",
"   @@@@@@     X++   .................OOOOO        ------   @@@   XXXXX  -------------------",
"-   @@@@       ++X     ..............O          *  ----   o@@@    XX   --------------------",
"-    @@          XXX       .......          *++**  ----   o@@@%       ---------------------",
"--       -  ..    XX++XX              ++*****++*   ---   ooo@@%%     ----------------------",
"-----   --  .....   ++XXX++X       ***++****++    ---    ooo@@%%%%   ----------------------",
"---------  .......     XX++XX++XX++***++          ---   oooo@@@%%%   ----------------------",
"---------  .........        X++XX++***         .   --   oooo@@@@%%   ----------------------",
"--------  .............                   .....O   ---   oooo@@@@@  -----------------------",
"--------    ................         ..........OO  ---   oooo@@@@   -----------------------",
"--------      ................................OOO   -      o@@@@@  ------------------------",
"-------------   ........................OOOOOOOOOO     X    @@@   -------------------------",
"-------------       ...................OOOOOOOOO      +XX        --------------------------",
"------------           ................OOOOOO     --  ++X      ----------------------------",
"------------      -          ......              ---  +X    -------------------------------",
"------------     ---                        ---------      --------------------------------",
"--------------     --------         ---      --------     ---------------------------------",
"---------------    ---------------------     ----------------------------------------------",
"--------------    -----------------------     ---------------------------------------------",
"--------------  --------------------------     --------------------------------------------",
"------------------------------------------     --------------------------------------------",
"-------------------------------------------------------------------------------------------",
"-------------------------------------------------------------------------------------------",
"-------------------------------------------------------------------------------------------",
"-------------------------------------------------------------------------------------------",
"-------------------------------------------------------------------------------------------"
};
