/* XPM */
static const char *enemy_r[] = {
/* columns rows colors chars-per-pixel */
"64 64 219 2 ",
"   c #0D172C",
".  c #13162C",
"X  c #151B2E",
"o  c #191C2F",
"O  c #1A1E30",
"+  c #201E31",
"@  c #19212F",
"#  c #1C2231",
"$  c #1A2931",
"%  c #1A2834",
"&  c #1D3B35",
"*  c #1B3434",
"=  c #242334",
"-  c #292A36",
";  c #2A2439",
":  c #272A36",
">  c #322635",
",  c #31263C",
"<  c #35293D",
"1  c #3A2A38",
"2  c #26353A",
"3  c #35333C",
"4  c #3A343D",
"5  c #383338",
"6  c #482D3A",
"7  c #44383C",
"8  c #58353E",
"9  c #1F4237",
"0  c #254838",
"q  c #314239",
"w  c #394F3C",
"e  c #23553B",
"r  c #245C3D",
"t  c #25613E",
"y  c #2D613F",
"u  c #53413D",
"i  c #362940",
"p  c #3C2B43",
"a  c #243942",
"s  c #3B3741",
"d  c #432E46",
"f  c #462F48",
"g  c #433D44",
"h  c #4B324B",
"j  c #473545",
"k  c #52344E",
"l  c #5A3440",
"z  c #563551",
"x  c #593753",
"c  c #5E3955",
"v  c #553D54",
"b  c #6E3B43",
"n  c #653A48",
"m  c #743E45",
"M  c #613A56",
"N  c #663C5A",
"B  c #6A3D5C",
"V  c #703F5C",
"C  c #2A4549",
"Z  c #315253",
"A  c #355958",
"S  c #2C7B44",
"D  c #2A7543",
"F  c #38645C",
"G  c #307247",
"H  c #3E6B64",
"J  c #3B6761",
"K  c #3F7865",
"L  c #4D4449",
"P  c #4C4746",
"I  c #51474B",
"U  c #544B4C",
"Y  c #584748",
"T  c #5A4B52",
"R  c #5E5151",
"E  c #565552",
"W  c #5D524E",
"Q  c #7F4248",
"!  c #70514F",
"~  c #785847",
"^  c #7A435A",
"/  c #744059",
"(  c #645553",
")  c #6C5A59",
"_  c #695956",
"`  c #6E5052",
"'  c #507246",
"]  c #75625C",
"[  c #79655D",
"{  c #7B695C",
"}  c #406E66",
"|  c #486766",
" . c #417168",
".. c #417167",
"X. c #776B62",
"o. c #834349",
"O. c #8C464B",
"+. c #94494D",
"@. c #994B4E",
"#. c #834559",
"$. c #8D4858",
"%. c #884759",
"&. c #9C4D57",
"*. c #954B58",
"=. c #9D5558",
"-. c #815C51",
";. c #A24F55",
":. c #A34F58",
">. c #AC5255",
",. c #A65257",
"<. c #B65555",
"1. c #B95656",
"2. c #B95B59",
"3. c #B75957",
"4. c #8F6B56",
"5. c #BB635D",
"6. c #A8715A",
"7. c #846E62",
"8. c #8A7365",
"9. c #9E7466",
"0. c #957A6A",
"q. c #9B7E6D",
"w. c #927868",
"e. c #9D6863",
"r. c #A47464",
"t. c #AB7964",
"y. c #BF7064",
"u. c #B87B68",
"i. c #BE6E62",
"p. c #C07466",
"a. c #C47B6A",
"s. c #C06E62",
"d. c #2D8446",
"f. c #2F8B48",
"g. c #33994B",
"h. c #399057",
"j. c #35A54E",
"k. c #35AA4F",
"l. c #39AB54",
"z. c #37B251",
"x. c #38B451",
"c. c #39B953",
"v. c #3F8262",
"b. c #679750",
"n. c #6B9751",
"m. c #55A752",
"M. c #47B954",
"N. c #4FAF53",
"B. c #7DB459",
"V. c #79AD57",
"C. c #5E854C",
"Z. c #5CC158",
"A. c #75CA5C",
"S. c #65C55A",
"D. c #FFED3D",
"F. c #82BB5B",
"G. c #96846C",
"H. c #8F826B",
"J. c #B78263",
"K. c #AD9571",
"L. c #B29974",
"P. c #B99E77",
"I. c #A68D70",
"U. c #BDA279",
"Y. c #D5915F",
"T. c #D9945F",
"R. c #DC9C5D",
"E. c #CD8B5C",
"W. c #E2A959",
"Q. c #EABB53",
"!. c #E7B455",
"~. c #C5836E",
"^. c #C68A61",
"/. c #D99360",
"(. c #DF9860",
"). c #CA8670",
"_. c #CAA674",
"`. c #E19961",
"'. c #88CA5E",
"]. c #84D15F",
"[. c #8CD261",
"{. c #85D560",
"}. c #94D562",
"|. c #99DA64",
" X c #98D763",
".X c #92CE60",
"XX c #F2CF4D",
"oX c #F6D84A",
"OX c #EEC552",
"+X c #F9DF51",
"@X c #FFED43",
"#X c #FFEE4C",
"$X c #FAE347",
"%X c #FFF042",
"&X c #FFF049",
"*X c #FFEF57",
"=X c #FFF05F",
"-X c #FFF066",
";X c #FFF278",
":X c #E1C773",
">X c #BEAA82",
",X c #D8B885",
"<X c #CEAF80",
"1X c #DAC290",
"2X c #EBD89A",
"3X c #E4CA93",
"4X c #F8EA94",
"5X c #EDDDA7",
"6X c #F1E2AB",
"7X c #F1E3A3",
"8X c #FFF7A9",
"9X c #FFF8B7",
"0X c #EFE1AE",
"qX c #FFF9C4",
"wX c #FFFCDB",
"eX c #F6EDD0",
"rX c #FFFDE8",
"tX c #FFFFFE",
"yX c None",
/* pixels */
"yXyXyXyXyXyXyXyXT.yXyXyX9.t.t.J.yXyXyXyXyXyXyXyXyXyXyXyXyXyXyXyXyXyXyXyXyXyXyXyXyXyXyXyXyXyXyXyXyXyXyXyXyXyXyXyXyXyXyXyXyXyXyXyX",
"yXyXyXyXT.T.T.T.T.yXyX9.r.Y.T.T.^.^.yXyXyXyXyXyXyXyXyXyXyXyXyXyXyXyXyXyXyXyXyXyXyXyXyXyXyXyXyXyXyXyXyXyXyXyXyXyXyXyXyXyXyXyXyXyX",
"yXyXT.T.T.T.T.T.yXyXyX9.r.J.J.J.J.J.r.9.yXyXyXyXyXyXyXyXyXyXyXyXyXyXyXyXyXyXyXyXyXyXyXyXyXyXyXyXyXyXyXyXyXyXyXyXyXyXyXyXyXyXyXyX",
"yXT.T.T.T.R.T.T.yXyXyXyXyXyXyX9.9.9.9.9.9.yXyXyXyXyXyXyXyXyXyXyXyXyXyXyXyXyXyXyXyXyXyXyXyXyXyXyXyXyXyXyXyXyXyXyXyXyXyXyXyXyXyXyX",
"yXT.T.R.XX$XR.T.yXyXyXyXyXyXyXyXyXyX9.9.9.yXyXyXyXyXyXyXyXyXyXyXyXyXyXyXyXyXyXyXyXyXyXyXyXyXyXyXyXyXyXyXyXyXyXyXyXyXyXyXyXyXyXyX",
"T.T.R.XX@X@XR.T.yXyXyXyXyXyXyXyXyXyXyXyXyXyXyXyXyXyXyXyXyXyXyXyXyXyXyXyXyXyXyXyXyXyXyXyXyXyXyXyXyXyXyXyXyXyXyXyXyXyXyXyXyXyXyXyX",
"T./.Q.%X@XOXR.T.T.yXyXyXyXyXyXyXyXyXyXyXyXyXyXyXyXyXyXyXyXyXyXyXyXyXyXyXyXyXyXyXyXyXyXyXyXyXyXyXyXyXyXyXyXyXyXyXyXyXyXyXyXyXyXyX",
"Y./.Q.%X@XW./.T.T.T.yXyXyXyXyXyXyXyXyXyXyXyXyXyXyXyXyXyXyXyXX X X X yXyXyXyXyXyXyXyXyXyXyXyXyXyXyXyXyXyXyXyXyXyXyXyXyXyXyXyXyXyX",
"7 Y.!.$X!.XXW.T.T.T.T.T.T.yXyXyXyXyXyXyXyXyXyXyXyXyXyXyXyXyXX o = . . yXyXyXyXyXyXyXyXyXyXyXyXyXyXyXyXyXyXyXyXyXyXyXyXyXyXyXyXyX",
"5 Y.T.T.W.$X$XW.T.T.T.T.T.T.yXyXyXyXyXyXyXyXyXyXyXyXyXyXyXyXX = e.j > . X yXyXyXyXyXyXyXyXyXyXyXyXyXyXyXyXyXyXyXyXyXyXyXyXyXyXyX",
"5 Y.T./.XX%X@X$XW./.T.T.T.T.T.yXyXyXyXyXyXyXyXyXyXyXyXyXyXyXX = u.a.@.> X X yXyXyXyXyXyXyXyXyXyXyXyXyXyXyXyXyXyXyXyXyXyXyXyXyXyX",
"# ~ T.T.XX#X8X#X$XXXW.T.T.T.T.T.yXyXyXyXyXyXyXyXyXyXyXyXyXyXX = u.p.1.@.1 X X X yXyXyXyXyXyXyXyXyXyXyXyXyXyXyXyXyXyXyXyXyXyXyXyX",
". 7 E.T.R.+XwX9X@X%X$XoXoXXXR.T.T.yXyXyXyXyXyXyXyXyXyXyXyXX X 4.~.p.<.3.,.1 X X X yXyXyXyXyXyXyXyXyXyXyXyXyXyXyXyXyXyXyXyXyXyXyX",
"yXX ! `.T.oX=X8X@X=X*XD.@X@XoXR./.u yXyXyXyXyXyXyXyXyXyXX . 1 u.a.<.5.~.~.=.< ; X X X yXyXyXyXyXyXyXyXyXX . X X yXyXyXyXyXyXyXyX",
"yX. 7 u.T.Q.@X@XD.8XqX4X#X@X%XOX/.u yXyXyXX X yXyXyXyXyXX 7 t.~.i.3.p.~.p.^ B x X X X X yXyXyXyXyXyXyXX : ' q X yXyXyXyXyXyXyXyX",
"yXyX  ~ (.T.Q.@X@X-XwXtX=X@X@X$XW.8   yXyXX X X X X yXX . -.).a.<.5.~.~.=.B M , X X X X X X yXyXyXyXX : n.{.G . yXyXyXyXyXyXyXyX",
"yXyXyX- 6.T.T.!.@XD.8XtX;X9X@X%XQ.Y X yXyX. ' B.q @ X X . -.).5.<.5.~.e./ N z X 6 @.@.n ; O X X yXX X q }.b.$ yXyXyXyXyXyXyXyXyX",
"yXyXyXyX= 4.T.T.Q.%X#X9XrXrX-X%XQ.E.5 yXyX. ' |.'.m.& X . ` u.3.<.1.=.B x = > 6 >.1.<.^ M x = X X X # F.].S . yXyXyXyXyXyXyXyXyX",
"yXyXyXyXX @ 4./.W.oX@X#XrXtXqX@XQ.Y.5 yXyX. ' |.}.[.g.e & X O.1.<.<.#./ n 8 >.<.1.,.^ B B B k X X X $ '.S.S X yXyXyXyXyXyXyXyXyX",
"yXyXyXyXyXX @ -./.Q.%X#XwX9XqX%XQ.Y.5 yXyXyXq B. X}.S.c.g.& 6 >.<.#./ ,.1.1.<.>.$.^ B B d i , X X X @ ' x.S X yXyXyXyXyXyXyXyXyX",
"yXyXyXyXyXyXX o ~ OX#X#X-X-XeX:XR.~ # yXyXyX. 2 F. X].x.x.K A j ;.:.,.1.<.<.#.^ N N d ; O o 1 O.n k ; X t D . yXyXyXyXyXyXyXyXyX",
"yXyXyXyXyXyXyX. U 3X2X2X7X7X0X5XH.# X yXyXyXX X b. X].M.z.h. .F 1 ;.1.>.:.^ N N B k > > +.;.>.<.#.B c ; X $ yXyXyXyXyXyXyXyXyXyX",
"yXyXyXyXyXyXyX. W U.U.1X5X6X6X3X,XP . yXyXyXyXX # b.}.A.z.x.v.H a 6 1.&.#.#.#.#.#.&.<.<.1.<.&.#.B B B M ; X yXyXyXyXyXyXyXyXyXyX",
"yXyXyXyXyXyXyXX 4 g H.6X6X6X5X1X,XP . yXyXyXyXX X : .XA.z.x.v. .H U 1.<.<.<.<.<.<.<.<.<.*.#.B B B B B B z X yXyXyXyXyXyXyXyXyXyX",
"yXyXyXyXyXyXyXX . U 1X6X3X>XX.<X3XE . yXyXyXyXX X @ ' A.z.x.v. .K ) 1.<.<.<.<.<.<.&.^ #.B B B B B B B B z X X yXyXyXyXyXyXyXyXyX",
"yXyXyXyXyXyXyX. P <X,X,XL.3 # H.6XE . yXyXyXX . . . q A.z.l.v. .J 7 >.<.<.<.>.>.&.B N B B M c c c c c M h X X yXyXyXyXyXyXyXyXyX",
"yXyXyXyXyXyXyX. P _.P.G.3 # { U.I.g . yXyXX . < 7 X 2 m.x.h. ...Z . 8 1.:.&./ B B B B x h O O O o o o o o . X X yXyXyXyXyXyXyXyX",
"yXyXyXyXyXyXyXX . P g . X - 7.U . X X yXyXX 4 r.~.n o 0 l.K  .H @ = o.1.&.%.B B c d d = X X . & t t t t t t & . X yXyXyXyXyXyXyX",
"yXyXyXyXyXyXyXyXX . X X X X . X X X yXyXyX. ! ).~.>.+ 0 h.} } C = O.1.<.<.$.M i ; . X X X $ S g.c.x.x.M.A.A.m.S * X X yXyXyXyXyX",
"yXyXyXyXyXyXyXyXyXX X # I T T s X yXyXyXyX. ! ).~.u.r.6.e.,.=.@.@.1.<.<.$.M ; X X X C F f.g.x.x.x.x.z.M.[. X[.{.m.* X X yXyXyXyX",
"yXyXyXyXyXyXyXyXyXX X L ) ] ] L . yXyXyXyX. ! ).~.~.).~.~.s.5.1.1.<.<.1./ = X X # Z  . .l.x.x.x.x.x.x.x.M.[. X}.[.m.q X X yXyXyX",
"yXyXyXyXyXyXyXyXyXyXX U ) 0.q.R . yXyXyXyX. ! ).p.y.y.y.y.y.y.3.<.<.1.@.> a C a Z  . ...l.z.x.x.x.x.x.x.x.M.A.[. X XF.0 . X yXyX",
"yXyXyXyXyXyXyXyXyXyXX I ) 0.q.R . yXyXyXyX. ! ).p.<.<.<.<.<.<.<.<.<.1.8   a C Z  . . . .v.x.x.x.S e r e D z.z.M.Z.Z.Z.j.D & X yX",
"yXyXyXyXyXyXyXyXyXyXX U ) w.q.( . yXyXyXyXX - 4.~.a.i.<.<.<.<.<.<.<.1.n . X X % 2 Z  . . .K F & $ . . . # 9 & d.k.j.k.x.c.t X X ",
"yXyXyXyXyXyXyXyXyXyXX g _ ] q.( . yXyXyXyXX X # Q &.3.1.<.<.<.<.<.<.1.8 . X # A J H  . . .F O O * * X X X yXX $ $ $ & g.j.x.9 X ",
"yXyXyXyXyXyXyXyXyXyXX O R ) 8.U . X yXyXyXyXX ; < = m o.,.1.1.1.<.1.>.n O X X 2  . . . . .J a Z  .} C o X yXyXyXX X X X 0 d.* X ",
"yXyXyXyXyXyXyXyXyXyXX X 3 s s - X X X yXyXyXX h B f p h ^ $.$.$.>.$.^ B k O # Z  . . . . . . . . . .H % X yXyXyXyXyXyXX X X X X ",
"yXyXyXyXyXyXyXyXyXyXX # @ . . X r f.* yXyXyXX h *.:.:.:.:.&.&.:.<.&.:.#.B z = 2 C  . . . . ... . . .J # X yXyXyXyXyXyXyXyXyXyXyX",
"yXyXyXyXyXyXyXyXyXX X b.B.q : . t x.g.$ yXyX. m 1.1.1.1.1.1.1.1.<.1.1.<.#.B x + X C }  . . . . . .J 2 X X yXyXyXyXyXyXyXyXyXyXyX",
"yXyXyXyXyXyXyXyXyXX & B. X}.V.2 X d.l.$ yXyX. o.1.O.o.@.<.<.<.<.<.<.<.1.<.^ B x , = C A }  . . .F * . X yXyXyXyXyXyXyXyXyXyXyXyX",
"yXyXyXyXyXyXyXyXyXX S Z.}.}.|.C.. d.D # yXyXX 6 n O   6 1.<.<.<.<.<.<.:.$.V B B B z p # C H  . .C , p o X yXyXyXyXyXyXyXyXyXyXyX",
"yXyXyXyXyXyXyXyXyXX S x.M.[.}.F.w & # X X X X . . o > +.<.<.<.<.<.1.:.V N B B B B B B z h } H | v M B h X X yXyXyXyXyXyXyXyXyXyX",
"yXyXyXyXyXyXyXyXyXX S x.x.M.M.M.y . X X X X X = > +.;.1.<.<.<.<.<.<.$.N B B B B B B B B B T : f B B B M = X yXyXyXyXyXyXyXyXyXyX",
"yXyXyXyXyXyXyXyXyXX t k.x.x.z.c.r X X X X X . 8 o.O.@.1.1.1.1.1.1.:.B B B B B B B B B B B B N B B B B B k X X . X yXyXyXyXyXyXyX",
"yXyXyXyXyXyXyXyXyXyXX f.c.x.c.g.& X X yXyXX X . . . = b b b b b b n d x B B B B B B B B N f d d d c B h i X & t $ X yXyXyXyXyXyX",
"yXyXyXyXyXyXyXyXyXyXX 9 e e e & X X yXyXyX. U { _ 8.{ X X X X X X X X = i < < < < < < < , o X X X ; < o X X D c.d.$ X yXyXyXyXyX",
"yXyXyXyXyXyXyXyXyXyXyXX X X . o O X yXyXyX. ] I.w._.P.{ 0.L.L.7.7.L.L.7.U U : # # # # X # ] { 7.g I [ R g 0 j.x.x.f.@ X yXyXyXyX",
"yXyXyXyXyXyXyXyXyXyXyXX X O = g 4 . yXyXyXX # # # = 3 [ 0.K.K.7.7.K.L.{ U T 8.8.( [ 0.3 = w.8.q.I O _ R g e x.x.x.j.# X yXyXyXyX",
"yXyXyXyXyXyXyXyXyXyXyXX X = ) { g . yXyXyXX ; i i , X X X X X X X X X X X o W R g U _ - # ( ) _ 3 . X X X e x.x.x.j.# X yXyXyXyX",
"yXyXyXyXyXyXyXyXyXyXyXX X = ] G.L . yXyXX ; x B B N h f f f f f f f f f f d O . X X . X X O 4 - . X X X X C l.x.z.r X X yXyXyXyX",
"yXyXyXyXyXyXyXyXyXyXyXyXX O - 3 = yXyXX X l >.:.:.:.&./ / / / B B B B B B B z z z < . R [ _ X . L [ - X X # 2 9 & X X yXyXyXyXyX",
"yXyXyXyXyXyXyXyXyXyXyXyXyXX X . yXyXyXX > +.@.@.<.1.1.<.<.<.<./ B B B B B B B B k X # R ] [ o . R { R - X X X X X X yXyXyXyXyXyX",
"yXyXyXyXyXyXyXyXyXyXyXyXyXyXyXyXyXyXyXX X o o o b o.Q Q Q Q Q B B B B B B k h h i - _ [ ) g X X 3 L ] 8.4 X X yXyXyXyXyXyXyXyXyX",
"yXyXyXyXyXyXyXyXyXyXyXyXyXyXyXyXyXyXyXyXyXyXyXX X . . . . . X i p p p p p O X X . U G.( s X X X X X L 0.[ X yXyXyXyXyXyXyXyXyXyX",
"yXyXyXyXyXyXyXyXyXyXyXyXyXyXyXyXyXyXyXyXyXyXyXyXyXX X X X X X X . X X X X X yXyXX - s # . yXX X X X X 4 3 X yXyXyXyXyXyXyXyXyXyX",
"yXyXyXyXyXyXyXyXyXyXyXyXyXyXyXyXyXyXyXyXyXyXyXyXyXX X X X yXyXyXyXyXyXyXyXyXyXyXX X . yXyXyXyXyXX X X . yXyXyXyXyXyXyXyXyXyXyXyX",
"yXyXyXyXyXyXyXyXyXyXyXyXyXyXyXyXyXyXyXyXyXyXyXyXyXX X X yXyXyXyXyXyXyXyXyXyXyXyXyXyXyXyXyXyXyXyXX X X X yXyXyXyXyXyXyXyXyXyXyXyX",
"yXyXyXyXyXyXyXyXyXyXyXyXyXyXyXyXyXyXyXyXyXyXyXyXX X X X yXyXyXyXyXyXyXyXyXyXyXyXyXyXyXyXyXyXyXyXX X X yXyXyXyXyXyXyXyXyXyXyXyXyX",
"yXyXyXyXyXyXyXyXyXyXyXyXyXyXyXyXyXyXyXyXyXyXyXX X X X yXyXyXyXyXyXyXyXyXyXyXyXyXyXyXyXyXyXyXyXyXX X X X X yXyXyXyXyXyXyXyXyXyXyX",
"yXyXyXyXyXyXyXyXyXyXyXyXyXyXyXyXyXyXyXyXyXyXyXX X X X yXyXyXyXyXyXyXyXyXyXyXyXyXyXyXyXyXyXyXyXyXX X X X X yXyXyXyXyXyXyXyXyXyXyX",
"yXyXyXyXyXyXyXyXyXyXyXyXyXyXyXyXyXyXyXyXyXyXyXyXyXyXyXyXyXyXyXyXyXyXyXyXyXyXyXyXyXyXyXyXyXyXyXyXyXyXyXyXyXyXyXyXyXyXyXyXyXyXyXyX",
"yXyXyXyXyXyXyXyXyXyXyXyXyXyXyXyXyXyXyXyXyXyXyXyXyXyXyXyXyXyXyXyXyXyXyXyXyXyXyXyXyXyXyXyXyXyXyXyXyXyXyXyXyXyXyXyXyXyXyXyXyXyXyXyX",
"yXyXyXyXyXyXyXyXyXyXyXyXyXyXyXyXyXyXyXyXyXyXyXyXyXyXyXyXyXyXyXyXyXyXyXyXyXyXyXyXyXyXyXyXyXyXyXyXyXyXyXyXyXyXyXyXyXyXyXyXyXyXyXyX",
"yXyXyXyXyXyXyXyXyXyXyXyXyXyXyXyXyXyXyXyXyXyXyXyXyXyXyXyXyXyXyXyXyXyXyXyXyXyXyXyXyXyXyXyXyXyXyXyXyXyXyXyXyXyXyXyXyXyXyXyXyXyXyXyX"
};
