/* XPM */
static char *merged[] = {
/* columns rows colors chars-per-pixel */
"64 64 215 2 ",
"   c #151C2E",
".  c #191E2F",
"X  c #1A1F30",
"o  c #1C202F",
"O  c #1B2334",
"+  c #1E2939",
"@  c #212431",
"#  c #232936",
"$  c #2B2934",
"%  c #242D3B",
"&  c #282C38",
"*  c #322E35",
"=  c #352F38",
"-  c #26313E",
";  c #29323D",
":  c #34333B",
">  c #393538",
",  c #41373B",
"<  c #443A3A",
"1  c #4A3D3C",
"2  c #48463E",
"3  c #53463E",
"4  c #7E7F3C",
"5  c #263442",
"6  c #293642",
"7  c #2D3A45",
"8  c #2C3E4A",
"9  c #323C44",
"0  c #353F45",
"q  c #33424B",
"w  c #3B454A",
"e  c #37484F",
"r  c #3B494D",
"t  c #2E4350",
"y  c #314752",
"u  c #364952",
"i  c #3A4C53",
"p  c #3D5056",
"a  c #35505C",
"s  c #3D555C",
"d  c #3D5962",
"f  c #474B4A",
"g  c #584644",
"h  c #49534E",
"j  c #5C574A",
"k  c #414F55",
"l  c #425254",
"z  c #4D5B56",
"x  c #41565A",
"c  c #445B5D",
"v  c #4B5C5B",
"b  c #565B56",
"n  c #624D42",
"m  c #655343",
"M  c #6C5445",
"N  c #685846",
"B  c #735948",
"V  c #7B5C4C",
"C  c #58615A",
"Z  c #726A43",
"A  c #776448",
"S  c #6C6456",
"D  c #776B56",
"F  c #6F7B5C",
"G  c #76785B",
"H  c #445D62",
"J  c #435D67",
"K  c #485F61",
"L  c #4B6364",
"P  c #43636B",
"I  c #466469",
"U  c #4A656A",
"Y  c #4D6A6C",
"T  c #586B65",
"R  c #516C6B",
"E  c #5C716C",
"W  c #486770",
"Q  c #4C6D73",
"!  c #506F77",
"~  c #4D7176",
"^  c #4C7379",
"/  c #557474",
"(  c #5A7472",
")  c #54757A",
"_  c #547A7C",
"`  c #597C7C",
"'  c #6C776A",
"]  c #747768",
"[  c #657B74",
"{  c #86654B",
"}  c #8C6A4D",
"|  c #936D4E",
" . c #887648",
".. c #98714F",
"X. c #8B6D53",
"o. c #926B52",
"O. c #827956",
"+. c #9D7451",
"@. c #987854",
"#. c #A27653",
"$. c #A67954",
"%. c #AB7D55",
"&. c #877C63",
"*. c #7F8C58",
"=. c #5A807F",
"-. c #798969",
";. c #698679",
":. c #738576",
">. c #679175",
",. c #79A863",
"<. c #858957",
"1. c #988958",
"2. c #96905A",
"3. c #AE954D",
"4. c #AE8055",
"5. c #AA885A",
"6. c #B48356",
"7. c #B5895A",
"8. c #A79658",
"9. c #9DA343",
"0. c #9BB94E",
"q. c #B2B04B",
"w. c #A5A852",
"e. c #BFBA5B",
"r. c #8F8A65",
"t. c #9C9666",
"y. c #838A77",
"u. c #969579",
"i. c #AA966C",
"p. c #BB9461",
"a. c #90AB79",
"s. c #B5B06F",
"d. c #C2945E",
"f. c #CEB64E",
"g. c #C49C64",
"h. c #C7B76C",
"j. c #BCC444",
"k. c #BECC66",
"l. c #D7C459",
"z. c #E9ED4F",
"x. c #CCC777",
"c. c #D9CD7C",
"v. c #DFD779",
"b. c #E4D377",
"n. c #D7E164",
"m. c #EDEF69",
"M. c #E9E376",
"N. c #547D81",
"B. c #587C82",
"V. c #5B8384",
"C. c #588588",
"Z. c #5D8589",
"A. c #5D8B8C",
"S. c #5E9194",
"D. c #628584",
"F. c #688B86",
"G. c #628D8C",
"H. c #6E9284",
"J. c #63908E",
"K. c #77948B",
"L. c #678F93",
"P. c #639494",
"I. c #649797",
"U. c #6A9494",
"Y. c #6B9699",
"T. c #669C9D",
"R. c #6B9C9D",
"E. c #759992",
"W. c #729A9A",
"Q. c #6BA09E",
"!. c #7DA597",
"~. c #72A39E",
"^. c #699FA0",
"/. c #729EA1",
"(. c #6CA2A2",
"). c #73A4A5",
"_. c #77A6A5",
"`. c #7BAAA4",
"'. c #75ABAC",
"]. c #79ACAD",
"[. c #7BB0AF",
"{. c #7DAFB0",
"}. c #7CB3B3",
"|. c #8A998A",
" X c #90A98A",
".X c #85A69D",
"XX c #95AE97",
"oX c #A0AD85",
"OX c #B8B883",
"+X c #84ADA5",
"@X c #89B5A9",
"#X c #8CB6A9",
"$X c #95BCAB",
"%X c #81B3B4",
"&X c #87B9B8",
"*X c #85BBBC",
"=X c #95BDB3",
"-X c #A1C599",
";X c #9DC0AC",
":X c #8CC0BD",
">X c #98C2B5",
",X c #93C2BD",
"<X c #9AC6BB",
"1X c #A3C3AD",
"2X c #A5CBBA",
"3X c #CAC986",
"4X c #D8D287",
"5X c #E2DD92",
"6X c #DAE293",
"7X c #F1EE89",
"8X c #F6F7A7",
"9X c #89BFC0",
"0X c #8CC3C4",
"qX c #92C5C3",
"wX c #9BCAC2",
/* pixels */
"0.0.0.0.0.e.e.e.e.e.e.e.e.e.e.,.,.,.,.,.,.,.,.,.,.,.,.,.,.,.,.,.,.,.,.,.,.,.,.,.,.,.,.,.,.,.,.,.,.,.,.,.,.,.,.,.,.,.,.,.,.,.,.,.",
"0.0.0.0.0.0.e.e.e.e.e.e.0.,.,.,.0.0.0.,.,.,.,.,.,.,.,.,.,.,.,.,.,.,.,.,.,.,.,.,.>.>.>.>.,.,.,.,.,.,.,.,.,.,.,.,.,.,.,.,.,.0.0.0.",
"0.0.e.e.e.e.e.e.e.e.e.0.0.0.0.0.0.0.0.0.0.0.0.,.,.,.,.,.,.,.,.,.,.,.,.,.,.,.,.>.>.>.>.>.>.0.0.0.0.0.0.0.0.>.>.>.>.,.,.,.0.0.0.0.",
"e.e.e.e.e.e.e.e.e.e.e.0.0.0.0.0.0.0.,.,.,.,.,.,.,.,.,.,.,.,.,.,.,.,.,.>.>.>.,.>.>.>.>.>.>.>.>.>.>.>.0.0.>.>.>.>.>.>.>.,.0.0.0.0.",
"e.e.e.e.e.e.e.e.e.e.0.0.0.0.0.0.0.0.0.0.,.,.,.,.,.,.,.,.,.,.,.,.,.,.>.>.>.>.>.>.>.>.>.>.>.>.>.>.>.>.>.>.>.e.e.e.>.>.>.>.0.0.0.e.",
"0.0.0.0.0.e.e.e.e.e.0.0.0.0.0.0.0.0.0.0.0.0.,.,.,.,.,.,.,.,.,.,.,.>.>.>.>.>.e.e.e.e.>.>.>.>.e.e.e.e.>.>.e.e.e.e.e.>.>.>.>.e.e.e.",
"0.0.0.0.0.0.e.e.e.e.e.0.e.e.0.0.0.0.0.0.0.0.0.0.0.0.,.,.,.,.,.,.,.>.>.>.e.e.e.e.e.e.e.>.>.e.e.e.e.e.e.e.e.e.e.e.e.e.e.e.e.e.0.0.",
"0.0.0.0.0.0.0.0.e.e.e.e.e.e.e.0.0.0.0.0.0.0.0.0.0.0.,.,.,.,.,.>.>.>.>.e.e.e.e.e.e.e.e.>.e.e.e.e.e.e.e.e.e.e.e.e.e.e.e.e.e.e.0.0.",
"e.e.0.0.0.0.0.0.0.e.e.e.0.0.0.e.0.0.0.0.0.0.0.0.0.0.0.e.e.e.e.e.e.>.e.e.e.e.e.e.e.e.e.e.e.e.e.e.e.e.e.e.e.e.e.e.e.e.e.e.e.e.0.e.",
"e.e.e.0.0.0.0.0.0.0.0.0.0.0.0.0.0.0.0.0.0.0.0.0.0.0.e.e.0.0.e.e.e.e.e.e.e.e.e.e.e.e.e.e.e.e.e.e.e.e.e.e.e.e.e.e.e.e.e.e.e.e.e.e.",
"e.e.e.0.0.0.e.e.0.0.0.0.0.0.0.0.0.0.0.0.0.0.0.0.0.0.e.0.0.0.0.e.e.e.e.e.e.e.e.0.0.0.e.e.e.e.e.0.0.e.e.e.e.0.0.e.e.e.e.e.e.e.e.e.",
"e.e.e.0.0.e.e.e.e.e.0.0.0.0.0.0.0.0.0.0.0.0.0.0.0.0.0.0.0.0.0.0.0.0.0.e.e.e.0.0.0.0.0.e.e.0.0.0.0.0.0.e.0.0.0.0.e.e.e.e.e.e.e.e.",
"e.e.e.e.e.e.e.e.e.e.e.e.e.e.e.e.e.e.e.0.0.0.0.0.0.0.0.0.0.0.0.0.0.0.0.0.e.e.0.0.0.0.0.e.0.0.0.0.0.0.0.0.0.0.0.0.e.e.e.e.e.e.e.e.",
"e.e.e.e.e.e.e.e.e.0.0.0.0.0.0.0.0.0.0.0.0.0.0.0.0.0.0.0.0.0.0.0.0.0.0.0.0.0.0.0.0.0.0.e.0.0.0.0.0.0.0.0.0.0.0.0.e.e.e.e.e.0.0.0.",
"0.0.0.0.0.0.0.0.0.0.0.0.,.,.,.,.,.,.0.0.0.0.0.0.0.0.0.0.0.0.0.0.0.0.0.0.0.0.0.0.0.0.0.0.0.0.0.0.0.0.0.0.0.0.0.0.0.0.0.0.0.0.0.0.",
"0.0.0.0.0.0.0.0.0.0.,.,.,.,.,.,.,.,.,.0.,.,.,.,.0.0.0.0.0.0.e.e.e.0.0.0.0.0.0.0.0.0.0.0.0.0.0.0.0.0.0.0.0.0.0.0.0.0.0.0.0.0.0.0.",
"0.0.0.0.0.0.0.0.,.,.,.,.,.,.,.,.,.,.,.,.,.,.,.,.,.0.0.0.e.e.e.e.e.e.0.0.0.0.0.0.0.0.0.0.,.,.,.0.0.0.0.0.0.0.0.0.0.0.0.0.0.0.0.0.",
"0.0.0.0.0.0.0.,.,.,.,.,.,.,.,.,.,.,.,.,.,.,.,.,.,.e.e.e.e.e.e.e.e.e.e.e.e.e.,.,.,.0.0.,.,.,.,.,.0.0.0.0.0.0.0.0.0.0.0.0.0.0.0.0.",
"0.0.0.0.0.,.,.,.,.,.,.0.0.0.0.0.,.,.,.,.,.,.,.,.,.,.,.,.e.e.e.e.e.e.e.e.e.,.,.,.,.,.,.,.0.0.,.,.,.0.0.0.0.0.0.,.,.,.0.0.0.0.0.0.",
"0.0.0.,.,.,.,.,.,.,.0.0.0.0.0.0.0.,.,.,.0.0.0.,.,.,.,.,.,.,.e.e.e.,.,.,.,.,.0.0.,.,.,.0.0.0.0.,.,.,.0.0.0.0.,.,.,.,.,.0.0.0.,.,.",
",.0.0.0.0.0.0.0.0.0.0.0.0.0.0.0.0.,.,.0.0.0.0.0.0.0.0.0.0.0.0.0.0.0.0.0.0.0.0.0.0.0.0.0.0.0.0.0.0.0.0.0.0.,.,.,.,.,.,.,.,.,.,.,.",
",.,.,.,.0.0.0.0.0.0.0.0.0.0.0.0.0.0.0.0.0.0.0.0.0.0.0.+ O + q I s e - O O 0.,.,.0.0.0.0.0.,.,.,.,.0.0.0.0.,.,.,.,.,.,.,.,.,.,.,.",
"0.0.0.0.0.0.0.0.0.0.0.0.0.0.0.0.0.0.0.0.0.0.O J u a C.A.C.) V.T.P.P.C.Y I L 2.:.5 0.,.,.,.,.,.,.,.,.0.0.,.,.,.,.0.0.0.,.,.,.,.,.",
"0.0.0.0.0.0.0.0.>.>.>.>.>.0.0.>.>.>.0.0.O y B.%XN.^.}.'.(.T.J.T.T.Q.Q.S.P.G.<.@XR.P 5 ,.,.,.,.,.,.,.,.,.,.,.,.0.0.0.0.0.0.0.0.0.",
"0.0.0.0.0.0.0.>.>.>.>.>.>.>.>.>.>.>.>.. q A.}.9XT.E./.'.).(.G.(.'.[.}.(.'.).V.).0X'.^ % ,.,.,.,.,.,.,.,.,.,.,.0.0.0.0.0.0.0.0.0.",
"0.0.0.0.0.>.>.>.e.e.e.e.>.>.>.e.O 5 5 O K A.}.qX.Xh.XX*X*X~.V.).*X0X0X*X%XH G.[.,X(.=.e O 8 + 0.0.0.,.,.,.,.0.0.0.0.0.0.0.0.0.0.",
"0.0.>.>.>.>.e.e.e.e.e.e.e.e.e.O 8 S.^ 5 K ` ~.$X-X3XG G.T.T.I.J.(.}.].).Z.s _.%X@XP.R p 6 A.C.O + 0.0.,.,.,.,.,.,.,.,.,.,.0.0.0.",
"e.>.>.e.e.e.e.e.e.e.e.e.e.e.d ^ J K.] w c L P.T.G.T T ).(.T.(.).).T.G.]._.( :.|.T.V.p e u A.A.s _ 8 0.,.,.,.,.,.,.,.,.,.,.,.,.,.",
"e.e.e.e.e.e.e.e.e.e.,.,.,.o W I.T oXc.F P.'.].P.Y K L Y.}.*X].R.Y / ).*X^.S l.4X.X[.).G.R T.V./ T.8 . ,.,.,.,.,.e.e.e.e.e.e.e.e.",
"0.0.0.0.0.0.e.e.,.,.,.,.+ e H V.i -.2.h D.0XqX].Q 6 c G.}.*X*X#X:.Y (.(.N.B b.8XXX9X9XB.L =.K K V.p q ,.e.e.e.e.e.e.e.e.e.e.e.e.",
"0.0.0.0.0.0.0.0.0.0.0.X e R l w f f & c A.`.>X}.L.5 L J.T.(.(.).W./ I.T.P.l 4 w.E.%X/.` e ; w w w c L - 0.0.0.0.0.0.0.0.0.0.0.0.",
"0.0.0.0.0.0.0.0.0.0.O ; k p I [ OX2.7 Y P.Q.Q.T.) Q / =.P.T.^.T.S.s A.(.A.J W Y S.Q.(.Z.L q t Q _ p c w - 0.0.0.0.0.0.0.0.0.0.0.",
"e.e.e.0.0.0.0.0.0.; x c & d *X!.x.1.j -.[ ) P _.0X0X}.U.Z.` P.Y.` e ) '.*X&XwX=XA.W ~ s c ~ T.0X0XU.- 9 L e 0.0.0.0.0.0.0.0.0.e.",
"e.e.e.e.0.0.0.0.0.l R i 8 / &X%X!.*.3XM.3.f c A.}.,XwXwX<X( x R c - s G.+X>X#X`.V.p 8 x G.}.0X0X0X).H % c L f 0.0.0.0.0.0.0.e.e.",
"e.e.e.e.e.e.e.0.q c x 6 L ` (.}.<Xk.7X7X5.r R ` T.).@X$X$XT H B.) R.W.W.( P.T.I.V.L G 1.|.%X:X'.'.P.R s ; z l ; 0.0.e.e.e.e.e.e.",
"0.0.0.e.e.e.e.. ; 7 # % K Q P.T.Q.-.9.3.m q Y V.P.T.I.T.P.u Y {.*XqX<X+XH A.T.|.:.f q.m.5X!.Q.Q.T.A.R p $ 2.] O 0.0.0.0.e.e.e.e.",
"0.0.0.0.e.e.e.; c r ; s / G.~ N.S.Q.s z e q Y I.(.T.T.R.G.i H G.(.(.~.S.u Z.L w.s.f f.M.m.2.A.A.~ N.Z.L l j E p O 0.0.0.0.0.e.0.",
"0.0.0.0.0.0.; e C z w R %X0X].) U.'._ x & 6 ! C.P.T.T.S.' t.] P.I.(.(.N.J '.Z.r.a.s m 3.w.;.).B.Z.*X0XY.L 7 L U 9 O 0.0.0.0.0.0.",
"0.0.0.0.0.0.c S h.1.v G.9X0X0X0X0X9X&X( 7 Q %X%XY.(.T.A.S x.-.U L '.*X#X,X*X}.(.:X~.y l E.0X0X0X0X0XqX]./ q L L l e 0.0.0.0.0.0.",
"0.0.0.0.0.0.L O.M.3.L (.%X*X0XqXwX,X_.` 8 x D.*XqX<X>X=X+X+X=.c 8 ` (.).`.R.T.T.I.` q s G.%X<XwXwX<X<X}.I.p 8 u r U ,.,.,.,.,.0.",
",.,.,.,.,.7 l f 4 j P Q.T.(.[.;X1X+X( Y q s R P.`.;X1X1X#X^.T.U e / S.T.T.T.^.T.` R q x Y ;.#X1X1X+XE.I.R.s O # r l ,.,.,.,.,.,.",
",.,.,.,.0.7 r ; s ) W P.T.T.T.T.T.P.R R 7 9 L Z.T.R.T.T.R.P.R S j c ) P.P.T.I.S._ K q p R _ T.R.P.' s.|.A.W _ q 7 w & ,.,.,.,.,.",
"0.0.0.0.0.9 9 ; R A.R.}.'.(.(.T.T.R.Y 7 $ { O.&.:.] u.|.t.b 5.g.g.{ S &.D y.z D D | A O i V.Y.K.' j 5Xa.).I.V.C N h % ,.,.,.0.0.",
"0.0.0.0.O 9 ; p R Y D.%X0X0X*X'.I.A.L u ; X.7.5.N M 7.g.5.1 5.p.p.A m g.7.@.2 @.p.7.j ; l R r.h.c.G -.!.).( L A c.S ; 0.0.0.0.0.",
"0.0.0.0.O 7 ! U.( ] i.8.:.(.'.(.~ L R R 0 V %.%.m B %.%.%.< +.$.+.B g 4.%.+.1 } 4.#.3 s R c B b.8Xn.H.=.R U Y (  Xh ; 0.0.0.0.0.",
"0.0.0.0.6 / '.0X[.-X8Xz.4 L u.;.s u L 8 @ { %.#.M M 6.%.o.1 +.%.6.B n 6.#...2 } %.%.3 + i x 2 3.j.9.w H ( D.].*X0XP.H O e.e.e.e.",
"0.0.0.. u A.'.0XH.j.m.l. .j v.Z P U.W.K 6 $ > = @ @ < , * X = < < $ o < > $ . * , , $ w ) W.Y..X+XU.7 Y %X,XwXqX*X(._ ; e.e.e.e.",
"0.0.0.O P I.T.(.A.;.q.@.: z *.( =X2XE.R x = < > g =                       X < < = 1 6 L ( $X2X2X&X/.u Y ).+X#X`.^.(.A.q e.e.e.0.",
">.>.0.. W (.T.T.Q.Q.R.( q Y S.^._.).I.` x : { B o.M X                     * B m V V 9 L G.T.~.`.^.G.u p C.T.T.T.I.T.I.t   0.0.0.",
">.>.>.O H R.[.(.Q.T.U.i.O.u P.T.T.T.(.A.L ; | #.%.o.$                     1 #.+.$.M q E S.(.Q.(.K.t.G l d I.Q.T.).[.Z.8 . 0.0.>.",
">.e.e.9 ` Q.*X*X}.}.#X6Xw.% A.T.T.T.P.` x & } #.%.#.*         X           g 7.%.$.n 0 t.|.T.S.S.] l.4X|.}.*X*X}.0X}.I.Y + 0.0.>.",
"e.e.O x S.T.(.>X>X:X,X#XK J R.].'.'.V.L 8 O B $.@.6.=               .     n g.6.7., > c.k.S.'.).f 4.w.F.,XqX=X>X%XQ.T.` 7   >.>.",
"e.e.O H A.T.Q.Q.J.E.`.Q.B.%XqX0X0X0X*X%XT.a n #.5.7.<                     B p.@.4.> I :.&X9X0X0X).W.W.V.(.~.F.I.Q.Q.I._ e . e.e.",
"e.e.6 7 7 P ^ T.T.T.T.Z.E.2X0X0X0X0X:X*XY.q , $.g.d.n     .             @ | 7.%.| # L '.9X0X0X0XqXwX1XF.S.T.T.T.S.W d - q e.e.e.",
"e.e.0.0.0.0.0.A.Q.T.C.q R XX>X$X~.P.P.S.=.L 9 | d.6.n         .         @ ..6.6.M u Y Z.U.P.P.+X$X=XK.c a I.T.T.W 0.0.0.e.e.e.e.",
"0.0.0.0.0.0.0.0.0.^ y O x S.(.T.R.I.T.C.~ H k | 7.%.m       0.,.        @ | %.%.f i i N.A.T.T.T.T.Q._ 7 + d e.e.0.0.0.0.0.e.e.e.",
"0.0.0.0.0.0.0.0.0.0.0.0.,.I C.I.T.T.C.% + ,.7 n %.#.V     ,.,.,.,.,.    * +.$.#.> % ,.O t C.T.T.C.N.t . 0.0.0.0.0.0.0.0.0.0.0.0.",
"0.0.0.0.0.0.,.,.,.,.,.,.,.,.,.,.0.0.0.,.,.,.,.> M V } @ . ,.,.,.,.,.,.  * 3 M { * 0.0.0.0.0.0.0.0.0.0.0.0.0.0.0.0.0.0.0.0.0.0.0.",
"0.0.0.0.0.0.0.0.0.,.,.,.,.,.,.0.0.0.0.0.,.,.0.0.0.,.,.,.,.,.,.,.0.0.,.,.0.0.0.0.0.0.0.0.0.0.0.0.0.0.0.0.0.0.,.,.,.0.0.0.0.0.0.0.",
"0.0.0.0.0.0.0.0.0.0.0.0.,.,.,.0.0.0.0.0.,.0.0.0.0.0.0.,.,.,.,.0.0.0.0.,.,.0.0.0.0.0.0.0.0.0.0.0.0.0.0.0.0.,.,.,.,.,.0.0.0.0.0.0.",
"0.0.0.0.0.0.e.e.0.0.0.0.0.0.0.0.0.0.0.0.0.0.0.0.0.0.0.0.0.0.0.0.0.0.0.0.0.0.0.0.0.0.0.0.0.0.,.,.,.0.0.0.,.,.,.,.,.,.0.0.0.0.0.0.",
"0.0.0.0.0.e.e.e.e.0.0.0.0.e.e.e.e.0.0.0.0.0.0.0.0.0.0.0.0.0.0.0.0.0.0.0.0.0.0.0.0.0.0.0.0.,.,.,.,.,.,.,.,.,.,.,.,.,.0.0.0.0.0.0.",
"0.0.0.e.e.e.e.e.e.e.e.e.e.e.e.e.e.e.e.0.0.0.0.0.0.0.0.,.,.,.,.0.0.0.0.0.0.0.0.0.0.0.0.0.,.,.,.,.,.,.,.,.,.,.,.,.,.,.,.,.,.0.0.0.",
",.,.e.e.e.e.e.e.e.e.e.e.e.e.e.e.,.,.,.,.0.0.,.,.,.,.,.,.,.,.,.,.,.0.0.,.,.,.,.0.0.0.0.,.,.,.,.,.,.,.,.,.,.,.,.,.,.,.,.,.,.,.,.,."
};
