/* XPM */
static const char *goblin3_L[] = {
/* columns rows colors chars-per-pixel */
"64 64 215 2 ",
"   c #0F182C",
".  c #14172D",
"X  c #151B2D",
"o  c #181D2F",
"O  c #1C1E31",
"+  c #201E34",
"@  c #17212F",
"#  c #1B2231",
"$  c #1A2C32",
"%  c #1A2B34",
"&  c #1B3333",
"*  c #1B3834",
"=  c #232234",
"-  c #2A2335",
";  c #262A35",
":  c #2A2A36",
">  c #2D243A",
",  c #212C39",
"<  c #2D2D39",
"1  c #352937",
"2  c #31263C",
"3  c #332C3D",
"4  c #263637",
"5  c #35333D",
"6  c #3A353B",
"7  c #3C333C",
"8  c #452D3A",
"9  c #46363C",
"0  c #55323D",
"q  c #5A333E",
"w  c #1F4337",
"e  c #1F4838",
"r  c #204638",
"t  c #224C3A",
"y  c #364B3B",
"u  c #23553B",
"i  c #245B3D",
"p  c #37563D",
"a  c #31613F",
"s  c #53413D",
"d  c #3B2B42",
"f  c #263C44",
"g  c #323845",
"h  c #3E3A40",
"j  c #432D46",
"k  c #462F48",
"l  c #482F49",
"z  c #423D43",
"x  c #463548",
"c  c #4B314B",
"v  c #553648",
"b  c #563551",
"n  c #593752",
"m  c #5D3955",
"M  c #5F3958",
"N  c #633740",
"B  c #643942",
"V  c #6D3B43",
"C  c #723D44",
"Z  c #613A56",
"A  c #6B3D57",
"S  c #643B59",
"D  c #6A3D5B",
"F  c #703F5B",
"G  c #2B464B",
"H  c #304F51",
"J  c #355A58",
"K  c #326A4B",
"L  c #2B7C44",
"P  c #3B6761",
"I  c #3C6A63",
"U  c #3E7A65",
"Y  c #494346",
"T  c #4A4247",
"R  c #534B4B",
"E  c #5A494B",
"W  c #5D534E",
"Q  c #484453",
"!  c #5A4955",
"~  c #5E5151",
"^  c #664C46",
"/  c #6A5448",
"(  c #795947",
")  c #7D4356",
"_  c #73405A",
"`  c #7B435A",
"'  c #635454",
"]  c #685B54",
"[  c #6D5B59",
"{  c #7A5B56",
"}  c #497346",
"|  c #557748",
" . c #6B615D",
".. c #73615B",
"X. c #7A685D",
"o. c #426D67",
"O. c #417367",
"+. c #417168",
"@. c #7F6860",
"#. c #94494D",
"$. c #8B504F",
"%. c #804351",
"&. c #844659",
"*. c #8D4959",
"=. c #984B55",
"-. c #9B4C57",
";. c #934A58",
":. c #8C5857",
">. c #A24E52",
",. c #A34F58",
"<. c #A65055",
"1. c #AB5155",
"2. c #AE5358",
"3. c #B55555",
"4. c #B95655",
"5. c #B85957",
"6. c #BA5E5A",
"7. c #8B6E56",
"8. c #8C6659",
"9. c #98695B",
"0. c #A5655C",
"q. c #BB655E",
"w. c #885562",
"e. c #836D62",
"r. c #886F65",
"t. c #8C7765",
"y. c #9E7466",
"u. c #95796A",
"i. c #BC6C61",
"p. c #AD7565",
"a. c #BD796A",
"s. c #C06C61",
"d. c #C27566",
"f. c #C57C6A",
"g. c #2D8246",
"h. c #2F8947",
"j. c #308D48",
"k. c #32984B",
"l. c #3D8C5F",
"z. c #3A9758",
"x. c #35A74E",
"c. c #36AA4F",
"v. c #3AA94F",
"b. c #39A953",
"n. c #37B251",
"m. c #39B351",
"M. c #3AB953",
"N. c #3E8362",
"B. c #528B4C",
"V. c #53994F",
"C. c #6A9751",
"Z. c #53AB52",
"A. c #48BA54",
"S. c #57BB56",
"D. c #6BAC55",
"F. c #79B558",
"G. c #408264",
"H. c #679175",
"J. c #79A863",
"K. c #58C258",
"L. c #68C55A",
"P. c #79CC5D",
"I. c #FFEE3F",
"U. c #B88554",
"Y. c #9BB94E",
"T. c #BFBA5B",
"R. c #9D8B6D",
"E. c #A28B6D",
"W. c #AD9B79",
"Q. c #B29775",
"!. c #C08459",
"~. c #D2955B",
"^. c #D9945F",
"/. c #DC9A5D",
"(. c #DDA15A",
"). c #E2A959",
"_. c #E7B455",
"`. c #EAB953",
"'. c #C4826E",
"]. c #C9846F",
"[. c #D99260",
"{. c #CCAE7F",
"}. c #DCAF71",
"|. c #8BC75E",
" X c #8CD361",
".X c #93D462",
"XX c #98D863",
"oX c #F1CC4E",
"OX c #F5D64A",
"+X c #F8DC49",
"@X c #EDC351",
"#X c #FFED43",
"$X c #FCE648",
"%X c #FFF043",
"&X c #FFEF57",
"*X c #F6DC79",
"=X c #F9E869",
"-X c #FFF267",
";X c #FBEC79",
":X c #FFF276",
">X c #AEA382",
",X c #C5B68C",
"<X c #D5B887",
"1X c #D8C594",
"2X c #E5C189",
"3X c #E1C995",
"4X c #ECDA93",
"5X c #FFF388",
"6X c #FFF797",
"7X c #EEDCA6",
"8X c #F0E2AB",
"9X c #FDF5B0",
"0X c #FFFBCF",
"qX c #FFFDE9",
"wX c #FFFEF7",
/* pixels */
"J.J.J.J.J.J.J.J.J.J.J.J.J.J.J.J.J.J.J.J.J.J.J.J.J.J.J.J.J.J.J.J.J.J.J.J.J.J.J.J.J.J.J.J.J.J.J.J.J.T.T.T.T.T.T.T.T.T.T.Y.Y.Y.Y.Y.",
"Y.Y.Y.J.J.J.J.J.J.J.J.J.J.J.J.J.J.J.J.J.H.H.H.H.J.J.J.J.J.J.J.J.J.J.J.J.J.J.J.J.J.J.J.J.J.Y.Y.Y.J.J.J.Y.T.T.T.T.T.T.Y.Y.Y.Y.Y.Y.",
"Y.Y.Y.Y.J.J.J.H.H.H.H.Y.Y.Y.Y.Y.Y.Y.Y.H.H.H.H.H.H.J.J.J.J.J.J.J.J.J.J.J.J.J.J.J.J.Y.Y.Y.Y.Y.Y.Y.Y.Y.Y.Y.Y.T.T.T.T.T.T.T.T.T.Y.Y.",
"Y.Y.Y.Y.J.H.H.H.H.H.H.H.Y.Y.H.H.H.H.H.H.H.H.H.H.H.J.H.H.H.J.J.J.J.J.J.J.J.J.J.J.J.J.J.J.J.y.y.y.y.Y.Y.Y.Y.^.^.[.[.T.T.T.T.T.T.T.",
"T.Y.Y.Y.H.H.H.H.T.T.T.H.H.H.H.H.H.H.H.H.H.H.H.H.H.H.H.H.H.H.J.J.J.J.J.J.J.J.J.J.J.J.J.J.Y.y.y.y.y.y.Y.Y.^.^.^.).)./.T.T.T.T.T.T.",
"T.T.T.H.H.H.H.T.T.T.T.T.H.H.T.T.T.T.H.H.H.H.T.T.T.T.H.H.H.H.H.J.J.J.J.J.J.J.J.J.J.J.Y.Y.y.y.y.Y.Y.Y.Y.^.^.^.^.+X#X@X^.Y.Y.Y.Y.Y.",
"Y.Y.T.T.T.T.T.T.T.T.T.T.T.T.T.T.T.T.T.H.H.T.T.T.T.T.T.T.H.H.H.J.J.J.J.J.J.J.Y.Y.Y.Y.Y.Y.Y.Y.Y.Y.Y.Y.T.T.Y.T.^.).$X+X^.Y.Y.Y.Y.Y.",
"Y.Y.T.T.T.T.T.T.T.T.T.T.T.T.T.T.T.T.T.T.H.T.T.T.T.T.T.T.T.H.H.H.H.J.J.J.J.J.Y.Y.Y.Y.Y.Y.Y.Y.Y.Y.Y.T.T.T.T.T.T.[.@X+X/.Y.Y.Y.Y.Y.",
"T.Y.T.T.T.T.T.T.T.T.T.T.T.T.T.T.T.T.T.T.T.T.T.T.T.T.T.T.T.T.H.T.T.T.T.T.T.Y.Y.Y.Y.Y.Y.Y.Y.Y.Y.Y.T.Y.Y.Y.T.T.T.[.@XOXY.Y.Y.Y.T.T.",
"T.T.T.T.T.T.T.T.T.T.T.T.T.T.T.T.T.T.T.T.T.T.T.T.T.T.T.T.T.T.T.T.T.T.Y.Y.T.T.Y.Y.Y.Y.Y.Y.Y.Y.Y.Y.Y.Y.[.^.^.^.^.^._.Y.Y.Y.Y.T.T.T.",
"T.T.T.T.T.T.T.T.T.Y.Y.T.T.T.T.Y.Y.T.T.T.T.T.Y.Y.Y.T.T.T.T.T.T.T.T.Y.Y.Y.Y.T.Y.Y.Y.Y.Y.Y.Y.Y.Y.^.^.^.[.^.^.[.^.^.^.T.Y.^.Y.T.T.T.",
"T.T.T.T.T.T.T.T.Y.Y.Y.Y.T.Y.Y.Y.Y.Y.Y.T.T.Y.Y.Y.Y.Y.T.T.T.Y.Y.Y.Y.Y.Y.Y.Y.Y.Y.Y.Y.Y.Y.Y.Y.Y.^.^.^.^.^.[.).`.).^.^.^.^.^.Y.T.T.T.",
"T.T.T.T.T.T.T.T.Y.Y.Y.Y.Y.Y.Y.Y.Y.Y.Y.Y.T.Y.Y.Y.Y.Y.T.T.Y.Y.Y.Y.Y.Y.Y.Y.Y.Y.Y.Y.Y.Y.Y.Y.^.^.^.^.^.).OXOX+X`.(.^.^.^.^.T.T.T.T.T.",
"Y.Y.Y.T.T.T.T.T.Y.Y.Y.Y.Y.Y.Y.Y.Y.Y.Y.Y.T.Y.Y.Y.Y.Y.Y.Y.Y.Y.Y.Y.Y.X X X Y.Y.Y.Y.Y.Y.Y.Y.^.^.^.(.2X;X%X$X).[.^.^.^.^.T.T.T.T.T.T.",
"Y.Y.Y.Y.Y.Y.Y.Y.Y.Y.Y.Y.Y.Y.Y.Y.Y.Y.Y.Y.Y.Y.Y.Y.Y.Y.Y.Y.Y.Y.Y.Y.o 1 E X Y.Y.Y.Y.Y.Y.Y.Y.^.^./.*X0X:X#X_.^.^.^.^.^.Y.Y.Y.Y.Y.Y.Y.",
"Y.Y.Y.Y.Y.Y.Y.Y.Y.Y.Y.Y.Y.Y.Y.Y.Y.Y.Y.Y.Y.Y.Y.Y.Y.Y.Y.Y.Y.Y.X o B i.8.X Y.Y.Y.Y.J.J.J.J.^.(.OX:X:X#XOX/.^.^.^.Y.Y.Y.Y.Y.Y.Y.Y.Y.",
"Y.Y.Y.Y.Y.Y.Y.Y.Y.Y.Y.Y.Y.Y.Y.Y.Y.J.J.J.Y.Y.Y.Y.Y.Y.Y.Y.X X o N 3.d.9.O X Y.Y.J.J.J.J.J.[._.#X#X#X#X_.[.^.^.J.J.Y.Y.Y.Y.Y.Y.Y.Y.",
"Y.Y.Y.Y.Y.Y.Y.Y.Y.Y.Y.Y.Y.Y.Y.Y.J.J.J.J.J.Y.Y.J.J.J.T.X X o V q.6.i.'.T . T.T.J.J.J.J.J.^.@X#X&X&X#X_.[.U.J.J.J.J.Y.Y.Y.Y.Y.Y.Y.",
"Y.Y.Y.Y.Y.Y.J.J.J.Y.Y.Y.Y.Y.Y.J.X # o X J.J.J.J.J.J.X X > c 0.'.d.5.f.9.: X J.J.J.J.J.$.).#X#X5X5XI._.[./ J.J.J.J.J.J.Y.Y.Y.Y.Y.",
"J.J.Y.Y.Y.J.J.J.J.J.Y.Y.Y.Y.J.J.$ D.| @ X J.J.J.X X . . > S ` a.'.q.q.].8.X J.J.J.X . s ~.+X&XqX5XI.@X/.^   J.J.J.J.J.J.J.Y.Y.Y.",
"J.J.J.J.J.J.J.J.J.J.J.Y.Y.Y.Y.Y.@ } |.4 X Y.X X O j C B O c D w.a.q.5.f.9.X X X 4 B.4 X 9.`.&XqX0X%X#X)./ . Y.Y.Y.Y.Y.Y.Y.Y.Y.J.",
"J.J.J.J.J.J.J.J.J.J.J.Y.Y.Y.Y.J.. t P.C.X X X 2 n F 2.4.C 7 3 M *.5.3.i.{ X X K F.XXy . 9 ~.OX6XwX:X#XoX!.: Y.Y.Y.Y.Y.Y.J.J.J.J.",
"J.J.J.J.J.Y.Y.Y.J.J.J.J.Y.Y.J.J.. t K.C.X X X b D D ` <.3.1.C %.` ,.4.1.- e L L.XX.Xy Y.= 7.`.5XwX9X-X$X(.6 Y.Y.Y.Y.Y.Y.Y.Y.Y.Y.",
"Y.Y.Y.Y.Y.Y.Y.Y.Y.J.J.J.J.J.J.J.. t k.4 O > 1 = = c Z _ *.<.4.4.=.&.1.B t x.A. X.X| # Y.  9 U.=X9X;X=X4X}.( H.H.Y.Y.Y.Y.Y.Y.Y.Y.",
"Y.Y.Y.Y.Y.Y.Y.Y.Y.J.J.J.J.J.J.J.J.* * + b ` 3.C N - > m D D =.3.3.1.v J N.n.A.XXF.# X T.Y.X ] 3X8X8X4X3X<X6 H.H.H.Y.Y.Y.Y.Y.Y.Y.",
"Y.Y.Y.Y.Y.Y.Y.Y.Y.Y.J.J.J.J.Y.Y.Y.X + b D D ;.3.4.=.#.) _ _ ` *.3.N f O.b.m.P.|.p X T.T.T.X R.3X8X8X7XW.X.5 T.T.H.H.H.Y.Y.Y.Y.Y.",
"Y.Y.Y.J.J.J.J.J.J.J.J.J.J.Y.Y.Y.Y.X l D D D D _ ;.3.4.3.3.3.3.3.4.~ I O.b.m. X| . X T.T.T.X E.<XW.1X7X,Xh X T.T.T.T.H.H.H.H.Y.Y.",
"J.J.J.J.J.J.J.J.J.J.J.J.J.Y.Y.Y.Y.X c D D D D D D ` ` ,.4.4.3.3.4. .I O.b.M.D.4 X X T.T.T.X >X,X< ' <X2XQ.< T.T.T.T.T.T.T.H.H.T.",
"T.T.T.T.T.T.T.T.J.J.J.J.J.Y.Y.Y.X X 2 l l l l l b D D _ ;.=.3.3.>.7 P O.z.M.D.o X X X T.T.X ] E.e.# W E.E.; T.T.T.T.T.T.T.T.T.T.",
"T.T.T.T.T.T.T.T.T.T.T.T.J.J.Y.X X $ $ $ $ $ @ . = d m Z D D &.<.%.o G +.U v.p = { ^ o J.J.X . ; T # . ; < X J.J.T.T.Y.Y.Y.Y.Y.Y.",
"Y.Y.Y.Y.Y.Y.Y.Y.Y.Y.Y.Y.Y.Y.X $ i Z.S.v.x.c.L e X X O = k S -.3.3.V , P +.z.& N f.'.7 . J.J.X # 3 5 = X X X Y.Y.Y.Y.Y.Y.Y.Y.Y.Y.",
"Y.Y.Y.Y.Y.Y.Y.Y.Y.Y.Y.Y.Y.X $ V.P.XX XA.n.m.m.c.g.J f X X > A <.4.3.%.$.:.7.8.0.'.'.9 . J.J.. 5 [ [ R # X Y.Y.Y.Y.Y.Y.Y.Y.Y.Y.Y.",
"T.Y.Y.Y.Y.Y.Y.Y.Y.Y.Y.Y.X 4 V. XXX XS.m.m.m.m.m.m.G.o.G X X > =.4.3.4.6.s.f.].'.'.'.7 . Y.Y.. z u.e.' = Y.Y.Y.Y.Y.Y.Y.Y.Y.T.T.T.",
"T.T.Y.Y.Y.Y.Y.Y.Y.Y.Y.@ $ V..X XL.A.c.x.x.c.m.m.m.U +.o.H H f 8 1.3.3.6.q.q.q.q.i.'.9 . J.J.. z u.r.' = Y.Y.Y.Y.Y.Y.Y.Y.T.T.T.T.",
"T.T.T.T.T.T.Y.Y.Y.Y.. t x.M.A.A.k.g.t $ $ w g.z.l.+.+.J G % # = <.3.3.3.3.3.3.q.f.p.3 . J.J.. z u.e.' ; J.Y.Y.Y.Y.T.T.T.T.T.T.T.",
"T.T.T.T.Y.Y.Y.Y.Y.Y.$ j.m.h.i i & X X X X O X G +.+.+.J H % X = 1.3.3.3.3.3.6.q.0.7 X X Y.Y.. z u.[ T O Y.Y.Y.Y.T.T.T.T.T.Y.Y.Y.",
"Y.T.Y.Y.Y.Y.Y.Y.Y.Y.$ h.t # X . Y.Y.X # H P H f o.+.+.O.J X X > -.4.3.4.4.<.#.q 1 = X Y.Y.Y.X < ~ R < X Y.Y.Y.T.T.T.T.T.Y.Y.Y.Y.",
"Y.Y.Y.Y.Y.Y.Y.Y.Y.Y.X X X Y.T.T.T.T.X 4 +.+.+.+.+.+.+.+.J % - m ` ;.<.*.*.` c k S j X Y.Y.w K # X X # X Y.Y.Y.Y.Y.Y.Y.Y.Y.Y.Y.Y.",
"Y.Y.Y.Y.Y.Y.J.J.J.T.T.T.T.T.T.T.T.T.X % I +.+.+.+.+.+.J % > m ` ,.<.3.<.<.<.2.2.,.c X Y.& k.k.@ 4 } F.; X Y.Y.Y.Y.Y.Y.Y.Y.Y.Y.Y.",
"Y.J.J.J.J.J.J.J.J.J.J.J.J.J.J.J.J.J.J.X 4 I +.+.+.+.J % - m ` <.4.3.3.3.3.3.C B <.V . Y.* x.e 4 F.XX.Xa X Y.Y.Y.Y.Y.Y.Y.Y.Y.Y.Y.",
"J.J.J.J.J.J.J.J.J.J.J.J.J.J.J.J.J.J.. O = f +.+.I f : c Z D &.<.3.3.3.3.3.3.8   - - X Y.X i w | XX.XL.h.X Y.Y.Y.J.J.J.J.J.J.J.J.",
"J.J.J.J.J.J.J.J.J.J.J.J.J.J.J.J.J.X > c S x I o.Q j S D D D D D =.3.3.3.3.4.>.N = X X X X X $ S.L.S.m.h.X Y.Y.Y.Y.Y.Y.Y.J.J.J.J.",
"Y.Y.J.J.J.J.J.J.J.J.J.J.J.J.Y.Y.X O c D D M g ! D D D D D D D D &.4.4.4.4.4.>.>.V o X X X X $ x.n.n.m.L X Y.Y.Y.Y.Y.Y.Y.Y.Y.Y.Y.",
"Y.Y.Y.Y.Y.Y.Y.J.J.Y.Y.Y.J.Y.X X X = n D b j j c D D D D D D n j v V C V C V - o O X X H.H.X @ g.m.m.c.& Y.Y.Y.Y.Y.Y.Y.Y.Y.Y.Y.Y.",
"Y.Y.Y.Y.Y.Y.Y.Y.Y.Y.Y.Y.Y.X & i X # 3 x ; = ; : > > > > > d 3 < < ; ; < : : t.t.e.' . H.H.H.X $ r r w # Y.Y.Y.Y.Y.Y.Y.Y.Y.Y.Y.Y.",
"T.T.T.T.T.Y.Y.Y.Y.Y.Y.Y.X & k.g.O ~ X.' R e.t.R < T 5 z R ' t.{.{.E.E.{.Q.t.t.X...R . T.T.T.O ; X X X Y.Y.Y.Y.Y.Y.Y.Y.Y.Y.Y.Y.Y.",
"T.T.T.T.T.T.T.T.T.T.Y.Y.. u M.L o < 5 o R @.@.: T r.' e.' < 6 R R T z R T 6 # O O O X T.T.T.= ~ T # X H.Y.Y.H.H.H.H.H.Y.Y.Y.Y.Y.",
"Y.T.T.T.T.T.T.T.T.T.T.T.. u M.L X X X X # z 5 X O = # # ; 2 2 > > > 2 > > 2 d Z S c O T.T.T.= t...# X H.H.H.H.H.H.H.H.H.Y.Y.Y.Y.",
"Y.Y.Y.T.T.T.T.T.T.T.T.T.X & j.k.* X # ~ h X h [ z O j c n D D D D D D _ _ _ ;.-.=.=.8 O X T.# h 5 o X H.H.H.H.H.T.T.H.H.H.Y.H.H.",
"H.Y.Y.Y.Y.Y.Y.Y.Y.Y.Y.Y.Y.X # $ # X # ' [ ; = ..[ 5 O c D D D D D D ` 3.3.3.4.4.4.4.>.8 X T.H.. . X T.T.H.H.H.T.T.T.T.H.H.H.H.H.",
"H.Y.Y.Y.Y.Y.Y.Y.Y.Y.Y.Y.Y.Y.T.T.T.X X T r.E X < T @.T O 3 b S S S S Z 0 0 0 0 0 0 0 0 o T.T.T.T.T.T.T.T.T.T.T.T.T.T.T.H.H.T.T.H.",
"H.H.H.T.T.Y.Y.Y.Y.Y.Y.Y.Y.T.T.T.T.T.X < ..~ X X # ' [ : . O = = = = O . . . . . . . J.T.T.T.T.T.T.T.T.T.T.T.T.T.T.T.T.T.T.T.T.T.",
"T.T.T.T.T.T.T.Y.Y.Y.Y.Y.Y.Y.Y.Y.T.T.X X X X X J.J.X X X X X X X X X X T.X X X X J.J.J.J.T.T.T.Y.Y.Y.Y.T.T.T.T.T.Y.Y.Y.T.T.T.T.T.",
"T.T.T.T.T.T.T.T.T.Y.Y.Y.Y.Y.Y.Y.Y.Y.X X X X J.J.J.J.J.J.J.J.J.Y.Y.Y.Y.Y.Y.X X X J.J.J.J.J.J.J.J.J.Y.Y.Y.T.T.T.Y.Y.Y.Y.Y.T.T.T.T.",
"T.T.T.T.Y.Y.Y.T.T.T.Y.Y.Y.Y.Y.Y.Y.Y.X X X J.J.J.J.J.J.J.J.J.J.J.Y.Y.Y.Y.Y.Y.X X X X J.J.J.J.J.J.J.J.Y.Y.T.T.T.Y.Y.Y.Y.Y.Y.Y.T.T.",
"T.T.T.Y.Y.Y.Y.Y.T.T.T.T.Y.Y.Y.Y.Y.Y.X X X J.J.J.J.Y.Y.J.J.J.J.J.J.Y.Y.J.J.J.X X X X J.J.J.J.J.J.J.J.Y.Y.T.Y.Y.Y.Y.Y.Y.Y.Y.Y.Y.Y.",
"Y.Y.Y.Y.Y.Y.Y.Y.Y.Y.Y.Y.Y.Y.Y.Y.Y.Y.J.J.J.J.J.Y.Y.Y.Y.Y.J.J.J.J.J.J.J.J.J.J.J.J.J.J.J.J.J.J.J.J.J.J.J.J.Y.Y.Y.Y.Y.Y.Y.Y.Y.Y.Y.Y.",
"Y.Y.Y.Y.Y.Y.Y.Y.Y.Y.Y.Y.Y.Y.Y.Y.Y.Y.Y.Y.Y.Y.Y.Y.Y.Y.Y.Y.J.J.J.J.J.J.J.J.J.J.J.J.J.J.J.J.J.Y.Y.Y.J.J.J.J.J.J.J.J.J.J.Y.Y.Y.Y.Y.Y.",
"Y.Y.Y.Y.Y.Y.Y.J.J.J.Y.Y.Y.Y.Y.Y.Y.Y.Y.Y.Y.Y.Y.Y.Y.Y.Y.Y.J.J.Y.Y.J.J.J.J.J.J.J.Y.Y.Y.J.J.Y.Y.Y.Y.Y.J.J.J.J.J.J.Y.Y.Y.Y.Y.Y.Y.Y.Y.",
"Y.Y.Y.Y.Y.Y.J.J.J.J.J.Y.Y.Y.Y.Y.Y.Y.Y.Y.Y.Y.Y.Y.Y.Y.Y.J.J.Y.Y.Y.Y.J.J.J.J.Y.Y.Y.Y.Y.Y.J.Y.Y.Y.Y.Y.J.J.J.Y.Y.Y.Y.Y.Y.Y.Y.Y.Y.Y.Y.",
"Y.Y.Y.Y.Y.Y.J.J.J.J.J.J.Y.Y.Y.J.J.J.Y.Y.Y.Y.Y.Y.Y.Y.Y.Y.Y.Y.Y.Y.Y.Y.Y.Y.Y.Y.Y.Y.Y.Y.Y.Y.Y.Y.Y.Y.Y.Y.Y.Y.Y.Y.Y.Y.T.T.Y.Y.Y.Y.Y.Y.",
"Y.Y.Y.Y.Y.Y.J.J.J.J.J.J.J.J.J.J.J.J.J.Y.Y.Y.Y.Y.Y.Y.Y.Y.Y.Y.Y.Y.Y.Y.Y.Y.Y.Y.Y.Y.Y.Y.Y.Y.Y.Y.Y.T.T.T.T.Y.Y.Y.Y.T.T.T.T.Y.Y.Y.Y.Y.",
"Y.Y.Y.J.J.J.J.J.J.J.J.J.J.J.J.J.J.J.J.J.Y.Y.Y.Y.Y.Y.Y.Y.Y.Y.Y.Y.Y.J.J.J.J.Y.Y.Y.Y.Y.Y.Y.Y.T.T.T.T.T.T.T.T.T.T.T.T.T.T.T.T.Y.Y.Y.",
"J.J.J.J.J.J.J.J.J.J.J.J.J.J.J.J.J.J.J.J.J.Y.Y.Y.Y.J.J.J.J.Y.Y.J.J.J.J.J.J.J.J.J.J.J.Y.Y.J.J.J.J.T.T.T.T.T.T.T.T.T.T.T.T.T.T.J.J."
};
