/* XPM */
static const char *goblin4_R[] = {
/* columns rows colors chars-per-pixel */
"64 64 208 2 ",
"   c #0F162A",
".  c #13162C",
"X  c #151B2E",
"o  c #191D2F",
"O  c #1B1E30",
"+  c #211E32",
"@  c #17212F",
"#  c #1B2331",
"$  c #192B31",
"%  c #1B2935",
"&  c #1B3133",
"*  c #1D3B35",
"=  c #222333",
"-  c #262637",
";  c #242A34",
":  c #2B2B37",
">  c #2C243A",
",  c #2C2D39",
"<  c #372937",
"1  c #31263D",
"2  c #332C3D",
"3  c #293538",
"4  c #35333D",
"5  c #3A343D",
"6  c #3B393E",
"7  c #462D3A",
"8  c #48353B",
"9  c #55323D",
"0  c #1E4237",
"q  c #1F4838",
"w  c #214638",
"e  c #2E4138",
"r  c #214B39",
"t  c #34483A",
"y  c #22553B",
"u  c #245B3D",
"i  c #28643F",
"p  c #372C40",
"a  c #3A2B42",
"s  c #253942",
"d  c #3D3741",
"f  c #432E46",
"g  c #472F47",
"h  c #493743",
"j  c #433D44",
"k  c #4B314B",
"l  c #573549",
"z  c #573652",
"x  c #5D3854",
"c  c #683942",
"v  c #703C44",
"b  c #743F4C",
"n  c #623A57",
"m  c #6C3D53",
"M  c #653B59",
"N  c #6A3D5B",
"B  c #703F5B",
"V  c #2D4B4D",
"C  c #32514B",
"Z  c #355B59",
"A  c #276C41",
"S  c #2B7A44",
"D  c #327248",
"F  c #3A625E",
"G  c #3B6661",
"H  c #3D6A63",
"J  c #3F7F63",
"K  c #494445",
"L  c #4A4446",
"P  c #4D4449",
"I  c #534B4A",
"U  c #564A4E",
"Y  c #425E40",
"T  c #59524C",
"R  c #4E555E",
"E  c #5E5151",
"W  c #654944",
"Q  c #69544B",
"!  c #74554B",
"~  c #74405A",
"^  c #774459",
"/  c #7B435A",
"(  c #625552",
")  c #695A56",
"_  c #6D5B59",
"`  c #486643",
"'  c #597D49",
"]  c #67635A",
"[  c #75625B",
"{  c #7C675F",
"}  c #4C6D67",
"|  c #447965",
" . c #417269",
".. c #7E6860",
"X. c #834348",
"o. c #8C4A4C",
"O. c #93494C",
"+. c #864655",
"@. c #844659",
"#. c #8D4858",
"$. c #9A4C55",
"%. c #944B58",
"&. c #885855",
"*. c #99535C",
"=. c #A24E54",
"-. c #A04E59",
";. c #AC5255",
":. c #A95555",
">. c #B55555",
",. c #B95656",
"<. c #B95C59",
"1. c #996B57",
"2. c #A96D57",
"3. c #BC645D",
"4. c #B67D57",
"5. c #935E64",
"6. c #826B62",
"7. c #8C7466",
"8. c #8D7C64",
"9. c #9E7466",
"0. c #927F65",
"q. c #94796A",
"w. c #BC6C61",
"e. c #AC7364",
"r. c #B67466",
"t. c #BC7C6A",
"y. c #C0685F",
"u. c #C16E63",
"i. c #C27768",
"p. c #2D8446",
"a. c #2E8A48",
"s. c #358848",
"d. c #34984B",
"f. c #398858",
"g. c #3C965B",
"h. c #3B9D5A",
"j. c #34A44E",
"k. c #36AA4F",
"l. c #37AC51",
"z. c #36B351",
"x. c #38B451",
"c. c #3E8860",
"v. c #5B824B",
"b. c #48934C",
"n. c #648E4E",
"m. c #6F9B52",
"M. c #4AAC52",
"N. c #52BD56",
"B. c #5EBA56",
"V. c #6AB056",
"C. c #679175",
"Z. c #79A863",
"A. c #5AC058",
"S. c #65C65A",
"D. c #6AC45A",
"F. c #78CA5D",
"G. c #9BB94E",
"H. c #80BC5B",
"J. c #BFBA5B",
"K. c #95846A",
"L. c #A38D6D",
"P. c #AE9273",
"I. c #C88C59",
"U. c #D38F5E",
"Y. c #D6965B",
"T. c #D9945F",
"R. c #DD9C5D",
"E. c #DFA05B",
"W. c #E3AA59",
"Q. c #E8B655",
"!. c #EABA53",
"~. c #C6836E",
"^. c #D99260",
"/. c #CA8670",
"(. c #D0BA68",
"). c #CBAD7E",
"_. c #8EC95F",
"`. c #85D761",
"'. c #8ED361",
"]. c #93D462",
"[. c #98D863",
"{. c #F1CC4E",
"}. c #F4D24B",
"|. c #F6D84A",
" X c #F9DE48",
".X c #EEC550",
"XX c #F5D353",
"oX c #FFED44",
"OX c #FBE54A",
"+X c #FFF143",
"@X c #FEEE53",
"#X c #FFF158",
"$X c #F2D87D",
"%X c #FCEE79",
"&X c #CCB386",
"*X c #D9BA88",
"=X c #DBC796",
"-X c #E2C894",
";X c #E7D29E",
":X c #FFF58A",
">X c #EAD9A3",
",X c #EFE1AB",
"<X c #F0E2A8",
"1X c #FBF3AA",
"2X c #FFF9BC",
"3X c #FAF2C4",
"4X c #FFFBD1",
"5X c #FFFEF9",
/* pixels */
"G.G.G.G.G.J.J.J.J.J.J.J.J.J.J.Z.Z.Z.Z.Z.Z.Z.Z.Z.Z.Z.Z.Z.Z.Z.Z.Z.Z.Z.Z.Z.Z.Z.Z.Z.Z.Z.Z.Z.Z.Z.Z.Z.Z.Z.Z.Z.Z.Z.Z.Z.Z.Z.Z.Z.Z.Z.Z.Z.",
"G.G.G.G.G.G.J.J.J.J.J.J.G.Z.Z.Z.G.G.G.Z.Z.Z.Z.Z.Z.Z.Z.Z.Z.Z.Z.Z.Z.Z.Z.Z.Z.Z.Z.Z.C.C.C.C.Z.Z.Z.Z.Z.Z.Z.Z.Z.Z.Z.Z.Z.Z.Z.Z.Z.G.G.G.",
"G.G.J.J.J.J.J.J.J.J.J.G.G.G.G.G.9.9.9.9.G.G.G.Z.Z.Z.Z.Z.Z.Z.Z.Z.Z.Z.Z.Z.Z.Z.Z.C.C.C.C.C.C.G.G.G.G.G.G.G.G.C.C.C.C.Z.Z.Z.G.G.G.G.",
"J.J.J.J.J.J.J.T.^.T.T.G.G.G.G.G.G.G.9.9.Z.Z.Z.Z.Z.Z.Z.Z.Z.Z.Z.Z.Z.Z.Z.C.C.C.Z.C.C.C.C.C.C.C.C.C.C.C.G.G.C.C.C.C.C.C.C.Z.G.G.G.G.",
"J.J.J.J.J.J.T.E.W.E.G.G.G.G.G.G.G.G.G.G.Z.Z.Z.Z.Z.Z.Z.Z.Z.Z.Z.Z.Z.Z.C.C.C.C.C.C.C.C.C.C.C.C.C.C.C.C.C.C.C.J.J.J.C.C.C.C.G.G.G.J.",
"G.G.G.G.G.J.^.!.+X.XG.G.G.G.G.G.G.G.G.G.G.G.Z.Z.Z.Z.Z.Z.Z.Z.Z.Z.Z.C.C.C.C.C.J.J.J.J.C.C.C.C.J.J.J.J.C.C.J.J.J.J.J.C.C.C.C.J.J.J.",
"G.G.G.G.G.G.J.E.}.!.^.G.J.J.G.G.G.G.G.G.G.G.G.G.G.G.Z.Z.Z.Z.Z.Z.Z.C.C.C.J.J.J.J.J.J.J.C.C.J.J.J.J.J.J.J.J.J.J.J.J.J.J.J.J.J.G.G.",
"G.G.G.G.G.G.G.G.J.T.J.J.J.J.T.T.T.T.G.G.G.G.G.G.G.G.Z.Z.Z.Z.Z.C.C.C.C.J.J.J.J.J.J.J.J.C.J.J.J.J.J.J.J.J.J.J.J.J.J.J.J.J.J.J.G.G.",
"J.J.G.G.G.G.G.G.G.J.J.J.T.T.T.T.T.T.T.T.G.G.G.G.G.G.G.J.J.J.J.J.J.C.J.J.J.J.J.J.J.J.J.J.J.J.J.J.J.J.J.J.J.J.J.J.J.J.J.J.J.J.G.J.",
"J.J.J.G.G.G.T.G.G.G.T.T.T.T.T.T.T.T.T.T.T.T.G.G.G.G.J.J.G.G.J.J.J.J.J.J.J.J.J.J.J.J.J.J.J.J.J.J.J.J.J.J.J.J.J.J.J.J.J.J.J.J.J.J.",
"J.J.J.G.G.G.T.T.T.T.T.T.R.E..X|.|.|.Q.T.T.T.T.G.G.G.J.G.G.G.G.J.J.J.J.J.J.J.J.G.G.G.J.J.J.J.J.G.G.J.J.J.J.G.G.J.J.J.J.J.J.J.J.J.",
"J.J.J.G.G.J.J.T.T.T.T.W. XoXoX+XoXoXoXQ.T.T.T.G.G.G.G.G.G.G.G.G.G.G.G.J.J.J.G.G.G.G.G.J.J.G.G.G.G.G.G.J.G.G.G.G.J.J.J.J.J.J.J.J.",
"J.J.J.J.J.J.J.T.T.T.T.R.W.W.}.OXoXoXoX|.R.T.T.G.G.G.G.G.G.G.G.G.G.G.G.G.J.J.G.G.G.G.G.J.G.G.G.G.G.G.G.G.G.G.G.G.J.J.J.J.J.J.J.J.",
"J.J.J.J.J.J.J.J.J.T.T.T.^.^.T.R.!.oXoXoX!.^.T.G.G.G.G.G.G.G.G.G.G.G.G.G.G.G.G.G.G.G.G.J.G.G.G.G.G.G.G.G.G.G.G.G.J.J.J.J.J.G.G.G.",
"G.G.G.G.G.G.G.G.G.G.G.T.T.T.R.{.W.!.oXoX!.^.T.G.G.G.G.G.G.o # . G.G.G.G.G.G.G.G.G.G.G.G.G.G.G.G.G.G.G.G.G.G.G.G.G.G.G.G.G.G.G.G.",
"G.G.G.G.G.G.G.G.G.G.Z.Z.T.T.R.oX.XT.{.+X!.^.T.Z.G.G.G.G.G.: &.8 o X G.G.G.G.G.G.G.G.G.G.G.G.G.G.G.G.G.G.G.G.G.G.G.G.G.G.G.G.G.G.",
"G.G.G.G.G.G.G.G.Z.Z.Z.Z.Z.T.T..XoX}.OXoX!.^.Z.Z.Z.G.G.G.J.- t.3.c O X G.G.G.G.G.G.G.G.G.Z.Z.Z.G.G.G.G.G.G.G.G.G.G.G.G.G.G.G.G.G.",
"G.G.G.G.G.G.G.Z.Z.Z.Z.Z.Z.2.^.Q.oXoXoXoX!.^.Z.Z.Z.J.J.J.X h w.<.i.W o X X J.Z.Z.Z.G.G.Z.Z.Z.Z.Z.G.G.G.G.G.G.G.G.G.G.G.G.G.G.G.G.",
"G.G.G.G.G.Z.Z.Z.Z.Z.Z.G.G.W ^.Q.@X:XoXoX!.4.W Z.Z.Z.Z.X o 1.u.w.~.r.g O X X Z.Z.Z.Z.Z.Z.G.G.Z.; Z.G.G.G.G.G.G.Z.Z.Z.G.G.G.G.G.G.",
"G.G.G.Z.Z.Z.Z.Z.Z.Z.G.G.G.W R. X@X3X#X|.Y.8 . X Z.Z.Z.O ! r.<.i./.5.M x = X X G.Z.Z.Z.G.G.G.; n.Y Z.G.G.G.G.Z.Z.Z.Z.Z.G.G.G.Z.Z.",
"Z.G.G.G.G.G.G.G.G.G.G.G.= 1.E.OX:X5X:X}.I.< t ; . G.X , t.3.<.i.r.^ N k O o O X X G.G.G.G.X . ` Y . G.G.G.Z.Z.Z.Z.Z.Z.Z.Z.Z.Z.Z.",
"Z.Z.Z.Z.G.G.G.G.G.G.G.. 8 U..X@X4X4X XW.! X ' ` 0 @ X 2 P.3.w.t.^ M z > 9 O.n f = X X X X X t V.w . G.G.G.Z.Z.Z.Z.Z.Z.Z.Z.Z.Z.Z.",
"G.G.G.G.G.G.G.G.G.G.G.8 I..XOX2X5X:X!.4.5 . v.'.D.D @ = &.<.w.*.N k < v $./ N N n > X X X t H.b.X Z.G.G.Z.Z.Z.Z.G.G.G.Z.Z.Z.Z.Z.",
"G.G.G.G.G.G.G.G.C.C.. Q {.@X%X2X1XXXY.8 . X ` ].[.F.d.q 7 >.$.N @.$.=.;./ N N n z a . X . ` `.p.X Z.Z.Z.Z.Z.Z.G.G.G.G.G.G.G.G.G.",
"G.G.G.G.G.G.G.C.C.C.. Q $X<X3X1X%X(.! = J.J.o ' ].[.D.j.V W =.%.>.>.%./ N M g - o < g a + e b.i Z.Z.Z.Z.Z.Z.Z.G.G.G.G.G.G.G.G.G.",
"G.G.G.G.G.C.C.C.J.J.. ) &X*X>X,X,X&XL . J.J.X o n.[.D.l.| Z l >.>.@.M M N l < c O.+.N N z + $ X G.G.Z.Z.Z.Z.G.G.G.G.G.G.G.G.G.G.",
"G.G.C.C.C.C.J.J.J.J.. j I =X,X,X;X*X(   J.J.J.X t _.D.z.g.H s X.;.#.#.#.#.=.>.=.#.N N N N z + X G.G.G.Z.Z.Z.Z.Z.Z.Z.Z.Z.Z.G.G.G.",
"J.C.C.J.J.J.J.J.J.J.X = 8.>X-XK.K.-X]   J.J.J.X X m.D.z.g. .H &.,.>.,.,.>.;.@.~ M N N N N N 1 . G.G.G.Z.Z.Z.Z.Z.Z.Z.Z.Z.Z.Z.Z.Z.",
"J.J.J.J.J.J.J.J.J.J.. ( *X*XK.= T =X]   J.J.X X X t D.z.g. .F &.,.>.;.%.#.N N N N N N N N N 1 X G.G.G.Z.Z.Z.Z.Z.J.J.J.J.J.J.J.J.",
"G.G.G.G.G.G.J.J.Z.Z.X , 0.T = 6 L.T , X Z.Z.X - O 3 B.l.J  .V < $.@.~ N N N N x a > > > > > O X X G.Z.Z.J.J.J.J.J.J.J.J.J.J.J.J.",
"G.G.G.G.G.G.G.G.G.G.X X # . X # = . X Z.Z.X 5 e.&.+ i h. .H # 7 ;.%./ N n k f O X X 0 y y y y 0 X X G.G.G.G.G.G.G.G.G.G.G.G.G.G.",
"G.G.G.G.G.G.G.G.G.G.G.X X o d P j # Z.Z.Z.. ! /.w.7 A | } V 7 =.,.>.@.g - X # # * S j.x.z.N.F.M.w X G.G.G.G.G.G.G.G.G.G.G.G.G.G.",
"J.J.J.G.G.G.G.G.G.G.G.G.X 4 ) { _ = G.G.Z.. ! /.~.t.r.2.:.:.;.,.>.@.f o X % F f.k.x.x.x.z.N.'.'.B.w X G.G.G.G.G.G.G.G.G.G.G.G.J.",
"J.J.J.J.G.G.G.G.G.G.G.G.. 4 _ q.7.= Z.Z.Z.. ! u.3.3.3.3.>.>.>.>.>.l # # % F  .g.x.x.x.x.x.x.N.'.].B.* X G.G.G.G.G.G.G.G.G.G.J.J.",
"J.J.J.J.J.J.J.G.G.G.G.Z.Z.5 _ q.7.= Z.Z.Z.. ! y.>.>.>.>.>.>.>.,.X.# V C H  . .c.x.x.l.p.p.p.j.A.'.[.v.o X G.G.G.G.G.J.J.J.J.J.J.",
"G.G.G.J.J.J.J.J.G.G.G.G.G.4 ) 6.7.- G.G.G.X 5 e.3.>.>.>.>.>.>.,.X.X X # s Z  . .c.D r X X X w S N.S.B.i X @ G.G.G.G.G.G.J.J.J.J.",
"G.G.G.G.J.J.J.J.J.G.G.G.G.O I [ 6.= X G.G.X X 5 o.;.,.>.>.>.>.,.X.X X s F H  . .F # % 3 # X G.@ A a.j.d.r A G.G.G.G.G.G.G.G.J.G.",
"G.G.G.G.G.G.G.G.G.G.G.G.G.X , d 5 # @ G.G.G.o a 1 9 b ;.>.>.>.>.^ - X # G  . . .H V G  .V O J.J.X X r j.k.u G.G.G.G.G.G.G.G.G.G.",
"G.G.G.G.G.G.G.G.G.G.G.G.X ; e X . 0 d.r G.G.o x ~ m m @.@.#.=.@.~ x - s F  . . . . . . .H # J.J.J.X X & & X J.Z.Z.Z.G.G.G.G.G.G.",
"G.G.G.G.G.G.G.G.G.G.G.G.. ` _.v.3 & d.a.G.G.o +.>.>.>.>.>.>.>.>.;./ x - # Z  . . . . . .V X Z.Z.Z.Z.Z.X Z.Z.Z.Z.Z.Z.Z.Z.Z.Z.Z.G.",
"Z.Z.Z.Z.Z.Z.Z.Z.G.G.G.G.$ M.].[.V.# S S G.G.o X.c < v ,.>.>.>.>.,.;.B x > - Z H  . . .V X X Z.Z.Z.Z.Z.Z.Z.Z.Z.Z.Z.Z.Z.Z.Z.Z.Z.Z.",
"Z.Z.Z.Z.G.G.G.G.G.G.G.G.& k.A.].].` w $ X X X o o = X.,.>.>.>.>.;.#.N N N k 1 s H  .F - a O X Z.Z.Z.Z.Z.Z.Z.Z.Z.Z.Z.Z.Z.Z.Z.Z.Z.",
"G.G.G.G.G.G.G.G.G.G.G.G.& k.x.N.N.s.X X X X X X 7 O.,.,.,.,.,.>./ N N N N N M z R F R n N f o X G.G.Z.Z.Z.Z.Z.Z.Z.Z.Z.Z.Z.Z.G.G.",
"G.G.G.G.G.G.G.G.G.G.G.G.# p.x.z.x.p.X X X X X X O c v v v v v c g z N N N N N N n > a g k M f o X X G.Z.G.G.G.Z.Z.G.G.G.G.G.G.G.",
"G.G.G.G.G.G.G.G.G.G.G.G.. r j.d.d.0 X C.. 6 7.{ L.j ; , , ; , , , 2 p p > - - - > - ; ; # d p # X # X G.G.G.G.G.G.G.G.G.G.G.G.G.",
"G.G.G.G.G.G.G.G.G.G.G.G.G.@ # # @ X X J.. 4 [ _ 8.7.P.).P.q.).).).7.( ( P d 5 L # P q.7.j ) [ j $ p.& X G.G.G.G.G.G.G.J.J.J.J.J.",
"G.G.G.G.G.C.C.C.C.C.G.G.C.C.X o = 4 X J.X X O O X 4 L I L d I I I 6 , 4 ..[ ) 7., L ..6.4 = 4 - # j.y . G.G.J.J.J.J.J.J.J.J.J.J.",
"G.G.G.G.C.C.C.C.C.C.C.C.C.C.X 2 _ T X J.X a n n k > > > > 1 > > > 1 1 1 = # # = X O j 5 X X X X w l.y . J.J.J.J.J.J.J.J.J.J.J.G.",
"C.C.G.C.C.C.J.J.C.C.C.C.C.J.X 2 6.) X J.O +.-.$.$./ N ~ N N N N N N N N k k a X U ) : X I L X * d.a.& X J.J.J.J.J.J.J.J.J.G.G.G.",
"C.C.C.C.C.J.J.J.J.C.C.C.J.J.X o = = J.J.O O.X.O.,.>.>.>.%.N N N N N N N N N - = ( ..4 X ) _ j # $ # X G.G.G.G.G.G.G.G.G.G.G.G.C.",
"C.J.J.C.C.J.J.J.J.J.J.J.J.J.J.J.J.J.J.J.o < X = 9 9 9 9 l M M M M M M k 1 1 , [ { P # X : I 7.P X J.G.G.G.G.G.G.G.G.G.G.G.G.G.C.",
"J.J.J.J.J.J.J.J.J.J.J.J.J.J.J.J.J.J.J.J.J.. Z.X . . . . O = = = = = = O X . , [ 4 O X X X # E I J.J.J.G.G.G.G.G.G.G.G.J.J.C.C.C.",
"J.J.J.J.J.G.G.G.J.J.J.J.J.G.G.G.G.J.J.J.Z.Z.Z.Z.X X X G.X X X X X X X X Z.X X X X Z.X X X X X X G.G.G.G.G.G.G.G.G.J.J.J.J.J.J.J.",
"J.J.J.J.G.G.G.G.G.J.J.J.G.G.G.Z.Z.Z.Z.Z.Z.Z.Z.Z.X X X G.G.G.G.G.G.Z.Z.Z.Z.Z.Z.Z.Z.Z.G.X X X G.G.G.G.G.G.G.G.G.J.J.J.J.J.J.J.J.J.",
"J.J.G.G.G.G.G.G.G.J.J.J.G.G.Z.Z.Z.Z.Z.Z.Z.Z.X X X X X G.G.G.G.G.Z.Z.Z.Z.Z.Z.Z.Z.Z.Z.Z.X X X G.G.G.G.G.G.G.G.J.J.J.G.G.G.J.J.J.J.",
"G.G.G.G.G.G.G.G.G.G.G.J.G.G.Z.Z.Z.Z.Z.Z.Z.Z.X X X X Z.Z.Z.G.G.Z.Z.Z.Z.Z.Z.G.G.Z.Z.Z.Z.X X X G.G.G.G.G.G.J.J.J.J.G.G.G.G.G.J.J.J.",
"G.G.G.G.G.G.G.G.G.G.G.G.Z.Z.Z.Z.Z.Z.Z.Z.Z.Z.Z.Z.Z.Z.Z.Z.Z.Z.Z.Z.Z.Z.Z.Z.G.G.G.G.G.Z.Z.Z.Z.Z.G.G.G.G.G.G.G.G.G.G.G.G.G.G.G.G.G.G.",
"G.G.G.G.G.G.Z.Z.Z.Z.Z.Z.Z.Z.Z.Z.G.G.G.Z.Z.Z.Z.Z.Z.Z.Z.Z.Z.Z.Z.Z.Z.Z.Z.Z.G.G.G.G.G.G.G.G.G.G.G.G.G.G.G.G.G.G.G.G.G.G.G.G.G.G.G.G.",
"G.G.G.G.G.G.G.G.G.Z.Z.Z.Z.Z.Z.G.G.G.G.G.Z.Z.G.G.G.Z.Z.Z.Z.Z.Z.Z.G.G.Z.Z.G.G.G.G.G.G.G.G.G.G.G.G.G.G.G.G.G.G.Z.Z.Z.G.G.G.G.G.G.G.",
"G.G.G.G.G.G.G.G.G.G.G.G.Z.Z.Z.G.G.G.G.G.Z.G.G.G.G.G.G.Z.Z.Z.Z.G.G.G.G.Z.Z.G.G.G.G.G.G.G.G.G.G.G.G.G.G.G.G.Z.Z.Z.Z.Z.G.G.G.G.G.G.",
"G.G.G.G.G.G.J.J.G.G.G.G.G.G.G.G.G.G.G.G.G.G.G.G.G.G.G.G.G.G.G.G.G.G.G.G.G.G.G.G.G.G.G.G.G.G.Z.Z.Z.G.G.G.Z.Z.Z.Z.Z.Z.G.G.G.G.G.G.",
"G.G.G.G.G.J.J.J.J.G.G.G.G.J.J.J.J.G.G.G.G.G.G.G.G.G.G.G.G.G.G.G.G.G.G.G.G.G.G.G.G.G.G.G.G.Z.Z.Z.Z.Z.Z.Z.Z.Z.Z.Z.Z.Z.G.G.G.G.G.G.",
"G.G.G.J.J.J.J.J.J.J.J.J.J.J.J.J.J.J.J.G.G.G.G.G.G.G.G.Z.Z.Z.Z.G.G.G.G.G.G.G.G.G.G.G.G.G.Z.Z.Z.Z.Z.Z.Z.Z.Z.Z.Z.Z.Z.Z.Z.Z.Z.G.G.G.",
"Z.Z.J.J.J.J.J.J.J.J.J.J.J.J.J.J.Z.Z.Z.Z.G.G.Z.Z.Z.Z.Z.Z.Z.Z.Z.Z.Z.G.G.Z.Z.Z.Z.G.G.G.G.Z.Z.Z.Z.Z.Z.Z.Z.Z.Z.Z.Z.Z.Z.Z.Z.Z.Z.Z.Z.Z."
};
