/* XPM */
static const char *goblin6_L[] = {
/* columns rows colors chars-per-pixel */
"64 64 212 2 ",
"   c #0F1A2C",
".  c #14172D",
"X  c #151B2E",
"o  c #191D2F",
"O  c #1B1E31",
"+  c #201F34",
"@  c #17222F",
"#  c #18202F",
"$  c #172431",
"%  c #1C2231",
"&  c #1A2A33",
"*  c #1A2A38",
"=  c #1B3333",
"-  c #1D3B35",
";  c #232334",
":  c #292333",
">  c #232B34",
",  c #2C2B36",
"<  c #262438",
"1  c #2D253A",
"2  c #2C2C38",
"3  c #362838",
"4  c #342A3D",
"5  c #29373A",
"6  c #34333D",
"7  c #3A353D",
"8  c #3D3B3F",
"9  c #4B2F3C",
"0  c #41353E",
"q  c #53313D",
"w  c #1F4538",
"e  c #204538",
"r  c #224E3A",
"t  c #34483A",
"y  c #23543B",
"u  c #26593C",
"i  c #3B583E",
"p  c #27633F",
"a  c #57443E",
"s  c #362840",
"d  c #3C2B43",
"f  c #253A42",
"g  c #2F3C47",
"h  c #3B3B42",
"j  c #442E47",
"k  c #472F48",
"l  c #443D44",
"z  c #4C344A",
"x  c #56354A",
"c  c #563551",
"v  c #5A3753",
"b  c #5D3955",
"n  c #653944",
"m  c #743E46",
"M  c #623A57",
"N  c #6A3C55",
"B  c #653B59",
"V  c #6A3D5C",
"C  c #703F59",
"Z  c #2A4449",
"A  c #2C4A4D",
"S  c #344A4E",
"D  c #344C51",
"F  c #315253",
"G  c #365C5A",
"H  c #2A7342",
"J  c #2B7C44",
"K  c #336654",
"L  c #3C6862",
"P  c #3E7269",
"I  c #444143",
"U  c #4D4449",
"Y  c #584649",
"T  c #54494C",
"R  c #445F41",
"E  c #5A524C",
"W  c #565057",
"Q  c #5F5152",
"!  c #684A45",
"~  c #6F4F4B",
"^  c #784258",
"/  c #7B435A",
"(  c #635453",
")  c #6A5B56",
"_  c #6A5C55",
"`  c #715E5A",
"'  c #476442",
"]  c #527346",
"[  c #676B57",
"{  c #78665C",
"}  c #7A655E",
"|  c #4B6D65",
" . c #417667",
".. c #417268",
"X. c #786D62",
"o. c #844549",
"O. c #8E474B",
"+. c #93494C",
"@. c #9C4C4F",
"#. c #8D4857",
"$. c #844659",
"%. c #894759",
"&. c #9C4D56",
"*. c #934A58",
"=. c #9A4C58",
"-. c #8D5854",
";. c #A14E56",
":. c #A04E58",
">. c #A65055",
",. c #AC5255",
"<. c #A85358",
"1. c #B55555",
"2. c #B85655",
"3. c #B95957",
"4. c #B95C59",
"5. c #8E6454",
"6. c #B7655E",
"7. c #BB655D",
"8. c #A67453",
"9. c #B27659",
"0. c #A35F60",
"q. c #836C62",
"w. c #9D6C60",
"e. c #8C7366",
"r. c #8B7962",
"t. c #9E7466",
"y. c #957D69",
"u. c #A56E61",
"i. c #B96B62",
"p. c #A57062",
"a. c #B87366",
"s. c #C16E62",
"d. c #C07466",
"f. c #C37B6A",
"g. c #2D8346",
"h. c #2E8948",
"j. c #358A48",
"k. c #32984B",
"l. c #3B925A",
"z. c #37A64E",
"x. c #36A94F",
"c. c #39A754",
"v. c #37AE51",
"b. c #39B451",
"n. c #38B551",
"m. c #3E8362",
"M. c #4A994E",
"N. c #648E4E",
"B. c #6D9B52",
"V. c #42A64F",
"C. c #52BC56",
"Z. c #75A855",
"A. c #64BA57",
"S. c #679175",
"D. c #79A863",
"F. c #5AC057",
"G. c #75C95C",
"H. c #76C85C",
"J. c #9BB94E",
"K. c #82B95A",
"L. c #BFBA5B",
"P. c #968368",
"I. c #A28C6E",
"U. c #AA906D",
"Y. c #AE9571",
"T. c #BAA27A",
"R. c #CA8A5B",
"E. c #D9945F",
"W. c #DA985D",
"Q. c #DFA25B",
"!. c #E2A75A",
"~. c #E2A959",
"^. c #E6B256",
"/. c #E8B356",
"(. c #EBBA54",
"). c #C4826D",
"_. c #C9846F",
"`. c #DA9360",
"'. c #C6AA7D",
"]. c #88CE5F",
"[. c #8CD361",
"{. c #93D462",
"}. c #9AD963",
"|. c #F1CD4E",
" X c #F5D64A",
".X c #EDC251",
"XX c #F5D85F",
"oX c #FBE546",
"OX c #FFED43",
"+X c #FAE148",
"@X c #FFF048",
"#X c #FFEE56",
"$X c #FFF05D",
"%X c #E6C274",
"&X c #FFF165",
"*X c #FFF272",
"=X c #CEB081",
"-X c #D6BB8A",
";X c #DCCC9B",
":X c #E3CB96",
">X c #EAD399",
",X c #FFF58E",
"<X c #F9ED97",
"1X c #ECDAA5",
"2X c #EFE0A6",
"3X c #F1E3AD",
"4X c #FFF7A8",
"5X c #FFF9BD",
"6X c #FFFAC3",
"7X c #FFFCDA",
"8X c #FFFCE3",
"9X c #FFFEF1",
/* pixels */
"D.D.D.D.D.D.D.D.D.D.D.D.D.D.D.D.D.D.D.D.D.D.D.D.D.D.D.D.D.D.D.D.D.D.D.D.D.D.D.D.D.D.D.D.D.D.D.D.D.L.L.L.L.L.t.t.t.L.L.J.J.J.J.J.",
"J.J.J.D.D.D.D.D.D.D.D.D.D.D.D.D.D.D.D.D.S.S.S.S.D.D.D.D.D.D.D.D.D.D.D.D.D.D.D.D.D.D.D.D.D.J.J.J.D.D.D.J.L.L.L.t.t.t.J.J.J.J.J.J.",
"J.J.J.J.D.D.D.S.S.S.S.J.J.J.J.J.J.J.J.S.S.S.S.S.S.D.D.D.D.D.D.D.D.D.D.D.D.D.D.D.D.J.J.J.J.J.J.J.J.J.J.J.J.L.L.L.t.t.L.L.L.L.J.J.",
"J.J.J.J.D.S.S.S.S.S.S.S.J.J.S.S.S.S.S.S.S.S.S.S.S.D.S.S.S.D.D.D.D.D.D.D.D.D.D.D.D.D.D.D.D.D.J.J.J.J.J.J.J.L.L.L.L.t.L.L.L.L.L.L.",
"L.J.J.J.S.S.S.S.L.L.L.S.S.S.S.S.S.S.S.S.S.S.S.S.S.S.S.S.S.S.D.D.D.D.D.D.D.D.D.D.D.D.D.D.J.E.E.E.J.J.J.J.J.J.L.t.t.t.L.L.L.L.L.L.",
"L.L.L.S.S.S.S.L.L.L.L.L.S.S.L.L.L.L.S.S.S.S.L.L.L.L.S.S.S.S.S.D.D.D.D.D.D.D.D.D.D.D.J.E.E.E.E.E.E.E.E.J.J.J.L.t.t.L.L.J.J.J.J.J.",
"J.J.L.L.L.L.L.L.L.L.L.L.L.L.L.L.L.L.L.S.S.L.L.L.L.L.L.L.S.S.S.D.D.D.D.D.D.D.J.J.J.J.E.E.~. X~.E.E.E.E.E.J.L.L.L.t.L.J.J.J.J.J.J.",
"J.J.L.L.L.L.L.L.L.L.L.L.L.L.L.L.L.L.L.L.S.L.L.L.L.L.L.L.L.S.S.S.S.D.D.D.D.D.J.J.J.J.E.~.+XOX^.`.J.L.L.L.L.L.L.L.J.J.J.J.J.J.J.J.",
"L.J.L.L.L.L.L.L.L.L.L.L.L.L.L.L.L.L.L.L.L.L.L.L.L.L.L.L.L.L.S.L.L.L.L.L.L.J.J.J.J.J.`./.OXOX X!.L.J.J.J.L.L.L.J.J.J.J.J.J.J.L.L.",
"L.L.L.L.L.L.L.L.L.L.L.L.L.L.L.L.L.L.L.L.L.L.L.L.L.L.L.L.L.L.L.L.L.L.J.J.L.L.J.J.J.J.E.E./..X+X|.`.E.E.J.J.J.J.J.J.J.J.J.J.L.L.L.",
"L.L.L.L.L.L.L.L.L.J.J.L.L.L.L.J.J.L.L.L.L.L.J.J.J.L.L.L.L.L.L.L.L.J.J.J.J.L.J.J.J.J.E.E.E.`.Q.~.Q.E.`.E.J.J.J.J.L.L.J.J.J.L.L.L.",
"L.L.L.L.L.L.L.L.J.J.J.J.L.J.J.J.J.J.J.L.L.J.J.J.J.J.L.L.L.J.J.J.J.J.J.J.J.J.J.J.J.J.E.E.J.E.`.^.oX.XQ.`.E.J.L.L.L.L.L.J.J.L.L.L.",
"L.L.L.L.L.L.L.L.J.J.J.J.J.J.J.J.J.J.J.J.L.J.J.J.J.J.L.L.J.J.J.J.X X X J.J.J.J.J.J.J.E.E.J.E.`.^.OXOX XQ.E.E.L.L.L.L.L.L.L.L.L.L.",
"J.J.J.L.L.L.L.L.J.J.J.J.J.J.J.J.J.J.J.J.L.J.J.J.J.J.J.J.J.J.J.. , , X J.J.J.J.J.J.J.E.E.J.E.E.E.|.OXOX|.E.R.J.L.L.L.L.L.L.L.L.L.",
"J.J.J.J.J.J.J.J.J.J.J.J.J.J.J.J.J.J.J.J.J.J.J.J.J.J.J.J.J.X o n u.Y . J.J.J.J.J.J.J.J.J.7 R.E.E.|.@XOXoX^.8.J.J.J.J.J.J.J.J.J.J.",
"J.J.J.J.J.J.J.J.J.J.J.J.J.J.J.J.J.J.J.J.J.J.J.J.J.J.J.J.X o ! 4._.Y . J.J.J.J.J.D.D.D.D.a E.`.^.#X5X$XOX(.8.o J.J.J.J.J.J.J.J.J.",
"J.J.J.J.J.J.J.J.J.J.J.J.J.J.J.J.J.D.D.D.J.J.J.J.J.J.X X o n 7.f.f.w.% L.J.J.J.D.D.D.D.X 8.`.W. X$X9X,XOX(.8.o D.J.J.J.J.J.J.J.J.",
"J.J.J.J.J.J.J.J.J.J.J.J.J.J.J.J.D.D.D.D.D.J.J.D.D.X X < x i.7.a.d.).l X L.L.L.D.D.D.D., 9.`.|.OX4X8X,X XW.8.o D.D.J.J.J.J.J.J.J.",
"J.J.J.J.J.J.D.D.D.J.J.J.J.X % % . D.J.J.D.D.D.X . . X z V 0.d.7.f.f.a.0 . D.D.D.D.D.D.~ `.~.+X&X7X*X&X|.E.! X D.D.D.D.J.J.J.J.J.",
"D.D.J.J.J.D.D.D.D.D.J.J.J.X N.B.t o J.J.J.D.X O 3 9 : < B ^ a.7.d.f._.! . D.D.D.D.J.J.a R.(.OX4X9X#XOX!.9.: D.D.D.D.D.D.D.J.J.J.",
"D.D.D.D.D.D.D.D.D.D.D.J.J.X R ].{.' X X X X 4 z #.1.^ 3 d c ^ <.7.f.).Y . . = H p % X X 8.(.#X9X9X#XoX!.! . J.J.J.J.J.J.J.J.J.D.",
"D.D.D.D.D.D.D.D.D.D.D.J.J.J.X u A.M.> X X < B V $.,.$.#.n 9 C *.2.s.-.; - e Z.[.].K.R X 5.W.XX7X8X*X(.`.! . J.J.J.J.J.J.D.D.D.D.",
"D.D.D.D.D.J.J.J.D.D.D.D.J.J.D.X g.V.5 X o ; d j B #.1.*.#.2.,.^ =.1.q r x.C.{.{.{.Z.' X , R.%X<X6X6X(.`.! . J.J.J.J.J.J.J.J.J.J.",
"J.J.J.J.J.J.J.J.J.D.D.D.D.D.D.D.p - + N @.m 3 3 ; z ^ =.1.2.2.,.;.Y G l.b.G.{.] 5 > . X % y.1X2X3X1X>XU.; S.S.S.J.J.J.J.J.J.J.J.",
"J.J.J.J.J.J.J.J.J.D.D.D.D.D.D.D.X ; c $.2.$.#.&.n n V C *.,.2.1.q F  .c.C.{.Z.o X L.L.L.2 '.>X3X2X:XI.r.X S.S.S.S.J.J.J.J.J.J.J.",
"J.J.J.J.J.J.J.J.J.J.D.D.D.D.J.J.O c V V *.&.%.%.,.1.>.>.;.1.2.>.g L m.b.C.{.i X L.L.L.L.2 =X-X;X1X3XX., X L.L.L.S.S.S.J.J.J.J.J.",
"J.J.J.D.D.D.D.D.D.D.D.D.D.J.J.X O M V V V ^ >.,.#.,.2.2.2.2.2.,.| ..m.b.C.Z.> X L.L.L.L.6 ;XP.I T.:X-X( X L.L.L.L.L.S.S.S.S.J.J.",
"D.D.D.D.D.D.D.D.D.D.D.D.D.J.J.X O c b b b b N ^ *.,.2.2.2.2.2.@.S ..m.v.F.] . . X L.L.L.2 T.I.6 8 Y.=XP.X L.L.L.L.L.L.L.L.S.S.L.",
"L.L.L.L.L.L.L.L.D.D.D.D.D.J.X X X O O O O O O d v ^ *.*.*.=.2.9 * L ..l.V.t ; Y ; X L.L.X % _ E . % E 2 X D.L.L.L.L.L.L.L.L.L.L.",
"L.L.L.L.L.L.L.L.L.L.L.L.D.X $ r j.j.g.g.g.- @ . + 1 j M ^ ;.2.O.: A P m.g.X o._.-.o D.D.D.X % % % X X X X D.D.D.L.L.J.J.J.J.J.J.",
"J.J.J.J.J.J.J.J.J.J.J.J.X = M.G.{.G.b.b.b.x.J r f $ X ; c *.2.2.O.x ` [ [ Y 6._.p.# D.D.D.X U ( Q 4 X X J.J.J.J.J.J.J.J.J.J.J.J.",
"J.J.J.J.J.J.J.J.J.J.J.J.$ M.[.}.[.C.b.b.b.b.b.c...F % X O v 1.2.2.4.3.7.f._._._.p.% D.D.D.X ( e.{ U X J.J.J.J.J.J.J.J.J.J.J.J.J.",
"L.J.J.J.J.J.J.J.J.J.J.X i [.{.G.C.b.b.b.b.b.b.c.....F f f 2 O.2.4.a.f.)._.f.d.f.p.O D.D.J.X ` y.{ U X J.J.J.J.J.J.J.J.J.J.L.L.L.",
"L.L.J.J.J.J.J.J.J.J.X % Z.G.C.x.k.u y y g.v.v.m.....L A f $ q 2.4.a.f.).).i.4.f.w.O D.D.D.X ` y.{ U J.J.J.J.J.J.J.J.J.J.L.L.L.L.",
"L.L.L.L.L.L.J.J.J.J.. i G.z.J = & X X . @ 5 L ....L Z 5 X . q 2.2.4.3.4.7.d.f.u.7 X D.D.D.X ` e.) h D.D.D.J.J.J.J.L.L.L.L.L.L.L.",
"L.L.L.L.J.J.J.J.J.J.& h.b.H X J.J.X % A A % A ........Z X . q 2.2.2.2.2.6.6.~ 3 X X J.J.J.X E ` Q % J.J.J.J.J.J.L.L.L.L.L.J.J.J.",
"J.L.J.J.J.J.J.J.J.J.= v.h.= J.J.J.X A ....L L ........f X 1 M *.,.,.;.&.N 3 s v < X J.J.- = % ; % X X J.J.J.J.L.L.L.L.L.J.J.J.J.",
"J.J.J.J.J.J.J.J.J.J.= x.e . L.L.L.X F ..............G f 1 b ^ *.;.;.*.*.*.*.*.^ < . J.r z.H X # ' ' X J.J.J.J.J.J.J.J.J.J.J.J.J.",
"J.J.J.J.J.J.D.D.D.L.X u - X L.L.L.X * G ..........G $ < b ^ ,.2.2.2.2.2.,.+.@.1.3 . J.p x.= t Z.{.Z.& X J.J.J.J.J.J.J.J.J.J.J.J.",
"J.D.D.D.D.D.D.D.D.D.D.D.X D.D.D.D.X X * G ....L Z < d b V &.2.2.2.2.2.2.O.o : n ; X J.- h.$ B.}.{.F.y . J.J.J.J.J.J.J.J.J.J.J.J.",
"D.D.D.D.D.D.D.D.D.D.D.D.D.D.D.D.X O k k D ....g d v V V V ^ %.1.2.2.2.2.,.n :   X X X X & i G.].F.b.y . J.J.J.J.D.D.D.D.D.D.D.D.",
"D.D.D.D.D.D.D.D.D.D.D.D.D.D.D.D.. 1 V V V W S b V V V V V V V %.2.2.2.2.2.2.@.n ; X X X . u b.b.b.b.y . J.J.J.J.J.J.J.J.D.D.D.D.",
"J.J.D.D.D.D.D.D.D.D.D.D.D.D.X = @ 1 b V M c k v V V V V V V V V ^ @.@.@.@.@.9 3 o . X X X r v.b.b.k.& J.J.J.J.J.J.J.J.J.J.J.J.J.",
"J.J.J.J.J.J.J.D.D.J.J.J.D.X y x.r X O j 1 O O ; j j j j j k k j O O O O O o , _ T E 2 X X X u H H y X J.J.J.J.J.J.J.J.J.J.J.J.J.",
"J.J.J.J.J.J.J.J.J.J.J.J.X w x.b.h.5 T ) 7 ( { Q X ; ; ; > l T E P.I.{ y.U.r.q.T.y.I.h . X O o X X X J.J.J.J.J.J.J.J.J.J.J.J.J.J.",
"L.L.L.L.L.J.J.J.J.J.J.J.. u b.b.x.5 U U ; q.e.{ % { { ) e.Q l U r.r.) { r.{ T ; % % o X X 6 l 2 X X J.J.J.J.J.J.J.J.J.J.J.J.J.J.",
"L.L.L.L.L.L.L.L.L.L.J.J.. y b.b.z.& X X X l Q 7 X 6 7 4 h > O O O O O O O O O s z z < . . l e.U X X S.S.J.J.S.S.S.S.S.J.J.J.J.J.",
"J.L.L.L.L.L.L.L.L.L.L.L.X @ p J K % X ; l % % 7 l % + 4 4 c M M M M M M M M N $.$.$.^ 3 . 7 ) h X S.S.S.S.S.S.S.S.S.S.S.J.J.J.J.",
"J.J.J.L.L.L.L.L.L.L.L.L.L.X X X X X % T q.2 o { { 2 ; b V V V V V V V %.:.&.>.2.2.,.@.3 X X X X X L.L.S.S.S.S.S.L.L.S.S.S.J.S.S.",
"S.J.J.J.J.J.J.J.J.J.J.J.J.J.J.J.X ; ) ` U ; X U ` ( o d z c V V V V V ^ o.o.o.o.m : ; X L.L.S.L.L.L.L.L.S.S.S.L.L.L.L.S.S.S.S.S.",
"S.J.J.J.J.J.J.J.J.J.J.J.J.J.L.L.% ( ) 7 X X X 2 q.U X X X O 4 s s 4 s ; X X X X X X L.L.L.L.L.L.L.L.L.L.L.L.L.L.L.L.L.S.S.L.L.S.",
"S.S.S.L.L.J.J.J.J.J.J.J.J.L.L.L.L.2 O . X X X O < o X L.L.X X X X X X X X X X X D.D.D.L.L.L.L.L.L.L.L.L.L.L.L.L.L.L.L.L.L.L.L.L.",
"L.L.L.L.L.L.L.J.J.J.J.J.J.J.J.J.L.L.X X X L.D.X X X D.D.J.J.J.J.J.J.J.L.J.X X X D.D.D.D.L.L.L.J.J.J.J.L.L.L.L.L.J.J.J.L.L.L.L.L.",
"L.L.L.L.L.L.L.L.L.J.J.J.J.J.J.J.J.J.X X X J.D.D.D.D.D.D.D.D.D.J.J.J.J.J.J.X X X D.D.D.D.D.D.D.D.D.J.J.J.L.L.L.J.J.J.J.J.L.L.L.L.",
"L.L.L.L.J.J.J.L.L.L.J.J.J.J.J.J.J.J.X X X D.D.D.D.D.D.D.D.D.D.D.J.J.J.J.J.X X X X X D.D.D.D.D.D.D.D.J.J.L.L.L.J.J.J.J.J.J.J.L.L.",
"L.L.L.J.J.J.J.J.L.L.L.L.J.J.J.J.J.J.X X X D.D.D.D.J.J.D.D.D.D.D.D.J.J.D.D.D.X X X X D.D.D.D.D.D.D.D.J.J.L.J.J.J.J.J.J.J.J.J.J.J.",
"J.J.J.J.J.J.J.J.J.J.J.J.J.J.J.J.J.J.D.D.D.D.D.J.J.J.J.J.D.D.D.D.D.D.D.D.D.D.D.D.D.D.D.D.D.D.D.D.D.D.D.D.J.J.J.J.J.J.J.J.J.J.J.J.",
"J.J.J.J.J.J.J.J.J.J.J.J.J.J.J.J.J.J.J.J.J.J.J.J.J.J.J.J.D.D.D.D.D.D.D.D.D.D.D.D.D.D.D.D.D.J.J.J.D.D.D.D.D.D.D.D.D.D.J.J.J.J.J.J.",
"J.J.J.J.J.J.J.D.D.D.J.J.J.J.J.J.J.J.J.J.J.J.J.J.J.J.J.J.D.D.J.J.D.D.D.D.D.D.D.J.J.J.D.D.J.J.J.J.J.D.D.D.D.D.D.J.J.J.J.J.J.J.J.J.",
"J.J.J.J.J.J.D.D.D.D.D.J.J.J.J.J.J.J.J.J.J.J.J.J.J.J.J.D.D.J.J.J.J.D.D.D.D.J.J.J.J.J.J.D.J.J.J.J.J.D.D.D.J.J.J.J.J.J.J.J.J.J.J.J.",
"J.J.J.J.J.J.D.D.D.D.D.D.J.J.J.D.D.D.J.J.J.J.J.J.J.J.J.J.J.J.J.J.J.J.J.J.J.J.J.J.J.J.J.J.J.J.J.J.J.J.J.J.J.J.J.J.L.L.J.J.J.J.J.J.",
"J.J.J.J.J.J.D.D.D.D.D.D.D.D.D.D.D.D.D.J.J.J.J.J.J.J.J.J.J.J.J.J.J.J.J.J.J.J.J.J.J.J.J.J.J.J.J.L.L.L.L.J.J.J.J.L.L.L.L.J.J.J.J.J.",
"J.J.J.D.D.D.D.D.D.D.D.D.D.D.D.D.D.D.D.D.J.J.J.J.J.J.J.J.J.J.J.J.J.D.D.D.D.J.J.J.J.J.J.J.J.L.L.L.L.L.L.L.L.L.L.L.L.L.L.L.L.J.J.J.",
"D.D.D.D.D.D.D.D.D.D.D.D.D.D.D.D.D.D.D.D.D.J.J.J.J.D.D.D.D.J.J.D.D.D.D.D.D.D.D.D.D.D.J.J.D.D.D.D.L.L.L.L.L.L.L.L.L.L.L.L.L.L.D.D."
};
