/* XPM */
static const char *goblin4_L[] = {
/* columns rows colors chars-per-pixel */
"64 64 208 2 ",
"   c #0F162A",
".  c #13162C",
"X  c #151B2E",
"o  c #191D2F",
"O  c #1B1E30",
"+  c #211E32",
"@  c #17212F",
"#  c #1B2331",
"$  c #192B31",
"%  c #1B2935",
"&  c #1B3133",
"*  c #1D3B35",
"=  c #222333",
"-  c #262637",
";  c #242A34",
":  c #2B2B37",
">  c #2C243A",
",  c #2C2D39",
"<  c #372937",
"1  c #31263D",
"2  c #332C3D",
"3  c #293538",
"4  c #35333D",
"5  c #3A343D",
"6  c #3B393E",
"7  c #462D3A",
"8  c #48353B",
"9  c #55323D",
"0  c #1E4237",
"q  c #1F4838",
"w  c #214638",
"e  c #2E4138",
"r  c #214B39",
"t  c #34483A",
"y  c #22553B",
"u  c #245B3D",
"i  c #28643F",
"p  c #372C40",
"a  c #3A2B42",
"s  c #253942",
"d  c #3D3741",
"f  c #432E46",
"g  c #472F47",
"h  c #493743",
"j  c #433D44",
"k  c #4B314B",
"l  c #573549",
"z  c #573652",
"x  c #5D3854",
"c  c #683942",
"v  c #703C44",
"b  c #743F4C",
"n  c #623A57",
"m  c #6C3D53",
"M  c #653B59",
"N  c #6A3D5B",
"B  c #703F5B",
"V  c #2D4B4D",
"C  c #32514B",
"Z  c #355B59",
"A  c #276C41",
"S  c #2B7A44",
"D  c #327248",
"F  c #3A625E",
"G  c #3B6661",
"H  c #3D6A63",
"J  c #3F7F63",
"K  c #494445",
"L  c #4A4446",
"P  c #4D4449",
"I  c #534B4A",
"U  c #564A4E",
"Y  c #425E40",
"T  c #59524C",
"R  c #4E555E",
"E  c #5E5151",
"W  c #654944",
"Q  c #69544B",
"!  c #74554B",
"~  c #74405A",
"^  c #774459",
"/  c #7B435A",
"(  c #625552",
")  c #695A56",
"_  c #6D5B59",
"`  c #486643",
"'  c #597D49",
"]  c #67635A",
"[  c #75625B",
"{  c #7C675F",
"}  c #4C6D67",
"|  c #447965",
" . c #417269",
".. c #7E6860",
"X. c #834348",
"o. c #8C4A4C",
"O. c #93494C",
"+. c #864655",
"@. c #844659",
"#. c #8D4858",
"$. c #9A4C55",
"%. c #944B58",
"&. c #885855",
"*. c #99535C",
"=. c #A24E54",
"-. c #A04E59",
";. c #AC5255",
":. c #A95555",
">. c #B55555",
",. c #B95656",
"<. c #B95C59",
"1. c #996B57",
"2. c #A96D57",
"3. c #BC645D",
"4. c #B67D57",
"5. c #935E64",
"6. c #826B62",
"7. c #8C7466",
"8. c #8D7C64",
"9. c #9E7466",
"0. c #927F65",
"q. c #94796A",
"w. c #BC6C61",
"e. c #AC7364",
"r. c #B67466",
"t. c #BC7C6A",
"y. c #C0685F",
"u. c #C16E63",
"i. c #C27768",
"p. c #2D8446",
"a. c #2E8A48",
"s. c #358848",
"d. c #34984B",
"f. c #398858",
"g. c #3C965B",
"h. c #3B9D5A",
"j. c #34A44E",
"k. c #36AA4F",
"l. c #37AC51",
"z. c #36B351",
"x. c #38B451",
"c. c #3E8860",
"v. c #5B824B",
"b. c #48934C",
"n. c #648E4E",
"m. c #6F9B52",
"M. c #4AAC52",
"N. c #52BD56",
"B. c #5EBA56",
"V. c #6AB056",
"C. c #679175",
"Z. c #79A863",
"A. c #5AC058",
"S. c #65C65A",
"D. c #6AC45A",
"F. c #78CA5D",
"G. c #9BB94E",
"H. c #80BC5B",
"J. c #BFBA5B",
"K. c #95846A",
"L. c #A38D6D",
"P. c #AE9273",
"I. c #C88C59",
"U. c #D38F5E",
"Y. c #D6965B",
"T. c #D9945F",
"R. c #DD9C5D",
"E. c #DFA05B",
"W. c #E3AA59",
"Q. c #E8B655",
"!. c #EABA53",
"~. c #C6836E",
"^. c #D99260",
"/. c #CA8670",
"(. c #D0BA68",
"). c #CBAD7E",
"_. c #8EC95F",
"`. c #85D761",
"'. c #8ED361",
"]. c #93D462",
"[. c #98D863",
"{. c #F1CC4E",
"}. c #F4D24B",
"|. c #F6D84A",
" X c #F9DE48",
".X c #EEC550",
"XX c #F5D353",
"oX c #FFED44",
"OX c #FBE54A",
"+X c #FFF143",
"@X c #FEEE53",
"#X c #FFF158",
"$X c #F2D87D",
"%X c #FCEE79",
"&X c #CCB386",
"*X c #D9BA88",
"=X c #DBC796",
"-X c #E2C894",
";X c #E7D29E",
":X c #FFF58A",
">X c #EAD9A3",
",X c #EFE1AB",
"<X c #F0E2A8",
"1X c #FBF3AA",
"2X c #FFF9BC",
"3X c #FAF2C4",
"4X c #FFFBD1",
"5X c #FFFEF9",
/* pixels */
"Z.Z.Z.Z.Z.Z.Z.Z.Z.Z.Z.Z.Z.Z.Z.Z.Z.Z.Z.Z.Z.Z.Z.Z.Z.Z.Z.Z.Z.Z.Z.Z.Z.Z.Z.Z.Z.Z.Z.Z.Z.Z.Z.Z.Z.Z.Z.Z.Z.J.J.J.J.J.J.J.J.J.J.G.G.G.G.G.",
"G.G.G.Z.Z.Z.Z.Z.Z.Z.Z.Z.Z.Z.Z.Z.Z.Z.Z.Z.C.C.C.C.Z.Z.Z.Z.Z.Z.Z.Z.Z.Z.Z.Z.Z.Z.Z.Z.Z.Z.Z.Z.Z.G.G.G.Z.Z.Z.G.J.J.J.J.J.J.G.G.G.G.G.G.",
"G.G.G.G.Z.Z.Z.C.C.C.C.G.G.G.G.G.G.G.G.C.C.C.C.C.C.Z.Z.Z.Z.Z.Z.Z.Z.Z.Z.Z.Z.Z.Z.Z.Z.G.G.G.9.9.9.9.G.G.G.G.G.J.J.J.J.J.J.J.J.J.G.G.",
"G.G.G.G.Z.C.C.C.C.C.C.C.G.G.C.C.C.C.C.C.C.C.C.C.C.Z.C.C.C.Z.Z.Z.Z.Z.Z.Z.Z.Z.Z.Z.Z.Z.Z.Z.9.9.G.G.G.G.G.G.G.T.T.^.T.J.J.J.J.J.J.J.",
"J.G.G.G.C.C.C.C.J.J.J.C.C.C.C.C.C.C.C.C.C.C.C.C.C.C.C.C.C.C.Z.Z.Z.Z.Z.Z.Z.Z.Z.Z.Z.Z.Z.Z.G.G.G.G.G.G.G.G.G.G.E.W.E.T.J.J.J.J.J.J.",
"J.J.J.C.C.C.C.J.J.J.J.J.C.C.J.J.J.J.C.C.C.C.J.J.J.J.C.C.C.C.C.Z.Z.Z.Z.Z.Z.Z.Z.Z.Z.Z.G.G.G.G.G.G.G.G.G.G.G.G..X+X!.^.J.G.G.G.G.G.",
"G.G.J.J.J.J.J.J.J.J.J.J.J.J.J.J.J.J.J.C.C.J.J.J.J.J.J.J.C.C.C.Z.Z.Z.Z.Z.Z.Z.G.G.G.G.G.G.G.G.G.G.G.G.J.J.G.^.!.}.E.J.G.G.G.G.G.G.",
"G.G.J.J.J.J.J.J.J.J.J.J.J.J.J.J.J.J.J.J.C.J.J.J.J.J.J.J.J.C.C.C.C.Z.Z.Z.Z.Z.G.G.G.G.G.G.G.G.T.T.T.T.J.J.J.J.T.J.G.G.G.G.G.G.G.G.",
"J.G.J.J.J.J.J.J.J.J.J.J.J.J.J.J.J.J.J.J.J.J.J.J.J.J.J.J.J.J.C.J.J.J.J.J.J.G.G.G.G.G.G.G.T.T.T.T.T.T.T.T.J.J.J.G.G.G.G.G.G.G.J.J.",
"J.J.J.J.J.J.J.J.J.J.J.J.J.J.J.J.J.J.J.J.J.J.J.J.J.J.J.J.J.J.J.J.J.J.G.G.J.J.G.G.G.G.T.T.T.T.T.T.T.T.T.T.T.T.G.G.G.T.G.G.G.J.J.J.",
"J.J.J.J.J.J.J.J.J.G.G.J.J.J.J.G.G.J.J.J.J.J.G.G.G.J.J.J.J.J.J.J.J.G.G.G.G.J.G.G.G.T.T.T.T.Q.|.|.|..XE.R.T.T.T.T.T.T.G.G.G.J.J.J.",
"J.J.J.J.J.J.J.J.G.G.G.G.J.G.G.G.G.G.G.J.J.G.G.G.G.G.J.J.J.G.G.G.G.G.G.G.G.G.G.G.G.T.T.T.Q.oXoXoX+XoXoX XW.T.T.T.T.J.J.G.G.J.J.J.",
"J.J.J.J.J.J.J.J.G.G.G.G.G.G.G.G.G.G.G.G.J.G.G.G.G.G.J.J.G.G.G.G.G.G.G.G.G.G.G.G.G.T.T.R.|.oXoXoXOX}.W.W.R.T.T.T.T.J.J.J.J.J.J.J.",
"G.G.G.J.J.J.J.J.G.G.G.G.G.G.G.G.G.G.G.G.J.G.G.G.G.G.G.G.G.G.G.G.G.G.G.G.G.G.G.G.G.T.^.!.oXoXoX!.R.T.^.^.T.T.T.J.J.J.J.J.J.J.J.J.",
"G.G.G.G.G.G.G.G.G.G.G.G.G.G.G.G.G.G.G.G.G.G.G.G.G.G.G.G.G.G.G.G.. # o G.G.G.G.G.G.T.^.!.oXoX!.W.{.R.T.T.T.G.G.G.G.G.G.G.G.G.G.G.",
"G.G.G.G.G.G.G.G.G.G.G.G.G.G.G.G.G.G.G.G.G.G.G.G.G.G.G.G.G.G.X o 8 &.: G.G.G.G.G.Z.T.^.!.+X{.T..XoXR.T.T.Z.Z.G.G.G.G.G.G.G.G.G.G.",
"G.G.G.G.G.G.G.G.G.G.G.G.G.G.G.G.G.Z.Z.Z.G.G.G.G.G.G.G.G.G.X O c 3.t.- J.G.G.G.Z.Z.Z.^.!.oXOX}.oX.XT.T.Z.Z.Z.Z.Z.G.G.G.G.G.G.G.G.",
"G.G.G.G.G.G.G.G.G.G.G.G.G.G.G.G.Z.Z.Z.Z.Z.G.G.Z.Z.Z.J.X X o W i.<.w.h X J.J.J.Z.Z.Z.^.!.oXoXoXoXQ.^.2.Z.Z.Z.Z.Z.Z.G.G.G.G.G.G.G.",
"G.G.G.G.G.G.Z.Z.Z.G.G.G.G.G.G.Z.; Z.G.G.Z.Z.Z.Z.Z.Z.X X O g r.~.w.u.1.o X Z.Z.Z.Z.W 4.!.oXoX:X@XQ.^.W G.G.Z.Z.Z.Z.Z.Z.G.G.G.G.G.",
"Z.Z.G.G.G.Z.Z.Z.Z.Z.G.G.G.G.Z.Y n.; G.G.G.Z.Z.Z.G.X X = x M 5./.i.<.r.! O Z.Z.Z.X . 8 Y.|.#X3X@X XR.W G.G.G.Z.Z.Z.Z.Z.Z.Z.G.G.G.",
"Z.Z.Z.Z.Z.Z.Z.Z.Z.Z.Z.G.G.G.. Y ` . X G.G.G.G.X X O o O k N ^ r.i.<.3.t., X G.. ; t < I.}.:X5X:XOXE.1.= G.G.G.G.G.G.G.G.G.G.G.Z.",
"Z.Z.Z.Z.Z.Z.Z.Z.Z.Z.Z.G.G.G.. w V.t X X X X X = f n O.9 > z M ^ t.w.3.P.2 X @ 0 ` ' X ! W. X4X4X@X.XU.8 . G.G.G.G.G.G.G.Z.Z.Z.Z.",
"Z.Z.Z.Z.Z.G.G.G.Z.Z.Z.Z.G.G.Z.X b.H.t X X X > n N N / $.v < k N *.w.<.&.= @ D D.'.v.. 5 4.!.:X5X2XOX.XI.8 G.G.G.G.G.G.G.G.G.G.G.",
"G.G.G.G.G.G.G.G.G.Z.Z.Z.Z.Z.Z.X p.`.` . X . a z n N N / ;.=.$.@.N $.>.7 q d.F.[.].` X . 8 Y.XX1X2X%X@X{.Q . C.C.G.G.G.G.G.G.G.G.",
"G.G.G.G.G.G.G.G.G.Z.Z.Z.Z.Z.Z.Z.i b.e + a g < o - g M N / %.>.>.%.=.W V j.D.[.].' o J.J.= ! (.%X1X3X<X$XQ . C.C.C.G.G.G.G.G.G.G.",
"G.G.G.G.G.G.G.G.G.G.Z.Z.Z.Z.G.G.X $ + z N N +.O.c < l N M M @.>.>.l Z | l.D.[.n.o X J.J.. L &X,X,X>X*X&X) . J.J.C.C.C.G.G.G.G.G.",
"G.G.G.Z.Z.Z.Z.Z.Z.Z.Z.Z.Z.G.G.G.X + z N N N N #.=.>.=.#.#.#.#.;.X.s H g.z.D._.t X J.J.J.  ( *X;X,X,X=XI j . J.J.J.J.C.C.C.C.G.G.",
"Z.Z.Z.Z.Z.Z.Z.Z.Z.Z.Z.Z.Z.G.G.G.. 1 N N N N N M ~ @.;.>.,.,.>.,.&.H  .g.z.D.m.X X J.J.J.  ] -XK.K.-X>X8.= X J.J.J.J.J.J.J.C.C.J.",
"J.J.J.J.J.J.J.J.Z.Z.Z.Z.Z.G.G.G.X 1 N N N N N N N N N #.%.;.>.,.&.F  .g.z.D.t X X X J.J.  ] =XT = K.*X*X( . J.J.J.J.J.J.J.J.J.J.",
"J.J.J.J.J.J.J.J.J.J.J.J.Z.Z.G.X X O > > > > > a x N N N N ~ @.$.< V  .J l.B.3 O - X Z.Z.X , T L.6 = T 0., X Z.Z.J.J.G.G.G.G.G.G.",
"G.G.G.G.G.G.G.G.G.G.G.G.G.G.X X 0 y y y y 0 X X O f k n N / %.;.7 # H  .h.i + &.e.5 X Z.Z.X . = # X . # X X G.G.G.G.G.G.G.G.G.G.",
"G.G.G.G.G.G.G.G.G.G.G.G.G.G.X w M.F.N.z.x.j.S * # # X - g @.>.,.=.7 V } | A 7 w./.! . Z.Z.Z.# j P d o X X G.G.G.G.G.G.G.G.G.G.G.",
"J.G.G.G.G.G.G.G.G.G.G.G.G.X w B.'.'.N.z.x.x.x.k.f.F % X o f @.>.,.;.:.:.2.r.t.~./.! . Z.G.G.= _ { ) 4 X G.G.G.G.G.G.G.G.G.J.J.J.",
"J.J.G.G.G.G.G.G.G.G.G.G.X * B.].'.N.x.x.x.x.x.x.g. .F % # # l >.>.>.>.>.3.3.3.3.u.! . Z.Z.Z.= 7.q._ 4 . G.G.G.G.G.G.G.G.J.J.J.J.",
"J.J.J.J.J.J.G.G.G.G.G.X o v.[.'.A.j.p.p.p.l.x.x.c. . .H C V # X.,.>.>.>.>.>.>.>.y.! . Z.Z.Z.= 7.q._ 5 Z.Z.G.G.G.G.J.J.J.J.J.J.J.",
"J.J.J.J.G.G.G.G.G.G.@ X i B.S.N.S w X X X r D c. . .Z s # X X X.,.>.>.>.>.>.>.3.e.5 X G.G.G.- 7.6.) 4 G.G.G.G.G.J.J.J.J.J.G.G.G.",
"G.J.G.G.G.G.G.G.G.G.A r d.j.a.A @ G.X # 3 % # F  . .H F s X X X.,.>.>.>.>.,.;.o.5 X X G.G.X = 6.[ I O G.G.G.G.J.J.J.J.J.G.G.G.G.",
"G.G.G.G.G.G.G.G.G.G.u k.j.r X X J.J.O V  .G V H  . . .G # X - ^ >.>.>.>.;.b 9 1 a o G.G.G.@ # 5 d , X G.G.G.G.G.G.G.G.G.G.G.G.G.",
"G.G.G.G.G.G.Z.Z.Z.J.X & & X X J.J.J.# H  . . . . . . .F s - x ~ @.=.#.@.@.m m ~ x o G.G.r d.0 . X e ; X G.G.G.G.G.G.G.G.G.G.G.G.",
"G.Z.Z.Z.Z.Z.Z.Z.Z.Z.Z.Z.X Z.Z.Z.Z.Z.X V  . . . . . .Z # - x / ;.>.>.>.>.>.>.>.>.+.o G.G.a.d.& 3 v._.` . G.G.G.G.G.G.G.G.G.G.G.G.",
"Z.Z.Z.Z.Z.Z.Z.Z.Z.Z.Z.Z.Z.Z.Z.Z.Z.Z.X X V  . . .H Z - > x B ;.,.>.>.>.>.,.v < c X.o G.G.S S # V.[.].M.$ G.G.G.G.Z.Z.Z.Z.Z.Z.Z.Z.",
"Z.Z.Z.Z.Z.Z.Z.Z.Z.Z.Z.Z.Z.Z.Z.Z.Z.X O a - F  .H s 1 k N N N #.;.>.>.>.>.,.X.= o o X X X $ w ` ].].A.k.& G.G.G.G.G.G.G.G.Z.Z.Z.Z.",
"G.G.Z.Z.Z.Z.Z.Z.Z.Z.Z.Z.Z.Z.G.G.X o f N n R F R z M N N N N N / >.,.,.,.,.,.O.7 X X X X X X s.N.N.x.k.& G.G.G.G.G.G.G.G.G.G.G.G.",
"G.G.G.G.G.G.G.Z.Z.G.G.G.Z.G.X X o f M k g a > n N N N N N N z g c v v v v v c O X X X X X X p.x.z.x.p.# G.G.G.G.G.G.G.G.G.G.G.G.",
"G.G.G.G.G.G.G.G.G.G.G.G.G.X # X # p d # ; ; - > - - - > p p 2 , , , ; , , ; j L.{ 7.6 . C.X 0 d.d.j.r . G.G.G.G.G.G.G.G.G.G.G.G.",
"J.J.J.J.J.G.G.G.G.G.G.G.X & p.$ j [ ) j 7.q.P # L 5 d P ( ( 7.).).).q.P.).P.7.8._ [ 4 . J.X X @ # # @ G.G.G.G.G.G.G.G.G.G.G.G.G.",
"J.J.J.J.J.J.J.J.J.J.G.G.. y j.# - 4 = 4 6...L , 7.) [ ..4 , 6 I I I d L I L 4 X O O X X J.X 4 = o X C.C.G.G.C.C.C.C.C.G.G.G.G.G.",
"G.J.J.J.J.J.J.J.J.J.J.J.. y l.w X X X X 5 j O X = # # = 1 1 1 > > > 1 > > > > k n n a X J.X T _ 2 X C.C.C.C.C.C.C.C.C.C.G.G.G.G.",
"G.G.G.J.J.J.J.J.J.J.J.J.X & a.d.* X L I X : ) U X a k k N N N N N N N N ~ N / $.$.-.+.O J.X ) 6.2 X J.C.C.C.C.C.J.J.C.C.C.G.C.C.",
"C.G.G.G.G.G.G.G.G.G.G.G.G.X # $ # j _ ) X 4 ..( = - N N N N N N N N N %.>.>.>.,.O.X.O.O J.J.= = o X J.J.C.C.C.J.J.J.J.C.C.C.C.C.",
"C.G.G.G.G.G.G.G.G.G.G.G.G.G.J.X P 7.I : X # P { [ , 1 1 k M M M M M M l 9 9 9 9 = X < o J.J.J.J.J.J.J.J.J.J.J.J.J.J.J.C.C.J.J.C.",
"C.C.C.J.J.G.G.G.G.G.G.G.G.J.J.J.I E # X X X O 4 [ , . X O = = = = = = O . . . . X Z.. J.J.J.J.J.J.J.J.J.J.J.J.J.J.J.J.J.J.J.J.J.",
"J.J.J.J.J.J.J.G.G.G.G.G.G.G.G.G.X X X X X X Z.X X X X Z.X X X X X X X X G.X X X Z.Z.Z.Z.J.J.J.G.G.G.G.J.J.J.J.J.G.G.G.J.J.J.J.J.",
"J.J.J.J.J.J.J.J.J.G.G.G.G.G.G.G.G.G.X X X G.Z.Z.Z.Z.Z.Z.Z.Z.Z.G.G.G.G.G.G.X X X Z.Z.Z.Z.Z.Z.Z.Z.Z.G.G.G.J.J.J.G.G.G.G.G.J.J.J.J.",
"J.J.J.J.G.G.G.J.J.J.G.G.G.G.G.G.G.G.X X X Z.Z.Z.Z.Z.Z.Z.Z.Z.Z.Z.G.G.G.G.G.X X X X X Z.Z.Z.Z.Z.Z.Z.Z.G.G.J.J.J.G.G.G.G.G.G.G.J.J.",
"J.J.J.G.G.G.G.G.J.J.J.J.G.G.G.G.G.G.X X X Z.Z.Z.Z.G.G.Z.Z.Z.Z.Z.Z.G.G.Z.Z.Z.X X X X Z.Z.Z.Z.Z.Z.Z.Z.G.G.J.G.G.G.G.G.G.G.G.G.G.G.",
"G.G.G.G.G.G.G.G.G.G.G.G.G.G.G.G.G.G.Z.Z.Z.Z.Z.G.G.G.G.G.Z.Z.Z.Z.Z.Z.Z.Z.Z.Z.Z.Z.Z.Z.Z.Z.Z.Z.Z.Z.Z.Z.Z.Z.G.G.G.G.G.G.G.G.G.G.G.G.",
"G.G.G.G.G.G.G.G.G.G.G.G.G.G.G.G.G.G.G.G.G.G.G.G.G.G.G.G.Z.Z.Z.Z.Z.Z.Z.Z.Z.Z.Z.Z.Z.Z.Z.Z.Z.G.G.G.Z.Z.Z.Z.Z.Z.Z.Z.Z.Z.G.G.G.G.G.G.",
"G.G.G.G.G.G.G.Z.Z.Z.G.G.G.G.G.G.G.G.G.G.G.G.G.G.G.G.G.G.Z.Z.G.G.Z.Z.Z.Z.Z.Z.Z.G.G.G.Z.Z.G.G.G.G.G.Z.Z.Z.Z.Z.Z.G.G.G.G.G.G.G.G.G.",
"G.G.G.G.G.G.Z.Z.Z.Z.Z.G.G.G.G.G.G.G.G.G.G.G.G.G.G.G.G.Z.Z.G.G.G.G.Z.Z.Z.Z.G.G.G.G.G.G.Z.G.G.G.G.G.Z.Z.Z.G.G.G.G.G.G.G.G.G.G.G.G.",
"G.G.G.G.G.G.Z.Z.Z.Z.Z.Z.G.G.G.Z.Z.Z.G.G.G.G.G.G.G.G.G.G.G.G.G.G.G.G.G.G.G.G.G.G.G.G.G.G.G.G.G.G.G.G.G.G.G.G.G.G.J.J.G.G.G.G.G.G.",
"G.G.G.G.G.G.Z.Z.Z.Z.Z.Z.Z.Z.Z.Z.Z.Z.Z.G.G.G.G.G.G.G.G.G.G.G.G.G.G.G.G.G.G.G.G.G.G.G.G.G.G.G.G.J.J.J.J.G.G.G.G.J.J.J.J.G.G.G.G.G.",
"G.G.G.Z.Z.Z.Z.Z.Z.Z.Z.Z.Z.Z.Z.Z.Z.Z.Z.Z.G.G.G.G.G.G.G.G.G.G.G.G.G.Z.Z.Z.Z.G.G.G.G.G.G.G.G.J.J.J.J.J.J.J.J.J.J.J.J.J.J.J.J.G.G.G.",
"Z.Z.Z.Z.Z.Z.Z.Z.Z.Z.Z.Z.Z.Z.Z.Z.Z.Z.Z.Z.Z.G.G.G.G.Z.Z.Z.Z.G.G.Z.Z.Z.Z.Z.Z.Z.Z.Z.Z.Z.G.G.Z.Z.Z.Z.J.J.J.J.J.J.J.J.J.J.J.J.J.J.Z.Z."
};
