/* XPM */
static const char *goblin2_R[] = {
/* columns rows colors chars-per-pixel */
"64 64 203 2 ",
"   c #14172D",
".  c #151B2E",
"X  c #191D2F",
"o  c #1C1E31",
"O  c #211F33",
"+  c #17212F",
"@  c #19212F",
"#  c #172430",
"$  c #1C2332",
"%  c #1B2B33",
"&  c #1E2B38",
"*  c #1B3233",
"=  c #1D3B35",
"-  c #232333",
";  c #262737",
":  c #2C2334",
">  c #2C2936",
",  c #2C243A",
"<  c #2D2D39",
"1  c #362936",
"2  c #31263D",
"3  c #342B3D",
"4  c #263439",
"5  c #35333D",
"6  c #3C353D",
"7  c #472D39",
"8  c #41363C",
"9  c #55343E",
"0  c #1F4738",
"q  c #2D4439",
"w  c #224C39",
"e  c #33473A",
"r  c #23533B",
"t  c #235A3C",
"y  c #38563E",
"u  c #26623E",
"i  c #52433F",
"p  c #362940",
"a  c #3D2B43",
"s  c #243741",
"d  c #3E3A41",
"f  c #442E47",
"g  c #462F48",
"h  c #4B3546",
"j  c #433D44",
"k  c #4B314B",
"l  c #583444",
"z  c #53344F",
"x  c #583652",
"c  c #5E3955",
"v  c #663942",
"b  c #703C44",
"n  c #623A57",
"m  c #6E3D55",
"M  c #653C59",
"N  c #6A3D5B",
"B  c #713F55",
"V  c #2B494C",
"C  c #2F4E50",
"Z  c #335555",
"A  c #365C5A",
"S  c #385E5B",
"D  c #2C6548",
"F  c #297142",
"G  c #2C7E45",
"H  c #3A635E",
"J  c #377C56",
"K  c #3C6B64",
"L  c #3E7764",
"P  c #464245",
"I  c #4D4449",
"U  c #54494C",
"Y  c #58484B",
"T  c #5A524D",
"R  c #485654",
"E  c #5E5052",
"W  c #644A48",
"Q  c #77414A",
"!  c #6E5548",
"~  c #794154",
"^  c #75415A",
"/  c #7C435A",
"(  c #635453",
")  c #6A5B58",
"_  c #765C58",
"`  c #507046",
"'  c #6D6255",
"]  c #75635B",
"[  c #7A655E",
"{  c #786A5A",
"}  c #456E67",
"|  c #417467",
" . c #407C64",
".. c #417168",
"X. c #7E6860",
"o. c #844349",
"O. c #8D464B",
"+. c #94494D",
"@. c #9C4B4E",
"#. c #814457",
"$. c #844659",
"%. c #894759",
"&. c #8D4858",
"*. c #9B4D57",
"=. c #944A58",
"-. c #9A4C58",
";. c #915452",
":. c #A24F54",
">. c #A04E58",
",. c #A75055",
"<. c #AB5154",
"1. c #AA595A",
"2. c #B55555",
"3. c #B85655",
"4. c #B75957",
"5. c #B85B58",
"6. c #8F6C58",
"7. c #95675C",
"8. c #B9645D",
"9. c #A97553",
"0. c #836C62",
"q. c #867262",
"w. c #8B7365",
"e. c #8D7D64",
"r. c #9E7466",
"t. c #987C6B",
"y. c #AB6F62",
"u. c #BD6B61",
"i. c #A87062",
"p. c #BC7767",
"a. c #C17466",
"s. c #C37969",
"d. c #2E8947",
"f. c #34954B",
"g. c #34A54E",
"h. c #36A94F",
"j. c #39A94F",
"k. c #38A753",
"l. c #38B351",
"z. c #39B452",
"x. c #3F8662",
"c. c #4F8652",
"v. c #638D4E",
"b. c #679951",
"n. c #4CB553",
"m. c #44B854",
"M. c #53BD56",
"N. c #76A755",
"B. c #6DB557",
"V. c #679175",
"C. c #79A863",
"Z. c #69C65A",
"A. c #74C95C",
"S. c #7BCC5D",
"D. c #9BB94E",
"F. c #83BB5B",
"G. c #BFBA5B",
"H. c #968368",
"J. c #A48D6E",
"K. c #AD9572",
"L. c #BBA37B",
"P. c #C6885A",
"I. c #CC8B5C",
"U. c #D08F5D",
"Y. c #D6945D",
"T. c #D9945F",
"R. c #DD9D5D",
"E. c #DEA05B",
"W. c #E3AB58",
"Q. c #E9B854",
"!. c #C5836E",
"~. c #C8856F",
"^. c #DA9360",
"/. c #CA8670",
"(. c #C4A77B",
"). c #E3B163",
"_. c #87C95E",
"`. c #85D05F",
"'. c #94D562",
"]. c #99D963",
"[. c #EFC64F",
"{. c #F1CD4E",
"}. c #F4D34B",
"|. c #F8DC49",
" X c #EDC451",
".X c #FCE645",
"XX c #FFED43",
"oX c #FFF051",
"OX c #FFF067",
"+X c #FFF376",
"@X c #B2A785",
"#X c #D4B888",
"$X c #D4C394",
"%X c #E1C894",
"&X c #F9EC8E",
"*X c #E9D6A2",
"=X c #F1E3AC",
"-X c #FFF7A9",
";X c #FDF5B7",
":X c #FFF9BD",
">X c #FFF9C4",
",X c #FFFBDA",
"<X c #FFFDEB",
/* pixels */
"D.D.D.D.D.G.G.G.G.G.G.G.G.G.G.C.C.C.C.C.C.C.C.C.C.C.C.C.C.C.C.C.C.C.C.C.C.C.C.C.C.C.C.C.C.C.C.C.C.C.C.C.C.C.C.C.C.C.C.C.C.C.C.C.",
"D.D.D.D.D.D.G.G.G.G.G.G.D.C.C.C.D.D.D.C.C.C.C.C.C.C.C.C.C.C.C.C.C.C.C.C.C.C.C.C.V.V.V.V.C.C.C.C.C.C.C.C.C.C.C.C.C.C.C.C.C.D.D.D.",
"D.D.G.G.G.G.G.G.G.G.G.D.D.D.D.D.D.D.D.D.D.D.D.C.C.C.C.C.C.C.C.C.C.C.C.C.C.C.C.V.V.V.V.V.V.D.D.D.D.D.D.D.D.V.V.V.V.C.C.C.D.D.D.D.",
"G.G.G.G.G.G.G.G.G.T.T.T.D.D.D.D.D.D.C.C.C.C.C.C.C.C.C.C.C.C.C.C.C.C.C.V.V.V.C.V.V.V.V.V.V.V.V.V.V.V.D.D.V.V.V.V.V.V.V.C.D.D.D.D.",
"G.G.G.G.G.G.G.T.T.T.T.T.T.D.D.D.r.r.D.D.C.C.C.C.C.C.C.C.C.C.C.C.C.C.V.V.V.V.V.V.V.V.V.V.V.V.V.V.V.V.V.V.V.G.G.G.V.V.V.V.D.D.D.G.",
"D.D.D.D.D.T.T.T.T.T.T.D.D.D.r.r.r.r.r.D.D.D.C.C.C.C.C.C.C.C.C.C.C.V.V.V.V.V.G.G.G.G.V.V.V.V.G.G.G.G.V.V.G.G.G.G.G.V.V.V.V.G.G.G.",
"D.D.D.D.D.T.T. X}.T.G.D.G.G.D.D.D.r.r.r.D.D.D.D.D.D.C.C.C.C.C.C.C.V.V.V.G.G.G.G.G.G.G.V.V.G.G.G.G.G.G.G.G.G.G.G.G.G.G.G.G.G.D.D.",
"D.D.D.D.T.T.W.XX XT.G.G.G.G.G.D.D.D.D.D.D.D.D.D.D.D.C.C.C.C.C.V.V.V.V.G.G.G.G.G.G.G.G.V.G.G.G.G.G.G.G.G.G.G.G.G.G.G.G.G.G.G.D.D.",
"G.G.D.D.T.T.}.XX{.T.T.G.D.D.D.G.D.D.D.D.D.D.D.D.D.D.D.G.G.G.G.G.G.V.G.G.G.G.G.G.G.G.G.G.G.G.G.G.G.G.G.G.G.G.G.G.G.G.G.G.G.G.D.G.",
"G.G.G.T.T.T. XXX|.T.T.T.D.D.D.D.D.D.D.D.D.D.D.D.D.D.G.G.D.D.G.G.G.G.G.G.G.G.G.G.G.G.G.G.G.G.G.G.G.G.G.G.G.G.G.G.G.G.G.G.G.G.G.G.",
"G.G.G.T.T.T.T. X|.W.T.T.T.T.D.D.D.D.D.D.D.D.D.D.D.D.G.D.D.D.D.G.G.G.G.G.G.G.G.D.D.D.G.G.G.G.G.D.D.G.G.G.G.D.D.G.G.G.G.G.G.G.G.G.",
"G.G.G.D.T.T.T.T.T.T.T.T.T.T.T.T.D.D.D.D.D.D.D.D.D.D.D.D.D.D.D.D.D.D.D.G.G.G.D.D.D.D.D.G.G.D.D.D.D.D.D.G.D.D.D.D.G.G.G.G.G.G.G.G.",
"G.G.G.G.G.T.T.T.T.T.R.E.E.E.T.^.T.T.G.D.D.D.D.D.D.D.D.D.. - . D.D.D.D.D.G.G.D.D.D.D.D.G.D.D.D.D.D.D.D.D.D.D.D.D.G.G.G.G.G.G.G.G.",
"G.G.G.G.G.T.T.T.T.T.Q.XXXXXX[.Q.E.T.T.D.D.D.D.D.D.D.D.D.. _ W >   D.D.D.D.D.D.D.D.D.D.G.D.D.D.D.D.D.D.D.D.D.D.D.G.G.G.G.G.D.D.D.",
"D.D.D.D.D.D.D.T.P.U.T.{.XXXXoXoX}.R.T.D.D.D.D.D.D.D.D.D.. 7./.;.- . . D.D.D.D.D.D.D.D.D.D.D.D.D.D.D.D.D.D.D.D.D.D.D.D.D.D.D.D.D.",
"D.D.D.D.D.D.D.D.> i I.W..XXX:X;XXX{.T.D.C.C.C.C.D.D.D.. > i.~.8.O.: . . D.D.D.D.D.D.D.D.D.D.D.D.D.D.D.D.D.D.D.D.D.D.D.D.D.D.D.D.",
"D.D.D.D.D.D.D.D.C.. 9.^.}.XX+X,X+X}.T.C.C.C.C.C.C.D.D.  W /.s.5.8.;.- X . D.D.D.D.D.D.D.C..   . D.D.D.D.D.D.D.D.D.D.D.D.D.D.D.D.",
"D.D.D.D.D.D.D.C.C.C.8 U.}.XXOX&X+X}.I.6   . C.C.C.G.. h p.~.a.4.s.8.m 3 . . C.C.C.D.D.C.. 4 y @ D.D.D.D.D.D.D.D.D.D.D.D.D.D.D.D.",
"D.D.D.D.D.C.C.C.C.C.6 I.}.XX:X&XXX}.I.1 . X $ X C.. . 7./.!.8.u.p.=.c - X O X . . C.C.. $ N.B.% C.D.D.D.D.D.D.C.C.C.D.D.D.D.D.D.",
"D.D.D.C.C.C.C.C.C.C.1 Y.|.XX>X>XXX XI.1   q F.y % . . 7./.a.3.u.1.c a 1 +.:.Q , o . . . y `.y   C.C.D.D.D.D.C.C.C.C.C.D.D.D.C.C.",
"C.D.D.D.D.D.D.D.D.. ! Q.XXOX<X:X.XR.P.1   e ].Z.f.* . Y u.5.3.2.~ , v +.3.3.^ N f . . . N.A.0   D.D.D.D.D.C.C.C.C.C.C.C.C.C.C.C.",
"C.C.C.C.D.D.D.D.D.X 9.Q.XX-X<X;X|.R.! . D.q F.].Z.g.F - +.3.<.=.:.@.3.3.,.&.M x k . . . c.m.w   C.D.D.D.D.C.C.C.C.C.C.C.C.C.C.C.",
"D.D.D.D.D.D.D.D.D.X 9.).&X;X+X-XQ.T.W D.D.. e _.`.m.l.D P @.<.<.3.3.3.*.N k 2 o : v h , # G w C.C.C.D.D.C.C.C.C.D.D.D.C.C.C.C.C.",
"D.D.D.D.D.D.D.D.V.. i #X*X*X&X=X%X( - D.D.. . b.].S.l.x.K d +.3.,.$.^ N c 1 7 +.@.3./ n 2 # # C.C.C.C.C.C.C.C.D.D.D.D.D.D.D.D.D.",
"D.D.D.D.D.D.D.V.V.V.5 J.L.*X=X=X%XH.. D.G.G.. 4 N.'.M.k.| V 9 3.=.&.&.&.-.2.3.3.3.:.^ N M 2 . C.C.C.C.C.C.C.C.D.D.D.D.D.D.D.D.D.",
"D.D.D.D.D.V.V.V.G.G.$ 5 @X=X*X$X#XH.. G.G.G..   ` '.Z.k.| K ) 3.3.3.3.3.3.3.3.<.$.B N N N k . D.D.D.C.C.C.C.D.D.D.D.D.D.D.D.D.D.",
"D.D.V.V.V.V.G.G.G.G.- H.%X%Xe.P #X@X. G.G.. . . @ N.Z.k.| K ( 3.3.3.3.3.<.=.&.N N N N N N g . . D.D.D.C.C.C.C.C.C.C.C.C.C.D.D.D.",
"G.V.V.G.G.G.G.G.G.G.5 (.(.e.- T L.e.. G.G.. - > . b.m.x...S - O.3.<.*./ / N c f , , , , , O . . D.D.D.C.C.C.C.C.C.C.C.C.C.C.C.C.",
"G.G.G.G.G.G.G.G.G.G.. I d . $ { P X . G.  - 7.y.1 = k.L ..s : +.<.%.N M k f - .   = t t t t r + . D.D.C.C.C.C.C.G.G.G.G.G.G.G.G.",
"D.D.D.D.D.D.G.G.C.C.. . . X $ $ X . C.C.  8 ~.s.Q 4 c.} R 3 +.3.3.=.z , X # % % F f.z.z.m.S.A.f.w . C.C.G.G.G.G.G.G.G.G.G.G.G.G.",
"D.D.D.D.D.D.D.D.D.D.D.. X j ( ( 3   C.C.  6 !.!.p.p.8.1.<.<.3.3.*.z o   $ Z L h.l.z.l.l.z.S.].'.B.w . D.D.D.D.D.D.D.D.D.D.D.D.D.",
"D.D.D.D.D.D.D.D.D.D.D.D.- ( X.w.d   C.C.  8 !.~.~.~.~.s.u.5.3.3.o.- $ $ Z ..x.l.l.l.z.z.z.m.S.'.].B.y   D.D.D.D.D.D.D.D.D.D.D.D.",
"G.G.G.D.D.D.D.D.D.D.D.D.- ( w.t.j   D.D.  8 !.!.a.a.a.a.p.u.3.<.: s C S .... .k.l.l.d.G G f.z.M.A.S.n.t * D.D.D.D.D.D.D.D.D.D.G.",
"G.G.G.G.D.D.D.D.D.D.D.D.- ( 0.t.j   C.C.. - 6.!.a.u.4.3.3.3.3.,.- . . 4 C ....L J r # . . * r F h.h.l.z.u . D.D.D.D.D.D.D.D.G.G.",
"G.G.G.G.G.G.G.D.D.D.D.C.- U _ t.j   C.C.C.. - _ y.a.a.5.3.3.3.,.- . & A K ......4 $ s & . . D.+ % % u f.h.* D.D.D.D.G.G.G.G.G.G.",
"D.D.D.G.G.G.G.G.D.D.D.D.  5 ) ] 6   D.D.D.. , a 1 v -.2.2.2.2.&.a . . Z ........Z S ..H & . D.D.D.. . % t # D.D.D.D.D.D.G.G.G.G.",
"D.D.D.D.G.G.G.G.G.D.D.D.. o - - $ = % D.D.  f / m m $.%.%.:.&./ M a & Z ................4 . D.D.D.D.D..   . D.D.D.D.D.D.D.D.G.D.",
"D.D.D.D.D.D.D.D.D.D.D.. % ` q . # g.d.D.D.  l 2.3.3.3.3.3.3.3.2.%.M a . V ............A $ . G.G.G.G.D.D.D.D.D.D.D.D.D.D.D.D.D.D.",
"D.D.D.D.D.D.D.D.D.D.D.. q '._.v.% t h.= D.  b 3.+.+.3.3.3.3.3.3.3.$.M a - V H ......A # . G.G.G.G.G.G.G.G.G.G.C.C.C.D.D.D.D.D.D.",
"D.D.D.D.D.D.D.D.D.D.D.. d.A.].].R 0 G # D.. 7 9 . 1 2.3.3.3.3.2.=.^ N N c a ; S ....s a - . C.C.C.C.C.C.C.C.C.C.C.C.C.C.C.C.C.D.",
"C.C.C.C.C.C.C.C.D.D.D.. d.z.A.`.N.4 # . . .   . 1 o.3.3.3.3.3.&.N N N N N N x R H R c N x - . C.C.C.C.C.C.C.C.C.C.C.C.C.C.C.C.C.",
"C.C.C.C.D.D.D.D.D.D.D.. d.z.l.l.j.% . . . . . v 2.3.3.3.3.3.3.$.N N N N N N N N g z N N N x - . C.C.C.C.C.C.C.C.C.C.C.C.C.C.C.C.",
"D.D.D.D.D.D.D.D.D.D.D.. 0 l.z.z.f.% . . D.. . 1 1 7 +.@.@.@.@.B n N N N N N N N n c c n N c , + * . C.C.C.C.C.C.C.C.C.C.C.C.D.D.",
"D.D.D.D.D.D.D.D.D.D.D.D.# F F F = . V.V.V.  j U T T $ o o o o X , g g f f f f f - o o , f o . w h.r . C.D.D.D.C.C.D.D.D.D.D.D.D.",
"D.D.D.D.D.D.D.D.D.D.D.D.D.. . . o X V.V.V.  ' t.J.K.[ H.J.0.q.J.q.U j - - - - . E ] ( 6 ) U 4 d.z.h.0 . D.D.D.D.D.D.D.D.D.D.D.D.",
"D.D.D.D.D.D.D.D.D.D.D.D.D.. o 5 I $ G.G.G.. $ $ $ < ( q.e.] ] e.{ j E w.) X.] $ [ w.0.- I I 4 h.l.z.t   D.D.D.D.D.D.D.G.G.G.G.G.",
"D.D.D.D.D.V.V.V.V.V.D.D.V.. $ _ 0.- G.G.G.. p k k , o o o o o o o o - d 3 6 5 . 6 E j . . . % k.z.l.r   D.D.G.G.G.G.G.G.G.G.G.G.",
"D.D.D.D.V.V.V.V.V.V.V.V.V.. o U ( - G.G.. , #.$.$./ n n n n n n n n z 2 2 O $ j 6 $ $ j - . $ D G u + . G.G.G.G.G.G.G.G.G.G.G.D.",
"V.V.D.V.V.V.G.G.V.V.V.V.V.G.. . . V.G.G.X b <.<.3.3.>.*.*./ N N N N N N c O < [ [ X < 0.U $ . . . . . G.G.G.G.G.G.G.G.G.G.D.D.D.",
"V.V.V.V.V.G.G.G.G.V.V.V.G.G.G.G.G.V.G.G.. - - 1 o.o.o.o.o.^ N N N N z z a < ) _ I . $ ( X.T . D.D.D.D.D.D.D.D.D.D.D.D.D.D.D.D.V.",
"V.G.G.V.V.G.G.G.G.G.G.G.G.G.G.G.G.G.G.G.G.G.G.. . . . . . , p 3 p 3 o . ; ] U d $ . . < 0.(   G.G.G.D.D.D.D.D.D.D.D.D.D.D.D.D.V.",
"G.G.G.G.G.G.G.G.G.G.G.G.G.G.G.G.G.G.G.G.G.C.C.C.. . . . . . . . . . . . $ ; .   . . . . - - G.G.G.G.G.D.D.D.D.D.D.D.D.G.G.V.V.V.",
"G.G.G.G.G.D.D.D.G.G.G.G.G.D.D.D.D.G.G.G.C.C.C.C.. . . D.G.D.D.D.D.D.D.D.. . C.C.C.C.. . . . G.G.D.D.D.D.D.D.D.D.D.G.G.G.G.G.G.G.",
"G.G.G.G.D.D.D.D.D.G.G.G.D.D.D.C.C.C.C.C.C.C.C.C.. . . D.D.D.D.D.D.C.C.C.C.C.C.C.C.C.D.. . . D.D.D.D.D.D.D.D.D.G.G.G.G.G.G.G.G.G.",
"G.G.D.D.D.D.D.D.D.G.G.G.D.D.C.C.C.C.C.C.C.C.. . . . . D.D.D.D.D.C.C.C.C.C.C.C.C.C.C.C.. . . D.D.D.D.D.D.D.D.G.G.G.D.D.D.G.G.G.G.",
"D.D.D.D.D.D.D.D.D.D.D.G.D.D.C.C.C.C.C.C.C.C.. . . . C.C.C.D.D.C.C.C.C.C.C.D.D.C.C.C.C.. . . D.D.D.D.D.D.G.G.G.G.D.D.D.D.D.G.G.G.",
"D.D.D.D.D.D.D.D.D.D.D.D.C.C.C.C.C.C.C.C.C.C.C.C.C.C.C.C.C.C.C.C.C.C.C.C.D.D.D.D.D.C.C.C.C.C.D.D.D.D.D.D.D.D.D.D.D.D.D.D.D.D.D.D.",
"D.D.D.D.D.D.C.C.C.C.C.C.C.C.C.C.D.D.D.C.C.C.C.C.C.C.C.C.C.C.C.C.C.C.C.C.D.D.D.D.D.D.D.D.D.D.D.D.D.D.D.D.D.D.D.D.D.D.D.D.D.D.D.D.",
"D.D.D.D.D.D.D.D.D.C.C.C.C.C.C.D.D.D.D.D.C.C.D.D.D.C.C.C.C.C.C.C.D.D.C.C.D.D.D.D.D.D.D.D.D.D.D.D.D.D.D.D.D.D.C.C.C.D.D.D.D.D.D.D.",
"D.D.D.D.D.D.D.D.D.D.D.D.C.C.C.D.D.D.D.D.C.D.D.D.D.D.D.C.C.C.C.D.D.D.D.C.C.D.D.D.D.D.D.D.D.D.D.D.D.D.D.D.D.C.C.C.C.C.D.D.D.D.D.D.",
"D.D.D.D.D.D.G.G.D.D.D.D.D.D.D.D.D.D.D.D.D.D.D.D.D.D.D.D.D.D.D.D.D.D.D.D.D.D.D.D.D.D.D.D.D.D.C.C.C.D.D.D.C.C.C.C.C.C.D.D.D.D.D.D.",
"D.D.D.D.D.G.G.G.G.D.D.D.D.G.G.G.G.D.D.D.D.D.D.D.D.D.D.D.D.D.D.D.D.D.D.D.D.D.D.D.D.D.D.D.D.C.C.C.C.C.C.C.C.C.C.C.C.C.D.D.D.D.D.D.",
"D.D.D.G.G.G.G.G.G.G.G.G.G.G.G.G.G.G.G.D.D.D.D.D.D.D.D.C.C.C.C.D.D.D.D.D.D.D.D.D.D.D.D.D.C.C.C.C.C.C.C.C.C.C.C.C.C.C.C.C.C.D.D.D.",
"C.C.G.G.G.G.G.G.G.G.G.G.G.G.G.G.C.C.C.C.D.D.C.C.C.C.C.C.C.C.C.C.C.D.D.C.C.C.C.D.D.D.D.C.C.C.C.C.C.C.C.C.C.C.C.C.C.C.C.C.C.C.C.C."
};
