/* XPM */
static const char *goblin2_L[] = {
/* columns rows colors chars-per-pixel */
"64 64 203 2 ",
"   c #14172D",
".  c #151B2E",
"X  c #191D2F",
"o  c #1C1E31",
"O  c #211F33",
"+  c #17212F",
"@  c #19212F",
"#  c #172430",
"$  c #1C2332",
"%  c #1B2B33",
"&  c #1E2B38",
"*  c #1B3233",
"=  c #1D3B35",
"-  c #232333",
";  c #262737",
":  c #2C2334",
">  c #2C2936",
",  c #2C243A",
"<  c #2D2D39",
"1  c #362936",
"2  c #31263D",
"3  c #342B3D",
"4  c #263439",
"5  c #35333D",
"6  c #3C353D",
"7  c #472D39",
"8  c #41363C",
"9  c #55343E",
"0  c #1F4738",
"q  c #2D4439",
"w  c #224C39",
"e  c #33473A",
"r  c #23533B",
"t  c #235A3C",
"y  c #38563E",
"u  c #26623E",
"i  c #52433F",
"p  c #362940",
"a  c #3D2B43",
"s  c #243741",
"d  c #3E3A41",
"f  c #442E47",
"g  c #462F48",
"h  c #4B3546",
"j  c #433D44",
"k  c #4B314B",
"l  c #583444",
"z  c #53344F",
"x  c #583652",
"c  c #5E3955",
"v  c #663942",
"b  c #703C44",
"n  c #623A57",
"m  c #6E3D55",
"M  c #653C59",
"N  c #6A3D5B",
"B  c #713F55",
"V  c #2B494C",
"C  c #2F4E50",
"Z  c #335555",
"A  c #365C5A",
"S  c #385E5B",
"D  c #2C6548",
"F  c #297142",
"G  c #2C7E45",
"H  c #3A635E",
"J  c #377C56",
"K  c #3C6B64",
"L  c #3E7764",
"P  c #464245",
"I  c #4D4449",
"U  c #54494C",
"Y  c #58484B",
"T  c #5A524D",
"R  c #485654",
"E  c #5E5052",
"W  c #644A48",
"Q  c #77414A",
"!  c #6E5548",
"~  c #794154",
"^  c #75415A",
"/  c #7C435A",
"(  c #635453",
")  c #6A5B58",
"_  c #765C58",
"`  c #507046",
"'  c #6D6255",
"]  c #75635B",
"[  c #7A655E",
"{  c #786A5A",
"}  c #456E67",
"|  c #417467",
" . c #407C64",
".. c #417168",
"X. c #7E6860",
"o. c #844349",
"O. c #8D464B",
"+. c #94494D",
"@. c #9C4B4E",
"#. c #814457",
"$. c #844659",
"%. c #894759",
"&. c #8D4858",
"*. c #9B4D57",
"=. c #944A58",
"-. c #9A4C58",
";. c #915452",
":. c #A24F54",
">. c #A04E58",
",. c #A75055",
"<. c #AB5154",
"1. c #AA595A",
"2. c #B55555",
"3. c #B85655",
"4. c #B75957",
"5. c #B85B58",
"6. c #8F6C58",
"7. c #95675C",
"8. c #B9645D",
"9. c #A97553",
"0. c #836C62",
"q. c #867262",
"w. c #8B7365",
"e. c #8D7D64",
"r. c #9E7466",
"t. c #987C6B",
"y. c #AB6F62",
"u. c #BD6B61",
"i. c #A87062",
"p. c #BC7767",
"a. c #C17466",
"s. c #C37969",
"d. c #2E8947",
"f. c #34954B",
"g. c #34A54E",
"h. c #36A94F",
"j. c #39A94F",
"k. c #38A753",
"l. c #38B351",
"z. c #39B452",
"x. c #3F8662",
"c. c #4F8652",
"v. c #638D4E",
"b. c #679951",
"n. c #4CB553",
"m. c #44B854",
"M. c #53BD56",
"N. c #76A755",
"B. c #6DB557",
"V. c #679175",
"C. c #79A863",
"Z. c #69C65A",
"A. c #74C95C",
"S. c #7BCC5D",
"D. c #9BB94E",
"F. c #83BB5B",
"G. c #BFBA5B",
"H. c #968368",
"J. c #A48D6E",
"K. c #AD9572",
"L. c #BBA37B",
"P. c #C6885A",
"I. c #CC8B5C",
"U. c #D08F5D",
"Y. c #D6945D",
"T. c #D9945F",
"R. c #DD9D5D",
"E. c #DEA05B",
"W. c #E3AB58",
"Q. c #E9B854",
"!. c #C5836E",
"~. c #C8856F",
"^. c #DA9360",
"/. c #CA8670",
"(. c #C4A77B",
"). c #E3B163",
"_. c #87C95E",
"`. c #85D05F",
"'. c #94D562",
"]. c #99D963",
"[. c #EFC64F",
"{. c #F1CD4E",
"}. c #F4D34B",
"|. c #F8DC49",
" X c #EDC451",
".X c #FCE645",
"XX c #FFED43",
"oX c #FFF051",
"OX c #FFF067",
"+X c #FFF376",
"@X c #B2A785",
"#X c #D4B888",
"$X c #D4C394",
"%X c #E1C894",
"&X c #F9EC8E",
"*X c #E9D6A2",
"=X c #F1E3AC",
"-X c #FFF7A9",
";X c #FDF5B7",
":X c #FFF9BD",
">X c #FFF9C4",
",X c #FFFBDA",
"<X c #FFFDEB",
/* pixels */
"C.C.C.C.C.C.C.C.C.C.C.C.C.C.C.C.C.C.C.C.C.C.C.C.C.C.C.C.C.C.C.C.C.C.C.C.C.C.C.C.C.C.C.C.C.C.C.C.C.G.G.G.G.G.G.G.G.G.G.D.D.D.D.D.",
"D.D.D.C.C.C.C.C.C.C.C.C.C.C.C.C.C.C.C.C.V.V.V.V.C.C.C.C.C.C.C.C.C.C.C.C.C.C.C.C.C.C.C.C.C.D.D.D.C.C.C.D.G.G.G.G.G.G.D.D.D.D.D.D.",
"D.D.D.D.C.C.C.V.V.V.V.D.D.D.D.D.D.D.D.V.V.V.V.V.V.C.C.C.C.C.C.C.C.C.C.C.C.C.C.C.C.D.D.D.D.D.D.D.D.D.D.D.D.G.G.G.G.G.G.G.G.G.D.D.",
"D.D.D.D.C.V.V.V.V.V.V.V.D.D.V.V.V.V.V.V.V.V.V.V.V.C.V.V.V.C.C.C.C.C.C.C.C.C.C.C.C.C.C.C.C.C.D.D.D.D.D.D.T.T.T.G.G.G.G.G.G.G.G.G.",
"G.D.D.D.V.V.V.V.G.G.G.V.V.V.V.V.V.V.V.V.V.V.V.V.V.V.V.V.V.V.C.C.C.C.C.C.C.C.C.C.C.C.C.C.D.D.r.r.D.D.D.T.T.T.T.T.T.G.G.G.G.G.G.G.",
"G.G.G.V.V.V.V.G.G.G.G.G.V.V.G.G.G.G.V.V.V.V.G.G.G.G.V.V.V.V.V.C.C.C.C.C.C.C.C.C.C.C.D.D.D.r.r.r.r.r.D.D.D.T.T.T.T.T.T.D.D.D.D.D.",
"D.D.G.G.G.G.G.G.G.G.G.G.G.G.G.G.G.G.G.V.V.G.G.G.G.G.G.G.V.V.V.C.C.C.C.C.C.C.D.D.D.D.D.D.r.r.r.D.D.D.G.G.D.G.T.}. XT.T.D.D.D.D.D.",
"D.D.G.G.G.G.G.G.G.G.G.G.G.G.G.G.G.G.G.G.V.G.G.G.G.G.G.G.G.V.V.V.V.C.C.C.C.C.D.D.D.D.D.D.D.D.D.D.D.G.G.G.G.G.T. XXXW.T.T.D.D.D.D.",
"G.D.G.G.G.G.G.G.G.G.G.G.G.G.G.G.G.G.G.G.G.G.G.G.G.G.G.G.G.G.V.G.G.G.G.G.G.D.D.D.D.D.D.D.D.D.D.D.G.D.D.D.G.T.T.{.XX}.T.T.D.D.G.G.",
"G.G.G.G.G.G.G.G.G.G.G.G.G.G.G.G.G.G.G.G.G.G.G.G.G.G.G.G.G.G.G.G.G.G.D.D.G.G.D.D.D.D.D.D.D.D.D.D.D.D.D.D.T.T.T.|.XX XT.T.T.G.G.G.",
"G.G.G.G.G.G.G.G.G.D.D.G.G.G.G.D.D.G.G.G.G.G.D.D.D.G.G.G.G.G.G.G.G.D.D.D.D.G.D.D.D.D.D.D.D.D.D.D.D.D.T.T.T.T.W.|. XT.T.T.T.G.G.G.",
"G.G.G.G.G.G.G.G.D.D.D.D.G.D.D.D.D.D.D.G.G.D.D.D.D.D.G.G.G.D.D.D.D.D.D.D.D.D.D.D.D.D.D.D.D.D.D.D.T.T.T.T.T.T.T.T.T.T.T.T.D.G.G.G.",
"G.G.G.G.G.G.G.G.D.D.D.D.D.D.D.D.D.D.D.D.G.D.D.D.D.D.G.G.D.D.D.D.D.. - . D.D.D.D.D.D.D.D.D.G.T.T.^.T.E.E.E.R.T.T.T.T.T.G.G.G.G.G.",
"D.D.D.G.G.G.G.G.D.D.D.D.D.D.D.D.D.D.D.D.G.D.D.D.D.D.D.D.D.D.D.  > W _ . D.D.D.D.D.D.D.D.D.T.T.E.Q.[.XXXXXXQ.T.T.T.T.T.G.G.G.G.G.",
"D.D.D.D.D.D.D.D.D.D.D.D.D.D.D.D.D.D.D.D.D.D.D.D.D.D.D.D.D.. . - ;./.7.. D.D.D.D.D.D.D.D.D.T.R.}.oXoXXXXX{.T.U.P.T.D.D.D.D.D.D.D.",
"D.D.D.D.D.D.D.D.D.D.D.D.D.D.D.D.D.D.D.D.D.D.D.D.D.D.D.D.. . : O.8.~.i.> . D.D.D.C.C.C.C.D.T.{.XX;X:XXX.XW.I.i > D.D.D.D.D.D.D.D.",
"D.D.D.D.D.D.D.D.D.D.D.D.D.D.D.D..   . C.D.D.D.D.D.D.D.. X - ;.8.5.s./.W   D.D.C.C.C.C.C.C.T.}.+X,X+XXX}.^.9.. C.D.D.D.D.D.D.D.D.",
"D.D.D.D.D.D.D.D.D.D.D.D.D.D.D.D.@ y 4 . C.D.D.C.C.C.. . 3 m 8.s.4.a.~.p.h . G.C.C.C..   6 I.}.+X&XOXXX}.U.8 C.C.C.D.D.D.D.D.D.D.",
"D.D.D.D.D.D.C.C.C.D.D.D.D.D.D.C.% B.N.$ . C.C.. . X O X - c =.p.u.8.!./.7.. . C.X $ X . 1 I.}.XX&X:XXX}.I.6 C.C.C.C.C.D.D.D.D.D.",
"C.C.D.D.D.C.C.C.C.C.D.D.D.D.C.C.  y `.y . . . o , Q :.+.1 a c 1.u.3.a./.7.. . % y F.q   1 I. XXX>X>XXX|.Y.1 C.C.C.C.C.C.C.D.D.D.",
"C.C.C.C.C.C.C.C.C.C.C.D.D.D.D.D.  0 A.N.. . . f N ^ 3.3.+.v , ~ 2.3.5.u.Y . * f.Z.].e   1 P.R..X:X<XOXXXQ.! . D.D.D.D.D.D.D.D.C.",
"C.C.C.C.C.C.C.C.C.C.C.D.D.D.D.C.  w m.c.. . . k x M &.,.3.3.@.:.=.<.3.+.- F g.Z.].F.q D.. ! R.|.;X<X-XXXQ.9.X D.D.D.D.D.C.C.C.C.",
"C.C.C.C.C.D.D.D.C.C.C.C.D.D.C.C.C.w G # , h v : o 2 k N *.3.3.3.<.<.@.P D l.m.`._.e . D.D.W T.Q.-X+X;X&X).9.X D.D.D.D.D.D.D.D.D.",
"D.D.D.D.D.D.D.D.D.C.C.C.C.C.C.C.C.# # 2 n / 3.@.+.7 1 c N ^ $.,.3.+.d K x.l.S.].b.. . D.D.- ( %X=X&X*X*X#Xi . V.D.D.D.D.D.D.D.D.",
"D.D.D.D.D.D.D.D.D.C.C.C.C.C.C.C.C.. 2 M N ^ :.3.3.3.2.-.&.&.&.=.3.9 V | k.M.'.N.4 . G.G.D.. H.%X=X=X*XL.J.5 V.V.V.D.D.D.D.D.D.D.",
"D.D.D.D.D.D.D.D.D.D.C.C.C.C.D.D.D.. k N N N B $.<.3.3.3.3.3.3.3.3.) K | k.Z.'.`   . G.G.G.. H.#X$X*X=X@X5 $ G.G.V.V.V.D.D.D.D.D.",
"D.D.D.C.C.C.C.C.C.C.C.C.C.D.D.D.. . g N N N N N N &.=.<.3.3.3.3.3.( K | k.Z.N.@ . . . G.G.. @X#XP e.%X%XH.- G.G.G.G.V.V.V.V.D.D.",
"C.C.C.C.C.C.C.C.C.C.C.C.C.D.D.D.. . O , , , , , f c N / / *.<.3.O.- S ..x.m.b.. > - . G.G.. e.L.T - e.(.(.5 G.G.G.G.G.G.G.V.V.G.",
"G.G.G.G.G.G.G.G.C.C.C.C.C.D.D.. + r t t t t =   . - f k M N %.<.+.: s ..L k.= 1 y.7.-   G.. X P { $ . d I . G.G.G.G.G.G.G.G.G.G.",
"G.G.G.G.G.G.G.G.G.G.G.G.C.C.. w f.A.S.m.z.z.f.F % % # X , z =.3.3.+.3 R } c.4 Q s.~.8   C.C.. X $ $ X . . . C.C.G.G.D.D.D.D.D.D.",
"D.D.D.D.D.D.D.D.D.D.D.D.D.. w B.'.].S.z.l.l.z.l.h.L Z $   o z *.3.3.<.<.1.8.p.p.!.!.6   C.C.  3 ( ( j X . D.D.D.D.D.D.D.D.D.D.D.",
"D.D.D.D.D.D.D.D.D.D.D.D.  y B.].'.S.m.z.z.z.l.l.l.x...Z $ $ - o.3.3.5.u.s.~.~.~.~.!.8   C.C.  d w.X.( - D.D.D.D.D.D.D.D.D.D.D.D.",
"G.D.D.D.D.D.D.D.D.D.D.* t n.S.A.M.z.f.G G d.l.l.k. .....S C s : <.3.u.p.a.a.a.a.!.!.8   D.D.  j t.w.( - D.D.D.D.D.D.D.D.D.G.G.G.",
"G.G.D.D.D.D.D.D.D.D.. u z.l.h.h.F r * . . # r J L ....C 4 . . - ,.3.3.3.3.4.u.a.!.6.- . C.C.  j t.0.( - D.D.D.D.D.D.D.D.G.G.G.G.",
"G.G.G.G.G.G.D.D.D.D.* h.f.u % % + D.. . & s $ 4 ......K A & . - ,.3.3.3.5.a.a.y._ - . C.C.C.  j t._ U - C.D.D.D.D.G.G.G.G.G.G.G.",
"G.G.G.G.D.D.D.D.D.D.# t % . . D.D.D.. & H ..S Z ........Z . . a &.2.2.2.2.-.v 1 a , . D.D.D.  6 ] ) 5   D.D.D.D.G.G.G.G.G.D.D.D.",
"D.G.D.D.D.D.D.D.D.D..   . D.D.D.D.D.. 4 ................Z & a M / &.:.%.%.$.m m / f   D.D.% = $ - - o . D.D.D.G.G.G.G.G.D.D.D.D.",
"D.D.D.D.D.D.D.D.D.D.D.D.D.D.G.G.G.G.. $ A ............V . a M %.2.3.3.3.3.3.3.3.2.l   D.D.d.g.# . q ` % . D.D.D.D.D.D.D.D.D.D.D.",
"D.D.D.D.D.D.C.C.C.G.G.G.G.G.G.G.G.G.G.. # A ......H V - a M $.3.3.3.3.3.3.3.+.+.3.b   D.= h.t % v._.'.q . D.D.D.D.D.D.D.D.D.D.D.",
"D.C.C.C.C.C.C.C.C.C.C.C.C.C.C.C.C.C.. - a s ....S ; a c N N ^ =.2.3.3.3.3.2.1 . 9 7 . D.# G 0 R ].].A.d.. D.D.D.D.D.D.D.D.D.D.D.",
"C.C.C.C.C.C.C.C.C.C.C.C.C.C.C.C.C.. - x N c R H R x N N N N N N &.3.3.3.3.3.o.1 .   . . . # 4 N.`.A.z.d.. D.D.D.C.C.C.C.C.C.C.C.",
"C.C.C.C.C.C.C.C.C.C.C.C.C.C.C.C.. - x N N N z g N N N N N N N N $.3.3.3.3.3.3.2.v . . . . . % j.l.l.z.d.. D.D.D.D.D.D.D.C.C.C.C.",
"D.D.C.C.C.C.C.C.C.C.C.C.C.C.. * + , c N n c c n N N N N N N N n B @.@.@.@.+.7 1 1 . . D.. . % f.z.z.l.0 . D.D.D.D.D.D.D.D.D.D.D.",
"D.D.D.D.D.D.D.C.C.D.D.D.C.. r h.w . o f , o o - f f f f f g g , X o o o o $ T T U j   V.V.V.. = F F F # D.D.D.D.D.D.D.D.D.D.D.D.",
"D.D.D.D.D.D.D.D.D.D.D.D.. 0 h.z.d.4 U ) 6 ( ] E . - - - - j U q.J.q.0.J.H.[ K.J.t.'   V.V.V.X o . . . D.D.D.D.D.D.D.D.D.D.D.D.D.",
"G.G.G.G.G.D.D.D.D.D.D.D.  t z.l.h.4 I I - 0.w.[ $ ] X.) w.E j { e.] ] e.q.( < $ $ $ . G.G.G.$ I 5 o . D.D.D.D.D.D.D.D.D.D.D.D.D.",
"G.G.G.G.G.G.G.G.G.G.D.D.  r l.z.k.% . . . j E 6 . 5 6 3 d - o o o o o o o o , k k p . G.G.G.- 0._ $ . V.D.D.V.V.V.V.V.D.D.D.D.D.",
"D.G.G.G.G.G.G.G.G.G.G.G.. + u G D $ . - j $ $ 6 j $ O 2 2 z n n n n n n n n / $.$.#., . G.G.- ( U o . V.V.V.V.V.V.V.V.V.D.D.D.D.",
"D.D.D.G.G.G.G.G.G.G.G.G.G.. . . . . $ U 0.< X [ [ < O c N N N N N N / *.*.>.3.3.<.<.b X G.G.V.. . . G.V.V.V.V.V.G.G.V.V.V.D.V.V.",
"V.D.D.D.D.D.D.D.D.D.D.D.D.D.D.D.D.. T X.( $ . I _ ) < a z z N N N N ^ o.o.o.o.o.1 - - . G.G.V.G.G.G.G.G.V.V.V.G.G.G.G.V.V.V.V.V.",
"V.D.D.D.D.D.D.D.D.D.D.D.D.D.G.G.G.  ( 0.< . . $ d U ] ; . o 3 p 3 p , . . . . . . G.G.G.G.G.G.G.G.G.G.G.G.G.G.G.G.G.G.V.V.G.G.V.",
"V.V.V.G.G.D.D.D.D.D.D.D.D.G.G.G.G.G.- - . . . .   . ; $ . . . . . . . . . . . . C.C.C.G.G.G.G.G.G.G.G.G.G.G.G.G.G.G.G.G.G.G.G.G.",
"G.G.G.G.G.G.G.D.D.D.D.D.D.D.D.D.G.G.. . . . C.C.C.C.. . D.D.D.D.D.D.D.G.D.. . . C.C.C.C.G.G.G.D.D.D.D.G.G.G.G.G.D.D.D.G.G.G.G.G.",
"G.G.G.G.G.G.G.G.G.D.D.D.D.D.D.D.D.D.. . . D.C.C.C.C.C.C.C.C.C.D.D.D.D.D.D.. . . C.C.C.C.C.C.C.C.C.D.D.D.G.G.G.D.D.D.D.D.G.G.G.G.",
"G.G.G.G.D.D.D.G.G.G.D.D.D.D.D.D.D.D.. . . C.C.C.C.C.C.C.C.C.C.C.D.D.D.D.D.. . . . . C.C.C.C.C.C.C.C.D.D.G.G.G.D.D.D.D.D.D.D.G.G.",
"G.G.G.D.D.D.D.D.G.G.G.G.D.D.D.D.D.D.. . . C.C.C.C.D.D.C.C.C.C.C.C.D.D.C.C.C.. . . . C.C.C.C.C.C.C.C.D.D.G.D.D.D.D.D.D.D.D.D.D.D.",
"D.D.D.D.D.D.D.D.D.D.D.D.D.D.D.D.D.D.C.C.C.C.C.D.D.D.D.D.C.C.C.C.C.C.C.C.C.C.C.C.C.C.C.C.C.C.C.C.C.C.C.C.D.D.D.D.D.D.D.D.D.D.D.D.",
"D.D.D.D.D.D.D.D.D.D.D.D.D.D.D.D.D.D.D.D.D.D.D.D.D.D.D.D.C.C.C.C.C.C.C.C.C.C.C.C.C.C.C.C.C.D.D.D.C.C.C.C.C.C.C.C.C.C.D.D.D.D.D.D.",
"D.D.D.D.D.D.D.C.C.C.D.D.D.D.D.D.D.D.D.D.D.D.D.D.D.D.D.D.C.C.D.D.C.C.C.C.C.C.C.D.D.D.C.C.D.D.D.D.D.C.C.C.C.C.C.D.D.D.D.D.D.D.D.D.",
"D.D.D.D.D.D.C.C.C.C.C.D.D.D.D.D.D.D.D.D.D.D.D.D.D.D.D.C.C.D.D.D.D.C.C.C.C.D.D.D.D.D.D.C.D.D.D.D.D.C.C.C.D.D.D.D.D.D.D.D.D.D.D.D.",
"D.D.D.D.D.D.C.C.C.C.C.C.D.D.D.C.C.C.D.D.D.D.D.D.D.D.D.D.D.D.D.D.D.D.D.D.D.D.D.D.D.D.D.D.D.D.D.D.D.D.D.D.D.D.D.D.G.G.D.D.D.D.D.D.",
"D.D.D.D.D.D.C.C.C.C.C.C.C.C.C.C.C.C.C.D.D.D.D.D.D.D.D.D.D.D.D.D.D.D.D.D.D.D.D.D.D.D.D.D.D.D.D.G.G.G.G.D.D.D.D.G.G.G.G.D.D.D.D.D.",
"D.D.D.C.C.C.C.C.C.C.C.C.C.C.C.C.C.C.C.C.D.D.D.D.D.D.D.D.D.D.D.D.D.C.C.C.C.D.D.D.D.D.D.D.D.G.G.G.G.G.G.G.G.G.G.G.G.G.G.G.G.D.D.D.",
"C.C.C.C.C.C.C.C.C.C.C.C.C.C.C.C.C.C.C.C.C.D.D.D.D.C.C.C.C.D.D.C.C.C.C.C.C.C.C.C.C.C.D.D.C.C.C.C.G.G.G.G.G.G.G.G.G.G.G.G.G.G.C.C."
};
