/* XPM */
static const char *goblin1_L[] = {
/* columns rows colors chars-per-pixel */
"64 64 215 2 ",
"   c #0F172B",
".  c #13172C",
"X  c #151B2E",
"o  c #191D2F",
"O  c #171E30",
"+  c #1C1E31",
"@  c #211F33",
"#  c #17222F",
"$  c #1B2232",
"%  c #1A2B32",
"&  c #1B2935",
"*  c #1B3233",
"=  c #1D3B35",
"-  c #232333",
";  c #282637",
":  c #242B34",
">  c #2A2A36",
",  c #2B2439",
"<  c #2D2D39",
"1  c #372A37",
"2  c #31263D",
"3  c #352A3E",
"4  c #263539",
"5  c #38343C",
"6  c #3A353E",
"7  c #462D3A",
"8  c #4B303C",
"9  c #52333D",
"0  c #1E4237",
"q  c #1F4838",
"w  c #1F513A",
"e  c #214C39",
"r  c #2D4B3A",
"t  c #314339",
"y  c #384D3C",
"u  c #22533B",
"i  c #235B3C",
"p  c #26633E",
"a  c #362940",
"s  c #3D2B44",
"d  c #253A43",
"f  c #3D3941",
"g  c #432E47",
"h  c #462F48",
"j  c #433E44",
"k  c #4E3D43",
"l  c #4B314B",
"z  c #5A3642",
"x  c #53344E",
"c  c #573651",
"v  c #5E3955",
"b  c #673942",
"n  c #713D47",
"m  c #623A57",
"M  c #6D3D52",
"N  c #653C5A",
"B  c #6A3D5B",
"V  c #713F56",
"C  c #2C4A4C",
"Z  c #334C4F",
"A  c #345857",
"S  c #296843",
"D  c #326747",
"F  c #297242",
"G  c #2C7C44",
"H  c #337544",
"J  c #3A625E",
"K  c #3C6761",
"L  c #3D6A63",
"P  c #3F7E64",
"I  c #4D4449",
"U  c #4E4B4A",
"Y  c #58474A",
"T  c #53494C",
"R  c #5B544D",
"E  c #584C56",
"W  c #485B5F",
"Q  c #5E5052",
"!  c #644C42",
"~  c #685549",
"^  c #785849",
"/  c #774156",
"(  c #75415A",
")  c #7B435A",
"_  c #635453",
"`  c #635A51",
"'  c #6B5A57",
"]  c #6D5B59",
"[  c #735350",
"{  c #715E5A",
"}  c #4C6E45",
"|  c #557A48",
" . c #6C655A",
".. c #76665A",
"X. c #7A655E",
"o. c #486E67",
"O. c #477E63",
"+. c #417269",
"@. c #7E6860",
"#. c #834349",
"$. c #87474B",
"%. c #90484C",
"&. c #9C4C4E",
"*. c #805D49",
"=. c #814457",
"-. c #854659",
";. c #894758",
":. c #8D4858",
">. c #9C4D57",
",. c #924A58",
"<. c #895654",
"1. c #A24E53",
"2. c #A04E58",
"3. c #A95357",
"4. c #AC5254",
"5. c #B55555",
"6. c #B95655",
"7. c #B75957",
"8. c #B95C59",
"9. c #966B4E",
"0. c #8D6453",
"q. c #996B54",
"w. c #82725E",
"e. c #B2675E",
"r. c #BB645D",
"t. c #B87F57",
"y. c #9A5B60",
"u. c #846D62",
"i. c #9C6365",
"p. c #8C7466",
"a. c #8C7963",
"s. c #9D7466",
"d. c #947969",
"f. c #BD6B61",
"g. c #A27666",
"h. c #AD7565",
"j. c #BD7264",
"k. c #BD7D6B",
"l. c #C07466",
"z. c #C47D6B",
"x. c #2D8346",
"c. c #2E8B48",
"v. c #328747",
"b. c #379250",
"n. c #3C975B",
"m. c #36A54E",
"M. c #36A94F",
"N. c #37AD51",
"B. c #38A852",
"V. c #36B351",
"C. c #39B452",
"Z. c #3E8661",
"A. c #518B4C",
"S. c #6D9851",
"D. c #47AF52",
"F. c #58AB53",
"G. c #48B954",
"H. c #57BB56",
"J. c #6DAC55",
"K. c #679175",
"L. c #79A863",
"P. c #69C45A",
"I. c #7BCB5D",
"U. c #BB8257",
"Y. c #9BB94E",
"T. c #82B95A",
"R. c #BFBA5B",
"E. c #9C866B",
"W. c #A48C6E",
"Q. c #BB8365",
"!. c #B19874",
"~. c #BCA177",
"^. c #CB8B5C",
"/. c #D9945F",
"(. c #DD9B5D",
"). c #DFA15B",
"_. c #E0A559",
"`. c #E3A959",
"'. c #E7B555",
"]. c #EABC53",
"[. c #C7856A",
"{. c #D18F60",
"}. c #DA9360",
"|. c #DF9860",
" X c #CA8670",
".X c #E3BC60",
"XX c #87C85E",
"oX c #86D05F",
"OX c #8CD361",
"+X c #95D562",
"@X c #99DA63",
"#X c #EEC54E",
"$X c #F6D64A",
"%X c #F8DE48",
"&X c #FFED44",
"*X c #FCE84A",
"=X c #FFF04C",
"-X c #FFEF54",
";X c #FEEF67",
":X c #FFF166",
">X c #FFF27A",
",X c #BDA983",
"<X c #C3AC82",
"1X c #D5B988",
"2X c #EDD78E",
"3X c #E4CE99",
"4X c #FFF488",
"5X c #F1E197",
"6X c #FFF596",
"7X c #E9DAA6",
"8X c #F1E4A8",
"9X c #FFF8B7",
"0X c #FFFBD7",
"qX c #FFFDE6",
"wX c #FFFFFB",
/* pixels */
"L.L.L.L.L.L.L.L.L.L.L.L.L.L.L.L.L.L.L.L.L.L.L.L.L.L.L.L.L.L.L.L.L.L.L.L.L.L.L.L.L.L.L.L.L.L.L.L.L.R.R.R.R.R.R.R.R.R.R.Y.Y.Y.Y.Y.",
"Y.Y.Y.L.L.L.L.L.L.L.L.L.L.L.L.L.L.L.L.L.K.K.K.K.L.L.L.L.L.L.L.L.L.L.L.L.L.L.L.L.L.L.L.L.L.Y.Y.Y.L.L.L.Y.R.R.R.R.R.R.Y.Y.Y.Y.Y.Y.",
"Y.Y.Y.Y.L.L.L.K.K.K.K.Y.Y.Y.Y.Y.Y.Y.Y.K.K.K.K.K.K.L.L.L.L.L.L.L.L.L.L.L.L.L.L.L.L.Y.Y.Y.Y.Y.Y.Y.Y.Y.Y.Y.Y.R.R.R.R.R.R.R.R.R.Y.Y.",
"Y.Y.Y.Y.L.K.K.K.K.K.K.K.Y.Y.K.K.K.K.K.K.K.K.K.K.K.L.K.K.K.L.L.L.L.L.L.L.L.L.L.L.L.L.L.L.L.L.Y.Y.Y.Y.Y.Y.Y.R.R.R.R.R.R.R.R.R.R.R.",
"R.Y.Y.Y.K.K.K.K.R.R.R.K.K.K.K.K.K.K.K.K.K.K.K.K.K.K.K.K.K.K.L.L.L.L.L.L.L.L.L.L.L.L.L.L.Y.Y.Y.Y.Y.Y.Y.Y.Y.Y.R.R.R.R.R.R.R.R.R.R.",
"R.R.R.K.K.K.K.R.R.R.R.R.K.K.R.R.R.R.K.K.K.K.R.R.R.R.K.K.K.K.K.L.L.L.L.L.L.L.L.L.L.L.Y.Y.Y.Y.Y.g.g.Y.Y.Y./.Y.R.R.R.R.R.Y.Y.Y.Y.Y.",
"Y.Y.R.R.R.R.R.R.R.R.R.R.R.R.R.R.R.R.R.K.K.R.R.R.R.R.R.R.K.K.K.L.L.L.L.L.L.L.Y.Y.Y.Y.Y.Y.Y.Y.{.{.{.g.R.R././././.R.R.Y.Y.Y.Y.Y.Y.",
"Y.Y.R.R.R.R.R.R.R.R.R.R.R.R.R.R.R.R.R.R.K.R.R.R.R.R.R.R.R.K.K.K.K.L.L.L.L.L.Y.Y.Y.Y.Y.Y.g.Q.Q.Q.Q.g.s.R.R./././././.Y.Y.Y.Y.Y.Y.",
"R.Y.R.R.R.R.R.R.R.R.R.R.R.R.R.R.R.R.R.R.R.R.R.R.R.R.R.R.R.R.K.R.R.R.R.R.R.Y.Y.Y.Y.Y.Y.s.s.s.s.Y.R.Y.Y.Y.R./.(.)././.Y.Y.Y.Y.R.R.",
"R.R.R.R.R.R.R.R.R.R.R.R.R.R.R.R.R.R.R.R.R.R.R.R.R.R.R.R.R.R.R.R.R.R.Y.Y.R.R.Y.Y.Y.Y.Y.s.Y.Y.Y.Y.Y.Y.Y.Y.Y.}.#X*X`././.Y.Y.R.R.R.",
"R.R.R.R.R.R.R.R.R.Y.Y.R.R.R.R.Y.Y.R.R.R.R.R.Y.Y.Y.R.R.R.R.R.R.R.R.Y.Y.Y.Y.R.Y.Y.Y.Y.Y.Y.Y.Y.Y.Y.Y.Y.Y.Y.Y./.].&X*X)./.Y.Y.R.R.R.",
"R.R.R.R.R.R.R.R.Y.Y.Y.Y.R.Y.Y.Y.Y.Y.Y.R.R.Y.Y.Y.Y.Y.R.R.R.Y.Y.Y.Y.Y.Y.Y.Y.Y.Y.Y.Y.Y.Y.Y.Y.Y.Y.Y.Y.Y.Y.Y././.(.%X&X`./.Y.Y.R.R.R.",
"R.R.R.R.R.R.R.R.Y.Y.Y.Y.Y.Y.Y.Y.Y.Y.Y.Y.R.Y.Y.Y.Y.Y.R.R.Y.Y.Y.Y.. - o Y.Y.Y.Y.Y.Y.Y.Y.Y.Y.R.R.R.R./././././.].].%X`.9.R.R.R.R.R.",
"Y.Y.Y.R.R.R.R.R.Y.Y.Y.Y.Y.Y.Y.Y.Y.Y.Y.Y.R.Y.Y.Y.Y.Y.Y.Y.Y.Y.X o 9 0.> Y.Y.Y.Y.Y.Y.Y.Y.Y.Y.Y.Y.Y./././././.].&X].(.|.*.R.R.R.R.R.",
"Y.Y.Y.Y.Y.Y.Y.Y.Y.Y.Y.Y.Y.Y.Y.Y.Y.Y.Y.Y.Y.Y.Y.Y.Y.Y.Y.Y.Y.X o b r.k.; Y.Y.Y.Y.Y.Y.Y.Y.Y.Y.Y.L././.}.}.(.].&X=X%X/./.^ Y.Y.Y.Y.Y.",
"Y.Y.Y.Y.Y.Y.Y.Y.Y.Y.Y.Y.Y.Y.Y.Y.Y.Y.Y.Y.Y.Y.Y.Y.Y.Y.Y.X X o b 5.r.Q.k X Y.Y.Y.Y.L.L.L.L.Y.L././.`.'.'.%X&X6X6X#X/.U.- Y.Y.Y.Y.Y.",
"Y.Y.Y.Y.Y.Y.Y.Y.Y.Y.Y.Y.Y.Y.Y.X . . L.L.Y.Y.Y.Y.Y.Y.X X + b j.j.8.z.q.o X Y.Y.L.L.L.L.L.L.^ }.`.*X&X&X=X=X9X;X_.}.~ X Y.Y.Y.Y.Y.",
"Y.Y.Y.Y.Y.Y.Y.Y.Y.Y.Y.Y.Y.Y.Y.X t t X L.L.Y.Y.L.L.X X - v ) k.[.r.f.[.[ + R.R.L.L.X X L.L.! (.*X&X-X4X9X&X=X%X).t.< Y.Y.Y.Y.Y.Y.",
"Y.Y.Y.Y.Y.Y.L.L.L.Y.Y.Y.Y.Y.Y.X A.XXt . L.L.L.X o + + + l B y.[.l.7.z.k.< X L.. $ $ X L.L.! ].&X&X>XwX4X&X%X_.|.^ L.L.Y.Y.Y.Y.Y.",
"L.L.Y.Y.Y.L.L.L.L.L.Y.Y.Y.Y.L.L.* I.A.o X X X ; h ,.1.9 , c B i.f.7.r.k.< X # r J.} X Y.o ^ $X&X6X9X0X-X%X_.}.9.- L.L.L.L.Y.Y.Y.",
"L.L.L.L.L.L.L.L.L.L.L.Y.Y.Y.Y.Y.# F.XX4 X X 2 m B ;.7.4.n 1 l V 4.7.8.<.$ # H oX@X| . Y.5 ^.$X:XqXqX:X&X].}.9.- Y.Y.Y.Y.Y.Y.Y.L.",
"L.L.L.L.L.L.L.L.L.L.L.Y.Y.Y.Y.L.% m.F.: . . a c v B ;.3.6.1.1.;.=.5.4.7 w b.H.+X+X} Y.Y.5 ^.$X4XqX9X&X$X(.9.- . Y.Y.Y.Y.L.L.L.L.",
"L.L.L.L.L.Y.Y.Y.L.L.L.L.Y.Y.L.L.% x.= - g b 7 o , g m B ;.3.6.5.,.1.Y C m.C.oX+X| o Y.Y.- 0..X5X6X>X&X$X9.- . Y.Y.Y.Y.Y.Y.Y.Y.Y.",
"Y.Y.Y.Y.Y.Y.Y.Y.Y.L.L.L.L.L.L.L.# % @ c B 3.4.&.b 1 x B N ( 1.5.4.z A O.B.G.OXXX4 X R.Y.. < ,X7X8X5X2X2X`   K.K.Y.Y.Y.Y.Y.Y.Y.Y.",
"Y.Y.Y.Y.Y.Y.Y.Y.Y.L.L.L.L.L.L.L.X - c B B ( ,.5.7.7.1.:.:.:.,.4.#.d L n.V.P.XXy X R.R.R.. R 1X7X8X7X1XE.` . K.K.K.Y.Y.Y.Y.Y.Y.Y.",
"Y.Y.Y.Y.Y.Y.Y.Y.Y.Y.L.L.L.L.Y.Y.. 2 B B B B B ( ,.3.5.6.6.6.6.6.<.L +.n.V.P.S.X X R.R.R.  ` 1X1X7X7X7XU : X R.R.K.K.K.Y.Y.Y.Y.Y.",
"Y.Y.Y.L.L.L.L.L.L.L.L.L.L.Y.Y.Y.X 2 B B B B B B B B ) 4.7.7.7.6.<.J +.n.V.P.t X X X R.R.   .3X` ` 1X3X~.5 . R.R.R.R.K.K.K.K.Y.Y.",
"L.L.L.L.L.L.L.L.L.L.L.L.L.Y.Y.X X + , ; ; ; ; a v B B ) ) >.4.4.1 C +.P N.F.4 - > X R.R.. R <Xw.$ ` ~.1XR . R.R.R.R.R.R.R.K.K.R.",
"R.R.R.R.R.R.R.R.L.L.L.L.L.Y.X X 0 i i i i q X X + s h v B =.>.4.7 $ K +.n.p @ <.h.5 X R.R.o > X.5 X > R $ X R.R.R.R.R.R.R.R.R.R.",
"R.R.R.R.R.R.R.R.R.R.R.R.L.X * v.H.I.H.V.C.M.x.= % $ X ; g ) 4.6.4.8 Z o.O.D 8 f. X[ . L.L.X X $ $ $ X X X L.L.L.R.R.Y.Y.Y.Y.Y.Y.",
"Y.Y.Y.Y.Y.Y.Y.Y.Y.Y.Y.Y.X * A.OX+XOXH.V.C.C.C.M.Z.J & X X s ;.7.6.5.4.4.e.j.k.[. X[ . L.L.L.$ Q _ T - X Y.Y.Y.Y.Y.Y.Y.Y.Y.Y.Y.Y.",
"Y.Y.Y.Y.Y.Y.Y.Y.Y.Y.Y.. 4 J.OX+XoXH.C.C.C.C.C.C.n.+.J 4 $ $ z 5.7.7.8.l.z.z.z.z. X[ . L.L.L.- @.u.] 5 . Y.Y.Y.Y.Y.Y.Y.Y.Y.Y.Y.Y.",
"R.Y.Y.Y.Y.Y.Y.Y.Y.Y.$ e b.I.I.P.G.m.G x.x.N.C.N.Z.+.+.K Z C + #.6.7.7.7.8.7.7.r.[.[ . L.Y.Y.- p.d.] 5 . Y.Y.Y.Y.Y.Y.Y.Y.Y.R.R.R.",
"R.R.Y.Y.Y.Y.Y.Y.Y.X = N.C.M.M.c.u 0 X X X q D Z.+.+.A d $ X X #.6.7.7.5.7.7.f.z.h.5 X L.L.L.- p.d.] 5 Y.Y.Y.Y.Y.Y.Y.Y.Y.R.R.R.R.",
"R.R.R.R.R.R.Y.Y.Y.X x.m.G * % $ . Y.X $ d & $ J +.+.L J d X X #.6.7.7.7.7.6.4.$.1 . X L.L.L.- p.@._ < L.L.Y.Y.Y.Y.R.R.R.R.R.R.R.",
"R.R.R.R.Y.Y.Y.Y.Y.X e 0 X X X Y.Y.Y.O Z +.K Z L +.+.+.K $ X ; / 4.5.5.5.3.n 7 2 s X Y.Y.Y.. - { ] I X Y.Y.Y.Y.Y.R.R.R.R.R.Y.Y.Y.",
"Y.R.Y.Y.Y.Y.Y.Y.Y.X X X Y.Y.Y.Y.Y.Y.$ K +.+.+.+.+.+.+.J d ; v ( -.1.:.;.-.( M ) v o Y.Y.# 0 % - - + X Y.Y.Y.Y.R.R.R.R.R.Y.Y.Y.Y.",
"Y.Y.Y.Y.Y.Y.Y.Y.Y.Y.Y.Y.Y.Y.R.R.R.R.X C +.+.+.+.+.+.A $ , v ) 3.7.7.7.7.7.6.6.6.#.o Y.Y.S N.e X & | t X Y.Y.Y.Y.Y.Y.Y.Y.Y.Y.Y.Y.",
"Y.Y.Y.Y.Y.Y.L.L.L.R.R.R.R.R.R.R.R.R.X X C +.+.+.K A : , v V 3.7.7.7.7.7.7.1.%.4.&.o Y.Y.c.x.$ } T.@X| X Y.Y.Y.Y.Y.Y.Y.Y.Y.Y.Y.Y.",
"Y.L.L.L.L.L.L.L.L.L.L.L.L.L.L.L.L.X + s , J +.K 4 3 x B B B :.3.7.7.7.7.6.b . 1 9 o Y.Y.i F : XX@XoXD.% Y.Y.Y.Y.Y.Y.Y.Y.Y.Y.Y.Y.",
"L.L.L.L.L.L.L.L.L.L.L.L.L.L.L.L.L.X s B m E J W c N B B B B N ) 5.7.7.7.7.1.7 @   X X X X % | oXI.G.M.% Y.Y.Y.Y.L.L.L.L.L.L.L.L.",
"L.L.L.L.L.L.L.L.L.L.L.L.L.L.L.L.X - c B B m g m B B B B B B B B >.6.6.6.6.6.7.$.9 o X X X X v.C.C.C.M.% Y.Y.Y.Y.Y.Y.Y.Y.L.L.L.L.",
"Y.Y.L.L.L.L.L.L.L.L.L.L.L.L.X * # , v B m v v v B B B B B B B v M &.&.&.&.&.7 1 1 X X X X X F C.C.C.S X Y.Y.Y.Y.Y.Y.Y.Y.Y.Y.Y.Y.",
"Y.Y.Y.Y.Y.Y.Y.L.L.Y.Y.Y.L.X u M.e X + g , o + - g g g g g h h ; o + + + + - R R T j X K.K.X % S F F = Y.Y.Y.Y.Y.Y.Y.Y.Y.Y.Y.Y.Y.",
"Y.Y.Y.Y.Y.Y.Y.Y.Y.Y.Y.Y.X q M.C.c.4 T ' 5 _ ..Q X - - - : j T a.W.u.u.W.E.X.!.W.d. .. K.K.X $ X X X X Y.Y.Y.Y.Y.Y.Y.Y.Y.Y.Y.Y.Y.",
"R.R.R.R.R.Y.Y.Y.Y.Y.Y.Y.. i C.C.M.4 I I - u.p.X.$ ..@.' p.Q j ..a... .a.w._ < $ $ $ X R.R.X j f - X Y.Y.Y.Y.Y.Y.Y.Y.Y.Y.Y.Y.Y.Y.",
"R.R.R.R.R.R.R.R.R.R.Y.Y.. u C.C.m.% X X X j Q 5 X 5 5 3 f : + + + + + + + + ; l l a X R.R.X ' u.5 X K.K.Y.Y.K.K.K.K.K.Y.Y.Y.Y.Y.",
"Y.R.R.R.R.R.R.R.R.R.R.R.X # p G D $ X - j $ $ 5 j $ @ 2 2 c m m m m m m m m ) -.-.=., X R.X I _ > X K.K.K.K.K.K.K.K.K.K.Y.Y.Y.Y.",
"Y.Y.Y.R.R.R.R.R.R.R.R.R.R.X X X X X $ T u.< o X.X.< @ v B B B B B B ) >.>.2.7.6.4.4.n o R.R.X X X R.R.K.K.K.K.K.R.R.K.K.K.Y.K.K.",
"K.Y.Y.Y.Y.Y.Y.Y.Y.Y.Y.Y.Y.Y.Y.Y.X - ' { I - X I { ' < s x x B B B B ( #.#.#.#.#.1 - - X R.R.K.R.R.R.R.R.K.K.K.R.R.R.R.K.K.K.K.K.",
"K.Y.Y.Y.Y.Y.Y.Y.Y.Y.Y.Y.Y.Y.R.R.R.f p.j X X X $ f u.R X X + 3 a 3 a , X X X X X X R.R.R.R.R.R.R.R.R.R.R.R.R.R.R.R.R.R.K.K.R.R.K.",
"K.K.K.R.R.Y.Y.Y.Y.Y.Y.Y.Y.R.R.R.R.$ > X X X X X . - $ X R.X X X X X X X X X X X L.L.L.R.R.R.R.R.R.R.R.R.R.R.R.R.R.R.R.R.R.R.R.R.",
"R.R.R.R.R.R.R.Y.Y.Y.Y.Y.Y.Y.Y.Y.R.R.X X X X L.L.L.X X X Y.Y.Y.Y.Y.Y.Y.R.Y.X X X L.L.L.L.R.R.R.Y.Y.Y.Y.R.R.R.R.R.Y.Y.Y.R.R.R.R.R.",
"R.R.R.R.R.R.R.R.R.Y.Y.Y.Y.Y.Y.Y.Y.Y.X X X Y.L.L.L.L.L.L.L.L.L.Y.Y.Y.Y.Y.Y.X X X L.L.L.L.L.L.L.L.L.Y.Y.Y.R.R.R.Y.Y.Y.Y.Y.R.R.R.R.",
"R.R.R.R.Y.Y.Y.R.R.R.Y.Y.Y.Y.Y.Y.Y.Y.X X X L.L.L.L.L.L.L.L.L.L.L.Y.Y.Y.Y.Y.X X X X X L.L.L.L.L.L.L.L.Y.Y.R.R.R.Y.Y.Y.Y.Y.Y.Y.R.R.",
"R.R.R.Y.Y.Y.Y.Y.R.R.R.R.Y.Y.Y.Y.Y.Y.X X X L.L.L.L.Y.Y.L.L.L.L.L.L.Y.Y.L.L.L.X X X X L.L.L.L.L.L.L.L.Y.Y.R.Y.Y.Y.Y.Y.Y.Y.Y.Y.Y.Y.",
"Y.Y.Y.Y.Y.Y.Y.Y.Y.Y.Y.Y.Y.Y.Y.Y.Y.Y.L.L.L.L.L.Y.Y.Y.Y.Y.L.L.L.L.L.L.L.L.L.L.L.L.L.L.L.L.L.L.L.L.L.L.L.L.Y.Y.Y.Y.Y.Y.Y.Y.Y.Y.Y.Y.",
"Y.Y.Y.Y.Y.Y.Y.Y.Y.Y.Y.Y.Y.Y.Y.Y.Y.Y.Y.Y.Y.Y.Y.Y.Y.Y.Y.Y.L.L.L.L.L.L.L.L.L.L.L.L.L.L.L.L.L.Y.Y.Y.L.L.L.L.L.L.L.L.L.L.Y.Y.Y.Y.Y.Y.",
"Y.Y.Y.Y.Y.Y.Y.L.L.L.Y.Y.Y.Y.Y.Y.Y.Y.Y.Y.Y.Y.Y.Y.Y.Y.Y.Y.L.L.Y.Y.L.L.L.L.L.L.L.Y.Y.Y.L.L.Y.Y.Y.Y.Y.L.L.L.L.L.L.Y.Y.Y.Y.Y.Y.Y.Y.Y.",
"Y.Y.Y.Y.Y.Y.L.L.L.L.L.Y.Y.Y.Y.Y.Y.Y.Y.Y.Y.Y.Y.Y.Y.Y.Y.L.L.Y.Y.Y.Y.L.L.L.L.Y.Y.Y.Y.Y.Y.L.Y.Y.Y.Y.Y.L.L.L.Y.Y.Y.Y.Y.Y.Y.Y.Y.Y.Y.Y.",
"Y.Y.Y.Y.Y.Y.L.L.L.L.L.L.Y.Y.Y.L.L.L.Y.Y.Y.Y.Y.Y.Y.Y.Y.Y.Y.Y.Y.Y.Y.Y.Y.Y.Y.Y.Y.Y.Y.Y.Y.Y.Y.Y.Y.Y.Y.Y.Y.Y.Y.Y.Y.Y.R.R.Y.Y.Y.Y.Y.Y.",
"Y.Y.Y.Y.Y.Y.L.L.L.L.L.L.L.L.L.L.L.L.L.Y.Y.Y.Y.Y.Y.Y.Y.Y.Y.Y.Y.Y.Y.Y.Y.Y.Y.Y.Y.Y.Y.Y.Y.Y.Y.Y.Y.R.R.R.R.Y.Y.Y.Y.R.R.R.R.Y.Y.Y.Y.Y.",
"Y.Y.Y.L.L.L.L.L.L.L.L.L.L.L.L.L.L.L.L.L.Y.Y.Y.Y.Y.Y.Y.Y.Y.Y.Y.Y.Y.L.L.L.L.Y.Y.Y.Y.Y.Y.Y.Y.R.R.R.R.R.R.R.R.R.R.R.R.R.R.R.R.Y.Y.Y.",
"L.L.L.L.L.L.L.L.L.L.L.L.L.L.L.L.L.L.L.L.L.Y.Y.Y.Y.L.L.L.L.Y.Y.L.L.L.L.L.L.L.L.L.L.L.Y.Y.L.L.L.L.R.R.R.R.R.R.R.R.R.R.R.R.R.R.L.L."
};
