/* XPM */
static const char *goblin7_L[] = {
/* columns rows colors chars-per-pixel */
"64 64 216 2 ",
"   c #0F162B",
".  c #0F1A2C",
"X  c #14172C",
"o  c #151B2E",
"O  c #191D2F",
"+  c #1C1E31",
"@  c #211F32",
"#  c #17222F",
"$  c #1C202F",
"%  c #1C2231",
"&  c #1A2B32",
"*  c #1B2935",
"=  c #1B3233",
"-  c #1D3B35",
";  c #222334",
":  c #282636",
">  c #242B34",
",  c #2C2A36",
"<  c #2B2439",
"1  c #2D2D39",
"2  c #382736",
"3  c #312C36",
"4  c #31263D",
"5  c #352A3E",
"6  c #3A2A38",
"7  c #263539",
"8  c #36333D",
"9  c #3A353A",
"0  c #3A353E",
"q  c #462D3A",
"w  c #4A333B",
"e  c #52333D",
"r  c #1E4237",
"t  c #1F4838",
"y  c #1F513A",
"u  c #214C39",
"i  c #2D4B3A",
"p  c #314339",
"a  c #384D3C",
"s  c #22533B",
"d  c #235B3C",
"f  c #26633E",
"g  c #362940",
"h  c #3D2B44",
"j  c #253A43",
"k  c #3D3941",
"l  c #432E47",
"z  c #462F48",
"x  c #433E44",
"c  c #4F3E43",
"v  c #4B314B",
"b  c #593644",
"n  c #52344E",
"m  c #573652",
"M  c #5E3955",
"N  c #673A43",
"B  c #713D47",
"V  c #623A57",
"C  c #6D3D52",
"Z  c #663C5A",
"A  c #6A3D5B",
"S  c #713F54",
"D  c #2C4A4C",
"F  c #334C4F",
"G  c #345857",
"H  c #296843",
"J  c #326747",
"K  c #297242",
"L  c #2C7C44",
"P  c #337544",
"I  c #3A625E",
"U  c #3C6761",
"Y  c #3D6A63",
"T  c #3F7E64",
"R  c #4D4449",
"E  c #4E4B4A",
"W  c #58474A",
"Q  c #53494C",
"!  c #5B544D",
"~  c #584C56",
"^  c #485B5F",
"/  c #5E5052",
"(  c #644C42",
")  c #6D5144",
"_  c #74554B",
"`  c #774156",
"'  c #74405A",
"]  c #7C435A",
"[  c #635453",
"{  c #635A51",
"}  c #6B5A57",
"|  c #6D5B59",
" . c #735350",
".. c #715E5A",
"X. c #4C6E45",
"o. c #557A48",
"O. c #6C655A",
"+. c #74635A",
"@. c #7A655E",
"#. c #7A6959",
"$. c #486E67",
"%. c #477E64",
"&. c #417269",
"*. c #7E6860",
"=. c #834349",
"-. c #87474B",
";. c #90484C",
":. c #9C4C4E",
">. c #814457",
",. c #854659",
"<. c #894758",
"1. c #8D4958",
"2. c #9E4D56",
"3. c #944B58",
"4. c #895654",
"5. c #A24E52",
"6. c #A04E58",
"7. c #A75056",
"8. c #AC5254",
"9. c #A95457",
"0. c #B55555",
"q. c #B95655",
"w. c #B75857",
"e. c #B95B58",
"r. c #956A4E",
"t. c #91635A",
"y. c #82725E",
"u. c #B9645D",
"i. c #AB7753",
"p. c #B87F57",
"a. c #846D62",
"s. c #8C7466",
"d. c #8C7963",
"f. c #987768",
"g. c #BE6E62",
"h. c #AD7565",
"j. c #BB7A69",
"k. c #C37867",
"l. c #C37C6A",
"z. c #2D8346",
"x. c #2E8B48",
"c. c #328747",
"v. c #35964B",
"b. c #3A8A59",
"n. c #3C975B",
"m. c #36A54E",
"M. c #36A94F",
"N. c #37AD51",
"B. c #38A852",
"V. c #36B351",
"C. c #39B452",
"Z. c #3E8661",
"A. c #518B4C",
"S. c #6D9851",
"D. c #47AF52",
"F. c #58AB53",
"G. c #48B954",
"H. c #57BB56",
"J. c #6DAC55",
"K. c #679175",
"L. c #79A863",
"P. c #69C45A",
"I. c #7BCB5D",
"U. c #BD8358",
"Y. c #9BB94E",
"T. c #82B95A",
"R. c #BFBA5B",
"E. c #9C866B",
"W. c #A48C6E",
"Q. c #B19874",
"!. c #B5A07B",
"~. c #CC8C5C",
"^. c #D18F5D",
"/. c #D69F57",
"(. c #D6935E",
"). c #D9945F",
"_. c #DC9A5D",
"`. c #C1A75A",
"'. c #DFA15B",
"]. c #E3AA59",
"[. c #E7B455",
"{. c #EABB53",
"}. c #C6826D",
"|. c #DA9360",
" X c #CA8670",
".X c #87C85E",
"XX c #86D05F",
"oX c #8CD361",
"OX c #95D562",
"+X c #99DA63",
"@X c #EFC94F",
"#X c #F1CD4E",
"$X c #F5D649",
"%X c #EDC450",
"&X c #FBE446",
"*X c #FEEC44",
"=X c #FFEE4C",
"-X c #FFEF58",
";X c #FFF155",
":X c #FFF165",
">X c #F4E17E",
",X c #FFF377",
"<X c #C3AC82",
"1X c #D6B988",
"2X c #E4CE99",
"3X c #ECD794",
"4X c #FFF48A",
"5X c #F0E19F",
"6X c #FFF594",
"7X c #E8D9A4",
"8X c #F0DFB0",
"9X c #F1E4A8",
"0X c #FFF9BE",
"qX c #FFFCDC",
"wX c #FFFDE6",
"eX c #FFFEF5",
/* pixels */
"L.L.L.L.L.L.L.L.L.L.L.L.L.L.L.L.L.L.L.L.L.L.L.L.L.L.L.L.L.L.L.L.L.L.L.L.L.L.L.L.L.L.L.L.L.L.L.L.L.R.R.R.R.R.R.f.f.R.R.Y.Y.Y.Y.Y.",
"Y.Y.Y.L.L.L.L.L.L.L.L.L.L.L.L.L.L.L.L.L.K.K.K.K.L.L.L.L.L.L.L.L.L.L.L.L.L.L.L.L.L.L.L.L.L.Y.Y.Y.L.L.L.Y.R.R.R.R.R.R.Y.Y.Y.Y.Y.Y.",
"Y.Y.Y.Y.L.L.L.K.K.K.K.Y.Y.Y.Y.Y.Y.Y.Y.K.K.K.K.K.K.L.L.L.L.L.L.L.L.L.L.L.L.L.L.L.L.Y.Y.Y.Y.Y.Y.Y.Y.Y.Y.Y.Y.R.R.R.R.R.R.R.R.R.Y.Y.",
"Y.Y.Y.Y.L.K.K.K.K.K.K.K.Y.Y.K.K.K.K.K.K.K.K.K.K.K.L.K.K.K.L.L.L.L.L.L.L.L.L.L.L.L.L.L.L.L.L.Y.Y.Y.Y.Y.Y.Y.R.R.R.R.R.R.R.R.R.R.R.",
"R.Y.Y.Y.K.K.K.K.R.R.R.K.K.K.K.K.K.K.K.K.K.K.K.K.K.K.K.K.K.K.L.L.L.L.L.L.L.L.L.L.L.L.L.L.Y.Y.Y.Y.Y.Y.Y.Y.Y.Y.R.R.R.R.R.R.R.R.R.R.",
"R.R.R.K.K.K.K.R.R.R.R.R.K.K.R.R.R.R.K.K.K.K.R.R.R.R.K.K.K.K.K.L.L.L.L.L.L.L.L.L.L.L.Y.).).).).Y.Y.Y.Y.Y.Y.Y.R.R.R.R.R.Y.Y.Y.Y.Y.",
"Y.Y.R.R.R.R.R.R.R.R.R.R.R.R.R.R.R.R.R.K.K.R.R.R.R.R.R.R.K.K.K.L.L.L.L.L.L.L.Y.Y.Y.Y.).|.Y.Y.Y.Y.Y.Y.R.R.Y.R.R.R.R.R.Y.Y.Y.Y.Y.Y.",
"Y.Y.R.R.R.R.R.R.R.R.R.R.R.R.R.R.R.R.R.R.K.R.R.R.R.R.R.R.R.K.K.K.K.L.L.L.L.L.Y.Y.Y.Y._.#XY.Y.Y.Y.Y.R.R.R.R.R.R.R.Y.Y.Y.Y.Y.Y.Y.Y.",
"R.Y.R.R.R.R.R.R.R.R.R.R.R.R.R.R.R.R.R.R.R.R.R.R.R.R.R.R.R.R.K.R.R.R.R.R.R.Y.Y.Y.Y.Y._.&X$X_.).).).).Y.Y.R.R.R.Y.Y.Y.Y.Y.Y.Y.R.R.",
"R.R.R.R.R.R.R.R.R.R.R.R.R.R.R.R.R.R.R.R.R.R.R.R.R.R.R.R.R.R.R.R.R.R.Y.Y.R.R.Y.Y.Y.Y.).].{.).).).).).).).Y.Y.Y.Y.Y.Y.Y.Y.Y.R.R.R.",
"R.R.R.R.R.R.R.R.R.Y.Y.R.R.R.R.Y.Y.R.R.R.R.R.Y.Y.Y.R.R.R.R.R.R.R.R.Y.Y.Y.Y.R.Y.Y.Y.Y.).).|.Y.).).%X@X'.).).).(.Y.R.R.Y.Y.Y.R.R.R.",
"R.R.R.R.R.R.R.R.Y.Y.Y.Y.R.Y.Y.Y.Y.Y.Y.R.R.Y.Y.Y.Y.Y.R.R.R.Y.Y.Y.Y.Y.Y.Y.Y.Y.Y.Y.Y.Y.Y.).).Y.Y.).{.&X&X[.).).^.w R.R.R.Y.Y.R.R.R.",
"R.R.R.R.R.R.R.R.Y.Y.Y.Y.Y.Y.Y.Y.Y.Y.Y.Y.R.Y.Y.Y.Y.Y.R.R.Y.Y.Y.Y.X ; O Y.Y.Y.Y.Y.Y.Y.Y.Y.).R.R.)._.&X*X&X[.).).r.R.R.R.R.R.R.R.R.",
"Y.Y.Y.R.R.R.R.R.Y.Y.Y.Y.Y.Y.Y.Y.Y.Y.Y.Y.R.Y.Y.Y.Y.Y.Y.Y.Y.Y.O O e t., Y.Y.Y.Y.Y.Y.Y.Y.Y.Y.).Y.)._.#X*X*X&X'.|.i.% R.R.R.R.R.R.R.",
"Y.Y.Y.Y.Y.Y.Y.Y.Y.Y.Y.Y.Y.Y.Y.Y.Y.Y.Y.Y.Y.Y.Y.Y.Y.Y.Y.Y.Y.O O N w.g.: Y.Y.Y.Y.Y.Y.Y.Y.Y.Y.Y.L.(.|.[.*X=X*X@X|.i.% Y.Y.Y.Y.Y.Y.Y.",
"Y.Y.Y.Y.Y.Y.Y.Y.Y.Y.Y.Y.Y.Y.Y.Y.Y.Y.Y.Y.Y.Y.Y.Y.Y.Y.Y.O O O N 0.0.g.c o Y.Y.Y.Y.L.L.L.L.Y.L., ~.|.[.=X0X:X$X_.i.% Y.Y.Y.Y.Y.Y.Y.",
"Y.Y.Y.Y.Y.Y.Y.Y.Y.Y.Y.Y.Y.Y.Y.O X X L.L.Y.Y.Y.Y.Y.Y.O O + N u.0.0.u.t.O o Y.Y.L.L.L.L.L.L.L._ (._.#X=XwX6X$X(.( O Y.Y.Y.Y.Y.Y.Y.",
"Y.Y.Y.Y.Y.Y.Y.Y.Y.Y.Y.Y.Y.Y.Y.o p p o L.L.Y.Y.L.L.O O ; M 6.k.g.0.w.l. .+ R.R.L.L.O O L.L.( (.)._.&X*X,X,X$X(.9 X Y.Y.Y.Y.Y.Y.Y.",
"Y.Y.Y.Y.Y.Y.L.L.L.Y.Y.Y.Y.Y.Y.o A..Xp X L.L.L.o O ; + + v ,.u.}.w.0.g.j., o L.X % % O L.X ( |.).{.&X4X;X*X$X(.9 X L.L.Y.Y.Y.Y.Y.",
"L.L.Y.Y.Y.L.L.L.L.L.Y.Y.Y.Y.L.L.= I.A.O o O O : N 5.5.e < n 1.g.g.0.u.j.3 o # i J.X.X Y.3 U.)._.$X,XwX-X*X].p.3 L.L.L.L.L.Y.Y.Y.",
"L.L.L.L.L.L.L.L.L.L.L.Y.Y.Y.Y.Y.# F..X7 o o 4 Z ] 8.q.8.B 6 b 7.q.0.e.4.% # P XX+Xo.X Y., ~.|.[.=X0XeX-X&X].) X Y.Y.Y.Y.Y.Y.Y.L.",
"L.L.L.L.L.L.L.L.L.L.L.Y.Y.Y.Y.L.& m.F.> X X g m M ] 8.q.q.5.:.3.2.0.8.q y v.H.OXOXX.Y.Y., ~.].&X:XqXqX;X%Xr.: Y.Y.Y.Y.Y.L.L.L.L.",
"L.L.L.L.L.Y.Y.Y.L.L.L.L.Y.Y.L.L.& z.- ; l N q O < l ' 3.0.q.q.0.3.5.W D m.C.XXOXo.O Y.Y.3 i.`.>X6X4X6X&X/.3 Y.Y.Y.Y.Y.Y.Y.Y.Y.Y.",
"Y.Y.Y.Y.Y.Y.Y.Y.Y.L.L.L.L.L.L.L.# & @ m A 7.8.:.N 2 n Z <.7.0.0.8.b G %.B.G.oX.X7 o R.Y.$ 8 !.8X9X5X5X3X#.O K.K.Y.Y.Y.Y.Y.Y.Y.Y.",
"Y.Y.Y.Y.Y.Y.Y.Y.Y.L.L.L.L.L.L.L.o ; m A A ' 3.0.0.0.5.1.1.3.0.q.=.j Y n.V.P..Xa o R.R.R.  ! 1X8X9X7X1XE.{   K.K.K.Y.Y.Y.Y.Y.Y.Y.",
"Y.Y.Y.Y.Y.Y.Y.Y.Y.Y.L.L.L.L.Y.Y.X 4 A A A A Z >.8.0.q.q.q.q.0.q.4.Y &.n.V.P.S.O O R.R.R.  { 1X1X7X7X7XE > o R.R.K.K.K.Y.Y.Y.Y.Y.",
"Y.Y.Y.L.L.L.L.L.L.L.L.L.L.Y.Y.Y.O 4 A A A A A A A <.3.8.0.0.0.q.4.I &.n.V.P.p o o O R.R.  O.2X{ { 1X2X!.0 X R.R.R.R.K.K.K.K.Y.Y.",
"L.L.L.L.L.L.L.L.L.L.L.L.L.Y.Y.O o + < < < < < 5 M Z A ] 8.8.8.8.2 D &.T N.F.7 ; , o R.R.X ! <X*.; { !.1X! X R.R.R.R.R.R.R.K.K.R.",
"R.R.R.R.R.R.R.R.L.L.L.L.L.Y.o o r d d d d t o o + h z V A >.2.8.q % U &.n.f @ 4.h.0 o R.R.O , #.0 o , ! % O R.R.R.R.R.R.R.R.R.R.",
"R.R.R.R.R.R.R.R.R.R.R.R.L.o = c.H.I.H.V.C.M.z.- & % o : l ] 8.0.8.w F $.%.J w g. X .X L.L.O O % % % o o O L.L.L.R.R.Y.Y.Y.Y.Y.Y.",
"Y.Y.Y.Y.Y.Y.Y.Y.Y.Y.Y.Y.o = A.oXOXoXH.V.V.C.C.M.b.I * o O h <.0.q.0.8.8.9.u.j.}. X .X L.L.L.% / [ Q ; O Y.Y.Y.Y.Y.Y.Y.Y.Y.Y.Y.Y.",
"Y.Y.Y.Y.Y.Y.Y.Y.Y.Y.Y.X 7 J.oXOXXXH.C.C.C.C.C.C.n.&.U 7 % % b 0.0.0.0.0.e.k.l.l. X .X L.L.L.; *.a.| 8 X Y.Y.Y.Y.Y.Y.Y.Y.Y.Y.Y.Y.",
"R.Y.Y.Y.Y.Y.Y.Y.Y.Y.% u v.I.I.P.G.m.L z.z.N.C.N.Z.&.&.Y F D % =.q.0.0.0.0.w.w.u.}. .X L.Y.Y.; s.f.| 8 X Y.Y.Y.Y.Y.Y.Y.Y.Y.R.R.R.",
"R.R.Y.Y.Y.Y.Y.Y.Y.o - N.C.M.M.x.s r o o O t J Z.&.&.G j % O o =.q.0.0.0.e.g.g.k.h.9 o L.L.L.; s.f.| 0 Y.Y.Y.Y.Y.Y.Y.Y.Y.R.R.R.R.",
"R.R.R.R.R.R.Y.Y.Y.O z.m.L = & % X Y.o % j * % I &.&.Y I j o o =.q.0.0.0.0.e.0.-.6 X O L.L.L.; s.*.[ 1 L.L.Y.Y.Y.Y.R.R.R.R.R.R.R.",
"R.R.R.R.Y.Y.Y.Y.Y.O u r o o o Y.Y.Y.O F &.Y F Y &.&.&.U % o < ` 8.0.0.0.7.B q 4 h O Y.Y.Y.X ; ..| R O Y.Y.Y.Y.Y.R.R.R.R.R.Y.Y.Y.",
"Y.R.Y.Y.Y.Y.Y.Y.Y.O o o Y.Y.Y.Y.Y.Y.% Y &.&.&.&.&.&.&.I j < M ' ,.5.1.<.,.` C ] M O Y.Y.# r & ; ; + o Y.Y.Y.Y.R.R.R.R.R.Y.Y.Y.Y.",
"Y.Y.Y.Y.Y.Y.Y.Y.Y.Y.Y.Y.Y.Y.R.R.R.R.O D &.&.&.&.&.&.G % < M ] 8.0.0.0.0.0.0.q.q.=.O Y.Y.H N.u o & o.p o Y.Y.Y.Y.Y.Y.Y.Y.Y.Y.Y.Y.",
"Y.Y.Y.Y.Y.Y.L.L.L.R.R.R.R.R.R.R.R.R.o O D &.&.&.Y G > < M ' 8.0.0.0.0.0.0.5.;.8.:.O Y.Y.x.z.% X.T.+Xo.O Y.Y.Y.Y.Y.Y.Y.Y.Y.Y.Y.Y.",
"Y.L.L.L.L.L.L.L.L.L.L.L.L.L.L.L.L.O + h < I &.Y 7 5 n A A A 1.8.0.0.0.0.q.N X 6 e O Y.Y.d K > .X+XXXD.& Y.Y.Y.Y.Y.Y.Y.Y.Y.Y.Y.Y.",
"L.L.L.L.L.L.L.L.L.L.L.L.L.L.L.L.L.o h A V ~ I ^ m Z A A A A Z ] 0.0.0.0.0.5.q ; . O O O O & o.XXI.G.M.& Y.Y.Y.Y.L.L.L.L.L.L.L.L.",
"L.L.L.L.L.L.L.L.L.L.L.L.L.L.L.L.o ; m A A V l V A A A A A A A A 2.q.q.q.q.q.0.-.e O O O O o c.C.C.C.M.& Y.Y.Y.Y.Y.Y.Y.Y.L.L.L.L.",
"Y.Y.L.L.L.L.L.L.L.L.L.L.L.L.O = # < M A V M M M A A A A A A A M S :.:.:.:.:.q 2 2 o O O O o K C.C.C.H O Y.Y.Y.Y.Y.Y.Y.Y.Y.Y.Y.Y.",
"Y.Y.Y.Y.Y.Y.Y.L.L.Y.Y.Y.L.o s M.u o + l < O + ; l l l l l z z < O + + + + % ! ! Q x o K.K.o & H K K - Y.Y.Y.Y.Y.Y.Y.Y.Y.Y.Y.Y.Y.",
"Y.Y.Y.Y.Y.Y.Y.Y.Y.Y.Y.Y.o t M.C.x.7 Q } 0 [ +./ O ; ; ; : x Q d.W.a.a.W.E.@.Q.W.f.O.X K.K.O % o o o o Y.Y.Y.Y.Y.Y.Y.Y.Y.Y.Y.Y.Y.",
"R.R.R.R.R.Y.Y.Y.Y.Y.Y.Y.X d C.C.M.7 R R ; a.s.@.% +.*.} s./ x #.d.+.+.d.y.[ 1 % % % O R.R.O x k ; O Y.Y.Y.Y.Y.Y.Y.Y.Y.Y.Y.Y.Y.Y.",
"R.R.R.R.R.R.R.R.R.R.Y.Y.X s C.C.m.& o o o x / 0 o 8 0 3 k : + + + + + + + + < v v g O R.R.O [ a.8 o K.K.Y.Y.K.K.K.K.K.Y.Y.Y.Y.Y.",
"Y.R.R.R.R.R.R.R.R.R.R.R.o # f L J % o ; x % % 0 x % @ 4 4 m V V V V V V V V ] ,.,.>.< X R.O R [ , o K.K.K.K.K.K.K.K.K.K.Y.Y.Y.Y.",
"Y.Y.Y.R.R.R.R.R.R.R.R.R.R.O o o o o % Q a., O @.@.1 ; M A A A A A A ] 2.2.2.0.q.8.8.B O R.R.o o O R.R.K.K.K.K.K.R.R.K.K.K.Y.K.K.",
"K.Y.Y.Y.Y.Y.Y.Y.Y.Y.Y.Y.Y.Y.Y.Y.o ; } ..R % O R ..} 1 h n n A A A A S =.=.=.=.=.6 ; ; O R.R.K.R.R.R.R.R.K.K.K.R.R.R.R.K.K.K.K.K.",
"K.Y.Y.Y.Y.Y.Y.Y.Y.Y.Y.Y.Y.Y.R.R.R.k s.x o O o % k a.! X O + 5 g g g < o o o o o O R.R.R.R.R.R.R.R.R.R.R.R.R.R.R.R.R.R.K.K.R.R.K.",
"K.K.K.R.R.Y.Y.Y.Y.Y.Y.Y.Y.R.R.R.R.% > O O O O o X ; % O R.O o X o X o O O O O O L.L.L.R.R.R.R.R.R.R.R.R.R.R.R.R.R.R.R.R.R.R.R.R.",
"R.R.R.R.R.R.R.Y.Y.Y.Y.Y.Y.Y.Y.Y.R.R.o O O O L.L.L.o o O Y.Y.Y.Y.Y.Y.Y.R.Y.O O O L.L.L.L.R.R.R.Y.Y.Y.Y.R.R.R.R.R.Y.Y.Y.R.R.R.R.R.",
"R.R.R.R.R.R.R.R.R.Y.Y.Y.Y.Y.Y.Y.Y.Y.O O O Y.L.L.L.L.L.L.L.L.L.Y.Y.Y.Y.Y.Y.O O O L.L.L.L.L.L.L.L.L.Y.Y.Y.R.R.R.Y.Y.Y.Y.Y.R.R.R.R.",
"R.R.R.R.Y.Y.Y.R.R.R.Y.Y.Y.Y.Y.Y.Y.Y.O O O L.L.L.L.L.L.L.L.L.L.L.Y.Y.Y.Y.Y.O O O O O L.L.L.L.L.L.L.L.Y.Y.R.R.R.Y.Y.Y.Y.Y.Y.Y.R.R.",
"R.R.R.Y.Y.Y.Y.Y.R.R.R.R.Y.Y.Y.Y.Y.Y.O O O L.L.L.L.Y.Y.L.L.L.L.L.L.Y.Y.L.L.L.O O O O L.L.L.L.L.L.L.L.Y.Y.R.Y.Y.Y.Y.Y.Y.Y.Y.Y.Y.Y.",
"Y.Y.Y.Y.Y.Y.Y.Y.Y.Y.Y.Y.Y.Y.Y.Y.Y.Y.L.L.L.L.L.Y.Y.Y.Y.Y.L.L.L.L.L.L.L.L.L.L.L.L.L.L.L.L.L.L.L.L.L.L.L.L.Y.Y.Y.Y.Y.Y.Y.Y.Y.Y.Y.Y.",
"Y.Y.Y.Y.Y.Y.Y.Y.Y.Y.Y.Y.Y.Y.Y.Y.Y.Y.Y.Y.Y.Y.Y.Y.Y.Y.Y.Y.L.L.L.L.L.L.L.L.L.L.L.L.L.L.L.L.L.Y.Y.Y.L.L.L.L.L.L.L.L.L.L.Y.Y.Y.Y.Y.Y.",
"Y.Y.Y.Y.Y.Y.Y.L.L.L.Y.Y.Y.Y.Y.Y.Y.Y.Y.Y.Y.Y.Y.Y.Y.Y.Y.Y.L.L.Y.Y.L.L.L.L.L.L.L.Y.Y.Y.L.L.Y.Y.Y.Y.Y.L.L.L.L.L.L.Y.Y.Y.Y.Y.Y.Y.Y.Y.",
"Y.Y.Y.Y.Y.Y.L.L.L.L.L.Y.Y.Y.Y.Y.Y.Y.Y.Y.Y.Y.Y.Y.Y.Y.Y.L.L.Y.Y.Y.Y.L.L.L.L.Y.Y.Y.Y.Y.Y.L.Y.Y.Y.Y.Y.L.L.L.Y.Y.Y.Y.Y.Y.Y.Y.Y.Y.Y.Y.",
"Y.Y.Y.Y.Y.Y.L.L.L.L.L.L.Y.Y.Y.L.L.L.Y.Y.Y.Y.Y.Y.Y.Y.Y.Y.Y.Y.Y.Y.Y.Y.Y.Y.Y.Y.Y.Y.Y.Y.Y.Y.Y.Y.Y.Y.Y.Y.Y.Y.Y.Y.Y.Y.R.R.Y.Y.Y.Y.Y.Y.",
"Y.Y.Y.Y.Y.Y.L.L.L.L.L.L.L.L.L.L.L.L.L.Y.Y.Y.Y.Y.Y.Y.Y.Y.Y.Y.Y.Y.Y.Y.Y.Y.Y.Y.Y.Y.Y.Y.Y.Y.Y.Y.Y.R.R.R.R.Y.Y.Y.Y.R.R.R.R.Y.Y.Y.Y.Y.",
"Y.Y.Y.L.L.L.L.L.L.L.L.L.L.L.L.L.L.L.L.L.Y.Y.Y.Y.Y.Y.Y.Y.Y.Y.Y.Y.Y.L.L.L.L.Y.Y.Y.Y.Y.Y.Y.Y.R.R.R.R.R.R.R.R.R.R.R.R.R.R.R.R.Y.Y.Y.",
"L.L.L.L.L.L.L.L.L.L.L.L.L.L.L.L.L.L.L.L.L.Y.Y.Y.Y.L.L.L.L.Y.Y.L.L.L.L.L.L.L.L.L.L.L.Y.Y.L.L.L.L.R.R.R.R.R.R.R.R.R.R.R.R.R.R.L.L."
};
