/* XPM */
static const char *goblin3_R[] = {
/* columns rows colors chars-per-pixel */
"64 64 215 2 ",
"   c #0F182C",
".  c #14172D",
"X  c #151B2D",
"o  c #181D2F",
"O  c #1C1E31",
"+  c #201E34",
"@  c #17212F",
"#  c #1B2231",
"$  c #1A2C32",
"%  c #1A2B34",
"&  c #1B3333",
"*  c #1B3834",
"=  c #232234",
"-  c #2A2335",
";  c #262A35",
":  c #2A2A36",
">  c #2D243A",
",  c #212C39",
"<  c #2D2D39",
"1  c #352937",
"2  c #31263C",
"3  c #332C3D",
"4  c #263637",
"5  c #35333D",
"6  c #3A353B",
"7  c #3C333C",
"8  c #452D3A",
"9  c #46363C",
"0  c #55323D",
"q  c #5A333E",
"w  c #1F4337",
"e  c #1F4838",
"r  c #204638",
"t  c #224C3A",
"y  c #364B3B",
"u  c #23553B",
"i  c #245B3D",
"p  c #37563D",
"a  c #31613F",
"s  c #53413D",
"d  c #3B2B42",
"f  c #263C44",
"g  c #323845",
"h  c #3E3A40",
"j  c #432D46",
"k  c #462F48",
"l  c #482F49",
"z  c #423D43",
"x  c #463548",
"c  c #4B314B",
"v  c #553648",
"b  c #563551",
"n  c #593752",
"m  c #5D3955",
"M  c #5F3958",
"N  c #633740",
"B  c #643942",
"V  c #6D3B43",
"C  c #723D44",
"Z  c #613A56",
"A  c #6B3D57",
"S  c #643B59",
"D  c #6A3D5B",
"F  c #703F5B",
"G  c #2B464B",
"H  c #304F51",
"J  c #355A58",
"K  c #326A4B",
"L  c #2B7C44",
"P  c #3B6761",
"I  c #3C6A63",
"U  c #3E7A65",
"Y  c #494346",
"T  c #4A4247",
"R  c #534B4B",
"E  c #5A494B",
"W  c #5D534E",
"Q  c #484453",
"!  c #5A4955",
"~  c #5E5151",
"^  c #664C46",
"/  c #6A5448",
"(  c #795947",
")  c #7D4356",
"_  c #73405A",
"`  c #7B435A",
"'  c #635454",
"]  c #685B54",
"[  c #6D5B59",
"{  c #7A5B56",
"}  c #497346",
"|  c #557748",
" . c #6B615D",
".. c #73615B",
"X. c #7A685D",
"o. c #426D67",
"O. c #417367",
"+. c #417168",
"@. c #7F6860",
"#. c #94494D",
"$. c #8B504F",
"%. c #804351",
"&. c #844659",
"*. c #8D4959",
"=. c #984B55",
"-. c #9B4C57",
";. c #934A58",
":. c #8C5857",
">. c #A24E52",
",. c #A34F58",
"<. c #A65055",
"1. c #AB5155",
"2. c #AE5358",
"3. c #B55555",
"4. c #B95655",
"5. c #B85957",
"6. c #BA5E5A",
"7. c #8B6E56",
"8. c #8C6659",
"9. c #98695B",
"0. c #A5655C",
"q. c #BB655E",
"w. c #885562",
"e. c #836D62",
"r. c #886F65",
"t. c #8C7765",
"y. c #9E7466",
"u. c #95796A",
"i. c #BC6C61",
"p. c #AD7565",
"a. c #BD796A",
"s. c #C06C61",
"d. c #C27566",
"f. c #C57C6A",
"g. c #2D8246",
"h. c #2F8947",
"j. c #308D48",
"k. c #32984B",
"l. c #3D8C5F",
"z. c #3A9758",
"x. c #35A74E",
"c. c #36AA4F",
"v. c #3AA94F",
"b. c #39A953",
"n. c #37B251",
"m. c #39B351",
"M. c #3AB953",
"N. c #3E8362",
"B. c #528B4C",
"V. c #53994F",
"C. c #6A9751",
"Z. c #53AB52",
"A. c #48BA54",
"S. c #57BB56",
"D. c #6BAC55",
"F. c #79B558",
"G. c #408264",
"H. c #679175",
"J. c #79A863",
"K. c #58C258",
"L. c #68C55A",
"P. c #79CC5D",
"I. c #FFEE3F",
"U. c #B88554",
"Y. c #9BB94E",
"T. c #BFBA5B",
"R. c #9D8B6D",
"E. c #A28B6D",
"W. c #AD9B79",
"Q. c #B29775",
"!. c #C08459",
"~. c #D2955B",
"^. c #D9945F",
"/. c #DC9A5D",
"(. c #DDA15A",
"). c #E2A959",
"_. c #E7B455",
"`. c #EAB953",
"'. c #C4826E",
"]. c #C9846F",
"[. c #D99260",
"{. c #CCAE7F",
"}. c #DCAF71",
"|. c #8BC75E",
" X c #8CD361",
".X c #93D462",
"XX c #98D863",
"oX c #F1CC4E",
"OX c #F5D64A",
"+X c #F8DC49",
"@X c #EDC351",
"#X c #FFED43",
"$X c #FCE648",
"%X c #FFF043",
"&X c #FFEF57",
"*X c #F6DC79",
"=X c #F9E869",
"-X c #FFF267",
";X c #FBEC79",
":X c #FFF276",
">X c #AEA382",
",X c #C5B68C",
"<X c #D5B887",
"1X c #D8C594",
"2X c #E5C189",
"3X c #E1C995",
"4X c #ECDA93",
"5X c #FFF388",
"6X c #FFF797",
"7X c #EEDCA6",
"8X c #F0E2AB",
"9X c #FDF5B0",
"0X c #FFFBCF",
"qX c #FFFDE9",
"wX c #FFFEF7",
/* pixels */
"Y.Y.Y.Y.Y.T.T.T.T.T.T.T.T.T.T.J.J.J.J.J.J.J.J.J.J.J.J.J.J.J.J.J.J.J.J.J.J.J.J.J.J.J.J.J.J.J.J.J.J.J.J.J.J.J.J.J.J.J.J.J.J.J.J.J.",
"Y.Y.Y.Y.Y.Y.T.T.T.T.T.T.Y.J.J.J.Y.Y.Y.J.J.J.J.J.J.J.J.J.J.J.J.J.J.J.J.J.J.J.J.J.H.H.H.H.J.J.J.J.J.J.J.J.J.J.J.J.J.J.J.J.J.Y.Y.Y.",
"Y.Y.T.T.T.T.T.T.T.T.T.Y.Y.Y.Y.Y.Y.Y.Y.Y.Y.Y.Y.J.J.J.J.J.J.J.J.J.J.J.J.J.J.J.J.H.H.H.H.H.H.Y.Y.Y.Y.Y.Y.Y.Y.H.H.H.H.J.J.J.Y.Y.Y.Y.",
"T.T.T.T.T.T.T.[.[.^.^.Y.Y.Y.Y.y.y.y.y.J.J.J.J.J.J.J.J.J.J.J.J.J.J.J.J.H.H.H.J.H.H.H.H.H.H.H.H.H.H.H.Y.Y.H.H.H.H.H.H.H.J.Y.Y.Y.Y.",
"T.T.T.T.T.T./.).).^.^.^.Y.Y.y.y.y.y.y.Y.J.J.J.J.J.J.J.J.J.J.J.J.J.J.H.H.H.H.H.H.H.H.H.H.H.H.H.H.H.H.H.H.H.T.T.T.H.H.H.H.Y.Y.Y.T.",
"Y.Y.Y.Y.Y.^.@X#X+X^.^.^.^.Y.Y.Y.Y.y.y.y.Y.Y.J.J.J.J.J.J.J.J.J.J.J.H.H.H.H.H.T.T.T.T.H.H.H.H.T.T.T.T.H.H.T.T.T.T.T.H.H.H.H.T.T.T.",
"Y.Y.Y.Y.Y.^.+X$X).^.T.Y.T.T.Y.Y.Y.Y.Y.Y.Y.Y.Y.Y.Y.Y.J.J.J.J.J.J.J.H.H.H.T.T.T.T.T.T.T.H.H.T.T.T.T.T.T.T.T.T.T.T.T.T.T.T.T.T.Y.Y.",
"Y.Y.Y.Y.Y./.+X@X[.T.T.T.T.T.T.Y.Y.Y.Y.Y.Y.Y.Y.Y.Y.Y.J.J.J.J.J.H.H.H.H.T.T.T.T.T.T.T.T.H.T.T.T.T.T.T.T.T.T.T.T.T.T.T.T.T.T.T.Y.Y.",
"T.T.Y.Y.Y.Y.OX@X[.T.T.T.Y.Y.Y.T.Y.Y.Y.Y.Y.Y.Y.Y.Y.Y.Y.T.T.T.T.T.T.H.T.T.T.T.T.T.T.T.T.T.T.T.T.T.T.T.T.T.T.T.T.T.T.T.T.T.T.T.Y.T.",
"T.T.T.Y.Y.Y.Y._.^.^.^.^.^.[.Y.Y.Y.Y.Y.Y.Y.Y.Y.Y.Y.Y.T.T.Y.Y.T.T.T.T.T.T.T.T.T.T.T.T.T.T.T.T.T.T.T.T.T.T.T.T.T.T.T.T.T.T.T.T.T.T.",
"T.T.T.Y.^.Y.T.^.^.^.[.^.^.[.^.^.^.Y.Y.Y.Y.Y.Y.Y.Y.Y.T.Y.Y.Y.Y.T.T.T.T.T.T.T.T.Y.Y.Y.T.T.T.T.T.Y.Y.T.T.T.T.Y.Y.T.T.T.T.T.T.T.T.T.",
"T.T.T.Y.^.^.^.^.^.).`.).[.^.^.^.^.^.Y.Y.Y.Y.Y.Y.Y.Y.Y.Y.Y.Y.Y.Y.Y.Y.Y.T.T.T.Y.Y.Y.Y.Y.T.T.Y.Y.Y.Y.Y.Y.T.Y.Y.Y.Y.T.T.T.T.T.T.T.T.",
"T.T.T.T.T.^.^.^.^.(.`.+XOXOX).^.^.^.^.^.Y.Y.Y.Y.Y.Y.Y.Y.Y.Y.Y.Y.Y.Y.Y.Y.T.T.Y.Y.Y.Y.Y.T.Y.Y.Y.Y.Y.Y.Y.Y.Y.Y.Y.Y.T.T.T.T.T.T.T.T.",
"T.T.T.T.T.T.^.^.^.^.[.).$X%X;X2X(.^.^.^.Y.Y.Y.Y.Y.Y.Y.Y.X X X Y.Y.Y.Y.Y.Y.Y.Y.Y.Y.Y.Y.T.Y.Y.Y.Y.Y.Y.Y.Y.Y.Y.Y.Y.T.T.T.T.T.Y.Y.Y.",
"Y.Y.Y.Y.Y.Y.Y.^.^.^.^.^._.#X:X0X*X/.^.^.Y.Y.Y.Y.Y.Y.Y.Y.X E 1 o Y.Y.Y.Y.Y.Y.Y.Y.Y.Y.Y.Y.Y.Y.Y.Y.Y.Y.Y.Y.Y.Y.Y.Y.Y.Y.Y.Y.Y.Y.Y.Y.",
"Y.Y.Y.Y.Y.Y.Y.Y.Y.^.^.^./.OX#X:X:XOX(.^.J.J.J.J.Y.Y.Y.Y.X 8.i.B o X Y.Y.Y.Y.Y.Y.Y.Y.Y.Y.Y.Y.Y.Y.Y.Y.Y.Y.Y.Y.Y.Y.Y.Y.Y.Y.Y.Y.Y.Y.",
"Y.Y.Y.Y.Y.Y.Y.Y.J.J.^.^.[._.#X#X#X#X_.[.J.J.J.J.J.Y.Y.X O 9.d.3.N o X X Y.Y.Y.Y.Y.Y.Y.Y.J.J.J.Y.Y.Y.Y.Y.Y.Y.Y.Y.Y.Y.Y.Y.Y.Y.Y.Y.",
"Y.Y.Y.Y.Y.Y.Y.J.J.J.J.U.[._.#X&X&X#X@X^.J.J.J.J.J.T.T.. T '.i.6.q.V o X X T.J.J.J.Y.Y.J.J.J.J.J.Y.Y.Y.Y.Y.Y.Y.Y.Y.Y.Y.Y.Y.Y.Y.Y.",
"Y.Y.Y.Y.Y.J.J.J.J.J.J./ [._.I.5X5X#X#X).$.J.J.J.J.J.X : 9.f.5.d.'.0.c > X X J.J.J.J.J.J.X o # X J.Y.Y.Y.Y.Y.Y.J.J.J.Y.Y.Y.Y.Y.Y.",
"Y.Y.Y.J.J.J.J.J.J.J.  ^ /.@XI.5XqX&X+X~.s . X J.J.J.X 8.].q.q.'.a.` S > . . X X J.J.J.X @ | D.$ J.J.Y.Y.Y.Y.J.J.J.J.J.Y.Y.Y.J.J.",
"J.Y.Y.Y.Y.Y.Y.Y.Y.Y.. / ).#X%X0XqX&X`.9.X 4 B.4 X X X 9.f.5.q.a.w.D c O B C j O X X Y.X 4 |.} @ Y.Y.Y.Y.Y.J.J.J.J.J.J.J.J.J.J.J.",
"J.J.J.J.Y.Y.Y.Y.Y.Y.: !.oX#X:XwX6XOX~.9 . y XXF.K X X { i.3.5.*.M 3 7 C 4.2.F n 2 X X X C.P.t . J.Y.Y.Y.Y.J.J.J.J.J.J.J.J.J.J.J.",
"Y.Y.Y.Y.Y.Y.Y.Y.Y.Y.6 (.$X-X9XwX5X`.7.= Y.y .XXXL.L e - 1.4.,.` %.C 1.3.<.` D D b X X X C.K.t . J.J.Y.Y.J.J.J.J.Y.Y.Y.J.J.J.J.J.",
"Y.Y.Y.Y.Y.Y.Y.Y.H.H.( }.4X=X;X9X=XU.9   Y.# | .X XA.x.t B 1.&.=.4.4.<.*._ Z c = = 1 > O 4 k.t . J.J.J.J.J.J.J.Y.Y.Y.Y.Y.Y.Y.Y.Y.",
"Y.Y.Y.Y.Y.Y.Y.H.H.H.6 <X3X4X8X8X3X] X Y.T.X # F.XXA.n.N.J v 1.3.3.=.D D m > - N C 3.` b + * * J.J.J.J.J.J.J.J.Y.Y.Y.Y.Y.Y.Y.Y.Y.",
"Y.Y.Y.Y.Y.H.H.H.T.T.5 X.W.7X8X8X3XR.X T.T.T.X p |.P.m.b.O.f N 3.*.` _ _ ) #.=.4.3.;.D D b + X Y.Y.Y.J.J.J.J.Y.Y.Y.Y.Y.Y.Y.Y.Y.Y.",
"Y.Y.H.H.H.H.T.T.T.T.X h ,X7X1XW.<XE.X T.T.T.X . |  Xm.b.O.I ~ 4.3.3.3.3.3.4.3.;._ D D D D l X Y.Y.Y.Y.J.J.J.J.J.J.J.J.J.J.Y.Y.Y.",
"T.H.H.T.T.T.T.T.T.T.< Q.2X<X' < ,X>XX T.T.T.X X 4 D.M.b.O.I  .4.3.3.4.4.,.` ` D D D D D D c X Y.Y.Y.Y.J.J.J.J.J.J.J.J.J.J.J.J.J.",
"T.T.T.T.T.T.T.T.T.T.; E.E.W # e.E.] X T.T.X X X o D.M.z.O.P 7 >.3.3.=.;._ D D b l l l l l 2 X X Y.Y.Y.J.J.J.J.J.T.T.T.T.T.T.T.T.",
"Y.Y.Y.Y.Y.Y.T.T.J.J.X < ; . # T ; . X J.J.o ^ { = p v.U +.G o %.<.&.D D Z m d = . @ $ $ $ $ $ X X Y.J.J.T.T.T.T.T.T.T.T.T.T.T.T.",
"Y.Y.Y.Y.Y.Y.Y.Y.Y.Y.X X X = 5 3 # X J.J.. 7 '.f.N & z.+.P , V 3.3.-.S k = O X X e L c.x.v.S.Z.i $ X Y.Y.Y.Y.Y.Y.Y.Y.Y.Y.Y.Y.Y.Y.",
"Y.Y.Y.Y.Y.Y.Y.Y.Y.Y.Y.X # R [ [ 5 . J.J.. 9 '.'.0.8.7.:.$.%.3.4.<.A > X X f J g.c.m.m.n.A. XXXP.V.$ X Y.Y.Y.Y.Y.Y.Y.Y.Y.Y.Y.Y.Y.",
"T.T.T.Y.Y.Y.Y.Y.Y.Y.Y.Y.= ' e.u.z . Y.Y.. 7 '.'.'.].f.s.6.4.3.4.=.> X X G o.G.m.m.m.m.m.m.S. XXX XV.4 X Y.Y.Y.Y.Y.Y.Y.Y.Y.Y.Y.T.",
"T.T.T.T.Y.Y.Y.Y.Y.Y.Y.Y.= ' r.u.z . J.J.. 9 '.i.q.q.q.q.6.3.3.1.8 f H H o.+.U m.m.m.c.x.x.c.A.L. X.XV.$ @ Y.Y.Y.Y.Y.Y.Y.Y.Y.T.T.",
"T.T.T.T.T.T.T.Y.Y.Y.Y.J.; ' e.u.z . J.J.. 3 p.f.q.3.3.3.3.3.3.<.= # % G J +.+.l.z.g.w $ $ t g.k.A.A.M.x.t . Y.Y.Y.Y.T.T.T.T.T.T.",
"Y.Y.Y.T.T.T.T.T.Y.Y.Y.Y.O T [ u.z . Y.Y.X X 7 0.q.6.3.3.3.3.3.1.= X % H J +.+.+.G X O X X X X & i i h.m.j.$ Y.Y.Y.Y.Y.Y.T.T.T.T.",
"Y.Y.Y.Y.T.T.T.T.T.Y.Y.Y.X < R ~ < X Y.Y.Y.X = 1 q #.<.4.4.3.4.-.> X X J O.+.+.o.f H P H # X Y.Y.. X # t h.$ Y.Y.Y.Y.Y.Y.Y.Y.T.Y.",
"Y.Y.Y.Y.Y.Y.Y.Y.Y.Y.Y.Y.X # X X # K w Y.Y.X j S k c ` *.*.<.;.` m - % J +.+.+.+.+.+.+.+.4 X T.T.T.T.Y.X X X Y.Y.Y.Y.Y.Y.Y.Y.Y.Y.",
"Y.Y.Y.Y.Y.Y.Y.Y.Y.Y.Y.X ; F.} 4 @ k.k.& Y.X c ,.2.2.<.<.<.3.<.,.` m > % J +.+.+.+.+.+.I % X T.T.T.T.T.T.T.T.T.J.J.J.Y.Y.Y.Y.Y.Y.",
"Y.Y.Y.Y.Y.Y.Y.Y.Y.Y.Y.X a .XXXF.4 e x.* Y.. V <.B C 3.3.3.3.3.4.<.` m - % J +.+.+.+.I 4 X J.J.J.J.J.J.J.J.J.J.J.J.J.J.J.J.J.J.Y.",
"J.J.J.J.J.J.J.J.Y.Y.Y.X h.L..XXX| w i X Y.X - -   8 3.3.3.3.3.3.<.&.D Z c : f I +.+.f = O . J.J.J.J.J.J.J.J.J.J.J.J.J.J.J.J.J.J.",
"J.J.J.J.Y.Y.Y.Y.Y.Y.Y.X h.m.S.L.S.$ X X X X X = N >.4.3.3.3.3.=.D D D D D S j Q o.I x S c > X J.J.J.J.J.J.J.J.J.J.J.J.J.J.J.J.J.",
"Y.Y.Y.Y.Y.Y.Y.Y.Y.Y.Y.X L m.n.n.x.$ X X X X o V >.>.4.4.4.4.4.&.D D D D D D D D ! g M D D c O X Y.Y.J.J.J.J.J.J.J.J.J.J.J.J.Y.Y.",
"Y.Y.Y.Y.Y.Y.Y.Y.Y.Y.Y.Y.& c.m.m.g.@ X H.H.X X O o - V C V C V v j n D D D D D D c j j b D n = X X X Y.J.Y.Y.Y.J.J.Y.Y.Y.Y.Y.Y.Y.",
"Y.Y.Y.Y.Y.Y.Y.Y.Y.Y.Y.Y.# w r r $ X H.H.H.. ' e.t.t.: : < ; ; < < 3 d > > > > > : ; = ; x 3 # X i & X Y.Y.Y.Y.Y.Y.Y.Y.Y.Y.Y.Y.Y.",
"Y.Y.Y.Y.Y.Y.Y.Y.Y.Y.Y.Y.Y.X X X ; O T.T.T.. R ..X.t.t.Q.{.E.E.{.{.t.' R z 5 T < R t.e.R ' X.~ O g.k.& X Y.Y.Y.Y.Y.Y.Y.T.T.T.T.T.",
"Y.Y.Y.Y.Y.H.H.H.H.H.Y.Y.H.X # T ~ = T.T.T.X O O O # 6 T R z T R R 6 < ' e.' r.T : @.@.R o 5 < o L M.u . Y.Y.T.T.T.T.T.T.T.T.T.T.",
"Y.Y.Y.Y.H.H.H.H.H.H.H.H.H.X # ..t.= T.T.T.O c S Z d 2 > > 2 > > > 2 2 ; # # = O X 5 z # X X X X L M.u . T.T.T.T.T.T.T.T.T.T.T.Y.",
"H.H.Y.H.H.H.T.T.H.H.H.H.H.X o 5 h # T.X O 8 =.=.-.;._ _ _ D D D D D D n c j O z [ h X h ~ # X * k.j.& X T.T.T.T.T.T.T.T.T.Y.Y.Y.",
"H.H.H.H.H.T.T.T.T.H.H.H.T.T.X . . H.T.X 8 >.4.4.4.4.3.3.3.` D D D D D D c O 5 [ ..= ; [ ' # X # $ # X Y.Y.Y.Y.Y.Y.Y.Y.Y.Y.Y.Y.H.",
"H.T.T.H.H.T.T.T.T.T.T.T.T.T.T.T.T.T.T.T.o 0 0 0 0 0 0 0 0 Z S S S S b 3 O T @.T < X E r.T X X T.T.T.Y.Y.Y.Y.Y.Y.Y.Y.Y.Y.Y.Y.Y.H.",
"T.T.T.T.T.T.T.T.T.T.T.T.T.T.T.T.T.T.T.T.T.J.. . . . . . . O = = = = O . : [ ' # X X ~ ..< X T.T.T.T.T.Y.Y.Y.Y.Y.Y.Y.Y.T.T.H.H.H.",
"T.T.T.T.T.Y.Y.Y.T.T.T.T.T.Y.Y.Y.Y.T.T.T.J.J.J.J.X X X X T.X X X X X X X X X X J.J.X X X X X T.T.Y.Y.Y.Y.Y.Y.Y.Y.Y.T.T.T.T.T.T.T.",
"T.T.T.T.Y.Y.Y.Y.Y.T.T.T.Y.Y.Y.J.J.J.J.J.J.J.J.J.X X X Y.Y.Y.Y.Y.Y.J.J.J.J.J.J.J.J.J.X X X X Y.Y.Y.Y.Y.Y.Y.Y.Y.T.T.T.T.T.T.T.T.T.",
"T.T.Y.Y.Y.Y.Y.Y.Y.T.T.T.Y.Y.J.J.J.J.J.J.J.J.X X X X Y.Y.Y.Y.Y.Y.J.J.J.J.J.J.J.J.J.J.J.X X X Y.Y.Y.Y.Y.Y.Y.Y.T.T.T.Y.Y.Y.T.T.T.T.",
"Y.Y.Y.Y.Y.Y.Y.Y.Y.Y.Y.T.Y.Y.J.J.J.J.J.J.J.J.X X X X J.J.J.Y.Y.J.J.J.J.J.J.Y.Y.J.J.J.J.X X X Y.Y.Y.Y.Y.Y.T.T.T.T.Y.Y.Y.Y.Y.T.T.T.",
"Y.Y.Y.Y.Y.Y.Y.Y.Y.Y.Y.Y.J.J.J.J.J.J.J.J.J.J.J.J.J.J.J.J.J.J.J.J.J.J.J.J.Y.Y.Y.Y.Y.J.J.J.J.J.Y.Y.Y.Y.Y.Y.Y.Y.Y.Y.Y.Y.Y.Y.Y.Y.Y.Y.",
"Y.Y.Y.Y.Y.Y.J.J.J.J.J.J.J.J.J.J.Y.Y.Y.J.J.J.J.J.J.J.J.J.J.J.J.J.J.J.J.J.Y.Y.Y.Y.Y.Y.Y.Y.Y.Y.Y.Y.Y.Y.Y.Y.Y.Y.Y.Y.Y.Y.Y.Y.Y.Y.Y.Y.",
"Y.Y.Y.Y.Y.Y.Y.Y.Y.J.J.J.J.J.J.Y.Y.Y.Y.Y.J.J.Y.Y.Y.J.J.J.J.J.J.J.Y.Y.J.J.Y.Y.Y.Y.Y.Y.Y.Y.Y.Y.Y.Y.Y.Y.Y.Y.Y.Y.J.J.J.Y.Y.Y.Y.Y.Y.Y.",
"Y.Y.Y.Y.Y.Y.Y.Y.Y.Y.Y.Y.J.J.J.Y.Y.Y.Y.Y.J.Y.Y.Y.Y.Y.Y.J.J.J.J.Y.Y.Y.Y.J.J.Y.Y.Y.Y.Y.Y.Y.Y.Y.Y.Y.Y.Y.Y.Y.Y.J.J.J.J.J.Y.Y.Y.Y.Y.Y.",
"Y.Y.Y.Y.Y.Y.T.T.Y.Y.Y.Y.Y.Y.Y.Y.Y.Y.Y.Y.Y.Y.Y.Y.Y.Y.Y.Y.Y.Y.Y.Y.Y.Y.Y.Y.Y.Y.Y.Y.Y.Y.Y.Y.Y.Y.J.J.J.Y.Y.Y.J.J.J.J.J.J.Y.Y.Y.Y.Y.Y.",
"Y.Y.Y.Y.Y.T.T.T.T.Y.Y.Y.Y.T.T.T.T.Y.Y.Y.Y.Y.Y.Y.Y.Y.Y.Y.Y.Y.Y.Y.Y.Y.Y.Y.Y.Y.Y.Y.Y.Y.Y.Y.Y.J.J.J.J.J.J.J.J.J.J.J.J.J.Y.Y.Y.Y.Y.Y.",
"Y.Y.Y.T.T.T.T.T.T.T.T.T.T.T.T.T.T.T.T.Y.Y.Y.Y.Y.Y.Y.Y.J.J.J.J.Y.Y.Y.Y.Y.Y.Y.Y.Y.Y.Y.Y.Y.J.J.J.J.J.J.J.J.J.J.J.J.J.J.J.J.J.Y.Y.Y.",
"J.J.T.T.T.T.T.T.T.T.T.T.T.T.T.T.J.J.J.J.Y.Y.J.J.J.J.J.J.J.J.J.J.J.Y.Y.J.J.J.J.Y.Y.Y.Y.J.J.J.J.J.J.J.J.J.J.J.J.J.J.J.J.J.J.J.J.J."
};
