/* XPM */
static const char *goblin5_L[] = {
/* columns rows colors chars-per-pixel */
"64 64 207 2 ",
"   c #14172D",
".  c #151B2E",
"X  c #181D2F",
"o  c #171E30",
"O  c #1B1E30",
"+  c #17212F",
"@  c #19212F",
"#  c #1B2331",
"$  c #192C32",
"%  c #1A2835",
"&  c #1B3534",
"*  c #1D3C35",
"=  c #232234",
"-  c #2A2334",
";  c #252935",
":  c #2A2A35",
">  c #242738",
",  c #2C243A",
"<  c #2C2C39",
"1  c #342736",
"2  c #31263C",
"3  c #342A3D",
"4  c #382D38",
"5  c #293738",
"6  c #33323C",
"7  c #39383D",
"8  c #472D3A",
"9  c #47363C",
"0  c #54323D",
"q  c #58343F",
"w  c #1E4137",
"e  c #1F4638",
"r  c #284439",
"t  c #214C39",
"y  c #23543B",
"u  c #28523D",
"i  c #245C3D",
"p  c #365C3F",
"a  c #26633F",
"s  c #3A2B42",
"d  c #273C44",
"f  c #3A3744",
"g  c #3D3941",
"h  c #432D46",
"j  c #462F48",
"k  c #4B3644",
"l  c #433D44",
"z  c #4B314B",
"x  c #563447",
"c  c #573651",
"v  c #5A3753",
"b  c #5F3A56",
"n  c #6A3A43",
"m  c #723D44",
"M  c #633A55",
"N  c #653B59",
"B  c #6A3D5B",
"V  c #2A444A",
"C  c #2D4A4D",
"Z  c #304F51",
"A  c #315354",
"S  c #365958",
"D  c #296943",
"F  c #2C7845",
"G  c #337043",
"H  c #3A635F",
"J  c #3E6D65",
"K  c #3F7D64",
"L  c #464144",
"P  c #4A4547",
"I  c #4E4449",
"U  c #57474A",
"Y  c #534A4A",
"T  c #534654",
"R  c #5E5151",
"E  c #654B48",
"W  c #6D4F53",
"Q  c #76415A",
"!  c #7A425A",
"~  c #635454",
"^  c #6B5B56",
"/  c #6D5C58",
"(  c #4B6944",
")  c #547647",
"_  c #7A655E",
"`  c #78685B",
"'  c #456C66",
"]  c #407567",
"[  c #417168",
"{  c #7E6860",
"}  c #854349",
"|  c #89454B",
" . c #984A4D",
".. c #894757",
"X. c #824559",
"o. c #8D4858",
"O. c #9C4D57",
"+. c #954B58",
"@. c #885955",
"#. c #945255",
"$. c #A24E4F",
"%. c #A34F53",
"&. c #A04E59",
"*. c #AB5255",
"=. c #A85258",
"-. c #B55555",
";. c #B95656",
":. c #B75957",
">. c #B85B58",
",. c #946B4D",
"<. c #956A4E",
"1. c #8D6858",
"2. c #83745F",
"3. c #BB645D",
"4. c #AB7754",
"5. c #836C62",
"6. c #8B7365",
"7. c #877862",
"8. c #9D7366",
"9. c #957A6A",
"0. c #9B7E6D",
"q. c #A36D63",
"w. c #A37565",
"e. c #AC7A65",
"r. c #B77265",
"t. c #C27968",
"y. c #2E8748",
"u. c #348D4A",
"i. c #359C4C",
"p. c #3B995A",
"a. c #35A54E",
"s. c #36A84F",
"d. c #3DA84F",
"f. c #3AA556",
"g. c #37AD50",
"h. c #37B251",
"j. c #39B451",
"k. c #3E8561",
"l. c #54874B",
"z. c #4A9C4E",
"x. c #638D4E",
"c. c #46B854",
"v. c #51BC55",
"b. c #70A354",
"n. c #79AC57",
"m. c #73B558",
"M. c #408264",
"N. c #679175",
"B. c #79A863",
"V. c #53C056",
"C. c #68C55A",
"Z. c #7ACA5D",
"A. c #B98256",
"S. c #9BB94E",
"D. c #80B559",
"F. c #BFBA5B",
"G. c #988769",
"H. c #998E73",
"J. c #A38D6D",
"K. c #BB8463",
"L. c #A98F71",
"P. c #B19774",
"I. c #C98A5B",
"U. c #D7935F",
"Y. c #D9945F",
"T. c #DB9A5D",
"R. c #DEA05B",
"E. c #EBBA4F",
"W. c #E3AC57",
"Q. c #E2A859",
"!. c #EABB53",
"~. c #C5836E",
"^. c #C98768",
"/. c #D89460",
"(. c #DB9460",
"). c #CB8670",
"_. c #CBAD7E",
"`. c #85CD5F",
"'. c #80D15F",
"]. c #90CE60",
"[. c #8ED461",
"{. c #97D762",
"}. c #DFCF59",
"|. c #EDC44F",
" X c #F1CD4D",
".X c #F6D64B",
"XX c #FEED44",
"oX c #FBE449",
"OX c #FEEE4F",
"+X c #FDED67",
"@X c #FFF168",
"#X c #F8E77A",
"$X c #B1A481",
"%X c #D3B686",
"&X c #DFC38E",
"*X c #E3C28D",
"=X c #E4CE99",
"-X c #E5D09C",
";X c #FFF48B",
":X c #FDF291",
">X c #EDDCA3",
",X c #EFE1AC",
"<X c #F1E2AB",
"1X c #FFF9B9",
"2X c #FEFAC8",
"3X c #FFFCDD",
"4X c white",
/* pixels */
"B.B.B.B.B.B.B.B.B.B.B.B.B.B.B.B.B.B.B.B.B.B.B.B.B.B.B.B.B.B.B.B.B.B.B.B.B.B.B.B.B.B.B.B.B.B.B.B.B.F.F.F.F.F.F.F.F.F.F.S.S.S.S.S.",
"S.S.S.B.B.B.B.B.B.B.B.B.B.B.B.B.B.B.B.B.N.N.N.N.B.B.B.B.B.B.B.B.B.B.B.B.B.B.B.B.B.B.B.B.B.S.S.S.B.B.B.S.F.F.w.w.F.F.S.S.S.S.S.S.",
"S.S.S.S.B.B.B.N.N.N.N.S.S.S.S.S.S.S.S.N.N.N.N.N.N.B.B.B.B.B.B.B.B.B.B.B.B.B.B.B.B.S.S.S.S.S.S.S.S.S.S.S.S.F.K.e.8.F.F.F.F.F.S.S.",
"S.S.S.S.B.N.N.N.N.N.N.N.S.S.N.N.N.N.N.N.N.N.N.N.N.B.N.N.N.B.B.B.B.B.B.B.B.B.B.B.B.B.B.B.B.B.S.S.S.S.S.S.S.F.^.^.e.F.F.F.F.F.F.F.",
"F.S.S.S.N.N.N.N.F.F.F.N.N.N.N.N.N.N.N.N.N.N.N.N.N.N.N.N.N.N.B.B.B.B.B.B.B.B.B.B.B.B.B.B.S.S.S.S.S.S.S.S.S.S.Y.Y.K.F.F.F.F.F.F.F.",
"F.F.F.N.N.N.N.F.F.F.F.F.N.N.F.F.F.F.N.N.N.N.F.F.F.F.N.N.N.N.N.B.B.B.B.B.B.B.B.B.B.B.S.S.S.Y.Y.S.S.S.S.S.S.S.Y.Y.K.8.F.S.S.S.S.S.",
"S.S.F.F.F.F.F.F.F.F.F.F.F.F.F.F.F.F.F.N.N.F.F.F.F.F.F.F.N.N.N.B.B.B.B.B.B.B.S.S.S.S.Y.Y.Y.Y.Y.Y.Y.Y.F.F.S.F.^.U.K.8.S.S.S.S.S.S.",
"S.S.F.F.F.F.F.F.F.F.F.F.F.F.F.F.F.F.F.F.N.F.F.F.F.F.F.F.F.N.N.N.N.B.B.B.B.B.S.S.S.Y.Y.Y.Y.Y.Y.Y.Y.Y.Y.Y.F.F.F./.K.8.S.S.S.S.S.S.",
"F.S.F.F.F.F.F.F.F.F.F.F.F.F.F.F.F.F.F.F.F.F.F.F.F.F.F.F.F.F.N.F.F.F.F.F.F.S.S.S.Y.Y.Y.T.W. XQ.Y.Y.Y.Y.Y.Y.F.F.e.w.S.S.S.S.S.F.F.",
"F.F.F.F.F.F.F.F.F.F.F.F.F.F.F.F.F.F.F.F.F.F.F.F.F.F.F.F.F.F.F.F.F.F.S.S.F.F.S.S.Y.Y.T. XXX XY.Y.Y.Y.Y.Y.Y.S.S.8.8.S.S.S.S.F.F.F.",
"F.F.F.F.F.F.F.F.F.S.S.F.F.F.F.S.S.F.F.F.F.F.S.S.S.F.F.F.F.F.F.F.F.S.S.S.S.F.S.Y.Y.T. XoX!.R.Y.Y.S.S.S.S.Y.Y.S.8.8.F.S.S.S.F.F.F.",
"F.F.F.F.F.F.F.F.S.S.S.S.F.S.S.S.S.S.S.F.F.S.S.S.S.S.F.F.F.S.S.S.S.S.S.S.S.S.S.Y./.!.XX|.Y.Y.Y.Y.S.S.S.S.S.S.F.F.F.F.F.S.S.F.F.F.",
"F.F.F.F.F.F.F.F.S.S.S.S.S.S.S.S.S.S.S.S.F.S.S.S.S.S.F.F.S.S.S.S.S.S.S.S.S.S.S.Y.Y.R.W.Q.!.T.Y.F.F.F.F.F.F.F.F.F.F.F.F.F.F.F.F.F.",
"S.S.S.F.F.F.F.F.S.S.S.S.S.S.S.S.S.S.S.S.F.S.S.S.S.S.S.S.S.S.S.S.. . . S.S.S.S.Y.Y.Y.Y. XoXT.Y.S.S.S.S.S.S.S.S.F.F.F.F.F.F.F.F.F.",
"S.S.S.S.S.S.S.S.S.S.S.S.S.S.S.S.S.S.S.S.S.S.S.S.S.S.S.S.S.S.. O k 9   S.S.S.S./.Y.Y.Q.XXoXT.Y.B.B.B.B.B.S.S.S.S.S.S.S.S.S.S.S.S.",
"S.S.S.S.S.S.S.S.S.S.S.S.S.S.S.S.S.S.S.S.S.S.S.S.S.S.S.S.. . - | t.U   S.S.S.S.,.I.Y..XXXoXQ./.A.B.B.B.B.B.B.S.S.S.S.S.S.S.S.S.S.",
"S.S.S.S.S.S.S.S.S.S.S.S.S.S.S.S.S.B.B.B.S.S.S.S.S.S.S.. . = | >.~.U . F.S.S.S.. E Y..XXXXX X/.,.  B.B.B.B.B.B.B.S.S.S.S.S.S.S.S.",
"S.S.S.S.S.S.S.S.S.S.S.S.S.S.S.S.B.B.B.B.B.S.S.B.B.B.. . - #.3.>.t.e.; . F.F.F.B.: 4..XXX@XXXW.4.: B.B.B.B.B.B.B.B.S.S.S.S.S.S.S.",
"S.S.S.S.S.S.B.B.B.S.S.S.S.S.S.B.B.B.S.S.B.B.B.B.B.. . s M r.~.3.3.~.W X . B.B.B.  E !.XX1XOX XT.,.: S.S.S.B.B.B.B.B.B.S.S.S.S.S.",
"B.B.S.S.S.B.B.B.B.B.S.S.S.S.B.B.B.S.S.S.S.B.. . .   . j B #.~.t.>.t.~.U   B.B.B.B.= A..X2X2XOXQ./.,.  S.S.S.B.B.B.B.B.B.B.S.S.S.",
"B.B.B.B.B.B.B.B.B.B.B.S.S.S.  . . . . S.S.. . = x m 8 # b B q.t.:.3.~.E   .   +   . 4.!.2X4X1XoXQ.I.9 . S.S.S.S.S.S.S.S.S.S.S.B.",
"B.B.B.B.B.B.B.B.B.B.B.S.S.. 5 r w w $ . . O j b ..;.*.q 1 h B =.;.;.r.k   $ p z.p ; 9 W.+X3X3X@X|./.A.: S.S.S.S.S.S.S.S.B.B.B.B.",
"B.B.B.B.B.S.S.S.B.B.B.B.. 5 D.`.c.h.y .   - N B B o.;.;. .m X.X.-.;.} + i z.[.{.{.n.5 ,.E.;X;X:X+X!.I.4 . S.S.S.S.S.S.S.S.S.S.S.",
"S.S.S.S.S.S.S.S.S.B.B.B.. ; r 5 u.F # - 1 1 = , c B ! O.-.;.-...+. .7 D j.Z.].n.n.n.5 = ,.}.+X:X2X#X*X1.. N.N.N.S.S.S.S.S.S.S.S.",
"S.S.S.S.S.S.S.S.S.B.B.B.B.B.  . e # 2 N +.$.n 0 O h N N ! *.;.;. .P J p.v.].) @ @ # F.  = H.>X<X,X-X=XJ.. N.N.N.N.S.S.S.S.S.S.S.",
"S.S.S.S.S.S.S.S.S.S.B.B.B.B.S.S.. 2 N B Q &.;.-. .| Q Q Q X.O.*.4 A M.g.v.].5   F.F.F.F.< _.-X<X<X-X7.` . F.F.F.N.N.N.S.S.S.S.S.",
"S.S.S.B.B.B.B.B.B.B.B.B.B.S.S.S.O b B B B B X.O.;.;.-.-.-.-.-.*.S [ k.h.v.].5 . F.F.F.F.6 %X%X$X-X<XH.= . F.F.F.F.F.N.N.N.N.S.S.",
"B.B.B.B.B.B.B.B.B.B.B.B.B.S.S.. O M B B B B B B ! X.*.;.;.;.;.*.' [ k.h.v.x.@ . . F.F.F.6 -X7.= G.&X%X2.. F.F.F.F.F.F.F.F.N.N.F.",
"F.F.F.F.F.F.F.F.B.B.B.B.B.S.S.. O h j j j j j N B B ! +.&.;.;.} d [ K f.V.(   . . . F.F.; 2.P.Y = ` P.` . B.F.F.F.F.F.F.F.F.F.F.",
"F.F.F.F.F.F.F.F.F.F.F.F.B.B.. . # $ $ $ $ . . , j M N B Q o.;.0 + S [ p.i.5 4 1.7 . B.B..   7 7     6 # . B.B.B.F.F.S.S.S.S.S.S.",
"S.S.S.S.S.S.S.S.S.S.S.S.S.. + t y.s.s.s.s.a & . . O 2 z ! *.;.*.8 d J ] y.X #.).q.O B.B.B.. ; 6 6 X . . S.S.S.S.S.S.S.S.S.S.S.S.",
"S.S.S.S.S.S.S.S.S.S.S.S.. . G Z.C.j.j.j.j.j.i.F A % . X h X.-.;.%.} @.1.1.1.r.).q.O B.B.B.. Y / ^ g . S.S.S.S.S.S.S.S.S.S.S.S.S.",
"F.S.S.S.S.S.S.S.S.S.S.S.+ G Z.{.C.h.j.j.j.j.j.f.] H % . . j -.;.;.;.3.t.~.).~.).q.O B.B.S.. ^ 9._ I . S.S.S.S.S.S.S.S.S.S.F.F.F.",
"F.F.S.S.S.S.S.S.S.S.S.. 5 Z.{.Z.c.s.s.s.h.j.j.f.[ [ H C C > m ;.;.;.3.3.3.3.3.t.w.O B.B.B.. / 0._ I . S.S.S.S.S.S.S.S.S.F.F.F.F.",
"F.F.F.F.F.F.S.S.S.S.S.. l.{.Z.c.u.& $ $ i u.p.K [ J S 5 % . 0 ;.;.;.;.;.;.>.3.~.@.X B.B.B.. / 9._ I B.B.B.S.S.S.S.F.F.F.F.F.F.F.",
"F.F.F.F.S.S.S.S.S.S.. . b.'.c.u.& . . o O # S [ [ J Z V .   0 ;.;.;.;.;.;.3.3.@.= . S.S.S.. / 6.~ 6 S.S.S.S.S.S.F.F.F.F.F.S.S.S.",
"S.F.S.S.S.S.S.S.S.S.+ a c.d.y.& S.. % S H d A [ [ [ [ d . . x -.;.;.;.;.O.} 8 2 O . S.S.. . l U I O S.S.S.S.S.F.F.F.F.F.S.S.S.S.",
"S.S.S.S.S.S.S.S.S.S.& g.s.t . . F.. A ] [ [ [ [ [ [ [ C . s N X.O.O.o.o.N j z N - . S.S.i y . . X @ . S.S.S.S.S.S.S.S.S.S.S.S.S.",
"S.S.S.S.S.S.B.B.B.F.& i.t . . F.F.. V [ [ [ [ [ [ [ C % s N ..=.*.*.=.=.*.*.*.o.-   S.i g.D . r x.x.. . S.S.S.S.S.S.S.S.S.S.S.S.",
"S.B.B.B.B.B.B.B.B.B.$ w . B.B.B.B.. . C [ [ [ [ [ C O s N ..;.;.;.;.;.;.$.n m *.1   S.a a.+ ( ].{.m.* . S.S.S.S.S.S.S.S.S.S.S.S.",
"B.B.B.B.B.B.B.B.B.B.. . B.B.B.B.B.. O = A [ [ S 5 2 c N B +.*.;.;.;.;.;. .O . 1 O . S.$ D 5 n.{.`.v.y   S.S.S.S.B.B.B.B.B.B.B.B.",
"B.B.B.B.B.B.B.B.B.B.B.B.B.B.B.B.. = c v T ' J f z B B B B B ! *.;.;.;.;.;.} 0 . . . . . . p C.C.c.j.y   S.S.S.S.S.S.S.S.B.B.B.B.",
"S.S.B.B.B.B.B.B.B.B.B.B.B.B.. . . 2 B B B T f b B B B B B B B ! *.;.;.;.;.;. .m - . . . . y j.h.h.g.t   S.S.S.S.S.S.S.S.S.S.S.S.",
"S.S.S.S.S.S.S.B.B.S.S.S.B.. # w . = v b j h h M B B B B B B v h x m m m m m - O X . . . . * i.j.j.y.. S.S.S.S.S.S.S.S.S.S.S.S.S.",
"S.S.S.S.S.S.S.S.S.S.S.S.. # F y.# # 3 3 # ; ; , , , , , 2 s < : < < ; : < ; l J._ 6.7   . . & t t * S.S.S.S.S.S.S.S.S.S.S.S.S.S.",
"F.F.F.F.F.S.S.S.S.S.S.S.  y j.h.u U _ I U 9.6.< < L 6 l Y ~ ~ L._._.9.P._.L.6.7./ ` 6   . = # . . . S.S.S.S.S.S.S.S.S.S.S.S.S.S.",
"F.F.F.F.F.F.F.F.F.F.S.S.  y j.j.y < 7 X U { { : I 5.~ 5.~ < < L Y Y g P Y L 6 X O O . .   7 R f . . N.N.S.S.N.N.N.N.N.S.S.S.S.S.",
"S.F.F.F.F.F.F.F.F.F.F.F.. w s.j.D . . . # l 6 . O = # # ; 2 2 2 , , 2 , , 2 2 z N M s .   L 9.Y . . N.N.N.N.N.N.N.N.N.N.S.S.S.S.",
"S.S.S.F.F.F.F.F.F.F.F.F.F.. * y r . # ~ g   l ^ g O z z v B B B B B B B Q Q ! O.O.&...= . : l : . F.F.N.N.N.N.N.F.F.N.N.N.S.N.N.",
"N.S.S.S.S.S.S.S.S.S.S.S.S.S..   . 6 I / g X R _ l = B B B B B B B B B +.-.-.-.;.-.} } 8 . F.  . F.F.F.F.N.N.N.F.F.F.F.N.N.N.N.N.",
"N.S.S.S.S.S.S.S.S.S.S.S.S.S.F.O Y 6.Y : . < / 5.L O 3 3 s c N N N N N x 0 0 0 0 8 . . . . F.F.F.F.F.F.F.F.F.F.F.F.F.F.N.N.F.F.N.",
"N.N.N.F.F.S.S.S.S.S.S.S.S.F.F.6 ^ 3 # . O _ 5.~ = . .   . O = = = = = O           B.B.F.F.F.F.F.F.F.F.F.F.F.F.F.F.F.F.F.F.F.F.F.",
"F.F.F.F.F.F.F.S.S.S.S.S.S.S.S.S.. . . . X L 6 . . B.B.B.S.. . . . . . . S.. . . B.B.B.B.F.F.F.S.S.S.S.F.F.F.F.F.S.S.S.F.F.F.F.F.",
"F.F.F.F.F.F.F.F.F.S.S.S.S.S.S.S.S.S.. . .   . B.B.B.B.B.B.B.B.S.S.S.S.S.S.. . . B.B.B.B.B.B.B.B.B.S.S.S.F.F.F.S.S.S.S.S.F.F.F.F.",
"F.F.F.F.S.S.S.F.F.F.S.S.S.S.S.S.S.S.. . . B.B.B.B.B.B.B.B.B.B.B.S.S.S.S.S.. . . . . B.B.B.B.B.B.B.B.S.S.F.F.F.S.S.S.S.S.S.S.F.F.",
"F.F.F.S.S.S.S.S.F.F.F.F.S.S.S.S.S.S.. . . B.B.B.B.S.S.B.B.B.B.B.B.S.S.B.B.B.. . . . B.B.B.B.B.B.B.B.S.S.F.S.S.S.S.S.S.S.S.S.S.S.",
"S.S.S.S.S.S.S.S.S.S.S.S.S.S.S.S.S.S.B.B.B.B.B.S.S.S.S.S.B.B.B.B.B.B.B.B.B.B.B.B.B.B.B.B.B.B.B.B.B.B.B.B.S.S.S.S.S.S.S.S.S.S.S.S.",
"S.S.S.S.S.S.S.S.S.S.S.S.S.S.S.S.S.S.S.S.S.S.S.S.S.S.S.S.B.B.B.B.B.B.B.B.B.B.B.B.B.B.B.B.B.S.S.S.B.B.B.B.B.B.B.B.B.B.S.S.S.S.S.S.",
"S.S.S.S.S.S.S.B.B.B.S.S.S.S.S.S.S.S.S.S.S.S.S.S.S.S.S.S.B.B.S.S.B.B.B.B.B.B.B.S.S.S.B.B.S.S.S.S.S.B.B.B.B.B.B.S.S.S.S.S.S.S.S.S.",
"S.S.S.S.S.S.B.B.B.B.B.S.S.S.S.S.S.S.S.S.S.S.S.S.S.S.S.B.B.S.S.S.S.B.B.B.B.S.S.S.S.S.S.B.S.S.S.S.S.B.B.B.S.S.S.S.S.S.S.S.S.S.S.S.",
"S.S.S.S.S.S.B.B.B.B.B.B.S.S.S.B.B.B.S.S.S.S.S.S.S.S.S.S.S.S.S.S.S.S.S.S.S.S.S.S.S.S.S.S.S.S.S.S.S.S.S.S.S.S.S.S.F.F.S.S.S.S.S.S.",
"S.S.S.S.S.S.B.B.B.B.B.B.B.B.B.B.B.B.B.S.S.S.S.S.S.S.S.S.S.S.S.S.S.S.S.S.S.S.S.S.S.S.S.S.S.S.S.F.F.F.F.S.S.S.S.F.F.F.F.S.S.S.S.S.",
"S.S.S.B.B.B.B.B.B.B.B.B.B.B.B.B.B.B.B.B.S.S.S.S.S.S.S.S.S.S.S.S.S.B.B.B.B.S.S.S.S.S.S.S.S.F.F.F.F.F.F.F.F.F.F.F.F.F.F.F.F.S.S.S.",
"B.B.B.B.B.B.B.B.B.B.B.B.B.B.B.B.B.B.B.B.B.S.S.S.S.B.B.B.B.S.S.B.B.B.B.B.B.B.B.B.B.B.S.S.B.B.B.B.F.F.F.F.F.F.F.F.F.F.F.F.F.F.B.B."
};
