/* XPM */
static const char *goblin1_R[] = {
/* columns rows colors chars-per-pixel */
"64 64 215 2 ",
"   c #0F172B",
".  c #13172C",
"X  c #151B2E",
"o  c #191D2F",
"O  c #171E30",
"+  c #1C1E31",
"@  c #211F33",
"#  c #17222F",
"$  c #1B2232",
"%  c #1A2B32",
"&  c #1B2935",
"*  c #1B3233",
"=  c #1D3B35",
"-  c #232333",
";  c #282637",
":  c #242B34",
">  c #2A2A36",
",  c #2B2439",
"<  c #2D2D39",
"1  c #372A37",
"2  c #31263D",
"3  c #352A3E",
"4  c #263539",
"5  c #38343C",
"6  c #3A353E",
"7  c #462D3A",
"8  c #4B303C",
"9  c #52333D",
"0  c #1E4237",
"q  c #1F4838",
"w  c #1F513A",
"e  c #214C39",
"r  c #2D4B3A",
"t  c #314339",
"y  c #384D3C",
"u  c #22533B",
"i  c #235B3C",
"p  c #26633E",
"a  c #362940",
"s  c #3D2B44",
"d  c #253A43",
"f  c #3D3941",
"g  c #432E47",
"h  c #462F48",
"j  c #433E44",
"k  c #4E3D43",
"l  c #4B314B",
"z  c #5A3642",
"x  c #53344E",
"c  c #573651",
"v  c #5E3955",
"b  c #673942",
"n  c #713D47",
"m  c #623A57",
"M  c #6D3D52",
"N  c #653C5A",
"B  c #6A3D5B",
"V  c #713F56",
"C  c #2C4A4C",
"Z  c #334C4F",
"A  c #345857",
"S  c #296843",
"D  c #326747",
"F  c #297242",
"G  c #2C7C44",
"H  c #337544",
"J  c #3A625E",
"K  c #3C6761",
"L  c #3D6A63",
"P  c #3F7E64",
"I  c #4D4449",
"U  c #4E4B4A",
"Y  c #58474A",
"T  c #53494C",
"R  c #5B544D",
"E  c #584C56",
"W  c #485B5F",
"Q  c #5E5052",
"!  c #644C42",
"~  c #685549",
"^  c #785849",
"/  c #774156",
"(  c #75415A",
")  c #7B435A",
"_  c #635453",
"`  c #635A51",
"'  c #6B5A57",
"]  c #6D5B59",
"[  c #735350",
"{  c #715E5A",
"}  c #4C6E45",
"|  c #557A48",
" . c #6C655A",
".. c #76665A",
"X. c #7A655E",
"o. c #486E67",
"O. c #477E63",
"+. c #417269",
"@. c #7E6860",
"#. c #834349",
"$. c #87474B",
"%. c #90484C",
"&. c #9C4C4E",
"*. c #805D49",
"=. c #814457",
"-. c #854659",
";. c #894758",
":. c #8D4858",
">. c #9C4D57",
",. c #924A58",
"<. c #895654",
"1. c #A24E53",
"2. c #A04E58",
"3. c #A95357",
"4. c #AC5254",
"5. c #B55555",
"6. c #B95655",
"7. c #B75957",
"8. c #B95C59",
"9. c #966B4E",
"0. c #8D6453",
"q. c #996B54",
"w. c #82725E",
"e. c #B2675E",
"r. c #BB645D",
"t. c #B87F57",
"y. c #9A5B60",
"u. c #846D62",
"i. c #9C6365",
"p. c #8C7466",
"a. c #8C7963",
"s. c #9D7466",
"d. c #947969",
"f. c #BD6B61",
"g. c #A27666",
"h. c #AD7565",
"j. c #BD7264",
"k. c #BD7D6B",
"l. c #C07466",
"z. c #C47D6B",
"x. c #2D8346",
"c. c #2E8B48",
"v. c #328747",
"b. c #379250",
"n. c #3C975B",
"m. c #36A54E",
"M. c #36A94F",
"N. c #37AD51",
"B. c #38A852",
"V. c #36B351",
"C. c #39B452",
"Z. c #3E8661",
"A. c #518B4C",
"S. c #6D9851",
"D. c #47AF52",
"F. c #58AB53",
"G. c #48B954",
"H. c #57BB56",
"J. c #6DAC55",
"K. c #679175",
"L. c #79A863",
"P. c #69C45A",
"I. c #7BCB5D",
"U. c #BB8257",
"Y. c #9BB94E",
"T. c #82B95A",
"R. c #BFBA5B",
"E. c #9C866B",
"W. c #A48C6E",
"Q. c #BB8365",
"!. c #B19874",
"~. c #BCA177",
"^. c #CB8B5C",
"/. c #D9945F",
"(. c #DD9B5D",
"). c #DFA15B",
"_. c #E0A559",
"`. c #E3A959",
"'. c #E7B555",
"]. c #EABC53",
"[. c #C7856A",
"{. c #D18F60",
"}. c #DA9360",
"|. c #DF9860",
" X c #CA8670",
".X c #E3BC60",
"XX c #87C85E",
"oX c #86D05F",
"OX c #8CD361",
"+X c #95D562",
"@X c #99DA63",
"#X c #EEC54E",
"$X c #F6D64A",
"%X c #F8DE48",
"&X c #FFED44",
"*X c #FCE84A",
"=X c #FFF04C",
"-X c #FFEF54",
";X c #FEEF67",
":X c #FFF166",
">X c #FFF27A",
",X c #BDA983",
"<X c #C3AC82",
"1X c #D5B988",
"2X c #EDD78E",
"3X c #E4CE99",
"4X c #FFF488",
"5X c #F1E197",
"6X c #FFF596",
"7X c #E9DAA6",
"8X c #F1E4A8",
"9X c #FFF8B7",
"0X c #FFFBD7",
"qX c #FFFDE6",
"wX c #FFFFFB",
/* pixels */
"Y.Y.Y.Y.Y.R.R.R.R.R.R.R.R.R.R.L.L.L.L.L.L.L.L.L.L.L.L.L.L.L.L.L.L.L.L.L.L.L.L.L.L.L.L.L.L.L.L.L.L.L.L.L.L.L.L.L.L.L.L.L.L.L.L.L.",
"Y.Y.Y.Y.Y.Y.R.R.R.R.R.R.Y.L.L.L.Y.Y.Y.L.L.L.L.L.L.L.L.L.L.L.L.L.L.L.L.L.L.L.L.L.K.K.K.K.L.L.L.L.L.L.L.L.L.L.L.L.L.L.L.L.L.Y.Y.Y.",
"Y.Y.R.R.R.R.R.R.R.R.R.Y.Y.Y.Y.Y.Y.Y.Y.Y.Y.Y.Y.L.L.L.L.L.L.L.L.L.L.L.L.L.L.L.L.K.K.K.K.K.K.Y.Y.Y.Y.Y.Y.Y.Y.K.K.K.K.L.L.L.Y.Y.Y.Y.",
"R.R.R.R.R.R.R.R.R.R.R.Y.Y.Y.Y.Y.Y.Y.L.L.L.L.L.L.L.L.L.L.L.L.L.L.L.L.L.K.K.K.L.K.K.K.K.K.K.K.K.K.K.K.Y.Y.K.K.K.K.K.K.K.L.Y.Y.Y.Y.",
"R.R.R.R.R.R.R.R.R.R.Y.Y.Y.Y.Y.Y.Y.Y.Y.Y.L.L.L.L.L.L.L.L.L.L.L.L.L.L.K.K.K.K.K.K.K.K.K.K.K.K.K.K.K.K.K.K.K.R.R.R.K.K.K.K.Y.Y.Y.R.",
"Y.Y.Y.Y.Y.R.R.R.R.R.Y./.Y.Y.Y.g.g.Y.Y.Y.Y.Y.L.L.L.L.L.L.L.L.L.L.L.K.K.K.K.K.R.R.R.R.K.K.K.K.R.R.R.R.K.K.R.R.R.R.R.K.K.K.K.R.R.R.",
"Y.Y.Y.Y.Y.Y.R.R././././.R.R.g.{.{.{.Y.Y.Y.Y.Y.Y.Y.Y.L.L.L.L.L.L.L.K.K.K.R.R.R.R.R.R.R.K.K.R.R.R.R.R.R.R.R.R.R.R.R.R.R.R.R.R.Y.Y.",
"Y.Y.Y.Y.Y.Y./././././.R.R.s.g.Q.Q.Q.Q.g.Y.Y.Y.Y.Y.Y.L.L.L.L.L.K.K.K.K.R.R.R.R.R.R.R.R.K.R.R.R.R.R.R.R.R.R.R.R.R.R.R.R.R.R.R.Y.Y.",
"R.R.Y.Y.Y.Y././.).(./.R.Y.Y.Y.R.Y.s.s.s.s.Y.Y.Y.Y.Y.Y.R.R.R.R.R.R.K.R.R.R.R.R.R.R.R.R.R.R.R.R.R.R.R.R.R.R.R.R.R.R.R.R.R.R.R.Y.R.",
"R.R.R.Y.Y././.`.*X#X}.Y.Y.Y.Y.Y.Y.Y.Y.Y.s.Y.Y.Y.Y.Y.R.R.Y.Y.R.R.R.R.R.R.R.R.R.R.R.R.R.R.R.R.R.R.R.R.R.R.R.R.R.R.R.R.R.R.R.R.R.R.",
"R.R.R.Y.Y./.).*X&X]./.Y.Y.Y.Y.Y.Y.Y.Y.Y.Y.Y.Y.Y.Y.Y.R.Y.Y.Y.Y.R.R.R.R.R.R.R.R.Y.Y.Y.R.R.R.R.R.Y.Y.R.R.R.R.Y.Y.R.R.R.R.R.R.R.R.R.",
"R.R.R.Y.Y./.`.&X%X(././.Y.Y.Y.Y.Y.Y.Y.Y.Y.Y.Y.Y.Y.Y.Y.Y.Y.Y.Y.Y.Y.Y.Y.R.R.R.Y.Y.Y.Y.Y.R.R.Y.Y.Y.Y.Y.Y.R.Y.Y.Y.Y.R.R.R.R.R.R.R.R.",
"R.R.R.R.R.9.`.%X].]./././././.R.R.R.R.Y.Y.Y.Y.Y.Y.Y.Y.Y.Y.o - . Y.Y.Y.Y.R.R.Y.Y.Y.Y.Y.R.Y.Y.Y.Y.Y.Y.Y.Y.Y.Y.Y.Y.R.R.R.R.R.R.R.R.",
"R.R.R.R.R.*.|.(.].&X]./././././.Y.Y.Y.Y.Y.Y.Y.Y.Y.Y.Y.Y.Y.> 0.9 o X Y.Y.Y.Y.Y.Y.Y.Y.Y.R.Y.Y.Y.Y.Y.Y.Y.Y.Y.Y.Y.Y.R.R.R.R.R.Y.Y.Y.",
"Y.Y.Y.Y.Y.^ /./.%X=X&X].(.}.}././.L.Y.Y.Y.Y.Y.Y.Y.Y.Y.Y.Y.; k.r.b o X Y.Y.Y.Y.Y.Y.Y.Y.Y.Y.Y.Y.Y.Y.Y.Y.Y.Y.Y.Y.Y.Y.Y.Y.Y.Y.Y.Y.Y.",
"Y.Y.Y.Y.Y.- U./.#X6X6X&X%X'.'.`././.L.Y.L.L.L.L.Y.Y.Y.Y.X k Q.r.5.b o X X Y.Y.Y.Y.Y.Y.Y.Y.Y.Y.Y.Y.Y.Y.Y.Y.Y.Y.Y.Y.Y.Y.Y.Y.Y.Y.Y.",
"Y.Y.Y.Y.Y.X ~ }._.;X9X=X=X&X&X*X`.}.^ L.L.L.L.L.L.Y.Y.X o q.z.8.j.j.b + X X Y.Y.Y.Y.Y.Y.L.L.. . X Y.Y.Y.Y.Y.Y.Y.Y.Y.Y.Y.Y.Y.Y.Y.",
"Y.Y.Y.Y.Y.Y.< t.).%X=X&X9X4X-X&X*X(.! L.L.X X L.L.R.R.+ [ [.f.r.[.k.) v - X X L.L.Y.Y.L.L.X t t X Y.Y.Y.Y.Y.Y.Y.Y.Y.Y.Y.Y.Y.Y.Y.",
"Y.Y.Y.Y.Y.L.L.^ |._.%X&X4XwX>X&X&X].! L.L.X $ $ . L.X < k.z.7.l.[.y.B l + + + o X L.L.L.. t XXA.X Y.Y.Y.Y.Y.Y.L.L.L.Y.Y.Y.Y.Y.Y.",
"Y.Y.Y.L.L.L.L.- 9.}._.%X-X0X9X6X&X$X^ o Y.X } J.r # X < k.r.7.f.i.B c , 9 1.,.h ; X X X o A.I.* L.L.Y.Y.Y.Y.L.L.L.L.L.Y.Y.Y.L.L.",
"L.Y.Y.Y.Y.Y.Y.Y.- 9.}.].&X:XqXqX:X$X^.5 Y.. | @XoXH # $ <.8.7.4.V l 1 n 4.7.;.B m 2 X X 4 XXF.# Y.Y.Y.Y.Y.L.L.L.L.L.L.L.L.L.L.L.",
"L.L.L.L.Y.Y.Y.Y.. - 9.(.$X&X9XqX4X$X^.5 Y.Y.} +X+XH.b.w 7 4.5.=.;.1.1.6.3.;.B v c a . . : F.m.% L.Y.Y.Y.Y.L.L.L.L.L.L.L.L.L.L.L.",
"Y.Y.Y.Y.Y.Y.Y.Y.Y.. - 9.$X&X>X6X5X.X0.- Y.Y.o | +XoXC.m.C Y 1.,.5.6.3.;.B m g , o 7 b g - = x.% L.L.Y.Y.L.L.L.L.Y.Y.Y.L.L.L.L.L.",
"Y.Y.Y.Y.Y.Y.Y.Y.K.K.  ` 2X2X5X8X7X,X< . Y.R.X 4 XXOXG.B.O.A z 4.5.1.( N B x 1 b &.4.3.B c @ % # L.L.L.L.L.L.L.Y.Y.Y.Y.Y.Y.Y.Y.Y.",
"Y.Y.Y.Y.Y.Y.Y.K.K.K.. ` E.1X7X8X7X1XR . R.R.R.X y XXP.V.n.L d #.4.,.:.:.:.1.7.7.5.,.( B B c - X L.L.L.L.L.L.L.Y.Y.Y.Y.Y.Y.Y.Y.Y.",
"Y.Y.Y.Y.Y.K.K.K.R.R.X : U 7X7X7X1X1X`   R.R.R.X X S.P.V.n.+.L <.6.6.6.6.6.5.3.,.( B B B B B 2 . Y.Y.L.L.L.L.Y.Y.Y.Y.Y.Y.Y.Y.Y.Y.",
"Y.Y.K.K.K.K.R.R.R.R.. 5 ~.3X1X` ` 3X .  R.R.X X X t P.V.n.+.J <.6.7.7.7.4.) B B B B B B B B 2 X Y.Y.Y.L.L.L.L.L.L.L.L.L.L.Y.Y.Y.",
"R.K.K.R.R.R.R.R.R.R.. R 1X~.` $ w.<XR . R.R.X > - 4 F.N.P +.C 1 4.4.>.) ) B B v a ; ; ; ; , + X X Y.Y.L.L.L.L.L.L.L.L.L.L.L.L.L.",
"R.R.R.R.R.R.R.R.R.R.X $ R > X 5 X.> o R.R.X 5 h.<.@ p n.+.K $ 7 4.>.=.B v h s + X X q i i i i 0 X X Y.L.L.L.L.L.R.R.R.R.R.R.R.R.",
"Y.Y.Y.Y.Y.Y.R.R.L.L.L.X X X $ $ $ X X L.L.. [  Xf.8 D O.o.Z 8 4.6.4.) g ; X $ % = x.M.C.V.H.I.H.v.* X L.R.R.R.R.R.R.R.R.R.R.R.R.",
"Y.Y.Y.Y.Y.Y.Y.Y.Y.Y.Y.Y.X - T _ Q $ L.L.L.. [  X[.k.j.e.4.4.5.6.7.;.s X X & J Z.M.C.C.C.V.H.OX+XOXA.* X Y.Y.Y.Y.Y.Y.Y.Y.Y.Y.Y.Y.",
"Y.Y.Y.Y.Y.Y.Y.Y.Y.Y.Y.Y.. 5 ] u.@.- L.L.L.. [  Xz.z.z.z.l.8.7.7.5.z $ $ 4 J +.n.C.C.C.C.C.C.H.oX+XOXJ.4 . Y.Y.Y.Y.Y.Y.Y.Y.Y.Y.Y.",
"R.R.R.Y.Y.Y.Y.Y.Y.Y.Y.Y.. 5 ] d.p.- Y.Y.L.. [ [.r.7.7.8.7.7.7.6.#.+ C Z K +.+.Z.N.C.N.x.x.G m.G.P.I.I.b.e $ Y.Y.Y.Y.Y.Y.Y.Y.Y.R.",
"R.R.R.R.Y.Y.Y.Y.Y.Y.Y.Y.Y.5 ] d.p.- L.L.L.X 5 h.z.f.7.7.5.7.7.6.#.X X $ d A +.+.Z.D q X X X 0 u c.M.M.C.N.= X Y.Y.Y.Y.Y.Y.Y.R.R.",
"R.R.R.R.R.R.R.Y.Y.Y.Y.L.L.< _ @.p.- L.L.L.X . 1 $.4.6.7.7.7.7.6.#.X X d J L +.+.J $ & d $ X Y.. $ % * G m.x.X Y.Y.Y.R.R.R.R.R.R.",
"Y.Y.Y.R.R.R.R.R.Y.Y.Y.Y.Y.X I ] { - . Y.Y.Y.X s 2 7 n 3.5.5.5.4./ ; X $ K +.+.+.L Z K +.Z O Y.Y.Y.X X X 0 e X Y.Y.Y.Y.Y.R.R.R.R.",
"Y.Y.Y.Y.R.R.R.R.R.Y.Y.Y.Y.X + - - % 0 # Y.Y.o v ) M ( -.;.:.1.-.( v ; d J +.+.+.+.+.+.+.K $ Y.Y.Y.Y.Y.Y.X X X Y.Y.Y.Y.Y.Y.Y.R.Y.",
"Y.Y.Y.Y.Y.Y.Y.Y.Y.Y.Y.Y.X t | & X e N.S Y.Y.o #.6.6.6.7.7.7.7.7.3.) v , $ A +.+.+.+.+.+.C X R.R.R.R.Y.Y.Y.Y.Y.Y.Y.Y.Y.Y.Y.Y.Y.Y.",
"Y.Y.Y.Y.Y.Y.Y.Y.Y.Y.Y.Y.X | @XT.} $ x.c.Y.Y.o &.4.%.1.7.7.7.7.7.7.3.V v , : A K +.+.+.C X X R.R.R.R.R.R.R.R.R.L.L.L.Y.Y.Y.Y.Y.Y.",
"Y.Y.Y.Y.Y.Y.Y.Y.Y.Y.Y.Y.% D.oX@XXX: F i Y.Y.o 9 1 . b 6.7.7.7.7.3.:.B B B x 3 4 K +.J , s + X L.L.L.L.L.L.L.L.L.L.L.L.L.L.L.L.Y.",
"L.L.L.L.L.L.L.L.Y.Y.Y.Y.% M.G.I.oX| % X X X X   @ 7 1.7.7.7.7.5.) N B B B B N c W J E m B s X L.L.L.L.L.L.L.L.L.L.L.L.L.L.L.L.L.",
"L.L.L.L.Y.Y.Y.Y.Y.Y.Y.Y.% M.C.C.C.v.X X X X o 9 $.7.6.6.6.6.6.>.B B B B B B B B m g m B B c - X L.L.L.L.L.L.L.L.L.L.L.L.L.L.L.L.",
"Y.Y.Y.Y.Y.Y.Y.Y.Y.Y.Y.Y.X S C.C.C.F X X X X X 1 1 7 &.&.&.&.&.M v B B B B B B B v v v m B v , # * X L.L.L.L.L.L.L.L.L.L.L.L.Y.Y.",
"Y.Y.Y.Y.Y.Y.Y.Y.Y.Y.Y.Y.Y.= F F S % X K.K.X j T R R - + + + + o ; h h g g g g g - + o , g + X e M.u X L.Y.Y.Y.L.L.Y.Y.Y.Y.Y.Y.Y.",
"Y.Y.Y.Y.Y.Y.Y.Y.Y.Y.Y.Y.Y.X X X X $ X K.K..  .d.W.!.X.E.W.u.u.W.a.T j : - - - X Q .._ 5 ' T 4 c.C.M.q X Y.Y.Y.Y.Y.Y.Y.Y.Y.Y.Y.Y.",
"Y.Y.Y.Y.Y.Y.Y.Y.Y.Y.Y.Y.Y.Y.X - f j X R.R.X $ $ $ < _ w.a. ...a...j Q p.' @...$ X.p.u.- I I 4 M.C.C.i . Y.Y.Y.Y.Y.Y.Y.R.R.R.R.R.",
"Y.Y.Y.Y.Y.K.K.K.K.K.Y.Y.K.K.X 5 u.' X R.R.X a l l ; + + + + + + + + : f 3 5 5 X 5 Q j X X X % m.C.C.u . Y.Y.R.R.R.R.R.R.R.R.R.R.",
"Y.Y.Y.Y.K.K.K.K.K.K.K.K.K.K.X > _ I X R.X , =.-.-.) m m m m m m m m c 2 2 @ $ j 5 $ $ j - X $ D G p # X R.R.R.R.R.R.R.R.R.R.R.Y.",
"K.K.Y.K.K.K.R.R.K.K.K.K.K.R.R.X X X R.R.o n 4.4.6.7.2.>.>.) B B B B B B v @ < X.X.o < u.T $ X X X X X R.R.R.R.R.R.R.R.R.R.Y.Y.Y.",
"K.K.K.K.K.R.R.R.R.K.K.K.R.R.R.R.R.K.R.R.X - - 1 #.#.#.#.#.( B B B B x x s < ' { I X - I { ' - X Y.Y.Y.Y.Y.Y.Y.Y.Y.Y.Y.Y.Y.Y.Y.K.",
"K.R.R.K.K.R.R.R.R.R.R.R.R.R.R.R.R.R.R.R.R.R.R.X X X X X X , a 3 a 3 + X X R u.f $ X X X j p.f R.R.R.Y.Y.Y.Y.Y.Y.Y.Y.Y.Y.Y.Y.Y.K.",
"R.R.R.R.R.R.R.R.R.R.R.R.R.R.R.R.R.R.R.R.R.L.L.L.X X X X X X X X X X X R.X $ - . X X X X X > $ R.R.R.R.Y.Y.Y.Y.Y.Y.Y.Y.R.R.K.K.K.",
"R.R.R.R.R.Y.Y.Y.R.R.R.R.R.Y.Y.Y.Y.R.R.R.L.L.L.L.X X X Y.R.Y.Y.Y.Y.Y.Y.Y.X X X L.L.L.X X X X R.R.Y.Y.Y.Y.Y.Y.Y.Y.Y.R.R.R.R.R.R.R.",
"R.R.R.R.Y.Y.Y.Y.Y.R.R.R.Y.Y.Y.L.L.L.L.L.L.L.L.L.X X X Y.Y.Y.Y.Y.Y.L.L.L.L.L.L.L.L.L.Y.X X X Y.Y.Y.Y.Y.Y.Y.Y.Y.R.R.R.R.R.R.R.R.R.",
"R.R.Y.Y.Y.Y.Y.Y.Y.R.R.R.Y.Y.L.L.L.L.L.L.L.L.X X X X X Y.Y.Y.Y.Y.L.L.L.L.L.L.L.L.L.L.L.X X X Y.Y.Y.Y.Y.Y.Y.Y.R.R.R.Y.Y.Y.R.R.R.R.",
"Y.Y.Y.Y.Y.Y.Y.Y.Y.Y.Y.R.Y.Y.L.L.L.L.L.L.L.L.X X X X L.L.L.Y.Y.L.L.L.L.L.L.Y.Y.L.L.L.L.X X X Y.Y.Y.Y.Y.Y.R.R.R.R.Y.Y.Y.Y.Y.R.R.R.",
"Y.Y.Y.Y.Y.Y.Y.Y.Y.Y.Y.Y.L.L.L.L.L.L.L.L.L.L.L.L.L.L.L.L.L.L.L.L.L.L.L.L.Y.Y.Y.Y.Y.L.L.L.L.L.Y.Y.Y.Y.Y.Y.Y.Y.Y.Y.Y.Y.Y.Y.Y.Y.Y.Y.",
"Y.Y.Y.Y.Y.Y.L.L.L.L.L.L.L.L.L.L.Y.Y.Y.L.L.L.L.L.L.L.L.L.L.L.L.L.L.L.L.L.Y.Y.Y.Y.Y.Y.Y.Y.Y.Y.Y.Y.Y.Y.Y.Y.Y.Y.Y.Y.Y.Y.Y.Y.Y.Y.Y.Y.",
"Y.Y.Y.Y.Y.Y.Y.Y.Y.L.L.L.L.L.L.Y.Y.Y.Y.Y.L.L.Y.Y.Y.L.L.L.L.L.L.L.Y.Y.L.L.Y.Y.Y.Y.Y.Y.Y.Y.Y.Y.Y.Y.Y.Y.Y.Y.Y.Y.L.L.L.Y.Y.Y.Y.Y.Y.Y.",
"Y.Y.Y.Y.Y.Y.Y.Y.Y.Y.Y.Y.L.L.L.Y.Y.Y.Y.Y.L.Y.Y.Y.Y.Y.Y.L.L.L.L.Y.Y.Y.Y.L.L.Y.Y.Y.Y.Y.Y.Y.Y.Y.Y.Y.Y.Y.Y.Y.Y.L.L.L.L.L.Y.Y.Y.Y.Y.Y.",
"Y.Y.Y.Y.Y.Y.R.R.Y.Y.Y.Y.Y.Y.Y.Y.Y.Y.Y.Y.Y.Y.Y.Y.Y.Y.Y.Y.Y.Y.Y.Y.Y.Y.Y.Y.Y.Y.Y.Y.Y.Y.Y.Y.Y.Y.L.L.L.Y.Y.Y.L.L.L.L.L.L.Y.Y.Y.Y.Y.Y.",
"Y.Y.Y.Y.Y.R.R.R.R.Y.Y.Y.Y.R.R.R.R.Y.Y.Y.Y.Y.Y.Y.Y.Y.Y.Y.Y.Y.Y.Y.Y.Y.Y.Y.Y.Y.Y.Y.Y.Y.Y.Y.Y.L.L.L.L.L.L.L.L.L.L.L.L.L.Y.Y.Y.Y.Y.Y.",
"Y.Y.Y.R.R.R.R.R.R.R.R.R.R.R.R.R.R.R.R.Y.Y.Y.Y.Y.Y.Y.Y.L.L.L.L.Y.Y.Y.Y.Y.Y.Y.Y.Y.Y.Y.Y.Y.L.L.L.L.L.L.L.L.L.L.L.L.L.L.L.L.L.Y.Y.Y.",
"L.L.R.R.R.R.R.R.R.R.R.R.R.R.R.R.L.L.L.L.Y.Y.L.L.L.L.L.L.L.L.L.L.L.Y.Y.L.L.L.L.Y.Y.Y.Y.L.L.L.L.L.L.L.L.L.L.L.L.L.L.L.L.L.L.L.L.L."
};
