/* XPM */
static const char *goblin7_R[] = {
/* columns rows colors chars-per-pixel */
"64 64 216 2 ",
"   c #0F162B",
".  c #0F1A2C",
"X  c #14172C",
"o  c #151B2E",
"O  c #191D2F",
"+  c #1C1E31",
"@  c #211F32",
"#  c #17222F",
"$  c #1C202F",
"%  c #1C2231",
"&  c #1A2B32",
"*  c #1B2935",
"=  c #1B3233",
"-  c #1D3B35",
";  c #222334",
":  c #282636",
">  c #242B34",
",  c #2C2A36",
"<  c #2B2439",
"1  c #2D2D39",
"2  c #382736",
"3  c #312C36",
"4  c #31263D",
"5  c #352A3E",
"6  c #3A2A38",
"7  c #263539",
"8  c #36333D",
"9  c #3A353A",
"0  c #3A353E",
"q  c #462D3A",
"w  c #4A333B",
"e  c #52333D",
"r  c #1E4237",
"t  c #1F4838",
"y  c #1F513A",
"u  c #214C39",
"i  c #2D4B3A",
"p  c #314339",
"a  c #384D3C",
"s  c #22533B",
"d  c #235B3C",
"f  c #26633E",
"g  c #362940",
"h  c #3D2B44",
"j  c #253A43",
"k  c #3D3941",
"l  c #432E47",
"z  c #462F48",
"x  c #433E44",
"c  c #4F3E43",
"v  c #4B314B",
"b  c #593644",
"n  c #52344E",
"m  c #573652",
"M  c #5E3955",
"N  c #673A43",
"B  c #713D47",
"V  c #623A57",
"C  c #6D3D52",
"Z  c #663C5A",
"A  c #6A3D5B",
"S  c #713F54",
"D  c #2C4A4C",
"F  c #334C4F",
"G  c #345857",
"H  c #296843",
"J  c #326747",
"K  c #297242",
"L  c #2C7C44",
"P  c #337544",
"I  c #3A625E",
"U  c #3C6761",
"Y  c #3D6A63",
"T  c #3F7E64",
"R  c #4D4449",
"E  c #4E4B4A",
"W  c #58474A",
"Q  c #53494C",
"!  c #5B544D",
"~  c #584C56",
"^  c #485B5F",
"/  c #5E5052",
"(  c #644C42",
")  c #6D5144",
"_  c #74554B",
"`  c #774156",
"'  c #74405A",
"]  c #7C435A",
"[  c #635453",
"{  c #635A51",
"}  c #6B5A57",
"|  c #6D5B59",
" . c #735350",
".. c #715E5A",
"X. c #4C6E45",
"o. c #557A48",
"O. c #6C655A",
"+. c #74635A",
"@. c #7A655E",
"#. c #7A6959",
"$. c #486E67",
"%. c #477E64",
"&. c #417269",
"*. c #7E6860",
"=. c #834349",
"-. c #87474B",
";. c #90484C",
":. c #9C4C4E",
">. c #814457",
",. c #854659",
"<. c #894758",
"1. c #8D4958",
"2. c #9E4D56",
"3. c #944B58",
"4. c #895654",
"5. c #A24E52",
"6. c #A04E58",
"7. c #A75056",
"8. c #AC5254",
"9. c #A95457",
"0. c #B55555",
"q. c #B95655",
"w. c #B75857",
"e. c #B95B58",
"r. c #956A4E",
"t. c #91635A",
"y. c #82725E",
"u. c #B9645D",
"i. c #AB7753",
"p. c #B87F57",
"a. c #846D62",
"s. c #8C7466",
"d. c #8C7963",
"f. c #987768",
"g. c #BE6E62",
"h. c #AD7565",
"j. c #BB7A69",
"k. c #C37867",
"l. c #C37C6A",
"z. c #2D8346",
"x. c #2E8B48",
"c. c #328747",
"v. c #35964B",
"b. c #3A8A59",
"n. c #3C975B",
"m. c #36A54E",
"M. c #36A94F",
"N. c #37AD51",
"B. c #38A852",
"V. c #36B351",
"C. c #39B452",
"Z. c #3E8661",
"A. c #518B4C",
"S. c #6D9851",
"D. c #47AF52",
"F. c #58AB53",
"G. c #48B954",
"H. c #57BB56",
"J. c #6DAC55",
"K. c #679175",
"L. c #79A863",
"P. c #69C45A",
"I. c #7BCB5D",
"U. c #BD8358",
"Y. c #9BB94E",
"T. c #82B95A",
"R. c #BFBA5B",
"E. c #9C866B",
"W. c #A48C6E",
"Q. c #B19874",
"!. c #B5A07B",
"~. c #CC8C5C",
"^. c #D18F5D",
"/. c #D69F57",
"(. c #D6935E",
"). c #D9945F",
"_. c #DC9A5D",
"`. c #C1A75A",
"'. c #DFA15B",
"]. c #E3AA59",
"[. c #E7B455",
"{. c #EABB53",
"}. c #C6826D",
"|. c #DA9360",
" X c #CA8670",
".X c #87C85E",
"XX c #86D05F",
"oX c #8CD361",
"OX c #95D562",
"+X c #99DA63",
"@X c #EFC94F",
"#X c #F1CD4E",
"$X c #F5D649",
"%X c #EDC450",
"&X c #FBE446",
"*X c #FEEC44",
"=X c #FFEE4C",
"-X c #FFEF58",
";X c #FFF155",
":X c #FFF165",
">X c #F4E17E",
",X c #FFF377",
"<X c #C3AC82",
"1X c #D6B988",
"2X c #E4CE99",
"3X c #ECD794",
"4X c #FFF48A",
"5X c #F0E19F",
"6X c #FFF594",
"7X c #E8D9A4",
"8X c #F0DFB0",
"9X c #F1E4A8",
"0X c #FFF9BE",
"qX c #FFFCDC",
"wX c #FFFDE6",
"eX c #FFFEF5",
/* pixels */
"Y.Y.Y.Y.Y.R.R.f.f.R.R.R.R.R.R.L.L.L.L.L.L.L.L.L.L.L.L.L.L.L.L.L.L.L.L.L.L.L.L.L.L.L.L.L.L.L.L.L.L.L.L.L.L.L.L.L.L.L.L.L.L.L.L.L.",
"Y.Y.Y.Y.Y.Y.R.R.R.R.R.R.Y.L.L.L.Y.Y.Y.L.L.L.L.L.L.L.L.L.L.L.L.L.L.L.L.L.L.L.L.L.K.K.K.K.L.L.L.L.L.L.L.L.L.L.L.L.L.L.L.L.L.Y.Y.Y.",
"Y.Y.R.R.R.R.R.R.R.R.R.Y.Y.Y.Y.Y.Y.Y.Y.Y.Y.Y.Y.L.L.L.L.L.L.L.L.L.L.L.L.L.L.L.L.K.K.K.K.K.K.Y.Y.Y.Y.Y.Y.Y.Y.K.K.K.K.L.L.L.Y.Y.Y.Y.",
"R.R.R.R.R.R.R.R.R.R.R.Y.Y.Y.Y.Y.Y.Y.L.L.L.L.L.L.L.L.L.L.L.L.L.L.L.L.L.K.K.K.L.K.K.K.K.K.K.K.K.K.K.K.Y.Y.K.K.K.K.K.K.K.L.Y.Y.Y.Y.",
"R.R.R.R.R.R.R.R.R.R.Y.Y.Y.Y.Y.Y.Y.Y.Y.Y.L.L.L.L.L.L.L.L.L.L.L.L.L.L.K.K.K.K.K.K.K.K.K.K.K.K.K.K.K.K.K.K.K.R.R.R.K.K.K.K.Y.Y.Y.R.",
"Y.Y.Y.Y.Y.R.R.R.R.R.Y.Y.Y.Y.Y.Y.Y.).).).).Y.L.L.L.L.L.L.L.L.L.L.L.K.K.K.K.K.R.R.R.R.K.K.K.K.R.R.R.R.K.K.R.R.R.R.R.K.K.K.K.R.R.R.",
"Y.Y.Y.Y.Y.Y.R.R.R.R.R.Y.R.R.Y.Y.Y.Y.Y.Y.|.).Y.Y.Y.Y.L.L.L.L.L.L.L.K.K.K.R.R.R.R.R.R.R.K.K.R.R.R.R.R.R.R.R.R.R.R.R.R.R.R.R.R.Y.Y.",
"Y.Y.Y.Y.Y.Y.Y.Y.R.R.R.R.R.R.R.Y.Y.Y.Y.Y.#X_.Y.Y.Y.Y.L.L.L.L.L.K.K.K.K.R.R.R.R.R.R.R.R.K.R.R.R.R.R.R.R.R.R.R.R.R.R.R.R.R.R.R.Y.Y.",
"R.R.Y.Y.Y.Y.Y.Y.Y.R.R.R.Y.Y.).).).)._.$X&X_.Y.Y.Y.Y.Y.R.R.R.R.R.R.K.R.R.R.R.R.R.R.R.R.R.R.R.R.R.R.R.R.R.R.R.R.R.R.R.R.R.R.R.Y.R.",
"R.R.R.Y.Y.Y.Y.Y.Y.Y.Y.Y.).).).).).).).{.].).Y.Y.Y.Y.R.R.Y.Y.R.R.R.R.R.R.R.R.R.R.R.R.R.R.R.R.R.R.R.R.R.R.R.R.R.R.R.R.R.R.R.R.R.R.",
"R.R.R.Y.Y.Y.R.R.Y.(.).).).'.@X%X).).Y.|.).).Y.Y.Y.Y.R.Y.Y.Y.Y.R.R.R.R.R.R.R.R.Y.Y.Y.R.R.R.R.R.Y.Y.R.R.R.R.Y.Y.R.R.R.R.R.R.R.R.R.",
"R.R.R.Y.Y.R.R.R.w ^.).).[.&X&X{.).Y.Y.).).Y.Y.Y.Y.Y.Y.Y.Y.Y.Y.Y.Y.Y.Y.R.R.R.Y.Y.Y.Y.Y.R.R.Y.Y.Y.Y.Y.Y.R.Y.Y.Y.Y.R.R.R.R.R.R.R.R.",
"R.R.R.R.R.R.R.R.r.).).[.&X*X&X_.).R.R.).Y.Y.Y.Y.Y.Y.Y.Y.Y.O ; X Y.Y.Y.Y.R.R.Y.Y.Y.Y.Y.R.Y.Y.Y.Y.Y.Y.Y.Y.Y.Y.Y.Y.R.R.R.R.R.R.R.R.",
"R.R.R.R.R.R.R.% i.|.'.&X*X*X#X_.).Y.).Y.Y.Y.Y.Y.Y.Y.Y.Y.Y., t.e O O Y.Y.Y.Y.Y.Y.Y.Y.Y.R.Y.Y.Y.Y.Y.Y.Y.Y.Y.Y.Y.Y.R.R.R.R.R.Y.Y.Y.",
"Y.Y.Y.Y.Y.Y.Y.% i.|.@X*X=X*X[.|.(.L.Y.Y.Y.Y.Y.Y.Y.Y.Y.Y.Y.: g.w.N O O Y.Y.Y.Y.Y.Y.Y.Y.Y.Y.Y.Y.Y.Y.Y.Y.Y.Y.Y.Y.Y.Y.Y.Y.Y.Y.Y.Y.Y.",
"Y.Y.Y.Y.Y.Y.Y.% i._.$X:X0X=X[.|.~., L.Y.L.L.L.L.Y.Y.Y.Y.o c g.0.0.N O O O Y.Y.Y.Y.Y.Y.Y.Y.Y.Y.Y.Y.Y.Y.Y.Y.Y.Y.Y.Y.Y.Y.Y.Y.Y.Y.Y.",
"Y.Y.Y.Y.Y.Y.Y.O ( (.$X6XwX=X#X_.(._ L.L.L.L.L.L.L.Y.Y.o O t.u.0.0.u.N + O O Y.Y.Y.Y.Y.Y.L.L.X X O Y.Y.Y.Y.Y.Y.Y.Y.Y.Y.Y.Y.Y.Y.Y.",
"Y.Y.Y.Y.Y.Y.Y.X 9 (.$X,X,X*X&X_.).(.( L.L.O O L.L.R.R.+  .l.w.0.g.k.6.M ; O O L.L.Y.Y.L.L.o p p o Y.Y.Y.Y.Y.Y.Y.Y.Y.Y.Y.Y.Y.Y.Y.",
"Y.Y.Y.Y.Y.L.L.X 9 (.$X*X;X4X&X{.).|.( X L.O % % X L.o , j.g.0.w.}.u.,.v + + ; O o L.L.L.X p .XA.o Y.Y.Y.Y.Y.Y.L.L.L.Y.Y.Y.Y.Y.Y.",
"Y.Y.Y.L.L.L.L.L.3 p.].*X-XwX,X$X_.).U.3 Y.X X.J.i # o 3 j.u.0.g.g.1.n < e 5.5.N : O O o O A.I.= L.L.Y.Y.Y.Y.L.L.L.L.L.Y.Y.Y.L.L.",
"L.Y.Y.Y.Y.Y.Y.Y.X ) ].&X-XeX0X=X[.|.~., Y.X o.+XXXP # % 4.e.0.q.7.b 6 B 8.q.8.] Z 4 o o 7 .XF.# Y.Y.Y.Y.Y.L.L.L.L.L.L.L.L.L.L.L.",
"L.L.L.L.Y.Y.Y.Y.Y.: r.%X;XqXqX:X&X].~., Y.Y.X.OXOXH.v.y q 8.0.2.3.:.5.q.q.8.] M m g X X > F.m.& L.Y.Y.Y.Y.L.L.L.L.L.L.L.L.L.L.L.",
"Y.Y.Y.Y.Y.Y.Y.Y.Y.Y.3 /.&X6X4X6X>X`.i.3 Y.Y.O o.OXXXC.m.D W 5.3.0.q.q.0.3.' l < O q N l ; - z.& L.L.Y.Y.L.L.L.L.Y.Y.Y.L.L.L.L.L.",
"Y.Y.Y.Y.Y.Y.Y.Y.K.K.O #.3X5X5X9X8X!.8 $ Y.R.o 7 .XoXG.B.%.G b 8.0.0.7.<.Z n 2 N :.8.7.A m @ & # L.L.L.L.L.L.L.Y.Y.Y.Y.Y.Y.Y.Y.Y.",
"Y.Y.Y.Y.Y.Y.Y.K.K.K.  { E.1X7X9X8X1X!   R.R.R.o a .XP.V.n.Y j =.q.0.3.1.1.5.0.0.0.3.' A A m ; o L.L.L.L.L.L.L.Y.Y.Y.Y.Y.Y.Y.Y.Y.",
"Y.Y.Y.Y.Y.K.K.K.R.R.o > E 7X7X7X1X1X{   R.R.R.O O S.P.V.n.&.Y 4.q.0.q.q.q.q.0.8.>.Z A A A A 4 X Y.Y.L.L.L.L.Y.Y.Y.Y.Y.Y.Y.Y.Y.Y.",
"Y.Y.K.K.K.K.R.R.R.R.X 0 !.2X1X{ { 2XO.  R.R.O o o p P.V.n.&.I 4.q.0.0.0.8.3.<.A A A A A A A 4 O Y.Y.Y.L.L.L.L.L.L.L.L.L.L.Y.Y.Y.",
"R.K.K.R.R.R.R.R.R.R.X ! 1X!.{ ; *.<X! X R.R.o , ; 7 F.N.T &.D 2 8.8.8.8.] A Z M 5 < < < < < + o O Y.Y.L.L.L.L.L.L.L.L.L.L.L.L.L.",
"R.R.R.R.R.R.R.R.R.R.O % ! , o 0 #., O R.R.o 0 h.4.@ f n.&.U % q 8.2.>.A V z h + o o t d d d d r o o Y.L.L.L.L.L.R.R.R.R.R.R.R.R.",
"Y.Y.Y.Y.Y.Y.R.R.L.L.L.O o o % % % O O L.L.X  . Xg.w J %.$.F w 8.0.8.] l : o % & - z.M.C.V.H.I.H.c.= o L.R.R.R.R.R.R.R.R.R.R.R.R.",
"Y.Y.Y.Y.Y.Y.Y.Y.Y.Y.Y.Y.O ; Q [ / % L.L.L.X  . X}.j.u.9.8.8.0.q.0.<.h O o * I b.M.C.C.V.V.H.oXOXoXA.= o Y.Y.Y.Y.Y.Y.Y.Y.Y.Y.Y.Y.",
"Y.Y.Y.Y.Y.Y.Y.Y.Y.Y.Y.Y.X 8 | a.*.; L.L.L.X  . Xl.l.k.e.0.0.0.0.0.b % % 7 U &.n.C.C.C.C.C.C.H.XXOXoXJ.7 X Y.Y.Y.Y.Y.Y.Y.Y.Y.Y.Y.",
"R.R.R.Y.Y.Y.Y.Y.Y.Y.Y.Y.X 8 | f.s.; Y.Y.L.X  .}.u.w.w.0.0.0.0.q.=.% D F Y &.&.Z.N.C.N.z.z.L m.G.P.I.I.v.u % Y.Y.Y.Y.Y.Y.Y.Y.Y.R.",
"R.R.R.R.Y.Y.Y.Y.Y.Y.Y.Y.Y.0 | f.s.; L.L.L.o 9 h.k.g.g.e.0.0.0.q.=.o O % j G &.&.Z.J t O o o r s x.M.M.C.N.- o Y.Y.Y.Y.Y.Y.Y.R.R.",
"R.R.R.R.R.R.R.Y.Y.Y.Y.L.L.1 [ *.s.; L.L.L.O X 6 -.0.e.0.0.0.0.q.=.o o j I Y &.&.I % * j % o Y.X % & = L m.z.O Y.Y.Y.R.R.R.R.R.R.",
"Y.Y.Y.R.R.R.R.R.Y.Y.Y.Y.Y.O R | ..; X Y.Y.Y.O h 4 q B 7.0.0.0.8.` < o % U &.&.&.Y F Y &.F O Y.Y.Y.o o o r u O Y.Y.Y.Y.Y.R.R.R.R.",
"Y.Y.Y.Y.R.R.R.R.R.Y.Y.Y.Y.o + ; ; & r # Y.Y.O M ] C ` ,.<.1.5.,.' M < j I &.&.&.&.&.&.&.Y % Y.Y.Y.Y.Y.Y.o o O Y.Y.Y.Y.Y.Y.Y.R.Y.",
"Y.Y.Y.Y.Y.Y.Y.Y.Y.Y.Y.Y.o p o.& o u N.H Y.Y.O =.q.q.0.0.0.0.0.0.8.] M < % G &.&.&.&.&.&.D O R.R.R.R.Y.Y.Y.Y.Y.Y.Y.Y.Y.Y.Y.Y.Y.Y.",
"Y.Y.Y.Y.Y.Y.Y.Y.Y.Y.Y.Y.O o.+XT.X.% z.x.Y.Y.O :.8.;.5.0.0.0.0.0.0.8.' M < > G Y &.&.&.D O o R.R.R.R.R.R.R.R.R.L.L.L.Y.Y.Y.Y.Y.Y.",
"Y.Y.Y.Y.Y.Y.Y.Y.Y.Y.Y.Y.& D.XX+X.X> K d Y.Y.O e 6 X N q.0.0.0.0.8.1.A A A n 5 7 Y &.I < h + O L.L.L.L.L.L.L.L.L.L.L.L.L.L.L.L.Y.",
"L.L.L.L.L.L.L.L.Y.Y.Y.Y.& M.G.I.XXo.& O O O O . ; q 5.0.0.0.0.0.] Z A A A A Z m ^ I ~ V A h o L.L.L.L.L.L.L.L.L.L.L.L.L.L.L.L.L.",
"L.L.L.L.Y.Y.Y.Y.Y.Y.Y.Y.& M.C.C.C.c.o O O O O e -.0.q.q.q.q.q.2.A A A A A A A A V l V A A m ; o L.L.L.L.L.L.L.L.L.L.L.L.L.L.L.L.",
"Y.Y.Y.Y.Y.Y.Y.Y.Y.Y.Y.Y.O H C.C.C.K o O O O o 2 2 q :.:.:.:.:.S M A A A A A A A M M M V A M < # = O L.L.L.L.L.L.L.L.L.L.L.L.Y.Y.",
"Y.Y.Y.Y.Y.Y.Y.Y.Y.Y.Y.Y.Y.- K K H & o K.K.o x Q ! ! % + + + + O < z z l l l l l ; + O < l + o u M.s o L.Y.Y.Y.L.L.Y.Y.Y.Y.Y.Y.Y.",
"Y.Y.Y.Y.Y.Y.Y.Y.Y.Y.Y.Y.Y.o o o o % O K.K.X O.f.W.Q.@.E.W.a.a.W.d.Q x : ; ; ; O / +.[ 0 } Q 7 x.C.M.t o Y.Y.Y.Y.Y.Y.Y.Y.Y.Y.Y.Y.",
"Y.Y.Y.Y.Y.Y.Y.Y.Y.Y.Y.Y.Y.Y.O ; k x O R.R.O % % % 1 [ y.d.+.+.d.#.x / s.} *.+.% @.s.a.; R R 7 M.C.C.d X Y.Y.Y.Y.Y.Y.Y.R.R.R.R.R.",
"Y.Y.Y.Y.Y.K.K.K.K.K.Y.Y.K.K.o 8 a.[ O R.R.O g v v < + + + + + + + + : k 3 0 8 o 0 / x o o o & m.C.C.s X Y.Y.R.R.R.R.R.R.R.R.R.R.",
"Y.Y.Y.Y.K.K.K.K.K.K.K.K.K.K.o , [ R O R.X < >.,.,.] V V V V V V V V m 4 4 @ % x 0 % % x ; o % J L f # o R.R.R.R.R.R.R.R.R.R.R.Y.",
"K.K.Y.K.K.K.R.R.K.K.K.K.K.R.R.O o o R.R.O B 8.8.q.0.2.2.2.] A A A A A A M ; 1 @.@.O , a.Q % o o o o O R.R.R.R.R.R.R.R.R.R.Y.Y.Y.",
"K.K.K.K.K.R.R.R.R.K.K.K.R.R.R.R.R.K.R.R.O ; ; 6 =.=.=.=.=.S A A A A n n h 1 } ..R O % R ..} ; o Y.Y.Y.Y.Y.Y.Y.Y.Y.Y.Y.Y.Y.Y.Y.K.",
"K.R.R.K.K.R.R.R.R.R.R.R.R.R.R.R.R.R.R.R.R.R.R.O o o o o o < g g g 5 + O X ! a.k % o O o x s.k R.R.R.Y.Y.Y.Y.Y.Y.Y.Y.Y.Y.Y.Y.Y.K.",
"R.R.R.R.R.R.R.R.R.R.R.R.R.R.R.R.R.R.R.R.R.L.L.L.O O O O O o X o X o O R.O % ; X o O O O O > % R.R.R.R.Y.Y.Y.Y.Y.Y.Y.Y.R.R.K.K.K.",
"R.R.R.R.R.Y.Y.Y.R.R.R.R.R.Y.Y.Y.Y.R.R.R.L.L.L.L.O O O Y.R.Y.Y.Y.Y.Y.Y.Y.O o o L.L.L.O O O o R.R.Y.Y.Y.Y.Y.Y.Y.Y.Y.R.R.R.R.R.R.R.",
"R.R.R.R.Y.Y.Y.Y.Y.R.R.R.Y.Y.Y.L.L.L.L.L.L.L.L.L.O O O Y.Y.Y.Y.Y.Y.L.L.L.L.L.L.L.L.L.Y.O O O Y.Y.Y.Y.Y.Y.Y.Y.Y.R.R.R.R.R.R.R.R.R.",
"R.R.Y.Y.Y.Y.Y.Y.Y.R.R.R.Y.Y.L.L.L.L.L.L.L.L.O O O O O Y.Y.Y.Y.Y.L.L.L.L.L.L.L.L.L.L.L.O O O Y.Y.Y.Y.Y.Y.Y.Y.R.R.R.Y.Y.Y.R.R.R.R.",
"Y.Y.Y.Y.Y.Y.Y.Y.Y.Y.Y.R.Y.Y.L.L.L.L.L.L.L.L.O O O O L.L.L.Y.Y.L.L.L.L.L.L.Y.Y.L.L.L.L.O O O Y.Y.Y.Y.Y.Y.R.R.R.R.Y.Y.Y.Y.Y.R.R.R.",
"Y.Y.Y.Y.Y.Y.Y.Y.Y.Y.Y.Y.L.L.L.L.L.L.L.L.L.L.L.L.L.L.L.L.L.L.L.L.L.L.L.L.Y.Y.Y.Y.Y.L.L.L.L.L.Y.Y.Y.Y.Y.Y.Y.Y.Y.Y.Y.Y.Y.Y.Y.Y.Y.Y.",
"Y.Y.Y.Y.Y.Y.L.L.L.L.L.L.L.L.L.L.Y.Y.Y.L.L.L.L.L.L.L.L.L.L.L.L.L.L.L.L.L.Y.Y.Y.Y.Y.Y.Y.Y.Y.Y.Y.Y.Y.Y.Y.Y.Y.Y.Y.Y.Y.Y.Y.Y.Y.Y.Y.Y.",
"Y.Y.Y.Y.Y.Y.Y.Y.Y.L.L.L.L.L.L.Y.Y.Y.Y.Y.L.L.Y.Y.Y.L.L.L.L.L.L.L.Y.Y.L.L.Y.Y.Y.Y.Y.Y.Y.Y.Y.Y.Y.Y.Y.Y.Y.Y.Y.Y.L.L.L.Y.Y.Y.Y.Y.Y.Y.",
"Y.Y.Y.Y.Y.Y.Y.Y.Y.Y.Y.Y.L.L.L.Y.Y.Y.Y.Y.L.Y.Y.Y.Y.Y.Y.L.L.L.L.Y.Y.Y.Y.L.L.Y.Y.Y.Y.Y.Y.Y.Y.Y.Y.Y.Y.Y.Y.Y.Y.L.L.L.L.L.Y.Y.Y.Y.Y.Y.",
"Y.Y.Y.Y.Y.Y.R.R.Y.Y.Y.Y.Y.Y.Y.Y.Y.Y.Y.Y.Y.Y.Y.Y.Y.Y.Y.Y.Y.Y.Y.Y.Y.Y.Y.Y.Y.Y.Y.Y.Y.Y.Y.Y.Y.Y.L.L.L.Y.Y.Y.L.L.L.L.L.L.Y.Y.Y.Y.Y.Y.",
"Y.Y.Y.Y.Y.R.R.R.R.Y.Y.Y.Y.R.R.R.R.Y.Y.Y.Y.Y.Y.Y.Y.Y.Y.Y.Y.Y.Y.Y.Y.Y.Y.Y.Y.Y.Y.Y.Y.Y.Y.Y.Y.L.L.L.L.L.L.L.L.L.L.L.L.L.Y.Y.Y.Y.Y.Y.",
"Y.Y.Y.R.R.R.R.R.R.R.R.R.R.R.R.R.R.R.R.Y.Y.Y.Y.Y.Y.Y.Y.L.L.L.L.Y.Y.Y.Y.Y.Y.Y.Y.Y.Y.Y.Y.Y.L.L.L.L.L.L.L.L.L.L.L.L.L.L.L.L.L.Y.Y.Y.",
"L.L.R.R.R.R.R.R.R.R.R.R.R.R.R.R.L.L.L.L.Y.Y.L.L.L.L.L.L.L.L.L.L.L.Y.Y.L.L.L.L.Y.Y.Y.Y.L.L.L.L.L.L.L.L.L.L.L.L.L.L.L.L.L.L.L.L.L."
};
