/* XPM */
static const char *goblin5_R[] = {
/* columns rows colors chars-per-pixel */
"64 64 207 2 ",
"   c #14172D",
".  c #151B2E",
"X  c #181D2F",
"o  c #171E30",
"O  c #1B1E30",
"+  c #17212F",
"@  c #19212F",
"#  c #1B2331",
"$  c #192C32",
"%  c #1A2835",
"&  c #1B3534",
"*  c #1D3C35",
"=  c #232234",
"-  c #2A2334",
";  c #252935",
":  c #2A2A35",
">  c #242738",
",  c #2C243A",
"<  c #2C2C39",
"1  c #342736",
"2  c #31263C",
"3  c #342A3D",
"4  c #382D38",
"5  c #293738",
"6  c #33323C",
"7  c #39383D",
"8  c #472D3A",
"9  c #47363C",
"0  c #54323D",
"q  c #58343F",
"w  c #1E4137",
"e  c #1F4638",
"r  c #284439",
"t  c #214C39",
"y  c #23543B",
"u  c #28523D",
"i  c #245C3D",
"p  c #365C3F",
"a  c #26633F",
"s  c #3A2B42",
"d  c #273C44",
"f  c #3A3744",
"g  c #3D3941",
"h  c #432D46",
"j  c #462F48",
"k  c #4B3644",
"l  c #433D44",
"z  c #4B314B",
"x  c #563447",
"c  c #573651",
"v  c #5A3753",
"b  c #5F3A56",
"n  c #6A3A43",
"m  c #723D44",
"M  c #633A55",
"N  c #653B59",
"B  c #6A3D5B",
"V  c #2A444A",
"C  c #2D4A4D",
"Z  c #304F51",
"A  c #315354",
"S  c #365958",
"D  c #296943",
"F  c #2C7845",
"G  c #337043",
"H  c #3A635F",
"J  c #3E6D65",
"K  c #3F7D64",
"L  c #464144",
"P  c #4A4547",
"I  c #4E4449",
"U  c #57474A",
"Y  c #534A4A",
"T  c #534654",
"R  c #5E5151",
"E  c #654B48",
"W  c #6D4F53",
"Q  c #76415A",
"!  c #7A425A",
"~  c #635454",
"^  c #6B5B56",
"/  c #6D5C58",
"(  c #4B6944",
")  c #547647",
"_  c #7A655E",
"`  c #78685B",
"'  c #456C66",
"]  c #407567",
"[  c #417168",
"{  c #7E6860",
"}  c #854349",
"|  c #89454B",
" . c #984A4D",
".. c #894757",
"X. c #824559",
"o. c #8D4858",
"O. c #9C4D57",
"+. c #954B58",
"@. c #885955",
"#. c #945255",
"$. c #A24E4F",
"%. c #A34F53",
"&. c #A04E59",
"*. c #AB5255",
"=. c #A85258",
"-. c #B55555",
";. c #B95656",
":. c #B75957",
">. c #B85B58",
",. c #946B4D",
"<. c #956A4E",
"1. c #8D6858",
"2. c #83745F",
"3. c #BB645D",
"4. c #AB7754",
"5. c #836C62",
"6. c #8B7365",
"7. c #877862",
"8. c #9D7366",
"9. c #957A6A",
"0. c #9B7E6D",
"q. c #A36D63",
"w. c #A37565",
"e. c #AC7A65",
"r. c #B77265",
"t. c #C27968",
"y. c #2E8748",
"u. c #348D4A",
"i. c #359C4C",
"p. c #3B995A",
"a. c #35A54E",
"s. c #36A84F",
"d. c #3DA84F",
"f. c #3AA556",
"g. c #37AD50",
"h. c #37B251",
"j. c #39B451",
"k. c #3E8561",
"l. c #54874B",
"z. c #4A9C4E",
"x. c #638D4E",
"c. c #46B854",
"v. c #51BC55",
"b. c #70A354",
"n. c #79AC57",
"m. c #73B558",
"M. c #408264",
"N. c #679175",
"B. c #79A863",
"V. c #53C056",
"C. c #68C55A",
"Z. c #7ACA5D",
"A. c #B98256",
"S. c #9BB94E",
"D. c #80B559",
"F. c #BFBA5B",
"G. c #988769",
"H. c #998E73",
"J. c #A38D6D",
"K. c #BB8463",
"L. c #A98F71",
"P. c #B19774",
"I. c #C98A5B",
"U. c #D7935F",
"Y. c #D9945F",
"T. c #DB9A5D",
"R. c #DEA05B",
"E. c #EBBA4F",
"W. c #E3AC57",
"Q. c #E2A859",
"!. c #EABB53",
"~. c #C5836E",
"^. c #C98768",
"/. c #D89460",
"(. c #DB9460",
"). c #CB8670",
"_. c #CBAD7E",
"`. c #85CD5F",
"'. c #80D15F",
"]. c #90CE60",
"[. c #8ED461",
"{. c #97D762",
"}. c #DFCF59",
"|. c #EDC44F",
" X c #F1CD4D",
".X c #F6D64B",
"XX c #FEED44",
"oX c #FBE449",
"OX c #FEEE4F",
"+X c #FDED67",
"@X c #FFF168",
"#X c #F8E77A",
"$X c #B1A481",
"%X c #D3B686",
"&X c #DFC38E",
"*X c #E3C28D",
"=X c #E4CE99",
"-X c #E5D09C",
";X c #FFF48B",
":X c #FDF291",
">X c #EDDCA3",
",X c #EFE1AC",
"<X c #F1E2AB",
"1X c #FFF9B9",
"2X c #FEFAC8",
"3X c #FFFCDD",
"4X c white",
/* pixels */
"S.S.S.S.S.F.F.F.F.F.F.F.F.F.F.B.B.B.B.B.B.B.B.B.B.B.B.B.B.B.B.B.B.B.B.B.B.B.B.B.B.B.B.B.B.B.B.B.B.B.B.B.B.B.B.B.B.B.B.B.B.B.B.B.",
"S.S.S.S.S.S.F.F.w.w.F.F.S.B.B.B.S.S.S.B.B.B.B.B.B.B.B.B.B.B.B.B.B.B.B.B.B.B.B.B.N.N.N.N.B.B.B.B.B.B.B.B.B.B.B.B.B.B.B.B.B.S.S.S.",
"S.S.F.F.F.F.F.8.e.K.F.S.S.S.S.S.S.S.S.S.S.S.S.B.B.B.B.B.B.B.B.B.B.B.B.B.B.B.B.N.N.N.N.N.N.S.S.S.S.S.S.S.S.N.N.N.N.B.B.B.S.S.S.S.",
"F.F.F.F.F.F.F.e.^.^.F.S.S.S.S.S.S.S.B.B.B.B.B.B.B.B.B.B.B.B.B.B.B.B.B.N.N.N.B.N.N.N.N.N.N.N.N.N.N.N.S.S.N.N.N.N.N.N.N.B.S.S.S.S.",
"F.F.F.F.F.F.F.K.Y.Y.S.S.S.S.S.S.S.S.S.S.B.B.B.B.B.B.B.B.B.B.B.B.B.B.N.N.N.N.N.N.N.N.N.N.N.N.N.N.N.N.N.N.N.F.F.F.N.N.N.N.S.S.S.F.",
"S.S.S.S.S.F.8.K.Y.Y.S.S.S.S.S.S.S.Y.Y.S.S.S.B.B.B.B.B.B.B.B.B.B.B.N.N.N.N.N.F.F.F.F.N.N.N.N.F.F.F.F.N.N.F.F.F.F.F.N.N.N.N.F.F.F.",
"S.S.S.S.S.S.8.K.U.^.F.S.F.F.Y.Y.Y.Y.Y.Y.Y.Y.S.S.S.S.B.B.B.B.B.B.B.N.N.N.F.F.F.F.F.F.F.N.N.F.F.F.F.F.F.F.F.F.F.F.F.F.F.F.F.F.S.S.",
"S.S.S.S.S.S.8.K./.F.F.F.Y.Y.Y.Y.Y.Y.Y.Y.Y.Y.Y.S.S.S.B.B.B.B.B.N.N.N.N.F.F.F.F.F.F.F.F.N.F.F.F.F.F.F.F.F.F.F.F.F.F.F.F.F.F.F.S.S.",
"F.F.S.S.S.S.S.w.e.F.F.Y.Y.Y.Y.Y.Y.Q. XW.T.Y.Y.Y.S.S.S.F.F.F.F.F.F.N.F.F.F.F.F.F.F.F.F.F.F.F.F.F.F.F.F.F.F.F.F.F.F.F.F.F.F.F.S.F.",
"F.F.F.S.S.S.S.8.8.S.S.Y.Y.Y.Y.Y.Y.Y. XXX XT.Y.Y.S.S.F.F.S.S.F.F.F.F.F.F.F.F.F.F.F.F.F.F.F.F.F.F.F.F.F.F.F.F.F.F.F.F.F.F.F.F.F.F.",
"F.F.F.S.S.S.F.8.8.S.Y.Y.S.S.S.S.Y.Y.R.!.oX XT.Y.Y.S.F.S.S.S.S.F.F.F.F.F.F.F.F.S.S.S.F.F.F.F.F.S.S.F.F.F.F.S.S.F.F.F.F.F.F.F.F.F.",
"F.F.F.S.S.F.F.F.F.F.S.S.S.S.S.S.Y.Y.Y.Y.|.XX!./.Y.S.S.S.S.S.S.S.S.S.S.F.F.F.S.S.S.S.S.F.F.S.S.S.S.S.S.F.S.S.S.S.F.F.F.F.F.F.F.F.",
"F.F.F.F.F.F.F.F.F.F.F.F.F.F.F.F.F.Y.T.!.Q.W.R.Y.Y.S.S.S.S.S.S.S.S.S.S.S.F.F.S.S.S.S.S.F.S.S.S.S.S.S.S.S.S.S.S.S.F.F.F.F.F.F.F.F.",
"F.F.F.F.F.F.F.F.F.S.S.S.S.S.S.S.S.Y.T.oX XY.Y.Y.Y.S.S.S.S.. . . S.S.S.S.S.S.S.S.S.S.S.F.S.S.S.S.S.S.S.S.S.S.S.S.F.F.F.F.F.S.S.S.",
"S.S.S.S.S.S.S.S.S.S.S.S.B.B.B.B.B.Y.T.oXXXQ.Y.Y./.S.S.S.S.  9 k O . S.S.S.S.S.S.S.S.S.S.S.S.S.S.S.S.S.S.S.S.S.S.S.S.S.S.S.S.S.S.",
"S.S.S.S.S.S.S.S.S.S.B.B.B.B.B.B.A./.Q.oXXX.XY.I.,.S.S.S.S.  U t.| - . . S.S.S.S.S.S.S.S.S.S.S.S.S.S.S.S.S.S.S.S.S.S.S.S.S.S.S.S.",
"S.S.S.S.S.S.S.S.B.B.B.B.B.B.B.  ,./. XXXXX.XY.E . S.S.S.F.. U ~.>.| = . . S.S.S.S.S.S.S.B.B.B.S.S.S.S.S.S.S.S.S.S.S.S.S.S.S.S.S.",
"S.S.S.S.S.S.S.B.B.B.B.B.B.B.B.: 4.W.XX@XXX.X4.: B.F.F.F.. ; e.t.>.3.#.- . . B.B.B.S.S.B.B.B.B.B.S.S.S.S.S.S.S.S.S.S.S.S.S.S.S.S.",
"S.S.S.S.S.B.B.B.B.B.B.S.S.S.: ,.T. XOX1XXX!.E   B.B.B.. X W ~.3.3.~.r.M s . . B.B.B.B.B.S.S.B.B.B.S.S.S.S.S.S.B.B.B.S.S.S.S.S.S.",
"S.S.S.B.B.B.B.B.B.B.S.S.S.  ,./.Q.OX2X2X.XA.= B.B.B.B.  U ~.t.>.t.~.#.B j .   . . . B.S.S.S.S.B.B.B.S.S.S.S.B.B.B.B.B.S.S.S.B.B.",
"B.S.S.S.S.S.S.S.S.S.S.S.. 9 I.Q.oX1X4X2X!.4..   +   .   E ~.3.:.t.q.B b # 8 m x = . . S.S.. . . .   S.S.S.B.B.B.B.B.B.B.B.B.B.B.",
"B.B.B.B.S.S.S.S.S.S.S.S.: A./.|.@X3X3X+XW.9 ; p z.p $   k r.;.;.=.B h 1 q *.;...b j O . . $ w w r 5 . S.S.B.B.B.B.B.B.B.B.B.B.B.",
"S.S.S.S.S.S.S.S.S.S.S.. 4 I.!.+X:X;X;XE.,.5 n.{.{.[.z.i + } ;.-.X.X.m  .;.;.o.B B N -   . y h.c.`.D.5 . B.B.B.B.S.S.S.B.B.B.B.B.",
"S.S.S.S.S.S.S.S.N.N.N.. 1.*X#X2X:X+X}.,.= 5 n.n.n.].Z.j.D 7  .+...-.;.-.O.! B c , = 1 1 - # F u.5 r ; . B.B.B.S.S.S.S.S.S.S.S.S.",
"S.S.S.S.S.S.S.N.N.N.N.. J.=X-X,X<X>XH.=   F.# @ @ ) ].v.p.J P  .;.;.*.! N N h O 0 n $.+.N 2 # e .   B.B.B.B.B.S.S.S.S.S.S.S.S.S.",
"S.S.S.S.S.N.N.N.F.F.F.. ` 7.-X<X<X-X_.< F.F.F.F.  5 ].v.g.M.A 4 *.O.X.Q Q Q |  .-.;.&.Q B N 2 . S.S.B.B.B.B.S.S.S.S.S.S.S.S.S.S.",
"S.S.N.N.N.N.F.F.F.F.F.. = H.<X-X$X%X%X6 F.F.F.F.. 5 ].v.h.k.[ S *.-.-.-.-.-.;.;.O.X.B B B B b O S.S.S.B.B.B.B.B.B.B.B.B.B.S.S.S.",
"F.N.N.F.F.F.F.F.F.F.F.. 2.%X&XG.= 7.-X6 F.F.F.. . @ x.v.h.k.[ ' *.;.;.;.;.*.X.! B B B B B B M O . S.S.B.B.B.B.B.B.B.B.B.B.B.B.B.",
"F.F.F.F.F.F.F.F.F.F.B.. ` P.` = Y P.2.; F.F.. . .   ( V.f.K [ d } ;.;.&.+.! B B N j j j j j h O . S.S.B.B.B.B.B.F.F.F.F.F.F.F.F.",
"S.S.S.S.S.S.F.F.B.B.B.. # 6     7 7   . B.B.. 7 1.4 5 i.p.[ S + 0 ;.o.Q B N M j , . . $ $ $ $ # . . B.B.F.F.F.F.F.F.F.F.F.F.F.F.",
"S.S.S.S.S.S.S.S.S.S.S.S.. . X 6 6 ; . B.B.B.O q.).#.X y.] J d 8 *.;.*.! z 2 O . . & a s.s.s.s.y.t + . S.S.S.S.S.S.S.S.S.S.S.S.S.",
"S.S.S.S.S.S.S.S.S.S.S.S.S.. g ^ / Y . B.B.B.O q.).r.1.1.1.@.} %.;.-.X.h X . % A F i.j.j.j.j.j.C.Z.G . . S.S.S.S.S.S.S.S.S.S.S.S.",
"F.F.F.S.S.S.S.S.S.S.S.S.S.. I _ 9.^ . S.B.B.O q.).~.).~.t.3.;.;.;.-.j . . % H ] f.j.j.j.j.j.h.C.{.Z.G + S.S.S.S.S.S.S.S.S.S.S.F.",
"F.F.F.F.S.S.S.S.S.S.S.S.S.. I _ 0./ . B.B.B.O w.t.3.3.3.3.3.;.;.;.m > C C H [ [ f.j.j.h.s.s.s.c.Z.{.Z.5 . S.S.S.S.S.S.S.S.S.F.F.",
"F.F.F.F.F.F.F.S.S.S.S.B.B.B.I _ 9./ . B.B.B.X @.~.3.>.;.;.;.;.;.;.0 . % 5 S J [ K p.u.i $ $ & u.c.Z.{.l.. S.S.S.S.S.F.F.F.F.F.F.",
"S.S.S.F.F.F.F.F.S.S.S.S.S.S.6 ~ 6./ . S.S.S.. = @.3.3.;.;.;.;.;.;.0   . V Z J [ [ S # O o . . & u.c.'.b.. . S.S.S.S.S.S.F.F.F.F.",
"S.S.S.S.F.F.F.F.F.S.S.S.S.S.O I U l . . S.S.. O 2 8 } O.;.;.;.;.-.x . . d [ [ [ [ A d H S % . S.& y.d.c.a + S.S.S.S.S.S.S.S.F.S.",
"S.S.S.S.S.S.S.S.S.S.S.S.S.. @ X . . y i S.S.. - N z j N o.o.O.O.X.N s . C [ [ [ [ [ [ [ ] A . F.. . t s.g.& S.S.S.S.S.S.S.S.S.S.",
"S.S.S.S.S.S.S.S.S.S.S.S.. . x.x.r . D g.i S.  - o.*.*.*.=.=.*.*.=...N s % C [ [ [ [ [ [ [ V . F.F.. . t i.& F.B.B.B.S.S.S.S.S.S.",
"S.S.S.S.S.S.S.S.S.S.S.S.. * m.{.].( + a.a S.  1 *.m n $.;.;.;.;.;.;...N s O C [ [ [ [ [ C . . B.B.B.B.. w $ B.B.B.B.B.B.B.B.B.S.",
"B.B.B.B.B.B.B.B.S.S.S.S.  y v.`.{.n.5 D $ S.. O 1 . O  .;.;.;.;.;.*.+.B N c 2 5 S [ [ A = O . B.B.B.B.B.. . B.B.B.B.B.B.B.B.B.B.",
"B.B.B.B.S.S.S.S.S.S.S.S.  y j.c.C.C.p . . . . . . 0 } ;.;.;.;.;.*.! B B B B B z f J ' T v c = . B.B.B.B.B.B.B.B.B.B.B.B.B.B.B.B.",
"S.S.S.S.S.S.S.S.S.S.S.S.  t g.h.h.j.y . . . . - m  .;.;.;.;.;.*.! B B B B B B B b f T B B B 2 . . . B.B.B.B.B.B.B.B.B.B.B.B.S.S.",
"S.S.S.S.S.S.S.S.S.S.S.S.S.. y.j.j.i.* . . . . X O - m m m m m x h v B B B B B B M h h j b v = . w # . B.S.S.S.B.B.S.S.S.S.S.S.S.",
"S.S.S.S.S.S.S.S.S.S.S.S.S.S.* t t & . .   7 6._ J.l ; < : ; < < : < s 2 , , , , , ; ; # 3 3 # # y.F # . S.S.S.S.S.S.S.S.S.S.S.S.",
"S.S.S.S.S.S.S.S.S.S.S.S.S.S.. . . # = .   6 ` / 7.6.L._.P.9._._.L.~ ~ Y l 6 L < < 6.9.U I _ U u h.j.y   S.S.S.S.S.S.S.F.F.F.F.F.",
"S.S.S.S.S.N.N.N.N.N.S.S.N.N.. . f R 7   . . O O X 6 L Y P g Y Y L < < ~ 5.~ 5.I : { { U X 7 < y j.j.y   S.S.F.F.F.F.F.F.F.F.F.F.",
"S.S.S.S.N.N.N.N.N.N.N.N.N.N.. . Y 9.L   . s M N z 2 2 , , 2 , , 2 2 2 ; # # = O . 6 l # . . . D j.s.w . F.F.F.F.F.F.F.F.F.F.F.S.",
"N.N.S.N.N.N.F.F.N.N.N.N.N.F.F.. : l : . = ..&.O.O.! Q Q B B B B B B B v z z O g ^ l   g ~ # . r y * . F.F.F.F.F.F.F.F.F.F.S.S.S.",
"N.N.N.N.N.F.F.F.F.N.N.N.F.F.F.F..   F.. 8 } } -.;.-.-.-.+.B B B B B B B B B = l _ R X g / I 6 .   . S.S.S.S.S.S.S.S.S.S.S.S.S.N.",
"N.F.F.N.N.F.F.F.F.F.F.F.F.F.F.F.F.F.F.. . . . 8 0 0 0 0 x N N N N N c s 3 3 O L 5./ < . : Y 6.Y O F.S.S.S.S.S.S.S.S.S.S.S.S.S.N.",
"F.F.F.F.F.F.F.F.F.F.F.F.F.F.F.F.F.F.F.F.F.B.B.          O = = = = = O .   . . = ~ 5._ O . # 3 ^ 6 F.F.S.S.S.S.S.S.S.S.F.F.N.N.N.",
"F.F.F.F.F.S.S.S.F.F.F.F.F.S.S.S.S.F.F.F.B.B.B.B.. . . S.. . . . . . . S.B.B.B.. . 6 L X . . . . S.S.S.S.S.S.S.S.S.F.F.F.F.F.F.F.",
"F.F.F.F.S.S.S.S.S.F.F.F.S.S.S.B.B.B.B.B.B.B.B.B.. . . S.S.S.S.S.S.B.B.B.B.B.B.B.B..   . . . S.S.S.S.S.S.S.S.S.F.F.F.F.F.F.F.F.F.",
"F.F.S.S.S.S.S.S.S.F.F.F.S.S.B.B.B.B.B.B.B.B.. . . . . S.S.S.S.S.B.B.B.B.B.B.B.B.B.B.B.. . . S.S.S.S.S.S.S.S.F.F.F.S.S.S.F.F.F.F.",
"S.S.S.S.S.S.S.S.S.S.S.F.S.S.B.B.B.B.B.B.B.B.. . . . B.B.B.S.S.B.B.B.B.B.B.S.S.B.B.B.B.. . . S.S.S.S.S.S.F.F.F.F.S.S.S.S.S.F.F.F.",
"S.S.S.S.S.S.S.S.S.S.S.S.B.B.B.B.B.B.B.B.B.B.B.B.B.B.B.B.B.B.B.B.B.B.B.B.S.S.S.S.S.B.B.B.B.B.S.S.S.S.S.S.S.S.S.S.S.S.S.S.S.S.S.S.",
"S.S.S.S.S.S.B.B.B.B.B.B.B.B.B.B.S.S.S.B.B.B.B.B.B.B.B.B.B.B.B.B.B.B.B.B.S.S.S.S.S.S.S.S.S.S.S.S.S.S.S.S.S.S.S.S.S.S.S.S.S.S.S.S.",
"S.S.S.S.S.S.S.S.S.B.B.B.B.B.B.S.S.S.S.S.B.B.S.S.S.B.B.B.B.B.B.B.S.S.B.B.S.S.S.S.S.S.S.S.S.S.S.S.S.S.S.S.S.S.B.B.B.S.S.S.S.S.S.S.",
"S.S.S.S.S.S.S.S.S.S.S.S.B.B.B.S.S.S.S.S.B.S.S.S.S.S.S.B.B.B.B.S.S.S.S.B.B.S.S.S.S.S.S.S.S.S.S.S.S.S.S.S.S.B.B.B.B.B.S.S.S.S.S.S.",
"S.S.S.S.S.S.F.F.S.S.S.S.S.S.S.S.S.S.S.S.S.S.S.S.S.S.S.S.S.S.S.S.S.S.S.S.S.S.S.S.S.S.S.S.S.S.B.B.B.S.S.S.B.B.B.B.B.B.S.S.S.S.S.S.",
"S.S.S.S.S.F.F.F.F.S.S.S.S.F.F.F.F.S.S.S.S.S.S.S.S.S.S.S.S.S.S.S.S.S.S.S.S.S.S.S.S.S.S.S.S.B.B.B.B.B.B.B.B.B.B.B.B.B.S.S.S.S.S.S.",
"S.S.S.F.F.F.F.F.F.F.F.F.F.F.F.F.F.F.F.S.S.S.S.S.S.S.S.B.B.B.B.S.S.S.S.S.S.S.S.S.S.S.S.S.B.B.B.B.B.B.B.B.B.B.B.B.B.B.B.B.B.S.S.S.",
"B.B.F.F.F.F.F.F.F.F.F.F.F.F.F.F.B.B.B.B.S.S.B.B.B.B.B.B.B.B.B.B.B.S.S.B.B.B.B.S.S.S.S.B.B.B.B.B.B.B.B.B.B.B.B.B.B.B.B.B.B.B.B.B."
};
