/* XPM */
static const char *goblin6_R[] = {
/* columns rows colors chars-per-pixel */
"64 64 212 2 ",
"   c #0F1A2C",
".  c #14172D",
"X  c #151B2E",
"o  c #191D2F",
"O  c #1B1E31",
"+  c #201F34",
"@  c #17222F",
"#  c #18202F",
"$  c #172431",
"%  c #1C2231",
"&  c #1A2A33",
"*  c #1A2A38",
"=  c #1B3333",
"-  c #1D3B35",
";  c #232334",
":  c #292333",
">  c #232B34",
",  c #2C2B36",
"<  c #262438",
"1  c #2D253A",
"2  c #2C2C38",
"3  c #362838",
"4  c #342A3D",
"5  c #29373A",
"6  c #34333D",
"7  c #3A353D",
"8  c #3D3B3F",
"9  c #4B2F3C",
"0  c #41353E",
"q  c #53313D",
"w  c #1F4538",
"e  c #204538",
"r  c #224E3A",
"t  c #34483A",
"y  c #23543B",
"u  c #26593C",
"i  c #3B583E",
"p  c #27633F",
"a  c #57443E",
"s  c #362840",
"d  c #3C2B43",
"f  c #253A42",
"g  c #2F3C47",
"h  c #3B3B42",
"j  c #442E47",
"k  c #472F48",
"l  c #443D44",
"z  c #4C344A",
"x  c #56354A",
"c  c #563551",
"v  c #5A3753",
"b  c #5D3955",
"n  c #653944",
"m  c #743E46",
"M  c #623A57",
"N  c #6A3C55",
"B  c #653B59",
"V  c #6A3D5C",
"C  c #703F59",
"Z  c #2A4449",
"A  c #2C4A4D",
"S  c #344A4E",
"D  c #344C51",
"F  c #315253",
"G  c #365C5A",
"H  c #2A7342",
"J  c #2B7C44",
"K  c #336654",
"L  c #3C6862",
"P  c #3E7269",
"I  c #444143",
"U  c #4D4449",
"Y  c #584649",
"T  c #54494C",
"R  c #445F41",
"E  c #5A524C",
"W  c #565057",
"Q  c #5F5152",
"!  c #684A45",
"~  c #6F4F4B",
"^  c #784258",
"/  c #7B435A",
"(  c #635453",
")  c #6A5B56",
"_  c #6A5C55",
"`  c #715E5A",
"'  c #476442",
"]  c #527346",
"[  c #676B57",
"{  c #78665C",
"}  c #7A655E",
"|  c #4B6D65",
" . c #417667",
".. c #417268",
"X. c #786D62",
"o. c #844549",
"O. c #8E474B",
"+. c #93494C",
"@. c #9C4C4F",
"#. c #8D4857",
"$. c #844659",
"%. c #894759",
"&. c #9C4D56",
"*. c #934A58",
"=. c #9A4C58",
"-. c #8D5854",
";. c #A14E56",
":. c #A04E58",
">. c #A65055",
",. c #AC5255",
"<. c #A85358",
"1. c #B55555",
"2. c #B85655",
"3. c #B95957",
"4. c #B95C59",
"5. c #8E6454",
"6. c #B7655E",
"7. c #BB655D",
"8. c #A67453",
"9. c #B27659",
"0. c #A35F60",
"q. c #836C62",
"w. c #9D6C60",
"e. c #8C7366",
"r. c #8B7962",
"t. c #9E7466",
"y. c #957D69",
"u. c #A56E61",
"i. c #B96B62",
"p. c #A57062",
"a. c #B87366",
"s. c #C16E62",
"d. c #C07466",
"f. c #C37B6A",
"g. c #2D8346",
"h. c #2E8948",
"j. c #358A48",
"k. c #32984B",
"l. c #3B925A",
"z. c #37A64E",
"x. c #36A94F",
"c. c #39A754",
"v. c #37AE51",
"b. c #39B451",
"n. c #38B551",
"m. c #3E8362",
"M. c #4A994E",
"N. c #648E4E",
"B. c #6D9B52",
"V. c #42A64F",
"C. c #52BC56",
"Z. c #75A855",
"A. c #64BA57",
"S. c #679175",
"D. c #79A863",
"F. c #5AC057",
"G. c #75C95C",
"H. c #76C85C",
"J. c #9BB94E",
"K. c #82B95A",
"L. c #BFBA5B",
"P. c #968368",
"I. c #A28C6E",
"U. c #AA906D",
"Y. c #AE9571",
"T. c #BAA27A",
"R. c #CA8A5B",
"E. c #D9945F",
"W. c #DA985D",
"Q. c #DFA25B",
"!. c #E2A75A",
"~. c #E2A959",
"^. c #E6B256",
"/. c #E8B356",
"(. c #EBBA54",
"). c #C4826D",
"_. c #C9846F",
"`. c #DA9360",
"'. c #C6AA7D",
"]. c #88CE5F",
"[. c #8CD361",
"{. c #93D462",
"}. c #9AD963",
"|. c #F1CD4E",
" X c #F5D64A",
".X c #EDC251",
"XX c #F5D85F",
"oX c #FBE546",
"OX c #FFED43",
"+X c #FAE148",
"@X c #FFF048",
"#X c #FFEE56",
"$X c #FFF05D",
"%X c #E6C274",
"&X c #FFF165",
"*X c #FFF272",
"=X c #CEB081",
"-X c #D6BB8A",
";X c #DCCC9B",
":X c #E3CB96",
">X c #EAD399",
",X c #FFF58E",
"<X c #F9ED97",
"1X c #ECDAA5",
"2X c #EFE0A6",
"3X c #F1E3AD",
"4X c #FFF7A8",
"5X c #FFF9BD",
"6X c #FFFAC3",
"7X c #FFFCDA",
"8X c #FFFCE3",
"9X c #FFFEF1",
/* pixels */
"J.J.J.J.J.L.L.t.t.t.L.L.L.L.L.D.D.D.D.D.D.D.D.D.D.D.D.D.D.D.D.D.D.D.D.D.D.D.D.D.D.D.D.D.D.D.D.D.D.D.D.D.D.D.D.D.D.D.D.D.D.D.D.D.",
"J.J.J.J.J.J.t.t.t.L.L.L.J.D.D.D.J.J.J.D.D.D.D.D.D.D.D.D.D.D.D.D.D.D.D.D.D.D.D.D.S.S.S.S.D.D.D.D.D.D.D.D.D.D.D.D.D.D.D.D.D.J.J.J.",
"J.J.L.L.L.L.t.t.L.L.L.J.J.J.J.J.J.J.J.J.J.J.J.D.D.D.D.D.D.D.D.D.D.D.D.D.D.D.D.S.S.S.S.S.S.J.J.J.J.J.J.J.J.S.S.S.S.D.D.D.J.J.J.J.",
"L.L.L.L.L.L.t.L.L.L.L.J.J.J.J.J.J.J.D.D.D.D.D.D.D.D.D.D.D.D.D.D.D.D.D.S.S.S.D.S.S.S.S.S.S.S.S.S.S.S.J.J.S.S.S.S.S.S.S.D.J.J.J.J.",
"L.L.L.L.L.L.t.t.t.L.J.J.J.J.J.J.E.E.E.J.D.D.D.D.D.D.D.D.D.D.D.D.D.D.S.S.S.S.S.S.S.S.S.S.S.S.S.S.S.S.S.S.S.L.L.L.S.S.S.S.J.J.J.L.",
"J.J.J.J.J.L.L.t.t.L.J.J.J.E.E.E.E.E.E.E.E.J.D.D.D.D.D.D.D.D.D.D.D.S.S.S.S.S.L.L.L.L.S.S.S.S.L.L.L.L.S.S.L.L.L.L.L.S.S.S.S.L.L.L.",
"J.J.J.J.J.J.L.t.L.L.L.J.E.E.E.E.E.~. X~.E.E.J.J.J.J.D.D.D.D.D.D.D.S.S.S.L.L.L.L.L.L.L.S.S.L.L.L.L.L.L.L.L.L.L.L.L.L.L.L.L.L.J.J.",
"J.J.J.J.J.J.J.J.L.L.L.L.L.L.L.J.`.^.OX+X~.E.J.J.J.J.D.D.D.D.D.S.S.S.S.L.L.L.L.L.L.L.L.S.L.L.L.L.L.L.L.L.L.L.L.L.L.L.L.L.L.L.J.J.",
"L.L.J.J.J.J.J.J.J.L.L.L.J.J.J.L.!. XOXOX/.`.J.J.J.J.J.L.L.L.L.L.L.S.L.L.L.L.L.L.L.L.L.L.L.L.L.L.L.L.L.L.L.L.L.L.L.L.L.L.L.L.J.L.",
"L.L.L.J.J.J.J.J.J.J.J.J.J.E.E.`.|.+X.X/.E.E.J.J.J.J.L.L.J.J.L.L.L.L.L.L.L.L.L.L.L.L.L.L.L.L.L.L.L.L.L.L.L.L.L.L.L.L.L.L.L.L.L.L.",
"L.L.L.J.J.J.L.L.J.J.J.J.E.`.E.Q.~.Q.`.E.E.E.J.J.J.J.L.J.J.J.J.L.L.L.L.L.L.L.L.J.J.J.L.L.L.L.L.J.J.L.L.L.L.J.J.L.L.L.L.L.L.L.L.L.",
"L.L.L.J.J.L.L.L.L.L.J.E.`.Q..XoX^.`.E.J.E.E.J.J.J.J.J.J.J.J.J.J.J.J.J.L.L.L.J.J.J.J.J.L.L.J.J.J.J.J.J.L.J.J.J.J.L.L.L.L.L.L.L.L.",
"L.L.L.L.L.L.L.L.L.L.E.E.Q. XOXOX^.`.E.J.E.E.J.J.J.J.J.J.J.X X X J.J.J.J.L.L.J.J.J.J.J.L.J.J.J.J.J.J.J.J.J.J.J.J.L.L.L.L.L.L.L.L.",
"L.L.L.L.L.L.L.L.L.J.R.E.|.OXOX|.E.E.E.J.E.E.J.J.J.J.J.J.J.X , , . J.J.J.J.J.J.J.J.J.J.L.J.J.J.J.J.J.J.J.J.J.J.J.L.L.L.L.L.J.J.J.",
"J.J.J.J.J.J.J.J.J.J.8.^.oXOX@X|.E.E.R.7 J.J.J.J.J.J.J.J.J.. Y u.n o X J.J.J.J.J.J.J.J.J.J.J.J.J.J.J.J.J.J.J.J.J.J.J.J.J.J.J.J.J.",
"J.J.J.J.J.J.J.J.J.o 8.(.OX$X5X#X^.`.E.a D.D.D.D.J.J.J.J.J.. Y _.4.! o X J.J.J.J.J.J.J.J.J.J.J.J.J.J.J.J.J.J.J.J.J.J.J.J.J.J.J.J.",
"J.J.J.J.J.J.J.J.D.o 8.(.OX,X9X$X XW.`.8.X D.D.D.D.J.J.J.L.% w.f.f.7.n o X X J.J.J.J.J.J.D.D.D.J.J.J.J.J.J.J.J.J.J.J.J.J.J.J.J.J.",
"J.J.J.J.J.J.J.D.D.o 8.W. X,X8X4XOX|.`.9., D.D.D.D.L.L.L.X l ).d.a.7.i.x < X X D.D.J.J.D.D.D.D.D.J.J.J.J.J.J.J.J.J.J.J.J.J.J.J.J.",
"J.J.J.J.J.D.D.D.D.X ! E.|.&X*X7X&X+X~.`.~ D.D.D.D.D.D.. 0 a.f.f.7.d.0.V z X . . X D.D.D.J.J.D.. % % X J.J.J.J.D.D.D.J.J.J.J.J.J.",
"J.J.J.D.D.D.D.D.D.D.: 9.!.OX#X9X4XOX(.R.a J.J.D.D.D.D.. ! _.f.d.7.a.^ B < : 9 3 O X D.J.J.J.o t B.N.X J.J.J.D.D.D.D.D.J.J.J.D.D.",
"D.J.J.J.J.J.J.J.J.J.. ! !.oX#X9X9X#X(.8.X X % p H = . . Y ).f.7.<.^ c d 3 ^ 1.#.z 4 X X X X ' {.].R X J.J.D.D.D.D.D.D.D.D.D.D.D.",
"D.D.D.D.J.J.J.J.J.J.. ! `.(.*X8X7XXXW.5.X R K.].[.Z.e - ; -.s.2.*.C 9 n #.$.,.$.V B < X X > M.A.u X J.J.J.D.D.D.D.D.D.D.D.D.D.D.",
"J.J.J.J.J.J.J.J.J.J.. ! `.(.6X6X<X%XR., X ' Z.{.{.{.C.x.r q 1.=.^ ,.2.#.*.1.#.B j d ; o X 5 V.g.X D.J.J.D.D.D.D.J.J.J.D.D.D.D.D.",
"J.J.J.J.J.J.J.J.S.S.S.; U.>X1X3X2X1Xy.% X . > 5 ] {.G.b.l.G Y ;.,.2.2.1.=.^ z ; 3 3 m @.N + - p D.D.D.D.D.D.D.J.J.J.J.J.J.J.J.J.",
"J.J.J.J.J.J.J.S.S.S.S.X r.I.:X2X3X>X'.2 L.L.L.X o Z.{.C.c. .F q 1.2.,.*.C V n n &.#.$.2.$.c ; X D.D.D.D.D.D.D.J.J.J.J.J.J.J.J.J.",
"J.J.J.J.J.S.S.S.L.L.L.X , X.3X1X;X-X=X2 L.L.L.L.X i {.C.b.m.L g >.2.1.;.>.>.1.,.%.%.&.*.V V c O J.J.D.D.D.D.J.J.J.J.J.J.J.J.J.J.",
"J.J.S.S.S.S.L.L.L.L.L.X ( -X:XT.I P.;X6 L.L.L.L.X > Z.C.b.m...| ,.2.2.2.2.2.,.#.,.>.^ V V V M O X J.J.D.D.D.D.D.D.D.D.D.D.J.J.J.",
"L.S.S.L.L.L.L.L.L.L.L.X P.=XY.8 6 I.T.2 L.L.L.X . . ] F.v.m...S @.2.2.2.2.2.,.*.^ N b b b b c O X J.J.D.D.D.D.D.D.D.D.D.D.D.D.D.",
"L.L.L.L.L.L.L.L.L.L.D.X 2 E % . E _ % X L.L.X ; Y ; t V.l...L * 9 2.=.*.*.*.^ v d O O O O O O X X X J.D.D.D.D.D.L.L.L.L.L.L.L.L.",
"J.J.J.J.J.J.L.L.D.D.D.X X X X % % % X D.D.D.o -._.o.X g.m.P A : O.2.;.^ M j 1 + . @ - g.g.g.j.j.r $ X D.L.L.L.L.L.L.L.L.L.L.L.L.",
"J.J.J.J.J.J.J.J.J.J.J.J.X X 4 Q ( U X D.D.D.# p._.6.Y [ [ ` x O.2.2.*.c ; X $ f r J x.b.b.b.G.{.G.M.= X J.J.J.J.J.J.J.J.J.J.J.J.",
"J.J.J.J.J.J.J.J.J.J.J.J.J.X U { e.( X D.D.D.% p._._._.f.7.3.4.2.2.1.v O X % F ..c.b.b.b.b.b.C.[.}.[.M.$ J.J.J.J.J.J.J.J.J.J.J.J.",
"L.L.L.J.J.J.J.J.J.J.J.J.J.X U { y.` X J.D.D.O p.f.d.f._.).f.a.4.2.O.2 f f F ....c.b.b.b.b.b.b.C.G.{.[.i X J.J.J.J.J.J.J.J.J.J.L.",
"L.L.L.L.J.J.J.J.J.J.J.J.J.J.U { y.` X D.D.D.O w.f.4.i.).).f.a.4.2.q $ f A L ....m.v.v.g.y y u k.x.C.G.Z.% X J.J.J.J.J.J.J.J.L.L.",
"L.L.L.L.L.L.L.J.J.J.J.D.D.D.h ) e.` X D.D.D.X 7 u.f.d.7.4.3.4.2.2.q . X 5 Z L ....L 5 @ . X X & = J z.G.i . J.J.J.J.L.L.L.L.L.L.",
"J.J.J.L.L.L.L.L.J.J.J.J.J.J.% Q ` E X J.J.J.X X 3 ~ 6.6.2.2.2.2.2.q . X Z ........A % A A % X J.J.X H b.h.& J.J.J.J.J.J.L.L.L.L.",
"J.J.J.J.L.L.L.L.L.J.J.J.J.X X % ; % = - J.J.X < v s 3 N &.;.,.,.*.M 1 X f ........L L ....A X J.J.J.= h.v.= J.J.J.J.J.J.J.J.L.J.",
"J.J.J.J.J.J.J.J.J.J.J.J.J.X ' ' # X H z.r J.. < ^ *.*.*.*.*.;.;.*.^ b 1 f G ..............F X L.L.L.. e x.= J.J.J.J.J.J.J.J.J.J.",
"J.J.J.J.J.J.J.J.J.J.J.J.X & Z.{.Z.t = x.p J.. 3 1.@.+.,.2.2.2.2.2.,.^ b < $ G ..........G * X L.L.L.X - u X L.D.D.D.J.J.J.J.J.J.",
"J.J.J.J.J.J.J.J.J.J.J.J.. y F.{.}.B.$ h.- J.X ; n : o O.2.2.2.2.2.2.&.V b d < Z L ....G * X X D.D.D.D.X D.D.D.D.D.D.D.D.D.D.D.J.",
"D.D.D.D.D.D.D.D.J.J.J.J.. y b.F.].G.i & X X X X   : n ,.2.2.2.2.1.%.^ V V V v d g ....D k k O X D.D.D.D.D.D.D.D.D.D.D.D.D.D.D.D.",
"D.D.D.D.J.J.J.J.J.J.J.J.. y b.b.b.b.u . X X X ; n @.2.2.2.2.2.2.%.V V V V V V V b S W V V V 1 . D.D.D.D.D.D.D.D.D.D.D.D.D.D.D.D.",
"J.J.J.J.J.J.J.J.J.J.J.J.J.& k.b.b.v.r X X X . o 3 9 @.@.@.@.@.^ V V V V V V V V v k c M V b 1 @ = X D.D.D.D.D.D.D.D.D.D.D.D.J.J.",
"J.J.J.J.J.J.J.J.J.J.J.J.J.X y H H u X X X 2 E T _ , o O O O O O j k k j j j j j ; O O 1 j O X r x.y X D.J.J.J.D.D.J.J.J.J.J.J.J.",
"J.J.J.J.J.J.J.J.J.J.J.J.J.J.X X X o O X . h I.y.T.q.r.U.y.{ I.P.E T l > ; ; ; X Q { ( 7 ) T 5 h.b.x.w X J.J.J.J.J.J.J.J.J.J.J.J.",
"J.J.J.J.J.J.J.J.J.J.J.J.J.J.X X 2 l 6 X X o % % ; T { r.{ ) r.r.U l Q e.) { { % { e.q.; U U 5 x.b.b.u . J.J.J.J.J.J.J.L.L.L.L.L.",
"J.J.J.J.J.S.S.S.S.S.J.J.S.S.X X U e.l . . < z z s O O O O O O O O O > h 4 7 6 X 7 Q l X X X & z.b.b.y . J.J.L.L.L.L.L.L.L.L.L.L.",
"J.J.J.J.S.S.S.S.S.S.S.S.S.S.S.X h ) 7 . 3 ^ $.$.$.N M M M M M M M M c 4 4 + % l 7 % % l ; X % K J p @ X L.L.L.L.L.L.L.L.L.L.L.J.",
"S.S.J.S.S.S.L.L.S.S.S.S.S.L.L.X X X X X 3 @.,.2.2.>.&.:.%.V V V V V V V b ; 2 { { o 2 q.T % X X X X X L.L.L.L.L.L.L.L.L.L.J.J.J.",
"S.S.S.S.S.L.L.L.L.S.S.S.L.L.L.L.L.S.L.L.X ; : m o.o.o.o.^ V V V V V c z d o ( ` U X ; U ` ) ; X J.J.J.J.J.J.J.J.J.J.J.J.J.J.J.S.",
"S.L.L.S.S.L.L.L.L.L.L.L.L.L.L.L.L.L.L.L.L.L.X X X X X X ; s 4 s s 4 O X X X U q.2 X X X 7 ) ( % L.L.J.J.J.J.J.J.J.J.J.J.J.J.J.S.",
"L.L.L.L.L.L.L.L.L.L.L.L.L.L.L.L.L.L.L.L.L.D.D.D.X X X X X X X X X X X L.L.X o < O X X X . O 2 L.L.L.L.J.J.J.J.J.J.J.J.L.L.S.S.S.",
"L.L.L.L.L.J.J.J.L.L.L.L.L.J.J.J.J.L.L.L.D.D.D.D.X X X J.L.J.J.J.J.J.J.J.D.D.X X X D.L.X X X L.L.J.J.J.J.J.J.J.J.J.L.L.L.L.L.L.L.",
"L.L.L.L.J.J.J.J.J.L.L.L.J.J.J.D.D.D.D.D.D.D.D.D.X X X J.J.J.J.J.J.D.D.D.D.D.D.D.D.D.J.X X X J.J.J.J.J.J.J.J.J.L.L.L.L.L.L.L.L.L.",
"L.L.J.J.J.J.J.J.J.L.L.L.J.J.D.D.D.D.D.D.D.D.X X X X X J.J.J.J.J.D.D.D.D.D.D.D.D.D.D.D.X X X J.J.J.J.J.J.J.J.L.L.L.J.J.J.L.L.L.L.",
"J.J.J.J.J.J.J.J.J.J.J.L.J.J.D.D.D.D.D.D.D.D.X X X X D.D.D.J.J.D.D.D.D.D.D.J.J.D.D.D.D.X X X J.J.J.J.J.J.L.L.L.L.J.J.J.J.J.L.L.L.",
"J.J.J.J.J.J.J.J.J.J.J.J.D.D.D.D.D.D.D.D.D.D.D.D.D.D.D.D.D.D.D.D.D.D.D.D.J.J.J.J.J.D.D.D.D.D.J.J.J.J.J.J.J.J.J.J.J.J.J.J.J.J.J.J.",
"J.J.J.J.J.J.D.D.D.D.D.D.D.D.D.D.J.J.J.D.D.D.D.D.D.D.D.D.D.D.D.D.D.D.D.D.J.J.J.J.J.J.J.J.J.J.J.J.J.J.J.J.J.J.J.J.J.J.J.J.J.J.J.J.",
"J.J.J.J.J.J.J.J.J.D.D.D.D.D.D.J.J.J.J.J.D.D.J.J.J.D.D.D.D.D.D.D.J.J.D.D.J.J.J.J.J.J.J.J.J.J.J.J.J.J.J.J.J.J.D.D.D.J.J.J.J.J.J.J.",
"J.J.J.J.J.J.J.J.J.J.J.J.D.D.D.J.J.J.J.J.D.J.J.J.J.J.J.D.D.D.D.J.J.J.J.D.D.J.J.J.J.J.J.J.J.J.J.J.J.J.J.J.J.D.D.D.D.D.J.J.J.J.J.J.",
"J.J.J.J.J.J.L.L.J.J.J.J.J.J.J.J.J.J.J.J.J.J.J.J.J.J.J.J.J.J.J.J.J.J.J.J.J.J.J.J.J.J.J.J.J.J.D.D.D.J.J.J.D.D.D.D.D.D.J.J.J.J.J.J.",
"J.J.J.J.J.L.L.L.L.J.J.J.J.L.L.L.L.J.J.J.J.J.J.J.J.J.J.J.J.J.J.J.J.J.J.J.J.J.J.J.J.J.J.J.J.D.D.D.D.D.D.D.D.D.D.D.D.D.J.J.J.J.J.J.",
"J.J.J.L.L.L.L.L.L.L.L.L.L.L.L.L.L.L.L.J.J.J.J.J.J.J.J.D.D.D.D.J.J.J.J.J.J.J.J.J.J.J.J.J.D.D.D.D.D.D.D.D.D.D.D.D.D.D.D.D.D.J.J.J.",
"D.D.L.L.L.L.L.L.L.L.L.L.L.L.L.L.D.D.D.D.J.J.D.D.D.D.D.D.D.D.D.D.D.J.J.D.D.D.D.J.J.J.J.D.D.D.D.D.D.D.D.D.D.D.D.D.D.D.D.D.D.D.D.D."
};
