/* XPM */
static const char *gold2[] = {
/* columns rows colors chars-per-pixel */
"64 64 12 1 ",
"  c #161C2E",
". c #5A7C52",
"X c #AC7A58",
"o c #718843",
"O c #679175",
"+ c #79A863",
"@ c #8A884C",
"# c #9BB94E",
"$ c #BFBA5B",
"% c #CEA554",
"& c #E9F044",
"* c white",
/* pixels */
"#####$$$$$$$$$$+++++++++++&&&&&&&&&&&&++++++++++++++++++++++++++",
"######$$$$$$#+++###++++&&&&&&&&&&&&&&&&&&OOO+++++++++++++++++###",
"##$$$$$$$$$#########&&&&&&&&&&&&&&&&&&&&&&&&O########OOOO+++####",
"$$$$$$$$$$$#######&&&&&&&&&&&&&&&&&&&&&&&&&&&&OOOO##OOOOOOO+####",
"$$$$$$$$$$#######&&&&&&&&&&+++++++OOO&&&&&&&&&&OOOOOO$$$OOOO###$",
"#####$$$$$######&&&&&&&&+++++++++OOOOO$$&&&&&&&&$$OO$$$$$OOOO$$$",
"######$$$$$#$$&&&&&&&#####+++++++OOO$$$$$$$&&&&&&&$$$$$$$$$$$$##",
"########$$$$$&&&&&&#######+++++OOOO$$$$$$$$O$&&&&&&$$$$$$$$$$$##",
"$$#######$$$&&&&&&#########$$$$$$O$$$$$$$$$$$$&&&&&&$$$$$$$$$$#$",
"$$$########&&&&&&#########$$##$$$$$$$$$$$$$$$$$&&&&&&$$$$$$$$$$$",
"$$$###$$##&&&&&###########$####$$$$$$$$###$$$$$##&&&&&#$$$$$$$$$",
"$$$##$$$$$&&&&#####################$$$#####$$#####&&&&##$$$$$$$$",
"$$$$$$$$$&&&&&$$$$$#################$$#####$######&&&&&#$$$$$$$$",
"$$$$$$$$&&&&&##############################$#######&&&&&$$$$$###",
"#######&&&&&++++++#######          #################&&&&&#######",
"#######&&&&++++++++#++++             ################&&&&#######",
"######&&&&&++++++++++++   %%%%%%%%%    #####+++######&&&&&######",
"######&&&&++++++++++++  %%%%%%%%%%%%X    ##+++++######&&&&######",
"#####+&&&&+#####+++++  %%%%&&&&%%%%%%%X   ++##+++#####&&&&######",
"###++&&&&&#######+++   %%&&&&&&&&%%%%%XX    ###+++####&&&&&###++",
"+####&&&&########++#  %%&&&&&&&&&&&%%%%XX    ########++&&&&+++++",
"++++#&&&&##########   %&&&&&&&&&&&&&%%%XX     +++####++&&&&+++++",
"####&&&&&##########  %&&&&&&&&&&&&&&%%%X       +++##+++&&&&&++++",
"####&&&&OOOOO##O     &&&&&XX&&&&&&&&&%XX  XXX  ++++++++#&&&&####",
"####&&&&OOOOOO       &&&&XX  &  &&&&%%XX XXXXX  +++++++#&&&&####",
"####&&&&$$$$     &&  &&&*XX    &&&&%%XX%XXXXXX   #++++##&&&&####",
"##OO&&&&$$$  %%  &&  &&**XXX   %&&  %%%%%XXXXXX  ##+++++&&&&+###",
"$OO$&&&&$$$  %%  **  &******  %%%    &&&%%%XXXX  ##+++++&&&&++++",
"$$$$&&&&$$+  &&  **  &*****%   %  %   &&&&%XXXX  ##+++++&&&&$$$$",
"####&&&&+++  &&& ***  ****%%%     &&  &&&&%%XXX  #++$$$$&&&&$$$$",
"####&&&&###  &&& *    &&&& %%%     &  &&&&%%XX   #######&&&&####",
"####&&&&###  &&&    +  &&  %&&&&&&&   &&&&%%XX  ########&&&&####",
"$$$#&&&&#### &&&   #+      &&&&&X      &&&%%XX  ########&&&&###$",
"$$$$&&&&&###  &&& ++++    &*&&XXXX  &  &&%%%X  ########&&&&&##$$",
"$$$$$&&&&##++  && ++++#   &**&&XXXXX&&&&&%%%X  ########&&&&$$$$$",
"###$$&&&&####     #####   ****&&&&XX&&&&%%%%X #########&&&&#$$$$",
"####$&&&&&####    ######  ****&&&&&&&&&%%%%%  ########&&&&&###$#",
"######&&&&##############  &**&&&&&&&&&%%%%%  $$$$$####&&&&######",
"######&&&&##############  &&&&&&&&&&&%%%%%  +$$$$$$$$$&&&&######",
"######&&&&&##############  &&&&&&&&&%%%%%   +++++++++&&&&&+++++#",
"+++++++&&&&##############   %%&&&&%%%%%%   ++++++++++&&&&+++++++",
"++++###&&&&&##############   %%%%%%%%%%   ++++++++++&&&&&+++++++",
"########&&&&&##############    %%%%%%   ###+++####+&&&&&++++++##",
"#########&&&&&####OOOOO####O            $##++#####&&&&&++#######",
"##########&&&&##OOOOOOOO##OOOOO      $$$$$#++#####&&&&##########",
"##########&&&&&OOO$$$OOOOOOO$$$$OO##$$$$$$$$++###&&&&&#####$$$$$",
"#####OOOOO#&&&&&&$$$$$$OOOO$$$$$$$O#$$$$$$$$$##&&&&&&#$$$$$$$$$$",
"####OOOOOOOO&&&&&&$$$$$$$O$$$$$$$$$$$$$$$$$$$#&&&&&&$$$$$$$$$$$#",
"OO#OOO$$OOOOO&&&&&&$$$$$$$$$$$$$$$$$$$$$$$$$$&&&&&&$$$$$$$$$$###",
"OOOOO$$$$OOO$$&&&&&&&$$$$$$$$$$$$$$$$$$$$$$&&&&&&&#############O",
"O$$OO$$$$$$$$$$$&&&&&&&&$$$$$$####@@@@@.&&&&&&&&$$#############O",
"$$$$$$$$$$$$$$$$$&&&&&&&&&&$$###ooo@@&&&&&&&&&&$$$$########$$OOO",
"$$$$$###$$$$$####$&&&&&&&&&&&&&&&&&&&&&&&&&&&&$$#########$$$$$$$",
"$$$$#####$$$###+++++&&&&&&&&&&&&&&&&&&&&&&&&oo#########$$$$$$$$$",
"$$#######$$$##+++++++++&&&&&&&&&&&&&&&&&&..oooo#######$$$###$$$$",
"###########$##++++++++++++&&&&&&&&&&&&o.....ooo#####$$$$#####$$$",
"############+++++++++++++++++.......ooooo.....o#################",
"######++++++++++###++++++++++.......ooooooooooo#################",
"#########++++++#####++###++++...oo..ooooooooooo#######+++#######",
"############+++#####+######+++.oooo..oooooooooo######+++++######",
"######$$######################oooooooooooooooo+++###++++++######",
"#####$$$$####$$$$##############oooooooooooooo+++++++++++++######",
"###$$$$$$$$$$$$$$$$########++++#oooooooooooo+++++++++++++++++###",
"++$$$$$$$$$$$$$$++++##+++++++++++#o....oo##+++++++++++++++++++++"
};
