/* XPM */
static const char *gold4[] = {
/* columns rows colors chars-per-pixel */
"64 64 12 1 ",
"  c #161C2E",
". c #5A7C52",
"X c #AC7A58",
"o c #718843",
"O c #679175",
"+ c #79A863",
"@ c #8A884C",
"# c #9BB94E",
"$ c #BFBA5B",
"% c #CEA554",
"& c #E9F044",
"* c white",
/* pixels */
"#####$$$$$$$$$$+++++++++++++++++++++++++++++++++++++++++++++++++",
"######$$$$$$#+++###+++++++++++++++++++++OOOO+++++++++++++++++###",
"##$$$$$$$$$############++++++++++++++++OOOOOO########OOOO+++####",
"$$$$$$$$$$$#######+++++++++++++++++OOO+OOOOOOOOOOO##OOOOOOO+####",
"$$$$$$$$$$##########++++++++++++++OOOOOOO        OOOO$$$OOOO###$",
"#####$$$$$############+++++++++++OOOOO$$$   &&     O$$$$$OOOO$$$",
"######$$$$$#$$############+++++++OOO$$$$$$  &&&&&   $$$$$$$$$$##",
"########$$$$$$$###########+++++OOOO$$$$$$$$  &&&&&   $$$$$$$$$##",
"$$#######$$$###$###########$$$$$$O$$$$$$$$$  &%%&&&   $$$$$$$$#$",
"$$$#######################$$##$$$$$$$$$$$$    %%&&%%% $$$$$$$$$$",
"$$$###$$##################$####$$$$$$$$##       %%%%% #$$$$$$$$$",
"$$$##$$$$$#########################$$$###         %%  ##$$$$$$$$",
"$$$$$$$$$$$$$$$$$$$##############          ***        ##$$$$$$$$",
"$$$$$$$$$######################             ***&    ####$$$$$###",
"############++++++############    &&&&&&     * &&   ############",
"##########+++++++++         #   &&&&&&&&&&&&        ############",
"########++++++++               &&&&&&****&&&%%     #############",
"#######++++++++     &&&&&&%   &&&&&&&*****&&&%%   ##############",
"#####++++++###   &&&**&&&&%%%%&&&& &&*****&&&%%%  #####+++######",
"###+++++++###   &&&****&&&%%%%     &*******&&&%%   ###+++++###++",
"+###########   %&&*****&&&%%%       XXXXX*&&&&%%%  ##+++++++++++",
"++++########  %%&&*****&&&&%   %%   XXXXX*&&&&%%%  ##+++++++++++",
"###########  %%%&&&&&&&&X&&&   %%%   XXXXX&&&&%%%  #++++###+++++",
"########OOO  %%&&&&&&&&XX&&&&   %%&&&XX&XX&&&&%%%  ++++#########",
"#######OOO  %%%&&&&&&&&XXX&&&    %&&&X&&&X&&&&%%%  ++++#########",
"#####OOO$$  %%%&&&&&&&&XXX &&& %  &&&&&&&&&&&&%%%  +++##########",
"##OOOO$$$$  %%%&&&&&&&&XXX  &&&%   &&&&&&&&&&%%%%  ++++++++++###",
"$OO$$$$$$$  %%%%&&&&&&&&XX   &&%%  %%&&&&&&&&%%%% #+++++++++++++",
"$$$$$$$$$$  %%%%&&&&&&XXXX   &&&%  %%&&&&&&&%%%%  #+++++$$$$$$$$",
"######$$++  %%%%&&&&&&XXXXX        %%%%&&&&&%%%%  ++$$$$$$$$$$$$",
"##########  %%%%%&&&&&XXX&&X      %%%X%%%%%%%%%  ###############",
"##########   %%%%%&&&&&&&&&&X    &&%%XXX%%%%XX   ###############",
"$$$#######   %%%%%%%&&&&&&&&&&&&&&&&%XXXXXXXXX  ###############$",
"$$$$#######  %%%%%%%%&&&&&&&&&&&&&&&%XXXXXXXXX  ##############$$",
"$$$$$$$####+  %%%%%%%&&&&&&&&&&&&&&&%%XXXXXX    ##########$$$$$$",
"###$$$$$####   %%%%%%%&&&&&&&&&&&&&%%%XXXXX    #############$$$$",
"####$$$$$####   %%%%%%%%&&&&&&&&&&%%%XXX      ################$#",
"##############   %%%%%%%%%%&&&&&&%%%XXXXX    $$$$$##############",
"################   X%%%%%%%%%%%%%%%XXXXXXX   $$$$$$$$$$+++######",
"#################   X%%%%%%%%%%%%%XXXXXXXX   ++++++++++++++++++#",
"++++++++##########   X%%%%%%%%%%%XXXXXXXXX   +++++++++++++++++++",
"++++###############     XXXXXXXXXXXXXXXXX   ++++++++++++++++++++",
"#####################     XXXXXXXXXXXXX     ++####++++++++++++##",
"##################OOOOO        XXXXXX      ++######+###++#######",
"################OOOOOOOO##               $#++###################",
"###############OOO$$$OOOOOOO$$          $$$$++#############$$$$$",
"#####OOOOO##OOOOO$$$$$$OOOO$$$$$$$O#$$$$$$$$$#########$$$$$$$$$$",
"####OOOOOOOOOOOOO$$$$$$$$O$$$$$$$$$$$$$$$$$$$######$$$$$$$$$$$$#",
"OO#OOO$$OOOOO$$OOO$$$$$$$$$$$$$$$$$$$$$$$$$$$$$####$$$$$$$$$$###",
"OOOOO$$$$OOO$$$$$O$$$$$$$$$$$$$$$$$$$$$$$$$$$$$################O",
"O$$OO$$$$$$$$$$$$$$$$$$$$$@@@@oooo@@@@$++$$$$$$$$$#############O",
"$$$$$$$$$$$$$$$$$$$$$+...@@@@oooooo@@@....$$$$$$$$$########$$OOO",
"$$$$$###$$$$$####$$$......oo@ooooooo......@@@$$$#########$$$$$$$",
"$$$$#####$$$###+++........ooooooo.........oooo#########$$$$$$$$$",
"$$#######$$$##++++.......ooooooo...........oooo#######$$$###$$$$",
"###########$##+++............oo......oo.....oooo####$$$$#####$$$",
"############+++++...................ooooo.....oo################",
"######++++++++++#oo.................oooooooooooo################",
"#########++++++##ooo..ooo.......oo..oooooooooooo######+++#######",
"############+++###oo.oooooo....oooo..oooooooooo######+++++######",
"######$$##########oooooooooooooooooooooooooooo+++###++++++######",
"#####$$$$####$$$$###ooooooooooooooooooooooooo+++++++++++++######",
"###$$$$$$$$$$$$$$$$###ooooo....ooooooooooo##+++++++++++++++++###",
"++$$$$$$$$$$$$$$++++##++++.......oo...+####+++++++++++++++++++++"
};
