/* XPM */
static const char *gold7[] = {
/* columns rows colors chars-per-pixel */
"64 64 12 1 ",
"  c #161C2E",
". c #5A7C52",
"X c #AC7A58",
"o c #718844",
"O c #679175",
"+ c #79A863",
"@ c #8A884D",
"# c #9BB94E",
"$ c #BFBA5B",
"% c #CEA554",
"& c #E9F044",
"* c white",
/* pixels */
"#####$$$$$$$$$$+++++++++++++++++++++++++++++++++++++++++++++++++",
"######$$$$$$#+++###+++++++++++++++++++++OOOO+++++++++++++++++###",
"##$$$$$$$$$############++++++++++++++++OOOOOO########OOOO+++####",
"$$$$$$$$$$$#######+++++++++++++++++OOO+OOOOOOOOOOO##OOOOOOO+####",
"$$$$$$$$$$##########++++++++++++++OOOOOOOOOOOOOOOOOOO$$$OOOO###$",
"#####$$$$$############+++++++++++OOOOO$$$$OOOO$$$$OO$$$$$OOOO$$$",
"######$$$$$#$$############+++++++OOO$$$$$$$OO$$$$$$$$$$$$$$$$$##",
"########$$$$$$$###########+++++OOOO$$$$$$$$O$$$$$$$$$$$$$$$$$$##",
"$$#######$$$###$###########$$$$$$O$$$$$$$$$$$$$$$$$$$$$$$$$$$$#$",
"$$$#######################$$##$$$$$$$$$$$$$$$$$$$$$$$$$$$$$$$$$$",
"$$$###$$##################$####$$$$$$$$###$$$$$##$$$$##$$$$$$$$$",
"$$$##$$$$$#########################$$$#####$$######$####$$$$$$$$",
"$$$$$$$$$$$$$$$$$$$#################$$#####$############$$$$$$$$",
"$$$$$$$$$##################################$############$$$$$###",
"############++++++##############################################",
"##########+++++++++#++++######$$$###############################",
"########+++++++++++++++++###$$$$$$######     ++#################",
"#######++++++++++++++++++$$$$$$$$$$$$$++       +################",
"#####++++++#####++++++++++++$$$$$$$$$+++  &     +######+++######",
"###+++++++#######+++###+++++++$$$+++++##  &&&&   +####+++++###++",
"+################++#####################  &&&&&&  ###+++++++++++",
"++++##################################    &%%&&&&  ##+++++++++++",
"#######################OOOOOO###OOO#+     &%%%&&%%  ++++###+++++",
"########OOOOO##OOO###$$$$OOOOO#OOOOO+      %%&&%%%   ++#########",
"#######OOOOOOOOOOOO#$$$$$$$OOOOOO$$O   ***   &%%%%%  ++#########",
"#####OOO$$$$OOO$$OO$$$$$$$$$O          ****   %%     +##########",
"##OOOO$$$$$$$$$$$$$$$$$$$$$             ****       ++++++++++###",
"$OO$$$$$$$$$$$$$$$$$$$$++      &&&&&&    ***&    ##+++++++++++++",
"$$$$$$$$$$+++$$$$$$$$$++     &&&****&&&    &&&   ##+++++$$$$$$$$",
"######$$+++++++$$+++++++    &&&*******&&%   &&   #++$$$$$$$$$$$$",
"############+++++++++++    &&&&*******&&&%       ###############",
"################+++++++    &&&&*******&&&%      ################",
"$$$#################++   &&&&&&***XX**&&&%%    ################$",
"$$$$############++++     &&&&&&**XXX**&&&&%%%  ###############$$",
"$$$$$$$####+++++        &&&     XXX***&&&&%%%   ##########$$$$$$",
"###$$$$$#######       XX%%       XXX&&&&&&%%%   ############$$$$",
"####$$$$$#####     &&%%X%    %%  XXX&&&&&&%%%   ##############$#",
"#############   &&&&&%%%%   %%%&&&XXX&&&&&%%%%  $$##############",
"############   &****&&&%%    %%&&&&&&&&&&%%%%%  $$$$$$$+++######",
"###########   &&****&&&%%     %%&&&&&&&&&%%%%%  +++++++++++++++#",
"++++++++###  &&*****&&&&&        &&&&&&&%%%%%X  ++++++++++++++++",
"++++######   &&*****&XX&&&&       %%&&&&%%%XXX  ++++++++++++++++",
"##########   &&***&&&XXX&&   &%   %%%%%%%%XXXX  ##++++++++++++##",
"##########  %&&&&&&&&XXXX   &&%%  %%XXXXXXXXXX  ###+###++#######",
"##########  %%&&&&&&&&XXX   &&&   %%%XXXXXXXX   ################",
"##########  %%&&&&&&&&&XXXX       &&%%XXXXXX   ############$$$$$",
"#####OOOOO  %%&&&&&&&&&XXXXXXX   &&&&%%XXXX    #######$$$$$$$$$$",
"####OOOOOO  %%&&&&&&&&XXXXXXXX   &&&&%%XXX     ####$$$$$$$$$$$$#",
"OO#OOO$$OO  %%%&&&&&&&XXX&&&&&&&&&&&&%%XXXXX   ####$$$$$$$$$$###",
"OOOOO$$$$O  %%%%&&&&&&XX&&&&&&&&&&&&&%%XXXXXX   ###############O",
"O$$OO$$$$$$  %%%%&&&&&&&&&&&&&&&&&&&&%%XXXXXX   $$#############O",
"$$$$$$$$$$$  %%%%%&&&&&&&&&&&&&&&&&&%%%XXXXXX   $$$########$$OOO",
"$$$$$###$$$   %%%%%%%&&&&&&&&&&&&&&%%%XXXXXX    #########$$$$$$$",
"$$$$#####$$$  %%%%%%%%%%&&&&&&&&&%%%%%XXXXXX   ########$$$$$$$$$",
"$$#######$$@   %%%%%%%%%%%%%%%%%%%%%%XXXXXX    o######$$$###$$$$",
"##########o@o   %%%%%%%%%%%%%%%%%%%%XXXXXX    ooo###$$$$#####$$$",
"##########oo..   X%%%%%%%%%%%%%%%%XXXXXX      ooo###############",
"######++++.....    XX%%%%%%%%%%%XXXXXX       oooo###############",
"#########+.....o       XXX%%%XXXX          oooooo#####+++#######",
"###########o...ooo                     ooooooooo#####+++++######",
"######$$####oooooooooo            oooooooooooo.++###++++++######",
"#####$$$$####$@@@oooooooooooooooooooooooooooo+++++++++++++######",
"###$$$$$$$$$$$$$$@@oooooooo....ooooooooooo##+++++++++++++++++###",
"++$$$$$$$$$$$$$$++++##...........oo..++####+++++++++++++++++++++"
};
