/* XPM */
static const char *gold5[] = {
/* columns rows colors chars-per-pixel */
"64 64 12 1 ",
"  c #161C2E",
". c #5A7C52",
"X c #AC7A58",
"o c #718843",
"O c #679175",
"+ c #79A863",
"@ c #8A884C",
"# c #9BB94E",
"$ c #BFBA5B",
"% c #CEA554",
"& c #E9F044",
"* c white",
/* pixels */
"#####$$$$$$$$$$+++++++++++++++++++++++++++++++++++++++++++++++++",
"######$$$$$$#+++###+++++++++++++++++++++OOOO+++++++++++++++++###",
"##$$$$$$$$$############++++++++++++++++OOOOOO########OOOO+++####",
"$$$$$$$$$$$#######+++++++++++++++++OOO+OOOOOOOOOOO##OOOOOOO+####",
"$$$$$$$$$$##########++++++++++++++OOOOOOOOOOOOOOOOOOO$$$OOOO###$",
"#####$$$$$############+++++++++++OOOOO$$$$OOOO$$$$OO$$$$$OOOO$$$",
"######$$$$$#$$############+++++++OOO$$$$$$$OO$$$$$$$$$$$$$$$$$##",
"########$$$$$$$###########+++++OOOO$$$$$$$$O$$$$$$$$$$$$$$$$$$##",
"$$#######$$$###$###########$$$$$$O$$$$$$$$$$$$$$$$$$$$$$$$$$$$#$",
"$$$#######################$$##$$$$$$$$$$$$$$$$$$$$$$$$$$$$$$$$$$",
"$$$###$$##################$####$$$$$$$$###$$$$$##$$$$##$$$$$$$$$",
"$$$##$$$$$#########################$$$#####$$######$####$$$$$$$$",
"$$$$$$$$$$$$$$$$$$$#################$$#####$############$$$$$$$$",
"$$$$$$$$$##################################$############$$$$$###",
"############++++++##############################################",
"##########+++++++++#++++######$$$###############################",
"########+++++++++++++++++###$$$$$$##########+++#################",
"#######++++++++++++++++++$$$$$$$$$$$$$+++##+++++################",
"#####++++++#####++++++++++++$$$$$$$$$+++++++##+++######+++######",
"###+++++++#######+++###+++++++$$$+++++##+++####+++####+++++###++",
"+################++##################################+++++++++++",
"++++##################################++#####++++####+++++++++++",
"#######################OOOOOO###OOO#+++++#++++++++##++++###+++++",
"########OOOOO##OOO###$$$$OOOOO#OOOOO+++++++++++++++++++#########",
"#######OOOOOOOOOOOO#$$$$$$$OOOOOO$$OO++++++++++++++++++#########",
"#####OOO$$$$OOO$$OO$$$$$$$$$OOOO$$$$OO$$+++##++###++++##########",
"##OOOO$$$$$$$$$$$$$$$$$$$$$$$OO$$$$$$$$$$++########++++++++++###",
"$OO$$$$$$$$$$$$$$$$$$$$+++$$$$O$$##$$$$$$$$########+++++++++++++",
"$$$$$$$$$$+++$$$$$$$$$+++++$$$$$####$$$$$$$$$######+++++$$$$$$$$",
"######$$+++++++$$+++++++++++++###########$$$######++$$$$$$$$$$$$",
"############+++++++++++++++++++++###############################",
"################++++++++++++          #++++++###################",
"$$$#################++++++               ++++#######   ########$",
"$$$$############+++++++##    &&&&&&&&&&    $+#   ##     ######$$",
"$$$$$$$####+++++++++++##   &&&&&&&&&&&&&&            &&  #$$$$$$",
"###$$$$$################  &&&&&&&&&&******     **   &&&   ##$$$$",
"####$$$$$##############  &&&&&  &&&********&   ***  %&&&  ####$#",
"#######################  %%%      &********&&   **  %%%&&  #####",
"#####################   %%%    %%   *XXXX***&&  ***  %%&&   ####",
"###################     %&&    %%%  XXXXX**&&&%  **   &&&%  +++#",
"++++++++######         %%&&&   %%&&&&XX****&&&&% *&&  &&%%%  +++",
"++++########      &&%%%%%&&&    %%&&&&XX&*&&&&&%  &&& %%%%%  +++",
"###########   &&&&&&%%%%&&&&     %&&&&&&&&&&&&%%  &&&   %%%% +##",
"#########    &*****&&&%%&&&&  &    &&&&&&&&&&&%%%         %% ###",
"########    &&*****&&&&%&&&&&&&&    %%&&&&&&&&%%%          % ###",
"########   &&******&XXX&& &&&&&&&   %%%&&&&&&%%%%%   ###     $$$",
"#####OO   %&&****&&&XXXXX  &  &&&&  %%%%&&&&%%%%%   ##$$$    $$$",
"####OOO   %&&&&&&&&&&XXXX     &%%   %%%%%%%%%%%%    $$$$$$$$$$$#",
"OO#OOO$  %%%&&&&&&&&&&&XXX          &&&%%X%%%%%XXX  $$$$$$$$$###",
"OOOOO$$  %%%&&&&&&&&&&&XXX         &&&&&%XXX%%XXXX  ###########O",
"O$$OO$$  %%%&&&&&&&&&XXXXXX       &&&&&&%%XXXXXXXX  ###########O",
"$$$$$$$  %%%%&&&&&&&&XXXX&&&&&&&&&&&&&&&%%XXXXXXXX  #######$$OOO",
"$$$$$###  %%%%%&&&&&&&&&&&&&&&&&&&&&&&&&%%XXXXXXXX  #####$$$$$$$",
"$$$$##oo  %%%%%%%&&&&&&&&&&&&&&&&&&&&&&%%%XXXXXXXX  ooo$$$$$$$$$",
"$$##oooo   %%%%%%%%%&&&&&&&&&&&&&&&&&%%%%XXXXXXXX   oo@@$###$$$$",
"###oooooo   %%%%%%%%%%%%&&&&&&&&&&&%%%%%%XXXXXXX   o@@@@oo###$$$",
"###ooooooo    %%%%%%%%%%%%%%%%%%%%%%%%%XXXXXXX     ooooooo######",
"###ooo.....    XX%%%%%%%%%%%%%%%%%%%XXXXXXX      ooooooooo######",
"###oooooo....     XX%%%%%%%%%%%%%%XXXXXXX       oooooo...o######",
"####oooooooo...o                             oooooooo...++######",
"######@@oooooooooooo                     ooooo...ooo...+++######",
"#####$$$@oooo@@@@oooooooooooooooooooooooooooo.......++++++######",
"###$$$$$$$$$$@@@@@@oooooooo....ooooooooooooo....+++++++++++++###",
"++$$$$$$$$$$$$$$++++oo...........oo....oo##+++++++++++++++++++++"
};
