/* XPM */
static const char *gold6[] = {
/* columns rows colors chars-per-pixel */
"64 64 12 1 ",
"  c #161C2E",
". c #5A7C52",
"X c #AC7A58",
"o c #718843",
"O c #679175",
"+ c #79A863",
"@ c #8A884C",
"# c #9BB94E",
"$ c #BFBA5B",
"% c #CEA554",
"& c #E9F044",
"* c white",
/* pixels */
"#####$$$$$$$$$$+++++++++++++++++++++++++++++++++++++++++++++++++",
"######$$$$$$#+++###+++++++++++++++++++++OOOO+++++++++++++++++###",
"##$$$$$$$$$############++++++++++++++++OOOOOO########OOOO+++####",
"$$$$$$$$$$$#######+++++++++++++++++OOO+OOOOOOOOOOO##OOOOOOO+####",
"$$$$$$$$$$##########++++++++++++++OOOOOOOOOOOOOOOOOOO$$$OOOO###$",
"#####$$$$$############+++++++++++OOOOO$$$$OOOO$$$$OO$$$$$OOOO$$$",
"######$$$$$#$$############+++++++OOO$$$$$$$OO$$$$$$$$$$$$$$$$$##",
"########$$$$$$$###########+++++OOOO$$$$$$$$O$$$$$$$$$$$$$$$$$$##",
"$$#######$$$###$###########$$$$$$O$$$$$$$$$$$$$$$$$$$$$$$$$$$$#$",
"$$$#######################$$##$$$$$$$$$$$$$$$$$$$$$$$$$$$$$$$$$$",
"$$$###$$##################$####$$$$$$$$###$$$$$##$$$$##$$$$$$$$$",
"$$$##$$$$$#########################     ###$$######$####$$$$$$$$",
"$$$$$$$$$$$$$$$$$$$################         ############$$$$$$$$",
"$$$$$$$$$##########################  &&        #########$$$$$###",
"############++++++#################   &&&&&&%   ################",
"##########+++++++++#++++######$$$###  &&%&&%%%%  ###############",
"########+++++++++++++++++###$$$$$$##   &%%&%%%%  ###############",
"#######++++++++++++++++++$$$$$$$$$$$$   %%%%%%   ###############",
"#####++++++#####++++++++++++$$$$$$$$$     %%%   +######+++######",
"###+++++++#######+++###+++++++$$$+++  **       +++####+++++###++",
"+################++#################  ****     ######+++++++++++",
"++++################################  *****&&   +####+++++++++++",
"#######################OOOOOO###       ****&&   ++##++++###+++++",
"########OOOOO##OOO###$$$$OOOOO                 ++++++++#########",
"#######OOOOOOOOOOOO#$$$$$$$O     &&&&&&        ++++++++#########",
"#####OOO$$$$OOO$$OO$$$$$$$$    &&&**&&&&&&%   +###++++##########",
"##OOOO$$$$$$$$$$$$$$$$$$$$$   &&&********&%   #####++++++++++###",
"$OO$$$$$$$$$$$$$$$$$$$$+++$  &&&&********&%%   ####+++++++++++++",
"$$$$$$$$$$+++$$$$$$$$$+++++  &&&&*******&&&%%   ###+++++$$$$$$$$",
"######$$+++++++$$+++++++++  &&&&&***XX**&&&%%%  ##++$$$$$$$$$$$$",
"############++++++++++++    &&&&&**XXX**&&&%%%  ################",
"################+++++      &&&    XXX**&&&&&%%  ################",
"$$$#################      X%%      XXX&&&&&&%%  ###############$",
"$$$$############+++    &&%%%    %  XXX&&&&&&%%  ##############$$",
"$$$$$$$####++++++++   &&&%%%    %% XXX&&&&&&%%  ##########$$$$$$",
"###$$$$$##########   &&&&%%%   %%&&&XXX&&&&%%%  ############$$$$",
"####$$$$$########   &***&&&%    %&&&&&&&&&&%%%  ##############$#",
"################   &&***&&&%     %&&&&&&&&%%%%  $$##############",
"################  &&****&&&&       &&&&&&&%%%%  $$$$$$$+++######",
"###############   &&****&XX&&&      %%&&&%%%XX  +++++++++++++++#",
"++++++++#######   &&**&&&XX&&&  &   %%%%%%%XXX  ++++++++++++++++",
"++++###########  %&&&&&&&XX   &&&%  %%XXXXXXXX  ++++++++++++++++",
"###############  %%&&&&&&&X    &&   %%%XXXXXXX  ##++++++++++++##",
"###############  %%&&&&&&&&X        &&%%XXXXX  ####+###++#######",
"###############  %%&&&&&&&&XXX     &&&&%%XXX   #################",
"###############  %%&&&&&&&XXXXXXX  &&&&%%XX    ############$$$$$",
"#####OOOOO##OOO  %%%&&&&&&XX&&&&&&&&&&&%%XXXX  #######$$$$$$$$$$",
"####OOOOOOOOOOO  %%%&&&&&&XX&&&&&&&&&&&%%XXXX  ####$$$$$$$$$$$$#",
"OO#OOO$$OOOOO$$  %%%%&&&&&X&&&&&&&&&&&&%%XXXXX  ###$$$$$$$$$$###",
"OOOOO$$$$OOO$$$$  %%%&&&&&&&&&&&&&&&&&&%%XXXXX  ###############O",
"O$$OO$$$$$$$$$$$  %%%%&&&&&&&&&&&&&&&&%%XXXXXX  $$#############O",
"$$$$$$$$$$$$$$$$   %%%%%&&&&&&&&&&&&&%%%XXXXX   $$$########$$OOO",
"$$$$$###$$$$$###o  %%%%%%%%&&&&&&&&%%%%%XXXXX  $#########$$$$$$$",
"$$$$#####$$$###..   %%%%%%%%%%%%%%%%%%%XXXXX   o#######$$$$$$$$$",
"$$#######$$$##....   %%%%%%%%%%%%%%%%%XXXXX   ooo#####$$$###$$$$",
"###########$#o.....  X%%%%%%%%%%%%%%XXXXXX    oooo##$$$$#####$$$",
"############+.......   XX%%%%%%%%%XXXXXX     .oooo##############",
"######+++++++...ooo..    XXXX%%%XXXXXX      oooooo##############",
"#########++++..ooooo..     XXXXXXXXX      oooooooo####+++#######",
"############++.ooooo.ooo                ooooooooo####+++++######",
"######$$#######ooooooooooo          oooooooooo..+###++++++######",
"#####$$$$####$$$@oooooooooooooooooooooooooooo.++++++++++++######",
"###$$$$$$$$$$$$$$$$oooooooo....oooooooooooo#+++++++++++++++++###",
"++$$$$$$$$$$$$$$++++##++.........oo...+####+++++++++++++++++++++"
};
