/* XPM */
static const char *gold3[] = {
/* columns rows colors chars-per-pixel */
"64 64 12 1 ",
"  c #161C2E",
". c #5A7C52",
"X c #AC7A58",
"o c #718843",
"O c #679175",
"+ c #79A863",
"@ c #8A884C",
"# c #9BB94E",
"$ c #BFBA5B",
"% c #CEA554",
"& c #E9F044",
"* c white",
/* pixels */
"#####$$$$$$$$   %%      +++++++++++++++++++++%++++++++++++++++++",
"######$$$$$$  &&%%%      +++++++++++++++OOOO+%+++++++++++++++###",
"##$$$$$$$$$   &&&%%       +++++++++++++OOOOOO##%%####OOOO+++####",
"$$$$$$$$$$$  &&&&&    &        ++++OOO+OOOOOOOO%%%##OOOOOOO+####",
"$$$$$$$$$$   &&%%&   &&          +OOOOOOOOOOOOOOO%%OO$$$OOOO###$",
"#####$$$$$  &&&%%   **   %%%%%%    OOO$$$$OOOO$$$$%%$$$$$OOOO$$$",
"######$$$  &&&&&   **   %%%%%%%%     $$$$$$OO$$$$$$%%$$$$$$$$$##",
"########$  &&&    ***  %%&&%%%%%%%    $$$$$O$$$$$$$$%%$$$$$$$$##",
"$$#######  &&     **   &&&&&&%%%%%%    $$$$$$$$$$$$$$%%$$$$$$$#$",
"$$$#####%             &&&&&&&&%%%%%%    $$$$$$$$$$$$$$%%$$$$$$$$",
"$$$###$$%    ##      &&&&&&&&&&&%%%%%X   #$$$$$##$$$$##%%$$$$$$$",
"$$$##$$%$$########  &****&&&&&&&&&&%%XX    $$######$####%$$$$$$$",
"$$$$$$$%$$$$$$$$$   &******&&&&&&&&&%%XXX   ############%%$$$$$$",
"$$$$$$$$$#######    ********&&&&&&&&&%XXXX   ###########$%%$$###",
"############++++   &*****XXX&&&&&&&&&%%XXXX  #############%#####",
"##########++++++   &****XXX  &&&&&&&&%%%XXX   ############%#####",
"########++++++++   &&****XX    &&&&&&%%%%XXX  +###########%%####",
"#######+++++++++  &&&&&**       &&&&&&%%%XXXX  +###########%####",
"#####++++++#####  &&&&&&      &&&&&&&&%%%XXXX  ++######+++#%%###",
"###+++++++######    &&&&   %  &&&&&&&&%%%XXXXX  ++####+++++#%#++",
"+################   &&&&  %%% &&&&&&&&%%%XXXXX  #####+++++++%+++",
"++++#############   &&&&   %%%%&&&&&&&&%%XXXXX  +####+++++++%+++",
"##%###############   &&&          %%%%%XXXXXX    +##++++###+%%++",
"##%#####OOOOO##OO    &&%%          %%XXXXXXXX     +++++######%##",
"##%####OOOOOOOOO     &%%%%&&&      %%%%XXXXX       ++++######%##",
"##%##OOO$$$$OOO   &&&&&&%%&&&   %%  %%%%%XXXXXXX   +++#######%##",
"##%OOO$$$$$$$$   &***&&&&&&&&&  &   &&&&%%XXXXXX    +++++++++%##",
"$O%$$$$$$$$$$$  &*****&&X&&&&&&&&   &&&&%%XXXXXXX   +++++++++%++",
"$$%$$$$$$$+++$  &*****&XXXX&&&      &&&&&%%XXXXXX   ++++$$$$$%$$",
"##%###$$+++++   &****&&&XXXX       &&&&&&%%XXXXXX   $$$$$$$$$%$$",
"##%#########+   &***&&&&&&XXXXXX  &&&&&&&%%XXXXXX   #########%##",
"##%##########   &&*&&&&&&&XXXXX&& &&&&&&%%%XXXXX    #########%##",
"$$%%#########   &&&&&&&&&&XXXX&&&&&&&&&&%%%XXXX    #########%%#$",
"$$$%#########   %&&&&&&&&&&XX&&&&&&&&&&%%%%XXXX    #########%#$$",
"$$$%$$$####+++  %%&&&&&&&&&XX&&&&&&&&&%%%%XXXX    ########$$%$$$",
"###%$$$$######  %%%&&&&&&&&&&&&&&&&&&%%%%%XXX    ###########%$$$",
"###%%$$$$######  %%&&&&&&&&&&&&&&&&%%%%%%XXX   ############%%#$#",
"####%##########  %%%%&&&&&&&&&&&&%%%%%%%XX    $$$$#########%####",
"####%%##########  %%%%%%%&&&&&%%%%%%%%%XX    $$$$$$$$$$+++######",
"#####%##########   %%%%%%%%%%%%%%%%%%%XX    +++++++++++++++++++#",
"+++++%++#########   %%%%%%%%%%%%%%%%%%     +++++++++++++++++++++",
"++++#%%###########    %%%%%%%%%%%%%%      ++++++++++++++++++++++",
"######%%###########    %%%%%%%%%XX     ####+++####++++++++++++##",
"#######%##########OOO                #$$$##++######+###++#######",
"#######%%#######OOOOOO            ###$$$$$#++###################",
"########%%#####OOO$$$OOOO     $$OO##$$$$$$$$++#############$$$$$",
"#####OOOO%%#OOOOO$$$$$$OOOO$$$$$$$O#$$$$$$$$$#########$$$$$$$$$$",
"####OOOOOO%OOOOOO$$$$$$$$O$$$$$$$$$$$$$$$$$$$######$$$$$$$$$$$$#",
"OO#OOO$$OOOOO$$OOO$$$$$$$$$$$$$$$$$$$$$$$$$$$$$####$$$$$$$$$$###",
"OOOOO$$$$OOO$$$$$O$$$$$$$$$$$$$$$$$$$$$$$$$$$$$################O",
"O$$OO$$$$$$$$$$$$$$$$$$$$$$$$$#ooo@@@@@..$$$$$$$$$#############O",
"$$$$$$$$$$$$$$$%$$$$$++++$$$@oooooo@@@....@@@$$%$$$########$$OOO",
"$$$$$###$$$$$##%#%$$++++++oo@ooooooo......@@@@%%#########$$$$$$$",
"$$$$#####$$$###++%%%%+++..ooooooo.........o%%%%o#######$$$$$$$$$",
"$$#######$$$##++++%%%%%+.ooooooo.........%%%%%ooo#####$$$###$$$$",
"###########$##+++++++%%%%%%..oo......%%%%%%.oooooo##$$$$#####$$$",
"############+++++++++++%%%%%%%%%%%%%%%%%%.....oooo##############",
"######++++++++++###++++....%%%%%%%%%%ooooooooooooo##############",
"#########++++++#####++#oo.......oo..oooooooooooooo####+++#######",
"############+++#####+###ooo....oooo..oooooooooooo####+++++######",
"######$$################oooooooooooooooooooooo..+###++++++######",
"#####$$$$####$$$$#########ooooooooooooooooooo..+++++++++++######",
"###$$$$$$$$$$$$$$$$########+...ooooooooooooo.++++++++++++++++###",
"++$$$$$$$$$$$$$$++++##+++++++++..oo....oo##+++++++++++++++++++++"
};
