/* XPM */
static const char *gold1[] = {
/* columns rows colors chars-per-pixel */
"64 64 5 1 ",
"  c #679175",
". c #79A863",
"X c #9BB94E",
"o c #BFBA5B",
"O c white",
/* pixels */
"XXXXXoooooooooo.................................................",
"XXXXXXooooooX...XXX.....................    .................XXX",
"XXoooooooooXXXXXXXXXXXX................      XXXXXXXX    ...XXXX",
"oooooooooooXXXXXXX.................   .           XX       .XXXX",
"ooooooooooXXXXXXXXXX..............                   ooo    XXXo",
"XXXXXoooooXXXXXXXXXXXX...........     oooo    oooo  ooooo    ooo",
"XXXXXXoooooXooXXXXXXXXXXXX.......   ooooooo  oooooooooooooooooXX",
"XXXXXXXXoooooooXXXXXXXXXXX.....    oooooooo ooooooooooooooooooXX",
"ooXXXXXXXoooXXXoXXXXXXXXXXXoooooo ooooooooooooooooooooooooooooXo",
"oooXXXXXXXXXXXXXXXXXXXXXXXooXXoooooooooooooooooooooooooooooooooo",
"oooXXXooXXXXXXXXXXXXXXXXXXoXXXXooooooooXXXoooooXXooooXXooooooooo",
"oooXXoooooXXXXXXXXXXXXXXXXXXXXXXXXXoooXXXXXooXXXXXXoXXXXoooooooo",
"oooooooooooooooooooXXXXXXXXXXXXXXXXXooXXXXXoXXXXXXXXXXXXoooooooo",
"oooooooooXXXXXXXXXXXXXXXXXXXXXXXXXXXXXXXXXXoXXXXXXXXXXXXoooooXXX",
"XXXXXXXXXXXX......XXXXXXXXXXXXXXXXXXXXXXXXXXXXXXXXXXXXXXXXXXXXXX",
"XXXXXXXXXX.........X....XXXXXXoooXXXXXXXXXXXXXXXXXXXXXXXXXXXXXXX",
"XXXXXXXX.................XXXooooooXXXXXXXXXX...XXXXXXXXXXXXXXXXX",
"XXXXXXX..................ooooooooooooo...XX.....XXXXXXXXXXXXXXXX",
"XXXXX......XXXXX............ooooooooo.......XX...XXXXXX...XXXXXX",
"XXX.......XXXXXXX...XXX.......ooo.....XX...XXXX...XXXX.....XXX..",
".XXXXXXXXXXXXXXXX..XXXXXXXXOOOOOOOOOOXXXXXXXXXXXXXXXX...........",
"....XXXXXXXXXXXXXXXXXXXXOOOOOOOOOOOOOOOOXXXXX....XXXX...........",
"XXXXXXXXXXXXXXXXXXXXXXOOOOOOOOOOOOOOOOOOOO........XX....XXX.....",
"XXXXXXXX     XX   XXOOOOOOOOOOOOOOOOOOOOOOOO...........XXXXXXXXX",
"XXXXXXX            OOOOOOOOOOOOOOOOOOOOOOOOOO..........XXXXXXXXX",
"XXXXX   oooo   ooOOOOOOOOOOOOOOOOOOOOOOOOOOOOOOXXX....XXXXXXXXXX",
"XX    ooooooooooOOOOOOOOOOOOOOOOOOOOOOOOOOOOOOOOXXX..........XXX",
"o  ooooooooooooOOOOOOOOOOOOOOOOOOOOOOOOOOOOOOOOOOXX.............",
"oooooooooo...ooOOOOOOOOOOOOOOOOOOOOOOOOOOOOOOOOOOXX.....oooooooo",
"XXXXXXoo......OOOOOOOOOOOOOOOOOOOOOOOOOOOOOOOOOOOO..oooooooooooo",
"XXXXXXXXXXXX.OOOOOOOOOOOOOOOOOOOOOOOOOOOOOOOOOOOOOOXXXXXXXXXXXXX",
"XXXXXXXXXXXXXOOOOOOOOOOOOOOOOOOOOOOOOOOOOOOOOOOOOOOXXXXXXXXXXXXX",
"oooXXXXXXXXXOOOOOOOOOOOOOOOOOOOOOOOOOOOOOOOOOOOOOOOOXXXXXXXXXXXo",
"ooooXXXXXXXXOOOOOOOOOOOOOOOOOOOOOOOOOOOOOOOOOOOOOOOOXXXXXXXXXXoo",
"oooooooXXXXOOOOOOOOOOOOOOOOOOOOOOOOOOOOOOOOOOOOOOOOOOXXXXXoooooo",
"XXXoooooXXXOOOOOOOOOOOOOOOOOOOOOOOOOOOOOOOOOOOOOOOOOOXXXXXXXoooo",
"XXXXoooooXXOOOOOOOOOOOOOOOOOOOOOOOOOOOOOOOOOOOOOOOOOOXXXXXXXXXoX",
"XXXXXXXXXXOOOOOOOOOOOOOOOOOOOOOOOOOOOOOOOOOOOOOOOOOOOOXXXXXXXXXX",
"XXXXXXXXXXOOOOOOOOOOOOOOOOOOOOOOOOOOOOOOOOOOOOOOOOOOOOo...XXXXXX",
"XXXXXXXXXXOOOOOOOOOOOOOOOOOOOOOOOOOOOOOOOOOOOOOOOOOOOO.........X",
"........XXOOOOOOOOOOOOOOOOOOOOOOOOOOOOOOOOOOOOOOOOOOOO..........",
"....XXXXXXOOOOOOOOOOOOOOOOOOOOOOOOOOOOOOOOOOOOOOOOOOOO..........",
"XXXXXXXXXXOOOOOOOOOOOOOOOOOOOOOOOOOOOOOOOOOOOOOOOOOOOO........XX",
"XXXXXXXXXXOOOOOOOOOOOOOOOOOOOOOOOOOOOOOOOOOOOOOOOOOOOOX..XXXXXXX",
"XXXXXXXXXXOOOOOOOOOOOOOOOOOOOOOOOOOOOOOOOOOOOOOOOOOOOOXXXXXXXXXX",
"XXXXXXXXXXOOOOOOOOOOOOOOOOOOOOOOOOOOOOOOOOOOOOOOOOOOOOXXXXXooooo",
"XXXXX     OOOOOOOOOOOOOOOOOOOOOOOOOOOOOOOOOOOOOOOOOOOOoooooooooo",
"XXXX       OOOOOOOOOOOOOOOOOOOOOOOOOOOOOOOOOOOOOOOOOOooooooooooX",
"  X   oo   OOOOOOOOOOOOOOOOOOOOOOOOOOOOOOOOOOOOOOOOOOooooooooXXX",
"     oooo  OOOOOOOOOOOOOOOOOOOOOOOOOOOOOOOOOOOOOOOOOOXXXXXXXXXX ",
" oo  oooooooOOOOOOOOOOOOOOOOOOOOOOOOOOOOOOOOOOOOOOOOXXXXXXXXXXX ",
"ooooooooooooOOOOOOOOOOOOOOOOOOOOOOOOOOOOOOOOOOOOOOOOXXXXXXXoo   ",
"oooooXXXoooooOOOOOOOOOOOOOOOOOOOOOOOOOOOOOOOOOOOOOOXXXXXXooooooo",
"ooooXXXXXoooXOOOOOOOOOOOOOOOOOOOOOOOOOOOOOOOOOOOOOOXXXXooooooooo",
"ooXXXXXXXoooXXOOOOOOOOOOOOOOOOOOOOOOOOOOOOOOOOOOOOXXXXoooXXXoooo",
"XXXXXXXXXXXoXX.OOOOOOOOOOOOOOOOOOOOOOOOOOOOOOOOOOXXXooooXXXXXooo",
"XXXXXXXXXXXX...OOOOOOOOOOOOOOOOOOOOOOOOOOOOOOOOOOXXXXXXXXXXXXXXX",
"XXXXXX..........OOOOOOOOOOOOOOOOOOOOOOOOOOOOOOOOXXXXXXXXXXXXXXXX",
"XXXXXXXXX......XXOOOOOOOOOOOOOOOOOOOOOOOOOOOOOOXXXXXXX...XXXXXXX",
"XXXXXXXXXXXX...XXXXOOOOOOOOOOOOOOOOOOOOOOOOOOXXXXXXXX.....XXXXXX",
"XXXXXXooXXXXXXXXXXXXOOOOOOOOOOOOOOOOOOOOOOOOXX...XXX......XXXXXX",
"XXXXXooooXXXXooooXXXXXOOOOOOOOOOOOOOOOOOOOXXX.............XXXXXX",
"XXXooooooooooooooooXXXXXOOOOOOOOOOOOOOOOXXXX.................XXX",
"..oooooooooooooo....XX.....OOOOOOOOOO..XXXX....................."
};
