/* XPM */
static const char *inactive[] = {
/* columns rows colors chars-per-pixel */
"71 64 226 2 ",
"   c #161C2E",
".  c #1A1E2F",
"X  c #121629",
"o  c #181F30",
"O  c #171E30",
"+  c #1D202F",
"@  c #1C2333",
"#  c #1F2A3A",
"$  c #1F2837",
"%  c #242532",
"&  c #222937",
"*  c #232D3B",
"=  c #2A2B37",
"-  c #322F38",
";  c #26313E",
":  c #2A333E",
">  c #2D3334",
",  c #3B343A",
"<  c #36363A",
"1  c #4C3F3B",
"2  c #443A3B",
"3  c #4C403C",
"4  c #57483E",
"5  c #5D533F",
"6  c #6C723F",
"7  c #253442",
"8  c #2A3641",
"9  c #2D3B45",
"0  c #2E3E49",
"q  c #333C44",
"w  c #353F47",
"e  c #4D3F41",
"r  c #34444C",
"t  c #3A454A",
"y  c #39454A",
"u  c #354A53",
"i  c #3C4D52",
"p  c #354853",
"a  c #3E5257",
"s  c #3D545B",
"d  c #36505C",
"f  c #2D414E",
"g  c #3D5B64",
"h  c #3F5761",
"j  c #494847",
"k  c #5D4A43",
"l  c #524542",
"z  c #47534A",
"x  c #5A5849",
"c  c #454F52",
"v  c #41565B",
"b  c #445A5D",
"n  c #465556",
"m  c #525856",
"M  c #644E44",
"N  c #665144",
"B  c #685949",
"V  c #745946",
"C  c #7B5D4A",
"Z  c #775B48",
"A  c #695E50",
"S  c #586254",
"D  c #6A6448",
"F  c #7B6649",
"G  c #716857",
"H  c #727155",
"J  c #445C63",
"K  c #475F64",
"L  c #5A5F60",
"P  c #4B6465",
"I  c #45646C",
"U  c #49656A",
"Y  c #4D696B",
"T  c #496567",
"R  c #516C6B",
"E  c #576764",
"W  c #58736E",
"Q  c #4D6E74",
"!  c #486872",
"~  c #4D747A",
"^  c #4E7478",
"/  c #537372",
"(  c #53747A",
")  c #567B7C",
"_  c #5A7C7C",
"`  c #577776",
"'  c #516E73",
"]  c #6B6E62",
"[  c #677667",
"{  c #797861",
"}  c #647D7B",
"|  c #726E64",
" . c #83634B",
".. c #8B694D",
"X. c #89664E",
"o. c #936D4E",
"O. c #83744B",
"+. c #98774B",
"@. c #896852",
"#. c #946D51",
"$. c #8B7355",
"%. c #9C7352",
"&. c #967A58",
"*. c #A17653",
"=. c #A57953",
"-. c #AB7D55",
";. c #A67E58",
":. c #8F7F62",
">. c #7E823D",
",. c #7B8558",
"<. c #5A807F",
"1. c #7D8868",
"2. c #71887A",
"3. c #ABB23D",
"4. c #9B8657",
"5. c #959551",
"6. c #AD8256",
"7. c #A8875B",
"8. c #B48356",
"9. c #B48A5C",
"0. c #B78A5A",
"q. c #A6995A",
"w. c #B8955A",
"e. c #A8904C",
"r. c #99A54E",
"t. c #AEA851",
"y. c #9B8865",
"u. c #859A67",
"i. c #969A76",
"p. c #91896C",
"a. c #BB9662",
"s. c #AD9361",
"d. c #97AA76",
"f. c #8BA96B",
"g. c #B3A572",
"h. c #CBB054",
"j. c #C39A64",
"k. c #C5A66B",
"l. c #C7B86A",
"z. c #D7AF6D",
"x. c #BDC242",
"c. c #B7C866",
"v. c #D9D056",
"b. c #D4C653",
"n. c #DFE444",
"m. c #E8E94E",
"M. c #CACE70",
"N. c #EBEB72",
"B. c #E4D968",
"V. c #537D81",
"C. c #5C7E85",
"Z. c #5C8484",
"A. c #5D8A8B",
"S. c #5A8588",
"D. c #5C8E90",
"F. c #5F9293",
"G. c #628C8C",
"H. c #648687",
"J. c #768C83",
"K. c #61908F",
"L. c #75968C",
"P. c #648E92",
"I. c #688F90",
"U. c #629494",
"Y. c #6D9593",
"T. c #6C9996",
"R. c #6A9599",
"E. c #659C9C",
"W. c #6A9C9C",
"Q. c #649798",
"!. c #719C9D",
"~. c #739892",
"^. c #6CA09E",
"/. c #74A39D",
"(. c #7AA58C",
"). c #679FA0",
"_. c #6CA2A2",
"`. c #74A4A3",
"'. c #7CABA3",
"]. c #73AAAA",
"[. c #7AABAC",
"{. c #75A7A7",
"}. c #7CAFB1",
"|. c #77AEB0",
" X c #7CB2B3",
".X c #849B8F",
"XX c #87A99B",
"oX c #94AC91",
"OX c #A4A688",
"+X c #B4B992",
"@X c #82ADA3",
"#X c #82AAA8",
"$X c #8AB5A9",
"%X c #9BBEAA",
"&X c #94BBAB",
"*X c #81B4B5",
"=X c #81B7B8",
"-X c #85BBBC",
";X c #89BDBE",
":X c #8AB8B4",
">X c #92BDB5",
",X c #A7BDA2",
"<X c #C3B88E",
"1X c #BDCE99",
"2X c #8CC1BF",
"3X c #97C3B9",
"4X c #A4CBBC",
"5X c #A9CBB7",
"6X c #AED1BE",
"7X c #B1D2BD",
"8X c #A6CBA3",
"9X c #DDD88D",
"0X c #E5DB8D",
"qX c #E9E389",
"wX c #EDEF8A",
"eX c #F6F7B3",
"rX c #D4DAA0",
"tX c #89BFC0",
"yX c #86BDC0",
"uX c #8CC3C4",
"iX c #8FC7C8",
"pX c #92C6C3",
"aX c #96C9C5",
"sX c #A5CDC0",
"dX c None",
"fX c black",
/* pixels */
"dXdXdXdXdXdXdXdXdXdXdXdXdXdXdXdXdXdXdXdXdXdXdXdXdXdXdXdXdXdXdXdXdXdXdXdXdXdXdXdXdXdXdXdXdXdXdXdXdXdXdXdXdXdXdXdXdXdXdXdXdXdXdXdXdXdXdXdXdXdXdX",
"dXdXdXdXdXdXdXdXdXdXdXdXdXdXdXdXdXdXdXdXdXdXdXdXdXdXdXdXdXdXdXdXdXdXdXdXdXdXdXdXdXdXdXdXdXdXdXdXdXdXdXdXdXdXdXdXdXdXdXdXdXdXdXdXdXdXdXdXdXdXdX",
"dXdXdXdXdXdXdXdXdXdXdXdXdXdXdXdXdXdXdXdXdXdXdXdXdXdXdXdXdXdXdXdXdX  @ * * @ dXdXdXdXdXdXdXdXdXdXdXdXdXdXdXdXdXdXdXdXdXdXdXdXdXdXdXdXdXdXdXdXdX",
"dXdXdXdXdXdXdXdXdXdXdXdXdXdXdXdXdXdXdXdXdXdXdXdXdXdXdXdXdXdX; * @ 9 U / P a ; @ @ dXdXdXdXdXdXdXdXdXdXdXdXdXdXdXdXdXdXdXdXdXdXdXdXdXdXdXdXdXdX",
"dXdXdXdXdXdXdXdXdXdXdXdXdXdXdXdXdXdXdXdXdXdXdXdXdXdX  J f d A.U.S.) U.E.Q.Q.Z.Y Q H q.v X dXdXdXdXdXdXdXdXdXdXdXdXdXdXdXdXdXdXdXdXdXdXdXdXdXdX",
"dXdXdXdXdXdXdXdXdXdXdXdXdXdXdXdXdXdXdXdXdXdXdXdXdX# I }.I _.=X X_.U.G.E.E.E.E.Z.Q.1.+X`.J # dXdXdXdXdXdXdXdXdXdXdXdXdXdXdXdXdXdXdXdXdXdXdXdXdX",
"dXdXdXdXdXdXdXdXdXdXdXdXdXdXdXdXdXdXdXdXdXdXdXdX* V.=X;XQ.]._.E.E._.Q.E.E._.].E._.` ` ;X XV.* dXdXdXdXdXdXdXdXdXdXdXdXdXdXdXdXdXdXdXdXdXdXdXdX",
"dXdXdXdXdXdXdXdXdXdXdXdXdXdXdXdXdXdXdXdXdXdX  @ s U.=X=XT.J.[. X[.T.G.[. XuX X]. XW.E.=X=XU.s @   dXdXdXdXdXdXdXdXdXdXdXdXdXdXdXdXdXdXdXdXdXdX",
"dXdXdXdXdXdXdXdXdXdXdXdXdXdXdXdXdXdXdXdXdX# 7 @ P U. X;XoXk.&XuX=XQ.Z.*XuXuXuXuXG.s E.;X XU.P @ 7 # dXdXdXdXdXdXdXdXdXdXdXdXdXdXdXdXdXdXdXdXdX",
"dXdXdXdXdXdXdXdXdXdXdXdXdXdXdXdXdXdXdXX 7 A.^ ; P Z.'.5X1XqX1.Q.E.E.U.G.[.uX*X}.h _ -X4X'.Z.P ; ^ A.7 X dXdXdXdXdXdXdXdXdXdXdXdXdXdXdXdXdXdXdX",
"dXdXdXdXdXdXdXdXdXdXdXdXdXdXdXdXdXdX9 f p E.R 9 v R U.`.(.{ P W.E.E.E.E.E.E.Z.`.Q _ W._.Q.R a 9 Y E.p f 9 dXdXdXdXdXdXdXdXdXdXdXdXdXdXdXdXdXdX",
"dXdXdXdXdXdXdXdXdXdXdXdXdXdXdXdXdXdXI U.Y J.&.c U Y U.E.Z.T _ [._._.].].`.Q.`.uXY.{ y.L.U.U u i ) Q.Y U.I dXdXdXdXdXdXdXdXdXdXdXdXdXdXdXdXdXdX",
"dXdXdXdXdXdXdXdXdXdXdXdXdXdXdXdXdX  g Q.Y OX0X,.Q.*X].G.Y P Y `. X*X`.C.J _  X X} e.N.+X].*X[./ A.U.R Q.g   dXdXdXdXdXdXdXdXdXdXdXdXdXdXdXdXdX",
"dXdXdXdXdXdXdXdXdXdXdXdXdXdXdXdX  9 s G.v u.l.m U.uXuXR.i 0 P W.;XuX=XXXn S.].E.v w.eXrX:XuX[.R A.V.v G.b 9   dXdXdXdXdXdXdXdXdXdXdXdXdXdXdXdX",
"dXdXdXdXdXdXdXdXdXdXdXdXdXdXdXdX; P b b t c < i _ >XaXuXR.* Y U._.].*X%XL.Z.E.E.Y +.v.c.*X=XH.v r i t b b P ; dXdXdXdXdXdXdXdXdXdXdXdXdXdXdXdX",
"dXdXdXdXdXdXdXdXdXdXdXdXdXdXdX  r R i y B x : T U.`.$X_.I 8 R U.E.E.E.E.Z./ E.E.S.: D 2.]._.U.T : t y w i R r   dXdXdXdXdXdXdXdXdXdXdXdXdXdXdX",
"dXdXdXdXdXdXdXdXdXdXdXdXdXdX  * i v J } <Xq.w R U.E.E.U.( ( / Z.Q.E.E.E.) J Q.E.! J ! ~ E.E.Q./ i 8 I C.J v i *   dXdXdXdXdXdXdXdXdXdXdXdXdXdX",
"dXdXdXdXdXdXdXdXdXdXdXdXdX@ r K 9 0  X@X9Xg.j | H.A.~  XiXuX`.` _ U.E.Q.Y s G.].}.;XpX[.~ D.) K T ~ *XiX{.9 q K r dXdXdXdXdXdXdXdXdXdXdXdXdXdX",
"dXdXdXdXdXdXdXdXdXdXdXdXdXr P P : T ;X`.u.x 4.l.$.w a W.uXuXuX;X!.b ) Z.J 9 G.-XaX4X5X@Xv 7 * d A. XuXuX=XJ & v P r dXdXdXdXdXdXdXdXdXdXdXdXdX",
"dXdXdXdXdXdXdXdXdXdXdXdXdXn R p r R [.uX;Xd.eXwXw.c Y A.].3X5X7X5XP i P r 7 J ` XX@X^.U./ v P H.;XuXuXtX[./ r r R n dXdXdXdXdXdXdXdXdXdXdXdXdX",
"dXdXdXdXdXdXdXdXdXdXdXdX8 b b 7 P ` E.].3XM.N.0X4.y R _ Q.^.@X%XXXv ' Z.P. X XG./ Q.E.Q.R ] 4.y.XX;X X_.E.` P ; i v 8 dXdXdXdXdXdXdXdXdXdXdXdX",
"dXdXdXdXdXdXdXdXdXdXdXdX@ 8 : @ P / U.E.Q.f.x.h.F p R Z.U.E.E.E.S.r I.uXuXaX4XY.U Q.T.J.J 6 n.qXoXE._.E.Q./ P & O.,.@ dXdXdXdXdXdXdXdXdXdXdXdX",
"dXdXdXdXdXdXdXdXdXdXdX@ 0 t @ 8 i R S.Q.E.Q.z D r r / Q.E.E.E.E.S.9 Y Q.].$X'.( Y Q.[ g.m e.N.eXM.K.E.Q.A.R u 9 O.i.0 o dXdXdXdXdXdXdXdXdXdXdX",
"dXdXdXdXdXdXdXdXdXdXdX* P b 9 P G.].Q s A.E.I P p 0 Y E.E.E.E.Q.Z.c / Q.E.E.E.I b ( D N.x O.h.m.3.( A.s Q ].G.P q n P * dXdXdXdXdXdXdXdXdXdXdX",
"dXdXdXdXdXdXdXdXdXdX* r E E r P [.uX;XC.P.[.` i @ 9 ( V.Q.E.E.Z.p.s.} Q.Q._.Q.J H.*XW d.<.t F t.[ `.P.C.;XuX[.P 0 T Y r @ dXdXdXdXdXdXdXdXdXdX",
"dXdXdXdXdXdXdXdXdXdXi m q.7.m ) *XuXuXuXuXuX=X/ 9 ( uX[.G.Q.E.V.O.9X[ Y Z.;X;X:XpXuX X XuX( 9 } =XuXuXuXuXuX*X` r b R n r dXdXdXdXdXdXdXdXdXdX",
"dXdXdXdXdXdXdXdXdXdXP G 9Xb.] Q.tXuXuXuXuXuX;XH.9 T `.uX-X X].R.H.d.E r v T.*X&X$X_.E._.!.T 9 H.;XuXuXuXpXaXuXE.a i P i b dXdXdXdXdXdXdXdXdXdX",
"dXdXdXdXdXdXdXdXdXdXK x v.h.c Q._. X;X4X7X4XH./ r v ` [.3X7X7X7X2X].G.p a A.E.E.E.E.E.Q./ v r / H.4X6X7X5X&X'.E.Y * 8 y P dXdXdXdXdXdXdXdXdXdX",
"dXdXdXdXdXdXdXdXdX@ i y 4 5 s E.E.E.].&X%X/./ R r b R U.`.%X%X%X@XE.K.v v _ U.E.E.E.E.A./ b r R / /.%X%X$XT.Q.).! @ & t i @ dXdXdXdXdXdXdXdXdX",
"dXdXdXdXdXdXdXdXdX* t r r ^ I F.E.E.E.E.E.U.R R 9 0 / A.Q.E.E.E.E.Q.Y x c P F.E.E.E.E.Q./ v 0 R R U.E.E._ q..XF.I ( r w t * dXdXdXdXdXdXdXdXdX",
"dXdXdXdXdXdXdXdXdX; t * b U.S.U._.E.E.E.E.Q./ a & 4 m ` U.L.T.~.2.L F 0.&.j [ R ` G.I T j A & a / Q.E.U.z 9X1XG.S.U.b = t * dXdXdXdXdXdXdXdXdX",
"dXdXdXdXdXdXdXdX  ; w ; P / W.uX;X X].E.E.E.T @ - 8.0.a.G $.a.k.7.B z.z.z.B 7.8.6.$.N w.w.w., @ T T.p.y.k t.r.}.!./ ] q.G *   dXdXdXdXdXdXdXdX",
"dXdXdXdXdXdXdXdX  8 : r R Y ` #XtXuXuX[.Q.A.Y v :  .9.&.l F 9.j.@.l 9.9.&.3 $.a.;.B l 9.9.F : v P ] h.N.i.W #X`./ P B M.{ :   dXdXdXdXdXdXdXdX",
"dXdXdXdXdXdXdXdX  * a H.W E y.7.2.`. X_./ P R R r  .=.=.4  .=.8...3 -.*.*.3 ..6.-.C 4 -.=.C r R P j l.eXwXoXZ.R Y Y b i.z *   dXdXdXdXdXdXdXdX",
"dXdXdXdXdXdXdXdX@ a G.uX[.oX0Xn.>.! J.~.U a R v : o.8.;.N ..0.8.o.k 8.-.8.4 o.8.-...k 8.8.o.: v P t w.v.n.H T R R H.[.yXZ.a o dXdXdXdXdXdXdXdX",
"dXdXdXdXdXdXdXdX* / `.uX=Xc.eXN.t.w g.{ d p T * @ V %. .2 k =.o.N , o.%.%., Z =.C k 2 #.=.V @ * J r D 4.,.q r ` !.;XuXuX`./ * dXdXdXdXdXdXdXdX",
"dXdXdXdXdXdXdX  8 _ _.;XR.r.m.z.4.x N.F K [.[./ 9 . % @   . % % .   % % %   @ % @ .   % % . 9 ' [.*X X:X Xv J =XaXsXaX=X_._ 8   dXdXdXdXdXdXdX",
"dXdXdXdXdXdXdXdXr G.E._.U.` t.e., i 5.E ;X4XL.R a - , , e %                       % 2 , , - a R .X7X6XuX*XJ v W.$X&X#X_.E.K.r dXdXdXdXdXdXdXdX",
"dXdXdXdXdXdXdX  u Q.E.E.E.E.T.` p T Z.Q.$X@XQ./ a e Z N @.l                       l k M C l s / Q.'.&X{.K.J v A.E.E.E.E.E.Q.u   dXdXdXdXdXdXdX",
"dXdXdXdXdXdXdX  0 Q._.E.E.E.E.J.j b E.E.E.E.E.Z.v - X.X.%.B .                     M C @.#., v S.E.E.E.E.W.J : J Q.E.E.E._.Q.0   dXdXdXdXdXdXdX",
"dXdXdXdXdXdXdX  r A.*X].E.E.G.OXq.q A.E.E.E.E.A.P q %.-.8. .%                   @ ..=.=.%.q P G.E.E.E.Y.y.q.E d G.E.E.].*XG.r . dXdXdXdXdXdXdX",
"dXdXdXdXdXdXdX* Y Q.=XtX X=X:XrXl.> S.E.E.E.E.Z.b - %.%.=.o.%                   % %.0.*.#.- G p.T.E.E.} h.qXOX*X=X=X XyX=XQ.Y * dXdXdXdXdXdXdX",
"dXdXdXdXdXdX  8 ) E._.2XaXpXuX8XH 8 ) E._.E.) J ; . X.=.;.%.%                   % ;.a.6.X.+ q.9X2.E._.b e.v.u.tXuXpXaXuX_.E.) :   dXdXdXdXdXdX",
"dXdXdXdXdXdX  r Z.E.E.'.XXXX3X[.^ H.=X;XtX;X!.( g *  .o.7.=.%                   % 6.7.9. .@ O.M.XX-XuXC.x 1./ [.3XXXXX'.E.E.Z.r   dXdXdXdXdXdX",
"dXdXdXdXdXdX  u ) E.E.E.U.G.^.E.Z.*XuXuXuXuXuXuX].s M =.a.6.,                   - 8.&.6.M d _ '.uXuXuXuX X XS.E.^.G.U.E.E.Q.) u   dXdXdXdXdXdX",
"dXdXdXdXdXdX$ 9 # g ~ Q.E.E.E.U.~.4XuXuXuXuXuXuXR.7 3 ;.k.0.1                   2 0.;.-.3 7 W.uXuXuXuXuXuX4X~.U.E.E.E.Q.~ g # 9 $ dXdXdXdXdXdX",
"dXdXdXdXdXdXdXdXdXo @ ~ E.E.U.J W ,X5X4X@X!.!.U./ b < =.j.8.1                   1 8.6.*.< b ` U.!.W.@X4X5X,XW J U.E.E.~ @ o dXdXdXdXdXdXdXdXdX",
"dXdXdXdXdXdXdXdXdXdXdXdXU.U.V.7 b G.`./.W.U.U.Q.A.Y y =.0.-.1                   1 8.8.%.y P Z.Q.U.U.W.`.`.G.b 7 V.U.U.dXdXdXdXdXdXdXdXdXdXdXdX",
"dXdXdXdXdXdXdXdXdXdXdXdXdXdX*   r S.E.E.E.E.E.Q U v n o.8.=.1       dX          1 =.-.C r 9 g ~ E.E.E.E.E.S.r   # dXdXdXdXdXdXdXdXdXdXdXdXdXdX",
"dXdXdXdXdXdXdXdXdXdXdXdXdXdXdXdXo g D.Q.E.Q.S.# O * 8 N -.*.M     dXdXdXdX      N -.=.V * o o @ I Q.E.U.D.s     dXdXdXdXdXdXdXdXdXdXdXdXdXdXdX",
"dXdXdXdXdXdXdXdXdXdXdXdXdXdXdXdXdXdX; g ~ dXdXdXdXdX  l ..X.C         dX      . M V %.V   dX  dXdXdXV.d * @ dXdXdXdXdXdXdXdXdXdXdXdXdXdXdXdXdX",
"dXdXdXdXdXdXdXdXdXdXdXdXdXdXdXdXdXdXdXdXdXdXdXdXdXdX  @ 2 N V     dXdXdXdXdX    @ @ k , dXdXdXdXdXdXdXdXdXdXdXdXdXdXdXdXdXdXdXdXdXdXdXdXdXdXdX",
"dXdXdXdXdXdXdXdXdXdXdXdXdXdXdXdXdXdXdXdXdXdXdXdXdXdXdXdX. dXdXdXdXdXdXdXdXdXdXdXdXdXdXdXdXdXdXdXdXdXdXdXdXdXdXdXdXdXdXdXdXdXdXdXdXdXdXdXdXdXdX",
"dXdXdXdXdXdXdXdXdXdXdXdXdXdXdXdXdXdXdXdXdXdXdXdXdXdXdXdXdXdXdXdXdXdXdXdXdXdXdXdXdXdXdXdXdXdXdXdXdXdXdXdXdXdXdXdXdXdXdXdXdXdXdXdXdXdXdXdXdXdXdX",
"dXdXdXdXdXdXdXdXdXdXdXdXdXdXdXdXdXdXdXdXdXdXdXdXdXdXdXdXdXdXdXdXdXdXdXdXdXdXdXdXdXdXdXdXdXdXdXdXdXdXdXdXdXdXdXdXdXdXdXdXdXdXdXdXdXdXdXdXdXdXdX",
"dXdXdXdXdXdXdXdXdXdXdXdXdXdXdXdXdXdXdXdXdXdXdXdXdXdXdXdXdXdXdXdXdXdXdXdXdXdXdXdXdXdXdXdXdXdXdXdXdXdXdXdXdXdXdXdXdXdXdXdXdXdXdXdXdXdXdXdXdXdXdX",
"dXdXdXdXdXdXdXdXdXdXdXdXdXdXdXdXdXdXdXdXdXdXdXdXdXdXdXdXdXdXdXdXdXdXdXdXdXdXdXdXdXdXdXdXdXdXdXdXdXdXdXdXdXdXdXdXdXdXdXdXdXdXdXdXdXdXdXdXdXdXdX",
"dXdXdXdXdXdXdXdXdXdXdXdXdXdXdXdXdXdXdXdXdXdXdXdXdXdXdXdXdXdXdXdXdXdXdXdXdXdXdXdXdXdXdXdXdXdXdXdXdXdXdXdXdXdXdXdXdXdXdXdXdXdXdXdXdXdXdXdXdXdXdX",
"dXdXdXdXdXdXdXdXdXdXdXdXdXdXdXdXdXdXdXdXdXdXdXdXdXdXdXdXdXdXdXdXdXdXdXdXdXdXdXdXdXdXdXdXdXdXdXdXdXdXdXdXdXdXdXdXdXdXdXdXdXdXdXdXdXdXdXdXdXdXdX",
"dXdXdXdXdXdXdXdXdXdXdXdXdXdXdXdXdXdXdXdXdXdXdXdXdXdXdXdXdXdXdXdXdXdXdXdXdXdXdXdXdXdXdXdXdXdXdXdXdXdXdXdXdXdXdXdXdXdXdXdXdXdXdXdXdXdXdXdXdXdXdX",
"dXdXdXdXdXdXdXdXdXdXdXdXdXdXdXdXdXdXdXdXdXdXdXdXdXdXdXdXdXdXdXdXdXdXdXdXdXdXdXdXdXdXdXdXdXdXdXdXdXdXdXdXdXdXdXdXdXdXdXdXdXdXdXdXdXdXdXdXdXdXdX",
"dXdXdXdXdXdXdXdXdXdXdXdXdXdXdXdXdXdXdXdXdXdXdXdXdXdXdXdXdXdXdXdXdXdXdXdXdXdXdXdXdXdXdXdXdXdXdXdXdXdXdXdXdXdXdXdXdXdXdXdXdXdXdXdXdXdXdXdXdXdXdX",
"dXdXdXdXdXdXdXdXdXdXdXdXdXdXdXdXdXdXdXdXdXdXdXdXdXdXdXdXdXdXdXdXdXdXdXdXdXdXdXdXdXdXdXdXdXdXdXdXdXdXdXdXdXdXdXdXdXdXdXdXdXdXdXdXdXdXdXdXdXdXdX",
"dXdXdXdXdXdXdXdXdXdXdXdXdXdXdXdXdXdXdXdXdXdXdXdXdXdXdXdXdXdXdXdXdXdXdXdXdXdXdXdXdXdXdXdXdXdXdXdXdXdXdXdXdXdXdXdXdXdXdXdXdXdXdXdXdXdXdXdXdXdXdX"
};
