/* XPM */
static const char *left5[] = {
/* columns rows colors chars-per-pixel */
"64 64 196 2 ",
"   c #0E122C",
".  c #13162B",
"X  c #161C2E",
"o  c #191F2E",
"O  c #121227",
"+  c #171F30",
"@  c #0B0F2C",
"#  c #1D242E",
"$  c #172031",
"%  c #192333",
"&  c #1B2C3A",
"*  c #192839",
"=  c #1E323E",
"-  c #21292F",
";  c #212930",
":  c #2B3533",
">  c #2C3B37",
",  c #323D35",
"<  c #303731",
"1  c #2F403B",
"2  c #354235",
"3  c #3D4A37",
"4  c #3F4239",
"5  c #384235",
"6  c #424A38",
"7  c #435339",
"8  c #465A3A",
"9  c #4C5C3B",
"0  c #57593F",
"q  c #4D633B",
"w  c #53633C",
"e  c #5C6C3E",
"r  c #57693D",
"t  c #5E713F",
"y  c #5E793F",
"u  c #63753F",
"i  c #1F3541",
"p  c #1F3A46",
"a  c #213A44",
"s  c #213E48",
"d  c #22424B",
"f  c #26484E",
"g  c #274C51",
"h  c #284F53",
"j  c #295255",
"k  c #2C5B5C",
"l  c #295559",
"z  c #33635E",
"x  c #2E6262",
"c  c #306664",
"v  c #316967",
"b  c #326C69",
"n  c #34726D",
"m  c #3F7E6E",
"M  c #357671",
"N  c #377A73",
"B  c #397C73",
"V  c #367A7E",
"C  c #2E7575",
"Z  c #405C43",
"A  c #5A5C40",
"S  c #4E6B4B",
"D  c #4B6847",
"F  c #5E6041",
"G  c #5E7940",
"H  c #416B59",
"J  c #4E7D5A",
"K  c #46735C",
"L  c #567750",
"P  c #507E5D",
"I  c #627540",
"U  c #667B41",
"Y  c #6B7C41",
"T  c #7B7B48",
"R  c #636542",
"E  c #407F6E",
"W  c #4F7B65",
"Q  c #517161",
"!  c #597D68",
"~  c #417F73",
"^  c #398077",
"/  c #398178",
"(  c #5E8354",
")  c #5B8E5D",
"_  c #56865D",
"`  c #5F905A",
"'  c #6D8D43",
"]  c #6B8A4E",
"[  c #6A8548",
"{  c #778F45",
"}  c #788F44",
"|  c #739444",
" . c #799145",
".. c #749C4C",
"X. c #789E4A",
"o. c #799C46",
"O. c #648954",
"+. c #658D58",
"@. c #659456",
"#. c #6A9653",
"$. c #6E9851",
"%. c #619159",
"&. c #6A935B",
"*. c #6E9A5F",
"=. c #679858",
"-. c #739D5E",
";. c #789F59",
":. c #7DA147",
">. c #7BA148",
",. c #7DA259",
"<. c #4B8566",
"1. c #44826D",
"2. c #4B856C",
"3. c #4F8B6D",
"4. c #528963",
"5. c #598E66",
"6. c #538A6A",
"7. c #5A9066",
"8. c #578C70",
"9. c #5F8D75",
"0. c #448272",
"q. c #629463",
"w. c #6C9E65",
"e. c #679568",
"r. c #749D6E",
"t. c #638E74",
"y. c #679175",
"u. c #6A9770",
"i. c #6FA165",
"p. c #75A462",
"a. c #78A763",
"s. c #79A863",
"d. c #85844B",
"f. c #8E8D4E",
"g. c #918F4E",
"h. c #839C48",
"j. c #93914F",
"k. c #809D50",
"l. c #9C9951",
"z. c #81A346",
"x. c #83A548",
"c. c #8AA349",
"v. c #83A848",
"b. c #8CAA49",
"n. c #91A549",
"m. c #92AD4A",
"M. c #96B14B",
"N. c #9CB44C",
"B. c #9BB94E",
"V. c #85A756",
"C. c #86AB56",
"Z. c #8AAC55",
"A. c #8BAE58",
"S. c #80A458",
"D. c #93AF51",
"F. c #8FB253",
"G. c #93B351",
"H. c #A1B74C",
"J. c #A3B94C",
"K. c #A9BE4D",
"L. c #A7A657",
"P. c #A7BA50",
"I. c #ABBD53",
"U. c #A0B654",
"Y. c #B0BF57",
"T. c #BAB55A",
"R. c #BFBA5B",
"E. c #B0BF58",
"W. c #B0AC57",
"Q. c #8DAB6C",
"!. c #98A862",
"~. c #ABBC6A",
"^. c #B1C057",
"/. c #B4C159",
"(. c #BAC55D",
"). c #BDC760",
"_. c #BFC761",
"`. c #BFC862",
"'. c #C5CB66",
"]. c #C7CC67",
"[. c #C6CC67",
"{. c #C4CB65",
"}. c #C9CD67",
"|. c #CCCF67",
" X c #C8CD68",
".X c #C8CD68",
"XX c #CACE69",
"oX c #C8CD68",
"OX c #C0C869",
"+X c #CED066",
"@X c #3A8487",
"#X c #41999A",
"$X c #43A09F",
"%X c #46A8A6",
"&X c #47ABA9",
"*X c #47ABA9",
/* pixels */
"X X B.B.B.B.B.B.R.R.R.R.R.R.R.s.s.s.s.s.s.s.s.s.s.s.s.s.s.s.s.s.s.s.s.s.s.s.s.s.s.s.s.s.s.s.s.s.s.s.s.s.s.s.s.s.s.s.s.s.s.s.s.s.",
"X X X X X B.B.B.R.R.R.R.B.s.s.s.B.B.B.s.s.s.s.s.s.s.s.s.s.s.s.s.s.s.s.s.s.s.s.s.y.y.y.y.s.s.s.s.s.s.s.s.s.s.s.s.s.s.s.s.s.B.B.B.",
"&XX X X X X X R.R.R.R.B.B.B.B.B.B.B.B.B.B.B.B.s.s.s.s.s.s.s.s.s.s.s.s.s.s.s.s.y.y.y.y.y.y.B.B.B.B.B.B.B.B.y.y.y.y.s.s.s.B.B.B.B.",
"&X&X&XX X X R.R.R.R.R.B.B.B.B.B.B.B.s.s.s.s.s.s.s.s.s.s.s.s.s.s.s.s.s.y.y.y.s.y.y.y.y.y.y.y.y.y.y.y.B.B.y.y.y.y.y.y.y.s.B.B.B.B.",
"&X&XX X R.R.R.R.R.R.B.B.B.B.B.B.B.B.B.B.s.s.s.s.s.s.s.s.s.s.s.s.s.s.y.y.y.y.y.y.y.y.y.y.y.y.y.y.y.y.y.y.y.R.R.R.y.y.y.y.B.B.B.R.",
"&XX X R.R.R.R.R.R.R.B.B.B.B.B.B.B.B.B.B.B.B.s.s.s.s.s.s.s.s.s.s.s.y.y.y.y.y.R.R.R.R.y.y.y.y.R.R.R.R.y.y.R.R.R.R.R.y.y.y.y.R.R.R.",
"X X X R.R.R.R.R.R.R.R.B.R.R.B.B.B.B.B.B.B.B.B.B.B.B.s.s.s.s.s.s.s.y.y.y.R.R.R.R.R.R.R.y.y.R.R.R.R.R.R.R.R.R.R.R.R.R.R.R.R.R.B.B.",
"X X X R.R.R.R.R.R.R.R.R.R.R.R.B.B.B.B.B.B.B.B.B.B.B.s.s.s.s.s.y.y.y.y.R.R.R.R.R.R.R.R.y.R.R.R.R.R.R.R.R.R.R.R.R.R.R.R.R.R.R.B.B.",
"X X X R.R.R.R.R.B.R.R.R.B.B.B.R.B.B.B.B.B.B.B.B.B.B.B.R.R.R.R.R.R.y.R.R.R.R.R.R.R.R.R.R.R.R.R.R.R.R.R.R.R.R.R.R.R.R.R.R.R.R.B.R.",
"X X X X R.R.R.R.B.B.B.B.B.B.B.B.B.B.B.B.B.B.B.B.B.B.R.R.B.B.R.R.R.R.R.R.R.R.R.R.R.R.R.R.R.R.R.R.R.R.R.R.R.R.R.R.R.R.R.R.R.R.R.R.",
"&XX X X X X X X B.B.B.B.B.B.B.B.B.B.B.B.B.B.B.B.B.B.R.B.B.B.B.R.R.R.R.R.R.R.R.B.B.B.R.R.R.R.R.B.B.R.R.R.R.B.B.R.R.R.R.R.R.R.R.R.",
"&XX X X X X X X X B.B.B.B.B.B.B.B.B.B.B.B.B.B.B.B.B.B.B.B.B.B.B.B.B.B.R.R.R.B.B.B.B.B.R.R.B.B.B.B.B.B.R.B.B.B.B.R.R.R.R.R.R.R.R.",
"X X X B.B.B.B.X X X R.R.R.R.R.R.R.R.R.B.B.B.B.B.B.B.B.B.B.B.B.B.B.B.B.B.R.R.B.B.B.B.B.R.B.B.B.B.B.B.B.B.B.B.B.B.R.R.R.R.R.R.R.R.",
"X X B.B.B.B.B.B.R.B.B.B.B.B.B.B.B.B.B.B.B.B.B.B.B.B.B.B.B.B.B.B.B.B.B.B.B.B.B.B.B.B.B.R.B.B.B.B.B.B.B.B.B.B.B.B.R.R.R.R.R.B.B.B.",
"X X B.B.B.B.B.B.B.B.B.B.s.s.s.s.s.s.B.B.B.B.B.B.B.B.B.B.B.B.B.B.B.B.B.B.B.B.B.B.B.B.B.B.B.B.B.B.B.B.B.B.B.B.B.B.B.B.B.B.B.B.B.B.",
"X X B.B.B.B.B.B.B.B.s.s.s.s.s.s.s.s.s.B.s.s.s.s.B.B.B.B.B.B.R.R.R.B.B.B.B.B.B.B.B.B.B.B.B.B.B.B.B.B.B.B.B.B.B.B.B.B.B.B.B.B.B.B.",
"X X X B.B.X X X s.s.s.s.s.s.s.s.s.s.s.s.s.s.s.s.s.B.B.B.R.R.R.R.R.R.B.B.B.B.B.B.B.B.B.B.s.s.s.B.B.B.B.B.B.B.B.B.B.B.B.B.B.B.B.B.",
"X X X X X X X B.B.B.B.s.s.s.s.s.s.s.s.s.s.s.s.s.s.R.R.R.R.R.R.R.R.R.R.R.R.R.s.s.s.B.B.s.s.s.s.s.B.B.B.B.B.B.B.B.B.B.B.B.B.B.B.B.",
"&XX X X X X B.B.B.B.B.B.B.B.B.B.s.s.s.s.s.s.s.s.s.s.s.s.R.R.R.R.R.R.R.R.R.s.s.s.s.s.s.s.B.B.s.s.s.B.B.B.B.B.B.s.s.s.B.B.B.B.B.B.",
"&X&XX X X X B.B.B.B.B.B.B.B.B.B.B.s.s.s.B.B.B.s.s.s.s.s.s.s.R.R.R.s.s.s.s.s.B.B.s.s.s.B.B.B.B.s.s.s.B.B.B.B.s.s.s.s.s.B.B.B.s.s.",
"&X&XX X X X B.B.B.B.B.B.B.B.B.B.B.s.s.B.B.B.Z.B N N N N 5.B.B.B.B.B.7.N N N N N C.G.B.B.G.G.G.G.B.B.B.B.B.s.s.s.s.s.s.s.s.s.s.s.",
"&XX X X s.X X B.B.B.y.y.y.B.B.B.B.B.G.G.G.Z.B N 1.1.1.B N q.B.F.G.q.N N B 1.1.1.B B Z.Z.B B N 1.p.B.B.B.B.s.s.s.s.s.s.s.s.s.s.s.",
"X X X s.s.y.X X B.y.y.y.B.B.B.B.B.F.1.N N N N 6.N.N.H.V.B 7.w.N N N N B V.H.N.N.6.N N N N 1.1.1.1.p.B.B.s.s.s.s.B.B.B.s.s.s.s.s.",
"X X s.s.s.y.y.y.y.y.y.B.B.B.B.y.t.B N 1.1.1.1.N.H.H.H.J.,.N N N N N 1.V.J.P.P.H.N.6.N N 6.N.J.C.N 1.i.w.p.s.s.B.B.B.B.B.B.B.B.B.",
"X X s.s.s.s.y.y.y.y.y.y.B.B.y.y.~ N 2.G.H.M.5.Z.H.H.H.J.,.M 0.8.8.~ q.N.H.).}.I.H.N.6.E N.H.H.Z.2.1.N N 3.w.w.G.B.B.B.B.B.B.B.B.",
"X X s.s.s.s.s.s.y.X y.y.y.y.9.!.2.N D.J.H.H.G.1.H.I.P.J.,.C r.+X|.Q.B ,.J.).}.].I.H.N.e.I.I.P.H.J.S.M N N N N q.G.B.B.B.B.B.B.B.",
"X X X s.s.s.s.s.X X R.R.R.W.6.N N N ;.N.H.H.M.q.E. X{.U.q.~ Q.}.].+Xu.;.I.{.}.].].J.I.}. X X{.I.J.,.B 5.5.5.1.N e.s.s.s.s.B.B.B.",
"&XX X X X X X X X R.R.R.R.e.N 6.5.B N G.I.I.I.K.].].}.~.y.Q.|.].].}.Q.Z.(. X].].]./.'.].].].}.).J.Z.;.J.J.J.,.1.6.p.s.s.s.s.s.s.",
"&X&XX X X X X X X R.s.s.O.W 6.D.J.*.B *.{. X'./.].].].}.|.}.].].].].}.(._.].].].]. X].].].].}.).H.J.J.H.H.H.J.q.N !.R.R.R.R.R.R.",
"&XX X X B.B.R.X X s.s.+.> p k.K.J.J.-.r.OX].]. X].].].].].].}.].].].}. X].].]. X].].].].].].'.^.H.H.H.H.H.H.J.q.N !.R.R.R.R.R.R.",
"&XX X B.B.B.B.B.X B.o.2 X . 6 r n.J.J././.]. X X X].].]. X{.(. X]. X(.{.}.].].(.'. X X X X'.^.H.H.J.K.K.J.J.A.H P F.B.B.B.B.B.B.",
"&XX X B.B.B.B.B.B.o., . 2 q 8 w n.J.H.H.H././././. X X{./.I.P.). X).J.I.{.].].(./././././.Y.H.J.K.c.w w } A.H & 3 c.B.B.B.B.B.B.",
"&XX X B.B.B.B.B.B.I . 2 ' x.b.J.J.H.J.H.b.N.H.H.J././.I.N.H.H.P./.P.N.I.{.].]. X(./.H.H.H.H.J.c.9 5 @   < K d . X 3 c.B.B.B.B.R.",
"&XX X B.B.B.h.8 9 , 2 ' :.b.N.H.H.H.b.b.m.H.H.H.H.H.H.H.H.H.H.H.H.H.I.'. X].].]. X].J.H.H.H.J.n.u U Y 7   * Z , . X { B.B.B.R.R.",
"&X&XX X c.7 2 X X . q v.>.M.J.H.H.H.x.m.H.H.H.J.N.b.b.J.H.H.H.H.H.H.(. X].].]. X].Y.H.H.H.H.H.J.J.J.K.n.6 2 | ' : . 4 L.R.R.R.R.",
"&XX X X X X & x x s - y x.x.N.J.H.H.x.b.N.J.N.b.x.:.:.b.H.H.H.H.H.H.P._. X X X^.I.H.H.H.H.H.H.H.H.H.H.K.e 8 x.x.' : X o.R.R.R.R.",
"X X X h.X & b B B n a # y :.x.N.J.b.:.:.x.x.x.:.:.:.:.x.J.H.H.H.J.m.M.P.I.I.I.J.H.H.H.H.H.H.H.H.H.H.H.K.e 8 x.:.v.5 . o.B.B.R.B.",
"X X B.h.X i B N N N n x ( :.:.x.x.:.:.:.:.:.:.z.N.N.N.m.b.H.H.J.m.:.m.H.H.H.H.H.H.N.b.N.H.H.H.H.H.H.J.M.| | :.z.9 # X : c.B.B.B.",
"X X B.h.X i B N N N N N %.:.:.:.:.:.:.M.N.:.z.N.H.H.H.H.m.x.x.x.z.:.z.M.H.H.H.H.H.N.z.x.x.b.H.H.H.M.x.z.:.:.:.) n i X X : c.B.B.",
"X X X h.X i N B k * * D >.:.:.:.:.:.M.H.H.N.N.H.H.H.H.J.M.:.:.>.b.N.b.z.x.N.H.H.H.N.z.z.N.N.H.N.x.z.:.:.:.:.z.4.N n = X X &.s.B.",
"&XX X X X X d k $ X 8 o.:.:.:.:.:.:.N.H.H.H.H.H.H.H.H.H.H.N.m.:.m.J.N.b.:.M.H.H.N.x.z.N.H.H.H.N.:.:.:.:.:.:.:.4.N N n & X &.s.s.",
"&X&XX X X X + % . 3 :.:.:.:.:.:.:.:.z.N.N.H.H.H.H.N.H.H.H.H.H.b.b.H.H.H.x.:.N.N.x.:.z.N.H.H.H.M.:.:.:.>.X.>.) N N N B = X &.s.s.",
"&X#XX X X * * % . 7 :.:.:.o.| ..>.:.:.:.z.N.H.H.N.x.H.H.H.H.J.m.:.m.N.N.x.:.:.:.:.:.:.x.N.N.N.:.:.:.:.%.N B N N N N n & X &.B.B.",
"&X#XX X a M N k $ X 8 | | 3 % c #.:.:.:.:.z.N.N.:.x.N.N.H.H.H.b.:.:.:.:.:.:.:.:.:.:.:.:.:.:.:.:.:.:.:.@.N N N N n n i X ; [ B.B.",
"%XV X & N N N B k % X o o % k N N @.....>.:.:.:.:.:.:.x.N.N.b.:.:.:.:.:.:.:.:.:.:.:.:.:.:.:.:.:.:.:.:.:.%.B N n a X X ; U  .m.B.",
"%XV X & N N N N B l & % . g M N N N N 1.X.:.:.:.:.:.:.:.:.:.:.X.X.:.:.:.:.:.:...>.:.:.:.:.:.:.:.:.:.:.:.:.) N g $ X X R f.j.j.T.",
"$XV + & b B N N N N B j % . g n N N 1.X.:.:.:.:.:.:.:.:.:.:.X.4.4.X.:.:.:...$.E ..:.:.:.>...:.:.:.:.:.:.X.4.N B g + X X T j.l.T.",
"@XX X X & x v B N N N B j = = c N N ..:.:.:.:.>.$.:.:.:.:.X.) <.B 4.$.#.#.1.N 1.X.:.:.:...1.:.:.:.:.:.z.` N N N B g % X T j.W.B.",
"X X X X X X & v N N N N N B B N N N %.:.:.:.>.%.1.:.:.:.z.%.4.z.@.<.B 1.<.B N ..:.:.:.:...1.:.:.:.:.z.>.J b N N N B i X T  .{ b.",
"X X X T X X % j B N N N N N N N N N N ` @.@.X.<.1.:.:.:.X.4.4.:.:.z.%.$.z.) B ) >.:.:.@.` m #.:.z...=.J p f B N N B i X U  .{ Q ",
"X X j.T X * j B N N B B N N N N N N N N N 4.>...m #.z.X.4.M _ z.:.:.:.#.X.z.1.N ) %.` N N N m %.%.J l p . g B N B x & X U  .{ ! ",
"X X j.T X a / N B v h c N N N N N N N N B >.:...N m %.4.N N 1.$.:.:.z.<.4.%.E N N N N N N N N N N x d d = i b ^ x * X 4 d.Q Q t.",
"X X j.T X * k ^ b i O g B N N N N N N N N ) X.) N N N N N N N 1...z.#.1.N N N N N N N N N N N N N N B / j . i j & X 6 d.j.j.L.R.",
"X X j.d.3 X * g i . = c N N N N N N N N N N 4.N N N N N N N N N 1.) 1.N N N N N N N N N N N B N N N B v = X X X 4 0 d.j.g.g.T.R.",
"X X X } { 3 X . X X g / N N N N B N N N N N N N N N N N N N N N N N N N N N N N N N N N N n j B N B v = . , F A d. .} { g.L.R.R.",
"&XX X X X [ w w w 2 & x B B B B h b N N N N N N N N N B B N N N N B l x N N N N N N N N N b % h B b = X X 0 l.j. .{ { { c.R.R.R.",
"&X&XX X X X  . .o.9 X & s s s s % v B N N N N N N B b a j B B B B k % k B N N N N N N B n a X % s = X , r U  .{ { { c.b.B.B.B.B.",
"&XX X X B.B.&.( ( L > X X X X X X = n N N N N N B b = . * a a a a * X & v B N N N N M a = X X X X : e U  . .{ { { c.B.B.B.B.B.B.",
"&XX X B.B.B.B.m.c.( L D S S S t t t O.O.N N N n i & X X X X X X X X X X & i b N N N N z e t t t t U  . .{ { ( &.-.B.B.B.B.B.B.B.",
"X X R.B.B.B.B.B.B.M.c.} ( ( O. . . .} } _ ] ] ] u u I S S S S I I I I S S u > b N N O.]  . .o.M.b.{ { { { &.p.p.s.s.B.B.B.B.B.B.",
"X B.B.B.B.B.B.B.B.B.M.M.h.{ { { { { { { } }  .m. . . . . . . . . . . . . . .Y [ ] ] { } { { ( &.s.c.{ h.p.p.s.s.s.s.B.B.B.B.B.B.",
"X B.B.B.B.B.B.B.B.B.B.R.T.T.T.l.j. . .{ {  .M.M.{ { { { {  .{ { { { { { { {  . .} } { { { ( ( +.s.s.p.p.s.s.s.s.s.s.B.B.B.B.B.B.",
"X B.B.B.B.B.B.B.B.B.R.R.R.R.R.T.T.T.T.o. .M.B.M.} { { ( +.*.( { { { { { {  .m.M.o. . . .O.p.p.p.s.s.s.s.s.s.s.s.s.s.s.s.s.B.B.B.",
"X B.B.B.B.B.B.B.B.B.R.R.R.R.R.R.s.s.s.p.B.B.s.p.( ( ( +.-.( ( ( ( { { ( ( -.s.B.B.B.B.p.p.s.s.s.s.s.s.s.s.s.s.s.s.s.s.s.s.s.s.s."
};
