/* XPM */
static const char *left1[] = {
/* columns rows colors chars-per-pixel */
"64 64 184 2 ",
"   c #0D112C",
".  c #13162B",
"X  c #161C2E",
"o  c #191F2E",
"O  c #121227",
"+  c #171E30",
"@  c #1C232E",
"#  c #172031",
"$  c #182333",
"%  c #1A2837",
"&  c #1C2C3A",
"*  c #1E323E",
"=  c #21292F",
"-  c #242C33",
";  c #2E3B34",
":  c #2C3634",
">  c #333E35",
",  c #2F403B",
"<  c #364236",
"1  c #3C4B37",
"2  c #3B4437",
"3  c #434739",
"4  c #405238",
"5  c #49563A",
"6  c #465A3A",
"7  c #4C5C3B",
"8  c #4C613B",
"9  c #53633C",
"0  c #5B6D3E",
"q  c #5E713F",
"w  c #5E793F",
"e  c #63743F",
"r  c #1F3541",
"t  c #213B45",
"y  c #213E48",
"u  c #26484E",
"i  c #24434A",
"p  c #274D52",
"a  c #284E53",
"s  c #295256",
"d  c #2B5759",
"f  c #2C5B5C",
"g  c #3E5543",
"h  c #33635E",
"j  c #2A5E61",
"k  c #2E6161",
"l  c #2F6868",
"z  c #306764",
"x  c #316966",
"c  c #326C69",
"v  c #34726D",
"b  c #3E7E6F",
"n  c #347772",
"m  c #377A73",
"M  c #397C73",
"N  c #367A7E",
"B  c #2E7575",
"V  c #4C684A",
"C  c #4B6847",
"Z  c #5E7940",
"A  c #49775A",
"S  c #567750",
"D  c #626342",
"F  c #657A41",
"G  c #6A7C41",
"H  c #7B7B49",
"J  c #407B69",
"K  c #517261",
"L  c #597D68",
"P  c #407F72",
"I  c #398178",
"U  c #398077",
"Y  c #5E8354",
"T  c #578C5F",
"R  c #5B8E5C",
"E  c #57815A",
"W  c #5F905A",
"Q  c #6D8242",
"!  c #6E8D43",
"~  c #6B8B4D",
"^  c #67864D",
"/  c #778E45",
"(  c #788F44",
")  c #739445",
"_  c #799145",
"`  c #749C4C",
"'  c #799F4A",
"]  c #799C46",
"[  c #648954",
"{  c #668D59",
"}  c #669455",
"|  c #699654",
" . c #6E9950",
".. c #629259",
"X. c #6A935B",
"o. c #6D995F",
"O. c #729C5D",
"+. c #7B9850",
"@. c #7DA147",
"#. c #7CA148",
"$. c #7BA15A",
"%. c #4D8665",
"&. c #44826D",
"*. c #49856D",
"=. c #4E8A6C",
"-. c #528963",
";. c #588D67",
":. c #538B69",
">. c #56896E",
",. c #5C9165",
"<. c #5F9669",
"1. c #458272",
"2. c #578C70",
"3. c #5D8C75",
"4. c #629463",
"5. c #689661",
"6. c #6C9C63",
"7. c #68956C",
"8. c #719B6F",
"9. c #628E74",
"0. c #679175",
"q. c #6FA166",
"w. c #75A462",
"e. c #78A763",
"r. c #79A863",
"t. c #89884C",
"y. c #918F4E",
"u. c #829C48",
"i. c #93914F",
"p. c #9D9A51",
"a. c #81A346",
"s. c #84A548",
"d. c #8AA349",
"f. c #83A949",
"g. c #8CAA49",
"h. c #90A448",
"j. c #92AD4A",
"k. c #96B14B",
"l. c #9CB44C",
"z. c #9BB94E",
"x. c #84A657",
"c. c #86AB56",
"v. c #8BAD54",
"b. c #83A658",
"n. c #91AE52",
"m. c #8FB252",
"M. c #93B351",
"N. c #A1B74C",
"B. c #A3B94C",
"V. c #A5A254",
"C. c #B0AC57",
"Z. c #A7BA50",
"A. c #ABBD53",
"S. c #A6B459",
"D. c #BAB55A",
"F. c #BFBA5B",
"G. c #8CAA6C",
"H. c #8FA363",
"J. c #91AD6B",
"K. c #AFBE6A",
"L. c #AAC04C",
"P. c #B2C057",
"I. c #B3C159",
"U. c #BAC55D",
"Y. c #BEC761",
"T. c #BEC765",
"R. c #C1C963",
"E. c #C5CB66",
"W. c #C7CC67",
"Q. c #C6CC67",
"!. c #C7CC67",
"~. c #C9CD67",
"^. c #CCCF67",
"/. c #C8CD68",
"(. c #C8CD68",
"). c #CACE69",
"_. c #C8CD68",
"`. c #CED066",
"'. c #3A8487",
"]. c #41999A",
"[. c #43A09F",
"{. c #46A8A6",
"}. c #47ABA9",
"|. c #47ABA9",
/* pixels */
"X X z.z.z.z.z.z.F.F.F.F.F.F.F.r.r.r.r.r.r.r.r.r.r.r.r.r.r.r.r.r.r.r.r.r.r.r.r.r.r.r.r.r.r.r.r.r.r.r.r.r.r.r.r.r.r.r.r.r.r.r.r.r.",
"X X X X X z.z.z.F.F.F.F.z.r.r.r.z.z.z.r.r.r.r.r.r.r.r.r.r.r.r.r.r.r.r.r.r.r.r.r.0.0.0.0.r.r.r.r.r.r.r.r.r.r.r.r.r.r.r.r.r.z.z.z.",
"}.X X X X X X F.F.F.F.z.z.z.z.z.z.z.z.z.z.z.z.r.r.r.r.r.r.r.r.r.r.r.r.r.r.r.r.0.0.0.0.0.0.z.z.z.z.z.z.z.z.0.0.0.0.r.r.r.z.z.z.z.",
"}.}.}.X X X F.F.F.F.F.z.z.z.z.z.z.z.r.r.r.r.r.r.r.r.r.r.r.r.r.r.r.r.r.0.0.0.r.0.0.0.0.0.0.0.0.0.0.0.z.z.0.0.0.0.0.0.0.r.z.z.z.z.",
"}.}.X X F.F.F.F.F.F.z.z.z.z.z.z.z.z.z.z.r.r.r.r.r.r.r.r.r.r.r.r.r.r.0.0.0.0.0.0.0.0.0.0.0.0.0.0.0.0.0.0.0.F.F.F.0.0.0.0.z.z.z.F.",
"}.X X F.F.F.F.F.F.F.z.z.z.z.z.z.z.z.z.z.z.z.r.r.r.r.r.r.r.r.r.r.r.0.0.0.0.0.F.F.F.F.0.0.0.0.F.F.F.F.0.0.F.F.F.F.F.0.0.0.0.F.F.F.",
"X X X F.F.F.F.F.F.F.F.z.F.F.z.z.z.z.z.z.z.z.z.z.z.z.r.r.r.r.r.r.r.0.0.0.F.F.F.F.F.F.F.0.0.F.F.F.F.F.F.F.F.F.F.F.F.F.F.F.F.F.z.z.",
"X X X F.F.F.F.F.F.F.F.F.F.F.F.z.z.z.z.z.z.z.z.z.z.z.r.r.r.r.r.0.0.0.0.F.F.F.F.F.F.F.F.0.F.F.F.F.F.F.F.F.F.F.F.F.F.F.F.F.F.F.z.z.",
"X X X F.F.F.F.F.z.F.F.F.z.z.z.F.z.z.z.z.z.z.z.z.z.z.z.F.F.F.F.F.F.0.F.F.F.F.F.F.F.F.F.F.F.F.F.F.F.F.F.F.F.F.F.F.F.F.F.F.F.F.z.F.",
"X X X X F.F.F.F.z.z.z.z.z.z.z.z.z.z.z.z.z.z.z.z.z.z.F.F.z.z.F.F.F.F.F.F.F.F.F.F.F.F.F.F.F.F.F.F.F.F.F.F.F.F.F.F.F.F.F.F.F.F.F.F.",
"}.X X X X X X X z.z.z.z.z.z.z.z.z.z.z.z.z.z.z.z.z.z.F.z.z.z.z.F.F.F.F.F.F.F.F.z.z.z.F.F.F.F.F.z.z.F.F.F.F.z.z.F.F.F.F.F.F.F.F.F.",
"}.X X X X X X X X z.z.z.z.z.z.z.z.z.z.z.z.z.z.z.z.z.z.z.z.z.z.z.z.z.z.F.F.F.z.z.z.z.z.F.F.z.z.z.z.z.z.F.z.z.z.z.F.F.F.F.F.F.F.F.",
"X X X z.z.z.z.X X X F.F.F.F.F.F.F.F.F.z.z.z.z.z.z.z.z.z.z.z.z.z.z.z.z.z.F.F.z.z.z.z.z.F.z.z.z.z.z.z.z.z.z.z.z.z.F.F.F.F.F.F.F.F.",
"X X z.z.z.z.z.z.F.z.z.z.z.z.z.z.z.z.z.z.z.z.z.z.z.z.z.z.z.z.z.z.z.z.z.z.z.z.z.z.z.z.z.F.z.z.z.z.z.z.z.z.z.z.z.z.F.F.F.F.F.z.z.z.",
"X X z.z.z.z.z.z.z.z.z.z.r.r.r.r.r.r.z.z.z.z.z.z.z.z.z.z.z.z.z.z.z.z.z.z.z.z.z.z.z.z.z.z.z.z.z.z.z.z.z.z.z.z.z.z.z.z.z.z.z.z.z.z.",
"X X z.z.z.z.z.z.z.z.r.r.r.r.r.r.r.r.r.z.r.r.r.r.z.z.z.z.z.z.F.F.F.z.z.z.z.z.z.z.z.z.z.z.z.z.z.z.z.z.z.z.z.z.z.z.z.z.z.z.z.z.z.z.",
"X X X z.z.X X X r.r.r.r.r.r.r.r.r.r.r.r.r.r.r.r.r.z.z.z.F.F.F.F.F.F.z.z.z.z.z.z.z.z.z.z.r.r.r.z.z.z.z.z.z.z.z.z.z.z.z.z.z.z.z.z.",
"X X X X X X X z.z.z.z.r.r.r.r.r.r.r.r.r.r.r.r.r.r.F.F.F.F.F.F.F.F.F.F.F.F.F.r.r.r.z.z.r.r.r.r.r.z.z.z.z.z.z.z.z.z.z.z.z.z.z.z.z.",
"}.X X X X X z.z.z.z.z.z.z.z.z.z.r.r.r.r.r.r.r.r.r.r.r.r.F.F.F.F.F.F.F.F.F.r.r.r.r.r.r.r.z.z.r.r.r.z.z.z.z.z.z.r.r.r.z.z.z.z.z.z.",
"}.}.X X X X z.z.z.z.z.z.z.z.z.z.z.r.r.r.z.z.z.r.r.r.r.r.r.r.F.F.F.r.r.r.r.r.z.z.r.r.r.z.z.z.z.r.r.r.z.z.z.z.r.r.r.r.r.z.z.z.r.r.",
"}.}.X X X X z.z.z.z.z.z.z.z.z.z.z.r.r.z.z.z.v.M m m m m ;.z.z.z.z.z.,.m m m m m c.M.z.z.M.M.M.M.z.z.z.z.z.r.r.r.r.r.r.r.r.r.r.r.",
"}.X X X r.X X z.z.z.0.0.0.z.z.z.z.z.M.m.M.v.M m &.&.&.M m 4.z.m.M.,.m m P *.&.&.M M v.v.M M m *.w.z.z.z.z.r.r.r.r.r.r.r.r.r.r.r.",
"X X X r.r.0.X X z.0.0.0.z.z.z.z.z.m.*.m m m m :.l.l.N.x.M ,.6.m m m m M x.N.l.l.:.m m m m *.*.&.*.w.z.z.r.r.r.r.z.z.z.r.r.r.r.r.",
"X X r.r.r.0.0.0.0.0.0.z.z.z.z.0.9.M m *.*.*.&.l.N.N.N.B.$.n m m m m P x.B.Z.Z.N.l.:.m m :.l.N.c.m *.q.6.w.r.r.z.z.z.z.z.z.z.z.z.",
"X X r.r.r.r.0.0.0.0.0.0.z.z.0.9.P m *.M.N.k.*.l.N.N.N.l.o.P 2.2.1.n $.B.B.R.~.Z.N.l.M b l.N.B.v.*.m m m =.6.w.z.z.z.z.z.z.z.z.z.",
"X X r.r.r.r.r.r.0.X 0.0.0.3.3.>.m m n.N.N.k.*.l.A.Z.B.x.B 8.`.^.J.P O.B.U./.W.A.N.l.7.7.A.Z.N.B.x.m m m m m 4.M.z.z.z.z.z.z.z.z.",
"X X X r.r.r.r.r.X X F.F.S.>.m m m m n.N.N.k.4.A.~.R.Z.5.M G.~.W.`.8.O.A.R.~.W.W.Z.A.~.~./.R.A.B.b.M ;.;.;.*.m <.r.r.r.r.r.z.z.z.",
"}.X X X X X X X X F.F.F.7.m =.,.M m n.A.A.A.B.W.W.~.K.0.G.^.W.W.~.G.x.U./.W.W.W.I.Q.W.W.W.W.R.B.v.O.B.B.B.b.*.=.w.r.r.r.r.r.r.r.",
"}.}.X X X X X X X F.r.[ J :.n.B.O.M 5.T./.W.I.W.W.W.~.^.~.W.W.W.W.~.U.Y.W.W.W.W./.W.W.W.W.~.R.N.N.B.N.N.N.B.5.n H.F.F.F.F.F.F.F.",
"}.X X X z.z.F.X X r.{ ; r +.L.N.B.O.8.T.~.W./.W.W.W.W.W.W./.W.W.W.~./.W.W.W./.W.W.W.W.W.~.Q.I.N.N.N.N.N.N.B.5.n H.F.F.F.F.F.F.F.",
"}.X X z.z.z.z.z.X u.< X . 3 0 d.N.B.I.I.W./././.W.W.W./.R.U./.W./.Y.R./.W.W.U.Q././././.W.I.N.N.N.B.B.B.B.v.=.:.v.z.z.z.z.z.z.z.",
"}.X X z.z.z.z.z.u.< . > 8 6 9 d.N.N.N.N.I.I.I.I././.R.I.A.B.Y./.Y.Z.A.R.W.W.U.I.I.I.I.I.P.N.N.Z.h.9 9 ( v.=.j ~ z.z.z.z.z.z.z.z.",
"}.X X z.z.z.z.z.F X > ! f.g.N.N.N.N.N.g.l.N.N.N.P.I.A.l.N.N.Z.I.Z.l.A.R.W.W./.U.I.N.N.N.N.N.h.7 2     : A k & > u.z.z.z.z.z.z.F.",
"}.X X z.z.u.5 7 < . 6 f.#.j.N.N.N.g.g.j.N.N.N.N.N.N.N.N.N.N.N.N.N.N.U./.W.W.W././.B.N.N.N.N.j.e G G 5   & & . X < u.z.z.z.z.F.F.",
"}.}.X X d.< X X X . 8 f.#.k.N.N.N.k.a.l.N.N.N.N.l.g.j.N.N.N.N.N.N.N.U./.W.W.W.W.I.N.N.N.N.N.N.B.B.B.j.5 . 2 Z ; . > V.F.F.F.F.F.",
"}.X X X X X & k k y = Z f.f.l.N.N.N.s.s.N.N.l.g.s.#.#.g.N.N.N.N.N.N.Z.Y./.~.~.P.N.N.N.N.N.N.N.N.N.N.B.G   8 f.! ; . > d.F.F.F.F.",
"X X X u.X & c M M v t @ w @.f.l.N.g.#.#.s.s.s.#.#.#.#.s.N.N.N.N.N.j.k.Z.A.A.A.N.N.N.N.N.N.N.N.N.N.N.B.e < ) #.a.! ; X _ z.z.F.z.",
"X X z.u.X r M m m M v k Y a.#.f.s.#.#.#.#.#.#.a.l.l.l.j.g.N.N.N.j.#.j.N.N.N.N.N.N.l.g.N.N.N.N.N.N.N.N.d.) #.#.#.f.< X _ z.z.z.z.",
"X X z.u.X r M m m m m m ..#.#.#.#.#.#.k.l.a.a.l.N.N.N.N.j.f.s.s.a.#.a.k.N.N.N.N.N.l.a.f.s.g.N.N.N.N.k.a.#.#.#.@.6 @ X : d.z.z.z.",
"X X X u.X r m M d % % C #.#.#.#.#.#.k.N.N.l.l.N.N.N.N.N.k.#.#.#.g.l.g.a.f.l.N.N.N.l.a.a.l.l.N.l.a.a.a.#.#.#.#.R v r X X - o.r.z.",
"}.X X X X X i f # X 6 ] #.#.#.#.#.#.l.N.N.N.N.N.N.N.N.N.N.l.j.#.j.N.N.g.#.k.N.N.l.s.a.l.N.N.N.l.#.#.#.#.#.#.a.-.m v r X X X.r.r.",
"}.}.X X X X + $ . 1 #.#.#.#.#.#.#.#.a.l.l.N.N.N.N.l.N.N.N.N.N.g.g.N.N.N.s.#.l.l.s.#.a.l.N.N.N.k.#.#.#.#.#.#.#.-.m m n & X X.r.r.",
"}.].X X X % % $ . 1 #.#.#.] ) ` #.#.#.#.a.l.N.N.l.s.N.N.N.N.N.j.#.j.l.l.s.#.#.#.#.#.#.f.l.l.l.#.#.#.#.#.' ' T m m m M * X X.z.z.",
"}.].X X t n m f # X 6 ) ) 1 $ z | #.#.#.#.a.l.l.#.s.l.l.N.N.N.g.#.#.#.#.#.#.#.#.#.#.#.#.#.#.#.#.#.#.#...m M m m m m v & X Q z.z.",
"{.N X & m m m M d $ X o o $ f m m | ` ` #.#.#.#.#.#.#.s.l.l.g.#.#.#.#.#.#.#.#.#.#.#.#.#.#.#.#.#.#.#.#.} M m m m v c * X = Q j.z.",
"{.N X & m m m m M d & $ . p n m m m m &.' #.#.#.#.#.#.#.#.#.#.#.#.#.#.#.#.#.#.` #.#.#.#.#.#.#.#.#.#.#.#...M m v r X X - H i.i.D.",
"[.N + & c M m m m m M s $ . p v m m &.' #.#.#.#.#.#.#.#.#.#.#.` ' #.#.#.#.#.` P ` #.#.#.#.` #.#.#.#.#.#.a.R m a $ X X D y.i.p.D.",
"'.X X X & k x M m m m M s * * z M m ` #.#.#.#.#. .#.#.#.#.#.' %.%.' #.#.#.` &.&.' #.#.#.` &.#.#.#.#.#.#.' -.m M a $ X X H i.C.z.",
"X X X X X X & x m m m m m M M m m m ..#.#.#.#...&.#.#.#.#.' R %.b -.| } } &.m ` #.#.#.#.` &.#.#.#.#.#.a.W m m m M p $ X H _ ( g.",
"X X X H X X $ s M m m m m m m m m m m W } } ' %.&.#.#.#.a...-.a.} %.b &.%.M m R #.#.#.} W b | #.#.#.a.` A x M m m M r X F _ ( K ",
"X X i.H X % s M m m M M m m m m m m m m m -.#.` b | a.a.' %.-.#.#.a...` a.R M m R ..W m m m b ......} A r u M m m M r X F _ ( L ",
"X X i.H X r I m M x a z m m m m m m m m M #.#.` m b W ..-.n T a.#.#.a.| ` a.&.m m m m m m m m m m c a r . a M m M k & X H K K 9.",
"X X i.H X % f U c r O p M m m m m m m m m R ' T m m m m m m &. .#.#.a.%.%.R b m m m m m m m m m m x i u * * x I j % X 3 t.i.V.F.",
"X X i.t.1 X % p r . * z m m m m m m m m m m -.m m m m m m m m &. .a.| &.m m m m m m m m m m M m m m M I s . * p & X 3 t.i.y.D.F.",
"X X X ( / 1 X X X X p I m m m m M m m m m m m m m m m m m m m m &.T &.m m m m m m m m m m v s M m m M z * X X X 3 7 Q _ y.V.F.F.",
"}.X X X X Q 9 9 9 < & k M M M M a c m m m m m m m m m M m m m m m m m m m m m m m m m m m c $ a M M x & X 2 D D Q _ ( ( d.F.F.F.",
"}.}.X X X X _ _ _ 7 X & y y y y $ x M m m m m m m M c a M m m m m M s k m m m m m m m M v t X $ y y & X X 7 _ _ _ ( d.g.z.z.z.z.",
"}.X X X z.z.X.Y Y S ; X X X X X X * v m m m m m M c & $ a M M M M d $ f M m m m m m n t * X X X X X X > 0 G _ ( ( d.z.z.z.z.z.z.",
"}.X X z.z.z.z.j.d.Y S V V V V q q q ^ [ m m m v r & X X $ r r r r % X & z M m m m m m h 0 q q q q q q G _ _ Y X.O.z.z.z.z.z.z.z.",
"X X F.z.z.z.z.z.z.k.d._ Y Y Y _ _ _ ( ( E ~ ~ ^ e e F g X X X X X X X X & * * c m m [ ~ _ _ _ k.g._ _ _ ( X.w.w.r.r.z.z.z.z.z.z.",
"X z.z.z.z.z.z.z.z.z.l.k.u.( ( ( ( ( ( ( ( ( _ j._ _ _ / F F F F F F F F F F F ~ ~ ~ ( ( ( ( Y X.r.d.( u.w.w.r.r.r.r.z.z.z.z.z.z.",
"X z.z.z.z.z.z.z.z.z.z.F.D.D.D.p.i._ _ ( ( _ k.k.( ( ( ( _ _ _ _ _ _ _ _ _ _ _ _ ( ( ( ( ( Y Y { r.r.w.w.r.r.r.r.r.r.z.z.z.z.z.z.",
"X z.z.z.z.z.z.z.z.z.F.F.F.F.F.D.D.D.D._ _ k.z.k.( ( ( Y { o.Y ( ( ( ( ( ( _ j.l._ _ _ _ [ w.w.w.r.r.r.r.r.r.r.r.r.r.r.r.r.z.z.z.",
"X z.z.z.z.z.z.z.z.z.F.F.F.F.F.F.r.r.r.w.z.z.r.w.Y Y Y { O.Y Y Y Y ( ( Y Y O.r.z.z.z.z.w.w.r.r.r.r.r.r.r.r.r.r.r.r.r.r.r.r.r.r.r."
};
