/* XPM */
static const char *left4[] = {
/* columns rows colors chars-per-pixel */
"64 64 193 2 ",
"   c #0D112C",
".  c #12152B",
"X  c #161C2E",
"o  c #181E2E",
"O  c #171F30",
"+  c #1A212F",
"@  c #172031",
"#  c #182333",
"$  c #1B2835",
"%  c #1C2C3A",
"&  c #1E323E",
"*  c #222A2E",
"=  c #212930",
"-  c #2B3533",
";  c #2E3B34",
":  c #2E3E3A",
">  c #313C35",
",  c #364236",
"<  c #394535",
"1  c #3E4138",
"2  c #3A4839",
"3  c #3E5038",
"4  c #415438",
"5  c #4A5B3A",
"6  c #495839",
"7  c #4B4E3C",
"8  c #4A603B",
"9  c #53633C",
"0  c #5A6A3D",
"q  c #5E723F",
"w  c #64773F",
"e  c #1E3541",
"r  c #1F3845",
"t  c #213B44",
"y  c #223F48",
"u  c #26484E",
"i  c #23424A",
"p  c #3C5242",
"a  c #274C52",
"s  c #284F53",
"d  c #295255",
"f  c #2C5C5D",
"g  c #2A5658",
"h  c #33635E",
"j  c #2A5D61",
"k  c #2E6262",
"l  c #2F6868",
"z  c #306664",
"x  c #316966",
"c  c #326C69",
"v  c #34726D",
"b  c #3E7E6E",
"n  c #357772",
"m  c #377A73",
"M  c #397C74",
"N  c #367A7E",
"B  c #2D7475",
"V  c #455345",
"C  c #4A6649",
"Z  c #4E6B4C",
"A  c #4A6846",
"S  c #54734F",
"D  c #4B7B5B",
"F  c #49735A",
"G  c #4E7455",
"H  c #646542",
"J  c #657A40",
"K  c #6A7C41",
"L  c #607340",
"P  c #7B7B48",
"I  c #407F6D",
"U  c #4E7F62",
"Y  c #517161",
"T  c #567D67",
"R  c #407F71",
"E  c #3A8178",
"W  c #398077",
"Q  c #5E8354",
"!  c #568C5F",
"~  c #5B8E5C",
"^  c #55805C",
"/  c #5E905A",
"(  c #6D8343",
")  c #6B8B4D",
"_  c #698946",
"`  c #778E45",
"'  c #788E44",
"]  c #799145",
"[  c #769845",
"{  c #7A9D46",
"}  c #749C4D",
"|  c #789E4A",
" . c #719244",
".. c #608555",
"X. c #658953",
"o. c #668D59",
"O. c #669456",
"+. c #699654",
"@. c #6E9951",
"#. c #629258",
"$. c #6A935B",
"%. c #6E9A5F",
"&. c #729D5E",
"*. c #789F59",
"=. c #7DA147",
"-. c #7CA148",
";. c #7CA259",
":. c #4E8765",
">. c #44816D",
",. c #4A856D",
"<. c #4D886C",
"1. c #4F8864",
"2. c #538A62",
"3. c #598D67",
"4. c #528B6B",
"5. c #5C9165",
"6. c #5F916E",
"7. c #428072",
"8. c #578C70",
"9. c #5F8D75",
"0. c #639463",
"q. c #6B9C64",
"w. c #659667",
"e. c #749D6E",
"r. c #628E74",
"t. c #679175",
"y. c #6A9770",
"u. c #6FA165",
"i. c #76A462",
"p. c #78A763",
"a. c #79A863",
"s. c #86854B",
"d. c #8E8D4E",
"f. c #918F4E",
"g. c #839C48",
"h. c #93914F",
"j. c #9D9A51",
"k. c #A09B51",
"l. c #81A346",
"z. c #84A548",
"x. c #89A449",
"c. c #83A848",
"v. c #8CAA49",
"b. c #90A448",
"n. c #92AD4A",
"m. c #96B14B",
"M. c #9CB54C",
"N. c #9BB94E",
"B. c #86AB56",
"V. c #8AAB55",
"C. c #81A458",
"Z. c #82A557",
"A. c #93AF51",
"S. c #8EB153",
"D. c #93B351",
"F. c #A1B74C",
"G. c #A3B94C",
"H. c #A8BB4F",
"J. c #A7A758",
"K. c #A7BA50",
"L. c #ABBD53",
"P. c #A0B654",
"I. c #BAB55A",
"U. c #BFBA5B",
"Y. c #B0BF57",
"T. c #B0AC57",
"R. c #8DAB6C",
"E. c #98A862",
"W. c #ABBC6A",
"Q. c #AAC14D",
"!. c #B1C057",
"~. c #B3C159",
"^. c #BAC55D",
"/. c #BEC761",
"(. c #BFC862",
"). c #C5CB66",
"_. c #C7CC67",
"`. c #C6CC67",
"'. c #C4CB65",
"]. c #C9CD67",
"[. c #CCCF67",
"{. c #C8CD68",
"}. c #C8CD68",
"|. c #CACE69",
" X c #C8CD68",
".X c #C0C869",
"XX c #CED066",
"oX c #3A8487",
"OX c #41999A",
"+X c #43A09F",
"@X c #46A8A6",
"#X c #47ABA9",
"$X c #47ABA9",
/* pixels */
"X X N.N.N.N.N.N.U.U.U.U.U.U.U.a.a.a.a.a.a.a.a.a.a.a.a.a.a.a.a.a.a.a.a.a.a.a.a.a.a.a.a.a.a.a.a.a.a.a.a.a.a.a.a.a.a.a.a.a.a.a.a.a.",
"X X X X X N.N.N.U.U.U.U.N.a.a.a.N.N.N.a.a.a.a.a.a.a.a.a.a.a.a.a.a.a.a.a.a.a.a.a.t.t.t.t.a.a.a.a.a.a.a.a.a.a.a.a.a.a.a.a.a.N.N.N.",
"#XX X X X X X U.U.U.U.N.N.N.N.N.N.N.N.N.N.N.N.a.a.a.a.a.a.a.a.a.a.a.a.a.a.a.a.t.t.t.t.t.t.N.N.N.N.N.N.N.N.t.t.t.t.a.a.a.N.N.N.N.",
"#X#X#XX X X U.U.U.U.U.N.N.N.N.N.N.N.a.a.a.a.a.a.a.a.a.a.a.a.a.a.a.a.a.t.t.t.a.t.t.t.t.t.t.t.t.t.t.t.N.N.t.t.t.t.t.t.t.a.N.N.N.N.",
"#X#XX X U.U.U.U.U.U.N.N.N.N.N.N.N.N.N.N.a.a.a.a.a.a.a.a.a.a.a.a.a.a.t.t.t.t.t.t.t.t.t.t.t.t.t.t.t.t.t.t.t.U.U.U.t.t.t.t.N.N.N.U.",
"#XX X U.U.U.U.U.U.U.N.N.N.N.N.N.N.N.N.N.N.N.a.a.a.a.a.a.a.a.a.a.a.t.t.t.t.t.U.U.U.U.t.t.t.t.U.U.U.U.t.t.U.U.U.U.U.t.t.t.t.U.U.U.",
"X X X U.U.U.U.U.U.U.U.N.U.U.N.N.N.N.N.N.N.N.N.N.N.N.a.a.a.a.a.a.a.t.t.t.U.U.U.U.U.U.U.t.t.U.U.U.U.U.U.U.U.U.U.U.U.U.U.U.U.U.N.N.",
"X X X U.U.U.U.U.U.U.U.U.U.U.U.N.N.N.N.N.N.N.N.N.N.N.a.a.a.a.a.t.t.t.t.U.U.U.U.U.U.U.U.t.U.U.U.U.U.U.U.U.U.U.U.U.U.U.U.U.U.U.N.N.",
"X X X U.U.U.U.U.N.U.U.U.N.N.N.U.N.N.N.N.N.N.N.N.N.N.N.U.U.U.U.U.U.t.U.U.U.U.U.U.U.U.U.U.U.U.U.U.U.U.U.U.U.U.U.U.U.U.U.U.U.U.N.U.",
"X X X X U.U.U.U.N.N.N.N.N.N.N.N.N.N.N.N.N.N.N.N.N.N.U.U.N.N.U.U.U.U.U.U.U.U.U.U.U.U.U.U.U.U.U.U.U.U.U.U.U.U.U.U.U.U.U.U.U.U.U.U.",
"#XX X X X X X X N.N.N.N.N.N.N.N.N.N.N.N.N.N.N.N.N.N.U.N.N.N.N.U.U.U.U.U.U.U.U.N.N.N.U.U.U.U.U.N.N.U.U.U.U.N.N.U.U.U.U.U.U.U.U.U.",
"#XX X X X X X X X N.N.N.N.N.N.N.N.N.N.N.N.N.N.N.N.N.N.N.N.N.N.N.N.N.N.U.U.U.N.N.N.N.N.U.U.N.N.N.N.N.N.U.N.N.N.N.U.U.U.U.U.U.U.U.",
"X X X N.N.N.N.X X X U.U.U.U.U.U.U.U.U.N.N.N.N.N.N.N.N.N.N.N.N.N.N.N.N.N.U.U.N.N.N.N.N.U.N.N.N.N.N.N.N.N.N.N.N.N.U.U.U.U.U.U.U.U.",
"X X N.N.N.N.N.N.U.N.N.N.N.N.N.N.N.N.N.N.N.N.N.N.N.N.N.N.N.N.N.N.N.N.N.N.N.N.N.N.N.N.N.U.N.N.N.N.N.N.N.N.N.N.N.N.U.U.U.U.U.N.N.N.",
"X X N.N.N.N.N.N.N.N.N.N.a.a.a.a.a.a.N.N.N.N.N.N.N.N.N.N.N.N.N.N.N.N.N.N.N.N.N.N.N.N.N.N.N.N.N.N.N.N.N.N.N.N.N.N.N.N.N.N.N.N.N.N.",
"X X N.N.N.N.N.N.N.N.a.a.a.a.a.a.a.a.a.N.a.a.a.a.N.N.N.N.N.N.U.U.U.N.N.N.N.N.N.N.N.N.N.N.N.N.N.N.N.N.N.N.N.N.N.N.N.N.N.N.N.N.N.N.",
"X X X N.N.X X X a.a.a.a.a.a.a.a.a.a.a.a.a.a.a.a.a.N.N.N.U.U.U.U.U.U.N.N.N.N.N.N.N.N.N.N.a.a.a.N.N.N.N.N.N.N.N.N.N.N.N.N.N.N.N.N.",
"X X X X X X X N.N.N.N.a.a.a.a.a.a.a.a.a.a.a.a.a.a.U.U.U.U.U.U.U.U.U.U.U.U.U.a.a.a.N.N.a.a.a.a.a.N.N.N.N.N.N.N.N.N.N.N.N.N.N.N.N.",
"#XX X X X X N.N.N.N.N.N.N.N.N.N.a.a.a.a.a.a.a.a.a.a.a.a.U.U.U.U.U.U.U.U.U.a.a.a.a.a.a.a.N.N.a.a.a.N.N.N.N.N.N.a.a.a.N.N.N.N.N.N.",
"#X#XX X X X N.N.N.N.N.N.N.N.N.N.N.a.a.a.N.N.N.a.a.a.a.a.a.a.U.U.U.a.a.a.a.a.N.N.a.a.a.N.N.N.N.a.a.a.N.N.N.N.a.a.a.a.a.N.N.N.a.a.",
"#X#XX X X X N.N.N.N.N.N.N.N.N.N.N.a.a.N.N.N.N.B.m m m m m 5.N.N.N.N.M.3.m m m m M V.D.N.N.D.D.D.D.N.N.N.N.a.a.a.a.a.a.a.a.a.a.a.",
"#XX X X a.X X N.N.N.t.t.t.N.N.N.N.N.N.D.S.D.B.M m >.>.>.M m 0.N.S.D.5.m m R >.>.>.M >.V.B.M M m ,.D.N.N.N.a.a.a.a.a.a.a.a.a.a.a.",
"X X X a.a.t.X X N.t.t.t.N.N.N.N.N.N.S.>.m m m m ,.M.M.F.C.M 5.q.m m m m R V.M.M.M.<.m m m m >.>.>.,.D.N.a.a.a.a.N.N.N.a.a.a.a.a.",
"X X a.a.a.t.t.t.t.t.t.N.N.N.N.t.t.r.>.m ,.,.,.m 3.F.F.F.G.;.n m m m m >.V.G.G.K.G.M.4.m m 3.M.G.Z.m <.u.q.i.a.N.N.N.N.N.N.N.N.N.",
"X X a.a.a.a.t.t.t.t.t.t.N.N.t.t.r.M m <.m.F.D.,.F.F.F.F.M.0.7.8.8.7.n ;.G.K.'._.K.F.m.M >.M.F.G.V.>.m m m 4.q.D.N.N.N.N.N.N.N.N.",
"X X a.a.a.a.a.a.t.X t.t.t.t.9.E.<.m m D.F.F.D.>.F.L.K.G.;.B e.XX[.R.M ;.G.(.]._.L.F.M.6.w.L.K.F.G.C.n m m m m 0.D.N.N.N.N.N.N.N.",
"X X X a.a.a.a.a.X X U.U.U.J.4.m m m m A.F.F.m.0.Y.{.'.P.0.R R.]._.XXy.*.L.'._._._.G.L.].].{.'.L.G.;.M 3.3.3.>.m w.a.a.a.a.N.N.N.",
"#XX X X X X X X X U.U.U.k.T m 4.3.M m D.L.L.L.H._._.].W.t.R.[._._.].R.V.^.{._._._.~.)._._._.].(.G.V.&.G.G.G.;.>.4.i.a.a.a.a.a.a.",
"#X#XX X X X X X X U.o.S : y U A.G.%.M %.'.{.).~._._._.].[.]._._._._.].^.'.]._._._.{._._._._.].(.F.F.G.F.F.F.G.0.m E.U.U.U.U.U.U.",
"#XX X X N.N.U.X X $., X .   ' Q.G.G.&.e..X_._.{._._._._._.].]._._._.{.{._._._.{._._._._._._.).!.F.F.F.F.F.F.G.0.m E.U.U.U.U.U.U.",
"#XX X N.N.N.N.N.X L . ; 5 5 9 9 b.G.G.~.~._.{.{._._._.{.{.'.^.]._.{.^.'.{._._.^.).{.{.{.{.).!.F.G.H.H.G.G.G.V.,.4.S.N.N.N.N.N.N.",
"#XX X N.N.N.N.N.g., ; _ c.c.J 9 b.G.F.F.F.~.~.~.{.{.'.~.~.L.!.{.(.~.G.^.{._._.G.L.~.~.~.~.Y.G.H.b.9 9 ' V.q.F D S.N.N.N.N.N.N.N.",
"#XX X N.N.N.N.g., . 8 c.-.v.G.H.G.F.G.F.v.M.F.G.!.~.L.M.F.F.K.~.K.M.L.'._._._.^.~.F.F.F.F.F.b.5 <     - F k % < 9 g.N.N.N.N.N.U.",
"#XX X N.N.g.6 , X . 8 c.-.n.G.F.F.F.v.v.n.F.F.F.F.F.F.F.F.F.F.F.F.F.^.{._._._.{.{.G.F.F.F.G.n.w K K 6   % % . . X , z.N.N.N.U.U.",
"#X#XX X x., X & f t * J =.n.G.F.F.F.m.l.M.F.F.G.M.v.v.G.F.F.F.F.F.F.^.{._._._._.~.G.F.F.F.F.G.G.G.H.n.6 . < q q - . h.U.U.U.U.U.",
"#XX X X X X % c M v r * q c.M.F.F.F.G.z.M.G.M.v.z.-.-.v.F.F.F.F.F.F.K.(.{.].].!.F.F.F.F.F.F.F.F.F.F.H.K   8 c.c._ - > z.U.U.U.U.",
"X X X g.X % c M m M c j Q -.c.M.G.F.v.-.z.z.z.-.-.-.-.z.G.F.F.F.G.n.m.K.L.L.L.F.F.F.F.F.F.F.F.F.F.F.H.w ,  .-.-.c., X ] N.N.U.N.",
"X X N.g.X e M m m m m m #.-.-.c.z.z.-.-.-.-.-.l.M.M.M.n.v.F.F.G.n.-.n.F.F.F.F.F.F.M.v.F.F.F.F.F.F.F.G.x. .-.-.l.5 + X - x.N.N.N.",
"X X N.g.X e M M f % % A -.-.-.-.-.-.-.m.M.l.l.M.F.F.G.F.n.c.c.z.l.-.l.m.F.F.F.F.F.M.l.c.z.v.F.F.F.G.m.l.-.-.-.-.D e X X - x.N.N.",
"X X X g.X e M f @ X 4 { -.-.-.-.-.-.m.F.F.M.M.F.F.F.F.G.m.-.-.-.v.M.v.l.c.M.F.F.F.M.l.l.M.M.F.M.l.l.l.-.-.-.-.~ M v & X X $.a.N.",
"#XX X X X O $ @ . 3 { -.-.-.-.-.-.-.M.F.F.F.F.F.F.F.F.F.F.M.n.-.n.G.F.v.-.M.F.F.F.z.l.M.F.F.F.M.-.-.-.-.-.-.l.2.m m v % X $.a.a.",
"#X#XX X X X X @ . 4 -.-.{ [ [ | -.-.l.l.M.M.F.F.F.F.M.F.F.F.F.M.v.n.F.M.M.v.l.M.M.l.-.c.M.F.F.F.n.-.-.-.-.-.-.2.m m M & X $.a.a.",
"#XOXX X X @ t f O X 5 { 4 + $ z @.-.-.-.-.l.M.F.F.m.x.F.F.F.F.G.v.-.n.M.M.z.-.-.-.-.-.-.c.M.M.m.-.-.-.-.| | ! m m m n % X $.N.N.",
"#XOXX X t n n m g O o + o @ f m O.-.-.-.-.-.l.M.M.-.z.M.F.F.F.M.v.-.-.-.-.-.-.-.-.-.-.-.-.-.-.-.-.-.l.#.m M m m v v e X = ( M.N.",
"@XN X % m m m m M g $ % O a m m m +.} } -.-.-.-.-.-.-.z.M.M.v.-.-.-.-.-.-.-.-.-.-.-.-.-.-.-.-.-.-.-.-.O.M m m M y X X = J ] n.N.",
"@XN O % m m m m m m m M a X s n m m >.>.| -.-.-.-.-.-.-.-.-.-.| | -.-.-.-.-.-.} -.-.-.-.-.-.-.-.-.-.-.-.#.M m v e X X H d.h.h.I.",
"+XN O % c M M m m m m m M a % z M m } -.-.-.-.-.} -.-.-.-.-.| 1.~ l.-.-.-.-.} I } -.-.-.-.} -.-.-.-.-.-.l.~ m a % @ X X P h.j.I.",
"oXX X X % k k x m m m m m m M m m m #.-.-.-.-.#.>.-.-.-.-.| ~ >.~ | l.-.-.} >.>.| -.-.-.} >.-.-.-.-.-.-.| 2.m m M a @ X P h.T.N.",
"X X X X X X O s M m m m m m m m m m m #.+.+.| ,.>.-.-.-.l.#.2.l.! 1.+.O.O.>.m } -.-.-.-.} >.-.-.-.-.-.l./ m m m m M e X P ] ` v.",
"X X X P X @ d M m m m m m m m m m m m m m 1.-.} I +.-.l.| 2.2.l.O.1.M >.1.M m ~ -.-.-.O./ b +.l.-.-.l.} D x m m m M e X J ] ` Y ",
"X X h.P X e M m m M x x m m m m m m m m M -.-.} m b #.#.2.n 2.l.-.l.#.} l.~ M m ~ #./ m m m b #.#.#.O.D e u M m M k % X J ] ` T ",
"X X h.P X e M m M c % a M m m m m m m m m / -.~ m m m m m m ! l.-.-.l.+.} l.>.m m m m m m m m m m c s e . s M m k % X 1 s.Y Y r.",
"X X h.P X $ f W c & % z M m m m m m m m m m ! m m m m m m m >.@.-.-.l.1.1.~ b m m m m m m m m m m x i u & & x W t . 7 s.h.h.J.U.",
"X X h.s.2 X $ a e . s W m m m m m m m m m m m m m m m m m m m >.@.l.+.>.m m m m m m m m m m M m m m M W d . & a V 9 s.h.f.f.I.U.",
"X X X ` ` 2 X X X X % k M m m m M m m m m m m m m m m M m m m m >.! >.m m m m m m m m m m v d M m m M z & X X X H ] ' ` f.J.U.U.",
"#XX X X X ( 9 9 9 , X % i z M M s c m m m m m m m M c d M m m m m m m m m m m m m m m m m c @ s M M x % X 1 H H K ] ` ` x.U.U.U.",
"#X#XX X X X ] ] ] ( , X . % t t @ x M m m m m m M v & @ d M M M m M d k m m m m m m m M v t X @ t t & X X 6 ] ] ] ` x.v.M.N.N.N.",
"#XX X X N.M.$.Q Q ..S C C - X X X & t F M m m v t & X X $ t t e f g @ f M m m m m m n t & X X X X X X > q K ] ` ` x.M.N.N.N.N.N.",
"#XX X N.N.N.M.n.z.Q Q ....S C q q q q ` ^ ^ X.X.q C Z p X X X X $ $ X % z M m m m m m h q q q q q q q K ] ] Q $.&.M.N.N.N.N.N.N.",
"X X U.N.N.N.N.N.M.m.z.` Q Q ..] ] ] ] ` Q ' ' ' ] ] ] S Z Z Z J < X X X % & & c m m X.) ] ] { m.v.] ] ] ` $.i.i.a.a.N.N.N.N.N.N.",
"X N.N.N.N.N.N.N.N.N.M.m.g.` ` ` ` ` ` ` ` ` ] n.` ` ` ` ] ] ] ] ( J J J J J J ) ) ) ` ' ` ` Q $.p.x.` g.i.i.a.a.a.a.N.N.N.N.N.N.",
"X N.N.N.N.N.N.N.N.N.N.U.I.I.I.j.h.] ] ` ` ] m.m.' ` ` ` ` ] ` ` ` ] ] ] ] ] ] ] ' ' ` ` ` Q Q o.a.p.i.i.a.a.a.a.a.a.N.N.N.N.N.N.",
"X N.N.N.N.N.N.N.N.N.U.U.U.U.U.I.I.I.I.] ] m.N.m.] ` ` Q o.%.Q ` ` ` ` ` ` ] n.m.] ] ] ] ..i.i.i.a.a.a.a.a.a.a.a.a.a.a.a.a.N.N.N.",
"X N.N.N.N.N.N.N.N.N.U.U.U.U.U.U.a.a.a.i.M.N.a.i.Q Q Q o.&.Q Q Q Q ` ` Q Q &.a.N.M.M.M.i.i.a.a.a.a.a.a.a.a.a.a.a.a.a.a.a.a.a.a.a."
};
