/* XPM */
static const char *left2[] = {
/* columns rows colors chars-per-pixel */
"64 64 187 2 ",
"   c #0D112C",
".  c #12162B",
"X  c #161C2E",
"o  c #191F2E",
"O  c #121227",
"+  c #171F30",
"@  c #1C232E",
"#  c #172031",
"$  c #182333",
"%  c #1A2836",
"&  c #1C2C3A",
"*  c #1E323E",
"=  c #21292F",
"-  c #242C33",
";  c #2D3834",
":  c #333E35",
">  c #2F403B",
",  c #364336",
"<  c #3A4636",
"1  c #3B4537",
"2  c #43463A",
"3  c #424938",
"4  c #405238",
"5  c #465A3A",
"6  c #4C5D3B",
"7  c #4A5639",
"8  c #4C613B",
"9  c #53633C",
"0  c #5B6D3E",
"q  c #5E713F",
"w  c #5E793F",
"e  c #63743F",
"r  c #1E3541",
"t  c #213C46",
"y  c #203742",
"u  c #26484E",
"i  c #23424A",
"p  c #274D52",
"a  c #284E53",
"s  c #295155",
"d  c #2A5659",
"f  c #2C5C5D",
"g  c #3E5543",
"h  c #33635E",
"j  c #2A5E61",
"k  c #2E6162",
"l  c #2F6868",
"z  c #306764",
"x  c #316966",
"c  c #326D69",
"v  c #35736D",
"b  c #3E7E6F",
"n  c #357672",
"m  c #377A73",
"M  c #397C73",
"N  c #367A7F",
"B  c #2E7575",
"V  c #4C684A",
"C  c #4B6847",
"Z  c #5E7940",
"A  c #49775A",
"S  c #567750",
"D  c #626342",
"F  c #657A40",
"G  c #6A7C41",
"H  c #7B7B48",
"J  c #407B69",
"K  c #517261",
"L  c #597D68",
"P  c #407F72",
"I  c #398178",
"U  c #5E8354",
"Y  c #578C5F",
"T  c #5B8E5C",
"R  c #57815A",
"E  c #5F905A",
"W  c #6C8242",
"Q  c #6E8D43",
"!  c #6B8B4D",
"~  c #67864D",
"^  c #778E45",
"/  c #788F44",
"(  c #708743",
")  c #739445",
"_  c #799145",
"`  c #749C4C",
"'  c #799F4A",
"]  c #799C46",
"[  c #648954",
"{  c #668D59",
"}  c #669455",
"|  c #699654",
" . c #6E9950",
".. c #629259",
"X. c #6A935B",
"o. c #6D995F",
"O. c #729C5D",
"+. c #7B9850",
"@. c #7DA147",
"#. c #7CA148",
"$. c #7BA15A",
"%. c #4D8665",
"&. c #44826D",
"*. c #49856D",
"=. c #4E8A6C",
"-. c #528963",
";. c #588D67",
":. c #538B69",
">. c #56896E",
",. c #5C9165",
"<. c #5F9669",
"1. c #578C70",
"2. c #5D8C75",
"3. c #458272",
"4. c #629463",
"5. c #689661",
"6. c #6C9C63",
"7. c #68956C",
"8. c #719B6F",
"9. c #628E74",
"0. c #679175",
"q. c #6FA166",
"w. c #75A462",
"e. c #78A763",
"r. c #79A863",
"t. c #89874C",
"y. c #918F4E",
"u. c #829C48",
"i. c #809947",
"p. c #93914F",
"a. c #9D9A51",
"s. c #81A346",
"d. c #84A548",
"f. c #8AA349",
"g. c #8CAA49",
"h. c #83A949",
"j. c #90A448",
"k. c #92AD4A",
"l. c #96B14B",
"z. c #9CB44C",
"x. c #9BB94E",
"c. c #84A657",
"v. c #86AB56",
"b. c #8BAD54",
"n. c #83A658",
"m. c #91AE52",
"M. c #8FB252",
"N. c #93B351",
"B. c #A1B74C",
"V. c #A3B94C",
"C. c #A5A254",
"Z. c #A7BA50",
"A. c #ABBD53",
"S. c #A6B459",
"D. c #BAB55A",
"F. c #BFBA5B",
"G. c #B0AC57",
"H. c #8CAA6C",
"J. c #8FA363",
"K. c #91AD6B",
"L. c #AFBE6A",
"P. c #AAC04C",
"I. c #B2C057",
"U. c #B3C159",
"Y. c #BAC55D",
"T. c #BDC760",
"R. c #BEC764",
"E. c #BEC765",
"W. c #C1C963",
"Q. c #C5CB66",
"!. c #C7CC67",
"~. c #C6CC67",
"^. c #C7CC67",
"/. c #C9CD67",
"(. c #CCCF67",
"). c #C8CD68",
"_. c #C8CD68",
"`. c #CACE69",
"'. c #C8CD68",
"]. c #CED066",
"[. c #377C80",
"{. c #3A8487",
"}. c #419A9A",
"|. c #43A09F",
" X c #46A8A6",
".X c #47ABA9",
"XX c #47ABA9",
/* pixels */
"X X x.x.x.x.x.x.F.F.F.F.F.F.F.r.r.r.r.r.r.r.r.r.r.r.r.r.r.r.r.r.r.r.r.r.r.r.r.r.r.r.r.r.r.r.r.r.r.r.r.r.r.r.r.r.r.r.r.r.r.r.r.r.",
"X X X X X x.x.x.F.F.F.F.x.r.r.r.x.x.x.r.r.r.r.r.r.r.r.r.r.r.r.r.r.r.r.r.r.r.r.r.0.0.0.0.r.r.r.r.r.r.r.r.r.r.r.r.r.r.r.r.r.x.x.x.",
".XX X X X X X F.F.F.F.x.x.x.x.x.x.x.x.x.x.x.x.r.r.r.r.r.r.r.r.r.r.r.r.r.r.r.r.0.0.0.0.0.0.x.x.x.x.x.x.x.x.0.0.0.0.r.r.r.x.x.x.x.",
".X.X.XX X X F.F.F.F.F.x.x.x.x.x.x.x.r.r.r.r.r.r.r.r.r.r.r.r.r.r.r.r.r.0.0.0.r.0.0.0.0.0.0.0.0.0.0.0.x.x.0.0.0.0.0.0.0.r.x.x.x.x.",
".X.XX X F.F.F.F.F.F.x.x.x.x.x.x.x.x.x.x.r.r.r.r.r.r.r.r.r.r.r.r.r.r.0.0.0.0.0.0.0.0.0.0.0.0.0.0.0.0.0.0.0.F.F.F.0.0.0.0.x.x.x.F.",
".XX X F.F.F.F.F.F.F.x.x.x.x.x.x.x.x.x.x.x.x.r.r.r.r.r.r.r.r.r.r.r.0.0.0.0.0.F.F.F.F.0.0.0.0.F.F.F.F.0.0.F.F.F.F.F.0.0.0.0.F.F.F.",
"X X X F.F.F.F.F.F.F.F.x.F.F.x.x.x.x.x.x.x.x.x.x.x.x.r.r.r.r.r.r.r.0.0.0.F.F.F.F.F.F.F.0.0.F.F.F.F.F.F.F.F.F.F.F.F.F.F.F.F.F.x.x.",
"X X X F.F.F.F.F.F.F.F.F.F.F.F.x.x.x.x.x.x.x.x.x.x.x.r.r.r.r.r.0.0.0.0.F.F.F.F.F.F.F.F.0.F.F.F.F.F.F.F.F.F.F.F.F.F.F.F.F.F.F.x.x.",
"X X X F.F.F.F.F.x.F.F.F.x.x.x.F.x.x.x.x.x.x.x.x.x.x.x.F.F.F.F.F.F.0.F.F.F.F.F.F.F.F.F.F.F.F.F.F.F.F.F.F.F.F.F.F.F.F.F.F.F.F.x.F.",
"X X X X F.F.F.F.x.x.x.x.x.x.x.x.x.x.x.x.x.x.x.x.x.x.F.F.x.x.F.F.F.F.F.F.F.F.F.F.F.F.F.F.F.F.F.F.F.F.F.F.F.F.F.F.F.F.F.F.F.F.F.F.",
".XX X X X X X X x.x.x.x.x.x.x.x.x.x.x.x.x.x.x.x.x.x.F.x.x.x.x.F.F.F.F.F.F.F.F.x.x.x.F.F.F.F.F.x.x.F.F.F.F.x.x.F.F.F.F.F.F.F.F.F.",
".XX X X X X X X X x.x.x.x.x.x.x.x.x.x.x.x.x.x.x.x.x.x.x.x.x.x.x.x.x.x.F.F.F.x.x.x.x.x.F.F.x.x.x.x.x.x.F.x.x.x.x.F.F.F.F.F.F.F.F.",
"X X X x.x.x.x.X X X F.F.F.F.F.F.F.F.F.x.x.x.x.x.x.x.x.x.x.x.x.x.x.x.x.x.F.F.x.x.x.x.x.F.x.x.x.x.x.x.x.x.x.x.x.x.F.F.F.F.F.F.F.F.",
"X X x.x.x.x.x.x.F.x.x.x.x.x.x.x.x.x.x.x.x.x.x.x.x.x.x.x.x.x.x.x.x.x.x.x.x.x.x.x.x.x.x.F.x.x.x.x.x.x.x.x.x.x.x.x.F.F.F.F.F.x.x.x.",
"X X x.x.x.x.x.x.x.x.x.x.r.r.r.r.r.r.x.x.x.x.x.x.x.x.x.x.x.x.x.x.x.x.x.x.x.x.x.x.x.x.x.x.x.x.x.x.x.x.x.x.x.x.x.x.x.x.x.x.x.x.x.x.",
"X X x.x.x.x.x.x.x.x.r.r.r.r.r.r.r.r.r.x.r.r.r.r.x.x.x.x.x.x.F.F.F.x.x.x.x.x.x.x.x.x.x.x.x.x.x.x.x.x.x.x.x.x.x.x.x.x.x.x.x.x.x.x.",
"X X X x.x.X X X r.r.r.r.r.r.r.r.r.r.r.r.r.r.r.r.r.x.x.x.F.F.F.F.F.F.x.x.x.x.x.x.x.x.x.x.r.r.r.x.x.x.x.x.x.x.x.x.x.x.x.x.x.x.x.x.",
"X X X X X X X x.x.x.x.r.r.r.r.r.r.r.r.r.r.r.r.r.r.F.F.F.F.F.F.F.F.F.F.F.F.F.r.r.r.x.x.r.r.r.r.r.x.x.x.x.x.x.x.x.x.x.x.x.x.x.x.x.",
".XX X X X X x.x.x.x.x.x.x.x.x.x.r.r.r.r.r.r.r.r.r.r.r.r.F.F.F.F.F.F.F.F.F.r.r.r.r.r.r.r.x.x.r.r.r.x.x.x.x.x.x.r.r.r.x.x.x.x.x.x.",
".X.XX X X X x.x.x.x.x.x.x.x.x.x.x.r.r.r.x.x.x.r.r.r.r.r.r.r.F.F.F.r.r.r.r.r.x.x.r.r.r.x.x.x.x.r.r.r.x.x.x.x.r.r.r.r.r.x.x.x.r.r.",
".X.XX X X X x.x.x.x.x.x.x.x.x.x.x.r.r.x.x.x.b.M m m m m ;.x.x.x.x.x.,.m m m m m v.N.x.x.N.N.N.N.x.x.x.x.x.r.r.r.r.r.r.r.r.r.r.r.",
".XX X X r.X X x.x.x.0.0.0.x.x.x.x.x.N.M.N.b.M m &.&.&.M m 4.x.M.N.,.m m P *.&.&.M M b.b.M M m *.w.x.x.x.x.r.r.r.r.r.r.r.r.r.r.r.",
"X X X r.r.0.X X x.0.0.0.x.x.x.x.x.M.*.m m m m :.z.z.B.c.M ,.6.m m m m M c.B.z.z.:.m m m m *.*.&.*.w.x.x.r.r.r.r.x.x.x.r.r.r.r.r.",
"X X r.r.r.0.0.0.0.0.0.x.x.x.x.0.9.M m *.*.*.&.z.B.B.B.V.$.n m m m m P c.V.Z.Z.B.z.:.m m :.z.B.v.m *.q.6.w.r.r.x.x.x.x.x.x.x.x.x.",
"X X r.r.r.r.0.0.0.0.0.0.x.x.0.9.P m *.N.B.l.*.z.B.B.B.z.o.P 1.1.3.n $.V.Z.W./.Z.B.z.M b z.B.V.b.*.m m m =.6.w.x.x.x.x.x.x.x.x.x.",
"X X r.r.r.r.r.r.0.X 0.0.0.2.2.>.m m m.B.B.l.*.z.A.Z.V.c.B 8.].(.K.P O.V.Y.).!.A.B.z.7.7.A.Z.B.V.c.m m m m m 4.N.x.x.x.x.x.x.x.x.",
"X X X r.r.r.r.r.X X F.F.S.>.m m m m m.B.B.l.4.A./.W.Z.5.M H./.!.].8.O.A.W.!.!.!.Z.A././.).W.A.V.n.M ;.;.;.*.m <.r.r.r.r.r.x.x.x.",
".XX X X X X X X X F.F.F.7.m =.,.M m m.A.A.A.V.!.!./.L.0.H.(.!.!./.H.c.Y.).!.!.!.U.~.!.!.!.!.W.V.b.O.V.V.V.n.*.=.w.r.r.r.r.r.r.r.",
".X.XX X X X X X X F.r.[ J :.m.V.O.M 5.E.).!.U.!.!.!./.(./.!.!.!.!./.Y.T.!.!.!.!.).!.!.!.!./.W.B.B.V.B.B.B.V.5.n J.F.F.F.F.F.F.F.",
".XX X X x.x.F.X X r.{ : r +.P.B.V.O.8.E./.!.).!.!.!.!.!.!.).!.!.!./.).!.!.!.).!.!.!.!.!./.~.U.B.B.B.B.B.B.V.5.n J.F.F.F.F.F.F.F.",
".XX X x.x.x.x.x.X u., X . 3 0 f.B.V.U.U.!.).).).!.!.!.).W.Y.).!.).T.W.).!.!.Y.~.).).).).!.U.B.B.B.V.V.V.V.b.=.:.b.x.x.x.x.x.x.x.",
".XX X x.x.x.x.x.u., . : 8 5 9 f.B.B.B.B.U.U.U.U.).).W.U.A.V.T.).T.Z.A.W.!.!.Y.U.U.U.U.U.I.B.B.Z.j.9 9 / b.=.j ! x.x.x.x.x.x.x.x.",
".XX X x.x.f.6 9 < X : Q h.g.B.B.B.B.B.g.z.B.B.B.I.U.A.z.B.B.Z.U.Z.z.A.W.!.!.).Y.U.B.B.B.B.B.j.6 1     ; A k & : u.x.x.x.x.x.x.F.",
".XX X x.f.< X X X . 5 h.#.k.B.B.B.g.g.k.B.B.B.B.B.B.B.B.B.B.B.B.B.B.Y.).!.!.!.).).V.B.B.B.B.k.e G G 7   & & . X , u.x.x.x.x.F.F.",
".X.XX X < X & f i . 5 h.#.l.B.B.B.l.s.z.B.B.B.B.z.g.k.B.B.B.B.B.B.B.Y.).!.!.!.!.U.B.B.B.B.B.B.V.V.V.k.7 . < Z : . : C.F.F.F.F.F.",
".XX X X X & x M v t = Z h.h.z.B.B.B.d.d.B.B.z.g.d.#.#.g.B.B.B.B.B.B.Z.T.)././.I.B.B.B.B.B.B.B.B.B.B.V.G   8 h.Q ; . : f.F.F.F.F.",
"X X X u.X r M m M v t @ w @.h.z.B.g.#.#.d.d.d.#.#.#.#.d.B.B.B.B.B.k.l.Z.A.A.A.B.B.B.B.B.B.B.B.B.B.B.V.e , ) #.s.Q ; X _ x.x.F.x.",
"X X x.u.X r M m m M v k U s.#.h.d.#.#.#.#.#.#.s.z.z.z.k.g.B.B.B.k.#.k.B.B.B.B.B.B.z.g.B.B.B.B.B.B.B.B.f.) #.#.#.h., X _ x.x.x.x.",
"X X x.u.X r m m m m m m ..#.#.#.#.#.#.l.z.s.s.z.B.B.B.B.k.h.d.d.s.#.s.l.B.B.B.B.B.z.s.h.d.g.B.B.B.B.l.s.#.#.#.@.5 @ X - f.x.x.x.",
"X X X u.X X i M d % % C #.#.#.#.#.#.l.B.B.z.z.B.B.B.B.B.l.#.#.#.g.z.g.s.h.z.B.B.B.z.s.s.z.z.B.z.s.s.s.#.#.#.#.T v r X X - o.r.x.",
".XX X X X X + % $ X 5 ] #.#.#.#.#.#.z.B.B.B.B.B.B.B.B.B.B.z.k.#.k.B.B.g.#.l.B.B.z.d.s.z.B.B.B.z.#.#.#.#.#.#.s.-.m v r X X X.r.r.",
".X}.X X X $ $ + . < #.#.#.#.#.#.#.#.s.z.z.B.B.B.B.z.B.B.B.B.B.g.g.B.B.B.d.#.z.z.d.#.s.z.B.B.B.l.#.#.#.#.#.#.#.-.m m n & X X.r.r.",
".X}.X X r n n d . < #.#.#.] ) ` #.#.#.#.s.z.B.B.z.d.B.B.B.B.B.k.#.k.z.z.d.#.#.#.#.#.#.h.z.z.z.#.#.#.#.#.' ' Y m m m M * X X.x.x.",
".X}.X & n m M f + X 5 ) ) < $ z | #.#.#.#.s.z.z.#.d.z.z.B.B.B.g.#.#.#.#.#.#.#.#.#.#.#.#.#.#.#.#.#.#.#...m M m m m m v & X W x.x.",
" XN X & m m m m d $ X o o $ f m m | ` ` #.#.#.#.#.#.#.d.z.z.g.#.#.#.#.#.#.#.#.#.#.#.#.#.#.#.#.#.#.#.#.} M m m M v c * X = W k.x.",
" XN + & c M m m M d & $ X p n m m m m &.' #.#.#.#.#.#.#.#.#.#.#.#.#.#.#.#.#.#.` #.#.#.#.#.#.#.#.#.#.#.#...M m v r X X - H p.p.D.",
"|.[.r X & z c M m m M s $ X p v m m &.' #.#.#.#.#.#.#.#.#.#.#.` ' #.#.#.#.#.` P ` #.#.#.#.` #.#.#.#.#.#.s.T m a # X X D y.p.a.D.",
"{.X X X X X * c m m m M s * * z M m ` #.#.#.#.#. .#.#.#.#.#.' %.%.' #.#.#.` &.&.' #.#.#.` &.#.#.#.#.#.#.' -.m M a $ X X H p.G.x.",
"X X X X X X $ a M m m m m M M m m m ..#.#.#.#...&.#.#.#.#.' T %.b -.| } } &.m ` #.#.#.#.` &.#.#.#.#.#.s.E m m m M p $ X H _ ^ g.",
"X X X H X $ s M m m m m m m m m m m m E } } ' %.&.#.#.#.s...-.s.} %.b &.%.M m T #.#.#.} E b | #.#.#.s.` A x m m m M r X F _ ^ K ",
"X X p.H X r I m m M M m m m m m m m m m m -.#.` b | s.s.' %.-.#.#.s...` s.T M m T ..E m m m b ......} A r u M m m M r X F _ _ L ",
"X X p.H X & k M M x a z m m m m m m m m M #.#.` m b E ..-.n Y s.#.#.s.| ` s.&.m m m m m m m m m m c a r . a M m M k & X H K K 9.",
"X X p.t.2 X % k c r O p M m m m m m m m m T ' Y m m m m m m &. .#.#.s.%.%.T b m m m m m m m m m m x i u * * x I j % X 2 t.p.C.F.",
"X X y.p.( < X & y . * z m m m m m m m m m m -.m m m m m m m m &. .s.| &.m m m m m m m m m m M m m m M I s . * p & X 2 t.p.y.D.F.",
"X X X ^ _ W 6 < X X a I m m m m M m m m m m m m m m m m m m m m &.Y &.m m m m m m m m m m v s M m m M z * X X X 2 6 W _ y.C.F.F.",
".XX X X X ^ _ W 9 , & k M M M M a c m m m m m m m m m M m m m m m m m m m m m m m m m m m c $ a M M x & X 1 D D W _ ^ ^ f.F.F.F.",
".X.XX X X X ^ _ _ 6 X & t t t t $ x M m m m m m m M c a M m m m m M s k m m m m m m m M v y X $ t t & X X 7 _ _ _ ^ f.g.x.x.x.x.",
".XX X X x.x.X.U U S : X X X X X X * v m m m m m M c & $ s M M M M d $ f M m m m m m n t * X X X X X X : 0 G _ ^ ^ f.x.x.x.x.x.x.",
".XX X x.x.x.x.k.f.U S V V V V q q q ~ [ m m m v r & X X $ r r r r % X & z M m m m m m h 0 q q q q q q G _ _ U X.O.x.x.x.x.x.x.x.",
"X X F.x.x.x.x.x.x.l.f._ U U U _ _ _ / / R ! ! ~ e e F g X X X X X X X X & * * c m m [ ! _ _ _ l.g._ _ _ ^ X.w.w.r.r.x.x.x.x.x.x.",
"X x.x.x.x.x.x.x.x.x.l.l.u.^ _ ^ ^ ^ ^ ^ / / _ k._ _ _ ( F F F F F F F F F F F ! ! ! ^ / ^ ^ U X.e.f.^ u.w.w.r.r.r.r.x.x.x.x.x.x.",
"X x.x.x.x.x.x.x.x.x.x.F.D.D.D.a.p._ _ ^ ^ _ l.l.^ ^ ^ ^ _ _ _ _ _ _ _ _ _ _ _ _ / / ^ ^ ^ U U { r.e.w.w.r.r.r.r.r.r.x.x.x.x.x.x.",
"X x.x.x.x.x.x.x.x.x.F.F.F.F.F.D.D.D.D._ _ l.x.l.^ ^ ^ U { o.U ^ ^ ^ ^ ^ ^ _ k.l._ _ _ _ [ w.w.w.r.r.r.r.r.r.r.r.r.r.r.r.r.x.x.x.",
"X x.x.x.x.x.x.x.x.x.F.F.F.F.F.F.r.r.r.w.x.x.r.w.U U U { O.U U U U ^ ^ U U O.r.x.x.x.x.w.w.r.r.r.r.r.r.r.r.r.r.r.r.r.r.r.r.r.r.r."
};
