/* XPM */
static const char *left3[] = {
/* columns rows colors chars-per-pixel */
"64 64 190 2 ",
"   c #0D112C",
".  c #12162B",
"X  c #161C2E",
"o  c #181E2E",
"O  c #121227",
"+  c #171E30",
"@  c #1A212F",
"#  c #172031",
"$  c #182233",
"%  c #1B2835",
"&  c #1C2C3A",
"*  c #1E323E",
"=  c #222A2E",
"-  c #222C32",
";  c #282D33",
":  c #2E3B34",
">  c #293233",
",  c #333E35",
"<  c #3C3F37",
"1  c #354235",
"2  c #3A4636",
"3  c #37433A",
"4  c #3E5038",
"5  c #43463A",
"6  c #45483A",
"7  c #415438",
"8  c #4C5D3B",
"9  c #495639",
"0  c #4B603B",
"q  c #54633C",
"w  c #5C6F3F",
"e  c #5E713F",
"r  c #63743F",
"t  c #607B3F",
"y  c #1F3541",
"u  c #1F3845",
"i  c #213B45",
"p  c #26484E",
"a  c #24434B",
"s  c #274D52",
"d  c #284E53",
"f  c #295155",
"g  c #2A5659",
"h  c #2C5B5D",
"j  c #3E5543",
"k  c #33635E",
"l  c #2A5D61",
"z  c #2E6262",
"x  c #2F6868",
"c  c #316664",
"v  c #316966",
"b  c #326D6A",
"n  c #35736E",
"m  c #3E7E6E",
"M  c #347772",
"N  c #377A73",
"B  c #397C74",
"V  c #367A7F",
"C  c #496449",
"Z  c #4A6846",
"A  c #5E7A40",
"S  c #53734E",
"D  c #49775A",
"F  c #626342",
"G  c #657A40",
"H  c #6A7C41",
"J  c #7B7B48",
"K  c #477F68",
"L  c #517261",
"P  c #577D66",
"I  c #407F71",
"U  c #398077",
"Y  c #398178",
"T  c #5E8254",
"R  c #578C5F",
"E  c #5B8E5C",
"W  c #57815A",
"Q  c #5F905A",
"!  c #6C8242",
"~  c #6D8C43",
"^  c #6B8B4D",
"/  c #66864E",
"(  c #778E45",
")  c #788F44",
"_  c #708743",
"`  c #799145",
"'  c #7A9D46",
"]  c #749C4D",
"[  c #799E4A",
"{  c #749545",
"}  c #608555",
"|  c #668D58",
" . c #648954",
".. c #669455",
"X. c #699654",
"o. c #6E9950",
"O. c #629259",
"+. c #6A935B",
"@. c #719C5E",
"#. c #7DA147",
"$. c #7CA148",
"%. c #7CA259",
"&. c #4D8665",
"*. c #44816D",
"=. c #4B866D",
"-. c #4E896C",
";. c #528963",
":. c #588D67",
">. c #528B6A",
",. c #598A6D",
"<. c #5D9165",
"1. c #5F9669",
"2. c #578C70",
"3. c #5E8D75",
"4. c #448272",
"5. c #649562",
"6. c #689661",
"7. c #6B9A62",
"8. c #67956E",
"9. c #739C6E",
"0. c #628E74",
"q. c #679175",
"w. c #6FA165",
"e. c #75A462",
"r. c #78A763",
"t. c #79A863",
"y. c #89874C",
"u. c #918F4E",
"i. c #839C48",
"p. c #809947",
"a. c #93914F",
"s. c #9D9A51",
"d. c #A39D51",
"f. c #81A345",
"g. c #84A448",
"h. c #8AA449",
"j. c #84A948",
"k. c #8CAA49",
"l. c #92AD4A",
"z. c #90A448",
"x. c #96B14C",
"c. c #9CB44C",
"v. c #9BB94E",
"b. c #86AA56",
"n. c #8AAC55",
"m. c #81A458",
"M. c #86A858",
"N. c #92AF52",
"B. c #8FB153",
"V. c #93B351",
"C. c #A1B74C",
"Z. c #A4B94C",
"A. c #ACBD4F",
"S. c #A5A254",
"D. c #A6BA51",
"F. c #ABBC53",
"G. c #A6B459",
"H. c #BAB55A",
"J. c #BFBA5B",
"K. c #B0BF56",
"L. c #B0AC57",
"P. c #8CAA6C",
"I. c #8FA363",
"U. c #9EAA61",
"Y. c #AFBE6A",
"T. c #B3C157",
"R. c #B3C158",
"E. c #B4C25A",
"W. c #BAC55D",
"Q. c #BEC761",
"!. c #BDC769",
"~. c #C1C963",
"^. c #C5CB66",
"/. c #C7CC67",
"(. c #C6CC67",
"). c #C5CB66",
"_. c #C9CD67",
"`. c #CCCF67",
"'. c #C8CD68",
"]. c #C8CD68",
"[. c #CACE69",
"{. c #C8CD68",
"}. c #CED066",
"|. c #377C80",
" X c #3A8487",
".X c #419A9A",
"XX c #43A09F",
"oX c #46A8A6",
"OX c #47ABA9",
"+X c #47ABA9",
/* pixels */
"X X v.v.v.v.v.v.J.J.J.J.J.J.J.t.t.t.t.t.t.t.t.t.t.t.t.t.t.t.t.t.t.t.t.t.t.t.t.t.t.t.t.t.t.t.t.t.t.t.t.t.t.t.t.t.t.t.t.t.t.t.t.t.",
"X X X X X v.v.v.J.J.J.J.v.t.t.t.v.v.v.t.t.t.t.t.t.t.t.t.t.t.t.t.t.t.t.t.t.t.t.t.q.q.q.q.t.t.t.t.t.t.t.t.t.t.t.t.t.t.t.t.t.v.v.v.",
"OXX X X X X X J.J.J.J.v.v.v.v.v.v.v.v.v.v.v.v.t.t.t.t.t.t.t.t.t.t.t.t.t.t.t.t.q.q.q.q.q.q.v.v.v.v.v.v.v.v.q.q.q.q.t.t.t.v.v.v.v.",
"OXOXOXX X X J.J.J.J.J.v.v.v.v.v.v.v.t.t.t.t.t.t.t.t.t.t.t.t.t.t.t.t.t.q.q.q.t.q.q.q.q.q.q.q.q.q.q.q.v.v.q.q.q.q.q.q.q.t.v.v.v.v.",
"OXOXX X J.J.J.J.J.J.v.v.v.v.v.v.v.v.v.v.t.t.t.t.t.t.t.t.t.t.t.t.t.t.q.q.q.q.q.q.q.q.q.q.q.q.q.q.q.q.q.q.q.J.J.J.q.q.q.q.v.v.v.J.",
"OXX X J.J.J.J.J.J.J.v.v.v.v.v.v.v.v.v.v.v.v.t.t.t.t.t.t.t.t.t.t.t.q.q.q.q.q.J.J.J.J.q.q.q.q.J.J.J.J.q.q.J.J.J.J.J.q.q.q.q.J.J.J.",
"X X X J.J.J.J.J.J.J.J.v.J.J.v.v.v.v.v.v.v.v.v.v.v.v.t.t.t.t.t.t.t.q.q.q.J.J.J.J.J.J.J.q.q.J.J.J.J.J.J.J.J.J.J.J.J.J.J.J.J.J.v.v.",
"X X X J.J.J.J.J.J.J.J.J.J.J.J.v.v.v.v.v.v.v.v.v.v.v.t.t.t.t.t.q.q.q.q.J.J.J.J.J.J.J.J.q.J.J.J.J.J.J.J.J.J.J.J.J.J.J.J.J.J.J.v.v.",
"X X X J.J.J.J.J.v.J.J.J.v.v.v.J.v.v.v.v.v.v.v.v.v.v.v.J.J.J.J.J.J.q.J.J.J.J.J.J.J.J.J.J.J.J.J.J.J.J.J.J.J.J.J.J.J.J.J.J.J.J.v.J.",
"X X X X J.J.J.J.v.v.v.v.v.v.v.v.v.v.v.v.v.v.v.v.v.v.J.J.v.v.J.J.J.J.J.J.J.J.J.J.J.J.J.J.J.J.J.J.J.J.J.J.J.J.J.J.J.J.J.J.J.J.J.J.",
"OXX X X X X X X v.v.v.v.v.v.v.v.v.v.v.v.v.v.v.v.v.v.J.v.v.v.v.J.J.J.J.J.J.J.J.v.v.v.J.J.J.J.J.v.v.J.J.J.J.v.v.J.J.J.J.J.J.J.J.J.",
"OXX X X X X X X X v.v.v.v.v.v.v.v.v.v.v.v.v.v.v.v.v.v.v.v.v.v.v.v.v.v.J.J.J.v.v.v.v.v.J.J.v.v.v.v.v.v.J.v.v.v.v.J.J.J.J.J.J.J.J.",
"X X X v.v.v.v.X X X J.J.J.J.J.J.J.J.J.v.v.v.v.v.v.v.v.v.v.v.v.v.v.v.v.v.J.J.v.v.v.v.v.J.v.v.v.v.v.v.v.v.v.v.v.v.J.J.J.J.J.J.J.J.",
"X X v.v.v.v.v.v.J.v.v.v.v.v.v.v.v.v.v.v.v.v.v.v.v.v.v.v.v.v.v.v.v.v.v.v.v.v.v.v.v.v.v.J.v.v.v.v.v.v.v.v.v.v.v.v.J.J.J.J.J.v.v.v.",
"X X v.v.v.v.v.v.v.v.v.v.t.t.t.t.t.t.v.v.v.v.v.v.v.v.v.v.v.v.v.v.v.v.v.v.v.v.v.v.v.v.v.v.v.v.v.v.v.v.v.v.v.v.v.v.v.v.v.v.v.v.v.v.",
"X X v.v.v.v.v.v.v.v.t.t.t.t.t.t.t.t.t.v.t.t.t.t.v.v.v.v.v.v.J.J.J.v.v.v.v.v.v.v.v.v.v.v.v.v.v.v.v.v.v.v.v.v.v.v.v.v.v.v.v.v.v.v.",
"X X X v.v.X X X t.t.t.t.t.t.t.t.t.t.t.t.t.t.t.t.t.v.v.v.J.J.J.J.J.J.v.v.v.v.v.v.v.v.v.v.t.t.t.v.v.v.v.v.v.v.v.v.v.v.v.v.v.v.v.v.",
"X X X X X X X v.v.v.v.t.t.t.t.t.t.t.t.t.t.t.t.t.t.J.J.J.J.J.J.J.J.J.J.J.J.J.t.t.t.v.v.t.t.t.t.t.v.v.v.v.v.v.v.v.v.v.v.v.v.v.v.v.",
"OXX X X X X v.v.v.v.v.v.v.v.v.v.t.t.t.t.t.t.t.t.t.t.t.t.J.J.J.J.J.J.J.J.J.t.t.t.t.t.t.t.v.v.t.t.t.v.v.v.v.v.v.t.t.t.v.v.v.v.v.v.",
"OXOXX X X X v.v.v.v.v.v.v.v.v.v.v.t.t.t.v.v.v.t.t.t.t.t.t.t.J.J.J.t.t.t.t.t.v.v.t.t.t.v.v.v.v.t.t.t.v.v.v.v.t.t.t.t.t.v.v.v.t.t.",
"OXOXX X X X v.v.v.v.v.v.v.v.v.v.v.t.t.v.v.v.v.b.N N N N N <.v.v.v.v.c.:.N N N N B n.V.v.v.V.V.V.V.v.v.v.v.t.t.t.t.t.t.t.t.t.t.t.",
"OXX X X t.X X v.v.v.q.q.q.v.v.v.v.v.v.V.B.V.b.B N *.*.*.B N 5.v.B.V.<.N N I *.*.*.B *.n.b.B B N =.V.v.v.v.t.t.t.t.t.t.t.t.t.t.t.",
"X X X t.t.q.X X v.q.q.q.v.v.v.v.v.v.B.*.N N N N :.c.c.C.m.B <.6.N N N N I b.c.c.c.-.N N N N *.*.*.=.V.v.t.t.t.t.v.v.v.t.t.t.t.t.",
"X X t.t.t.q.q.q.q.q.q.v.v.v.v.q.q.0.*.N =.=.*.*.c.C.C.C.Z.%.M N N N N *.b.C.D.F.C.c.>.N N :.c.C.b.*.=.w.7.e.t.v.v.v.v.v.v.v.v.v.",
"X X t.t.t.t.q.q.q.q.q.q.v.v.q.q.3.B N -.c.C.V.*.c.C.C.C.c.5.I 2.2.4.M %.C.D.~./.D.C.c.B *.c.C.C.Z.m.N N N >.e.v.v.v.v.v.v.v.v.v.",
"X X t.t.t.t.t.t.q.X q.q.q.3.3.U.=.N >.c.C.c.%.<.F.F.C.c.6.B P.`.}.9.*.b.F.~._./.Z.C.D.0.8.F.C.C.c.6.M N N N 5.V.v.v.v.v.v.v.v.v.",
"X X X t.t.t.t.t.X X J.J.G.,.N N N N N.C.C.c.5.F.].~.D.5.B P.`./.`.9.@.A.~.]././.Z.F.)._._.).F.C.m.B :.:.:.*.N 1.t.t.t.t.t.v.v.v.",
"OXX X X X X X X X J.J.d.P N -.<.B N N.F.F.F.Z././._.Y.q.P.`././._.P.M.W.]./././.R.)./././._.~.C.n.@.Z.Z.Z.m.*.-.e.t.t.t.t.t.t.t.",
"OXOXX X X X X X X J.+.3 i K V.Z.@.B 6.!.]./.E./././._.`._././././._.W.Q._./././.]././././._.~.C.C.Z.C.C.C.Z.6.M I.J.J.J.J.J.J.J.",
"OXX X X v.v.J.X X +.3 X   9 l.Z.Z.@.9.!._./.]./././././._.]./././.].]./././.]./././././._.).R.C.C.C.C.C.C.Z.6.M I.J.J.J.J.J.J.J.",
"OXX X v.v.v.v.v.X 2 . : 0 - 2 z.C.Z.E.E./.].].]./././.].~.W.]./.].Q.~.]././.W.).].].].]./.R.C.C.C.Z.Z.Z.Z.b.-.>.n.v.v.v.v.v.v.v.",
"OXX X v.v.v.v.v.G X : ~ j.e q h.C.C.C.C.R.R.R.E.].].~.R.F.Z.Q.].Q.D.F.~././.W.R.R.R.R.R.T.C.C.A.z.q q ) n.-.l ^ v.v.v.v.v.v.v.v.",
"OXX X v.v.h.8 q 2 . 0 j.$.k.C.C.C.C.C.C.k.c.C.C.T.R.F.c.C.C.D.R.F.c.F.~././.].W.E.C.C.C.C.C.z.8 2     > D z & , p.v.v.v.v.v.v.J.",
"OXX X v.h.2 X X X . 8 j.$.l.C.C.C.C.k.k.l.C.C.C.C.C.C.C.C.C.C.C.C.C.W.]./././.]./.Z.C.C.C.C.l.G H H 9   & & O X 1 i.v.v.v.v.J.J.",
"OXOXX X 2 X & h h i = G #.l.C.C.C.C.x.f.c.C.C.C.C.c.k.l.C.C.C.C.C.C.F.~.]././././.Z.C.C.C.C.C.Z.Z.Z.l.9 . 2 A : . , S.J.J.J.J.J.",
"OXX X X X & v B B n u = t j.c.C.C.C.C.g.k.C.C.c.k.g.$.$.l.C.C.C.C.C.C.F.~.]._./.K.C.C.C.C.C.C.C.C.C.Z.H   0 j.~ : . , h.J.J.J.J.",
"X X X i.X y B N N B b l T $.j.c.C.C.k.$.$.g.g.g.$.$.$.$.k.C.C.C.C.C.l.x.F.F.F.F.C.C.C.C.C.C.C.C.C.C.Z.r 1 { $.#.~ : X ` v.v.J.v.",
"X X v.i.X y B N N N N N O.$.$.j.g.g.$.$.$.$.$.$.j.c.c.c.l.k.C.C.C.l.$.l.C.C.C.C.C.C.c.k.C.C.C.C.C.C.C.h.~ $.$.$.j.1 X ` v.v.v.v.",
"X X v.i.X y N B h & & Z $.$.$.$.$.$.$.$.c.c.$.f.c.C.C.C.C.l.j.j.g.$.$.f.c.C.C.C.C.C.c.$.j.g.k.C.C.C.x.g.$.$.$.#.8 @ X > h.v.v.v.",
"X X X p.X X a h $ X 7 ' $.$.$.$.$.$.$.c.C.C.c.c.C.C.C.C.C.l.$.$.$.k.c.g.f.j.c.C.C.C.c.$.j.c.c.C.c.g.f.$.$.$.$.E n y X X - +.t.v.",
"OXX X X X X + $ . 4 ' $.$.$.$.$.$.$.$.c.C.C.C.C.C.C.C.C.C.C.c.k.$.l.C.c.g.$.c.C.C.c.g.f.c.C.C.C.x.$.$.$.$.$.f.;.N n y X X +.t.t.",
"OX.XX X X $ $ # . 7 $.$.' { { [ [ $.$.f.c.c.C.C.C.C.c.C.C.C.C.C.k.l.C.C.C.g.$.c.c.g.$.f.c.C.C.C.x.$.$.$.$.$.$.;.N N M & X +.t.t.",
"OX.XX X y n M g + X 8 ' 7 @ % c B ] $.$.$.j.c.C.C.x.k.C.C.C.C.C.k.$.l.c.c.g.$.$.$.$.$.$.j.c.c.x.$.$.$.$.[ [ R N N N B * X +.v.v.",
"OX.XX & M N N N g + o @ o $ h N N X.$.$.$.$.g.c.c.$.g.c.C.C.C.c.k.$.$.$.$.$.$.$.$.$.$.$.$.$.$.$.$.$.$.O.N B N N N N n & X ! c.v.",
"oXV X & N N N N B g % & + s N N N N X.] $.$.$.$.$.$.$.g.c.c.k.$.$.$.$.$.$.$.$.$.$.$.$.$.$.$.$.$.$.$.$...B N N N n b * X - ! l.v.",
"oXV + & b N N N N N N B s X s M N N *.*.[ $.$.$.$.$.$.$.$.$.$.$.$.$.$.$.$.$.$.] $.$.$.$.$.$.$.$.$.$.$.$.O.B N n y X X ; J a.a.H.",
"XX|.y X & c b B N N N N B s & c N N ] $.$.$.$.$.$.$.$.$.$.$.$.] [ $.$.$.$.$.] I ] $.$.$.$.] $.$.$.$.$.$.f.E N s # X X F u.a.s.H.",
" XX X X X X & b N N N N N N N N N N ] $.$.$.$.$.o.$.$.$.$.$.[ &.&.[ $.$.$.] I *.[ $.$.$.] *.$.$.$.$.$.$.[ ;.N B s $ X X J a.L.v.",
"X X X X X X $ s B N N N N N N N N N O.$.$.$.$.O.*.$.$.$.$.[ E &.m ;.X.....*.N ] $.$.$.$.] *.$.$.$.$.$.f.Q N N N B s $ X J ` ( k.",
"X X X J X $ f B N N B N N N N N N N N Q ....[ &.*.$.$.$.f.O.;.f...&.m *.&.B N E $.$.$...Q m X.$.$.$.f.] D v N N N B y X G ` ( L ",
"X X a.J X y U N B b f v N N N N N N N N N ;.$.] m X.f.f.[ &.;.$.$.f.O.] g.E B N E O.Q N N N m O.O.O...D y p B N N B y X G ` ` P ",
"X X a.J X & z U b i O s B N N N N N N N B $.$.] N m Q O.;.M R f.$.$.f.X.] f.*.N N N N N N N N N N b d y O s B N B z & X J L L 0.",
"X X a.y.5 X % f i . * c B N N N N N N N N E [ R N N N N N N *.o.$.$.f.&.&.E m N N N N N N N N N N v a p * * v U l % X 5 y.a.S.J.",
"X X u.a._ 2 X X X X s U N N N N B N N N N N ;.N N N N N N N N *.o.g.X.*.N N N N N N N N N N B N N N B U f O * s & X 6 y.a.u.H.J.",
"X X X ( ` ! 8 8 0 < & c B B N N f b N N N N N N N N N N N N N N *.R *.N N N N N N N N N N n f B N N B c * X X X 5 8 ! ` u.S.J.J.",
"OXX X X X ( ` ` ` 8 X & a i v U * v B N N N N N N N N B N N N N N N N N N N N N N N N N N b $ s B B v & X 3 F F ! ` ( ( h.J.J.J.",
"OXOXX X X X ( ( ` ! 1 X X . * i $ y n N N N N N N B b s B N N N N B f z N N N N N N N B n i X $ i i * X X 9 ` ` ` ( h.k.c.v.v.v.",
"OXX X X v.c.+.T T } S C C C > X X X y n N N N N B b & $ f B B B B g $ h B N N N N N M i * X X X X X X , w H ` ( ( h.c.v.v.v.v.v.",
"OXX X v.v.v.c.l.h.T T } } } S e e e e / N N N n y & X X $ y y y y % X & c B N N N N N k w e e e e e e H ` ` T +.@.c.v.v.v.v.v.v.",
"X X J.v.v.v.v.v.c.x.i.( T T T ` ` ` ` ) W ^ ^ / r r G j X X X X X X X X & * * b N N  .^ ` ` ` x.k.` ` ` ( +.e.e.t.t.v.v.v.v.v.v.",
"X v.v.v.v.v.v.v.v.v.x.x.i.( ) ( ( ( ( ( ) ) ` l.` ` ` _ G G G G G G G G G G G ^ ^ ^ ( ) ( ( T +.r.h.( i.e.e.t.t.t.t.v.v.v.v.v.v.",
"X v.v.v.v.v.v.v.v.v.v.J.H.H.H.s.a.` ` ( ( ` x.x.( ( ( ( ` ` ` ` ` ` ` ` ` ` ` ` ) ) ( ( ( T T | t.r.e.e.t.t.t.t.t.t.v.v.v.v.v.v.",
"X v.v.v.v.v.v.v.v.v.J.J.J.J.J.H.H.H.H.` ` x.v.x.( ( ( T | +.T ( ( ( ( ( ( ` l.x.` ` ` `  .e.e.e.t.t.t.t.t.t.t.t.t.t.t.t.t.v.v.v.",
"X v.v.v.v.v.v.v.v.v.J.J.J.J.J.J.t.t.t.e.c.v.t.e.T T T | @.T T T T ( ( T T @.t.v.c.c.c.e.e.t.t.t.t.t.t.t.t.t.t.t.t.t.t.t.t.t.t.t."
};
