/* XPM */
static const char *left6[] = {
/* columns rows colors chars-per-pixel */
"64 64 194 2 ",
"   c #0D122C",
".  c #13162B",
"X  c #161C2E",
"o  c #191F2E",
"O  c #121227",
"+  c #171E30",
"@  c #1D242E",
"#  c #172031",
"$  c #192333",
"%  c #1A2837",
"&  c #1C2C3A",
"*  c #182739",
"=  c #1E313E",
"-  c #21292F",
";  c #232D32",
":  c #282D33",
">  c #2C3834",
",  c #313E34",
"<  c #2F403B",
"1  c #364335",
"2  c #394536",
"3  c #3C4B37",
"4  c #424938",
"5  c #405238",
"6  c #495639",
"7  c #465A3A",
"8  c #4C5C3B",
"9  c #57593F",
"0  c #4C613B",
"q  c #53633C",
"w  c #596B3E",
"e  c #5D713E",
"r  c #5E793F",
"t  c #63753F",
"y  c #1F3541",
"u  c #1F3A45",
"i  c #213C46",
"p  c #213E48",
"a  c #23434B",
"s  c #26484E",
"d  c #314F48",
"f  c #3E5443",
"g  c #274D52",
"h  c #284F53",
"j  c #295256",
"k  c #2C5B5C",
"l  c #295659",
"z  c #32605B",
"x  c #2B5F62",
"c  c #2E6161",
"v  c #306764",
"b  c #316967",
"n  c #326C69",
"m  c #34726D",
"M  c #3E7E6F",
"N  c #357671",
"B  c #377A73",
"V  c #397C74",
"C  c #367A7E",
"Z  c #2E7575",
"A  c #5C5E40",
"S  c #425842",
"D  c #4C684A",
"F  c #4B6847",
"G  c #5E6041",
"H  c #5E7940",
"J  c #47765A",
"K  c #567750",
"L  c #616242",
"P  c #657A41",
"I  c #6A7C41",
"U  c #617540",
"Y  c #7B7B49",
"T  c #417F6D",
"R  c #417665",
"E  c #517261",
"W  c #597D68",
"Q  c #407F72",
"!  c #398078",
"~  c #398077",
"^  c #5E8354",
"/  c #5B8E5C",
"(  c #55855C",
")  c #5E905B",
"_  c #6D8343",
"`  c #6D8C43",
"'  c #68874C",
"]  c #698A4F",
"[  c #65854E",
"{  c #778E45",
"}  c #788F44",
"|  c #739445",
" . c #799145",
".. c #749C4C",
"X. c #799F4A",
"o. c #799C46",
"O. c #648955",
"+. c #668D59",
"@. c #698C51",
"#. c #659456",
"$. c #699654",
"%. c #6D9851",
"&. c #619159",
"*. c #6A935B",
"=. c #6D995F",
"-. c #729C5D",
";. c #769A50",
":. c #7DA147",
">. c #7BA048",
",. c #7BA15A",
"<. c #4D8665",
"1. c #44816D",
"2. c #49856D",
"3. c #4F8A6D",
"4. c #528963",
"5. c #588D67",
"6. c #538B69",
"7. c #56896E",
"8. c #5C9165",
"9. c #5F9669",
"0. c #578C70",
"q. c #5D8C75",
"w. c #458272",
"e. c #629463",
"r. c #689661",
"t. c #6C9C63",
"y. c #68956C",
"u. c #719B6F",
"i. c #628E74",
"p. c #679175",
"a. c #6FA166",
"s. c #75A462",
"d. c #78A763",
"f. c #79A863",
"g. c #89884C",
"h. c #918F4E",
"j. c #869E47",
"k. c #839C48",
"l. c #93914F",
"z. c #9C9951",
"x. c #81A346",
"c. c #84A548",
"v. c #8AA349",
"b. c #8CAA49",
"n. c #83A949",
"m. c #90A448",
"M. c #92AD4A",
"N. c #96B14B",
"B. c #9CB44C",
"V. c #9BB94E",
"C. c #84A657",
"Z. c #86AB56",
"A. c #8BAC54",
"S. c #83A658",
"D. c #91AE52",
"F. c #8EB154",
"G. c #93B351",
"H. c #A1B74C",
"J. c #A3B94C",
"K. c #A7A354",
"L. c #A7BA50",
"P. c #ABBD53",
"I. c #A6B459",
"U. c #BAB55A",
"Y. c #BFBA5B",
"T. c #B0AC57",
"R. c #8CAA6C",
"E. c #8FA363",
"W. c #91AD6B",
"Q. c #AFBE6A",
"!. c #B2C057",
"~. c #B3C159",
"^. c #BAC55D",
"/. c #AAC04C",
"(. c #BEC761",
"). c #BEC765",
"_. c #C1C963",
"`. c #C5CB66",
"'. c #C7CC67",
"]. c #C6CC67",
"[. c #C7CC67",
"{. c #C9CD67",
"}. c #CCCF67",
"|. c #C8CD68",
" X c #C8CD68",
".X c #CACE69",
"XX c #C8CD68",
"oX c #CED066",
"OX c #3A8487",
"+X c #41999A",
"@X c #43A09F",
"#X c #46A8A6",
"$X c #47ABA9",
"%X c #47ABA9",
/* pixels */
"X X V.V.V.V.V.V.Y.Y.Y.Y.Y.Y.Y.f.f.f.f.f.f.f.f.f.f.f.f.f.f.f.f.f.f.f.f.f.f.f.f.f.f.f.f.f.f.f.f.f.f.f.f.f.f.f.f.f.f.f.f.f.f.f.f.f.",
"X X X X X V.V.V.Y.Y.Y.Y.V.f.f.f.V.V.V.f.f.f.f.f.f.f.f.f.f.f.f.f.f.f.f.f.f.f.f.f.p.p.p.p.f.f.f.f.f.f.f.f.f.f.f.f.f.f.f.f.f.V.V.V.",
"$XX X X X X X Y.Y.Y.Y.V.V.V.V.V.V.V.V.V.V.V.V.f.f.f.f.f.f.f.f.f.f.f.f.f.f.f.f.p.p.p.p.p.p.V.V.V.V.V.V.V.V.p.p.p.p.f.f.f.V.V.V.V.",
"$X$X$XX X X Y.Y.Y.Y.Y.V.V.V.V.V.V.V.f.f.f.f.f.f.f.f.f.f.f.f.f.f.f.f.f.p.p.p.f.p.p.p.p.p.p.p.p.p.p.p.V.V.p.p.p.p.p.p.p.f.V.V.V.V.",
"$X$XX X Y.Y.Y.Y.Y.Y.V.V.V.V.V.V.V.V.V.V.f.f.f.f.f.f.f.f.f.f.f.f.f.f.p.p.p.p.p.p.p.p.p.p.p.p.p.p.p.p.p.p.p.Y.Y.Y.p.p.p.p.V.V.V.Y.",
"$XX X Y.Y.Y.Y.Y.Y.Y.V.V.V.V.V.V.V.V.V.V.V.V.f.f.f.f.f.f.f.f.f.f.f.p.p.p.p.p.Y.Y.Y.Y.p.p.p.p.Y.Y.Y.Y.p.p.Y.Y.Y.Y.Y.p.p.p.p.Y.Y.Y.",
"X X X Y.Y.Y.Y.Y.Y.Y.Y.V.Y.Y.V.V.V.V.V.V.V.V.V.V.V.V.f.f.f.f.f.f.f.p.p.p.Y.Y.Y.Y.Y.Y.Y.p.p.Y.Y.Y.Y.Y.Y.Y.Y.Y.Y.Y.Y.Y.Y.Y.Y.Y.V.V.",
"X X X Y.Y.Y.Y.Y.Y.Y.Y.Y.Y.Y.Y.V.V.V.V.V.V.V.V.V.V.V.f.f.f.f.f.p.p.p.p.Y.Y.Y.Y.Y.Y.Y.Y.p.Y.Y.Y.Y.Y.Y.Y.Y.Y.Y.Y.Y.Y.Y.Y.Y.Y.Y.V.V.",
"X X X Y.Y.Y.Y.Y.V.Y.Y.Y.V.V.V.Y.V.V.V.V.V.V.V.V.V.V.V.Y.Y.Y.Y.Y.Y.p.Y.Y.Y.Y.Y.Y.Y.Y.Y.Y.Y.Y.Y.Y.Y.Y.Y.Y.Y.Y.Y.Y.Y.Y.Y.Y.Y.Y.V.Y.",
"X X X X Y.Y.Y.Y.V.V.V.V.V.V.V.V.V.V.V.V.V.V.V.V.V.V.Y.Y.V.V.Y.Y.Y.Y.Y.Y.Y.Y.Y.Y.Y.Y.Y.Y.Y.Y.Y.Y.Y.Y.Y.Y.Y.Y.Y.Y.Y.Y.Y.Y.Y.Y.Y.Y.",
"$XX X X X X X X V.V.V.V.V.V.V.V.V.V.V.V.V.V.V.V.V.V.Y.V.V.V.V.Y.Y.Y.Y.Y.Y.Y.Y.V.V.V.Y.Y.Y.Y.Y.V.V.Y.Y.Y.Y.V.V.Y.Y.Y.Y.Y.Y.Y.Y.Y.",
"$XX X X X X X X X V.V.V.V.V.V.V.V.V.V.V.V.V.V.V.V.V.V.V.V.V.V.V.V.V.V.Y.Y.Y.V.V.V.V.V.Y.Y.V.V.V.V.V.V.Y.V.V.V.V.Y.Y.Y.Y.Y.Y.Y.Y.",
"X X X V.V.V.V.X X X Y.Y.Y.Y.Y.Y.Y.Y.Y.V.V.V.V.V.V.V.V.V.V.V.V.V.V.V.V.V.Y.Y.V.V.V.V.V.Y.V.V.V.V.V.V.V.V.V.V.V.V.Y.Y.Y.Y.Y.Y.Y.Y.",
"X X V.V.V.V.V.V.Y.V.V.V.V.V.V.V.V.V.V.V.V.V.V.V.V.V.V.V.V.V.V.V.V.V.V.V.V.V.V.V.V.V.V.Y.V.V.V.V.V.V.V.V.V.V.V.V.Y.Y.Y.Y.Y.V.V.V.",
"X X V.V.V.V.V.V.V.V.V.V.f.f.f.f.f.f.V.V.V.V.V.V.V.V.V.V.V.V.V.V.V.V.V.V.V.V.V.V.V.V.V.V.V.V.V.V.V.V.V.V.V.V.V.V.V.V.V.V.V.V.V.V.",
"X X V.V.V.V.V.V.V.V.f.f.f.f.f.f.f.f.f.V.f.f.f.f.V.V.V.V.V.V.Y.Y.Y.V.V.V.V.V.V.V.V.V.V.V.V.V.V.V.V.V.V.V.V.V.V.V.V.V.V.V.V.V.V.V.",
"X X X V.V.X X X f.f.f.f.f.f.f.f.f.f.f.f.f.f.f.f.f.V.V.V.Y.Y.Y.Y.Y.Y.V.V.V.V.V.V.V.V.V.V.f.f.f.V.V.V.V.V.V.V.V.V.V.V.V.V.V.V.V.V.",
"X X X X X X X V.V.V.V.f.f.f.f.f.f.f.f.f.f.f.f.f.f.Y.Y.Y.Y.Y.Y.Y.Y.Y.Y.Y.Y.Y.f.f.f.V.V.f.f.f.f.f.V.V.V.V.V.V.V.V.V.V.V.V.V.V.V.V.",
"$XX X X X X V.V.V.V.V.V.V.V.V.V.f.f.f.f.f.f.f.f.f.f.f.f.Y.Y.Y.Y.Y.Y.Y.Y.Y.f.f.f.f.f.f.f.V.V.f.f.f.V.V.V.V.V.V.f.f.f.V.V.V.V.V.V.",
"$X$XX X X X V.V.V.V.V.V.V.V.V.V.V.f.f.f.V.V.V.f.f.f.f.f.f.f.Y.Y.Y.f.f.f.f.f.V.V.f.f.f.V.V.V.V.f.f.f.V.V.V.V.f.f.f.f.f.V.V.V.f.f.",
"$X$XX X X X V.V.V.V.V.V.V.V.V.V.V.f.f.V.V.V.A.V B B B B 5.V.V.V.V.V.8.B B B B B Z.G.V.V.G.G.G.G.V.V.V.V.V.f.f.f.f.f.f.f.f.f.f.f.",
"$XX X X f.X X V.V.V.p.p.p.V.V.V.V.V.G.F.G.A.V B 1.1.1.V B e.V.F.G.e.B B Q 1.1.1.V V A.A.V V B 2.s.V.V.V.V.f.f.f.f.f.f.f.f.f.f.f.",
"X X X f.f.p.X X V.p.p.p.V.V.V.V.V.F.2.B B B B 6.B.B.H.C.V 8.t.B B B B V C.H.B.B.6.B B B B 1.1.1.2.s.V.V.f.f.f.f.V.V.V.f.f.f.f.f.",
"X X f.f.f.p.p.p.p.p.p.V.V.V.V.p.i.V B 2.2.2.1.B.H.H.H.J.,.N B B B B Q C.J.L.L.J.B.6.B B 6.B.J.Z.B 2.a.t.s.f.f.V.V.V.V.V.V.V.V.V.",
"X X f.f.f.f.p.p.p.p.p.p.V.V.p.i.Q B 2.G.H.N.2.B.H.H.H.B.=.Q 0.0.w.N ,.J.J._.{.L.H.B.V M B.H.J.A.1.B B B 3.t.s.V.V.V.V.V.V.V.V.V.",
"X X f.f.f.f.f.f.p.X p.p.p.q.q.7.B B D.J.H.N.1.B.P.L.J.C.Z u.oX}.W.Q -.J.^.|.'.P.H.B.y.y.P.L.H.J.C.B B B B B e.G.V.V.V.V.V.V.V.V.",
"X X X f.f.f.f.f.X X Y.Y.I.7.B B B B D.H.H.N.e.P.{._.L.r.V R.{.'.oXu.-.P._.{.'.'.L.P.{.{.|._.P.J.S.V 5.5.5.1.B 9.f.f.f.f.f.V.V.V.",
"$XX X X X X X X X Y.Y.Y.y.B 3.8.V B D.P.P.P.J.'.'.{.Q.p.R.}.'.'.{.R.C.^.|.'.'.'.~.].'.'.'.'._.J.A.-.J.J.J.S.1.3.s.f.f.f.f.f.f.f.",
"$X$XX X X X X X X Y.f.O.R 6.D.J.-.V r.).|.'.~.'.'.'.{.}.{.'.'.'.'.{.^.(.'.'.'.'.|.'.'.'.'.{._.H.J.J.H.H.H.J.r.B E.Y.Y.Y.Y.Y.Y.Y.",
"$XX X X V.V.Y.X X f.+., u ;./.J.J.-.u.).{.'.|.'.'.'.'.'.'.|.'.'.'.{.|.'.'.'.|.'.'.'.'.'.'.].~.H.H.H.H.H.H.J.r.N E.Y.Y.Y.Y.Y.Y.Y.",
"$XX X V.V.V.V.V.X k.1 X . 4 w v.J.J.~.~.'.|.|.|.'.'.'.|._.^.|.'.|.(._.|.'.'.^.].|.|.|.|.'.~.H.H.J.J.J.J.J.A.3.5.F.V.V.V.V.V.V.V.",
"$XX X V.V.V.V.V.k.1 . , 0 7 q v.J.H.H.H.~.~.~.~.|.|._.~.P.J.(.|.(.L.P._.'.'.^.~.~.~.~.~.!.H.J.L.m.q q } F.3.x S j.V.V.V.V.V.V.V.",
"$XX X V.V.V.V.V.P X , ` n.b.J.J.H.J.J.b.B.H.H.J.!.~.P.B.H.H.L.~.L.B.P._.'.'.|.^.~.H.H.H.H.J.m.8 2     > f a * . 2 j.V.V.V.V.V.Y.",
"$XX X V.V.j.6 8 1 . 7 n.>.M.J.H.H.b.b.M.H.H.H.H.H.H.H.H.H.H.H.H.H.H.^.|.'.'.'.|.|.J.H.H.H.J.M.t P I 6   . 1 e > . 2 c.V.V.V.Y.Y.",
"$X$XX X v.1 X X X . 7 n.>.N.J.H.H.N.x.B.H.H.H.J.B.b.b.J.H.H.H.H.H.H.^.|.'.'.'.'.~.J.H.H.H.H.J.J.J.J.M.6   0 n.` > X l.Y.Y.Y.Y.Y.",
"$XX X X X X & c c p - H n.n.B.H.H.J.c.c.H.J.B.b.c.>.>.b.H.H.H.H.H.H.L.(.|.{.{.!.H.H.H.H.H.H.H.H.H.H.J.t , | >.n.3 . , c.Y.Y.Y.Y.",
"X X X k.X & n V V m i @ r :.n.B.J.b.>.>.c.c.c.>.>.>.>.c.J.H.H.H.J.M.N.L.P.P.P.H.H.H.H.H.H.H.H.H.H.H.J.j.` :.>.>.` > X  .V.V.Y.V.",
"X X V.k.X y V B B V m c ^ >.>.n.c.>.>.>.>.>.>.x.B.B.B.M.b.H.H.J.M.>.M.H.H.H.H.H.H.B.b.B.H.H.H.H.J.J.N.x.>.>.>.>.n.1 X  .V.V.V.V.",
"X X V.k.X y V B B B B B &.>.>.>.>.>.>.N.B.x.x.B.H.H.J.H.M.n.n.c.x.>.x.N.H.H.H.H.H.B.x.n.c.b.H.B.c.c.x.>.>.>.>.) d @ X : c.V.V.V.",
"X X X k.X y B V k % % F >.>.>.>.>.>.N.H.H.B.B.H.H.H.H.J.N.>.>.>.b.B.b.x.n.B.H.H.H.B.x.x.B.B.H.B.>.>.>.>.>.>.x.4.m y X X ; =.f.V.",
"$XX X X X X a k # X 7 o.>.>.>.>.>.>.B.H.H.H.H.H.H.H.H.H.H.B.M.>.M.J.H.b.>.N.H.H.B.c.x.B.H.H.H.B.>.>.>.>.>.>.>.4.B m y X X *.f.f.",
"$X$XX X X X + $ . 3 >.>.>.>.>.>.>.>.x.B.B.H.H.H.H.H.H.H.H.H.H.b.b.H.H.H.c.>.B.B.c.>.x.B.H.H.H.N.>.>.>.>.X.>./ B B B N & X *.f.f.",
"$X+XX X X % % $ . 5 >.>.>.o.| ..>.>.>.>.x.B.H.H.B.c.H.H.H.H.J.M.>.M.H.B.c.>.>.>.>.>.>.n.B.B.B.>.>.>.x.&.B M B B B B V = X *.V.V.",
"$X+XX X i N B k # X 7 | | 3 $ v $.>.>.>.>.x.B.B.>.c.B.B.H.H.H.b.>.>.>.>.>.>.>.>.>.>.>.>.>.>.>.>.>.>.x.#.B B B B B B m & X _ V.V.",
"#XC X & B B B V k $ X o o $ k B B $.....>.>.>.>.>.>.>.c.B.B.b.>.>.>.>.>.>.>.X.>.>.>.>.>.>.>.>.>.>.>.>.>.&.V B m n n = X ; _ M.V.",
"#XC X & B B B B V l & $ . g N B B B 1.1.X.>.>.>.>.>.>.>.>.>.>.>.>.>.>.>.>...1...>.>.>.>...>.>.>.>.>.>.>.>./ B g $ X X : Y l.l.U.",
"@XC + & n V B B B B V j $ . g m B 1...>.>.>.>.>.>.>.>.>.>.>.X...>.>.>.>...1.1...>.>.>.X.1.>.>.>.>.>.>.>.X.4.B V i X X L h.l.z.U.",
"OXX X X & c b V B B B V j = = v V ..>.>.>.>.>.%.>.>.>.>.>.X.4.<.X.x.>.x.<.B ..>.>.>.>.X.1.>.>.>.>.>.>.x.) B B V g $ X X Y l.T.V.",
"X X X X X X & b B B B B B V V B B ) >.>.>.>.&.1.>.>.>.>.X./ <.M <.$.#.$.1.B ) >.>.>.$.&.M $.X.$.$.$...>.J n B B V g $ X Y  .} b.",
"X X X Y X X $ j V B B B B B B B B B / #.#.X.<.1.>.>.>.>.#.<.x.$.<.M 1.<.<.M B / #.&.B B B M / B n l J ( u s V B B V y X P  .} E ",
"X X l.Y X % j V B B V B B B B B B B B B 4.>.X.M #.>.x.X.4.4.x.>.x.#.%.x.x.<.B B B B B B B B B V b i s u O g V B B V y X P  .} W ",
"X X l.Y X y ! B V b h v B B B B B B B V >.>.X.B V ) &.4.N 4.x.>.>.x.$...$.T B B B B B B B B B B B V v a = y n V V c & X Y E E i.",
"X X l.Y X % k ~ n y O g V B B B B B B B / X./ B B B B B B 1.%.>.>.x.4.<.T B B B B B B B B B V B B B B ! j O y h h % X 4 g.l.K.Y.",
"X X l.g.3 X % g y . = v V B B B B B B B B 4.B B B B B B B B 1.%.x.$.1.B B B B B B B B B B m j V V B B V j X X X X X 4 g.l.h.U.Y.",
"X X X } { 3 X X X X g ! B B B B V B B B B B B B B B B B B B B 1./ 1.B B B B B B B B B B V n $ a j V V v = , G A A 8 _  .h.K.Y.Y.",
"$XX X X X _ q q q 1 & c V V V V h n B B B B B B B B B V B B B B B B V B B B B B B B B V N i X . % a a = X 9 z.l. . .} } c.Y.Y.Y.",
"$X$XX X X X  . . .8 X & i i i i $ b V B B B B B B V n h V B B B B V j c V B B B B B N i y X X ; w 4 X X , I  .} } } v.b.V.V.V.V.",
"$XX X X V.V.*.^ ^ K , X X X X X X = m B B B B B V n & $ h V V V V l # k V V V B B B B z w w w U  ._ w w I  .} } } v.V.V.V.V.V.V.",
"$XX X V.V.V.V.M.c.^ K D D D D e e e [ O.B B B m y & X X $ y y y y % X & y y y n B B O.@. . . . .} }  . . .} ^ *.-.V.V.V.V.V.V.V.",
"X X Y.V.V.V.V.V.V.N.c. .^ ^ ^  . . .} } ( ] ] ' t t P f X X X X X X X X f t t [ ] ] } } } }  .N.c.} } } } *.s.s.f.f.V.V.V.V.V.V.",
"X V.V.V.V.V.V.V.V.V.V.N.k.} } } } } } } } }  .M. . . .{ P P P P P P P P {  . .} } } } } } } ^ *.f.c.} j.s.s.f.f.f.f.V.V.V.V.V.V.",
"X V.V.V.V.V.V.V.V.V.V.Y.U.U.U.z.l. . .} }  .N.N.} } } }  . . . . . . . .} } } } } } } } } ^ ^ +.f.f.s.s.f.f.f.f.f.f.V.V.V.V.V.V.",
"X V.V.V.V.V.V.V.V.V.Y.Y.Y.Y.Y.U.U.U.U. . .N.V.N.} } } ^ +.=.^ } } } } } }  .M.N. . . . .O.s.s.s.f.f.f.f.f.f.f.f.f.f.f.f.f.V.V.V.",
"X V.V.V.V.V.V.V.V.V.Y.Y.Y.Y.Y.Y.f.f.f.s.V.V.f.s.^ ^ ^ +.-.^ ^ ^ ^ } } ^ ^ -.f.V.V.V.V.s.s.f.f.f.f.f.f.f.f.f.f.f.f.f.f.f.f.f.f.f."
};
