/* XPM */
static const char *left7[] = {
/* columns rows colors chars-per-pixel */
"64 64 186 2 ",
"   c #0D112C",
".  c #13162B",
"X  c #161C2E",
"o  c #191F2E",
"O  c #121227",
"+  c #171E30",
"@  c #1C232E",
"#  c #172031",
"$  c #182333",
"%  c #1A2837",
"&  c #1C2C3A",
"*  c #1E323E",
"=  c #21292F",
"-  c #242C33",
";  c #2E3B34",
":  c #2C3634",
">  c #333E35",
",  c #2F403B",
"<  c #364236",
"1  c #3C4B37",
"2  c #3B4437",
"3  c #434739",
"4  c #405238",
"5  c #49563A",
"6  c #465A3A",
"7  c #4C5C3B",
"8  c #4C613B",
"9  c #53633C",
"0  c #5B6D3E",
"q  c #5E713F",
"w  c #5E793F",
"e  c #63743F",
"r  c #1F3541",
"t  c #213B45",
"y  c #213E48",
"u  c #26484E",
"i  c #24434A",
"p  c #274D52",
"a  c #284E53",
"s  c #295256",
"d  c #2C5B5C",
"f  c #2B5759",
"g  c #3E5543",
"h  c #33635E",
"j  c #2A5E61",
"k  c #2E6161",
"l  c #2F6868",
"z  c #306764",
"x  c #316966",
"c  c #326C69",
"v  c #34726D",
"b  c #3E7E6F",
"n  c #347773",
"m  c #377A73",
"M  c #397C73",
"N  c #367A7E",
"B  c #2E7575",
"V  c #4C684A",
"C  c #4B6847",
"Z  c #5E7940",
"A  c #49775A",
"S  c #567750",
"D  c #626342",
"F  c #657A41",
"G  c #6A7C41",
"H  c #7B7B49",
"J  c #407F6D",
"K  c #417665",
"L  c #517261",
"P  c #597D68",
"I  c #407F72",
"U  c #398178",
"Y  c #398077",
"T  c #5E8354",
"R  c #578C5F",
"E  c #5B8E5D",
"W  c #57815A",
"Q  c #5E905B",
"!  c #6D8242",
"~  c #6E8D43",
"^  c #6B8B4D",
"/  c #67864D",
"(  c #778E45",
")  c #788F44",
"_  c #739445",
"`  c #799145",
"'  c #759C4C",
"]  c #799F4A",
"[  c #799C46",
"{  c #648954",
"}  c #668D59",
"|  c #669456",
" . c #699654",
".. c #6D9851",
"X. c #619259",
"o. c #6A935B",
"O. c #6D995F",
"+. c #729C5D",
"@. c #7B9850",
"#. c #7DA147",
"$. c #7CA148",
"%. c #7BA15A",
"&. c #4D8665",
"*. c #44826D",
"=. c #49856C",
"-. c #4E8A6C",
";. c #4F8864",
":. c #528962",
">. c #588D67",
",. c #538B69",
"<. c #56896E",
"1. c #5C9165",
"2. c #5F9669",
"3. c #458272",
"4. c #578C70",
"5. c #5D8C75",
"6. c #629463",
"7. c #689661",
"8. c #6C9C63",
"9. c #68956C",
"0. c #719B6F",
"q. c #628E74",
"w. c #679175",
"e. c #6FA166",
"r. c #75A462",
"t. c #78A763",
"y. c #79A863",
"u. c #89884C",
"i. c #918F4E",
"p. c #829C48",
"a. c #93914F",
"s. c #9D9A51",
"d. c #81A346",
"f. c #84A548",
"g. c #8AA349",
"h. c #83A949",
"j. c #8CAA49",
"k. c #90A448",
"l. c #92AD4A",
"z. c #96B14B",
"x. c #9CB44C",
"c. c #9BB94E",
"v. c #84A657",
"b. c #86AB56",
"n. c #8BAD54",
"m. c #83A658",
"M. c #91AE52",
"N. c #8FB252",
"B. c #93B351",
"V. c #A1B74C",
"C. c #A3B94C",
"Z. c #A5A254",
"A. c #B0AC57",
"S. c #A7BA50",
"D. c #ABBD53",
"F. c #A6B459",
"G. c #BAB55A",
"H. c #BFBA5B",
"J. c #8CAA6C",
"K. c #8FA363",
"L. c #91AD6B",
"P. c #AFBE6A",
"I. c #AAC04C",
"U. c #B2C057",
"Y. c #B3C159",
"T. c #BAC55D",
"R. c #BEC761",
"E. c #BEC765",
"W. c #C1C963",
"Q. c #C5CB66",
"!. c #C7CC67",
"~. c #C6CC67",
"^. c #C7CC67",
"/. c #C9CD67",
"(. c #CCCF67",
"). c #C8CD68",
"_. c #C8CD68",
"`. c #CACE69",
"'. c #C8CD68",
"]. c #CED066",
"[. c #3A8487",
"{. c #41999A",
"}. c #43A09F",
"|. c #46A8A6",
" X c #47ABA9",
".X c #47ABA9",
/* pixels */
"X X c.c.c.c.c.c.H.H.H.H.H.H.H.y.y.y.y.y.y.y.y.y.y.y.y.y.y.y.y.y.y.y.y.y.y.y.y.y.y.y.y.y.y.y.y.y.y.y.y.y.y.y.y.y.y.y.y.y.y.y.y.y.",
"X X X X X c.c.c.H.H.H.H.c.y.y.y.c.c.c.y.y.y.y.y.y.y.y.y.y.y.y.y.y.y.y.y.y.y.y.y.w.w.w.w.y.y.y.y.y.y.y.y.y.y.y.y.y.y.y.y.y.c.c.c.",
" XX X X X X X H.H.H.H.c.c.c.c.c.c.c.c.c.c.c.c.y.y.y.y.y.y.y.y.y.y.y.y.y.y.y.y.w.w.w.w.w.w.c.c.c.c.c.c.c.c.w.w.w.w.y.y.y.c.c.c.c.",
" X X XX X X H.H.H.H.H.c.c.c.c.c.c.c.y.y.y.y.y.y.y.y.y.y.y.y.y.y.y.y.y.w.w.w.y.w.w.w.w.w.w.w.w.w.w.w.c.c.w.w.w.w.w.w.w.y.c.c.c.c.",
" X XX X H.H.H.H.H.H.c.c.c.c.c.c.c.c.c.c.y.y.y.y.y.y.y.y.y.y.y.y.y.y.w.w.w.w.w.w.w.w.w.w.w.w.w.w.w.w.w.w.w.H.H.H.w.w.w.w.c.c.c.H.",
" XX X H.H.H.H.H.H.H.c.c.c.c.c.c.c.c.c.c.c.c.y.y.y.y.y.y.y.y.y.y.y.w.w.w.w.w.H.H.H.H.w.w.w.w.H.H.H.H.w.w.H.H.H.H.H.w.w.w.w.H.H.H.",
"X X X H.H.H.H.H.H.H.H.c.H.H.c.c.c.c.c.c.c.c.c.c.c.c.y.y.y.y.y.y.y.w.w.w.H.H.H.H.H.H.H.w.w.H.H.H.H.H.H.H.H.H.H.H.H.H.H.H.H.H.c.c.",
"X X X H.H.H.H.H.H.H.H.H.H.H.H.c.c.c.c.c.c.c.c.c.c.c.y.y.y.y.y.w.w.w.w.H.H.H.H.H.H.H.H.w.H.H.H.H.H.H.H.H.H.H.H.H.H.H.H.H.H.H.c.c.",
"X X X H.H.H.H.H.c.H.H.H.c.c.c.H.c.c.c.c.c.c.c.c.c.c.c.H.H.H.H.H.H.w.H.H.H.H.H.H.H.H.H.H.H.H.H.H.H.H.H.H.H.H.H.H.H.H.H.H.H.H.c.H.",
"X X X X H.H.H.H.c.c.c.c.c.c.c.c.c.c.c.c.c.c.c.c.c.c.H.H.c.c.H.H.H.H.H.H.H.H.H.H.H.H.H.H.H.H.H.H.H.H.H.H.H.H.H.H.H.H.H.H.H.H.H.H.",
" XX X X X X X X c.c.c.c.c.c.c.c.c.c.c.c.c.c.c.c.c.c.H.c.c.c.c.H.H.H.H.H.H.H.H.c.c.c.H.H.H.H.H.c.c.H.H.H.H.c.c.H.H.H.H.H.H.H.H.H.",
" XX X X X X X X X c.c.c.c.c.c.c.c.c.c.c.c.c.c.c.c.c.c.c.c.c.c.c.c.c.c.H.H.H.c.c.c.c.c.H.H.c.c.c.c.c.c.H.c.c.c.c.H.H.H.H.H.H.H.H.",
"X X X c.c.c.c.X X X H.H.H.H.H.H.H.H.H.c.c.c.c.c.c.c.c.c.c.c.c.c.c.c.c.c.H.H.c.c.c.c.c.H.c.c.c.c.c.c.c.c.c.c.c.c.H.H.H.H.H.H.H.H.",
"X X c.c.c.c.c.c.H.c.c.c.c.c.c.c.c.c.c.c.c.c.c.c.c.c.c.c.c.c.c.c.c.c.c.c.c.c.c.c.c.c.c.H.c.c.c.c.c.c.c.c.c.c.c.c.H.H.H.H.H.c.c.c.",
"X X c.c.c.c.c.c.c.c.c.c.y.y.y.y.y.y.c.c.c.c.c.c.c.c.c.c.c.c.c.c.c.c.c.c.c.c.c.c.c.c.c.c.c.c.c.c.c.c.c.c.c.c.c.c.c.c.c.c.c.c.c.c.",
"X X c.c.c.c.c.c.c.c.y.y.y.y.y.y.y.y.y.c.y.y.y.y.c.c.c.c.c.c.H.H.H.c.c.c.c.c.c.c.c.c.c.c.c.c.c.c.c.c.c.c.c.c.c.c.c.c.c.c.c.c.c.c.",
"X X X c.c.X X X y.y.y.y.y.y.y.y.y.y.y.y.y.y.y.y.y.c.c.c.H.H.H.H.H.H.c.c.c.c.c.c.c.c.c.c.y.y.y.c.c.c.c.c.c.c.c.c.c.c.c.c.c.c.c.c.",
"X X X X X X X c.c.c.c.y.y.y.y.y.y.y.y.y.y.y.y.y.y.H.H.H.H.H.H.H.H.H.H.H.H.H.y.y.y.c.c.y.y.y.y.y.c.c.c.c.c.c.c.c.c.c.c.c.c.c.c.c.",
" XX X X X X c.c.c.c.c.c.c.c.c.c.y.y.y.y.y.y.y.y.y.y.y.y.H.H.H.H.H.H.H.H.H.y.y.y.y.y.y.y.c.c.y.y.y.c.c.c.c.c.c.y.y.y.c.c.c.c.c.c.",
" X XX X X X c.c.c.c.c.c.c.c.c.c.c.y.y.y.c.c.c.y.y.y.y.y.y.y.H.H.H.y.y.y.y.y.c.c.y.y.y.c.c.c.c.y.y.y.c.c.c.c.y.y.y.y.y.c.c.c.y.y.",
" X XX X X X c.c.c.c.c.c.c.c.c.c.c.y.y.c.c.c.n.M m m m m >.c.c.c.c.c.1.m m m m m b.B.c.c.B.B.B.B.c.c.c.c.c.y.y.y.y.y.y.y.y.y.y.y.",
" XX X X y.X X c.c.c.w.w.w.c.c.c.c.c.B.N.B.n.M m *.*.*.M m 6.c.N.B.1.m m I =.*.*.M M n.n.M M m =.r.c.c.c.c.y.y.y.y.y.y.y.y.y.y.y.",
"X X X y.y.w.X X c.w.w.w.c.c.c.c.c.N.=.m m m m ,.x.x.V.v.M 1.8.m m m m M v.V.x.x.,.m m m m =.=.*.=.r.c.c.y.y.y.y.c.c.c.y.y.y.y.y.",
"X X y.y.y.w.w.w.w.w.w.c.c.c.c.w.q.M m =.=.=.*.x.V.V.V.C.%.n m m m m I v.C.S.S.C.x.,.m m ,.x.C.b.m =.e.8.r.y.y.c.c.c.c.c.c.c.c.c.",
"X X y.y.y.y.w.w.w.w.w.w.c.c.w.q.I m =.B.V.z.=.x.V.V.V.x.O.I 4.4.3.n %.C.C.W./.S.V.x.M b x.V.C.n.=.m m m -.8.r.c.c.c.c.c.c.c.c.c.",
"X X y.y.y.y.y.y.w.X w.w.w.5.5.<.m m M.C.V.z.=.x.D.S.C.v.B 0.].(.L.I +.C.T.).!.D.V.x.9.9.D.S.V.C.v.m m m m m 6.B.c.c.c.c.c.c.c.c.",
"X X X y.y.y.y.y.X X H.H.F.<.m m m m M.V.V.z.6.D./.W.S.7.M J./.!.].0.+.D.W./.!.!.S.D././.).W.D.C.m.M >.>.>.=.m 2.y.y.y.y.y.c.c.c.",
" XX X X X X X X X H.H.H.9.m -.1.M m M.D.D.D.C.!.!./.P.w.J.(.!.!./.J.v.T.).!.!.!.Y.~.!.!.!.!.W.C.n.+.C.C.C.m.=.-.r.y.y.y.y.y.y.y.",
" X XX X X X X X X H.y.{ K ,.M.C.+.M 7.E.).!.Y.!.!.!./.(./.!.!.!.!./.T.R.!.!.!.!.).!.!.!.!./.W.V.C.C.V.V.V.C.7.n K.H.H.H.H.H.H.H.",
" XX X X c.c.H.X X y.} ; r @.I.C.C.+.0.E./.!.).!.!.!.!.!.!.).!.!.!./.).!.!.!.).!.!.!.!.!.!.~.Y.V.V.V.V.V.V.C.7.n K.H.H.H.H.H.H.H.",
" XX X c.c.c.c.c.X p.< X   3 0 g.C.C.Y.Y.!.).).).!.!.!.).W.T.).!.).R.W.).!.!.T.~.).).).).~.Y.V.V.C.C.C.C.C.n.-.,.n.c.c.c.c.c.c.c.",
" XX X c.c.c.c.c.p.< . > 8 6 9 g.C.V.V.V.Y.Y.Y.Y.).).W.Y.D.C.R.).R.S.D.W.!.!.T.Y.Y.Y.Y.Y.U.V.C.S.k.9 9 ) n.-.j ^ c.c.c.c.c.c.c.c.",
" XX X c.c.c.c.c.F X > ~ h.j.C.C.V.C.V.j.x.V.V.C.U.Y.D.V.V.V.S.Y.S.x.D.W.!.!.).T.Y.V.V.V.V.C.k.7 2     : A k & > p.c.c.c.c.c.c.H.",
" XX X c.c.p.5 7 < . 6 h.$.l.C.V.V.j.j.l.V.V.V.V.V.V.V.V.V.V.V.V.V.V.T.).!.!.!.).).C.V.V.V.C.l.e G G 5   & & . X < p.c.c.c.c.H.H.",
" X XX X g.< X X X . 8 h.$.z.C.V.V.z.d.x.V.V.V.C.x.j.j.C.V.V.V.V.V.V.T.).!.!.!.!.Y.C.V.V.V.V.C.C.C.C.l.5 . 2 Z ; . > Z.H.H.H.H.H.",
" XX X X X X & k k y = Z h.h.x.V.V.C.h.f.x.C.x.j.f.#.#.j.V.V.V.V.V.V.S.R.)././.U.V.V.V.V.V.V.V.V.V.V.C.G   8 h.~ ; . > g.H.H.H.H.",
"X X X p.X & c M M v t @ w #.h.x.C.j.#.#.f.f.f.#.#.#.#.f.C.V.V.V.C.l.z.S.D.D.D.V.V.V.V.V.V.V.V.V.V.V.C.e < _ #.#.~ ; X ` c.c.H.c.",
"X X c.p.X r M m m m v k T #.#.h.f.#.#.#.#.#.#.d.x.x.x.l.j.V.V.C.l.#.l.V.V.V.V.V.V.x.j.x.V.V.V.V.V.V.C.g._ #.#.#.h.< X ` c.c.c.c.",
"X X c.p.X r M m m m m m X.#.#.#.#.#.#.z.x.#.d.x.V.V.V.V.l.h.h.f.d.#.d.z.V.V.V.V.V.x.d.h.f.j.V.V.V.V.z.h.#.#.#.#.6 @ X : g.c.c.c.",
"X X X p.X r m M f % % C $.#.#.#.#.#.z.V.V.x.x.V.V.V.V.C.z.#.#.$.j.x.j.d.h.x.V.V.V.x.d.d.x.x.V.x.h.h.d.#.#.#.#.E v r X X - O.y.c.",
" XX X X X X i d # X 6 [ #.#.#.#.#.#.x.V.V.V.V.V.V.V.V.V.V.x.l.#.l.C.x.j.#.z.V.V.x.f.d.x.V.V.V.x.#.#.#.#.#.#.#.:.m v r X X o.y.y.",
" X XX X X X + $ . 1 #.#.#.#.#.#.#.#.d.x.x.V.V.V.V.x.V.V.V.V.V.j.j.V.V.V.f.#.x.x.f.#.d.x.V.V.V.z.#.#.#.#.#.#.#.:.m m n & X o.y.y.",
" X{.X X X % % $ . 4 #.#.#.[ _ ' $.#.#.#.d.x.V.V.x.f.V.V.V.V.C.l.#.l.x.x.f.#.$.#.#.#.#.h.x.x.x.#.#.#.#.$.] ] :.m m m M * X o.c.c.",
" X{.X X t n m d # X 6 _ _ 1 $ z  .#.#.#.#.d.x.x.#.f.x.x.V.V.V.j.#.#.#.#.#.#.#.#.#.#.#.#.#.#.#.#.#.#.#.X.m M m m m m v & X ! c.c.",
"|.N X & m m m M f $ X o o $ d m m | ' ' $.#.#.#.#.#.#.f.x.x.j.#.#.#.#.#.#.#.#.#.#.#.#.#.#.#.#.#.#.#.#.| M m m m v c * X = ! l.c.",
"|.N X & m m m m M f & $ . p n m m m m *.] #.#.#.#.#.#.#.#.#.#.#.#.#.#.#.#.#.#.' $.#.#.#.#.#.#.#.#.#.#.#.X.M m v r X X - H a.a.G.",
"}.N + & c M m m m m M s $ . p v m m *.] #.#.#.#.#.#.#.#.#.#.#.] ] #.#.#.#.#.' J ' #.#.#.$.' #.#.#.#.#.#.d.E m a $ X X D i.a.s.G.",
"[.X X X & k x M m m m M s * * z m m ' #.#.#.#.$...#.#.#.#.]  .&.;.] #.#.#.' J *.] #.#.#.' *.#.#.#.#.#.#.] :.m M a $ X X H a.A.c.",
"X X X X X X & x m m m m m M M m m m X.#.#.$. .| :.#.#.#.] :.b *.n :. .|  .*.=.] #.#.#.#.| :.#.#.#.#.#.d.Q m m m M p $ X H ` ) j.",
"X X X H X X $ s M m m m m m m m m m m Q | ] &.J #.#.#.#.| M |  .&.b *.&.M m E $.#.#.| X.b  .#.#.#.#.d.' A c m m m M r X F ` ) L ",
"X X a.H X % s M m m M m m m m m m m m m :.] ] b | #.d.] :.:.d.#.d.| ..d.Q b m E X.X.m m m M X.X.X.X.| A r u M m m M r X F ` ) P ",
"X X a.H X r U m M x a z m m m m m m m M ] #.] m M Q X.:.n :.d.#.#.#. .' d.&.m m m m m m m m m m m c a r O p M m M k & X H L L q.",
"X X a.H X % d Y c r O p M m m m m m m m E ] E m m m m m m *...#.#.d.:.&.E J m m m m m m m m m m m x i u * * x U j % X 3 u.a.Z.H.",
"X X a.u.1 X % p r . * z m m m m m m m m m :.m m m m m m m m *...d. .*.m m m m m m m m m m m M m m m M U s . * p & X 3 u.a.i.G.H.",
"X X X ) ( 1 X X X X p U m m m m M m m m m m m m m m m m m m m *.R *.m m m m m m m m m m m v s M m m M z * X X X 3 7 ! ` i.Z.H.H.",
" XX X X X ! 9 9 9 < & k M M M M a c m m m m m m m m m M m m m m m m M m m m m m m m m m m c $ a M M x & X 2 D D ! ` ) ) g.H.H.H.",
" X XX X X X ` ` ` 7 X & y y y y $ x M m m m m m m M c a M m m m m M s k m m m m m m m M v t X $ y y & X X 7 ` ` ` ) g.j.c.c.c.c.",
" XX X X c.c.o.T T S ; X X X X X X * v m m m m m M c & $ a M M M M f # d M m m m m m n t * X X X X X X > 0 G ` ) ) g.c.c.c.c.c.c.",
" XX X c.c.c.c.l.g.T S V V V V q q q / { m m m v r & X X $ r r r r % X & z M m m m m m h 0 q q q q q q G ` ` T o.+.c.c.c.c.c.c.c.",
"X X H.c.c.c.c.c.c.z.g.` T T T ` ` ` ) ) W ^ ^ / e e F g X X X X X X X X & * * c m m { ^ ` ` ` z.j.` ` ` ) o.r.r.y.y.c.c.c.c.c.c.",
"X c.c.c.c.c.c.c.c.c.x.z.p.) ) ) ) ) ) ) ) ) ` l.` ` ` ( F F F F F F F F F F F ^ ^ ^ ) ) ) ) T o.y.g.) p.r.r.y.y.y.y.c.c.c.c.c.c.",
"X c.c.c.c.c.c.c.c.c.c.H.G.G.G.s.a.` ` ) ) ` z.z.) ) ) ) ` ` ` ` ` ` ` ` ` ` ` ` ) ) ) ) ) T T } y.y.r.r.y.y.y.y.y.y.c.c.c.c.c.c.",
"X c.c.c.c.c.c.c.c.c.H.H.H.H.H.G.G.G.G.` ` z.c.z.) ) ) T } O.T ) ) ) ) ) ) ` l.x.` ` ` ` { r.r.r.y.y.y.y.y.y.y.y.y.y.y.y.y.c.c.c.",
"X c.c.c.c.c.c.c.c.c.H.H.H.H.H.H.y.y.y.r.c.c.y.r.T T T } +.T T T T ) ) T T +.y.c.c.c.c.r.r.y.y.y.y.y.y.y.y.y.y.y.y.y.y.y.y.y.y.y."
};
