/* XPM */
static const char *obstacle2[] = {
/* columns rows colors chars-per-pixel */
"64 64 186 2 ",
"   c #0D112C",
".  c #12162B",
"X  c #151B2D",
"o  c #181F2E",
"O  c #121227",
"+  c #171F30",
"@  c #1B222F",
"#  c #172031",
"$  c #182333",
"%  c #1A2836",
"&  c #1C2C3A",
"*  c #1E323E",
"=  c #21292F",
"-  c #212B33",
";  c #282D33",
":  c #2B3332",
">  c #2E3B34",
",  c #2E3D3A",
"<  c #333E35",
"1  c #2F403B",
"2  c #364336",
"3  c #3A4636",
"4  c #3B4537",
"5  c #43463A",
"6  c #424938",
"7  c #405238",
"8  c #465A3A",
"9  c #4C5D3B",
"0  c #4A5639",
"q  c #4C613B",
"w  c #53633C",
"e  c #5B6D3E",
"r  c #5E713F",
"t  c #5E793F",
"y  c #63743F",
"u  c #1F3541",
"i  c #213C46",
"p  c #203742",
"a  c #26484E",
"s  c #23424A",
"d  c #3E5543",
"f  c #274D52",
"g  c #284E53",
"h  c #295155",
"j  c #2A5659",
"k  c #2C5C5D",
"l  c #33635E",
"z  c #2A5E61",
"x  c #2E6162",
"c  c #2F6868",
"v  c #306764",
"b  c #316966",
"n  c #326D69",
"m  c #35736D",
"M  c #3E7E6F",
"N  c #357672",
"B  c #377A73",
"V  c #397C73",
"C  c #2E7575",
"Z  c #4C684A",
"A  c #4B6847",
"S  c #5E7940",
"D  c #476258",
"F  c #49775A",
"G  c #567750",
"H  c #626342",
"J  c #657A40",
"K  c #6A7C41",
"L  c #7B7B49",
"P  c #407B69",
"I  c #517261",
"U  c #597C68",
"Y  c #407F72",
"T  c #398178",
"R  c #5E8354",
"E  c #578C5F",
"W  c #5B8E5C",
"Q  c #57815A",
"!  c #5F905A",
"~  c #6D8342",
"^  c #6E8D43",
"/  c #6B8B4D",
"(  c #67864D",
")  c #708643",
"_  c #778E45",
"`  c #788F44",
"'  c #739445",
"]  c #799145",
"[  c #749C4C",
"{  c #799F4A",
"}  c #799C46",
"|  c #648954",
" . c #668D59",
".. c #669455",
"X. c #699654",
"o. c #6E9950",
"O. c #629259",
"+. c #6A935B",
"@. c #6E995E",
"#. c #729C5D",
"$. c #7B9850",
"%. c #7DA147",
"&. c #7CA148",
"*. c #7BA15A",
"=. c #4D8665",
"-. c #44826D",
";. c #49856D",
":. c #4E8A6C",
">. c #528963",
",. c #588D67",
"<. c #538B69",
"1. c #56896E",
"2. c #5C9165",
"3. c #5F9669",
"4. c #458272",
"5. c #578C70",
"6. c #5D8C75",
"7. c #629463",
"8. c #689661",
"9. c #6C9C63",
"0. c #68956C",
"q. c #719B6F",
"w. c #628E74",
"e. c #679175",
"r. c #6FA166",
"t. c #75A462",
"y. c #78A763",
"u. c #79A863",
"i. c #89874C",
"p. c #918F4E",
"a. c #829C48",
"s. c #809947",
"d. c #93914F",
"f. c #9D9A51",
"g. c #A09D53",
"h. c #81A346",
"j. c #84A548",
"k. c #8AA349",
"l. c #83A949",
"z. c #8CAA49",
"x. c #90A448",
"c. c #92AD4A",
"v. c #96B14B",
"b. c #9BB54C",
"n. c #9BB94E",
"m. c #84A657",
"M. c #86AB56",
"N. c #8BAD54",
"B. c #83A658",
"V. c #91AE52",
"C. c #8FB252",
"Z. c #93B351",
"A. c #A1B74C",
"S. c #A3B94C",
"D. c #A5A154",
"F. c #ACA856",
"G. c #A8A455",
"H. c #B0AC57",
"J. c #A7BA50",
"K. c #ABBD53",
"L. c #A6B459",
"P. c #BAB55A",
"I. c #BFBA5B",
"U. c #8CAA6C",
"Y. c #8FA363",
"T. c #91AD6B",
"R. c #AFBE6A",
"E. c #AAC04C",
"W. c #B2C057",
"Q. c #B3C159",
"!. c #BAC55D",
"~. c #BDC760",
"^. c #BEC764",
"/. c #BEC765",
"(. c #C1C963",
"). c #C5CB66",
"_. c #C7CC67",
"`. c #C6CC67",
"'. c #C7CC67",
"]. c #C9CD67",
"[. c #CCCF67",
"{. c #C8CD68",
"}. c #C8CD68",
"|. c #CACE69",
" X c #C8CD68",
".X c #CED066",
/* pixels */
"n.n.n.n.n.I.I.I.I.I.I.I.I.I.I.u.u.u.u.u.u.u.u.u.u.u.u.u.u.u.u.u.u.u.u.u.u.u.u.u.u.u.u.u.u.u.u.u.u.u.u.u.u.u.u.u.u.u.u.u.u.u.u.u.",
"n.n.n.n.n.n.I.I.I.I.I.I.n.u.u.u.n.n.n.u.u.u.u.u.u.u.u.u.u.u.u.u.u.u.u.u.u.u.u.u.e.e.e.e.u.u.u.u.u.u.u.u.u.u.u.u.u.u.u.u.u.n.n.n.",
"n.n.I.I.I.I.I.I.I.I.I.n.n.n.n.n.n.n.n.n.n.n.n.u.u.u.u.u.u.u.u.u.u.u.u.u.u.u.u.e.e.e.e.e.e.n.n.n.n.n.n.n.n.e.e.e.e.u.u.u.n.n.n.n.",
"I.I.I.I.I.I.I.I.I.I.I.n.n.n.n.n.n.n.u.u.u.u.u.u.u.u.u.u.u.u.u.u.u.u.u.e.e.e.u.e.e.e.e.e.e.e.e.e.e.e.n.n.e.e.e.e.e.e.e.u.n.n.n.n.",
"I.I.I.I.I.I.I.I.I.I.n.n.n.n.n.n.n.n.n.n.u.u.u.u.u.u.u.u.u.u.u.u.u.u.e.e.e.e.e.e.e.e.e.e.e.e.e.e.e.e.e.e.e.I.I.I.e.e.e.e.n.n.n.I.",
"n.n.n.n.n.I.I.I.I.I.n.n.n.n.n.n.n.n.n.n.n.n.u.u.u.u.u.u.u.u.u.u.u.e.e.e.e.e.I.I.I.I.e.e.e.e.I.I.I.I.e.e.I.I.I.I.I.e.e.e.e.I.I.I.",
"n.n.n.n.n.n.I.I.I.I.I.n.I.I.n.n.n.n.n.n.n.n.n.n.n.n.u.u.u.u.u.u.u.e.e.e.I.I.I.I.I.I.I.e.e.I.I.I.I.I.I.I.I.I.I.I.I.I.I.I.I.I.n.n.",
"n.n.n.n.n.n.n.n.I.I.I.I.I.I.I.n.n.n.n.n.n.n.n.n.n.n.u.u.u.u.u.e.e.e.e.I.I.I.I.I.I.I.I.e.I.I.I.I.I.I.I.I.I.I.I.I.I.I.I.I.I.I.n.n.",
"I.I.n.n.n.n.n.n.n.I.I.I.n.n.n.I.n.n.n.n.n.n.n.n.n.n.n.I.I.I.I.I.I.e.I.I.I.I.I.I.I.I.I.I.I.I.I.I.I.I.I.I.I.I.I.I.I.I.I.I.I.I.n.I.",
"I.I.I.n.n.n.n.n.n.n.n.n.n.n.n.n.n.n.n.n.n.n.n.n.n.n.I.I.n.n.I.I.I.I.I.I.I.I.I.I.I.I.I.I.I.I.I.I.I.I.I.I.I.I.I.I.I.I.I.I.I.I.I.I.",
"I.I.I.n.n.n.I.I.n.n.n.n.n.n.n.n.n.n.n.n.n.n.n.n.n.n.I.n.n.n.n.I.I.I.I.I.I.I.I.n.n.n.I.I.I.I.I.n.n.I.I.I.I.n.n.I.I.I.I.I.I.I.I.I.",
"I.I.I.n.n.I.I.I.I.I.n.n.n.n.n.n.n.n.n.n.n.n.n.n.n.n.n.n.n.n.n.n.n.n.n.I.I.I.n.n.n.n.n.I.I.n.n.n.n.n.n.I.n.n.n.n.I.I.I.I.I.I.I.I.",
"I.I.I.I.I.I.I.I.I.I.I.I.I.I.I.I.I.I.I.n.n.n.n.n.n.n.n.n.n.n.n.n.n.n.n.n.I.I.n.n.n.n.n.I.n.n.n.n.n.n.n.n.n.n.n.n.I.I.I.I.I.I.I.I.",
"I.I.I.I.I.I.I.I.I.n.n.n.n.n.n.n.n.n.n.n.n.n.n.n.n.n.n.n.n.n.n.n.n.n.n.n.n.n.n.n.n.n.n.I.n.n.n.n.n.n.n.n.n.n.n.n.I.I.I.I.I.n.n.n.",
"n.n.n.n.n.n.n.n.n.n.n.n.u.u.u.u.u.u.n.n.n.n.n.n.n.n.n.n.n.n.n.n.n.n.n.n.n.n.n.n.n.n.n.n.n.n.n.n.n.n.n.n.n.n.n.n.n.n.n.n.n.n.n.n.",
"n.n.n.n.n.n.n.n.n.n.u.u.u.u.u.u.u.u.u.n.u.u.u.u.n.n.n.n.n.n.I.I.I.n.n.n.n.n.n.n.n.n.n.n.n.n.n.n.n.n.n.n.n.n.n.n.n.n.n.n.n.n.n.n.",
"n.n.n.n.n.n.n.n.u.u.u.u.u.u.u.u.u.u.u.u.u.u.u.u.u.n.n.n.I.I.I.I.I.I.n.n.n.n.n.n.n.n.n.n.u.u.u.n.n.n.n.n.n.n.n.n.n.n.n.n.n.n.n.n.",
"n.n.n.n.n.n.n.u.u.u.u.u.u.u.u.u.u.u.u.u.u.u.u.u.u.I.I.I.I.I.I.I.I.I.I.I.I.I.u.u.u.n.n.u.u.u.u.u.n.n.n.n.n.n.n.n.n.n.n.n.n.n.n.n.",
"n.n.n.n.n.u.u.u.u.u.u.n.n.n.n.n.u.u.u.u.u.u.u.u.u.u.u.u.I.I.I.I.I.I.I.I.I.u.u.u.u.u.u.u.n.n.u.u.u.n.n.n.n.n.n.u.u.u.n.n.n.n.n.n.",
"n.n.n.u.u.u.u.u.u.u.n.n.n.n.n.n.n.u.u.u.n.n.n.u.u.u.u.u.u.u.I.I.I.u.u.u.u.u.n.n.u.u.u.n.n.n.n.u.u.u.n.n.n.n.u.u.u.u.u.n.n.n.u.u.",
"u.n.n.n.n.n.n.n.n.n.n.n.n.n.n.n.n.u.u.n.n.n.N.V B B B B ,.n.n.n.n.n.2.B B B B B M.Z.n.n.Z.Z.Z.Z.n.n.n.n.n.u.u.u.u.u.u.u.u.u.u.u.",
"u.u.u.u.n.n.n.n.n.n.n.n.n.n.n.n.n.n.Z.C.Z.N.V B -.-.-.V B 7.n.C.Z.2.B B Y ;.-.-.V V N.N.V V B ;.t.n.n.n.n.u.u.u.u.u.u.u.u.u.u.u.",
"n.n.n.n.n.n.n.n.n.n.n.n.n.n.n.n.n.C.;.B B B B <.b.b.A.m.V 2.9.B B B B V m.A.b.b.<.B B B B ;.;.-.;.t.n.n.u.u.u.u.n.n.n.u.u.u.u.u.",
"n.n.n.n.n.n.n.n.e.e.e.e.e.n.n.e.w.V B ;.;.;.-.b.A.A.A.S.*.N B B B B Y m.S.J.J.A.b.<.B B <.b.A.M.B ;.r.9.t.u.u.n.n.n.n.n.n.n.n.n.",
"n.n.n.n.n.n.n.e.e.e.e.e.e.e.e.w.Y B ;.Z.A.v.;.b.A.A.A.b.@.Y 5.5.4.N *.S.J.(.].J.A.b.V M b.A.S.N.;.B B B :.9.t.n.n.n.n.n.n.n.n.n.",
"n.n.n.n.n.e.e.e.I.I.I.I.e.6.6.1.B B V.A.A.v.;.b.K.J.S.m.C q..X[.T.Y #.S.!.{._.K.A.b.0.0.K.J.A.S.m.B B B B B 7.Z.n.n.n.n.n.n.n.n.",
"n.n.e.e.e.e.I.I.I.I.I.I.L.1.B B B B V.A.A.v.7.K.].(.J.8.V U.]._..Xq.#.K.(._._._.J.K.].].{.(.K.S.B.V ,.,.,.;.B 3.u.u.u.u.u.n.n.n.",
"I.e.e.I.I.I.I.I.I.I.I.I.0.B :.2.V B V.K.K.K.S._._.].R.e.U.[._._.].U.m.!.{._._._.Q.`._._._._.(.S.N.#.S.S.S.B.;.:.t.u.u.u.u.u.u.u.",
"I.I.I.I.I.I.I.I.I.I.u.| P <.V.S.#.V 8./.{._.Q._._._.].[.]._._._._.].!.~._._._._.{._._._._.].(.A.A.S.A.A.A.S.8.N Y.I.I.I.I.I.I.I.",
"n.n.n.n.n.n.I.I.u.u. ., u $.E.A.S.#.q./.]._.{._._._._._._.{._._._.].{._._._.{._._._._._.].`.Q.A.A.A.A.A.A.S.8.N Y.I.I.I.I.I.I.I.",
"n.n.n.n.n.n.n.n.n.a.2 X . 6 e k.A.S.Q.Q._.{.{.{._._._.{.(.!.{._.{.~.(.{._._.!.`.{.{.{.{._.Q.A.A.A.S.S.S.S.N.:.<.N.n.n.n.n.n.n.n.",
"n.n.n.n.n.n.n.n.a.2 . < q 8 w k.A.A.A.A.Q.Q.Q.Q.{.{.(.Q.K.S.~.{.~.J.K.(._._.!.Q.Q.Q.Q.Q.W.A.A.J.x.w w ` N.:.z / n.n.n.n.n.n.n.n.",
"I.I.I.n.n.k.9 w 3 X < ^ l.z.A.A.A.A.A.z.b.A.A.A.W.Q.K.b.A.A.J.Q.J.b.K.(._._.{.!.Q.A.A.A.A.A.x.9 4     : F x & < a.n.n.n.n.n.n.I.",
"I.I.I.I.k.3 X X X . q l.&.c.A.A.A.z.z.c.A.A.A.A.A.A.A.A.A.A.A.A.A.A.!.{._._._.{.{.S.A.A.A.A.c.y K K 0   & & . X 2 a.n.n.n.n.I.I.",
"I.I.I.F.5 X & k s . 8 l.&.c.A.A.A.v.h.b.A.A.A.A.b.z.c.A.A.A.A.A.A.A.!.{._._._._.Q.A.A.A.A.A.A.S.S.S.c.0 . 3 S > . < D.I.I.I.I.I.",
"n.n.n.g.X & b V m i = S l.l.b.A.A.A.j.j.A.A.b.z.j.&.&.z.A.A.A.A.A.A.J.~.{.].].W.A.A.A.A.A.A.A.A.A.A.S.K   q l.^ > . < k.I.I.I.I.",
"n.n.n.a.X u V B V m i @ t %.l.b.A.z.&.&.j.j.j.&.&.&.&.j.A.A.A.A.A.c.v.J.K.K.K.A.A.A.A.A.A.A.A.A.A.A.S.y 2 ' &.h.^ > X ] n.n.I.n.",
"n.n.n.a.X u V B B V m x R h.&.l.j.&.&.&.&.&.&.h.b.b.b.c.z.A.A.A.c.&.c.A.A.A.A.A.A.b.z.A.A.A.A.A.A.A.A.k.' &.&.&.l.2 X ] n.n.n.n.",
"n.n.n.a.X u B B B B B B O.&.&.&.&.&.&.v.b.h.h.b.A.A.A.A.c.l.j.j.h.&.h.v.A.A.A.A.A.b.h.l.j.z.A.A.A.A.v.h.&.&.&.%.8 @ X : k.n.n.n.",
"n.n.n.s.X X s V j % % A &.&.&.&.&.&.v.A.A.b.b.A.A.A.A.A.v.&.&.&.z.b.z.h.l.b.A.A.A.b.h.h.b.b.A.b.h.h.h.&.&.&.&.W m u X X - @.u.n.",
"u.u.+.- X X + % $ X 8 } &.&.&.&.&.&.b.A.A.A.A.A.A.A.A.A.A.b.c.&.c.A.A.z.&.v.A.A.b.j.h.b.A.A.A.b.&.&.&.&.&.&.h.>.B m u X X +.u.u.",
"u.@.- X X $ $ # . 7 &.&.&.&.&.&.&.&.h.b.b.A.A.A.A.A.A.A.A.A.A.z.z.A.A.A.j.&.b.b.j.&.h.b.A.A.A.v.&.&.&.&.&.&.&.>.B B N & X +.u.u.",
"n.z.@ X u N N j . 3 &.&.&.} ' [ &.&.&.&.h.b.A.A.b.j.A.A.A.A.A.c.&.c.b.b.j.&.&.&.&.&.&.l.b.b.b.&.&.&.&.&.{ { E B B B V * X +.n.n.",
"n.k.o & N B V k + X 8 ' ' 3 $ v X.&.&.&.&.h.b.b.&.j.b.b.A.A.A.z.&.&.&.&.&.&.&.&.&.&.&.&.&.&.&.&.&.&.&.O.B V B B B B m & X ~ n.n.",
"n.~ o & B B B B j $ X o o $ k B B X.[ [ &.&.&.&.&.&.&.j.b.b.z.&.&.&.&.&.&.&.&.&.&.&.&.&.&.&.&.&.&.&.&...V B B B m n * X - ~ c.n.",
"n.~ o & n V B B V j & $ X f N B B B B -.{ &.&.&.&.&.&.&.&.&.&.&.&.&.&.&.&.&.&.[ &.&.&.&.&.&.&.&.&.&.&.&.O.V B m u X X ; L d.d.P.",
"c.~ : X & v n V B B V h $ X f m B B -.{ &.&.&.&.&.&.&.&.&.&.&.[ { &.&.&.&.&.[ Y [ &.&.&.&.[ &.&.&.&.&.&.h.W B g # X X H p.d.f.P.",
"` ` ~ : X X * n B B B V h * * v V B [ &.&.&.&.&.o.&.&.&.&.&.{ =.=.{ &.&.&.[ -.-.{ &.&.&.[ -.&.&.&.&.&.&.{ >.B V g $ X X L d.H.n.",
"I I ] D X X $ g V B B B B V V B B B O.&.&.&.&.O.-.&.&.&.&.{ W =.M >.X.....-.B [ &.&.&.&.[ -.&.&.&.&.&.h.! B B B V f $ X L ] ` z.",
"U U I D X $ h V B B B B B B B B B B B ! ....{ =.-.&.&.&.h.O.>.h...=.M -.=.V B W &.&.&...! M X.&.&.&.h.[ F b B B B V u X J ] ` I ",
"e.F.d.D X u T B B V V V B B B B B B B B B >.&.[ M X.h.h.{ =.>.&.&.h.O.[ h.W V B W O.! B B B M O.O.O...F u a V B B V u X J ] ] U ",
"P.p.d.L X & x V V b g v B B B B B B B B V &.&.[ B M ! O.>.N E h.&.&.h.X.[ h.-.B B B B B B B B B B n g u . g V B V x & X L I I w.",
"I.D.d.i.5 X % x n u O f V B B B B B B B B W { E B B B B B B -.o.&.&.h.=.=.W M B B B B B B B B B B b s a * * b T z % X 5 i.d.D.I.",
"I.P.p.d.) 3 X & u . * v V B B B B B B B B B >.B B B B B B B B -.o.h.X.-.B B B B B B B B B B V B B B V T h . * f & X 5 i.d.p.P.I.",
"I.I.k.` ] ~ 9 3 X X f T B B B B V B B B B B B B B B B B B B B B -.E -.B B B B B B B B B B m h V B B V v * X X X 5 9 ~ ] p.G.I.I.",
"n.n.n.k.` ` ] ~ w 2 & x V V V V g n B B B B B B B B B V B B B B B B B B B B B B B B B B B n $ g V V b & X 4 H H ~ ] ` ` k.I.I.I.",
"n.n.n.n.z.k.` ] ] 9 X & i i i i $ b V B B B B B B V n g V B B B B V h x B B B B B B B V m p X $ i i & X X 0 ] ] ] ` k.z.n.n.n.n.",
"n.n.n.n.n.n.+.R R G , X X X X X X * m B B B B B V n & $ h V V V V j $ k V B B B B B N i * X X X X X X < e K ] ` ` k.n.n.n.n.n.n.",
"n.n.n.n.n.n.n.c.k.R G Z Z Z Z r r r ( | B B B m u & X X $ u u u u % X & v V B B B B B l e r r r r r r K ] ] R +.#.n.n.n.n.n.n.n.",
"n.n.n.n.n.n.n.n.n.v.k.] R R R ] ] ] ` ` Q / / ( y y J d X X X X X X X X & * * n B B | / ] ] ] v.z.] ] ] ` +.t.t.u.u.n.n.n.n.n.n.",
"n.n.n.n.n.n.I.I.n.n.b.v.a.` ` ` ` ` ` ` ` ` ] c.] ] ] ) J J J J J J J J J J J / / / ` ` ` ` R +.u.k.` a.t.t.u.u.u.u.n.n.n.n.n.n.",
"n.n.n.n.n.I.I.I.I.n.n.n.n.P.P.f.d.] ] ` ` ] v.v.` ` ` ` ] ] ] ] ] ] ] ] ] ] ] ] ` ` ` ` ` R R  .u.u.t.t.u.u.u.u.u.u.n.n.n.n.n.n.",
"n.n.n.I.I.I.I.I.I.I.I.I.I.I.I.P.P.P.P.] ] v.n.v.` ` ` R  .@.R ` ` ` ` ` ` ] c.b.] ] ] ] | t.t.t.u.u.u.u.u.u.u.u.u.u.u.u.u.n.n.n.",
"u.u.I.I.I.I.I.I.I.I.I.I.I.I.I.I.u.u.u.t.n.n.u.t.R R R  .#.R R R R ` ` R R #.u.n.n.n.n.t.t.u.u.u.u.u.u.u.u.u.u.u.u.u.u.u.u.u.u.u."
};
