/* XPM */
static const char *obstacle7[] = {
/* columns rows colors chars-per-pixel */
"64 64 188 2 ",
"   c #0D112C",
".  c #13162B",
"X  c #151B2D",
"o  c #181E2E",
"O  c #121227",
"+  c #171E30",
"@  c #1B222F",
"#  c #172031",
"$  c #192333",
"%  c #1A2837",
"&  c #1C2C3A",
"*  c #1E323E",
"=  c #21292F",
"-  c #222B32",
";  c #282D33",
":  c #2B3432",
">  c #2E3B34",
",  c #29373A",
"<  c #333E35",
"1  c #2F403B",
"2  c #364236",
"3  c #3A4636",
"4  c #3C4B37",
"5  c #3D4138",
"6  c #434739",
"7  c #405238",
"8  c #49563A",
"9  c #465A3A",
"0  c #4C5C3B",
"q  c #4C613B",
"w  c #53633C",
"e  c #5B6D3E",
"r  c #5E713F",
"t  c #5E793F",
"y  c #63743F",
"u  c #1F3541",
"i  c #213B45",
"p  c #213E48",
"a  c #26484E",
"s  c #24434A",
"d  c #3E5543",
"f  c #274D52",
"g  c #284E53",
"h  c #295256",
"j  c #2B5759",
"k  c #2C5B5C",
"l  c #33635E",
"z  c #2A5E61",
"x  c #2E6161",
"c  c #2F6868",
"v  c #306764",
"b  c #316966",
"n  c #326C69",
"m  c #34726D",
"M  c #3E7E6F",
"N  c #347773",
"B  c #377A73",
"V  c #397C73",
"C  c #2E7575",
"Z  c #4C684A",
"A  c #4B6847",
"S  c #5E7940",
"D  c #476358",
"F  c #49775A",
"G  c #567750",
"H  c #626342",
"J  c #657A41",
"K  c #6A7C41",
"L  c #7B7B48",
"P  c #407F6D",
"I  c #417665",
"U  c #517261",
"Y  c #597C68",
"T  c #407F72",
"R  c #398178",
"E  c #398077",
"W  c #5E8354",
"Q  c #578C5F",
"!  c #5B8E5D",
"~  c #57815A",
"^  c #5E905B",
"/  c #6D8343",
"(  c #6E8D43",
")  c #6B8B4D",
"_  c #67864D",
"`  c #778E45",
"'  c #788F44",
"]  c #739445",
"[  c #799145",
"{  c #759C4C",
"}  c #799F4A",
"|  c #799C46",
" . c #648955",
".. c #668D59",
"X. c #669456",
"o. c #699654",
"O. c #6D9851",
"+. c #619259",
"@. c #6A935B",
"#. c #6D995F",
"$. c #729C5D",
"%. c #7B9850",
"&. c #7DA147",
"*. c #7CA148",
"=. c #7BA15A",
"-. c #4D8665",
";. c #44826D",
":. c #49856C",
">. c #4E8A6C",
",. c #4F8864",
"<. c #528962",
"1. c #588D67",
"2. c #538B69",
"3. c #56896E",
"4. c #5C9165",
"5. c #5F9669",
"6. c #458272",
"7. c #578C70",
"8. c #5D8C75",
"9. c #629463",
"0. c #689661",
"q. c #6C9C63",
"w. c #68956C",
"e. c #719B6F",
"r. c #628E74",
"t. c #679175",
"y. c #6FA166",
"u. c #75A462",
"i. c #78A763",
"p. c #79A863",
"a. c #87864C",
"s. c #8B8A4D",
"d. c #918F4E",
"f. c #829C48",
"g. c #93914F",
"h. c #9D9A51",
"j. c #81A346",
"k. c #84A548",
"l. c #8AA349",
"z. c #83A949",
"x. c #8CAA49",
"c. c #90A448",
"v. c #92AD4A",
"b. c #96B14B",
"n. c #9BB54C",
"m. c #9BB94E",
"M. c #84A657",
"N. c #86AB56",
"B. c #8BAD54",
"V. c #83A658",
"C. c #91AE52",
"Z. c #8FB252",
"A. c #93B351",
"S. c #A1B74C",
"D. c #A3B94C",
"F. c #A5A254",
"G. c #A9A555",
"H. c #ACA856",
"J. c #B0AC57",
"K. c #A7BA50",
"L. c #ABBD53",
"P. c #A6B459",
"I. c #BAB55A",
"U. c #BFBA5B",
"Y. c #8CAA6C",
"T. c #8FA363",
"R. c #91AD6B",
"E. c #AFBE6A",
"W. c #AAC04C",
"Q. c #B2C057",
"!. c #B3C159",
"~. c #BAC55D",
"^. c #BDC760",
"/. c #BEC764",
"(. c #BEC765",
"). c #C1C963",
"_. c #C5CB66",
"`. c #C7CC67",
"'. c #C6CC67",
"]. c #C7CC67",
"[. c #C8CC67",
"{. c #CACE67",
"}. c #CCCF67",
"|. c #C8CD68",
" X c #C8CD68",
".X c #CACE69",
"XX c #C8CD68",
"oX c #CED066",
/* pixels */
"m.m.m.m.m.U.U.U.U.U.U.U.U.U.U.p.p.p.p.p.p.p.p.p.p.p.p.p.p.p.p.p.p.p.p.p.p.p.p.p.p.p.p.p.p.p.p.p.p.p.p.p.p.p.p.p.p.p.p.p.p.p.p.p.",
"m.m.m.m.m.m.U.U.U.U.U.U.m.p.p.p.m.m.m.p.p.p.p.p.p.p.p.p.p.p.p.p.p.p.p.p.p.p.p.p.t.t.t.t.p.p.p.p.p.p.p.p.p.p.p.p.p.p.p.p.p.m.m.m.",
"m.m.U.U.U.U.U.U.U.U.U.m.m.m.m.m.m.m.m.m.m.m.m.p.p.p.p.p.p.p.p.p.p.p.p.p.p.p.p.t.t.t.t.t.t.m.m.m.m.m.m.m.m.t.t.t.t.p.p.p.m.m.m.m.",
"U.U.U.U.U.U.U.U.U.U.U.m.m.m.m.m.m.m.p.p.p.p.p.p.p.p.p.p.p.p.p.p.p.p.p.t.t.t.p.t.t.t.t.t.t.t.t.t.t.t.m.m.t.t.t.t.t.t.t.p.m.m.m.m.",
"U.U.U.U.U.U.U.U.U.U.m.m.m.m.m.m.m.m.m.m.p.p.p.p.p.p.p.p.p.p.p.p.p.p.t.t.t.t.t.t.t.t.t.t.t.t.t.t.t.t.t.t.t.U.U.U.t.t.t.t.m.m.m.U.",
"m.m.m.m.m.U.U.U.U.U.m.m.m.m.m.m.m.m.m.m.m.m.p.p.p.p.p.p.p.p.p.p.p.t.t.t.t.t.U.U.U.U.t.t.t.t.U.U.U.U.t.t.U.U.U.U.U.t.t.t.t.U.U.U.",
"m.m.m.m.m.m.U.U.U.U.U.m.U.U.m.m.m.m.m.m.m.m.m.m.m.m.p.p.p.p.p.p.p.t.t.t.U.U.U.U.U.U.U.t.t.U.U.U.U.U.U.U.U.U.U.U.U.U.U.U.U.U.m.m.",
"m.m.m.m.m.m.m.m.U.U.U.U.U.U.U.m.m.m.m.m.m.m.m.m.m.m.p.p.p.p.p.t.t.t.t.U.U.U.U.U.U.U.U.t.U.U.U.U.U.U.U.U.U.U.U.U.U.U.U.U.U.U.m.m.",
"U.U.m.m.m.m.m.m.m.U.U.U.m.m.m.U.m.m.m.m.m.m.m.m.m.m.m.U.U.U.U.U.U.t.U.U.U.U.U.U.U.U.U.U.U.U.U.U.U.U.U.U.U.U.U.U.U.U.U.U.U.U.m.U.",
"U.U.U.m.m.m.m.m.m.m.m.m.m.m.m.m.m.m.m.m.m.m.m.m.m.m.U.U.m.m.U.U.U.U.U.U.U.U.U.U.U.U.U.U.U.U.U.U.U.U.U.U.U.U.U.U.U.U.U.U.U.U.U.U.",
"U.U.U.m.m.m.U.U.m.m.m.m.m.m.m.m.m.m.m.m.m.m.m.m.m.m.U.m.m.m.m.U.U.U.U.U.U.U.U.m.m.m.U.U.U.U.U.m.m.U.U.U.U.m.m.U.U.U.U.U.U.U.U.U.",
"U.U.U.m.m.U.U.U.U.U.m.m.m.m.m.m.m.m.m.m.m.m.m.m.m.m.m.m.m.m.m.m.m.m.m.U.U.U.m.m.m.m.m.U.U.m.m.m.m.m.m.U.m.m.m.m.U.U.U.U.U.U.U.U.",
"U.U.U.U.U.U.U.U.U.U.U.U.U.U.U.U.U.U.U.m.m.m.m.m.m.m.m.m.m.m.m.m.m.m.m.m.U.U.m.m.m.m.m.U.m.m.m.m.m.m.m.m.m.m.m.m.U.U.U.U.U.U.U.U.",
"U.U.U.U.U.U.U.U.U.m.m.m.m.m.m.m.m.m.m.m.m.m.m.m.m.m.m.m.m.m.m.m.m.m.m.m.m.m.m.m.m.m.m.U.m.m.m.m.m.m.m.m.m.m.m.m.U.U.U.U.U.m.m.m.",
"m.m.m.m.m.m.m.m.m.m.m.m.p.p.p.p.p.p.m.m.m.m.m.m.m.m.m.m.m.m.m.m.m.m.m.m.m.m.m.m.m.m.m.m.m.m.m.m.m.m.m.m.m.m.m.m.m.m.m.m.m.m.m.m.",
"m.m.m.m.m.m.m.m.m.m.p.p.p.p.p.p.p.p.p.m.p.p.p.p.m.m.m.m.m.m.U.U.U.m.m.m.m.m.m.m.m.m.m.m.m.m.m.m.m.m.m.m.m.m.m.m.m.m.m.m.m.m.m.m.",
"m.m.m.m.m.m.m.m.p.p.p.p.p.p.p.p.p.p.p.p.p.p.p.p.p.m.m.m.U.U.U.U.U.U.m.m.m.m.m.m.m.m.m.m.p.p.p.m.m.m.m.m.m.m.m.m.m.m.m.m.m.m.m.m.",
"m.m.m.m.m.m.m.p.p.p.p.p.p.p.p.p.p.p.p.p.p.p.p.p.p.U.U.U.U.U.U.U.U.U.U.U.U.U.p.p.p.m.m.p.p.p.p.p.m.m.m.m.m.m.m.m.m.m.m.m.m.m.m.m.",
"m.m.m.m.m.p.p.p.p.p.p.m.m.m.m.m.p.p.p.p.p.p.p.p.p.p.p.p.U.U.U.U.U.U.U.U.U.p.p.p.p.p.p.p.m.m.p.p.p.m.m.m.m.m.m.p.p.p.m.m.m.m.m.m.",
"m.m.m.p.p.p.p.p.p.p.m.m.m.m.m.m.m.p.p.p.m.m.m.p.p.p.p.p.p.p.U.U.U.p.p.p.p.p.m.m.p.p.p.m.m.m.m.p.p.p.m.m.m.m.p.p.p.p.p.m.m.m.p.p.",
"p.m.m.m.m.m.m.m.m.m.m.m.m.m.m.m.m.p.p.m.m.m.B.V B B B B 1.m.m.m.m.m.4.B B B B B N.A.m.m.A.A.A.A.m.m.m.m.m.p.p.p.p.p.p.p.p.p.p.p.",
"p.p.p.p.m.m.m.m.m.m.m.m.m.m.m.m.m.m.A.Z.A.B.V B ;.;.;.V B 9.m.Z.A.4.B B T :.;.;.V V B.B.V V B :.u.m.m.m.m.p.p.p.p.p.p.p.p.p.p.p.",
"m.m.m.m.m.m.m.m.m.m.m.m.m.m.m.m.m.Z.:.B B B B 2.n.n.S.M.V 4.q.B B B B V M.S.n.n.2.B B B B :.:.;.:.u.m.m.p.p.p.p.m.m.m.p.p.p.p.p.",
"m.m.m.m.m.m.m.m.t.t.t.t.t.m.m.t.r.V B :.:.:.;.n.S.S.S.D.=.N B B B B T M.D.K.K.D.n.2.B B 2.n.D.N.B :.y.q.u.p.p.m.m.m.m.m.m.m.m.m.",
"m.m.m.m.m.m.m.t.t.t.t.t.t.t.t.r.T B :.A.S.b.:.n.S.S.S.n.#.T 7.7.6.N =.D.K.).[.K.S.n.V M n.S.D.B.:.B B B >.q.u.m.m.m.m.m.m.m.m.m.",
"m.m.m.m.m.t.t.t.U.U.U.U.t.8.8.3.B B C.D.S.b.:.n.L.K.D.M.C e.oX}.R.T $.D.~.|.`.L.D.n.w.w.L.K.S.D.M.B B B B B 9.A.m.m.m.m.m.m.m.m.",
"m.m.t.t.t.t.U.U.U.U.U.U.P.3.B B B B C.S.S.b.9.L.[.).K.0.V Y.[.`.oXe.$.L.).[.`.`.K.L.[.[.|.).L.D.V.V 1.1.1.:.B 5.p.p.p.p.p.m.m.m.",
"U.t.t.U.U.U.U.U.U.U.U.U.w.B >.4.V B C.L.L.L.D.`.`.[.E.t.Y.}.`.`.[.Y.M.~.|.`.`.`.!.'.`.`.`.`.).D.B.$.D.D.D.V.:.>.u.p.p.p.p.p.p.p.",
"U.U.U.U.U.U.U.U.U.U.p. .I 2.C.D.$.V 0.(.|.`.!.`.`.`.[.}.[.`.`.`.`.[.~.^.`.`.`.`.|.`.`.`.`.[.).S.D.D.S.S.S.D.0.N T.U.U.U.U.U.U.U.",
"m.m.m.m.m.m.U.U.p.p...> u %.W.D.D.$.e.(.[.`.|.`.`.`.`.`.`.|.`.`.`.[.|.`.`.`.|.`.`.`.`.`.`.'.!.S.S.S.S.S.S.D.0.N T.U.U.U.U.U.U.U.",
"m.m.m.m.m.m.m.m.m.f.2 X   6 e l.D.D.!.!.`.|.|.|.`.`.`.|.).~.|.`.|.^.).|.`.`.~.'.|.|.|.|.'.!.S.S.D.D.D.D.D.B.>.2.B.m.m.m.m.m.m.m.",
"m.m.m.m.m.m.m.m.f.2 . < q 9 w l.D.S.S.S.!.!.!.!.|.|.).!.L.D.^.|.^.K.L.).`.`.~.!.!.!.!.!.Q.S.D.K.c.w w ' B.>.z ) m.m.m.m.m.m.m.m.",
"U.U.U.m.m.m.m.m.J X < ( z.x.D.D.S.D.D.x.n.S.S.D.Q.!.L.S.S.S.K.!.K.n.L.).`.`.|.~.!.D.S.S.S.D.c.0 3     : F x & < f.m.m.m.m.m.m.U.",
"U.U.U.U.m.f.8 0 2 . 9 z.*.v.D.S.S.x.x.v.S.S.S.S.S.S.S.S.S.S.S.S.S.S.~.|.`.`.`.|.|.D.S.S.S.D.v.y K K 8   & & O X 2 f.m.m.m.m.U.U.",
"U.U.U.U.G.5 X X X . q z.*.b.D.S.S.b.j.n.S.S.S.D.n.x.x.D.S.S.S.S.S.S.~.|.`.`.`.`.!.D.S.S.S.S.D.D.D.D.v.8 . 3 S > . < F.U.U.U.U.U.",
"m.m.m.G.5 X & x x p = S z.z.n.S.S.D.k.k.n.D.n.x.k.*.*.x.S.S.S.S.S.S.K.^.|.[.[.Q.S.S.S.S.S.S.S.S.S.S.D.K   q z.( > . < l.U.U.U.U.",
"m.m.m.f.X & n V V m i @ t &.z.n.D.x.*.*.k.k.k.*.*.*.*.k.D.S.S.S.D.v.b.K.L.L.L.S.S.S.S.S.S.S.S.S.S.S.D.y 2 ] *.&.( > X [ m.m.U.m.",
"m.m.m.f.X u V B B V m x W *.*.z.k.*.*.*.*.*.*.j.n.n.n.v.x.S.S.D.v.*.v.S.S.S.S.S.S.n.x.S.S.S.S.S.S.S.D.l.] *.*.*.z.2 X [ m.m.m.m.",
"m.m.m.f.X u V B B B B B +.*.*.*.*.*.*.b.n.j.j.n.S.S.S.S.v.z.z.k.j.*.j.b.S.S.S.S.S.n.j.z.k.x.S.S.S.S.b.j.*.*.*.&.9 @ X : l.m.m.m.",
"m.m.m.f.X u B V j % % A *.*.*.*.*.*.b.S.S.n.n.S.S.S.S.D.b.*.*.*.x.n.x.j.z.n.S.S.S.n.j.j.n.n.S.n.j.j.j.*.*.*.*.! m u X X - #.p.m.",
"p.p.p. .X X s k # X 9 | *.*.*.*.*.*.n.S.S.S.S.S.S.S.S.S.S.n.v.*.v.D.S.x.*.b.S.S.n.k.j.n.S.S.S.n.*.*.*.*.*.*.j.<.B m u X X @.p.p.",
"p.p...% X X + # . 7 *.*.*.*.*.*.*.*.j.n.n.S.S.S.S.n.S.S.S.S.S.x.x.S.S.S.k.*.n.n.k.*.j.n.S.S.S.b.*.*.*.*.*.*.*.<.B B N & X @.p.p.",
"m.x.- X X % % # . 4 *.*.*.| ] { *.*.*.*.j.n.S.S.n.k.S.S.S.S.D.v.*.v.n.n.k.*.*.*.*.*.*.z.n.n.n.*.*.*.*.*.} } Q B B B V * X @.m.m.",
"m.l.@ X i N B k # X 9 ] ] 4 $ v o.*.*.*.*.j.n.n.*.k.n.n.S.S.S.x.*.*.*.*.*.*.*.*.*.*.*.*.*.*.*.*.*.*.*.+.B V B B B B m & X / m.m.",
"m./ o & B B B B j # X o o $ k B B o.{ { *.*.*.*.*.*.*.k.n.n.x.*.*.*.*.*.*.*.*.*.*.*.*.*.*.*.*.*.*.*.*.X.V B B B m n * X - / v.m.",
"m./ o & B B B B V j & # X f N B B B B ;.} *.*.*.*.*.*.*.*.*.*.*.*.*.*.*.*.*.*.{ *.*.*.*.*.*.*.*.*.*.*.*.+.V B m u X X ; L g.g.I.",
"v./ o & n V V B B B V h # X f m B B ;.} *.*.*.*.*.*.*.*.*.*.*.} } *.*.*.*.*.{ P { *.*.*.*.{ *.*.*.*.*.*.j.! B g # X X H s.g.h.I.",
"` / : X & x b V B B B V h * * v B B { *.*.*.*.*.O.*.*.*.*.} o.-.<.} *.*.*.{ P ;.} *.*.*.{ ;.*.*.*.*.*.*.} <.B V g # X X L g.J.m.",
"U U / , X X & b B B B B B V V B B B +.*.*.*.o.X.<.*.*.*.} <.M ;.N <.o.X.o.;.:.} *.*.*.*.X.<.*.*.*.*.*.j.^ B B B V g # X L [ ` x.",
"Y Y U D X X # h V B B B B B B B B B B ^ X.} -.P *.*.*.*.X.V X.o.-.M ;.-.V B ! *.*.*.X.+.M o.*.*.*.*.j.{ F b B B B V u X J [ ` U ",
"t.H.g.D X % h V B V V V B B B B B B B B <.} } M X.*.j.} <.<.j.*.j.X.O.j.^ M B ! +.+.B B B M +.+.+.+.X.F u a V B B V u X J [ [ Y ",
"I.d.g.L X u R B V b g v B B B B B B B V } *.} B V ^ +.<.N <.j.*.*.j.o.{ j.-.B B B B B B B B B B B n g u O g V B V x & X L U U r.",
"U.F.g.L X % k E n u O f V B B B B B B B ! } ! B B B B B B ;.O.*.*.j.<.-.! P B B B B B B B B B B B b s a * * b R z % X 6 a.g.F.U.",
"U.I.g.a.4 X % f u . * v B B B B B B B B B <.B B B B B B B B ;.O.j.o.;.B B B B B B B B B B B V B B B V R h O * f & X 6 a.g.d.I.U.",
"U.U.l.` ` 4 X X X X g R B B B B V B B B B B B B B B B B B B B ;.Q ;.B B B B B B B B B B B m h V B B V v * X X X 6 0 / [ d.G.U.U.",
"m.m.m.l.` / w w w 2 & x V V V V g n B B B B B B B B B V B B B B B B V B B B B B B B B B B n # g V V b & X 5 H H / [ ` ` l.U.U.U.",
"m.m.m.m.x.l.[ [ [ 0 X & p p p p # b V B B B B B B V n g V B B B B V h x B B B B B B B V m i X # p p & X X 0 [ [ [ ` l.x.m.m.m.m.",
"m.m.m.m.m.m.@.W W G > X X X X X X * m B B B B B V n & # h V V V V j # k V B B B B B N i * X X X X X X < e K [ ` ` l.m.m.m.m.m.m.",
"m.m.m.m.m.m.m.v.l.W G Z Z Z Z r r r _  .B B B m u & X X # u u u u % X & v V B B B B B l e r r r r r r K [ [ W @.$.m.m.m.m.m.m.m.",
"m.m.m.m.m.m.m.m.m.b.l.[ W W W [ [ [ [ ' ~ ) ) _ y y J d X X X X X X X X & * * n B B  .) [ [ [ b.x.[ [ [ ` @.u.u.p.p.m.m.m.m.m.m.",
"m.m.m.m.m.m.U.U.m.m.n.b.f.` ` ` ` ` ` ` ' ' [ v.[ [ [ ` J J J J J J J J J J J ) ) ) ` ' ` ` W @.i.l.` f.u.u.p.p.p.p.m.m.m.m.m.m.",
"m.m.m.m.m.U.U.U.U.m.m.m.m.I.I.h.g.[ [ ` ` [ b.b.` ` ` ` [ [ [ [ [ [ [ [ [ [ [ [ ' ' ` ` ` W W ..p.i.u.u.p.p.p.p.p.p.m.m.m.m.m.m.",
"m.m.m.U.U.U.U.U.U.U.U.U.U.U.U.I.I.I.I.[ [ b.m.b.' ` ` W ..#.W ` ` ` ` ` ` [ v.n.[ [ [ [  .u.u.u.p.p.p.p.p.p.p.p.p.p.p.p.p.m.m.m.",
"p.p.U.U.U.U.U.U.U.U.U.U.U.U.U.U.p.p.p.u.m.m.p.u.W W W ..$.W W W W ` ` W W $.p.m.m.m.m.u.u.p.p.p.p.p.p.p.p.p.p.p.p.p.p.p.p.p.p.p."
};
