/* XPM */
static const char *obstacle4[] = {
/* columns rows colors chars-per-pixel */
"64 64 195 2 ",
"   c #0D112C",
".  c #12152B",
"X  c #151B2D",
"o  c #181E2E",
"O  c #171F30",
"+  c #1A212F",
"@  c #172031",
"#  c #192333",
"$  c #1B2835",
"%  c #1C2C3A",
"&  c #1E323E",
"*  c #222A2E",
"=  c #202830",
"-  c #2B3633",
";  c #2E3B34",
":  c #2A383A",
">  c #313C35",
",  c #364236",
"<  c #394535",
"1  c #3E4B37",
"2  c #3E4139",
"3  c #31433D",
"4  c #3E5038",
"5  c #404439",
"6  c #415438",
"7  c #4A5B3A",
"8  c #495839",
"9  c #56583E",
"0  c #4A603B",
"q  c #53633C",
"w  c #59663C",
"e  c #5C6F3F",
"r  c #5E723F",
"t  c #66743F",
"y  c #607B3F",
"u  c #1E3541",
"i  c #1F3845",
"p  c #213B44",
"a  c #223F48",
"s  c #26484E",
"d  c #23424A",
"f  c #3C5242",
"g  c #274C52",
"h  c #284F53",
"j  c #295255",
"k  c #2A5658",
"l  c #2C5C5D",
"z  c #33635E",
"x  c #2A5D61",
"c  c #2E6262",
"v  c #2F6868",
"b  c #306664",
"n  c #316966",
"m  c #326C69",
"M  c #34726D",
"N  c #3E7E6E",
"B  c #357772",
"V  c #377A73",
"C  c #397C74",
"Z  c #2D7475",
"A  c #455345",
"S  c #4A6649",
"D  c #4E6B4C",
"F  c #4A6846",
"G  c #54734F",
"H  c #476358",
"J  c #416A58",
"K  c #4B7B5B",
"L  c #49735A",
"P  c #5A7D52",
"I  c #636442",
"U  c #686843",
"Y  c #657A40",
"T  c #6A7C41",
"R  c #607340",
"E  c #7B7A48",
"W  c #407F6D",
"Q  c #4E7F62",
"!  c #517261",
"~  c #597C68",
"^  c #537E65",
"/  c #407F71",
"(  c #3A8178",
")  c #398077",
"_  c #5E8354",
"`  c #568C5F",
"'  c #5B8E5C",
"]  c #55805C",
"[  c #5E905A",
"{  c #6E8443",
"}  c #6B8B4D",
"|  c #698946",
" . c #778E45",
".. c #788E44",
"X. c #799145",
"o. c #769845",
"O. c #7A9D46",
"+. c #749C4D",
"@. c #789E4A",
"#. c #719244",
"$. c #608555",
"%. c #648954",
"&. c #668D59",
"*. c #669456",
"=. c #699654",
"-. c #6E9951",
";. c #629258",
":. c #6A935B",
">. c #6E9A5F",
",. c #729D5E",
"<. c #789F59",
"1. c #7DA147",
"2. c #7CA148",
"3. c #7CA259",
"4. c #4E8765",
"5. c #44816D",
"6. c #4A856D",
"7. c #4D886C",
"8. c #4F8864",
"9. c #538A62",
"0. c #598D67",
"q. c #528B6B",
"w. c #5C9165",
"e. c #5F916E",
"r. c #428072",
"t. c #578C70",
"y. c #5F8D75",
"u. c #639463",
"i. c #6B9C64",
"p. c #659667",
"a. c #749D6E",
"s. c #628E74",
"d. c #679175",
"f. c #6A9770",
"g. c #6FA165",
"h. c #76A462",
"j. c #78A763",
"k. c #79A863",
"l. c #86854B",
"z. c #8E8D4E",
"x. c #918F4E",
"c. c #839C48",
"v. c #93914F",
"b. c #9D9A51",
"n. c #A09B51",
"m. c #81A346",
"M. c #84A548",
"N. c #89A449",
"B. c #83A848",
"V. c #8CAA49",
"C. c #90A448",
"Z. c #92AD4A",
"A. c #96B14B",
"S. c #9CB54C",
"D. c #9BB94E",
"F. c #86AB56",
"G. c #8AAB55",
"H. c #81A458",
"J. c #82A557",
"K. c #93AF51",
"L. c #8EB153",
"P. c #93B351",
"I. c #A1B74C",
"U. c #A3B94C",
"Y. c #A8BB4F",
"T. c #A6A354",
"R. c #A9A958",
"E. c #B0AC57",
"W. c #A7BA50",
"Q. c #ABBD53",
"!. c #A0B654",
"~. c #BAB55A",
"^. c #BFBA5B",
"/. c #B0BF57",
"(. c #8DAB6C",
"). c #98A862",
"_. c #ABBC6A",
"`. c #AAC14D",
"'. c #B1C057",
"]. c #B3C159",
"[. c #BAC55D",
"{. c #BEC761",
"}. c #BFC862",
"|. c #C5CB66",
" X c #C7CC67",
".X c #C6CC67",
"XX c #C4CB65",
"oX c #C9CD67",
"OX c #CCCF67",
"+X c #C8CD68",
"@X c #C8CD68",
"#X c #CACE69",
"$X c #C8CD68",
"%X c #C0C869",
"&X c #CED066",
/* pixels */
"D.D.D.D.D.^.^.^.^.^.^.^.^.^.^.k.k.k.k.k.k.k.k.k.k.k.k.k.k.k.k.k.k.k.k.k.k.k.k.k.k.k.k.k.k.k.k.k.k.k.k.k.k.k.k.k.k.k.k.k.k.k.k.k.",
"D.D.D.D.D.D.^.^.^.^.^.^.D.k.k.k.D.D.D.k.k.k.k.k.k.k.k.k.k.k.k.k.k.k.k.k.k.k.k.k.d.d.d.d.k.k.k.k.k.k.k.k.k.k.k.k.k.k.k.k.k.D.D.D.",
"D.D.^.^.^.^.^.^.^.^.^.D.D.D.D.D.D.D.D.D.D.D.D.k.k.k.k.k.k.k.k.k.k.k.k.k.k.k.k.d.d.d.d.d.d.D.D.D.D.D.D.D.D.d.d.d.d.k.k.k.D.D.D.D.",
"^.^.^.^.^.^.^.^.^.^.^.D.D.D.D.D.D.D.k.k.k.k.k.k.k.k.k.k.k.k.k.k.k.k.k.d.d.d.k.d.d.d.d.d.d.d.d.d.d.d.D.D.d.d.d.d.d.d.d.k.D.D.D.D.",
"^.^.^.^.^.^.^.^.^.^.D.D.D.D.D.D.D.D.D.D.k.k.k.k.k.k.k.k.k.k.k.k.k.k.d.d.d.d.d.d.d.d.d.d.d.d.d.d.d.d.d.d.d.^.^.^.d.d.d.d.D.D.D.^.",
"D.D.D.D.D.^.^.^.^.^.D.D.D.D.D.D.D.D.D.D.D.D.k.k.k.k.k.k.k.k.k.k.k.d.d.d.d.d.^.^.^.^.d.d.d.d.^.^.^.^.d.d.^.^.^.^.^.d.d.d.d.^.^.^.",
"D.D.D.D.D.D.^.^.^.^.^.D.^.^.D.D.D.D.D.D.D.D.D.D.D.D.k.k.k.k.k.k.k.d.d.d.^.^.^.^.^.^.^.d.d.^.^.^.^.^.^.^.^.^.^.^.^.^.^.^.^.^.D.D.",
"D.D.D.D.D.D.D.D.^.^.^.^.^.^.^.D.D.D.D.D.D.D.D.D.D.D.k.k.k.k.k.d.d.d.d.^.^.^.^.^.^.^.^.d.^.^.^.^.^.^.^.^.^.^.^.^.^.^.^.^.^.^.D.D.",
"^.^.D.D.D.D.D.D.D.^.^.^.D.D.D.^.D.D.D.D.D.D.D.D.D.D.D.^.^.^.^.^.^.d.^.^.^.^.^.^.^.^.^.^.^.^.^.^.^.^.^.^.^.^.^.^.^.^.^.^.^.^.D.^.",
"^.^.^.D.D.D.D.D.D.D.D.D.D.D.D.D.D.D.D.D.D.D.D.D.D.D.^.^.D.D.^.^.^.^.^.^.^.^.^.^.^.^.^.^.^.^.^.^.^.^.^.^.^.^.^.^.^.^.^.^.^.^.^.^.",
"^.^.^.D.D.D.^.^.D.D.D.D.D.D.D.D.D.D.D.D.D.D.D.D.D.D.^.D.D.D.D.^.^.^.^.^.^.^.^.D.D.D.^.^.^.^.^.D.D.^.^.^.^.D.D.^.^.^.^.^.^.^.^.^.",
"^.^.^.D.D.^.^.^.^.^.D.D.D.D.D.D.D.D.D.D.D.D.D.D.D.D.D.D.D.D.D.D.D.D.D.^.^.^.D.D.D.D.D.^.^.D.D.D.D.D.D.^.D.D.D.D.^.^.^.^.^.^.^.^.",
"^.^.^.^.^.^.^.^.^.^.^.^.^.^.^.^.^.^.^.D.D.D.D.D.D.D.D.D.D.D.D.D.D.D.D.D.^.^.D.D.D.D.D.^.D.D.D.D.D.D.D.D.D.D.D.D.^.^.^.^.^.^.^.^.",
"^.^.^.^.^.^.^.^.^.D.D.D.D.D.D.D.D.D.D.D.D.D.D.D.D.D.D.D.D.D.D.D.D.D.D.D.D.D.D.D.D.D.D.^.D.D.D.D.D.D.D.D.D.D.D.D.^.^.^.^.^.D.D.D.",
"D.D.D.D.D.D.D.D.D.D.D.D.k.k.k.k.k.k.D.D.D.D.D.D.D.D.D.D.D.D.D.D.D.D.D.D.D.D.D.D.D.D.D.D.D.D.D.D.D.D.D.D.D.D.D.D.D.D.D.D.D.D.D.D.",
"D.D.D.D.D.D.D.D.D.D.k.k.k.k.k.k.k.k.k.D.k.k.k.k.D.D.D.D.D.D.^.^.^.D.D.D.D.D.D.D.D.D.D.D.D.D.D.D.D.D.D.D.D.D.D.D.D.D.D.D.D.D.D.D.",
"D.D.D.D.D.D.D.D.k.k.k.k.k.k.k.k.k.k.k.k.k.k.k.k.k.D.D.D.^.^.^.^.^.^.D.D.D.D.D.D.D.D.D.D.k.k.k.D.D.D.D.D.D.D.D.D.D.D.D.D.D.D.D.D.",
"D.D.D.D.D.D.D.k.k.k.k.k.k.k.k.k.k.k.k.k.k.k.k.k.k.^.^.^.^.^.^.^.^.^.^.^.^.^.k.k.k.D.D.k.k.k.k.k.D.D.D.D.D.D.D.D.D.D.D.D.D.D.D.D.",
"D.D.D.D.D.k.k.k.k.k.k.D.D.D.D.D.k.k.k.k.k.k.k.k.k.k.k.k.^.^.^.^.^.^.^.^.^.k.k.k.k.k.k.k.D.D.k.k.k.D.D.D.D.D.D.k.k.k.D.D.D.D.D.D.",
"D.D.D.k.k.k.k.k.k.k.D.D.D.D.D.D.D.k.k.k.D.D.D.k.k.k.k.k.k.k.^.^.^.k.k.k.k.k.D.D.k.k.k.D.D.D.D.k.k.k.D.D.D.D.k.k.k.k.k.D.D.D.k.k.",
"k.D.D.D.D.D.D.D.D.D.D.D.D.D.D.D.D.k.k.D.D.D.D.F.V V V V V w.D.D.D.D.S.0.V V V V C G.P.D.D.P.P.P.P.D.D.D.D.k.k.k.k.k.k.k.k.k.k.k.",
"k.k.k.k.D.D.D.D.D.D.D.D.D.D.D.D.D.D.D.P.L.P.F.C V 5.5.5.C V u.D.L.P.w.V V / 5.5.5.C 5.G.F.C C V 6.P.D.D.D.k.k.k.k.k.k.k.k.k.k.k.",
"D.D.D.D.D.D.D.D.D.D.D.D.D.D.D.D.D.D.L.5.V V V V 6.S.S.I.H.C w.i.V V V V / G.S.S.S.7.V V V V 5.5.5.6.P.D.k.k.k.k.D.D.D.k.k.k.k.k.",
"D.D.D.D.D.D.D.D.d.d.d.d.d.D.D.d.d.s.5.V 6.6.6.V 0.I.I.I.U.3.B V V V V 5.G.U.U.W.U.S.q.V V 0.S.U.J.V 7.g.i.h.k.D.D.D.D.D.D.D.D.D.",
"D.D.D.D.D.D.D.d.d.d.d.d.d.d.d.d.s.C V 7.A.I.P.6.I.I.I.I.S.u.r.t.t.r.B 3.U.W.XX XW.I.A.C 5.S.I.U.G.5.V V V q.i.P.D.D.D.D.D.D.D.D.",
"D.D.D.D.D.d.d.d.^.^.^.^.d.d.y.).7.V V P.I.I.P.5.I.Q.W.U.3.Z a.&XOX(.C 3.U.}.oX XQ.I.S.e.p.Q.W.I.U.H.B V V V V u.P.D.D.D.D.D.D.D.",
"D.D.d.d.d.d.^.^.^.^.^.^.^.R.q.V V V V K.I.I.A.u./.+XXX!.u./ (.oX X&Xf.<.Q.XX X X XU.Q.oXoX+XXXQ.U.3.C 0.0.0.5.V p.k.k.k.k.D.D.D.",
"^.d.d.^.^.^.^.^.^.^.^.^.n.^ V q.0.C V P.Q.Q.Q.Y. X XoX_.d.(.OX X XoX(.G.[.+X X X X].|. X X XoX}.U.G.,.U.U.U.3.5.q.h.k.k.k.k.k.k.",
"^.^.^.^.^.^.^.^.^.^.&.G > a Q K.U.>.C >.XX+X|.]. X X XoXOXoX X X X XoX[.XXoX X X X+X X X X XoX}.I.U.U.I.I.I.U.u.V ).^.^.^.^.^.^.",
"D.D.D.D.D.D.^.^.k.:.3 X .   ..`.U.U.,.a.%X X X+X X X X X XoXoX X X X+X+X X X X+X X X X X X X|.'.I.I.I.I.I.I.U.u.V ).^.^.^.^.^.^.",
"D.D.D.D.D.D.D.D.D.R . ; 7 7 q w C.U.U.].]. X+X+X X X X+X+XXX[.oX X+X[.XX+X X X[.|.+X+X+X+X|.'.I.U.Y.Y.U.U.U.G.6.q.L.D.D.D.D.D.D.",
"D.D.D.D.D.D.D.D.c., ; | B.B.Y w C.U.I.I.I.].].].+X+XXX].].Q.'.+X}.].U.[.+X X XU.Q.].].].]./.U.Y.C.q q ..G.i.J K L.D.D.D.D.D.D.D.",
"^.^.^.D.D.D.D.c., . 0 B.2.V.U.Y.U.I.U.I.V.S.I.U.'.].Q.I.I.I.W.].W.S.Q.XX X X X[.].I.I.I.I.I.C.7 <     - L c % < q c.D.D.D.D.D.^.",
"^.^.^.^.D.c.8 , X . 0 B.2.A.U.I.I.I.V.V.Z.I.I.I.I.I.I.I.I.I.I.I.I.I.[.+X X X X+X+XU.I.I.I.U.Z.t T T 8   % % . . X , M.D.D.D.^.^.",
"^.^.^.^.T.2 X & l p * Y 1.Z.U.I.I.I.A.m.S.I.I.U.S.V.V.U.I.I.I.I.I.I.[.+X X X X X].U.I.I.I.I.U.U.U.Y.Z.8 . < r r - . v.^.^.^.^.^.",
"D.D.D.R.2 X % m C M i * r B.S.I.I.I.I.B.S.I.S.V.B.2.2.V.I.I.I.I.I.I.W.}.+XoXoX'.I.I.I.I.I.I.I.I.I.I.Y.T   0 B.B.| - > M.^.^.^.^.",
"D.D.D.c.X % m C V C m x _ 2.B.S.I.I.V.2.B.B.B.2.2.2.2.B.U.I.I.I.U.Z.A.W.Q.Q.Q.I.I.I.I.I.I.I.I.I.I.I.Y.t , #.2.2.B., X X.D.D.^.D.",
"D.D.D.c.X u C V V V V V ;.2.2.B.B.B.2.2.2.2.2.m.S.S.S.Z.V.I.I.I.Z.2.Z.I.I.I.I.I.I.S.V.I.I.I.I.I.I.I.U.N.#.2.2.m.7 + X - N.D.D.D.",
"D.D.D.c.X u C C l % % F 2.2.2.2.2.2.2.A.S.m.m.S.I.I.I.I.Z.B.B.B.m.2.m.A.I.I.I.I.I.S.m.B.B.V.I.I.I.U.A.m.2.2.2.2.K u X X - N.D.D.",
"D.D.D.c.X u C l @ X 6 O.2.2.2.2.2.2.A.I.I.S.S.I.I.I.I.U.A.2.2.2.V.S.V.m.B.S.I.I.I.S.m.m.S.S.I.S.m.m.m.2.2.2.2.' C M & X X :.k.D.",
"k.k.k.%.X O $ @ . 4 O.2.2.2.2.2.2.2.S.I.I.I.I.I.I.I.I.I.I.S.Z.2.Z.I.I.V.2.S.I.I.I.B.m.S.I.I.I.S.2.2.2.2.2.2.m.9.V V M % X :.k.k.",
"k.k.&.$ X X X @ . 6 2.2.O.o.o.@.2.2.m.m.S.S.I.I.I.I.I.I.I.I.I.S.V.Z.I.S.S.V.m.S.S.m.2.B.S.I.I.I.Z.2.2.2.2.2.2.9.V V C & X :.k.k.",
"D.V.= X X @ p l O X 7 O.6 + $ b -.2.2.2.2.m.S.I.I.A.N.I.I.I.I.U.V.2.Z.S.S.B.2.2.2.2.2.2.B.S.S.A.2.2.2.2.@.@.` V V V B % X :.D.D.",
"D.N.+ X p B B V k O o + o @ l V *.2.2.2.2.2.m.S.S.2.B.S.I.I.I.S.V.2.2.2.2.2.2.2.2.2.2.2.2.2.2.2.2.2.m.;.V C V V M M u X = { S.D.",
"S.{ o % V V V V C k $ % O g V V V =.+.+.2.2.2.2.2.2.2.B.S.S.V.2.2.2.2.2.2.2.2.2.2.2.2.2.2.2.2.2.2.2.2.*.C V V C a X X = Y X.Z.D.",
"S.{ o % V V V V V V V C g X h B V V 5.5.@.2.2.2.2.2.2.2.2.2.2.@.@.2.2.2.2.2.2.+.2.2.2.2.2.2.2.2.2.2.2.2.;.C V M u X X I z.v.v.~.",
"Z.{ o % m C C V V V V V C g % b C V +.2.2.2.2.2.+.2.2.2.2.2.@.8.' m.2.2.2.2.+.W +.2.2.2.2.+.2.2.2.2.2.2.m.' V h % @ X X E v.b.~.",
" .{ - X % c c n V V V V V V C V V V ;.2.2.2.2.;.5.2.2.2.2.@.' 5.' @.m.2.2.+.5.5.@.2.2.2.+.5.2.2.2.2.2.2.@.9.V V C g @ X E v.E.D.",
"! ! { : X X O h C V V V V V V V V V V ;.=.=.@.6.5.2.2.2.m.;.9.m.` 8.=.*.*.5.V +.2.2.2.2.+.5.2.2.2.2.2.m.[ V V V V C u X E X. .V.",
"~ ~ ! H X @ j C V V V V V V V V V V V V V 8.2.+.W =.2.m.@.9.9.m.*.8.C 5.8.C V ' 2.2.2.*.[ N =.m.2.2.m.+.K n V V V C u X Y X. .! ",
"d.R.v.H X u C V V C n n V V V V V V V V C 2.2.+.V N ;.;.9.B 9.m.2.m.;.+.m.' C V ' ;.[ V V V N ;.;.;.*.K u s C V C c % X Y X.X.~ ",
"~.x.v.E X u C V C m % g C V V V V V V V V [ 2.' V V V V V V ` m.2.2.m.=.+.m.5.V V V V V V V V V V m h u . h C V c % X 2 l.! ! s.",
"^.T.v.E X $ l ) m & % b C V V V V V V V V V ` V V V V V V V 5.-.2.2.m.8.8.' N V V V V V V V V V V n d s & & n ) p X 5 l.v.v.T.^.",
"^.~.v.l.1 X $ g u . h ) V V V V V V V V V V V V V V V V V V V 5.-.m.=.5.V V V V V V V V V V C V V V C ) j . & g A 9 l.v.x.x.~.^.",
"^.^.N. . .1 X X X X % c C V V V C V V V V V V V V V V C V V V V 5.` 5.V V V V V V V V V V M j C V V C b & X X X U X.X. .x.R.^.^.",
"D.D.S.N. .{ q q q , X % d b C C h m V V V V V V V C m j C V V V V V V V V V V V V V V V V m @ h C C n % X 2 I I T X. . .N.^.^.^.",
"D.D.D.S.V.N.X.X.X.{ , X X % p p @ n C V V V V V C M & @ j C C C V C j c V V V V V V V C M p X @ p p & X X 8 X.X.X. .N.V.S.D.D.D.",
"D.D.D.D.D.S.:._ _ $.G S S : X X X & p L C V V M p & X X $ p p u l k @ l C V V V V V B p & X X X X X X > e T X. . .N.S.D.D.D.D.D.",
"D.D.D.D.D.D.S.Z.M._ _ $.$.G S r r r r  .] ] %.%.r S D f X X X X $ $ X % b C V V V V V z e r r r r r r T X.X._ :.,.S.D.D.D.D.D.D.",
"D.D.D.D.D.D.D.D.S.A.M. ._ _ _ X.X.X.X. ._ ......X.X.X.P D D D Y < X X X % & & m V V %.} X.X.X.A.V.X.X.X. .:.h.h.k.k.D.D.D.D.D.D.",
"D.D.D.D.D.D.^.^.D.D.S.A.c. . . . . . . . . .X.Z. . . . .X.X.X.X.{ Y Y Y Y Y Y } } }  ... . ._ :.k.N. .c.h.h.k.k.k.k.D.D.D.D.D.D.",
"D.D.D.D.D.^.^.^.^.D.D.D.S.~.~.b.v.X.X. . .X.A.A. . . . . .X. . . .X.X.X.X.X.X.X..... . . ._ _ &.k.k.h.h.k.k.k.k.k.k.D.D.D.D.D.D.",
"D.D.D.^.^.^.^.^.^.^.^.^.^.^.^.~.~.~.~.X.X.A.D.A... . ._ &.>._  . . . . . .X.Z.A.X.X.X.X.%.h.h.h.k.k.k.k.k.k.k.k.k.k.k.k.k.D.D.D.",
"k.k.^.^.^.^.^.^.^.^.^.^.^.^.^.^.k.k.k.h.S.D.k.h._ _ _ &.,._ _ _ _  . ._ _ ,.k.D.S.S.S.h.h.k.k.k.k.k.k.k.k.k.k.k.k.k.k.k.k.k.k.k."
};
