/* XPM */
static const char *obstacle1[] = {
/* columns rows colors chars-per-pixel */
"64 64 186 2 ",
"   c #0D112C",
".  c #13162B",
"X  c #151B2D",
"o  c #181E2E",
"O  c #121227",
"+  c #171E30",
"@  c #1B222F",
"#  c #172031",
"$  c #192333",
"%  c #1A2837",
"&  c #1C2C3A",
"*  c #1E323E",
"=  c #21292F",
"-  c #222B32",
";  c #282D33",
":  c #2B3432",
">  c #2E3B34",
",  c #29373A",
"<  c #333E35",
"1  c #2F403B",
"2  c #364236",
"3  c #3A4636",
"4  c #3C4B37",
"5  c #3D4138",
"6  c #434739",
"7  c #405238",
"8  c #49563A",
"9  c #465A3A",
"0  c #4C5C3B",
"q  c #4C613B",
"w  c #53633C",
"e  c #5B6D3E",
"r  c #5E713F",
"t  c #5E793F",
"y  c #63743F",
"u  c #1F3541",
"i  c #213B45",
"p  c #213E48",
"a  c #26484E",
"s  c #24434A",
"d  c #3E5543",
"f  c #274D52",
"g  c #284E53",
"h  c #295256",
"j  c #2B5759",
"k  c #2C5B5C",
"l  c #33635E",
"z  c #2A5E61",
"x  c #2E6161",
"c  c #2F6868",
"v  c #306764",
"b  c #316966",
"n  c #326C69",
"m  c #34726D",
"M  c #3E7E6F",
"N  c #347772",
"B  c #377A73",
"V  c #397C73",
"C  c #2E7575",
"Z  c #4C684A",
"A  c #4B6847",
"S  c #5E7940",
"D  c #476358",
"F  c #49775A",
"G  c #567750",
"H  c #626342",
"J  c #657A41",
"K  c #6A7C41",
"L  c #7B7B48",
"P  c #407B69",
"I  c #517261",
"U  c #597C68",
"Y  c #407F72",
"T  c #398178",
"R  c #398077",
"E  c #5E8354",
"W  c #578C5F",
"Q  c #5B8E5C",
"!  c #57815A",
"~  c #5F905A",
"^  c #6D8343",
"/  c #6E8D43",
"(  c #6B8B4D",
")  c #67864D",
"_  c #778E45",
"`  c #788F44",
"'  c #739445",
"]  c #799145",
"[  c #749C4C",
"{  c #799F4A",
"}  c #799C46",
"|  c #648955",
" . c #668D59",
".. c #669455",
"X. c #699654",
"o. c #6E9950",
"O. c #629259",
"+. c #6A935B",
"@. c #6D995F",
"#. c #729C5D",
"$. c #7B9850",
"%. c #7DA147",
"&. c #7CA148",
"*. c #7BA15A",
"=. c #4D8665",
"-. c #44826D",
";. c #49856D",
":. c #4E8A6C",
">. c #528963",
",. c #588D67",
"<. c #538B69",
"1. c #56896E",
"2. c #5C9165",
"3. c #5F9669",
"4. c #458272",
"5. c #578C70",
"6. c #5D8C75",
"7. c #629463",
"8. c #689661",
"9. c #6C9C63",
"0. c #68956C",
"q. c #719B6F",
"w. c #628E74",
"e. c #679175",
"r. c #6FA166",
"t. c #75A462",
"y. c #78A763",
"u. c #79A863",
"i. c #87864C",
"p. c #8B8A4D",
"a. c #918F4E",
"s. c #829C48",
"d. c #93914F",
"f. c #9D9A51",
"g. c #81A346",
"h. c #84A548",
"j. c #8AA349",
"k. c #83A949",
"l. c #8CAA49",
"z. c #90A448",
"x. c #92AD4A",
"c. c #96B14B",
"v. c #9BB54C",
"b. c #9BB94E",
"n. c #84A657",
"m. c #86AB56",
"M. c #8BAD54",
"N. c #83A658",
"B. c #91AE52",
"V. c #8FB252",
"C. c #93B351",
"Z. c #A1B74C",
"A. c #A3B94C",
"S. c #A5A254",
"D. c #A9A555",
"F. c #ACA856",
"G. c #B0AC57",
"H. c #A7BA50",
"J. c #ABBD53",
"K. c #A6B459",
"L. c #BAB55A",
"P. c #BFBA5B",
"I. c #8FA363",
"U. c #8CAA6C",
"Y. c #91AD6B",
"T. c #AFBE6A",
"R. c #AAC04C",
"E. c #B2C057",
"W. c #B3C159",
"Q. c #BAC55D",
"!. c #BDC760",
"~. c #BEC764",
"^. c #BEC765",
"/. c #C1C963",
"(. c #C5CB66",
"). c #C7CC67",
"_. c #C6CC67",
"`. c #C7CC67",
"'. c #C8CC67",
"]. c #CACE67",
"[. c #CCCF67",
"{. c #C8CD68",
"}. c #C8CD68",
"|. c #CACE69",
" X c #C8CD68",
".X c #CED066",
/* pixels */
"b.b.b.b.b.P.P.P.P.P.P.P.P.P.P.u.u.u.u.u.u.u.u.u.u.u.u.u.u.u.u.u.u.u.u.u.u.u.u.u.u.u.u.u.u.u.u.u.u.u.u.u.u.u.u.u.u.u.u.u.u.u.u.u.",
"b.b.b.b.b.b.P.P.P.P.P.P.b.u.u.u.b.b.b.u.u.u.u.u.u.u.u.u.u.u.u.u.u.u.u.u.u.u.u.u.e.e.e.e.u.u.u.u.u.u.u.u.u.u.u.u.u.u.u.u.u.b.b.b.",
"b.b.P.P.P.P.P.P.P.P.P.b.b.b.b.b.b.b.b.b.b.b.b.u.u.u.u.u.u.u.u.u.u.u.u.u.u.u.u.e.e.e.e.e.e.b.b.b.b.b.b.b.b.e.e.e.e.u.u.u.b.b.b.b.",
"P.P.P.P.P.P.P.P.P.P.P.b.b.b.b.b.b.b.u.u.u.u.u.u.u.u.u.u.u.u.u.u.u.u.u.e.e.e.u.e.e.e.e.e.e.e.e.e.e.e.b.b.e.e.e.e.e.e.e.u.b.b.b.b.",
"P.P.P.P.P.P.P.P.P.P.b.b.b.b.b.b.b.b.b.b.u.u.u.u.u.u.u.u.u.u.u.u.u.u.e.e.e.e.e.e.e.e.e.e.e.e.e.e.e.e.e.e.e.P.P.P.e.e.e.e.b.b.b.P.",
"b.b.b.b.b.P.P.P.P.P.b.b.b.b.b.b.b.b.b.b.b.b.u.u.u.u.u.u.u.u.u.u.u.e.e.e.e.e.P.P.P.P.e.e.e.e.P.P.P.P.e.e.P.P.P.P.P.e.e.e.e.P.P.P.",
"b.b.b.b.b.b.P.P.P.P.P.b.P.P.b.b.b.b.b.b.b.b.b.b.b.b.u.u.u.u.u.u.u.e.e.e.P.P.P.P.P.P.P.e.e.P.P.P.P.P.P.P.P.P.P.P.P.P.P.P.P.P.b.b.",
"b.b.b.b.b.b.b.b.P.P.P.P.P.P.P.b.b.b.b.b.b.b.b.b.b.b.u.u.u.u.u.e.e.e.e.P.P.P.P.P.P.P.P.e.P.P.P.P.P.P.P.P.P.P.P.P.P.P.P.P.P.P.b.b.",
"P.P.b.b.b.b.b.b.b.P.P.P.b.b.b.P.b.b.b.b.b.b.b.b.b.b.b.P.P.P.P.P.P.e.P.P.P.P.P.P.P.P.P.P.P.P.P.P.P.P.P.P.P.P.P.P.P.P.P.P.P.P.b.P.",
"P.P.P.b.b.b.b.b.b.b.b.b.b.b.b.b.b.b.b.b.b.b.b.b.b.b.P.P.b.b.P.P.P.P.P.P.P.P.P.P.P.P.P.P.P.P.P.P.P.P.P.P.P.P.P.P.P.P.P.P.P.P.P.P.",
"P.P.P.b.b.b.P.P.b.b.b.b.b.b.b.b.b.b.b.b.b.b.b.b.b.b.P.b.b.b.b.P.P.P.P.P.P.P.P.b.b.b.P.P.P.P.P.b.b.P.P.P.P.b.b.P.P.P.P.P.P.P.P.P.",
"P.P.P.b.b.P.P.P.P.P.b.b.b.b.b.b.b.b.b.b.b.b.b.b.b.b.b.b.b.b.b.b.b.b.b.P.P.P.b.b.b.b.b.P.P.b.b.b.b.b.b.P.b.b.b.b.P.P.P.P.P.P.P.P.",
"P.P.P.P.P.P.P.P.P.P.P.P.P.P.P.P.P.P.P.b.b.b.b.b.b.b.b.b.b.b.b.b.b.b.b.b.P.P.b.b.b.b.b.P.b.b.b.b.b.b.b.b.b.b.b.b.P.P.P.P.P.P.P.P.",
"P.P.P.P.P.P.P.P.P.b.b.b.b.b.b.b.b.b.b.b.b.b.b.b.b.b.b.b.b.b.b.b.b.b.b.b.b.b.b.b.b.b.b.P.b.b.b.b.b.b.b.b.b.b.b.b.P.P.P.P.P.b.b.b.",
"b.b.b.b.b.b.b.b.b.b.b.b.u.u.u.u.u.u.b.b.b.b.b.b.b.b.b.b.b.b.b.b.b.b.b.b.b.b.b.b.b.b.b.b.b.b.b.b.b.b.b.b.b.b.b.b.b.b.b.b.b.b.b.b.",
"b.b.b.b.b.b.b.b.b.b.u.u.u.u.u.u.u.u.u.b.u.u.u.u.b.b.b.b.b.b.P.P.P.b.b.b.b.b.b.b.b.b.b.b.b.b.b.b.b.b.b.b.b.b.b.b.b.b.b.b.b.b.b.b.",
"b.b.b.b.b.b.b.b.u.u.u.u.u.u.u.u.u.u.u.u.u.u.u.u.u.b.b.b.P.P.P.P.P.P.b.b.b.b.b.b.b.b.b.b.u.u.u.b.b.b.b.b.b.b.b.b.b.b.b.b.b.b.b.b.",
"b.b.b.b.b.b.b.u.u.u.u.u.u.u.u.u.u.u.u.u.u.u.u.u.u.P.P.P.P.P.P.P.P.P.P.P.P.P.u.u.u.b.b.u.u.u.u.u.b.b.b.b.b.b.b.b.b.b.b.b.b.b.b.b.",
"b.b.b.b.b.u.u.u.u.u.u.b.b.b.b.b.u.u.u.u.u.u.u.u.u.u.u.u.P.P.P.P.P.P.P.P.P.u.u.u.u.u.u.u.b.b.u.u.u.b.b.b.b.b.b.u.u.u.b.b.b.b.b.b.",
"b.b.b.u.u.u.u.u.u.u.b.b.b.b.b.b.b.u.u.u.b.b.b.u.u.u.u.u.u.u.P.P.P.u.u.u.u.u.b.b.u.u.u.b.b.b.b.u.u.u.b.b.b.b.u.u.u.u.u.b.b.b.u.u.",
"u.b.b.b.b.b.b.b.b.b.b.b.b.b.b.b.b.u.u.b.b.b.M.V B B B B ,.b.b.b.b.b.2.B B B B B m.C.b.b.C.C.C.C.b.b.b.b.b.u.u.u.u.u.u.u.u.u.u.u.",
"u.u.u.u.b.b.b.b.b.b.b.b.b.b.b.b.b.b.C.V.C.M.V B -.-.-.V B 7.b.V.C.2.B B Y ;.-.-.V V M.M.V V B ;.t.b.b.b.b.u.u.u.u.u.u.u.u.u.u.u.",
"b.b.b.b.b.b.b.b.b.b.b.b.b.b.b.b.b.V.;.B B B B <.v.v.Z.n.V 2.9.B B B B V n.Z.v.v.<.B B B B ;.;.-.;.t.b.b.u.u.u.u.b.b.b.u.u.u.u.u.",
"b.b.b.b.b.b.b.b.e.e.e.e.e.b.b.e.w.V B ;.;.;.-.v.Z.Z.Z.A.*.N B B B B Y n.A.H.H.Z.v.<.B B <.v.Z.m.B ;.r.9.t.u.u.b.b.b.b.b.b.b.b.b.",
"b.b.b.b.b.b.b.e.e.e.e.e.e.e.e.w.Y B ;.C.Z.c.;.v.Z.Z.Z.v.@.Y 5.5.4.N *.A.H./.'.H.Z.v.V M v.Z.A.M.;.B B B :.9.t.b.b.b.b.b.b.b.b.b.",
"b.b.b.b.b.e.e.e.P.P.P.P.e.6.6.1.B B B.Z.Z.c.;.v.J.H.A.n.C q..X[.Y.Y #.A.Q.{.).J.Z.v.0.0.J.H.Z.A.n.B B B B B 7.C.b.b.b.b.b.b.b.b.",
"b.b.e.e.e.e.P.P.P.P.P.P.K.1.B B B B B.Z.Z.c.7.J.'./.H.8.V U.'.)..Xq.#.J./.'.).).A.J.'.'.{./.J.A.N.V ,.,.,.;.B 3.u.u.u.u.u.b.b.b.",
"P.e.e.P.P.P.P.P.P.P.P.P.0.B :.2.V B B.J.J.J.A.).).'.T.e.U.[.).).'.U.n.Q.{.).).).W._.).).).'./.A.M.#.A.A.A.N.;.:.t.u.u.u.u.u.u.u.",
"P.P.P.P.P.P.P.P.P.P.u.| P <.B.A.#.V 8.^.{.).W.).).).'.[.'.).).).).'.Q.!.).).).).{.).).).).'./.Z.Z.A.Z.Z.Z.A.8.N I.P.P.P.P.P.P.P.",
"b.b.b.b.b.b.P.P.u.u. .> u $.R.Z.A.#.q.^.'.).{.).).).).).).{.).).).'.{.).).).{.).).).).).'._.W.Z.Z.Z.Z.Z.Z.A.8.N I.P.P.P.P.P.P.P.",
"b.b.b.b.b.b.b.b.b.s.2 X . 6 e j.Z.A.W.W.).{.{.{.).).).{./.Q.{.).{.!./.{.).).Q._.{.{.{.{.).W.Z.Z.Z.A.A.A.A.M.:.<.M.b.b.b.b.b.b.b.",
"b.b.b.b.b.b.b.b.s.2 . < q 9 w j.Z.Z.Z.Z.W.W.W.W.{.{./.W.J.A.!.{.!.H.J./.).).Q.W.W.W.W.W.E.Z.Z.H.z.w w ` M.:.z ( b.b.b.b.b.b.b.b.",
"P.P.P.b.b.b.b.b.J X < / k.l.Z.Z.Z.Z.Z.l.v.Z.Z.Z.E.W.J.v.Z.Z.H.W.H.v.J./.).).{.Q.W.Z.Z.Z.Z.Z.z.0 3     : F x & < s.b.b.b.b.b.b.P.",
"P.P.P.P.b.s.8 0 2 . 9 k.&.x.Z.Z.Z.l.l.x.Z.Z.Z.Z.Z.Z.Z.Z.Z.Z.Z.Z.Z.Z.Q.{.).).).{.{.A.Z.Z.Z.Z.x.y K K 8   & & O X 2 s.b.b.b.b.P.P.",
"P.P.P.P.D.5 X X X . q k.&.c.Z.Z.Z.c.g.v.Z.Z.Z.Z.v.l.x.Z.Z.Z.Z.Z.Z.Z.Q.{.).).).).W.Z.Z.Z.Z.Z.Z.A.A.A.x.8 . 3 S > . < S.P.P.P.P.P.",
"b.b.b.D.5 X & x x p = S k.k.v.Z.Z.Z.h.h.Z.Z.v.l.h.&.&.l.Z.Z.Z.Z.Z.Z.H.!.{.'.'.E.Z.Z.Z.Z.Z.Z.Z.Z.Z.Z.A.K   q k./ > . < j.P.P.P.P.",
"b.b.b.s.X & n V V m i @ t %.k.v.Z.l.&.&.h.h.h.&.&.&.&.h.Z.Z.Z.Z.Z.x.c.H.J.J.J.Z.Z.Z.Z.Z.Z.Z.Z.Z.Z.Z.A.y 2 ' &.g./ > X ] b.b.P.b.",
"b.b.b.s.X u V B B V m x E g.&.k.h.&.&.&.&.&.&.g.v.v.v.x.l.Z.Z.Z.x.&.x.Z.Z.Z.Z.Z.Z.v.l.Z.Z.Z.Z.Z.Z.Z.Z.j.' &.&.&.k.2 X ] b.b.b.b.",
"b.b.b.s.X u V B B B B B O.&.&.&.&.&.&.c.v.g.g.v.Z.Z.Z.Z.x.k.h.h.g.&.g.c.Z.Z.Z.Z.Z.v.g.k.h.l.Z.Z.Z.Z.c.g.&.&.&.%.9 @ X : j.b.b.b.",
"b.b.b.s.X u B V j % % A &.&.&.&.&.&.c.Z.Z.v.v.Z.Z.Z.Z.Z.c.&.&.&.l.v.l.g.k.v.Z.Z.Z.v.g.g.v.v.Z.v.g.g.g.&.&.&.&.Q m u X X - @.u.b.",
"u.u.u.| X X s k # X 9 } &.&.&.&.&.&.v.Z.Z.Z.Z.Z.Z.Z.Z.Z.Z.v.x.&.x.Z.Z.l.&.c.Z.Z.v.h.g.v.Z.Z.Z.v.&.&.&.&.&.&.g.>.B m u X X +.u.u.",
"u.u. .% X X + # . 7 &.&.&.&.&.&.&.&.g.v.v.Z.Z.Z.Z.Z.Z.Z.Z.Z.Z.l.l.Z.Z.Z.h.&.v.v.h.&.g.v.Z.Z.Z.c.&.&.&.&.&.&.&.>.B B N & X +.u.u.",
"b.l.- X X % % # . 4 &.&.&.} ' [ &.&.&.&.g.v.Z.Z.v.h.Z.Z.Z.Z.Z.x.&.x.v.v.h.&.&.&.&.&.&.k.v.v.v.&.&.&.&.&.{ { W B B B V * X +.b.b.",
"b.j.@ X i N B k # X 9 ' ' 4 $ v X.&.&.&.&.g.v.v.&.h.v.v.Z.Z.Z.l.&.&.&.&.&.&.&.&.&.&.&.&.&.&.&.&.&.&.&.O.B V B B B B m & X ^ b.b.",
"b.^ o & B B B B j # X o o $ k B B X.[ [ &.&.&.&.&.&.&.h.v.v.l.&.&.&.&.&.&.&.&.&.&.&.&.&.&.&.&.&.&.&.&...V B B B m n * X - ^ x.b.",
"b.^ o & B B B B V j & # X f N B B B B -.{ &.&.&.&.&.&.&.&.&.&.&.&.&.&.&.&.&.&.[ &.&.&.&.&.&.&.&.&.&.&.&.O.V B m u X X ; L d.d.L.",
"x.^ o & n V V B B B V h # X f m B B -.{ &.&.&.&.&.&.&.&.&.&.&.[ { &.&.&.&.&.[ Y [ &.&.&.&.[ &.&.&.&.&.&.g.Q B g # X X H p.d.f.L.",
"_ ^ : X & x b V B B B V h * * v V B [ &.&.&.&.&.o.&.&.&.&.&.{ =.=.{ &.&.&.[ -.-.{ &.&.&.[ -.&.&.&.&.&.&.{ >.B V g # X X L d.G.b.",
"I I ^ , X X & b B B B B B V V B B B O.&.&.&.&.O.-.&.&.&.&.{ Q =.M >.X.....-.B [ &.&.&.&.[ -.&.&.&.&.&.g.~ B B B V g # X L ] _ l.",
"U U I D X X # h V B B B B B B B B B B ~ ....{ =.-.&.&.&.g.O.>.g...=.M -.=.V B Q &.&.&...~ M X.&.&.&.g.[ F b B B B V u X J ] _ I ",
"e.F.d.D X % h V B V V V B B B B B B B B B >.&.[ M X.g.g.{ =.>.&.&.g.O.[ g.Q V B Q O.~ B B B M O.O.O...F u a V B B V u X J ] ] U ",
"L.a.d.L X u T B V b g v B B B B B B B B V &.&.[ B M ~ O.>.N W g.&.&.g.X.[ g.-.B B B B B B B B B B n g u O g V B V x & X L I I w.",
"P.S.d.L X % k R n u O f V B B B B B B B B Q { W B B B B B B -.o.&.&.g.=.=.Q M B B B B B B B B B B b s a * * b T z % X 6 i.d.S.P.",
"P.L.d.i.4 X % f u . * v B B B B B B B B B B >.B B B B B B B B -.o.g.X.-.B B B B B B B B B B V B B B V T h O * f & X 6 i.d.a.L.P.",
"P.P.j._ _ 4 X X X X g T B B B B V B B B B B B B B B B B B B B B -.W -.B B B B B B B B B B m h V B B V v * X X X 6 0 ^ ] a.D.P.P.",
"b.b.b.j._ ^ w w w 2 & x V V V V g n B B B B B B B B B V B B B B B B B B B B B B B B B B B n # g V V b & X 5 H H ^ ] _ _ j.P.P.P.",
"b.b.b.b.l.j.] ] ] 0 X & p p p p # b V B B B B B B V n g V B B B B V h x B B B B B B B V m i X # p p & X X 0 ] ] ] _ j.l.b.b.b.b.",
"b.b.b.b.b.b.+.E E G > X X X X X X * m B B B B B V n & # h V V V V j # k V B B B B B N i * X X X X X X < e K ] _ _ j.b.b.b.b.b.b.",
"b.b.b.b.b.b.b.x.j.E G Z Z Z Z r r r ) | B B B m u & X X # u u u u % X & v V B B B B B l e r r r r r r K ] ] E +.#.b.b.b.b.b.b.b.",
"b.b.b.b.b.b.b.b.b.c.j.] E E E ] ] ] ] ` ! ( ( ) y y J d X X X X X X X X & * * n B B | ( ] ] ] c.l.] ] ] _ +.t.t.u.u.b.b.b.b.b.b.",
"b.b.b.b.b.b.P.P.b.b.v.c.s._ _ _ _ _ _ _ ` ` ] x.] ] ] _ J J J J J J J J J J J ( ( ( _ ` _ _ E +.y.j._ s.t.t.u.u.u.u.b.b.b.b.b.b.",
"b.b.b.b.b.P.P.P.P.b.b.b.b.L.L.f.d.] ] _ _ ] c.c._ _ _ _ ] ] ] ] ] ] ] ] ] ] ] ] ` ` _ _ _ E E  .u.y.t.t.u.u.u.u.u.u.b.b.b.b.b.b.",
"b.b.b.P.P.P.P.P.P.P.P.P.P.P.P.L.L.L.L.] ] c.b.c.` _ _ E  .@.E _ _ _ _ _ _ ] x.v.] ] ] ] | t.t.t.u.u.u.u.u.u.u.u.u.u.u.u.u.b.b.b.",
"u.u.P.P.P.P.P.P.P.P.P.P.P.P.P.P.u.u.u.t.b.b.u.t.E E E  .#.E E E E _ _ E E #.u.b.b.b.b.t.t.u.u.u.u.u.u.u.u.u.u.u.u.u.u.u.u.u.u.u."
};
