/* XPM */
static const char *obstacle5[] = {
/* columns rows colors chars-per-pixel */
"64 64 196 2 ",
"   c #0B0F2C",
".  c #0E122C",
"X  c #13162B",
"o  c #151B2D",
"O  c #181E2E",
"+  c #121227",
"@  c #171F30",
"#  c #1C232F",
"$  c #172031",
"%  c #192333",
"&  c #1B2C3A",
"*  c #192839",
"=  c #1E323E",
"-  c #21292F",
";  c #202830",
":  c #2C3633",
">  c #2B3C3B",
",  c #2A3736",
"<  c #323D35",
"1  c #303731",
"2  c #2F403B",
"3  c #344335",
"4  c #3D4A37",
"5  c #3E4238",
"6  c #384235",
"7  c #424A38",
"8  c #435339",
"9  c #465A3A",
"0  c #4C5C3B",
"q  c #4F523D",
"w  c #57593F",
"e  c #4D633B",
"r  c #53633C",
"t  c #5C6C3E",
"y  c #57693D",
"u  c #5E713F",
"i  c #5E793F",
"p  c #63753F",
"a  c #1F3541",
"s  c #1F3A46",
"d  c #213A44",
"f  c #213E48",
"g  c #22424B",
"h  c #26484E",
"j  c #274C51",
"k  c #284F53",
"l  c #295255",
"z  c #2B5659",
"x  c #2C5B5C",
"c  c #265259",
"v  c #33635E",
"b  c #2E6262",
"n  c #306664",
"m  c #316967",
"M  c #326C69",
"N  c #34726D",
"B  c #3F7E6E",
"V  c #357671",
"C  c #377A73",
"Z  c #397C73",
"A  c #2E7575",
"S  c #405C43",
"D  c #5A5C40",
"F  c #4E6B4B",
"G  c #4B6847",
"H  c #5E6041",
"J  c #5E7940",
"K  c #476358",
"L  c #416B59",
"P  c #4E7D5A",
"I  c #46735C",
"U  c #567750",
"Y  c #507E5D",
"T  c #627540",
"R  c #667B41",
"E  c #6B7C41",
"W  c #7B7A48",
"Q  c #636542",
"!  c #407F6E",
"~  c #4F7B65",
"^  c #517261",
"/  c #597C68",
"(  c #417F73",
")  c #398077",
"_  c #398178",
"`  c #5E8354",
"'  c #5B8E5D",
"]  c #56865D",
"[  c #5F905A",
"{  c #6E8443",
"}  c #6D8D43",
"|  c #6B8A4E",
" . c #67864D",
".. c #778F45",
"X. c #788F44",
"o. c #739444",
"O. c #799145",
"+. c #749C4C",
"@. c #789E4A",
"#. c #799C46",
"$. c #648955",
"%. c #668D58",
"&. c #659456",
"*. c #6A9653",
"=. c #6E9851",
"-. c #619159",
";. c #6A935B",
":. c #6E9A5F",
">. c #679858",
",. c #739D5E",
"<. c #789F59",
"1. c #7DA147",
"2. c #7BA148",
"3. c #7DA259",
"4. c #4B8566",
"5. c #44826D",
"6. c #4B856C",
"7. c #4F8B6D",
"8. c #528963",
"9. c #598E66",
"0. c #538A6A",
"q. c #5A9066",
"w. c #448272",
"e. c #578C70",
"r. c #5F8D75",
"t. c #629463",
"y. c #6C9E65",
"u. c #679568",
"i. c #749D6E",
"p. c #638E74",
"a. c #679175",
"s. c #6A9770",
"d. c #6FA165",
"f. c #75A462",
"g. c #78A763",
"h. c #79A863",
"j. c #85844B",
"k. c #8E8D4E",
"l. c #918F4E",
"z. c #839C48",
"x. c #93914F",
"c. c #809D50",
"v. c #9C9951",
"b. c #81A346",
"n. c #83A548",
"m. c #89A349",
"M. c #83A848",
"N. c #8CAA49",
"B. c #91A549",
"V. c #91AD4A",
"C. c #96B14B",
"Z. c #9BB54C",
"A. c #9BB94E",
"S. c #85A756",
"D. c #86AB56",
"F. c #8AAC55",
"G. c #8BAE58",
"H. c #80A458",
"J. c #93AF51",
"K. c #8FB253",
"L. c #93B351",
"P. c #A1B74C",
"I. c #A3B94C",
"U. c #A9BE4D",
"Y. c #A6A354",
"T. c #A9A958",
"R. c #B0AC57",
"E. c #A7BA50",
"W. c #ABBD53",
"Q. c #A0B654",
"!. c #B0BF57",
"~. c #BAB55A",
"^. c #BFBA5B",
"/. c #B0BF58",
"(. c #8DAB6C",
"). c #98A862",
"_. c #ABBC6A",
"`. c #B1C057",
"'. c #B6C35A",
"]. c #B3C159",
"[. c #BAC55D",
"{. c #BDC760",
"}. c #BFC761",
"|. c #BFC862",
" X c #C5CB66",
".X c #C7CC67",
"XX c #C6CC67",
"oX c #C4CB65",
"OX c #C9CD67",
"+X c #CCCF67",
"@X c #C8CD68",
"#X c #C8CD68",
"$X c #CACE69",
"%X c #C8CD68",
"&X c #C0C869",
"*X c #CED066",
/* pixels */
"A.A.A.A.A.^.^.^.^.^.^.^.^.^.^.h.h.h.h.h.h.h.h.h.h.h.h.h.h.h.h.h.h.h.h.h.h.h.h.h.h.h.h.h.h.h.h.h.h.h.h.h.h.h.h.h.h.h.h.h.h.h.h.h.",
"A.A.A.A.A.A.^.^.^.^.^.^.A.h.h.h.A.A.A.h.h.h.h.h.h.h.h.h.h.h.h.h.h.h.h.h.h.h.h.h.a.a.a.a.h.h.h.h.h.h.h.h.h.h.h.h.h.h.h.h.h.A.A.A.",
"A.A.^.^.^.^.^.^.^.^.^.A.A.A.A.A.A.A.A.A.A.A.A.h.h.h.h.h.h.h.h.h.h.h.h.h.h.h.h.a.a.a.a.a.a.A.A.A.A.A.A.A.A.a.a.a.a.h.h.h.A.A.A.A.",
"^.^.^.^.^.^.^.^.^.^.^.A.A.A.A.A.A.A.h.h.h.h.h.h.h.h.h.h.h.h.h.h.h.h.h.a.a.a.h.a.a.a.a.a.a.a.a.a.a.a.A.A.a.a.a.a.a.a.a.h.A.A.A.A.",
"^.^.^.^.^.^.^.^.^.^.A.A.A.A.A.A.A.A.A.A.h.h.h.h.h.h.h.h.h.h.h.h.h.h.a.a.a.a.a.a.a.a.a.a.a.a.a.a.a.a.a.a.a.^.^.^.a.a.a.a.A.A.A.^.",
"A.A.A.A.A.^.^.^.^.^.A.A.A.A.A.A.A.A.A.A.A.A.h.h.h.h.h.h.h.h.h.h.h.a.a.a.a.a.^.^.^.^.a.a.a.a.^.^.^.^.a.a.^.^.^.^.^.a.a.a.a.^.^.^.",
"A.A.A.A.A.A.^.^.^.^.^.A.^.^.A.A.A.A.A.A.A.A.A.A.A.A.h.h.h.h.h.h.h.a.a.a.^.^.^.^.^.^.^.a.a.^.^.^.^.^.^.^.^.^.^.^.^.^.^.^.^.^.A.A.",
"A.A.A.A.A.A.A.A.^.^.^.^.^.^.^.A.A.A.A.A.A.A.A.A.A.A.h.h.h.h.h.a.a.a.a.^.^.^.^.^.^.^.^.a.^.^.^.^.^.^.^.^.^.^.^.^.^.^.^.^.^.^.A.A.",
"^.^.A.A.A.A.A.A.A.^.^.^.A.A.A.^.A.A.A.A.A.A.A.A.A.A.A.^.^.^.^.^.^.a.^.^.^.^.^.^.^.^.^.^.^.^.^.^.^.^.^.^.^.^.^.^.^.^.^.^.^.^.A.^.",
"^.^.^.A.A.A.A.A.A.A.A.A.A.A.A.A.A.A.A.A.A.A.A.A.A.A.^.^.A.A.^.^.^.^.^.^.^.^.^.^.^.^.^.^.^.^.^.^.^.^.^.^.^.^.^.^.^.^.^.^.^.^.^.^.",
"^.^.^.A.A.A.^.^.A.A.A.A.A.A.A.A.A.A.A.A.A.A.A.A.A.A.^.A.A.A.A.^.^.^.^.^.^.^.^.A.A.A.^.^.^.^.^.A.A.^.^.^.^.A.A.^.^.^.^.^.^.^.^.^.",
"^.^.^.A.A.^.^.^.^.^.A.A.A.A.A.A.A.A.A.A.A.A.A.A.A.A.A.A.A.A.A.A.A.A.A.^.^.^.A.A.A.A.A.^.^.A.A.A.A.A.A.^.A.A.A.A.^.^.^.^.^.^.^.^.",
"^.^.^.^.^.^.^.^.^.^.^.^.^.^.^.^.^.^.^.A.A.A.A.A.A.A.A.A.A.A.A.A.A.A.A.A.^.^.A.A.A.A.A.^.A.A.A.A.A.A.A.A.A.A.A.A.^.^.^.^.^.^.^.^.",
"^.^.^.^.^.^.^.^.^.A.A.A.A.A.A.A.A.A.A.A.A.A.A.A.A.A.A.A.A.A.A.A.A.A.A.A.A.A.A.A.A.A.A.^.A.A.A.A.A.A.A.A.A.A.A.A.^.^.^.^.^.A.A.A.",
"A.A.A.A.A.A.A.A.A.A.A.A.h.h.h.h.h.h.A.A.A.A.A.A.A.A.A.A.A.A.A.A.A.A.A.A.A.A.A.A.A.A.A.A.A.A.A.A.A.A.A.A.A.A.A.A.A.A.A.A.A.A.A.A.",
"A.A.A.A.A.A.A.A.A.A.h.h.h.h.h.h.h.h.h.A.h.h.h.h.A.A.A.A.A.A.^.^.^.A.A.A.A.A.A.A.A.A.A.A.A.A.A.A.A.A.A.A.A.A.A.A.A.A.A.A.A.A.A.A.",
"A.A.A.A.A.A.A.A.h.h.h.h.h.h.h.h.h.h.h.h.h.h.h.h.h.A.A.A.^.^.^.^.^.^.A.A.A.A.A.A.A.A.A.A.h.h.h.A.A.A.A.A.A.A.A.A.A.A.A.A.A.A.A.A.",
"A.A.A.A.A.A.A.h.h.h.h.h.h.h.h.h.h.h.h.h.h.h.h.h.h.^.^.^.^.^.^.^.^.^.^.^.^.^.h.h.h.A.A.h.h.h.h.h.A.A.A.A.A.A.A.A.A.A.A.A.A.A.A.A.",
"A.A.A.A.A.h.h.h.h.h.h.A.A.A.A.A.h.h.h.h.h.h.h.h.h.h.h.h.^.^.^.^.^.^.^.^.^.h.h.h.h.h.h.h.A.A.h.h.h.A.A.A.A.A.A.h.h.h.A.A.A.A.A.A.",
"A.A.A.h.h.h.h.h.h.h.A.A.A.A.A.A.A.h.h.h.A.A.A.h.h.h.h.h.h.h.^.^.^.h.h.h.h.h.A.A.h.h.h.A.A.A.A.h.h.h.A.A.A.A.h.h.h.h.h.A.A.A.h.h.",
"h.A.A.A.A.A.A.A.A.A.A.A.A.A.A.A.A.h.h.A.A.A.F.Z C C C C 9.A.A.A.A.A.q.C C C C C D.L.A.A.L.L.L.L.A.A.A.A.A.h.h.h.h.h.h.h.h.h.h.h.",
"h.h.h.h.A.A.A.A.A.A.A.A.A.A.A.A.A.A.L.L.L.F.Z C 5.5.5.Z C t.A.K.L.t.C C Z 5.5.5.Z Z F.F.Z Z C 5.f.A.A.A.A.h.h.h.h.h.h.h.h.h.h.h.",
"A.A.A.A.A.A.A.A.A.A.A.A.A.A.A.A.A.K.5.C C C C 0.Z.Z.P.S.Z q.y.C C C C Z S.P.Z.Z.0.C C C C 5.5.5.5.f.A.A.h.h.h.h.A.A.A.h.h.h.h.h.",
"A.A.A.A.A.A.A.A.a.a.a.a.a.A.A.a.p.Z C 5.5.5.5.Z.P.P.P.I.3.C C C C C 5.S.I.E.E.P.Z.0.C C 0.Z.I.D.C 5.d.y.f.h.h.A.A.A.A.A.A.A.A.A.",
"A.A.A.A.A.A.A.a.a.a.a.a.a.a.a.a.( C 6.L.P.C.9.F.P.P.P.I.3.V w.e.e.( t.Z.P.{.OXW.P.Z.0.! Z.P.P.F.6.5.C C 7.y.y.L.A.A.A.A.A.A.A.A.",
"A.A.A.A.A.a.a.a.^.^.^.^.a.a.r.).6.C J.I.P.P.L.5.P.W.E.I.3.A i.*X+X(.Z 3.I.{.OXOXW.P.Z.u.W.W.E.P.I.H.V C C C C t.L.A.A.A.A.A.A.A.",
"A.A.a.a.a.a.^.^.^.^.^.^.^.T.0.C C C <.Z.P.P.C.t./.@XoXQ.t.( (.OX.X*Xs.<.W.oXOX.X.XI.W.OX@X@XoXW.I.3.Z 9.9.9.5.C u.h.h.h.h.A.A.A.",
"^.a.a.^.^.^.^.^.^.^.^.^.^.u.C 0.9.Z C L.W.W.W.U..X.XOX_.a.(.+X.X.XOX(.F.[.@X.X.X.X]. X.X.X.XOX{.I.F.<.I.I.I.3.5.0.f.h.h.h.h.h.h.",
"^.^.^.^.^.^.^.^.^.^.h.h.$.~ 0.J.I.:.Z :.oX@X X'..X.X.XOX+XOX.X.X.X.XOX'.}..X.X.X.X@X.X.X.X.XOX{.P.I.I.P.P.P.I.t.C ).^.^.^.^.^.^.",
"A.A.A.A.A.A.^.^.h.h.h.%.> s c.U.I.I.,.i.&X.X.X@X.X.X.X.X.X.XOX.X.X.XOX@X.X.X.X@X.X.X.X.X.X.X X`.P.P.P.P.P.P.I.t.C ).^.^.^.^.^.^.",
"A.A.A.A.A.A.A.A.A.A.#.3 o X 7 y B.I.I.'.'..X@X@X@X.X.X.X@XoX[.@X.X@X[.oX@X.X.X'. X@X@X@X@X X`.P.P.I.U.U.I.I.G.L Y K.A.A.A.A.A.A.",
"A.A.A.A.A.A.A.A.A.#.< X 3 e 9 r B.I.P.P.P.].].].'.@X@XoX].W.E.{.@X{.E.W.oX.X.X'.].].].].].!.P.I.U.m.r r X.G.L & 4 m.A.A.A.A.A.A.",
"^.^.^.A.A.A.A.A.A.T X 3 } n.N.I.I.P.I.P.N.Z.P.P.I.].].W.Z.P.P.E.].E.Z.W.oX.X.X@X[.'.P.Z.P.P.I.m.0 6   . 1 I g X o 4 m.A.A.A.A.^.",
"^.^.^.^.A.A.z.9 0 < 3 } 1.N.Z.P.P.P.N.N.V.P.P.P.P.P.P.P.P.P.P.P.P.P.W. X@X.X.X.X@X.XI.P.P.P.I.B.p R E 8 . * S < X o ..A.A.A.^.^.",
"^.^.^.^.Y.q 5 o o X e M.2.C.I.P.P.P.n.V.P.P.P.I.Z.N.N.I.P.P.P.P.P.P.[.@X.X.X.X@X.X!.P.P.P.P.P.I.I.I.U.B.7 3 o.} : X 5 Y.^.^.^.^.",
"A.A.A.T.5 o & b b f - J n.n.Z.I.P.P.n.N.Z.I.Z.N.n.1.1.N.P.P.P.P.P.P.E.}.@X@X@X`.W.P.P.P.P.P.P.P.P.P.P.U.t 9 n.n.} : o #.^.^.^.^.",
"A.A.A.z.o & M Z Z N d # i 1.n.Z.I.N.1.1.n.n.n.1.1.1.1.n.I.P.P.P.I.V.C.E.W.W.W.I.P.P.P.P.P.P.P.P.P.P.P.U.t 9 n.1.M.6 X #.A.A.^.A.",
"A.A.A.z.o a Z C C C N b ` 1.1.n.n.1.1.1.1.1.1.b.Z.Z.Z.V.N.P.P.I.V.1.V.P.P.P.P.P.P.Z.N.Z.P.P.P.P.P.P.I.C.o.o.1.b.0 # o : m.A.A.A.",
"A.A.A.z.o a Z C C C C C -.1.1.1.1.1.1.C.Z.1.b.Z.P.P.P.P.V.n.n.n.b.1.b.C.P.P.P.P.P.Z.b.n.n.N.P.P.P.C.n.b.1.1.1.' N a o o : m.A.A.",
"A.A.A.z.o a C C z * * G 2.1.1.1.1.1.C.P.P.Z.Z.P.P.P.P.I.C.1.1.2.N.Z.N.b.n.Z.P.P.P.Z.b.b.Z.Z.P.Z.n.b.1.1.1.1.b.8.C N = o o ;.h.A.",
"h.h.h.$.o o g x $ o 9 #.1.1.1.1.1.1.Z.P.P.P.P.P.P.P.P.P.P.Z.V.1.V.I.P.N.1.C.P.P.Z.n.b.Z.P.P.P.Z.1.1.1.1.1.1.1.8.C C N & o ;.h.h.",
"h.h.%.% o o @ $ X 4 1.1.1.1.1.1.1.1.b.Z.Z.P.P.P.P.Z.P.P.P.P.P.N.N.P.P.P.n.1.Z.Z.n.1.b.Z.P.P.P.C.1.1.1.2.@.2.' C C C Z = o ;.h.h.",
"A.N.; o o * * $ X 8 1.1.1.#.o.+.2.1.1.1.b.Z.P.P.Z.n.P.P.P.P.I.V.1.V.Z.Z.n.1.1.1.1.1.1.n.Z.Z.Z.1.1.1.1.-.C Z C C C C V & o ;.A.A.",
"A.m.# o d V C x $ o 9 o.o.4 % n *.1.1.1.1.b.Z.Z.1.n.Z.Z.P.P.P.N.1.1.1.1.1.1.1.1.1.1.1.1.1.1.1.1.1.1.1.&.C C C C N N a o ; { A.A.",
"A.{ O & C C C C z $ o O O % x C C &.+.+.2.1.1.1.1.1.1.n.Z.Z.N.1.1.1.1.1.1.1.1.1.1.1.1.1.1.1.1.1.1.1.1.1.-.Z C N d o o ; R O.V.A.",
"A.{ O & Z C C C Z z & % o j V C C C C 5.@.1.1.1.1.1.1.1.1.1.1.@.@.1.1.1.1.1.1.+.2.1.1.1.1.1.1.1.1.1.1.1.1.' Z j @ o o Q k.x.x.~.",
"V.{ O & M Z C C C C Z l $ o j N C C 5.@.1.1.1.1.1.1.1.1.1.1.@.8.8.@.1.1.1.+.=.! +.1.1.1.2.+.1.1.1.1.1.1.@.8.C Z j @ o o W x.v.~.",
"..{ : o & b m Z C C C Z l = = n C C +.1.1.1.1.2.=.1.1.1.1.@.' 4.Z 8.=.*.*.5.C 5.@.1.1.1.+.5.1.1.1.1.1.b.[ C C C Z j $ o W x.R.A.",
"^ ^ { , o o & m C C C C C Z Z C C C -.1.1.1.2.-.5.1.1.1.b.-.8.b.&.4.Z 5.4.Z C +.1.1.1.1.+.5.1.1.1.1.b.2.P M C C C Z a o W O...N.",
"/ / ^ K o o $ l Z C C C C C C C C C C [ &.&.@.4.5.1.1.1.@.8.8.1.1.b.-.=.b.' Z ' 2.1.1.&.[ B *.1.b.+.>.P s h Z C C Z a o R O...^ ",
"a.T.x.K o * l Z C C Z C C C C C C C C C C 8.2.+.B *.b.@.8.V ] b.1.1.1.*.@.b.5.C ' -.[ C C C B -.-.P c s X j Z C Z b & o R O.X./ ",
"~.l.x.W o a _ C Z m k n C C C C C C C C Z 2.1.+.C B -.8.C C 5.=.1.1.b.4.8.-.! C C C C C C C C C C b g g = a M ) b * o 5 j.^ ^ p.",
"^.Y.x.W o * x ) M a + j Z C C C C C C C C ' @.' C C C C C C C 5.+.b.*.5.C C C C C C C C C C C C C C Z _ l X a l & o 7 j.x.x.Y.^.",
"^.~.x.j.4 o * j a X = n C C C C C C C C C C 8.C C C C C C C C C 5.' 5.C C C C C C C C C C C Z C C C Z m = o o o 5 w j.x.l.l.~.^.",
"^.^.m.X...4 o o o o j _ C C C C Z C C C C C C C C C C C C C C C C C Z C C C C C C C C C C N l Z C Z m = o < H D j.O.X...l.T.^.^.",
"A.A.A.m...{ r r r 3 & b Z Z Z Z k M C C C C C C C C C Z Z C C C C Z z b C C C C C C C C C M $ k Z m = o o w v.x.O.......m.^.^.^.",
"A.A.A.A.N.m.O.O.#.0 o & f f f f $ m Z C C C C C C C M d l Z Z Z Z z $ x Z C C C C C C Z N d o $ f = o < y R O.......m.N.A.A.A.A.",
"A.A.A.A.A.A.;.` ` U > o o o o o o = N C C C C C Z M = o * d d d d * o & m Z C C C C V d = o o o o : t R O.O.......m.A.A.A.A.A.A.",
"A.A.A.A.A.A.A.V.m.` U G F F G u u u  .$.C C C N a & o o o o o o o o o o & = M C C C C v t u u u u R O.O.....` ;.,.A.A.A.A.A.A.A.",
"A.A.A.A.A.A.A.A.A.C.m.O.` ` ` O.O.O.O.X.] | |  .p p T F F F F T T T T F F p > M C C $.| O.O.#.C.N.........;.f.f.h.h.A.A.A.A.A.A.",
"A.A.A.A.A.A.^.^.A.A.A.C.z...............X.X.O.V.O.O.O.O.O.O.O.O.O.O.O.O.O.O.E | | | ..X.....` ;.h.m...z.f.f.h.h.h.h.A.A.A.A.A.A.",
"A.A.A.A.A.^.^.^.^.A.A.A.A.~.~.v.x.O.O.....O.C.C.X.........X.................O.O.X.X.......` ` %.h.h.f.f.h.h.h.h.h.h.A.A.A.A.A.A.",
"A.A.A.^.^.^.^.^.^.^.^.^.^.^.^.~.~.~.~.#.O.C.A.C.X.....` %.:.` ............O.V.C.#.O.O.O.$.f.f.f.h.h.h.h.h.h.h.h.h.h.h.h.h.A.A.A.",
"h.h.^.^.^.^.^.^.^.^.^.^.^.^.^.^.h.h.h.f.A.A.h.f.` ` ` %.,.` ` ` ` ....` ` ,.h.A.A.A.A.f.f.h.h.h.h.h.h.h.h.h.h.h.h.h.h.h.h.h.h.h."
};
