/* XPM */
static const char *obstacle3[] = {
/* columns rows colors chars-per-pixel */
"64 64 191 2 ",
"   c #0D112C",
".  c #12162B",
"X  c #151B2D",
"o  c #181E2E",
"O  c #121227",
"+  c #171F30",
"@  c #1A212F",
"#  c #172031",
"$  c #182233",
"%  c #1B2835",
"&  c #1C2C3A",
"*  c #1E323E",
"=  c #222A2E",
"-  c #212B33",
";  c #282D33",
":  c #2B3332",
">  c #2E3B34",
",  c #263235",
"<  c #333E35",
"1  c #3C3F37",
"2  c #354235",
"3  c #3A4736",
"4  c #31413C",
"5  c #3D4437",
"6  c #3E5038",
"7  c #43463A",
"8  c #45483A",
"9  c #415438",
"0  c #4C5D3B",
"q  c #495639",
"w  c #4B603B",
"e  c #54633C",
"r  c #5C6F3F",
"t  c #5E713F",
"y  c #63743F",
"u  c #607B3F",
"i  c #1F3541",
"p  c #1F3845",
"a  c #213B45",
"s  c #26484E",
"d  c #24434B",
"f  c #3E5543",
"g  c #274D52",
"h  c #284E53",
"j  c #295155",
"k  c #2A5659",
"l  c #2C5B5D",
"z  c #33635E",
"x  c #2A5D61",
"c  c #2E6262",
"v  c #2F6868",
"b  c #316664",
"n  c #316966",
"m  c #326D6A",
"M  c #35736E",
"N  c #3E7E6E",
"B  c #347772",
"V  c #377A73",
"C  c #397C74",
"Z  c #496449",
"A  c #4A6846",
"S  c #5E7A40",
"D  c #53734E",
"F  c #476258",
"G  c #49775A",
"H  c #626342",
"J  c #657A40",
"K  c #6A7C41",
"L  c #7B7B49",
"P  c #477F68",
"I  c #517261",
"U  c #597C68",
"Y  c #567E63",
"T  c #407F71",
"R  c #398077",
"E  c #398178",
"W  c #5E8254",
"Q  c #578C5F",
"!  c #5B8E5C",
"~  c #57815A",
"^  c #5F905A",
"/  c #6D8342",
"(  c #6D8C43",
")  c #6B8B4D",
"_  c #66864E",
"`  c #708643",
"'  c #778E45",
"]  c #788F44",
"[  c #799145",
"{  c #769845",
"}  c #7A9D46",
"|  c #749C4D",
" . c #799E4A",
".. c #719244",
"X. c #608555",
"o. c #648954",
"O. c #668D58",
"+. c #669455",
"@. c #699654",
"#. c #6E9950",
"$. c #629259",
"%. c #6A935B",
"&. c #6F995D",
"*. c #719C5E",
"=. c #7DA147",
"-. c #7CA148",
";. c #7CA259",
":. c #4D8665",
">. c #44816D",
",. c #4B866D",
"<. c #4E896C",
"1. c #528963",
"2. c #588D67",
"3. c #528B6A",
"4. c #598A6D",
"5. c #5D9165",
"6. c #5F9669",
"7. c #448272",
"8. c #578C70",
"9. c #5E8D75",
"0. c #649562",
"q. c #689661",
"w. c #6B9A62",
"e. c #67956E",
"r. c #739C6E",
"t. c #628E74",
"y. c #679175",
"u. c #6FA165",
"i. c #75A462",
"p. c #78A763",
"a. c #79A863",
"s. c #89874C",
"d. c #918F4E",
"f. c #839D48",
"g. c #809947",
"h. c #93914F",
"j. c #9D9A51",
"k. c #A19D52",
"l. c #81A345",
"z. c #84A448",
"x. c #8AA449",
"c. c #84A948",
"v. c #8CAA49",
"b. c #90A448",
"n. c #92AD4A",
"m. c #96B14C",
"M. c #9CB54C",
"N. c #9BB94E",
"B. c #86AA56",
"V. c #8AAC55",
"C. c #81A458",
"Z. c #86A858",
"A. c #92AF52",
"S. c #8FB153",
"D. c #93B351",
"F. c #A1B74C",
"G. c #A4B94C",
"H. c #ACBD4F",
"J. c #A5A154",
"K. c #ACA856",
"L. c #A8A455",
"P. c #B0AC57",
"I. c #A6BA51",
"U. c #ABBC53",
"Y. c #A6B459",
"T. c #BAB55A",
"R. c #BFBA5B",
"E. c #B0BF56",
"W. c #8CAA6C",
"Q. c #8FA363",
"!. c #9EAA61",
"~. c #AFBE6A",
"^. c #B3C157",
"/. c #B3C159",
"(. c #B8C45C",
"). c #BBC65E",
"_. c #BDC760",
"`. c #BEC766",
"'. c #BDC769",
"]. c #C1C963",
"[. c #C5CB66",
"{. c #C7CC67",
"}. c #C6CC67",
"|. c #C5CB66",
" X c #C9CD67",
".X c #CCCF67",
"XX c #C8CD68",
"oX c #C8CD68",
"OX c #CACE69",
"+X c #C8CD68",
"@X c #CED066",
/* pixels */
"N.N.N.N.N.R.R.R.R.R.R.R.R.R.R.a.a.a.a.a.a.a.a.a.a.a.a.a.a.a.a.a.a.a.a.a.a.a.a.a.a.a.a.a.a.a.a.a.a.a.a.a.a.a.a.a.a.a.a.a.a.a.a.a.",
"N.N.N.N.N.N.R.R.R.R.R.R.N.a.a.a.N.N.N.a.a.a.a.a.a.a.a.a.a.a.a.a.a.a.a.a.a.a.a.a.y.y.y.y.a.a.a.a.a.a.a.a.a.a.a.a.a.a.a.a.a.N.N.N.",
"N.N.R.R.R.R.R.R.R.R.R.N.N.N.N.N.N.N.N.N.N.N.N.a.a.a.a.a.a.a.a.a.a.a.a.a.a.a.a.y.y.y.y.y.y.N.N.N.N.N.N.N.N.y.y.y.y.a.a.a.N.N.N.N.",
"R.R.R.R.R.R.R.R.R.R.R.N.N.N.N.N.N.N.a.a.a.a.a.a.a.a.a.a.a.a.a.a.a.a.a.y.y.y.a.y.y.y.y.y.y.y.y.y.y.y.N.N.y.y.y.y.y.y.y.a.N.N.N.N.",
"R.R.R.R.R.R.R.R.R.R.N.N.N.N.N.N.N.N.N.N.a.a.a.a.a.a.a.a.a.a.a.a.a.a.y.y.y.y.y.y.y.y.y.y.y.y.y.y.y.y.y.y.y.R.R.R.y.y.y.y.N.N.N.R.",
"N.N.N.N.N.R.R.R.R.R.N.N.N.N.N.N.N.N.N.N.N.N.a.a.a.a.a.a.a.a.a.a.a.y.y.y.y.y.R.R.R.R.y.y.y.y.R.R.R.R.y.y.R.R.R.R.R.y.y.y.y.R.R.R.",
"N.N.N.N.N.N.R.R.R.R.R.N.R.R.N.N.N.N.N.N.N.N.N.N.N.N.a.a.a.a.a.a.a.y.y.y.R.R.R.R.R.R.R.y.y.R.R.R.R.R.R.R.R.R.R.R.R.R.R.R.R.R.N.N.",
"N.N.N.N.N.N.N.N.R.R.R.R.R.R.R.N.N.N.N.N.N.N.N.N.N.N.a.a.a.a.a.y.y.y.y.R.R.R.R.R.R.R.R.y.R.R.R.R.R.R.R.R.R.R.R.R.R.R.R.R.R.R.N.N.",
"R.R.N.N.N.N.N.N.N.R.R.R.N.N.N.R.N.N.N.N.N.N.N.N.N.N.N.R.R.R.R.R.R.y.R.R.R.R.R.R.R.R.R.R.R.R.R.R.R.R.R.R.R.R.R.R.R.R.R.R.R.R.N.R.",
"R.R.R.N.N.N.N.N.N.N.N.N.N.N.N.N.N.N.N.N.N.N.N.N.N.N.R.R.N.N.R.R.R.R.R.R.R.R.R.R.R.R.R.R.R.R.R.R.R.R.R.R.R.R.R.R.R.R.R.R.R.R.R.R.",
"R.R.R.N.N.N.R.R.N.N.N.N.N.N.N.N.N.N.N.N.N.N.N.N.N.N.R.N.N.N.N.R.R.R.R.R.R.R.R.N.N.N.R.R.R.R.R.N.N.R.R.R.R.N.N.R.R.R.R.R.R.R.R.R.",
"R.R.R.N.N.R.R.R.R.R.N.N.N.N.N.N.N.N.N.N.N.N.N.N.N.N.N.N.N.N.N.N.N.N.N.R.R.R.N.N.N.N.N.R.R.N.N.N.N.N.N.R.N.N.N.N.R.R.R.R.R.R.R.R.",
"R.R.R.R.R.R.R.R.R.R.R.R.R.R.R.R.R.R.R.N.N.N.N.N.N.N.N.N.N.N.N.N.N.N.N.N.R.R.N.N.N.N.N.R.N.N.N.N.N.N.N.N.N.N.N.N.R.R.R.R.R.R.R.R.",
"R.R.R.R.R.R.R.R.R.N.N.N.N.N.N.N.N.N.N.N.N.N.N.N.N.N.N.N.N.N.N.N.N.N.N.N.N.N.N.N.N.N.N.R.N.N.N.N.N.N.N.N.N.N.N.N.R.R.R.R.R.N.N.N.",
"N.N.N.N.N.N.N.N.N.N.N.N.a.a.a.a.a.a.N.N.N.N.N.N.N.N.N.N.N.N.N.N.N.N.N.N.N.N.N.N.N.N.N.N.N.N.N.N.N.N.N.N.N.N.N.N.N.N.N.N.N.N.N.N.",
"N.N.N.N.N.N.N.N.N.N.a.a.a.a.a.a.a.a.a.N.a.a.a.a.N.N.N.N.N.N.R.R.R.N.N.N.N.N.N.N.N.N.N.N.N.N.N.N.N.N.N.N.N.N.N.N.N.N.N.N.N.N.N.N.",
"N.N.N.N.N.N.N.N.a.a.a.a.a.a.a.a.a.a.a.a.a.a.a.a.a.N.N.N.R.R.R.R.R.R.N.N.N.N.N.N.N.N.N.N.a.a.a.N.N.N.N.N.N.N.N.N.N.N.N.N.N.N.N.N.",
"N.N.N.N.N.N.N.a.a.a.a.a.a.a.a.a.a.a.a.a.a.a.a.a.a.R.R.R.R.R.R.R.R.R.R.R.R.R.a.a.a.N.N.a.a.a.a.a.N.N.N.N.N.N.N.N.N.N.N.N.N.N.N.N.",
"N.N.N.N.N.a.a.a.a.a.a.N.N.N.N.N.a.a.a.a.a.a.a.a.a.a.a.a.R.R.R.R.R.R.R.R.R.a.a.a.a.a.a.a.N.N.a.a.a.N.N.N.N.N.N.a.a.a.N.N.N.N.N.N.",
"N.N.N.a.a.a.a.a.a.a.N.N.N.N.N.N.N.a.a.a.N.N.N.a.a.a.a.a.a.a.R.R.R.a.a.a.a.a.N.N.a.a.a.N.N.N.N.a.a.a.N.N.N.N.a.a.a.a.a.N.N.N.a.a.",
"a.N.N.N.N.N.N.N.N.N.N.N.N.N.N.N.N.a.a.N.N.N.N.B.V V V V V 5.N.N.N.N.M.2.V V V V C V.D.N.N.D.D.D.D.N.N.N.N.a.a.a.a.a.a.a.a.a.a.a.",
"a.a.a.a.N.N.N.N.N.N.N.N.N.N.N.N.N.N.N.D.S.D.B.C V >.>.>.C V 0.N.S.D.5.V V T >.>.>.C >.V.B.C C V ,.D.N.N.N.a.a.a.a.a.a.a.a.a.a.a.",
"N.N.N.N.N.N.N.N.N.N.N.N.N.N.N.N.N.N.S.>.V V V V 2.M.M.F.C.C 5.q.V V V V T B.M.M.M.<.V V V V >.>.>.,.D.N.a.a.a.a.N.N.N.a.a.a.a.a.",
"N.N.N.N.N.N.N.N.y.y.y.y.y.N.N.y.y.t.>.V ,.,.>.>.M.F.F.F.G.;.B V V V V >.B.F.I.U.F.M.3.V V 2.M.F.B.>.,.u.w.i.a.N.N.N.N.N.N.N.N.N.",
"N.N.N.N.N.N.N.y.y.y.y.y.y.y.y.y.9.C V <.M.F.D.>.M.F.F.F.M.0.T 8.8.7.B ;.F.I.].{.I.F.M.C >.M.F.F.G.C.V V V 3.i.N.N.N.N.N.N.N.N.N.",
"N.N.N.N.N.y.y.y.R.R.R.R.y.9.9.!.,.V 3.M.F.M.;.5.U.U.F.M.q.C W..X@Xr.>.B.U.]. X{.G.F.I.t.e.I.F.F.M.q.B V V V 0.D.N.N.N.N.N.N.N.N.",
"N.N.y.y.y.y.R.R.R.R.R.R.Y.4.V V V V A.F.F.M.0.U.oX].I.0.C W..X{..Xr.*.H.].oX{.{.G.U.|. X X|.U.F.C.C 2.2.2.>.V 6.a.a.a.a.a.N.N.N.",
"R.y.y.R.R.R.R.R.R.R.R.k.Y V <.5.C V A.U.U.U.G.{.{. X~.y.W..X{.{. XW.Z.).oX{.{.{./.|.{.{.{. X].F.V.*.G.G.G.C.>.<.i.a.a.a.a.a.a.a.",
"R.R.R.R.R.R.R.R.R.R.%.4 a Y A.G.*.C q.`.oX{./.{.{.{. X.X X{.{.{.{. X)._.{.{.{.{.oX{.{.{.{. X].F.F.G.F.F.F.G.q.B Q.R.R.R.R.R.R.R.",
"N.N.N.N.N.N.R.R.a.%.4 X   q n.G.G.*.r.'. X{.oX{.{.{.{.{. XoX{.{.{. XoX{.{.{.oX{.{.{.{.{. X|./.F.F.F.F.F.F.G.q.B Q.R.R.R.R.R.R.R.",
"N.N.N.N.N.N.N.N.f.3 . > w - 5 x.F.G./.(.{.oXoXoX{.{.{.oX].).oX{.oX_.]. X{.{.).|.oXoXoXoX{./.F.F.F.G.G.G.G.B.<.3.V.N.N.N.N.N.N.N.",
"N.N.N.N.N.N.N.N.J X > ( c.t e x.F.F.F.F./././.(.oXoX]./.U.G._.oX_.I.U.].{.{.)./././././.^.F.F.H.b.e e ] V.<.x ) N.N.N.N.N.N.N.N.",
"R.R.R.N.N.x.0 e 3 . w c.-.v.F.F.F.F.F.F.v.M.F.F.^./.U.M.F.F.I./.U.M.U.].{.{.oX).(.F.M.M.F.F.b.0 3     : G c & < f.N.N.N.N.N.N.R.",
"R.R.R.R.x.3 X X X . w c.-.n.F.F.F.F.v.v.n.F.F.F.F.F.F.F.F.F.F.F.F.F.).oX{.{.{.oX{.G.F.F.F.F.n.J K K q   & & O X 2 f.N.N.N.N.R.R.",
"R.R.R.K.7 X & l l a = J =.n.F.F.F.F.m.l.M.F.F.F.F.M.v.n.F.F.F.F.F.F.U.].oX{.{.{.{.G.F.F.F.F.F.G.G.G.n.q . 3 S > . < J.R.R.R.R.R.",
"N.N.N.k.X & n C C M p = u c.M.F.F.F.F.z.v.F.F.M.v.z.-.-.n.F.F.F.F.F.F.U.].oX X{.E.F.F.F.F.F.F.F.F.F.G.K   w c.( > . < x.R.R.R.R.",
"N.N.N.f.X i C V V C m x W -.z.M.F.F.v.-.-.z.z.z.-.-.-.-.v.F.F.F.F.F.n.m.U.U.U.U.F.F.F.F.F.F.F.F.F.F.G.y 2 ..-.=.( > X [ N.N.R.N.",
"N.N.N.f.X i C V V V V V $.-.-.z.z.z.-.-.-.-.-.-.z.M.M.M.n.v.F.F.F.n.-.n.F.F.F.F.F.F.M.v.F.F.F.F.F.F.F.x...-.-.-.z.2 X [ N.N.N.N.",
"N.N.N.f.X i V C l & & A -.-.-.-.-.-.-.-.M.M.-.z.M.F.F.F.F.n.z.z.z.-.-.l.M.F.F.F.F.F.M.-.z.z.v.F.F.F.m.z.-.-.-.=.0 @ X : x.N.N.N.",
"N.N.N.g.X X d l $ X 9 } -.-.-.-.-.-.-.M.F.F.M.M.F.F.F.F.F.n.-.-.-.v.M.z.l.z.M.F.F.F.M.-.z.M.M.F.M.z.l.-.-.-.-.! M i X X - &.a.N.",
"a.a.%.- X X + $ . 6 } -.-.-.-.-.-.-.-.M.F.F.F.F.F.F.F.F.F.F.M.v.-.n.F.M.z.-.M.F.F.M.z.l.M.F.F.F.m.-.-.-.-.-.l.1.V M i X X %.a.a.",
"a.&.- X X $ $ # . 9 -.-.} { {  . .-.-.l.M.M.F.F.F.F.M.F.F.F.F.F.v.n.F.F.F.z.-.M.M.z.-.l.M.F.F.F.m.-.-.-.-.-.-.1.V V B & X %.a.a.",
"N.v.@ X i M B k + X 0 } 9 @ % b C | -.-.-.z.M.F.F.m.v.F.F.F.F.F.v.-.n.M.M.z.-.-.-.-.-.-.z.M.M.m.-.-.-.-. . .Q V V V C * X %.N.N.",
"N.x.o & B V V V k + o @ o $ l V V @.-.-.-.-.z.M.M.-.z.M.F.F.F.M.v.-.-.-.-.-.-.-.-.-.-.-.-.-.-.-.-.-.-.$.V C V V V V M & X / M.N.",
"M./ o & V V V V C k % & + g V V V V @.| -.-.-.-.-.-.-.z.M.M.v.-.-.-.-.-.-.-.-.-.-.-.-.-.-.-.-.-.-.-.-.+.C V V V M m * X - / n.N.",
"M./ o & m V V V V V V C g X h B V V >.>. .-.-.-.-.-.-.-.-.-.-.-.-.-.-.-.-.-.-.| -.-.-.-.-.-.-.-.-.-.-.-.$.C V M i X X ; L h.h.T.",
"n./ : X & b m C V V V V C g & b V V | -.-.-.-.-.-.-.-.-.-.-.-.|  .-.-.-.-.-.| T | -.-.-.-.| -.-.-.-.-.-.l.! V h # X X H d.h.j.T.",
"] ] / : X X & m V V V V V V V V V V | -.-.-.-.-.#.-.-.-.-.-. .:.:. .-.-.-.| T >. .-.-.-.| >.-.-.-.-.-.-. .1.V C h $ X X L h.P.N.",
"I I [ F X X $ h C V V V V V V V V V $.-.-.-.-.$.>.-.-.-.-. .! :.N 1.@.+.+.>.V | -.-.-.-.| >.-.-.-.-.-.l.^ V V V C g $ X L [ ] v.",
"U U I F X $ j C V V C V V V V V V V V ^ +.+. .:.>.-.-.-.l.$.1.l.+.:.N >.:.C V ! -.-.-.+.^ N @.-.-.-.l.| G n V V V C i X J [ ] I ",
"y.K.h.F X i E V C m j n V V V V V V V V V 1.-.| N @.l.l. .:.1.-.-.l.$.| z.! C V ! $.^ V V V N $.$.$.+.G i s C V V C i X J [ [ U ",
"T.d.h.L X & c R m a O g C V V V V V V V C -.-.| V N ^ $.1.B Q l.-.-.l.@.| l.>.V V V V V V V V V V m h i O h C V C c & X L I I t.",
"R.J.h.s.7 X % j a . * b V V V V V V V V V !  .Q V V V V V V >.#.-.-.l.:.:.! N V V V V V V V V V V n d s * * n E x % X 7 s.h.J.R.",
"R.T.d.h.` 3 X X X X h E V V V V C V V V V V 1.V V V V V V V V >.#.z.@.>.V V V V V V V V V V C V V V C E j O * g & X 8 s.h.d.T.R.",
"R.R.x.] [ / 0 0 w 1 & b C C V V j m V V V V V V V V V V V V V V >.Q >.V V V V V V V V V V M j C V V C b * X X X 7 0 / [ d.L.R.R.",
"N.N.M.x.] ] [ [ [ 0 X & d a n R * n C V V V V V V V V C V V V V V V V V V V V V V V V V V m $ h C C n & X 5 H H / [ ] ] x.R.R.R.",
"N.N.N.M.v.x.] ] [ / 2 X X X * a $ i M V V V V V V C m h C V V V V C j c V V V V V V V C M a X $ a a & X X q [ [ [ ] x.v.M.N.N.N.",
"N.N.N.N.N.M.%.W W X.D Z Z Z , X X X i M V V V V C m & $ j C C C C k $ l C V V V V V B a * X X X X X X < r K [ ] ] x.M.N.N.N.N.N.",
"N.N.N.N.N.N.M.n.x.W W X.X.X.D t t t t _ V V V M i & X X $ i i i i % X & b C V V V V V z r t t t t t t K [ [ W %.*.M.N.N.N.N.N.N.",
"N.N.N.N.N.N.N.N.M.m.f.] W W W [ [ [ [ ] ~ ) ) _ y y J f X X X X X X X X & * * m V V o.) [ [ [ m.v.[ [ [ ] %.i.i.a.a.N.N.N.N.N.N.",
"N.N.N.N.N.N.R.R.N.N.M.m.f.] ] ] ] ] ] ] ] ] [ n.[ [ [ ` J J J J J J J J J J J ) ) ) ] ] ] ] W %.a.x.] f.i.i.a.a.a.a.N.N.N.N.N.N.",
"N.N.N.N.N.R.R.R.R.N.N.N.M.T.T.j.h.[ [ ] ] [ m.m.] ] ] ] [ [ [ [ [ [ [ [ [ [ [ [ ] ] ] ] ] W W O.a.a.i.i.a.a.a.a.a.a.N.N.N.N.N.N.",
"N.N.N.R.R.R.R.R.R.R.R.R.R.R.R.T.T.T.T.[ [ m.N.m.] ] ] W O.&.W ] ] ] ] ] ] [ n.M.[ [ [ [ o.i.i.i.a.a.a.a.a.a.a.a.a.a.a.a.a.N.N.N.",
"a.a.R.R.R.R.R.R.R.R.R.R.R.R.R.R.a.a.a.i.M.N.a.i.W W W O.*.W W W W ] ] W W *.a.N.M.M.M.i.i.a.a.a.a.a.a.a.a.a.a.a.a.a.a.a.a.a.a.a."
};
