/* XPM */
static const char *obstacle6[] = {
/* columns rows colors chars-per-pixel */
"64 64 195 2 ",
"   c #0D122C",
".  c #13162B",
"X  c #151B2D",
"o  c #181E2E",
"O  c #121227",
"+  c #171E30",
"@  c #1C222E",
"#  c #172031",
"$  c #192333",
"%  c #1A2837",
"&  c #1C2C3A",
"*  c #182739",
"=  c #1E313E",
"-  c #21292F",
";  c #232C32",
":  c #282D33",
">  c #2C3533",
",  c #2B3936",
"<  c #313E34",
"1  c #2F403B",
"2  c #364335",
"3  c #394536",
"4  c #3C4B37",
"5  c #3E4139",
"6  c #404B36",
"7  c #44473A",
"8  c #405238",
"9  c #495639",
"0  c #465A3A",
"q  c #4C5C3B",
"w  c #57593F",
"e  c #4C613B",
"r  c #53633C",
"t  c #596B3E",
"y  c #5D713E",
"u  c #5E793F",
"i  c #63753F",
"p  c #1F3541",
"a  c #1F3A45",
"s  c #213C46",
"d  c #213E48",
"f  c #23434B",
"g  c #26484E",
"h  c #314F48",
"j  c #3E5443",
"k  c #274D52",
"l  c #284F53",
"z  c #295256",
"x  c #2B5759",
"c  c #2C5B5C",
"v  c #27545A",
"b  c #32605B",
"n  c #2B5F62",
"m  c #2E6161",
"M  c #306764",
"N  c #316967",
"B  c #326C69",
"V  c #34726D",
"C  c #3E7E6F",
"Z  c #357671",
"A  c #377A73",
"S  c #397C74",
"D  c #2E7575",
"F  c #425842",
"G  c #5C5E40",
"H  c #4C684A",
"J  c #4B6847",
"K  c #5E6041",
"L  c #5E7940",
"P  c #476358",
"I  c #47765A",
"U  c #567750",
"Y  c #616242",
"T  c #657A41",
"R  c #6A7C41",
"E  c #617540",
"W  c #7B7B48",
"Q  c #417F6D",
"!  c #417665",
"~  c #517261",
"^  c #597C68",
"/  c #407F72",
"(  c #398078",
")  c #398077",
"_  c #5E8354",
"`  c #53815B",
"'  c #5B8E5C",
"]  c #578C5F",
"[  c #5E905B",
"{  c #6E8443",
"}  c #6D8C43",
"|  c #68874C",
" . c #698A4F",
".. c #65854E",
"X. c #778E45",
"o. c #788F44",
"O. c #739445",
"+. c #799145",
"@. c #749C4C",
"#. c #799F4A",
"$. c #799C46",
"%. c #648955",
"&. c #668D59",
"*. c #698C51",
"=. c #659456",
"-. c #699654",
";. c #6D9851",
":. c #619159",
">. c #6A935B",
",. c #6D995F",
"<. c #729C5D",
"1. c #769A50",
"2. c #7DA147",
"3. c #7BA048",
"4. c #7BA15A",
"5. c #4D8665",
"6. c #44816D",
"7. c #49856D",
"8. c #4F8A6D",
"9. c #528963",
"0. c #588D67",
"q. c #538B69",
"w. c #56896E",
"e. c #5C9165",
"r. c #5F9669",
"t. c #458272",
"y. c #578C70",
"u. c #5D8C75",
"i. c #629463",
"p. c #689661",
"a. c #6C9C63",
"s. c #68956C",
"d. c #719B6F",
"f. c #628E74",
"g. c #679175",
"h. c #6FA166",
"j. c #75A462",
"k. c #78A763",
"l. c #79A863",
"z. c #89884C",
"x. c #918F4E",
"c. c #869E47",
"v. c #839C48",
"b. c #93914F",
"n. c #9C9951",
"m. c #81A346",
"M. c #84A548",
"N. c #8AA349",
"B. c #83A949",
"V. c #8CAA49",
"C. c #90A448",
"Z. c #92AD4A",
"A. c #96B14B",
"S. c #9BB54C",
"D. c #9BB94E",
"F. c #84A657",
"G. c #86AB56",
"H. c #8BAC54",
"J. c #83A658",
"K. c #91AE52",
"L. c #8EB154",
"P. c #93B351",
"I. c #A1B74C",
"U. c #A3B94C",
"Y. c #A6A354",
"T. c #AAA655",
"R. c #B0AC57",
"E. c #A7BA50",
"W. c #ABBD53",
"Q. c #A6B459",
"!. c #BAB55A",
"~. c #BFBA5B",
"^. c #8CAA6C",
"/. c #8FA363",
"(. c #91AD6B",
"). c #AFBE6A",
"_. c #AAC04C",
"`. c #B2C057",
"'. c #B3C159",
"]. c #BAC55D",
"[. c #BDC760",
"{. c #BEC764",
"}. c #BEC765",
"|. c #C1C963",
" X c #C5CB66",
".X c #C7CC67",
"XX c #C6CC67",
"oX c #C7CC67",
"OX c #C9CD67",
"+X c #CCCF67",
"@X c #C8CD68",
"#X c #C8CD68",
"$X c #CACE69",
"%X c #C8CD68",
"&X c #CED066",
/* pixels */
"D.D.D.D.D.~.~.~.~.~.~.~.~.~.~.l.l.l.l.l.l.l.l.l.l.l.l.l.l.l.l.l.l.l.l.l.l.l.l.l.l.l.l.l.l.l.l.l.l.l.l.l.l.l.l.l.l.l.l.l.l.l.l.l.",
"D.D.D.D.D.D.~.~.~.~.~.~.D.l.l.l.D.D.D.l.l.l.l.l.l.l.l.l.l.l.l.l.l.l.l.l.l.l.l.l.g.g.g.g.l.l.l.l.l.l.l.l.l.l.l.l.l.l.l.l.l.D.D.D.",
"D.D.~.~.~.~.~.~.~.~.~.D.D.D.D.D.D.D.D.D.D.D.D.l.l.l.l.l.l.l.l.l.l.l.l.l.l.l.l.g.g.g.g.g.g.D.D.D.D.D.D.D.D.g.g.g.g.l.l.l.D.D.D.D.",
"~.~.~.~.~.~.~.~.~.~.~.D.D.D.D.D.D.D.l.l.l.l.l.l.l.l.l.l.l.l.l.l.l.l.l.g.g.g.l.g.g.g.g.g.g.g.g.g.g.g.D.D.g.g.g.g.g.g.g.l.D.D.D.D.",
"~.~.~.~.~.~.~.~.~.~.D.D.D.D.D.D.D.D.D.D.l.l.l.l.l.l.l.l.l.l.l.l.l.l.g.g.g.g.g.g.g.g.g.g.g.g.g.g.g.g.g.g.g.~.~.~.g.g.g.g.D.D.D.~.",
"D.D.D.D.D.~.~.~.~.~.D.D.D.D.D.D.D.D.D.D.D.D.l.l.l.l.l.l.l.l.l.l.l.g.g.g.g.g.~.~.~.~.g.g.g.g.~.~.~.~.g.g.~.~.~.~.~.g.g.g.g.~.~.~.",
"D.D.D.D.D.D.~.~.~.~.~.D.~.~.D.D.D.D.D.D.D.D.D.D.D.D.l.l.l.l.l.l.l.g.g.g.~.~.~.~.~.~.~.g.g.~.~.~.~.~.~.~.~.~.~.~.~.~.~.~.~.~.D.D.",
"D.D.D.D.D.D.D.D.~.~.~.~.~.~.~.D.D.D.D.D.D.D.D.D.D.D.l.l.l.l.l.g.g.g.g.~.~.~.~.~.~.~.~.g.~.~.~.~.~.~.~.~.~.~.~.~.~.~.~.~.~.~.D.D.",
"~.~.D.D.D.D.D.D.D.~.~.~.D.D.D.~.D.D.D.D.D.D.D.D.D.D.D.~.~.~.~.~.~.g.~.~.~.~.~.~.~.~.~.~.~.~.~.~.~.~.~.~.~.~.~.~.~.~.~.~.~.~.D.~.",
"~.~.~.D.D.D.D.D.D.D.D.D.D.D.D.D.D.D.D.D.D.D.D.D.D.D.~.~.D.D.~.~.~.~.~.~.~.~.~.~.~.~.~.~.~.~.~.~.~.~.~.~.~.~.~.~.~.~.~.~.~.~.~.~.",
"~.~.~.D.D.D.~.~.D.D.D.D.D.D.D.D.D.D.D.D.D.D.D.D.D.D.~.D.D.D.D.~.~.~.~.~.~.~.~.D.D.D.~.~.~.~.~.D.D.~.~.~.~.D.D.~.~.~.~.~.~.~.~.~.",
"~.~.~.D.D.~.~.~.~.~.D.D.D.D.D.D.D.D.D.D.D.D.D.D.D.D.D.D.D.D.D.D.D.D.D.~.~.~.D.D.D.D.D.~.~.D.D.D.D.D.D.~.D.D.D.D.~.~.~.~.~.~.~.~.",
"~.~.~.~.~.~.~.~.~.~.~.~.~.~.~.~.~.~.~.D.D.D.D.D.D.D.D.D.D.D.D.D.D.D.D.D.~.~.D.D.D.D.D.~.D.D.D.D.D.D.D.D.D.D.D.D.~.~.~.~.~.~.~.~.",
"~.~.~.~.~.~.~.~.~.D.D.D.D.D.D.D.D.D.D.D.D.D.D.D.D.D.D.D.D.D.D.D.D.D.D.D.D.D.D.D.D.D.D.~.D.D.D.D.D.D.D.D.D.D.D.D.~.~.~.~.~.D.D.D.",
"D.D.D.D.D.D.D.D.D.D.D.D.l.l.l.l.l.l.D.D.D.D.D.D.D.D.D.D.D.D.D.D.D.D.D.D.D.D.D.D.D.D.D.D.D.D.D.D.D.D.D.D.D.D.D.D.D.D.D.D.D.D.D.D.",
"D.D.D.D.D.D.D.D.D.D.l.l.l.l.l.l.l.l.l.D.l.l.l.l.D.D.D.D.D.D.~.~.~.D.D.D.D.D.D.D.D.D.D.D.D.D.D.D.D.D.D.D.D.D.D.D.D.D.D.D.D.D.D.D.",
"D.D.D.D.D.D.D.D.l.l.l.l.l.l.l.l.l.l.l.l.l.l.l.l.l.D.D.D.~.~.~.~.~.~.D.D.D.D.D.D.D.D.D.D.l.l.l.D.D.D.D.D.D.D.D.D.D.D.D.D.D.D.D.D.",
"D.D.D.D.D.D.D.l.l.l.l.l.l.l.l.l.l.l.l.l.l.l.l.l.l.~.~.~.~.~.~.~.~.~.~.~.~.~.l.l.l.D.D.l.l.l.l.l.D.D.D.D.D.D.D.D.D.D.D.D.D.D.D.D.",
"D.D.D.D.D.l.l.l.l.l.l.D.D.D.D.D.l.l.l.l.l.l.l.l.l.l.l.l.~.~.~.~.~.~.~.~.~.l.l.l.l.l.l.l.D.D.l.l.l.D.D.D.D.D.D.l.l.l.D.D.D.D.D.D.",
"D.D.D.l.l.l.l.l.l.l.D.D.D.D.D.D.D.l.l.l.D.D.D.l.l.l.l.l.l.l.~.~.~.l.l.l.l.l.D.D.l.l.l.D.D.D.D.l.l.l.D.D.D.D.l.l.l.l.l.D.D.D.l.l.",
"l.D.D.D.D.D.D.D.D.D.D.D.D.D.D.D.D.l.l.D.D.D.H.S A A A A 0.D.D.D.D.D.e.A A A A A G.P.D.D.P.P.P.P.D.D.D.D.D.l.l.l.l.l.l.l.l.l.l.l.",
"l.l.l.l.D.D.D.D.D.D.D.D.D.D.D.D.D.D.P.L.P.H.S A 6.6.6.S A i.D.L.P.i.A A / 6.6.6.S S H.H.S S A 7.j.D.D.D.D.l.l.l.l.l.l.l.l.l.l.l.",
"D.D.D.D.D.D.D.D.D.D.D.D.D.D.D.D.D.L.7.A A A A q.S.S.I.F.S e.a.A A A A S F.I.S.S.q.A A A A 6.6.6.7.j.D.D.l.l.l.l.D.D.D.l.l.l.l.l.",
"D.D.D.D.D.D.D.D.g.g.g.g.g.D.D.g.f.S A 7.7.7.6.S.I.I.I.U.4.Z A A A A / F.U.E.E.U.S.q.A A q.S.U.G.A 7.h.a.j.l.l.D.D.D.D.D.D.D.D.D.",
"D.D.D.D.D.D.D.g.g.g.g.g.g.g.g.f./ A 7.P.I.A.7.S.I.I.I.S.,./ y.y.t.Z 4.U.E.|.OXE.I.S.S C S.I.U.H.6.A A A 8.a.j.D.D.D.D.D.D.D.D.D.",
"D.D.D.D.D.g.g.g.~.~.~.~.g.u.u.w.A A K.U.I.A.6.S.W.E.U.F.D d.&X+X(./ <.U.].@X.XW.I.S.s.s.W.E.I.U.F.A A A A A i.P.D.D.D.D.D.D.D.D.",
"D.D.g.g.g.g.~.~.~.~.~.~.Q.w.A A A A K.I.I.A.i.W.OX|.E.p.S ^.OX.X&Xd.<.W.|..X.X.XE.W.OXOX@X|.W.U.J.S 0.0.0.6.A r.l.l.l.l.l.D.D.D.",
"~.g.g.~.~.~.~.~.~.~.~.~.s.A 8.e.S A K.W.W.W.U..X.XOX).g.^.+X.X.XOX^.F.].@X.X.X.X'.XX.X.X.X.X|.U.H.<.U.U.U.J.6.8.j.l.l.l.l.l.l.l.",
"~.~.~.~.~.~.~.~.~.~.l.%.! q.K.U.<.S p.}.@X.X'..X.X.XOX+XOX.X.X.X.XOX].[..X.X.X.X@X.X.X.X.XOX|.I.U.U.I.I.I.U.p.A /.~.~.~.~.~.~.~.",
"D.D.D.D.D.D.~.~.l.l.&., a 1._.U.U.<.d.}.OX.X@X.X.X.X.X.X.X@X.X.X.XOX@X.X.X.X@X.X.X.X.X.X.XXX'.I.I.I.I.I.I.U.p.Z /.~.~.~.~.~.~.~.",
"D.D.D.D.D.D.D.D.D.v.2 X . 6 t N.U.U.'.'..X@X@X@X.X.X.X@X|.].@X.X@X[.|.@X.X.X].XX@X@X@X@X.X'.I.I.U.U.U.U.U.H.8.0.L.D.D.D.D.D.D.D.",
"D.D.D.D.D.D.D.D.v.2 . < e 0 r N.U.I.I.I.'.'.'.'.@X@X|.'.W.U.[.@X[.E.W.|..X.X].'.'.'.'.'.`.I.U.E.C.r r o.L.8.n F c.D.D.D.D.D.D.D.",
"~.~.~.D.D.D.D.D.T X < } B.V.U.U.I.U.U.V.S.I.I.U.`.'.W.I.I.I.E.'.E.S.W.|..X.X@X].'.I.I.I.I.U.C.q 3     > j f & X 3 v.D.D.D.D.D.~.",
"~.~.~.~.D.M.9 q 2 . 0 B.3.Z.U.I.I.V.V.Z.I.I.I.I.I.I.I.I.I.I.I.I.I.I.].@X.X.X.X@X@XU.I.I.I.U.Z.i T R 9   . 2 y , . 3 M.D.D.D.~.~.",
"~.~.~.~.Y.5 X X X . 0 B.3.A.U.I.I.A.m.S.I.I.I.U.S.V.V.U.I.I.I.I.I.I.].@X.X.X.X.X'.U.I.I.I.I.U.U.U.U.Z.9   e B.} , X b.~.~.~.~.~.",
"D.D.D.T.5 X & m m d - L B.B.S.U.I.U.M.N.S.U.S.V.M.3.3.V.I.I.I.I.I.I.E.[.@XOXOX`.I.I.I.I.I.I.I.I.I.I.U.i < O.3.B.4 . < M.~.~.~.~.",
"D.D.D.v.X & B S S V s @ u 2.B.S.U.V.3.3.M.M.M.3.3.3.3.M.U.I.I.I.U.Z.A.E.W.W.W.I.I.I.I.I.I.I.I.I.I.I.U.c.} 2.3.3.} , X +.D.D.~.D.",
"D.D.D.v.X p S A A S V m _ 3.3.B.M.3.3.3.3.3.3.m.S.S.S.Z.V.I.I.U.Z.3.Z.I.I.I.I.I.I.S.V.S.I.I.I.I.U.U.A.m.3.3.3.3.B.2 X +.D.D.D.D.",
"D.D.D.v.X p S A A A A A :.3.3.3.3.3.3.A.S.m.m.S.I.I.U.I.Z.B.B.M.m.3.m.A.I.I.I.I.I.S.m.B.M.V.I.S.M.M.m.3.3.3.3.[ h @ X > M.D.D.D.",
"D.D.D.v.X p A A x % % J 3.3.3.3.3.3.A.I.I.S.S.I.I.I.I.U.A.3.3.3.V.S.V.m.B.S.I.I.I.S.m.m.S.S.I.S.3.3.3.3.3.3.m.9.V p X o ; ,.l.D.",
"l.l.l.%.o o f c # X 0 $.3.3.3.3.3.3.S.I.I.I.I.I.I.I.I.I.I.S.Z.3.Z.U.I.V.3.A.I.I.S.M.m.S.I.I.I.S.3.3.3.3.3.3.3.9.A V p X o >.l.l.",
"l.l.&.$ o o + # . 8 3.3.3.3.3.3.3.3.m.S.S.I.I.I.I.I.I.I.I.I.I.V.V.I.I.I.M.3.S.S.M.3.m.S.I.I.I.A.3.3.3.3.#.3.' A A A Z & o >.l.l.",
"D.V.; o o % % # . 8 3.3.3.$.O.@.3.3.3.3.m.S.I.I.S.M.I.I.I.I.U.Z.3.Z.I.S.M.3.3.3.3.3.3.B.S.S.S.3.3.3.m.:.A C A A A A A = o >.D.D.",
"D.N.o o s Z A c # X 0 O.O.4 $ M -.3.3.3.3.m.S.S.3.M.S.S.I.I.I.V.3.3.3.3.3.3.3.3.3.3.3.3.3.3.3.3.3.3.m.=.A A A A A A V & o { D.D.",
"D.{ o & A A A S x # o o o $ c A A -.@.@.3.3.3.3.3.3.3.M.S.S.V.3.3.3.3.3.3.3.#.3.3.3.3.3.3.3.3.3.3.3.3.3.:.S A V B B = X ; { Z.D.",
"D.{ o & A A A A S x & $ X k Z A A A 6.6.#.3.3.3.3.3.3.3.3.3.3.3.3.3.3.3.3.@.6.@.3.3.3.3.@.3.3.3.3.3.3.3.3.' A k # o o : W b.b.!.",
"Z.{ o & B S A A A A S z # X k V A 6.@.3.3.3.3.3.3.3.3.3.3.3.#.@.3.3.3.3.@.6.6.@.3.3.3.#.6.3.3.3.3.3.3.3.#.9.A S s X o Y x.b.n.!.",
"X.{ > X & m N S A A A S z = = M S @.3.3.3.3.3.;.3.3.3.3.3.#.9.5.#.m.3.m.5.A @.3.3.3.3.#.6.3.3.3.3.3.3.m.[ A A S k # X o W b.R.D.",
"~ ~ { : X X & N A A A A A S S A A [ 3.3.3.3.:.6.3.3.3.3.#.' 5.C 5.-.=.-.6.A [ 3.3.3.-.:.C -.#.-.-.-.@.3.I B A A S k # X W +.X.V.",
"^ ^ ~ P o X # z S A A A A A A A A A ' =.=.#.5.6.3.3.3.3.=.5.m.-.5.C 6.5.5.C A ' =.:.A A A C ' A B v I ` a g S A A S p X T +.X.~ ",
"g.T.b.P o % z S A A S A A A A A A A A A 9.3.#.C =.3.m.#.9.9.m.3.m.=.;.m.m.5.A A A A A A A A A S N s g a O k S A A S p X T +.+.^ ",
"!.x.b.W X p ( A S N l M A A A A A A A S 3.3.#.A S [ :.9.Z 9.m.3.3.m.-.@.-.Q A A A A A A A A A A A S M f = p B S S m & X W ~ ~ f.",
"~.Y.b.W X % c ) B p O k S A A A A A A A ' #.' A A A A A A 6.;.3.3.m.9.5.Q A A A A A A A A A S A A A A ( z O p l k % X 7 z.b.Y.~.",
"~.!.b.z.4 X % k p . = M S A A A A A A A A 9.A A A A A A A A 6.;.m.-.6.A A A A A A A A A A V z S S A A S z X X X X X 7 z.b.x.!.~.",
"~.~.N.X.X.4 X X X X l ( A A A A S A A A A A A A A A A A A A A 6.] 6.A A A A A A A A A A A B # f z S S M = < K G G q { +.x.T.~.~.",
"D.D.D.N.X.{ r r r 2 & m S S S S l B A A A A A A A A A S A A A A A A S A A A A A A A A S Z s o X % f f = X w n.b.+.+.X.X.N.~.~.~.",
"D.D.D.D.V.N.+.+.+.q X & s s s s # N S A A A A A A S B l S A A A A S z m S A A A A A Z s s X o ; t 6 X X < R +.X.X.X.N.V.D.D.D.D.",
"D.D.D.D.D.D.>._ _ U , X X X X X X = V A A A A A S B & # z S S S S x # c S S S A A A A b t t t E +.{ t t R +.X.X.X.N.D.D.D.D.D.D.",
"D.D.D.D.D.D.D.Z.M._ U H H H H y y y ..%.A A A V p & X X # p p p p % X & p p p B A A %.*.+.+.+.+.X.+.+.+.+.X._ >.<.D.D.D.D.D.D.D.",
"D.D.D.D.D.D.D.D.D.A.M.+._ _ _ +.+.+.+.o.`  . .| i i T j X X X X X X o X j i i .. . .X.o.X.X.+.A.N.X.X.X.X.>.j.j.l.l.D.D.D.D.D.D.",
"D.D.D.D.D.D.~.~.D.D.D.A.v.X.X.X.X.X.X.X.o.o.+.Z.+.+.+.X.T T T T T T T T X.+.+.o.o.o.X.X.X.X._ >.l.N.X.v.j.j.l.l.l.l.D.D.D.D.D.D.",
"D.D.D.D.D.~.~.~.~.D.D.D.D.!.!.n.b.+.+.X.X.+.A.A.X.X.X.X.+.+.+.+.+.+.+.+.X.X.X.+.X.X.X.X.X._ _ &.l.l.j.j.l.l.l.l.l.l.D.D.D.D.D.D.",
"D.D.D.~.~.~.~.~.~.~.~.~.~.~.~.!.!.!.!.+.+.A.D.A.o.X.X._ &.,._ X.X.X.X.X.X.+.Z.A.+.+.+.+.%.j.j.j.l.l.l.l.l.l.l.l.l.l.l.l.l.D.D.D.",
"l.l.~.~.~.~.~.~.~.~.~.~.~.~.~.~.l.l.l.j.D.D.l.j._ _ _ &.<._ _ _ _ X.X._ _ <.l.D.D.D.D.j.j.l.l.l.l.l.l.l.l.l.l.l.l.l.l.l.l.l.l.l."
};
