/* XPM */
static const char *player6_l[] = {
/* columns rows colors chars-per-pixel */
"64 64 232 2 ",
"   c #0F1529",
".  c #10172A",
"X  c #151C2E",
"o  c #191E2F",
"O  c #1B1E31",
"+  c #1B212F",
"@  c #17202F",
"#  c #1D2331",
"$  c #1C2632",
"%  c #222334",
"&  c #242B33",
"*  c #2A2B36",
"=  c #2B2439",
"-  c #2C2E38",
";  c #282837",
":  c #3A2937",
">  c #32273C",
",  c #35293C",
"<  c #382B39",
"1  c #253134",
"2  c #2B3333",
"3  c #2C3938",
"4  c #323D35",
"5  c #33333B",
"6  c #3A363E",
"7  c #373939",
"8  c #432E39",
"9  c #4C2F3C",
"0  c #44353D",
"q  c #5A343F",
"w  c #53313D",
"e  c #3B4A36",
"r  c #32453D",
"t  c #3A4338",
"y  c #2F433C",
"u  c #454A3A",
"i  c #4C5C3B",
"p  c #4A543B",
"a  c #54563E",
"s  c #52643C",
"d  c #596C3E",
"f  c #5F723F",
"g  c #4F603C",
"h  c #3B2B42",
"j  c #393A43",
"k  c #422D46",
"l  c #462F49",
"z  c #4B314B",
"x  c #453B43",
"c  c #563546",
"v  c #593752",
"b  c #5B3754",
"n  c #663945",
"m  c #733D45",
"M  c #6A3D5B",
"N  c #653B55",
"B  c #703F5B",
"V  c #384945",
"C  c #3B524A",
"Z  c #3E5752",
"A  c #464244",
"S  c #494445",
"D  c #4B4A49",
"F  c #544C4A",
"G  c #58484A",
"H  c #465947",
"J  c #5B554B",
"K  c #434856",
"L  c #575855",
"P  c #644749",
"I  c #7A464B",
"U  c #79425A",
"Y  c #6A5C54",
"T  c #665C52",
"R  c #775854",
"E  c #644D56",
"W  c #4C684A",
"Q  c #506E4D",
"!  c #52724E",
"~  c #5A7C52",
"^  c #567750",
"/  c #51675C",
"(  c #646542",
")  c #667A41",
"_  c #647841",
"`  c #6A6459",
"'  c #74625A",
"]  c #78695B",
"[  c #77744B",
"{  c #557564",
"}  c #6E6E61",
"|  c #716F63",
" . c #797564",
".. c #6F7177",
"X. c #4D5261",
"o. c #86464B",
"O. c #96494D",
"+. c #8C4856",
"@. c #9B4C56",
"#. c #944B58",
"$. c #954C54",
"%. c #875653",
"&. c #975B57",
"*. c #A34F54",
"=. c #AA5255",
"-. c #B55555",
";. c #B85655",
":. c #B95C59",
">. c #B75857",
",. c #96645B",
"<. c #83725D",
"1. c #BB645D",
"2. c #B9665E",
"3. c #A9685E",
"4. c #846D62",
"5. c #8A7363",
"6. c #8A7864",
"7. c #957A6A",
"8. c #967D69",
"9. c #897E71",
"0. c #BE6C61",
"q. c #B66E62",
"w. c #B77465",
"e. c #A56C60",
"r. c #AB5E60",
"t. c #C37B6A",
"y. c #C27666",
"u. c #5E8254",
"i. c #728944",
"p. c #728944",
"a. c #7B9446",
"s. c #7F9847",
"d. c #618455",
"f. c #658C58",
"g. c #6B945B",
"h. c #719D5F",
"j. c #6E8443",
"k. c #679175",
"l. c #6A9074",
"z. c #74A261",
"x. c #78A763",
"c. c #79A863",
"v. c #5B806B",
"b. c #829C48",
"n. c #9A9752",
"m. c #88874C",
"M. c #87A149",
"N. c #8BA74A",
"B. c #92AE4C",
"V. c #95B24D",
"C. c #99B64D",
"Z. c #9BB94E",
"A. c #9EB950",
"S. c #BFBA5B",
"D. c #B7B359",
"F. c #AEAA56",
"G. c #9C836C",
"H. c #98856B",
"J. c #9A9277",
"K. c #8D8570",
"L. c #A38C6D",
"P. c #A8956C",
"I. c #A78B71",
"U. c #AC9471",
"Y. c #A79A7A",
"T. c #B49A74",
"R. c #B59977",
"E. c #B6846A",
"W. c #BCB66C",
"Q. c #BCA37A",
"!. c #BBA077",
"~. c #AEB26B",
"^. c #A09D53",
"/. c #C6836E",
"(. c #C8856F",
"). c #CC9777",
"_. c #CB9075",
"`. c #C1A47B",
"'. c #CAAC7E",
"]. c #C6A97C",
"[. c #CDAD7A",
"{. c #858684",
"}. c #999594",
"|. c #A39C82",
" X c #BAA983",
".X c #AFA986",
"XX c #AEACA8",
"oX c #D3A882",
"OX c #CEB384",
"+X c #D5B583",
"@X c #D9B985",
"#X c #D7B98A",
"$X c #D9BC89",
"%X c #D7B786",
"&X c #CCB38A",
"*X c #DDC591",
"=X c #D9C99A",
"-X c #DBC896",
";X c #E1CB96",
":X c #E2CB97",
">X c #E5D29C",
",X c #DED1A1",
"<X c #E8D5A0",
"1X c #EBDBA5",
"2X c #EDDDAB",
"3X c #E5D7A2",
"4X c #EADAB8",
"5X c #E3CCAA",
"6X c #EEE1AB",
"7X c #E6E0AB",
"8X c #F0E2AC",
"9X c #F1E9AD",
"0X c #EDE1B7",
"qX c #F2E6B8",
"wX c #D4CFC6",
"eX c #D9DADD",
"rX c #CECDC7",
"tX c #E7DDD0",
"yX c #F4EBC3",
"uX c #F4EACA",
"iX c #FAF1CF",
"pX c #EEE5D7",
"aX c #F2E9D4",
"sX c #FAF4DB",
"dX c #F8F1D6",
"fX c #EEE2C7",
"gX c #DEDDE1",
"hX c #E1DEE2",
"jX c #FBF7E9",
"kX c #FFFFFE",
"lX c #FCFAF1",
"zX c #E5E0E5",
/* pixels */
"Z.Z.Z.Z.Z.S.S.S.S.S.S.S.S.S.S.c.c.c.c.c.c.c.c.c.c.c.c.c.c.c.c.c.c.c.c.f.Q Q ~ x.c.c.c.c.c.c.c.c.c.c.c.c.c.c.c.c.c.c.c.c.c.c.c.c.",
"Z.Z.Z.Z.Z.Z.S.S.S.S.S.S.Z.c.c.c.Z.Z.Z.c.c.c.c.c.c.c.c.c.c.c.c.c.h.^ r 1 % m I H { k.k.k.c.c.c.c.c.c.c.c.c.c.c.c.c.c.c.c.c.Z.Z.Z.",
"Z.Z.S.S.S.S.S.S.S.S.S.Z.Z.Z.Z.Z.Z.Z.Z.Z.Z.Z.Z.c.c.c.c.c.c.c.z.! 3 # x P P &.=.: @ V { k.k.Z.Z.Z.Z.Z.Z.Z.Z.k.k.k.k.c.c.c.Z.Z.Z.Z.",
"S.S.S.S.S.S.S.S.S.S.S.Z.Z.Z.Z.Z.Z.Z.c.c.c.c.c.c.c.c.c.c.c.~ t < R ,.w./.(./.q.q % X $ / k.k.k.k.k.k.Z.Z.k.k.k.k.k.k.k.c.Z.Z.Z.Z.",
"S.S.S.S.S.S.S.S.S.S.Z.Z.Z.Z.Z.Z.Z.Z.Z.Z.c.c.c.c.c.c.c.c.~ 7 &.w./.t.:.1.t./.0.-.O.q % $ / k.k.k.k.k.k.k.k.S.S.S.k.k.k.k.Z.Z.Z.S.",
"Z.Z.Z.Z.Z.S.S.S.S.S.Z.Z.Z.Z.Z.Z.Z.Z.Z.Z.Z.Z.c.c.c.c.c.d.0 ,.(././.t.t.t././.t.t.>.-.N % # / S.S.S.S.k.k.S.S.S.S.S.k.k.k.k.S.S.S.",
"Z.Z.Z.Z.Z.Z.S.S.S.S.S.Z.S.S.Z.Z.Z.Z.Z.Z.Z.Z.Z.Z.Z.Z.u.- O.y././.0.1.t././.(.(.y.>.-.@.n o 7 D.S.S.S.S.S.S.S.S.S.S.S.S.S.S.S.Z.Z.",
"Z.Z.Z.Z.Z.Z.Z.Z.S.S.S.S.S.S.S.Z.Z.Z.Z.Z.Z.Z.Z.Z.Z.V.V < w././.e.2.t././.e.,.,.*.;.-.-.$., # [ S.S.S.S.S.S.S.S.S.S.S.S.S.S.S.Z.Z.",
"S.S.Z.Z.Z.Z.Z.Z.Z.S.S.S.Z.Z.Z.S.Z.Z.Z.Z.Z.Z.Z.Z.Z.b.8 %./.t.I %././.w.P & X X : m -.=.+.v % ( S.S.S.S.S.S.S.S.S.S.S.S.S.S.S.Z.S.",
"S.S.S.Z.Z.Z.Z.Z.Z.Z.Z.Z.Z.Z.Z.Z.Z.Z.Z.Z.Z.Z.Z.Z.Z.) 8 w./.R 0 w.(.w.0 X X % > = O n -.@.B = ( S.S.S.S.S.S.S.S.S.S.S.S.S.S.S.S.S.",
"S.S.S.Z.Z.Z.S.S.Z.Z.Z.Z.Z.Z.Z.Z.Z.Z.Z.Z.Z.Z.Z.Z.C.t n t.%.: 3./.3.0 X X = v M N z n -.;.#.= ( Z.Z.S.S.S.S.Z.Z.S.S.S.S.S.S.S.S.S.",
"S.S.S.Z.Z.S.S.S.S.S.Z.Z.Z.Z.Z.Z.Z.Z.Z.Z.Z.Z.Z.Z.C.t c r.G 8 y.0.w X X X z M M M U #.=.#.N % s Z.Z.Z.Z.S.Z.Z.Z.Z.S.S.S.S.S.S.S.S.",
"S.S.S.S.S.S.S.S.S.S.S.S.S.S.S.S.S.S.S.Z.Z.Z.Z.Z.C.t v #.$.c 2.+., X & & > b M M B @.*.U k & b.Z.Z.Z.Z.Z.Z.Z.Z.Z.S.S.S.S.S.S.S.S.",
"S.S.S.S.S.S.S.S.S.Z.Z.Z.Z.Z.Z.Z.Z.Z.Z.Z.Z.Z.Z.Z.Z.d > U I k +.o.X 2 b.i.& O h z N M N k O i C.Z.Z.Z.Z.Z.Z.Z.Z.Z.S.S.S.S.S.Z.Z.Z.",
"Z.Z.Z.Z.Z.Z.Z.Z.Z.Z.Z.Z.c.c.c.c.c.c.Z.Z.Z.Z.Z.Z.Z.M.& 9 O.> I o.X u V.Z.i.4 + X = = % X i B.Z.Z.Z.Z.Z.Z.Z.Z.Z.Z.Z.Z.Z.Z.Z.Z.Z.Z.",
"Z.Z.Z.Z.Z.Z.Z.Z.Z.Z.c.c.c.c.c.c.c.c.c.Z.c.c.c.x.C.) 4 % o.c z m X o i d ) B.) 4 X # i ! V.Z.Z.Z.Z.Z.Z.Z.Z.Z.Z.Z.Z.Z.Z.Z.Z.Z.Z.Z.",
"Z.W.W.A.Z.Z.Z.Z.c.c.c.c.c.c.c.c.c.c.c.c.c.c.c.d.3 % 6 5 < % O v , X F 6 5 4 a.B.s.b.C.Z.c.c.c.Z.Z.Z.Z.Z.Z.Z.Z.Z.Z.Z.Z.Z.Z.Z.Z.Z.",
"Z.[.+XW.A.Z.Z.c.c.c.c.c.c.c.c.c.c.c.c.c.c.c.d.& K XXfXXX; % $ h E h 5. XR.A $ u.c.Z.Z.c.c.c.c.c.Z.Z.Z.Z.Z.Z.Z.Z.Z.Z.Z.Z.Z.Z.Z.Z.",
"Z.P.#X%XW.c.c.c.c.c.c.Z.Z.Z.Z.Z.c.c.c.c.c.h.1 X ; |.aXpXeXeXeXgXzXhXtXwX}.- X & u.c.c.c.Z.Z.c.c.c.Z.Z.Z.Z.Z.Z.c.c.c.Z.Z.Z.Z.Z.Z.",
"Z.p }.aX%X~.c.c.c.c.Z.Z.Z.Z.Z.Z.Z.c.c.c.Z._ # ` K.Y.;X<X4X4X4XuXuXiX,XF % x D X r z.c.Z.Z.Z.Z.c.c.c.Z.Z.Z.Z.c.c.c.c.c.Z.Z.Z.c.c.",
"c.e ..kXfX$Xn.V.Z.Z.Z.Z.Z.Z.Z.Z.Z.c.c.Z.Z.u F +X;X8XuXyXfX0X1X6X6X6X2X=XR.7.] X + j.Z.Z.Z.Z.Z.Z.Z.Z.Z.Z.Z.c.c.c.c.c.c.c.c.c.c.c.",
"c.r } jXkXaX` s A.Z.Z.Z.Z.Z.Z.Z.Z.Z.Z.Z.s.2 L.:X4XjXkXkXkXlXsXsXqX6X2X*XoXG.5.6 X _ Z.Z.Z.c.c.c.c.Z.Z.Z.Z.c.c.c.c.c.c.c.c.c.c.c.",
"Z.e } yXkXkXXXF ~.Z.Z.Z.Z.Z.Z.Z.Z.Z.Z.C.s F -X8XqXXXrXjXyX8XqXqX8X8X1X+X+XR.8.Y # 1 g.c.c.c.c.c.c.c.Z.Z.c.c.c.c.Z.Z.Z.c.c.c.c.c.",
"Z.e } 6XfXkXaX X Xl.k.k.k.Z.Z.k.k.k.Z.M.& H.8X1XOX5 K.iX6X6X6X6X6X1X<X+X+XR.7.7.* # g.c.c.c.c.c.c.c.c.c.c.c.c.Z.Z.Z.Z.Z.Z.Z.Z.Z.",
"Z.e | >X%XjXsXuXG.{ k.k.k.k.k.k.k.k.k.i . |.iX:X<.. {.sXqX6X6X8X2X*X+X+X+X`.G.' % + ^ c.c.c.c.c.c.c.c.c.c.c.c.Z.Z.Z.Z.Z.Z.Z.Z.Z.",
"Z.i T *X*X5XuXjX..7 D.S.k.k.k.S.S.k.k.J 5 .X0X&X6 . }.kXlXqX1X1X;X$X+X+X+X+XI.4.F X V Z.Z.c.c.Z.Z.Z.c.c.c.c.Z.Z.Z.Z.Z.Z.Z.Z.Z.Z.",
"Z.M.$ ] :X+X>XsXXX# m.S.S.S.S.S.S.S.S.J 9.fX;XT.# . {.sXdX8X>X%X+X+X+X+X+X+XI.8.' X V Z.Z.Z.Z.Z.C.V.C.c.c.c.c.c.c.c.c.c.c.Z.Z.Z.",
"S.k.C - Q.+X$X6X7XD 7 D.S.S.S.S.S.S.n.+ L qX$XT X . {.lXqX6X2X$X+X+X+X+X+X+X`.8.Y X % a.Z.Z.Z.V.s 2 7 d.c.c.c.c.c.c.c.c.c.c.c.c.",
"S.S.n.* ` +X+X;X9X.X# ! c.S.S.S.S.S.m.X j  .` - X X X.eX0X3X3XOX'.'.'.+X+X+XR.7.Y X X m.S.Z.V.s % F o r c.c.c.c.S.S.S.S.S.S.S.S.",
"Z.Z.Z.i ; T.+X+X>X7XL 3 h.c.c.S.S.c.W X X . X X X X X j j j j 5 5 A ] OXR.I.4.6 % X X m.Z.b.s x 5.5.X r S.S.S.S.S.S.S.S.S.S.S.S.",
"Z.Z.Z.M.# ` +X+XJ.=X.X# ^ c.c.c.c.z.1 # K.F # X X X X       # ; |  X$X+X+XR.7.' % X 4 M.i.& F ].H.% X e Z.Z.Z.Z.Z.Z.Z.Z.Z.Z.Z.Z.",
"Z.Z.Z.Z.s - T.@XJ ` 1XF 4 V.Z.Z.c.z.1 D 4X=X] X X X V ` L L |.=X<X:X+X+X+X`.8.] % X 3 r # F '.6.# % = e Z.Z.Z.Z.Z.Z.Z.Z.Z.Z.Z.Z.",
"S.S.S.Z.b.& ` +XL.F 3X.X% ) Z.Z.Z.V.2 J.9X1XQ.6 . j eXjXyX8X6X;X$X+X+XR.U.U.8.A X X X % J ].6.* w O.q e Z.Z.Z.Z.Z.Z.Z.Z.Z.Z.Z.S.",
"S.S.S.S.Z.s ; T.'.A Y.6XL t B.Z.c.z.1 J.qXjX5X] X K jXdX8X6X<X+X+X+X+XR.7.7.J o X O x 6.L.<.c O.-.;.q e Z.Z.Z.Z.Z.Z.Z.Z.Z.Z.S.S.",
"S.S.S.S.S.^.& Y +X] Y ,XY.# u.g.C 3 @  .>XqX2XQ.o K aX6X6X6X*X+X+X+X+XL.4.F # - F L.].R.5.R -.-.-.;.q e Z.Z.Z.Z.Z.Z.S.S.S.S.S.S.",
"Z.Z.Z.S.S.S.( - T.T.F ` OXD e & G P % - =X8X6X&XS K aXqX6X<X+X+X+X+X6.% `  .6.&X X<.<.6.).1.-.-.-.;.q e Z.Z.Z.Z.Z.Z.Z.Z.S.S.S.S.",
"Z.Z.Z.Z.S.S.^.& ` +XT & U.H.# w t.w.< X  .8X6X2XtXrX0X6X6X<X+X+X@X].j X  X,XY.D A 6 J U.+Xy.:.:.-.;.q e Z.Z.Z.Z.Z.Z.Z.Z.Z.Z.S.Z.",
"Z.Z.Z.Z.Z.Z.C.s ; !.G.% T OXA q I 8 o.5 -  X>X2XdXsXyX6X8X<X+XT.] F X o U.] X S 6.+X+X@X+Xy.0.2.-.;.q e Z.Z.Z.Z.Z.Z.Z.Z.Z.Z.Z.Z.",
"Z.Z.Z.Z.Z.Z.Z.b.& F G.F ; T.L.; O I t.G X 6 Q.8XqXsXyX8X8X XT * X X X o T. .6 ].@X+X$X3X1X).0.>.-.;.q u S.S.S.c.c.c.Z.Z.Z.Z.Z.Z.",
"Z.Z.Z.Z.Z.Z.Z.b.2 & 4.4.* 6 J o m 0.t.c l l j &X2X8X=X X| * X X X O X o T. .x +X+X+X-X1X>X_.1.-.-.;.q r c.c.c.c.c.c.c.c.c.c.c.Z.",
"c.c.c.c.c.c.f.3 X % D ' 5 X : m -.>.I = z N = * } J.j * . X X = , v = X U.] F +X+X$X:X*X%Xt.>.-.-.:.G r c.c.c.c.c.c.c.c.c.c.c.c.",
"c.c.c.c.Z.N.4 n n l X X % z +.-.O.9 o k U #.N = X X X X % k z N U #.< X U.] 5.+X+X>X3X;XoX1.-.>.y.).T y c.c.c.x.c.c.c.c.c.c.c.c.",
"Z.Z.Z.Z.Z.s.# n z % = l N U o.w ; j # % N *.@.b = X % h N M U #.-.@.> X U.6.7.+X+X%X%X$X).0.(.[.+X@XT r c.c.c.c.c.c.c.c.c.c.Z.Z.",
"Z.Z.Z.Z.Z.B.p X O % h N v > O S ] 7.F X h U *.U b z b M U #.=.-.-.#.= X U.R.I.+X+X+X+XoX).#X9X*X+X@XY r Z.Z.Z.c.c.Z.Z.Z.Z.Z.Z.Z.",
"Z.Z.Z.Z.Z.Z.B.2 > N z , O X J '.oXI.' X X h @.=.U M M +.-.-.-.-.-.+., X U.T.5.+X+X+X_.2._.6X>X;X+X].A e Z.Z.Z.Z.Z.Z.Z.Z.Z.Z.Z.Z.",
"Z.Z.Z.Z.Z.Z.Z._ X = O X % 5.'.+X+XR.' X X o c +.=.*.*.-.-.-.-.;.-.@.> X U.I.F '.).0.2.y.oX6X>X$X@XL.X i Z.Z.Z.Z.Z.Z.Z.S.S.S.S.S.",
"Z.Z.Z.Z.Z.k.k.v.C C i + 5 '.@X+X+XI.D X + X X c *.;.-.-.-.-.-.@.U M = X L.Y 6 0.1.1.0.t.).:X%X+X+X] # b.Z.Z.S.S.S.S.S.S.S.S.S.S.",
"Z.Z.Z.Z.k.k.k.k.k.k.k.Z O ` T.G.5.F X + [ a X X > c N N N N N v v v = X H.F : -.>.:.0.2./.+X+X+XQ.- s S.S.S.S.S.S.S.S.S.S.S.S.Z.",
"k.k.Z.k.k.k.S.S.k.k.k.{ 1 o # O o O h = a D.[ 7 X X X X X X X o o o X o ] F : -.-.-.-.:.[.+X@X`.A 2 s.S.S.S.S.S.S.S.S.S.S.Z.Z.Z.",
"k.k.k.k.k.S.S.S.S.k.k.k.F.[ t u # h N = p S.S.F.( X X X 2 u u u & X X X 6 ' G *.;.-.-.0.+X+X`.S 1 s.Z.Z.Z.Z.Z.Z.Z.Z.Z.Z.Z.Z.Z.k.",
"k.S.S.k.k.S.S.S.S.S.S.S.S.S.S.D.t = > X a S.S.S.n.2 X X u n.b.b.e X X o + 6 Y 9 *.;.-.).@X`.A 2 n.S.Z.Z.Z.Z.Z.Z.Z.Z.Z.Z.Z.Z.Z.k.",
"S.S.S.S.S.S.S.S.S.S.S.S.S.S.S.S.n.u u p n.g.d.u.u.u X X # _ p.) 2 X + a [ & 5 5 : *.;.).`.S 2 n.S.S.S.Z.Z.Z.Z.Z.Z.Z.Z.S.S.k.k.k.",
"S.S.S.S.S.Z.Z.Z.S.S.S.S.S.Z.Z.Z.Z.S.D.n.~ ~ ~ ~ ~ ! 4 X + f i.s X X & ) ~ W & # A 8 *.E.S 2 n.S.Z.Z.Z.Z.Z.Z.Z.Z.Z.S.S.S.S.S.S.S.",
"S.S.S.S.Z.Z.Z.Z.Z.S.S.S.Z.Z.Z.c.c.h.u.~ ~ ~ ~ ~ Q 1 + X X t p.s X X X # C ~ W & Y x 8 8 1 s.Z.Z.Z.Z.Z.Z.Z.Z.Z.S.S.S.S.S.S.S.S.S.",
"S.S.Z.Z.Z.Z.Z.Z.Z.S.S.S.Z.Z.c.c.c.f.~ ~ ~ ~ ~ ~ Q s s s s f p.) H H H H W ~ ~ W 3 & X 2 s.Z.Z.Z.Z.Z.Z.Z.Z.Z.S.S.S.Z.Z.Z.S.S.S.S.",
"Z.Z.Z.Z.Z.Z.Z.Z.Z.Z.Z.S.Z.Z.c.c.c.f.~ ~ ~ ~ ~ ~ ~ ~ ~ ~ ~ p.p.~ ~ ~ ~ ~ ~ p.p.~ W $ & d.Z.Z.Z.Z.Z.Z.Z.Z.S.S.S.S.Z.Z.Z.Z.Z.S.S.S.",
"Z.Z.Z.Z.Z.Z.Z.Z.Z.Z.Z.Z.c.c.c.c.c.z.d.~ ~ ~ ~ ~ ~ ~ ~ ~ ~ ~ ~ ~ ~ ~ ~ ~ p.p.p.p.p.! f.c.c.c.Z.Z.Z.Z.Z.Z.Z.Z.Z.Z.Z.Z.Z.Z.Z.Z.Z.Z.",
"Z.Z.Z.Z.Z.Z.c.c.c.c.c.c.c.c.c.c.Z.Z.V.f.~ ~ ~ ~ ~ ~ ~ ~ ~ ~ ~ ~ ~ ~ ~ ~ p.p.p.p.b.B.Z.Z.Z.Z.Z.Z.Z.Z.Z.Z.Z.Z.Z.Z.Z.Z.Z.Z.Z.Z.Z.Z.",
"Z.Z.Z.Z.Z.Z.Z.Z.Z.c.c.c.c.c.c.Z.Z.Z.Z.Z.z.h.s.a.a.~ ~ ~ ~ ~ ~ ~ p.p.~ d.a.a.B.B.C.Z.Z.Z.Z.Z.Z.Z.Z.Z.Z.Z.Z.Z.c.c.c.Z.Z.Z.Z.Z.Z.Z.",
"Z.Z.Z.Z.Z.Z.Z.Z.Z.Z.Z.Z.c.c.c.Z.Z.Z.Z.Z.c.Z.Z.Z.C.N.M.f.f.f.f.M.M.M.N.x.x.Z.Z.Z.Z.Z.Z.Z.Z.Z.Z.Z.Z.Z.Z.Z.Z.c.c.c.c.c.Z.Z.Z.Z.Z.Z.",
"Z.Z.Z.Z.Z.Z.S.S.Z.Z.Z.Z.Z.Z.Z.Z.Z.Z.Z.Z.Z.Z.Z.Z.Z.Z.Z.Z.Z.Z.Z.Z.Z.Z.Z.Z.Z.Z.Z.Z.Z.Z.Z.Z.Z.Z.c.c.c.Z.Z.Z.c.c.c.c.c.c.Z.Z.Z.Z.Z.Z.",
"Z.Z.Z.Z.Z.S.S.S.S.Z.Z.Z.Z.S.S.S.S.Z.Z.Z.Z.Z.Z.Z.Z.Z.Z.Z.Z.Z.Z.Z.Z.Z.Z.Z.Z.Z.Z.Z.Z.Z.Z.Z.Z.c.c.c.c.c.c.c.c.c.c.c.c.c.Z.Z.Z.Z.Z.Z.",
"Z.Z.Z.S.S.S.S.S.S.S.S.S.S.S.S.S.S.S.S.Z.Z.Z.Z.Z.Z.Z.Z.c.c.c.c.Z.Z.Z.Z.Z.Z.Z.Z.Z.Z.Z.Z.Z.c.c.c.c.c.c.c.c.c.c.c.c.c.c.c.c.c.Z.Z.Z.",
"c.c.S.S.S.S.S.S.S.S.S.S.S.S.S.S.c.c.c.c.Z.Z.c.c.c.c.c.c.c.c.c.c.c.Z.Z.c.c.c.c.Z.Z.Z.Z.c.c.c.c.c.c.c.c.c.c.c.c.c.c.c.c.c.c.c.c.c."
};
