/* XPM */
static const char *player6_r[] = {
/* columns rows colors chars-per-pixel */
"64 64 232 2 ",
"   c #10172A",
".  c #151C2E",
"X  c #191E2F",
"o  c #1B1E31",
"O  c #0F1529",
"+  c #1A212F",
"@  c #1D2231",
"#  c #1D2732",
"$  c #222334",
"%  c #232B33",
"&  c #2A2B36",
"*  c #2B2439",
"=  c #2C2E38",
"-  c #282837",
";  c #3A2937",
":  c #32273C",
">  c #35293C",
",  c #392B39",
"<  c #253235",
"1  c #2B3333",
"2  c #2C3938",
"3  c #33333B",
"4  c #3A363E",
"5  c #343A36",
"6  c #432E39",
"7  c #4C2F3C",
"8  c #44353D",
"9  c #5A343F",
"0  c #53313D",
"q  c #3B4A36",
"w  c #32453D",
"e  c #3A4338",
"r  c #2F423A",
"t  c #444A3A",
"y  c #4B5B3B",
"u  c #4B543C",
"i  c #53563E",
"p  c #52643C",
"a  c #586B3E",
"s  c #5E723F",
"d  c #4F603C",
"f  c #3B2B42",
"g  c #393A43",
"h  c #432E47",
"j  c #4B314B",
"k  c #453B43",
"l  c #563546",
"z  c #593752",
"x  c #5B3754",
"c  c #663945",
"v  c #733D45",
"b  c #6A3D5B",
"n  c #653B55",
"m  c #703F5B",
"M  c #3A484E",
"N  c #464244",
"B  c #494445",
"V  c #4B4A49",
"C  c #544C4A",
"Z  c #58484A",
"A  c #425B46",
"S  c #495049",
"D  c #5B544C",
"F  c #434856",
"G  c #575855",
"H  c #644749",
"J  c #7A464B",
"K  c #79425A",
"L  c #6A5C54",
"P  c #665C52",
"I  c #775854",
"U  c #644D56",
"Y  c #4C694B",
"T  c #506E4D",
"R  c #53724E",
"E  c #5A7C52",
"W  c #567750",
"Q  c #55665C",
"!  c #666743",
"~  c #627540",
"^  c #667B41",
"/  c #6A6459",
"(  c #74625A",
")  c #78695B",
"_  c #76784E",
"`  c #587765",
"'  c #6E6E61",
"]  c #797564",
"[  c #70706D",
"{  c #4D5261",
"}  c #86464B",
"|  c #96494D",
" . c #8C4856",
".. c #9B4C56",
"X. c #944B58",
"o. c #954C54",
"O. c #875653",
"+. c #975B57",
"@. c #A34F54",
"#. c #AA5255",
"$. c #B55555",
"%. c #B85655",
"&. c #B95C59",
"*. c #B75857",
"=. c #96645B",
"-. c #83725D",
";. c #BB645D",
":. c #B9665E",
">. c #A9685E",
",. c #846D62",
"<. c #8A7363",
"1. c #8A7864",
"2. c #957A6A",
"3. c #967D69",
"4. c #897E71",
"5. c #BE6C61",
"6. c #B66E62",
"7. c #B77465",
"8. c #A56C60",
"9. c #AB5E60",
"0. c #C37B6A",
"q. c #C27666",
"w. c #5E8254",
"e. c #6E8443",
"r. c #708743",
"t. c #738944",
"y. c #788F46",
"u. c #7C9446",
"i. c #638857",
"p. c #668D59",
"a. c #608555",
"s. c #6C955C",
"d. c #719D5F",
"f. c #739F60",
"g. c #679175",
"h. c #668F74",
"j. c #78A762",
"k. c #79A863",
"l. c #75A361",
"z. c #74A15F",
"x. c #8A894D",
"c. c #839D48",
"v. c #9A9751",
"b. c #93914F",
"n. c #A09D53",
"m. c #87A149",
"M. c #8CA74A",
"N. c #92AE4C",
"B. c #95B24D",
"V. c #99B74E",
"C. c #9BB94E",
"Z. c #9EB950",
"A. c #ABA756",
"S. c #BAB55A",
"D. c #BFBA5B",
"F. c #B5B158",
"G. c #B3AF58",
"H. c #9C836C",
"J. c #98856B",
"K. c #9A9277",
"L. c #8E8B6D",
"P. c #A38D6D",
"I. c #A8956C",
"U. c #A78B71",
"Y. c #AC9471",
"T. c #A79A7A",
"R. c #B49A74",
"E. c #B59977",
"W. c #B6846A",
"Q. c #8DAA6A",
"!. c #BCB66C",
"~. c #BCA37A",
"^. c #BBA077",
"/. c #ADAF74",
"(. c #C6836E",
"). c #C8856F",
"_. c #CC9777",
"`. c #CB9075",
"'. c #C1A47B",
"]. c #CAAC7E",
"[. c #C6A97C",
"{. c #CCAF79",
"}. c #858684",
"|. c #999594",
" X c #A39C82",
".X c #BAA884",
"XX c #AFA986",
"oX c #AEACA8",
"OX c #D3A882",
"+X c #CEB384",
"@X c #D5B583",
"#X c #D9B985",
"$X c #D7B98A",
"%X c #D9BC89",
"&X c #D7B786",
"*X c #CCB38A",
"=X c #DDC591",
"-X c #D9C99A",
";X c #DBC896",
":X c #E1CB96",
">X c #E2CB97",
",X c #E5D29C",
"<X c #DED1A1",
"1X c #E8D5A0",
"2X c #EBDBA5",
"3X c #EDDDAB",
"4X c #E5D7A2",
"5X c #EADAB8",
"6X c #E3CCAA",
"7X c #EEE1AB",
"8X c #E6E0AB",
"9X c #F0E2AC",
"0X c #F1E9AD",
"qX c #EDE1B7",
"wX c #F2E6B8",
"eX c #D4CFC6",
"rX c #D9DADD",
"tX c #CECDC7",
"yX c #E7DDD0",
"uX c #F4EBC3",
"iX c #F4EACA",
"pX c #FAF1CF",
"aX c #F2E9D4",
"sX c #FAF4DB",
"dX c #F8F1D6",
"fX c #EEE3CF",
"gX c #DEDDE1",
"hX c #E1DEE2",
"jX c #FBF7E9",
"kX c #FFFFFE",
"lX c #FCFAF1",
"zX c #E5E0E5",
/* pixels */
"C.C.C.C.C.D.D.D.D.D.D.D.D.D.D.k.k.k.k.k.k.k.k.k.j.E T T p.k.k.k.k.k.k.k.k.k.k.k.k.k.k.k.k.k.k.k.k.k.k.k.k.k.k.k.k.k.k.k.k.k.k.k.",
"C.C.C.C.C.C.D.D.D.D.D.D.C.k.k.k.C.C.C.k.k.k.l.i.S J v $ < w W d.k.k.k.k.k.k.k.k.g.g.g.g.k.k.k.k.k.k.k.k.k.k.k.k.k.k.k.k.k.C.C.C.",
"C.C.D.D.D.D.D.D.D.D.D.C.C.C.C.C.C.C.C.C.C.y.u + ; #.+.H H k @ 2 R l.k.k.k.k.k.g.g.g.g.g.g.C.C.C.C.C.C.C.C.g.g.g.g.k.k.k.C.C.C.C.",
"D.D.D.D.D.D.D.D.D.D.D.C.C.C.C.C.C.C.k.k.W # . $ 9 6.).).(.7.=.I , e E g.g.g.k.g.g.g.g.g.g.g.g.g.g.g.C.C.g.g.g.g.g.g.g.k.C.C.C.C.",
"D.D.D.D.D.D.D.D.D.D.C.C.C.C.C.C.C.C.C.e.# $ 9 | %.5.(.0.;.&.0.).6.+.3 Q g.g.g.g.g.g.g.g.g.g.g.g.g.g.g.g.g.D.D.D.g.g.g.g.C.C.C.D.",
"C.C.C.C.C.D.D.D.D.D.C.C.C.C.C.C.C.C.e.% $ n $.&.0.0.(.(.0.0.0.(.(.).=.8 ` g.D.D.D.D.g.g.g.g.D.D.D.D.g.g.D.D.D.D.D.g.g.g.g.D.D.D.",
"C.C.C.C.C.C.D.D.D.D.D.C.D.D.C.C.C.N.1 X c ..%.%.q.).).).).0.;.5.(.(.q.| 3 b.D.D.D.D.D.g.g.D.D.D.D.D.D.D.D.D.D.D.D.D.D.D.D.D.C.C.",
"C.C.C.C.C.C.C.C.D.D.D.D.D.D.D.C.C.s @ > o.$.%.%.@.=.=.8.).).0.;.8.(.(.7., i S.D.D.D.D.g.D.D.D.D.D.D.D.D.D.D.D.D.D.D.D.D.D.D.C.C.",
"D.D.C.C.C.C.C.C.C.D.D.D.C.C.C.D.C.p @ z  .#.%.v ; . . - H 7.).(.O.J 0.).O.6 v.D.D.D.D.D.D.D.D.D.D.D.D.D.D.D.D.D.D.D.D.D.D.D.C.D.",
"D.D.D.C.C.C.C.C.C.C.C.C.C.C.C.C.C.p * m ..$.c o * : $ . . 8 7.).7.8 I ).7.6 _ D.D.D.D.D.D.D.D.D.D.D.D.D.D.D.D.D.D.D.D.D.D.D.D.D.",
"D.D.D.C.C.C.D.D.C.C.C.C.C.C.C.C.C.p * X.%.$.c j b b z $ . . 8 >.).>.; O.0.c e V.C.C.D.D.D.D.D.C.C.D.D.D.D.C.C.D.D.D.D.D.D.D.D.D.",
"D.D.D.C.C.D.D.D.D.D.C.C.C.C.C.C.C.p $ n X.#.X.K b b b j . . . 0 5.q.6 Z 9.l e V.C.C.C.D.D.C.C.C.C.C.C.D.C.C.C.C.D.D.D.D.D.D.D.D.",
"D.D.D.D.D.D.D.D.D.D.D.D.D.D.D.D.D.v.% h K @...K b b x : # % . >  .:.l o.X.z e V.C.C.C.D.C.C.C.C.C.C.C.C.C.C.C.C.D.D.D.D.D.D.D.D.",
"D.D.D.D.D.D.D.D.D.C.C.C.C.C.C.C.C.V.y o h n b n j f o % t.c.1 . } } h J K : a C.C.C.C.D.C.C.C.C.C.C.C.C.C.C.C.C.D.D.D.D.D.C.C.C.",
"C.C.C.C.C.C.C.C.C.C.C.C.k.k.k.k.k.k.N.y . $ * * . + 2 t.C.B.t . } J : | 7 % m.C.C.C.C.C.C.C.C.C.C.C.C.C.C.C.C.C.C.C.C.C.C.C.C.C.",
"C.C.C.C.C.C.C.C.C.C.k.k.k.k.k.k.k.k.k.B.Y A @ . 5 ^ N.^ a y X . v j l } $ 5 ^ B.C.C.C.C.C.C.C.C.C.C.C.C.C.C.C.C.C.C.C.C.C.C.C.C.",
"C.C.C.C.C.C.C.C.k.k.k.k.k.k.k.k.k.k.k.k.k.l.p.i.s.u.5 3 4 C . f l X $ , 3 8 $ 5 u.C.C.C.k.k.k.C.C.C.C.C.C.C.C.C.C.C.C.C.Z.!.!.C.",
"C.C.C.C.C.C.C.k.k.k.k.k.k.k.k.k.k.k.k.k.k.k.k.k.a.% N E..X<.f U f # $ - oXyXoXF % u.C.k.k.k.k.k.C.C.C.C.C.C.C.C.C.C.C.Z.!.@X{.C.",
"C.C.C.C.C.k.k.k.k.k.k.C.C.C.C.C.k.k.k.k.k.k.k.w.% . = |.eXyXhXzXgXrXrXrXaXdX|.- . < d.k.C.C.k.k.k.C.C.C.C.C.C.k.k.k.Z.!.&X$XI.C.",
"C.C.C.k.k.k.k.k.k.k.C.C.C.C.C.C.C.k.k.k.C.C.B.w . C k $ D <XpXpXiX5X5X5X1X:XT.L./ @ Y C.C.C.C.k.k.k.C.C.C.C.k.k.k.k./.&XaX|.q k.",
"k.C.C.C.C.C.C.C.C.C.C.C.C.C.C.C.C.k.k.C.C.C.e.+ . ) 2.E.-X3X7X3X3X2XqXuXuXiXwX:X@XC t C.C.C.C.C.C.C.C.C.C.k.k.k.z.L.&XfXkX[ r k.",
"k.k.k.k.C.C.C.C.C.C.C.C.C.C.C.C.C.C.C.C.C.C.~ . 4 <.H.].=X3X7XwXsXsXlXkXkXkXjX5X:XP.1 u.C.k.k.k.k.C.C.C.C.k.k.k.A / aXkXjX' w k.",
"C.C.C.C.C.C.C.C.C.C.C.C.C.C.C.C.C.C.C.C.C.M.< @ L 3.E.@X@X2X7X7XwXwXwXuXjXtXoXwX7X;XC A j.k.k.k.k.k.C.C.k.k.k.Q.C oXkXkXuX' r k.",
"C.C.C.C.C.C.C.C.g.g.g.g.g.C.C.g.g.g.C.C.C.A.% & 2.2.E.@X@X1X2X3X7X7X7X7XpX}.3 +X2X9XJ.# s.k.k.k.k.k.k.k.k.k.Q.{..XaXkXfX7X' q C.",
"C.C.C.C.C.C.C.g.g.g.g.g.g.g.g.g.g.g.g.C.D.x.@ $ ( H.'.@X@X@X=X3X7X7X7XwXsX}.  -.>XpX X. A k.k.k.k.k.k.k.k.k.E P.iXsXjX&X,X' q C.",
"C.C.C.C.C.g.g.g.D.D.D.D.g.g.g.D.D.g.g.D.D.i . D ,.U.@X@X@X@X%X:X2X2XwXlXkX|.  3 *XqXXX3 y k.k.C.C.C.k.k.k.f.5 [ jXiX6X=X=XP y C.",
"C.C.g.g.g.g.D.D.D.D.D.D.D.S.S.D.D.D.D.D.D.u . ( 3.U.@X@X@X@X@X@X#X,XwXdXsX}.  @ E.>XuX4.y C.C.C.C.C.C.k.k.W # oXsX,X@X:X) % m.C.",
"D.g.g.D.D.D.D.D.D.D.D.D.b.e 5 ! S.D.D.D.b.$ . L 3.'.@X@X@X@X@X@X%X3X7XwXlX}.  . P %XwXG + u.C.C.C.C.C.k.f.2 S 8X7X%X@X^.= A j.k.",
"D.D.D.D.D.D.D.D.D.D.k.k.w X C $ ! S.D.D.x.. . L 2.Y.@X@X@X].].].+X4X4XqXrX{ . . = / ] g . t.C.C.C.C.C.k.R @ XX0X:X@X@X/ % v.D.D.",
"C.C.C.C.C.C.D.D.k.k.k.k.w . <.1.k A p.k.E . . $ 4 ,.U.E.+X) N 3 3 g g g g . . . . .     . ~ C.C.C.C.k.d.e G 8X,X@X#XE.& D D.D.D.",
"C.C.C.C.C.C.C.C.C.C.C.C.w . $ 3.[.C # w.s.2 . $ ( 2.E.@X@X%X.X' - @ O O O . . . . @ C L.@ 1 B.C.C.C.C.e.@ XX-XK.@X@X/ # m.C.C.C.",
"C.C.C.C.C.C.C.C.C.C.C.C.q * $ @ 1.].C @ w 2 . $ ) 3.'.@X@X@X>X1X-X XG G / M . . . ) -X5XV 1 B.C.C.C.B.2 C 2X/ D #XR.= p C.C.C.C.",
"D.D.D.C.C.C.C.C.C.C.C.C.q 9 | 0 & 1.[.D $ . . . N 3.U.U.E.+X@X#X:X9X9XuXjXrXg   4 ~.3X0XK.1 B.C.C.C.^ $ XX<XD P.@X( % c.C.C.C.D.",
"D.D.D.D.C.C.C.C.C.C.C.C.q 9 %.$.| l -.P.1.k o . X D 2.2.E.@X@X@X@X1X7X9XdXjXF . ) 6XjXwXK.1 B.C.C.M.e G 8XT.N ].R.- p C.C.C.D.D.",
"D.D.D.D.D.D.D.C.C.C.C.k.w 9 %.%.%.%.I <.Y.[.I.C 3 @ Z ,.P.@X@X@X@X=X3X7X9XaXF + ^.3XwX,X] + e y m.t.+ T.<XL ) @XP % n.D.D.D.D.D.",
"C.C.C.D.D.D.D.D.C.C.C.C.q 9 %.%.%.$.;._.1.-.-..X*X1.] / $ 1.@X@X@X@X1X7XwXaXF B *X7X9X-X= $ H Z % q V +X/ C R.R.= d C.C.D.D.D.D.",
"C.C.C.C.D.D.D.D.D.C.C.C.q 9 %.%.&.&.q.@XY.D 3 N V T.<X.X. g ].#X@X@X1X9X7XqXtXyX3X9X9X] . , 7.0.0 @ J.Y.- P @X( % m.C.C.C.C.D.C.",
"C.C.C.C.C.C.C.C.C.C.C.C.q 9 %.%.;.5.q.@X#X@X+X3.B X ) Y.X . C ) R.@X1X9X7XuXsXdX3X,X.X3 , } 6 J 9 N +XP $ H.^.- p C.C.C.C.C.C.C.",
"C.C.C.C.C.C.C.C.C.C.C.C.q 9 %.%.&.5._.2X4X%X@X#X[.3 ] R.X . . . & P .X9X9XuXsXwX9X~.4 . Z 0.H X - P.E.- C H.D % p.k.C.C.C.C.C.C.",
"C.C.C.C.C.C.C.C.C.C.C.C.q 9 %.%.%.;.`.,X2X;X@X@X@Xg ] R.X X o . . . - ' .X-X9X7X*Xg j h l 0.5.v o D 4 & ,.,.- < p.k.k.k.k.k.k.C.",
"k.k.k.k.k.k.k.k.C.C.C.C.q Z &.%.%.&.0.&X=X:X%X@X@XC ) Y.. * z : * . .   & g K.' & * n j * J &.%.v : . 3 ( C $ . 2 p.k.k.k.k.k.k.",
"k.k.k.k.C.C.C.C.C.C.C.C.q P _.q.*.$.;.OX:X4X,X@X@X1.) Y.. , X.K n j h o . . . . $ n X.K h o 7 | $. .j $ . . h c c 2 s.k.k.k.k.k.",
"C.C.C.C.C.C.C.C.C.C.C.C.q P #X@X].).5._.#X#X#X@X@X2.3.Y.. * ..$.X.K b x f $ . * x X.@.n $ @ g - 0 } K n h $ $ j c @ i.k.k.k.C.C.",
"C.C.C.C.C.C.C.C.C.C.C.C.q P #X@X=X0X$X_.OX@X@X@X@XU.E.Y.. * X.%.%.#.o.K b x j x K @.K f . D 2.) V o : z n f o o . y N.C.C.C.C.C.",
"C.C.C.C.C.C.C.C.C.C.C.C.q N [.@X:X,X7X`.:.`.@X@X@X<.E.Y.. >  .$.%.%.%.$. .b b K #...f . . ( U.OX].P . o > j n : 1 N.C.C.C.C.C.C.",
"C.C.C.C.C.C.C.C.C.C.C.C.y . I.#X%X,X7XOXq.;.5._.].C U.Y.. : ..$.%.%.%.%.$.@.@.#. .l X . . ( E.@X@X].<.$ . o * . ~ C.C.D.D.D.D.D.",
"C.C.C.C.C.g.g.g.g.g.C.C.` @ ( @X@X#X:X_.0.q.;.;.5.4 L P.X * b K ..$.%.%.%.%.%.@.l . . X . C U.@X@X#X].3 + y ! ! A.D.D.D.D.D.D.D.",
"C.C.C.C.g.g.g.g.g.g.g.g.h.M = ~.@X@X@X).:.5.&.*.$.; C J.X * z z z n n n n n l * . . i _ + . C <.H.R./ o ! D.D.D.D.D.D.D.D.D.D.C.",
"g.g.C.g.g.g.D.D.g.g.g.g.g.v.1 N '.&X@X].&.%.%.%.%.; D ) X . X X . . . . . . . . 5 _ F.i * f o X o @ . 5 n.D.D.D.D.D.D.D.D.C.C.C.",
"g.g.g.g.g.D.D.D.D.g.g.g.D.D.v.1 B ~.@X@X5.%.%.%.@.Z ( 3 . . . % t t t 1 . . . ! A.D.D.u * n f + e e ~ M.C.C.C.C.C.C.C.C.C.C.C.g.",
"g.D.D.g.g.D.D.D.D.D.D.D.D.D.D.v.1 N '.#X_.%.%.@.7 L 4 + X . . q c.c.b.t . . 1 i.k.S.D.i . : * e S.D.C.C.C.C.C.C.C.C.C.C.C.C.C.g.",
"D.D.D.D.D.D.D.D.D.D.D.D.D.D.D.D.v.1 B '._.%.@.; 3 3 % ! i X . 1 ^ t.~ + . . w w.w.a.A.b.u t t b.D.D.D.C.C.C.C.C.C.C.C.D.D.g.g.g.",
"D.D.D.D.D.C.C.C.D.D.D.D.D.C.C.C.C.v.1 B W.@.6 N @ % s t._ % . . p t.s + . 2 R E E E x.x.v.G.D.D.C.C.C.C.C.C.C.C.C.D.D.D.D.D.D.D.",
"D.D.D.D.C.C.C.C.C.D.D.D.C.C.C.k.k.k.i.% 6 6 k L % Y t.y # . . . p E 2 . . @ < T E E t.r.r.t.N.C.C.C.C.C.C.C.C.D.D.D.D.D.D.D.D.D.",
"D.D.C.C.C.C.C.C.C.D.D.D.C.C.k.k.k.k.k.i.% . - 2 Y t.r.a p p p p R E Y A A A A T E E E t.t.r.c.C.C.C.C.C.C.C.D.D.D.C.C.C.D.D.D.D.",
"C.C.C.C.C.C.C.C.C.C.C.D.C.C.k.k.k.k.k.k.i.% # Y E E E E E t.t.E E E E E E t.t.E E E E E t.r.c.C.C.C.C.C.D.D.D.D.C.C.C.C.C.D.D.D.",
"C.C.C.C.C.C.C.C.C.C.C.C.k.k.k.k.k.k.k.k.k.p.R E E E E E E E E E E E E E t.t.t.r.r.E E E E a.B.C.C.C.C.C.C.C.C.C.C.C.C.C.C.C.C.C.",
"C.C.C.C.C.C.k.k.k.k.k.k.k.k.k.k.C.C.C.k.k.k.f.p.E E E E E E E E E E E E t.t.r.r.r.r.t.t.c.B.C.C.C.C.C.C.C.C.C.C.C.C.C.C.C.C.C.C.",
"C.C.C.C.C.C.C.C.C.k.k.k.k.k.k.C.C.C.C.C.k.k.C.V.N.s.a.a.a.E E E r.r.E E r.r.t.u.u.u.M.N.C.C.C.C.C.C.C.C.C.C.k.k.k.C.C.C.C.C.C.C.",
"C.C.C.C.C.C.C.C.C.C.C.C.k.k.k.C.C.C.C.C.k.C.C.C.C.C.C.j.j.s.s.m.m.m.m.s.s.m.M.C.C.C.C.C.C.C.C.C.C.C.C.C.C.k.k.k.k.k.C.C.C.C.C.C.",
"C.C.C.C.C.C.D.D.C.C.C.C.C.C.C.C.C.C.C.C.C.C.C.C.C.C.C.C.C.C.C.C.C.C.C.C.C.C.C.C.C.C.C.C.C.C.k.k.k.C.C.C.k.k.k.k.k.k.C.C.C.C.C.C.",
"C.C.C.C.C.D.D.D.D.C.C.C.C.D.D.D.D.C.C.C.C.C.C.C.C.C.C.C.C.C.C.C.C.C.C.C.C.C.C.C.C.C.C.C.C.k.k.k.k.k.k.k.k.k.k.k.k.k.C.C.C.C.C.C.",
"C.C.C.D.D.D.D.D.D.D.D.D.D.D.D.D.D.D.D.C.C.C.C.C.C.C.C.k.k.k.k.C.C.C.C.C.C.C.C.C.C.C.C.C.k.k.k.k.k.k.k.k.k.k.k.k.k.k.k.k.k.C.C.C.",
"k.k.D.D.D.D.D.D.D.D.D.D.D.D.D.D.k.k.k.k.C.C.k.k.k.k.k.k.k.k.k.k.k.C.C.k.k.k.k.C.C.C.C.k.k.k.k.k.k.k.k.k.k.k.k.k.k.k.k.k.k.k.k.k."
};
