/* XPM */
static const char *player2_l[] = {
/* columns rows colors chars-per-pixel */
"64 64 238 2 ",
"   c #151C2E",
".  c #191E2F",
"X  c #11172A",
"o  c #1B1E31",
"O  c #171F30",
"+  c #0E1529",
"@  c #1B212F",
"#  c #1F292F",
"$  c #1D2331",
"%  c #1F2933",
"&  c #232334",
"*  c #242B33",
"=  c #2A2C36",
"-  c #2C253A",
";  c #2D2D39",
":  c #2A2534",
">  c #36293D",
",  c #3B2B3A",
"<  c #362739",
"1  c #2A3333",
"2  c #2A353A",
"3  c #293638",
"4  c #323C35",
"5  c #34333C",
"6  c #3B3B3B",
"7  c #432D39",
"8  c #4B2E3B",
"9  c #47323C",
"0  c #5A343F",
"q  c #52313D",
"w  c #3B4A36",
"e  c #31453D",
"r  c #394336",
"t  c #2F413C",
"y  c #46493A",
"u  c #4B583B",
"i  c #55573F",
"p  c #4F613C",
"a  c #52643C",
"s  c #5B6D3E",
"d  c #5F723F",
"f  c #3B2B43",
"g  c #352940",
"h  c #2B3841",
"j  c #3A3A41",
"k  c #412D45",
"l  c #472F47",
"z  c #493546",
"x  c #563847",
"c  c #583652",
"v  c #693A46",
"b  c #743E4A",
"n  c #653B59",
"m  c #6B3E5B",
"M  c #643B55",
"N  c #713F5B",
"B  c #3B5248",
"V  c #3D4B4E",
"C  c #454345",
"Z  c #4A4545",
"A  c #4C4947",
"S  c #554D4B",
"D  c #584749",
"F  c #435D46",
"G  c #4D504E",
"H  c #5B554C",
"J  c #555652",
"K  c #424757",
"L  c #66494A",
"P  c #7C444A",
"I  c #74405A",
"U  c #7D4255",
"Y  c #6A5C55",
"T  c #675A53",
"R  c #775955",
"E  c #61584F",
"W  c #4B674A",
"Q  c #526C4C",
"!  c #53724E",
"~  c #5A7C52",
"^  c #567750",
"/  c #55645A",
"(  c #656643",
")  c #667A41",
"_  c #6A6459",
"`  c #74625A",
"'  c #78695B",
"]  c #7B7352",
"[  c #555966",
"{  c #586867",
"}  c #587C68",
"|  c #6C6D64",
" . c #797466",
".. c #6C6774",
"X. c #727374",
"o. c #85454C",
"O. c #95494D",
"+. c #894758",
"@. c #9C4D55",
"#. c #964B57",
"$. c #8A5452",
"%. c #985559",
"&. c #A34F54",
"*. c #A65057",
"=. c #A95156",
"-. c #A75358",
";. c #B65555",
":. c #B85655",
">. c #B95C59",
",. c #B65A59",
"<. c #99675D",
"1. c #82715D",
"2. c #887152",
"3. c #BB645D",
"4. c #BC695F",
"5. c #A4605A",
"6. c #836C61",
"7. c #8B7364",
"8. c #8C7B63",
"9. c #867863",
"0. c #967A6A",
"q. c #947D68",
"w. c #807870",
"e. c #BD6C61",
"r. c #B26A60",
"t. c #BA7566",
"y. c #A87263",
"u. c #C17465",
"i. c #C47C6A",
"p. c #C17768",
"a. c #C06A61",
"s. c #5E8254",
"d. c #6D8343",
"f. c #728944",
"g. c #718743",
"h. c #7C9446",
"j. c #7F9847",
"k. c #638957",
"l. c #6B945B",
"z. c #719D5F",
"x. c #5C816B",
"c. c #679175",
"v. c #698E73",
"b. c #75A361",
"n. c #79A863",
"m. c #78A762",
"M. c #87864C",
"N. c #839C48",
"B. c #809B47",
"V. c #9A9852",
"C. c #918F4F",
"Z. c #87A149",
"A. c #8AA44A",
"S. c #8EAA4B",
"D. c #92AE4C",
"F. c #95B24D",
"G. c #99B74E",
"H. c #9BB94E",
"J. c #9EB950",
"K. c #A7A354",
"L. c #B3AF58",
"P. c #BFBA5B",
"I. c #B7B359",
"U. c #9C836C",
"Y. c #99866A",
"T. c #868378",
"R. c #9C9175",
"E. c #978F75",
"W. c #A38D6D",
"Q. c #A2856F",
"!. c #A8956C",
"~. c #A88B71",
"^. c #AC9471",
"/. c #A89A7A",
"(. c #B59A75",
"). c #B69A77",
"_. c #B6846A",
"`. c #BCB66C",
"'. c #BDA379",
"]. c #BBA077",
"[. c #AEB26B",
"{. c #A09D53",
"}. c #C5836E",
"|. c #C8846F",
" X c #CC9777",
".X c #CA8D73",
"XX c #C2A57C",
"oX c #CBAC7E",
"OX c #C6A97D",
"+X c #CDAD7A",
"@X c #8C7085",
"#X c #8C8D91",
"$X c #A79C88",
"%X c #AAA585",
"&X c #B8AA83",
"*X c #B1AC96",
"=X c #A7A8A5",
"-X c #CDAE80",
";X c #D3A882",
":X c #CDB385",
">X c #D5B583",
",X c #D9B985",
"<X c #D7B98A",
"1X c #DABD8A",
"2X c #D7B786",
"3X c #CCBA96",
"4X c #DDC491",
"5X c #D9C99A",
"6X c #DBC997",
"7X c #E1CC97",
"8X c #E4CD9C",
"9X c #E5D39D",
"0X c #E8D39E",
"qX c #DFD4A1",
"wX c #DCC5A6",
"eX c #E9D6A2",
"rX c #EBDBA5",
"tX c #E9DBA6",
"yX c #E5D1AE",
"uX c #EEE2AB",
"iX c #E6E0AB",
"pX c #F1E3AC",
"aX c #F1E9AD",
"sX c #EEE2B5",
"dX c #F1E5B5",
"fX c #F3E8BC",
"gX c #D2CDC8",
"hX c #F4EBC6",
"jX c #F4ECD4",
"kX c #F8F3DA",
"lX c #F9F2D4",
"zX c #F1E5CC",
"xX c #FAF7E7",
"cX c #FDFAF4",
"vX c #FEFEFC",
"bX c #FAF7F3",
"nX c #EFF0F1",
"mX c #EDDFC7",
/* pixels */
"H.H.H.H.H.P.P.P.P.P.P.P.P.P.P.n.n.n.n.n.n.n.n.n.n.n.n.n.n.n.n.n.n.n.n.l.Q ! ! ! b.n.n.n.n.n.n.n.n.n.n.n.n.n.n.n.n.n.n.n.n.n.n.n.",
"H.H.H.H.H.H.P.P.P.P.P.P.H.n.n.n.H.H.H.n.n.n.n.n.n.n.n.n.n.n.n.n.z.l.F *   , P , h / x.c.n.n.n.n.n.n.n.n.n.n.n.n.n.n.n.n.n.H.H.H.",
"H.H.P.P.P.P.P.P.P.P.P.H.H.H.H.H.H.H.H.H.H.H.H.n.n.n.n.n.n.n.b.! 4 % z L D L @.0 & . 2 x.c.H.H.H.H.H.H.H.H.c.c.c.c.n.n.n.H.H.H.H.",
"P.P.P.P.P.P.P.P.P.P.P.H.H.H.H.H.H.H.n.n.n.n.n.n.n.n.n.n.n.b.F $ R <.t.}.|.}.e.;.O.q . 2 x.c.c.c.c.c.H.H.c.c.c.c.c.c.c.n.H.H.H.H.",
"P.P.P.P.P.P.P.P.P.P.H.H.H.H.H.H.H.H.H.H.n.n.n.n.n.n.n.n.b.F 7 $.|.i.e.3.i.i.e.e.,.=.l $ 2 x.c.c.c.c.c.c.c.P.P.P.c.c.c.c.H.H.H.P.",
"H.H.H.H.H.P.P.P.P.P.H.H.H.H.H.H.H.H.H.H.H.H.n.n.n.n.n.b.F D t.i.}.i.e.p.}.|.|.e.;.;.o., . h I.P.P.P.c.c.P.P.P.P.P.c.c.c.c.P.P.P.",
"H.H.H.H.H.H.P.P.P.P.P.H.P.P.H.H.H.H.H.H.H.H.H.H.H.H.b.Q v r.|.|.i.e.i.|.|.|.|.a.:.;.;.@.& & M.P.P.P.P.P.P.P.P.P.P.P.P.P.P.P.H.H.",
"H.H.H.H.H.H.H.H.P.P.P.P.P.P.P.H.H.H.H.H.H.H.H.H.H.H.Q : %.i.|.i.3.e.}.|.y.<.<.$.O.:.-.+.c & ( P.P.P.P.P.P.P.P.P.P.P.P.P.P.P.H.H.",
"P.P.H.H.H.H.H.H.H.P.P.P.H.H.H.P.H.H.H.H.H.H.H.H.H.S.r 9 }.}.t.$.t.}.y.L :     . : O.;.;.U & ( P.P.P.P.P.P.P.P.P.P.P.P.P.P.P.H.P.",
"P.P.P.H.H.H.H.H.H.H.H.H.H.H.H.H.H.H.H.H.H.H.H.H.H.B.9 -.|.t.x <.|.|.D     . : l c #.:.;.+.- ( P.P.P.P.P.P.P.P.P.P.P.P.P.P.P.P.P.",
"P.P.P.H.H.H.P.P.H.H.H.H.H.H.H.H.H.H.H.H.H.H.H.H.H.p 8 t.t.x L }.}.<.:   . > n m m +.-.+.c o ( H.H.P.P.P.P.H.H.P.P.P.P.P.P.P.P.P.",
"P.P.P.H.H.P.P.P.P.P.H.H.H.H.H.H.H.H.H.H.H.H.H.H.G.r v u.L , t.}.$.&   . & n m m I &.@.I g 1 S.H.H.H.H.P.H.H.H.H.P.P.P.P.P.P.P.P.",
"P.P.P.P.P.P.P.P.P.P.P.P.P.P.P.P.P.P.P.H.H.H.H.H.G.r l %.L 9 p.,.7   @ % o l m m n m x - % ) H.H.H.H.H.H.H.H.H.H.P.P.P.P.P.P.P.P.",
"P.P.P.P.P.P.P.P.P.H.H.H.H.H.H.H.H.H.H.H.H.H.H.H.G.r f #.#.x -.U &   u f.* o f l g o o @ ) H.H.H.H.H.H.H.H.H.H.H.P.P.P.P.P.H.H.H.",
"H.H.H.H.H.H.H.H.H.H.H.H.n.n.n.n.n.n.H.H.H.H.H.H.H.d.& M P - o.o.  w F.H.f.4 @ . 1 r g.j.G.H.H.H.H.H.H.H.H.H.H.H.H.H.H.H.H.H.H.H.",
"H.H.H.H.H.H.H.H.H.H.n.n.n.n.n.n.n.n.n.H.n.n.n.n.H.S.r , =.z b P   4 Z.G.G.F.) s S.F.H.H.H.H.H.H.H.H.H.H.H.H.H.H.H.H.H.H.H.H.H.H.",
"H.`.`.J.H.H.H.H.n.n.n.n.n.n.n.n.n.n.n.n.n.n.n.b.k.u # . v , < v o . 6 4 w j.F.H.H.H.H.H.n.n.n.H.H.H.H.H.H.H.H.H.H.H.H.H.H.H.H.H.",
"H.+X>X`.J.H.H.n.n.n.n.n.n.n.n.n.n.n.n.n.n.n.m.W % j  .T &   X k l   T E S & W b.m.H.H.m.n.n.n.n.H.H.H.H.H.H.H.H.H.H.H.H.H.H.H.H.",
"H.!.<X2X`.n.n.n.n.n.n.H.H.H.H.H.n.n.n.n.n.b.W . [ gXcXgX[ [ [ ..@X..$XwX3XA . W b.m.m.m.H.H.n.n.n.H.H.H.H.H.H.n.n.n.H.H.H.H.H.H.",
"H.u $XzX2X[.n.n.n.n.H.H.H.H.H.H.H.n.n.n.H.Z.% $ *  .yXmXbXbXbXcXcXcXmX*X{ $ $ . W n.m.H.H.H.H.n.n.n.H.H.H.H.n.n.n.n.n.H.H.H.n.n.",
"n.w X.cXzX<XV.F.H.H.H.H.H.H.H.H.H.n.n.H.H.u ; Y.:X5XrXeX8X8X8XdXdXdX5X_ A T Y . 4 A.H.H.H.H.H.H.H.H.H.H.H.n.n.n.n.n.n.n.n.n.n.n.",
"n.e | xXvXzX` a J.H.H.H.H.H.H.H.H.H.H.H.F.w Y ,X4XdXxXxXxXlXdXdXpXuXuX0X-X0.' $ . ) H.H.H.n.n.n.n.H.H.H.H.n.n.n.n.n.n.n.n.n.n.n.",
"H.w | hXvXvX=XS [.H.H.H.H.H.H.H.H.H.H.H.f.; XXeXhXcXvXvXbXkXkXkXfXpXrX,X-XQ.0.Z   u b.n.n.n.n.n.n.n.H.H.n.n.n.n.H.H.H.n.n.n.n.n.",
"H.w | uXmXvXjX&X&Xv.c.c.c.H.H.c.c.c.H.F.w ' eXuXeXX.=XlXdXuXuXuXpXpXrX>X>X).0.' & % l.n.n.n.n.n.n.n.n.n.n.n.n.H.H.H.H.H.H.H.H.H.",
"H.w | 0X2XxXkXzXW.{ c.c.c.c.c.c.c.c.c.f.$ R.pX0X(.* T.lXuXuXuXuXtX0X7X>X>X(.0.7.= % l.n.n.n.n.n.n.n.n.n.n.n.n.H.H.H.H.H.H.H.H.H.",
"H.u / 4X4XyXhXxX..6 I.P.c.c.c.P.P.c.c.H X $XlX5X_ + #XcXjXuXuXuXrX4X>X>X>X-XQ.Y = . F H.H.n.n.H.H.H.n.n.n.n.H.H.H.H.H.H.H.H.H.H.",
"H.Z.% ' 7X>X9XkX=X% M.P.P.P.P.P.P.P.P.( T 3XeX].: X #XvXcXdX0X7X1X>X>X>X>X>XQ.0.Y . B H.H.H.H.H.G.F.G.n.n.n.n.n.n.n.n.n.n.H.H.H.",
"P.c.B 2 ].>X1XuXiXG 4 L.P.P.P.P.P.P.I.y X.jX4XY.$ X T.lXhXuXrX2X>X>X>X>X>X>X~.0.Y . y D.H.H.H.F.a 1 4 k.n.n.n.n.n.n.n.n.n.n.n.n.",
"P.P.V.= _ >X>X7XaX%X$ ! n.P.P.P.P.P.C.X J eX-XA   X #XcXhXpXpX1X,X,X,X>X>X>XOX0.` . . M.P.H.G.a & S . e n.n.n.n.P.P.P.P.P.P.P.P.",
"H.H.H.u * (.>X>X0XiXJ 3 z.n.n.P.P.n.s.. & j 5 $     h =X*X&X%XW.Y.U.W.>XOXXXU.` S . . M.H.B.a z 7.9.. e P.P.P.P.P.P.P.P.P.P.P.P.",
"H.H.H.Z.% _ >X>XR.5X%X$ ^ n.n.n.n.b.B . * . X   . .   . . .   X $ A Y.>XXX~.7.j . . @ d.f.* S OX8.&   w H.H.H.H.H.H.H.H.H.H.H.H.",
"H.H.H.H.a ; (.,XH _ tXG 4 F.H.H.n.b.3 * 3XT.6   .           C _ %X8X1X>X,X).0.7.*   3 t $ S oX8.$ & : w H.H.H.H.H.H.H.H.H.H.H.H.",
"P.P.P.H.N.* _ >XW.S eX%X& ) H.H.H.F.1 | sX8XY..   o X.*X%X$X5XpX8X1X>X-X-XXXU.T $ .   & H OX8.= q O.0 w H.H.H.H.H.H.H.H.H.H.H.P.",
"P.P.P.P.H.p * ).oXC /.iXJ r S.H.n.b.* R.fXhX>XZ X V nXcXhXpXuX1X>X>X>X^.U.U.7.5   $ z 8.W.1.x O.;.:.0 w H.H.H.H.H.H.H.H.H.H.P.P.",
"P.P.P.P.P.{.* Y >X' Y qX/.$ s.l.B 4 . E.dXxXyXY.. K jXfXuXpX7X>X>X>X>XW.6.S 5 5 S W.OX(.7.R ;.;.;.:.0 w H.H.H.H.H.H.P.P.P.P.P.P.",
"H.H.H.P.P.P.( ; (.).S _ :XA w * D L & H 6XpXrX'.@ V kXdXuXrX1X>X>X>X9.& _  .9.:X&X1.1.9. X3.;.;.;.:.0 w H.H.H.H.H.H.H.H.P.P.P.P.",
"H.H.H.H.P.P.K.* ` >XT : ^.Y.$ q i.t., % *XpXuX4Xw.| sXpXuXeX>X>X>X>XZ   &XqX/.Z C 5 H ^.>Xu.>.>.;.:.0 w H.H.H.H.H.H.H.H.H.H.P.H.",
"H.H.H.H.H.H.G.a * ].U.$ T -XC 0 P 7 o., J rXuXdXbXbXfXuXpX0X>X>X>X^.5 . ^.' . Z 8.-X>X,X>Xp.e.4.;.:.0 w H.H.H.H.H.H.H.H.H.H.H.H.",
"H.H.H.H.H.H.H.B.* S U.S * (.W.: & L i.D $ 8.4XrXhXjXhXuXpXeX'.1.6 ;   . (. .5 OX,X>X1XeXtX Xe.>.;.:.0 y P.P.P.n.n.n.H.H.H.H.H.H.",
"H.H.H.H.H.H.H.N.1 : 6.7.= 6 H o v e.i.x & - Y.pXfXjXfXtXqX9.5       . . ^. .j >X>X>X6XtX0X.X3.;.;.:.0 e n.n.n.n.n.n.n.n.n.n.n.H.",
"n.n.n.n.n.n.l.3 . & A ` 5   < b ;.>.P & l c : T.5XtX/.9.j .   . . - o . ^.' S >X>X1X7X4X2Xi.>.;.;.>.D e n.n.n.n.n.n.n.n.n.n.n.n.",
"n.n.n.n.H.A.4 v v l   . & l +.;.O.8 . > c m g   j J .     o & k z m < . ^.' 7.>X>X9XeX7X;X3.;.,.p. XT t n.n.n.n.n.n.n.n.n.n.n.n.",
"H.H.H.H.H.j.$ v x & & l M U o.q : j $ g I &.U g   X   o > c M I +.&., . ^.8.q.>X>X2X2X1X Xe.|.+X>X,XT e n.n.n.n.n.n.n.n.n.n.H.H.",
"H.H.H.H.H.D.u . o & g n c > o A ' 0.S . k @.@.m g o g c m N +.-.:.#.- . ^.).~.>X>X>X>X-X X1XuX4X>X,XY t H.H.H.n.n.H.H.H.H.H.H.H.",
"H.H.H.H.H.H.D.1 > M z > o   E oX-X~.` . & M &.#.m M n I +.=.;.;.;.+.- . ^.(.7.>X>X>X X4..XuX0X7X>XXXC w H.H.H.H.H.H.H.H.H.H.H.H.",
"H.H.H.H.H.H.H.) . - o   & 7.oX>X>X).` . . - +.=.+.I I @.;.;.;.;.;.@., . ^.~.S oX Xe.4.t.;XuX9X<X,XW.. u H.H.H.H.H.H.H.P.P.P.P.P.",
"H.H.H.H.H.c.c.x.B B u @ 5 oX,X>X>X~.A . .   - U ;.;.;.;.;.;.;.;.@.+.- . W.Y 9 e.3.4.t.i. X7X2X>X>X' % N.H.H.P.P.P.P.P.P.P.P.P.P.",
"H.H.H.H.c.c.c.c.c.c.c.B . _ (.U.7.S . @ i & . < P &.=.=.=.=.-.+.m m - . Y.S , ;.:.>.e.4.|.>X>X>X'.2 a P.P.P.P.P.P.P.P.P.P.P.P.H.",
"c.c.H.c.c.c.P.P.c.c.c.} 2 . $ . . o g : i 2.& . . > k f f f k f f f & . ' S , ;.;.;.;.>.+X>X,XXXC 1 j.P.P.P.P.P.P.P.P.P.P.H.H.H.",
"c.c.c.c.c.P.P.P.P.c.c.c.K.] r r % f n > y P.K.i .                   .   5 ` D &.:.;.;.e.>X>XXXZ 1 j.H.H.H.H.H.H.H.H.H.H.H.H.H.c.",
"c.P.P.c.c.P.P.P.P.P.P.P.P.P.P.I.r - > . i P.P.L.i . . . 4 i u u 1 . . . @ 5 T 9 &.:.;. X,XXXC 1 V.P.H.H.H.H.H.H.H.H.H.H.H.H.H.c.",
"P.P.P.P.P.P.P.P.P.P.P.P.P.P.P.P.V.y y i V.l.s.s.~ y . . * ) f.d.1 . @ i ( * 5 5 , &.;. XXXZ 1 V.P.P.P.H.H.H.H.H.H.H.H.P.P.c.c.c.",
"P.P.P.P.P.H.H.H.P.P.P.P.P.H.H.H.H.P.L.V.~ ~ ~ ~ ~ ! 4 . @ d f.a . . * ) ~ W * $ C 7 &._.Z 1 V.P.H.H.H.H.H.H.H.H.H.P.P.P.P.P.P.P.",
"P.P.P.P.H.H.H.H.H.P.P.P.H.H.H.n.n.z.s.~ ~ ~ ~ ~ Q 3 @ . . r f.a . . . % B ~ W * T z 7 7 1 j.H.H.H.H.H.H.H.H.H.P.P.P.P.P.P.P.P.P.",
"P.P.H.H.H.H.H.H.H.P.P.P.H.H.n.n.n.l.~ ~ ~ ~ ~ ~ Q a a a a s f.) F F F F W ~ ~ W 2 :   1 j.H.H.H.H.H.H.H.H.H.P.P.P.H.H.H.P.P.P.P.",
"H.H.H.H.H.H.H.H.H.H.H.P.H.H.n.n.n.l.~ ~ ~ ~ ~ ~ ~ ~ ~ ~ ~ f.g.~ ~ ~ ~ ~ ~ f.f.~ W % * k.H.H.H.H.H.H.H.H.P.P.P.P.H.H.H.H.H.P.P.P.",
"H.H.H.H.H.H.H.H.H.H.H.H.n.n.n.n.n.b.k.~ ~ ~ ~ ~ ~ ~ ~ ~ ~ ~ ~ ~ ~ ~ ~ ~ f.f.f.f.f.! l.n.n.n.H.H.H.H.H.H.H.H.H.H.H.H.H.H.H.H.H.H.",
"H.H.H.H.H.H.n.n.n.n.n.n.n.n.n.n.H.H.F.l.~ ~ ~ ~ ~ ~ ~ ~ ~ ~ ~ ~ ~ ~ ~ ~ g.g.f.f.B.D.H.H.H.H.H.H.H.H.H.H.H.H.H.H.H.H.H.H.H.H.H.H.",
"H.H.H.H.H.H.H.H.H.n.n.n.n.n.n.H.H.H.H.H.b.z.j.h.h.~ ~ ~ ~ ~ ~ ~ g.g.~ k.h.h.S.D.G.H.H.H.H.H.H.H.H.H.H.H.H.H.n.n.n.H.H.H.H.H.H.H.",
"H.H.H.H.H.H.H.H.H.H.H.H.n.n.n.H.H.H.H.H.n.H.H.H.G.A.Z.l.l.l.l.Z.Z.Z.A.b.m.H.H.H.H.H.H.H.H.H.H.H.H.H.H.H.H.n.n.n.n.n.H.H.H.H.H.H.",
"H.H.H.H.H.H.P.P.H.H.H.H.H.H.H.H.H.H.H.H.H.H.H.H.H.H.H.H.H.H.H.H.H.H.H.H.H.H.H.H.H.H.H.H.H.H.n.n.n.H.H.H.n.n.n.n.n.n.H.H.H.H.H.H.",
"H.H.H.H.H.P.P.P.P.H.H.H.H.P.P.P.P.H.H.H.H.H.H.H.H.H.H.H.H.H.H.H.H.H.H.H.H.H.H.H.H.H.H.H.H.n.n.n.n.n.n.n.n.n.n.n.n.n.H.H.H.H.H.H.",
"H.H.H.P.P.P.P.P.P.P.P.P.P.P.P.P.P.P.P.H.H.H.H.H.H.H.H.n.n.n.n.H.H.H.H.H.H.H.H.H.H.H.H.H.n.n.n.n.n.n.n.n.n.n.n.n.n.n.n.n.n.H.H.H.",
"n.n.P.P.P.P.P.P.P.P.P.P.P.P.P.P.m.m.n.n.H.H.n.n.n.n.n.n.n.n.n.n.n.H.H.n.n.n.n.H.H.H.H.n.n.n.n.n.n.n.n.n.n.n.n.n.n.n.n.n.n.n.n.n."
};
