/* XPM */
static const char *player3_r[] = {
/* columns rows colors chars-per-pixel */
"64 64 227 2 ",
"   c #0F162A",
".  c #10172A",
"X  c #151B2D",
"o  c #181D2F",
"O  c #1C1F31",
"+  c #211F31",
"@  c #1A212F",
"#  c #1D2331",
"$  c #1E2932",
"%  c #222434",
"&  c #242A33",
"*  c #2A2B36",
"=  c #2A2439",
"-  c #2C2C38",
";  c #2A2636",
":  c #352A3B",
">  c #352838",
",  c #2A3434",
"<  c #2D333A",
"1  c #2B3B39",
"2  c #283434",
"3  c #33343C",
"4  c #3A333C",
"5  c #3B3A3E",
"6  c #343937",
"7  c #442D3A",
"8  c #54333D",
"9  c #4F373F",
"0  c #384438",
"q  c #2E413C",
"w  c #4D593B",
"e  c #54563F",
"r  c #474B3B",
"t  c #53643C",
"y  c #5A6C3E",
"u  c #5E713F",
"i  c #372940",
"p  c #3B2A42",
"a  c #383943",
"s  c #2A3040",
"d  c #462F46",
"f  c #4C314B",
"g  c #473A44",
"h  c #573648",
"j  c #5E3955",
"k  c #583652",
"l  c #683A44",
"z  c #753E48",
"x  c #603955",
"c  c #6A3D5B",
"v  c #683C57",
"b  c #713E52",
"n  c #3B4445",
"m  c #3D5443",
"M  c #4A4446",
"N  c #454347",
"B  c #544B4B",
"V  c #584B4C",
"C  c #435C46",
"Z  c #5C544D",
"A  c #57524D",
"S  c #454957",
"D  c #5D5150",
"F  c #575955",
"G  c #684749",
"H  c #77444A",
"J  c #7B435A",
"K  c #784156",
"L  c #665A52",
"P  c #765C56",
"I  c #69544F",
"U  c #4E6C4C",
"Y  c #4A664A",
"T  c #506E4D",
"R  c #53724F",
"E  c #5A7C52",
"W  c #567851",
"Q  c #49685C",
"!  c #656643",
"~  c #657940",
"^  c #687E42",
"/  c #627640",
"(  c #7B7A49",
")  c #727246",
"_  c #6D6155",
"`  c #68665D",
"'  c #7D6E5C",
"]  c #75665A",
"[  c #767366",
"{  c #6B4862",
"}  c #86454B",
"|  c #974A4D",
" . c #844556",
".. c #8D4856",
"X. c #894758",
"o. c #944B59",
"O. c #974C54",
"+. c #8A5653",
"@. c #A34E52",
"#. c #A55156",
"$. c #AC5153",
"%. c #A85C59",
"&. c #B65555",
"*. c #B85655",
"=. c #B85C59",
"-. c #B75A58",
";. c #9C645C",
":. c #82725D",
">. c #BB635D",
",. c #B7675E",
"<. c #A4665D",
"1. c #846D62",
"2. c #8C7366",
"3. c #887761",
"4. c #957B6A",
"5. c #8B7A71",
"6. c #A86C60",
"7. c #BD6B61",
"8. c #A97364",
"9. c #BB7968",
"0. c #A85D60",
"q. c #C17566",
"w. c #C37B6A",
"e. c #C47968",
"r. c #5E8254",
"t. c #6D8343",
"y. c #708743",
"u. c #728944",
"i. c #7C9446",
"p. c #618656",
"a. c #668E59",
"s. c #6F875A",
"d. c #6B955B",
"f. c #719D5F",
"g. c #679175",
"h. c #76A361",
"j. c #78A763",
"k. c #79A863",
"l. c #5B806B",
"z. c #89874C",
"x. c #839D48",
"c. c #809947",
"v. c #9B9951",
"b. c #A09D53",
"n. c #87A149",
"m. c #8DA84B",
"M. c #92AE4C",
"N. c #94B14C",
"B. c #99B74E",
"V. c #9BB94E",
"C. c #93A054",
"Z. c #A9A655",
"A. c #BFBA5B",
"S. c #B7B259",
"D. c #A7B655",
"F. c #9D826C",
"G. c #98876B",
"H. c #988D73",
"J. c #979279",
"K. c #A28B6D",
"L. c #A7936D",
"P. c #A78A71",
"I. c #AB9473",
"U. c #B39675",
"Y. c #B39A74",
"T. c #B89D79",
"R. c #B1B762",
"E. c #B7A17B",
"W. c #9BAD6F",
"Q. c #C5836E",
"!. c #C8846F",
"~. c #CC9575",
"^. c #C2A57B",
"/. c #CBAC7E",
"(. c #C8A77C",
"). c #D1A87D",
"_. c #D1B57E",
"`. c #848481",
"'. c #8F8E8F",
"]. c #ADA885",
"[. c #B5AA86",
"{. c #B9B08E",
"}. c #B2AEA9",
"|. c #A39D83",
" X c #CDAF80",
".X c #C4A983",
"XX c #CAB284",
"oX c #D5B583",
"OX c #D7B886",
"+X c #DAB985",
"@X c #D9BD89",
"#X c #D7B989",
"$X c #D4AA85",
"%X c #C0B8AD",
"&X c #DCC38F",
"*X c #DEC693",
"=X c #DAC998",
"-X c #CEC799",
";X c #E2CD9A",
":X c #E2C995",
">X c #E5D29C",
",X c #DFD5A2",
"<X c #D1C8B4",
"1X c #EADBA4",
"2X c #ECDDAA",
"3X c #E6D6A3",
"4X c #E7D8B5",
"5X c #E8D4AF",
"6X c #EFE1AB",
"7X c #E7E0A8",
"8X c #F0E2AB",
"9X c #F0EAAF",
"0X c #EEE2B5",
"qX c #F1E4B3",
"wX c #F3E8BB",
"eX c #D2D2D3",
"rX c #F4EAC7",
"tX c #F3EAD3",
"yX c #FAF3DA",
"uX c #F9F3D6",
"iX c #EBE7D8",
"pX c #E7E7E8",
"aX c #FBF8EB",
"sX c #FFFEFC",
"dX c #FEFCF2",
"fX c #F2EDE6",
"gX c #EBDED1",
/* pixels */
"V.V.V.V.V.A.A.A.A.A.A.A.A.A.A.k.k.k.k.k.k.k.k.k.k.k.k.k.k.k.k.k.k.k.k.k.k.k.k.k.k.k.k.k.k.k.k.k.k.k.k.k.k.k.k.k.k.k.k.k.k.k.k.k.",
"V.V.V.V.V.V.A.A.A.A.A.A.V.k.k.k.V.V.V.k.k.k.k.f.d.d.d.d.h.k.k.k.k.k.k.k.k.k.k.k.g.g.g.g.k.k.k.k.k.k.k.k.k.k.k.k.k.k.k.k.k.V.V.V.",
"V.V.A.A.A.A.A.A.A.A.A.V.V.V.V.V.V.V.V.V.V.N.^ 1 : l 4 # 0 E j.j.k.k.k.k.k.k.k.g.g.g.g.g.g.V.V.V.V.V.V.V.V.g.g.g.g.k.k.k.V.V.V.V.",
"A.A.A.A.A.A.A.A.A.A.A.V.V.V.V.V.V.V.k.k.W 1 X X 7 | 9 : : 3 1 C d.j.k.g.g.g.k.g.g.g.g.g.g.g.g.g.g.g.V.V.g.g.g.g.g.g.g.k.V.V.V.V.",
"A.A.A.A.A.A.A.A.A.A.V.V.V.V.V.V.V.V.V.t.$ + 8 l $.,.9.P.Q.8.I g $ W g.g.g.g.g.g.g.g.g.g.g.g.g.g.g.g.g.g.g.A.A.A.g.g.g.g.V.V.V.A.",
"V.V.V.V.V.A.A.A.A.A.V.V.V.V.V.V.V.V.t.& % x &.*.=.>.q.Q.7.q.!.9.h * Q g.g.g.A.A.A.A.g.g.g.g.A.A.A.A.g.g.A.A.A.A.A.g.g.g.g.A.A.A.",
"V.V.V.V.V.V.A.A.A.A.A.V.A.A.V.V.V.M., o l | *.&.q.Q.Q.w.7.>.w.Q.q.;.4 Q A.A.A.A.A.A.A.g.g.A.A.A.A.A.A.A.A.A.A.A.A.A.A.A.A.A.V.V.",
"V.V.V.V.V.V.V.V.A.A.A.A.A.A.A.V.V.u # : O.&.&.&.7.Q.Q.Q.Q.w.e.Q.Q.!.;.9 z.A.A.A.A.A.A.g.A.A.A.A.A.A.A.A.A.A.A.A.A.A.A.A.A.A.V.V.",
"A.A.V.V.V.V.V.V.V.A.A.A.V.V.V.A.V.t % j o.$.*.$.,.9.9.Q.Q.w.>.7.Q.Q.q.| > z.A.A.A.A.A.A.A.A.A.A.A.A.A.A.A.A.A.A.A.A.A.A.A.A.V.A.",
"A.A.A.V.V.V.V.V.V.V.V.V.V.V.V.V.V.t = ..*.*.@.7 ; * * P 8.Q.w.>.<.Q.Q.9.4 e S.A.A.A.A.A.A.A.A.A.A.A.A.A.A.A.A.A.A.A.A.A.A.A.A.A.",
"A.A.A.V.V.V.A.A.V.V.V.V.V.V.V.V.V.t = K $.&...f i O X X 4 8.!.Q.+.H e.Q.+.7 v.V.V.V.A.A.A.A.A.V.V.A.A.A.A.V.V.A.A.A.A.A.A.A.A.A.",
"A.A.A.V.V.A.A.A.A.A.V.V.V.V.V.V.V.t.$ f J #.X.c c k = X X 4 8.!.9.g I Q.9.7 ~ V.V.V.V.A.A.V.V.V.V.V.V.A.V.V.V.V.A.A.A.A.A.A.A.A.",
"A.A.A.A.A.A.A.A.A.A.A.A.A.A.A.A.A.S.0 = x  .o.K c c j % X X 4 <.!.6.> P e.l 0 B.V.V.V.A.V.V.V.V.V.V.V.V.V.V.V.V.A.A.A.A.A.A.A.A.",
"A.A.A.A.A.A.A.A.A.V.V.V.V.V.V.V.V.V.x., O i f x c c k O X X X 8 7.e.7 G %.h 0 B.V.V.V.A.V.V.V.V.V.V.V.V.V.V.V.V.A.A.A.A.A.V.V.V.",
"V.V.V.V.V.V.V.V.V.V.V.V.k.k.k.k.k.k.V.c.0 , X = = = % @ t 0 X >  .-.h O.o.p 0 B.V.V.V.V.V.V.V.V.V.V.V.V.V.V.V.V.V.V.V.V.V.V.V.V.",
"V.V.V.V.V.V.V.V.V.V.k.k.k.k.k.k.k.k.k.V.h.f.Y m @ X @ y V.n.6 X } } p H K = y V.V.V.V.V.V.V.V.V.V.V.V.V.V.V.V.V.V.V.V.V.V.V.V.V.",
"V.V.V.V.V.V.V.V.k.k.k.k.k.k.k.k.k.k.k.k.k.k.k.h.a.c.c.N.A.S.r X } z : | 7 , n.V.V.V.V.V.k.k.k.V.V.V.V.V.V.V.V.V.V.V.V.V.V.V.D.V.",
"V.V.V.V.V.V.V.k.k.k.k.k.k.k.k.k.k.k.k.k.k.k.k.k.k.A.S.) ! e X X z d f } + 6 T h.j.V.V.k.k.k.k.k.V.V.V.V.V.V.V.V.V.V.V.V.V.R.oXR.",
"V.V.V.V.V.k.k.k.k.k.k.V.V.V.V.V.k.k.k.k.k.k.k.k.k.E 2 3 a V X i k o + : 5 M % 2 r.k.k.k.V.V.k.k.k.V.V.V.V.V.V.k.k.k.V.V.R._.oXR.",
"V.V.V.k.k.k.k.k.k.k.V.V.V.V.V.V.V.k.k.k.V.V.V.k.E $ M T..X5.a { g - - - }.tX}.S $ r.k.V.V.V.V.k.k.k.V.V.V.V.k.k.k.k.k.R.oX5XU.s.",
"k.V.V.V.V.V.V.V.V.V.V.V.V.V.V.V.V.k.k.V.V.V.V.u.& X * '.<XgXpXpXpXpXpXpXiXtX'.& X , m.V.V.V.V.V.V.V.V.V.V.k.k.k.k.k.W. X4XfXN U ",
"k.k.k.k.V.V.V.V.V.V.V.V.V.V.V.V.V.V.V.V.V.V.N.0 X V M * A =XrXrXrX4X5X5X3X;X].H.] % u V.V.k.k.k.k.V.V.V.V.k.k.k.j.W Y.4XsXiXa U ",
"V.V.V.V.V.V.V.V.V.V.V.V.V.V.V.V.V.V.V.V.V.V.t.X o ] 4.E.=X2X8X8X6X1XwXrXrXrXqX:XoXA 0 k.k.k.k.k.k.k.V.V.k.k.k.k.C.& }.sXsX4X3 U ",
"V.V.V.V.V.V.V.V.g.g.g.g.g.V.V.g.g.g.V.V.V.A.) X a 2.F. X@X2X8XwXyXyXdXsXsXsXdX4X;XL.< p.k.k.k.k.k.k.k.k.k.k.k.V.L.[ fXsXyX,X3 / ",
"V.V.V.V.V.V.V.g.g.g.g.g.g.g.g.g.g.g.g.V.A.Z.* # L 4.U.oXoX1X6X6XqXqX8XrXyX<X}.0X8X;XA m h.k.k.k.k.k.k.k.k.k.k.R.#X4XdXfX;X,X3 / ",
"V.V.V.V.V.g.g.g.A.A.A.A.g.g.g.A.A.g.g.A.A.Z.& * 4.4.U.oXoX>X1X6X6X6X6X6XuX`.3 .X1X8XG.& x.k.k.V.V.V.k.k.k.k.m.r {.uXaX5XOX=Xa / ",
"V.V.g.g.g.g.A.A.A.A.A.A.A.A.A.A.A.A.A.A.A.( @ % P F.^.oXoXoX*X2X8X8X6XwXyX`.  :.;XuX|.. w V.V.V.V.V.V.k.k.k.R # eXyX5X#X;XH.0 i.",
"A.g.g.A.A.A.A.A.A.A.A.A.Z.v.v.A.A.A.A.A.A.e X D 2.P.oXoXoXoX#X:X3X1XqXdXsX'.. 3 .X0X[.5 w V.V.V.V.V.V.k.k.f.1 F tX0X@X+X[.% C k.",
"A.A.A.A.A.A.A.A.A.A.k.a.2 O & z.A.A.A.A.A.e X ] 4.P.oXoXoXoXoXoXOX>XqXtXyX`.. # Y.:XrX5.e V.V.V.V.V.V.k.k.R % ].9X;XoXoXL & Z.A.",
"V.V.V.V.V.V.A.A.k.k.k.R X Z L % z.k.k.k.r.# X ] 4.^.oXoXoXoXoXoX#X2X6XwXdX'.. X Z #XqXF @ i.V.V.V.V.k.k.S.6 F 7X3X+XoXY.* ! A.A.",
"V.V.V.V.V.V.V.V.V.V.V.^ X 5 K.3.n m d.k.W X X L 2.I. XoXoX(.^.(. X=X,X4XeXS X X * L ` 3 X u.V.V.V.V.V.V./ $ ].6X@XoXoXL , x.V.V.",
"V.V.V.V.V.V.V.V.V.V.V.^ X X 3 T.U.3 1 E R X X % 4 1.P.T. X' N * * < < a s X X X X . . X X u V.V.V.V.V.m.6 F 3X[ L.+XY.% t V.V.V.",
"A.A.A.V.V.V.V.V.V.V.V.^ % 8 + 3 Y.Y.3 X m 1 X % ] 4.U.oXoX@XXX[ < %       X X X X % F J.# , N.V.V.V.V.^ $ [.-X< L.+XL & n.V.V.A.",
"A.A.A.A.V.V.V.V.V.V.V.^ ; $.| 8 g Y.I.A & X X % ] F.^.oXoXoX:X3X3X].` ` [ S X X X :.=X4XA , N.V.V.V.N., F 1XI.L oXY.* t V.V.A.A.",
"A.A.A.A.A.A.A.V.V.V.V.R ; $.&.&.| G ] P.1.M *   g 2.P.P.U. XoXOX:X8X8XrXdXeXa . 5 ^.2XqXJ., m.n.M.V./ % ].,XD ] oX_ , Z.A.A.A.A.",
"V.V.V.A.A.A.A.A.V.V.V.^ ; $.&.&.*.%.8.U./. XL._ M * D V F.oXoXoXoX>X6X6XtXfXS X ' 5XaXwXJ.& 0 # 0 u.w M =XH.B ^.T.% t V.A.A.A.A.",
"V.V.V.V.A.A.A.A.A.V.V.^ ; $.&.&.&.*.~.G.A 5 ] XXT.{.{.3 3 ^.oXoXoX&X2X6X6XtXS @ E.2XwX;X' . M 6.G % , K.Y.- 3.oXL & x.V.V.V.A.V.",
"V.V.V.V.V.V.V.V.V.V.V.^ ; $.&.=.7.>.).oXI.] B # N J.*Xn # E.+XoXoXoX3X8XqXrXS B #X6X8X-X& % G 6.,.; B /.Z % U.Y.* t V.V.V.V.V.V.",
"V.V.V.V.V.V.V.V.V.V.V.^ ; $.&.*.7.7.oX&X@X+X/.K.3 3  X5 # 4.(.+XoXoX3X8X6XqXeXiX0X6X8X[ X +.} ; h : F.I.% V T._ $ d.V.V.V.V.V.V.",
"V.V.V.V.V.V.V.V.V.V.V.^ ; $.&.&.,.w.3X6X*XoXoX+X' n &X5 X X M _ I.oX1X8X6XrXyXuX2X;XE.3 X ;.w.H X N ^.Z % 2.1.% C j.k.k.k.k.k.V.",
"k.k.k.k.k.k.k.k.V.V.V.^ ; $.&.&.-.e.$X1X>X@XoX+X' 3  X5 X X X X % Z [.6X8XrXyXwX8XE.4 d = H q.=.l % < X D 4.M X 1 a.k.k.k.k.k.k.",
"k.k.k.k.V.V.V.V.V.V.V.^ - 9.=.&.&.7.~.&X;X>XOXoXK.M (.5 X : O X X X % ` [.=X8X2X{.a f v : O z $.*.} : X 3 M - : % 6 a.k.k.k.k.k.",
"V.V.V.V.V.V.V.V.V.V.V.^ 3 (.).q.=.&.e.;X*X>XOXoXT.V (.5 o v j i = X X . % 3 H.` % = v v x = o > H #. .k = X O k ..l q h.k.k.V.V.",
"V.V.V.V.V.V.V.V.V.V.V.^ 3 /.oXoX#X~.Q.oXoXoXoXoXT.2./.5 o K O.J c f d % X X X X = j c c f O g D % 7 l c c f % O : ; 0 B.V.V.V.V.",
"V.V.V.V.V.V.V.V.V.V.V.^ 3 (.oX@X6X6X$X~.oXoXoXoXT.P. X5 X b &.&.o.J c x d = X = j c X.b O * 2.F.P.A X = f k i i O 1 x.V.V.V.V.V.",
"V.V.V.V.V.V.V.V.V.V.V.^ o :.oX@X*X1X*X=.7.~.).+X4.2.oX5 X b #.&.&.$.O.J c j f j c o. .i X * 4.T.OX/.L % X = f f # u V.A.A.A.A.A.",
"V.V.V.V.V.g.g.g.g.g.V.c.$ L oXoX*X1X;XQ.e.>.q.~.' Z /.5 o  .&.&.&.&.&.&...c c J ..o.8 X X * 4.(.oXoXoX3.X X O o 6 S.A.A.A.A.A.A.",
"V.V.V.V.g.g.g.g.g.g.g.g.n * Y.OXoX@X).7.e.>.>.*.H - U.5 X x J @.&.*.*.*.&.#.#.&.@.d X # * O B P. XoX+X3.X e v.v.v.A.A.A.A.A.A.V.",
"g.g.V.g.g.g.A.A.g.g.g.g.l.% _ oXoXoX).>.>.=.&.*.l * F.3 o k v c  .............z : X X e r o o N V _ _ * & Z.A.A.A.A.A.A.A.V.V.V.",
"g.g.g.g.g.A.A.A.A.g.g.g.A.( % _  XoXoXw.&.&.&.*.l a 1.* X % = = = = % % % % = O X , ! b.& f d o X X X 6 ^ V.V.V.V.V.V.V.V.V.V.g.",
"g.A.A.g.g.A.A.A.A.A.A.A.A.A.( # _ oXoX~.=.&.*.@.G ] 3 X X X X @ @ @ @ @ X X X X 2 v.A.Z.& i x = r ( ~ M.V.V.V.V.V.V.V.V.V.V.V.g.",
"A.A.A.A.A.A.A.A.A.A.A.A.A.A.A.( % _  XoX>.*.@.7 B 3 & 5 & X @ w ~ ~ / 5 X X # 1 T p.Z.Z.0 X % % z.A.A.V.V.V.V.V.V.V.V.A.A.g.g.g.",
"A.A.A.A.A.V.V.V.A.A.A.A.A.V.V.V./ $ _ /.>.@.7 % - $ u u.! $ X & u u.u @ X 1 C E E E z.z.z.) ( z.V.V.V.V.V.V.V.V.V.A.A.A.A.A.A.A.",
"A.A.A.A.V.V.V.V.V.A.A.A.V.V.V.k.j.T $ L #.7 V 4 $ Y u.w & o X X t E 1 X X # 2 U E E u.y.u.i.N.V.V.V.V.V.V.V.V.A.A.A.A.A.A.A.A.A.",
"A.A.V.V.V.V.V.V.V.A.A.A.V.V.k.k.k.k.U $ ; % I < Y u.y.y t t t t R E Y C C C C T E E E u.u.y.x.V.V.V.V.V.V.V.A.A.A.V.V.V.A.A.A.A.",
"V.V.V.V.V.V.V.V.V.V.V.A.V.V.k.k.k.k.j.T @ X & Y E E E E E u.u.E E E E E E u.u.E E E E E u.y.x.V.V.V.V.V.A.A.A.A.V.V.V.V.V.A.A.A.",
"V.V.V.V.V.V.V.V.V.V.V.V.k.k.k.k.k.j.k.j.U 1 U E E E E E E E E E E E E E u.u.u.y.y.E E E W p.N.V.V.V.V.V.V.V.V.V.V.V.V.V.V.V.V.V.",
"V.V.V.V.V.V.k.k.k.k.k.k.k.k.k.k.V.V.V.k.j.h.f.a.E E W W W E E E E E E E u.u.y.y.y.y.u.u.x.N.V.V.V.V.V.V.V.V.V.V.V.V.V.V.V.V.V.V.",
"V.V.V.V.V.V.V.V.V.k.k.k.k.k.k.V.V.V.V.V.k.k.V.B.M.f.p.p.p.E W W y.y.E E y.y.u.i.i.i.m.M.V.V.V.V.V.V.V.V.V.V.k.k.k.V.V.V.V.V.V.V.",
"V.V.V.V.V.V.V.V.V.V.V.V.k.k.k.V.V.V.V.V.k.V.V.V.V.V.V.j.j.d.d.n.n.n.n.d.d.n.m.V.V.V.V.V.V.V.V.V.V.V.V.V.V.k.k.k.k.k.V.V.V.V.V.V.",
"V.V.V.V.V.V.A.A.V.V.V.V.V.V.V.V.V.V.V.V.V.V.V.V.V.V.V.V.V.V.V.V.V.V.V.V.V.V.V.V.V.V.V.V.V.V.k.k.k.V.V.V.k.k.k.k.k.k.V.V.V.V.V.V.",
"V.V.V.V.V.A.A.A.A.V.V.V.V.A.A.A.A.V.V.V.V.V.V.V.V.V.V.V.V.V.V.V.V.V.V.V.V.V.V.V.V.V.V.V.V.k.k.k.k.k.k.k.k.k.k.k.k.k.V.V.V.V.V.V.",
"V.V.V.A.A.A.A.A.A.A.A.A.A.A.A.A.A.A.A.V.V.V.V.V.V.V.V.k.k.k.k.V.V.V.V.V.V.V.V.V.V.V.V.V.k.k.k.k.k.k.k.k.k.k.k.k.k.k.k.k.k.V.V.V.",
"k.k.A.A.A.A.A.A.A.A.A.A.A.A.A.A.k.k.k.k.V.V.k.k.k.k.k.k.k.k.k.k.k.V.V.k.k.k.k.V.V.V.V.k.k.k.k.k.k.k.k.k.k.k.k.k.k.k.k.k.k.k.k.k."
};
