/* XPM */
static const char *player5_r[] = {
/* columns rows colors chars-per-pixel */
"64 64 229 2 ",
"   c #11172A",
".  c #151C2E",
"X  c #181E2F",
"o  c #1C1E31",
"O  c #0E1529",
"+  c #1B212F",
"@  c #1D2231",
"#  c #1E2932",
"$  c #232434",
"%  c #2C2434",
"&  c #242B33",
"*  c #292B36",
"=  c #2C253A",
"-  c #2C2D38",
";  c #222E39",
":  c #32273C",
">  c #352B3C",
",  c #3A2C3A",
"<  c #382736",
"1  c #2B3333",
"2  c #2B3737",
"3  c #3A3A3D",
"4  c #34373A",
"5  c #432C39",
"6  c #49323C",
"7  c #5A343E",
"8  c #51343E",
"9  c #3B4A36",
"0  c #31443C",
"q  c #384538",
"w  c #42443A",
"e  c #494E3C",
"r  c #4B5B3B",
"t  c #4B513C",
"y  c #55573F",
"u  c #54653D",
"i  c #5F723F",
"p  c #62763F",
"a  c #3C2B43",
"s  c #372940",
"d  c #3E3B41",
"f  c #353A41",
"g  c #2B3141",
"h  c #432D46",
"j  c #482E45",
"k  c #453745",
"l  c #563646",
"z  c #593652",
"x  c #583652",
"c  c #663A45",
"v  c #6A3C52",
"b  c #6A3D5B",
"n  c #643B58",
"m  c #733F51",
"M  c #3B484A",
"N  c #4D4846",
"B  c #494647",
"V  c #544C4A",
"C  c #574648",
"Z  c #435C46",
"A  c #5D594B",
"S  c #5A5753",
"D  c #435256",
"F  c #66494A",
"G  c #79454A",
"H  c #784259",
"J  c #645653",
"K  c #655B52",
"L  c #6B5C55",
"P  c #6C5956",
"I  c #725C57",
"U  c #63554F",
"Y  c #4A654A",
"T  c #4D6B4C",
"R  c #586847",
"E  c #53734F",
"W  c #5A7C52",
"Q  c #567650",
"!  c #636442",
"~  c #657A41",
"^  c #777748",
"/  c #696458",
"(  c #736259",
")  c #7C6C5D",
"_  c #756959",
"`  c #7A765B",
"'  c #555966",
"]  c #5B756C",
"[  c #6B6C63",
"{  c #767367",
"}  c #706D6F",
"|  c #844349",
" . c #8A474C",
".. c #994A4E",
"X. c #894759",
"o. c #9C4D57",
"O. c #934A58",
"+. c #974B55",
"@. c #975958",
"#. c #875D57",
"$. c #A34F54",
"%. c #A95456",
"&. c #B55555",
"*. c #B85655",
"=. c #B85D5A",
"-. c #99665C",
";. c #82755E",
":. c #877152",
">. c #BB635C",
",. c #BD685F",
"<. c #A4645C",
"1. c #8D7466",
"2. c #897A66",
"3. c #977C6A",
"4. c #807870",
"5. c #BD6B61",
"6. c #B46C61",
"7. c #BB7D6A",
"8. c #BB7365",
"9. c #A67766",
"0. c #C06B60",
"q. c #C17466",
"w. c #C27C6A",
"e. c #C17866",
"r. c #5F8354",
"t. c #6C8242",
"y. c #708743",
"u. c #728944",
"i. c #7C9446",
"p. c #618556",
"a. c #668D59",
"s. c #6A935B",
"d. c #6E995D",
"f. c #719D5F",
"g. c #679175",
"h. c #739F60",
"j. c #78A762",
"k. c #79A863",
"l. c #76A462",
"z. c #5E856D",
"x. c #89884C",
"c. c #839D48",
"v. c #809947",
"b. c #999751",
"n. c #87A149",
"m. c #8CA84A",
"M. c #92AE4C",
"N. c #95B24D",
"B. c #99B74E",
"V. c #9BB94E",
"C. c #ABA756",
"Z. c #B2AE58",
"A. c #BFBA5B",
"S. c #B8B359",
"D. c #A4B856",
"F. c #9C846B",
"G. c #9D886A",
"H. c #938269",
"J. c #868378",
"K. c #999277",
"L. c #968E75",
"P. c #A38C6D",
"I. c #A2856F",
"U. c #A88B71",
"Y. c #AC9371",
"T. c #AC9E7C",
"R. c #B49875",
"E. c #B79B78",
"W. c #B08C6E",
"Q. c #86AA68",
"!. c #BCA37A",
"~. c #B5B566",
"^. c #C5836E",
"/. c #C9846F",
"(. c #CC9776",
"). c #C68370",
"_. c #CCAE7F",
"`. c #C5A57C",
"'. c #C7B577",
"]. c #D1A07F",
"[. c #767984",
"{. c #8C7085",
"}. c #85888E",
"|. c #A79C88",
" X c #B7AA84",
".X c #BCB895",
"XX c #AEA88F",
"oX c #A3A5AA",
"OX c #CDAE81",
"+X c #CAB184",
"@X c #D5B583",
"#X c #D8B784",
"$X c #D9B985",
"%X c #DBBE8A",
"&X c #D7B888",
"*X c #C7BA97",
"=X c #D5B087",
"-X c #DBC18D",
";X c #DDC492",
":X c #DBC799",
">X c #CBC698",
",X c #E1CC96",
"<X c #E4CE9B",
"1X c #E5D29E",
"2X c #E8D39E",
"3X c #D7CBAB",
"4X c #E9D6A2",
"5X c #EBDBA5",
"6X c #EADAA5",
"7X c #E5D1AE",
"8X c #EEE2AB",
"9X c #EBE3A9",
"0X c #F1E3AC",
"qX c #F0E9AE",
"wX c #EDE2B6",
"eX c #F1E5B5",
"rX c #F4E9BC",
"tX c #F2E5BA",
"yX c #D2CDC8",
"uX c #F5EBC6",
"iX c #F4EDD6",
"pX c #F9F3D7",
"aX c #F3E8CC",
"sX c #FAF6E8",
"dX c #FDFBF4",
"fX c #FEFEFC",
"gX c #FAF7F3",
"hX c #EFF0F1",
"jX c #EDDFC7",
/* pixels */
"V.V.V.V.V.A.A.A.A.A.A.A.A.A.A.k.k.k.k.k.k.k.k.k.k.k.k.k.k.k.k.k.k.k.k.k.k.k.k.k.k.k.k.k.k.k.k.k.k.k.k.k.k.k.k.k.k.k.k.k.k.k.k.k.",
"V.V.V.V.V.V.A.A.A.A.A.A.V.k.k.k.V.V.V.k.k.k.k.k.k.k.k.k.k.k.k.k.k.k.k.k.k.k.k.k.g.g.g.g.k.k.k.k.k.k.k.k.k.k.k.k.k.k.k.k.k.V.V.V.",
"V.V.A.A.A.A.A.A.A.A.A.V.V.V.V.V.V.V.V.V.V.V.V.j.j.W T T T f.k.k.k.k.k.k.k.k.k.g.g.g.g.g.g.V.V.V.V.V.V.V.V.g.g.g.g.k.k.k.V.V.V.V.",
"A.A.A.A.A.A.A.A.A.A.A.V.V.V.V.V.V.V.k.k.j.l.s.Z N F , > > 2 0 p.s.l.k.g.g.g.k.g.g.g.g.g.g.g.g.g.g.g.V.V.g.g.g.g.g.g.g.k.V.V.V.V.",
"A.A.A.A.A.A.A.A.A.A.V.V.V.V.V.V.V.V.V.V.k.E @ @ | 5.7.7.7.I F & & Z ] g.g.g.g.g.g.g.g.g.g.g.g.g.g.g.g.g.g.A.A.A.g.g.g.g.V.V.V.A.",
"V.V.V.V.V.A.A.A.A.A.V.V.V.V.V.V.V.V.V.V.~ # $ 5 %.^.^.q.=.q.^.<. .6 f ] g.g.A.A.A.A.g.g.g.g.A.A.A.A.g.g.A.A.A.A.A.g.g.g.g.A.A.A.",
"V.V.V.V.V.V.A.A.A.A.A.V.A.A.V.V.V.V.V.m.1 $ G &.>.w.^.8.5.w.^.^.^.e.G 2 C.A.A.A.A.A.A.g.g.A.A.A.A.A.A.A.A.A.A.A.A.A.A.A.A.A.V.V.",
"V.V.V.V.V.V.V.V.A.A.A.A.A.A.A.V.V.V.M.r $ v &.5.e.^.^.^.^.5.>.e.^.^.5.c 3 C.A.A.A.A.A.g.A.A.A.A.A.A.A.A.A.A.A.A.A.A.A.A.A.A.V.V.",
"A.A.V.V.V.V.V.V.V.A.A.A.V.V.V.A.V.V.y.  < $.*.=.w.7.7.7./.^.q.=.8.W./.9.> w C.A.A.A.A.A.A.A.A.A.A.A.A.A.A.A.A.A.A.A.A.A.A.A.V.A.",
"A.A.A.V.V.V.V.V.V.V.V.V.V.V.V.V.V.N.q $ l $.&.&.c * * 6 #.7.^.q.G C 7./.<.6 b.A.A.A.A.A.A.A.A.A.A.A.A.A.A.A.A.A.A.A.A.A.A.A.A.A.",
"A.A.A.V.V.V.A.A.V.V.V.V.V.V.V.V.V.N.1 = m o.%.7 . o o . . F ^./.^.F l 7.8.6 R V.V.V.A.A.A.A.A.V.V.A.A.A.A.V.V.A.A.A.A.A.A.A.A.A.",
"A.A.A.V.V.A.A.A.A.A.V.V.V.V.V.V.V.N.1 h X.%. .> > x j o . . C @.w.8.< F q.c q B.V.V.V.A.A.V.V.V.V.V.V.A.V.V.V.V.A.A.A.A.A.A.A.A.",
"A.A.A.A.A.A.A.A.A.A.A.A.A.A.A.A.A.S.1 h %.*.o.b b b b j o .   5 =.q.6 F @.j q B.V.V.V.A.V.V.V.V.V.V.V.V.V.V.V.V.A.A.A.A.A.A.A.A.",
"A.A.A.A.A.A.A.A.A.V.V.V.V.V.V.V.V.B.r o m o.&.O.H b b b s . . $ H %.l +.O.a q B.V.V.V.A.V.V.V.V.V.V.V.V.V.V.V.V.A.A.A.A.A.V.V.V.",
"V.V.V.V.V.V.V.V.V.V.V.V.k.k.k.k.k.k.i.& s b O.H H b b x & t.9 . | | = m X.s e V.V.V.V.V.V.V.V.V.V.V.V.V.V.V.V.V.V.V.V.V.V.V.V.V.",
"V.V.V.V.V.V.V.V.V.V.k.k.k.k.k.k.k.k.k.t.# : h z x a h $ 9 v.3 . G m j %.c @ i.V.V.V.V.V.V.V.V.V.V.V.V.V.V.V.V.V.V.V.V.V.V.V.V.V.",
"V.V.V.V.V.V.V.V.k.k.k.k.k.k.k.k.k.k.k.k.Q 2 . $ @ 2 & . 1 w . o c : , ..%   9 i.B.V.V.V.k.k.k.V.V.V.V.V.V.V.V.V.V.V.V.V.V.D.D.V.",
"V.V.V.V.V.V.V.k.k.k.k.k.k.k.k.k.k.k.k.k.k.h.T Y Y ! w V J J . j h   . % K { f # Y B.V.j.k.k.k.k.V.V.V.V.V.V.V.V.V.V.V.V.D.'.'.V.",
"V.V.V.V.V.k.k.k.k.k.k.V.V.V.V.V.k.k.k.k.k.k.k.l.Y . N *X3X|.} {.} ' ' ' yXdXyX' . Y l.j.V.V.k.k.k.V.V.V.V.V.V.k.k.k.V.D.'.@X'.V.",
"V.V.V.k.k.k.k.k.k.k.V.V.V.V.V.V.V.k.k.k.V.V.V.Y . @ @ ' XXjXfXfXdXdXdXgXjX7X{ * @ # s.V.V.V.V.k.k.k.V.V.V.V.k.k.k.k.Q.'.:X*X` k.",
"k.V.V.V.V.V.V.V.V.V.V.V.V.V.V.V.V.k.k.V.V.V.m.2 . P J N / :XeXeXwX<X<X<X4X4X:X+XG.- r V.V.V.V.V.V.V.V.V.V.k.k.k.k.Q.'.:XgX}.0 k.",
"k.k.k.k.V.V.V.V.V.V.V.V.V.V.V.V.V.V.V.V.V.V.~ . @ ) 3.OX2X8X8X0XeXeXpXsXsXsXtX;X&XL 9 B.V.k.k.k.k.V.V.V.V.k.k.k.a.;.:XsXdX} 0 k.",
"V.V.V.V.V.V.V.V.V.V.V.V.V.V.V.V.V.V.V.V.V.B.r   B 3.I.OX&X5X8XtXpXpXpXdXfXfXfXaX4X`.- W k.k.k.k.k.k.V.V.k.k.k.Q.w } sXfXpX[ 0 k.",
"V.V.V.V.V.V.V.V.g.g.g.g.g.V.V.g.g.g.V.V.V.C.& $ ) 3.R.&X&X5X0X8X8X8X8XeXpXoX} 4X0X4X_ 0 l.k.k.k.k.k.k.k.k.k.k.~._ 3XfXgXrX[ 9 V.",
"V.V.V.V.V.V.V.g.g.g.g.g.g.g.g.g.g.g.g.V.A.C.& * 1.3.R.&X&X,X1X5X8X8X8X8XpXJ.& R.2X0XK.@ W k.k.k.k.k.k.k.k.k.Q._.3XpXdX7X9X[ 9 V.",
"V.V.V.V.V.g.g.g.A.A.A.A.g.g.g.A.A.g.g.A.A.! . * P I.OX@X@X@X;X5X8X8X8XiXdX}.O / :XpX|.  r k.k.V.V.V.k.k.k.k.u 4.iXpXiX&X<X[ 9 V.",
"V.V.g.g.g.g.A.A.A.A.A.A.A.A.A.A.A.A.A.A.A.y . I 3.I.@X@X@X@X&X%X,X1XeXdXfX}.  & !.4X*XK u V.V.V.V.V.V.k.k.s.& [.dXwX%X,X+XB p V.",
"A.g.g.A.A.A.A.A.A.A.A.A.S.b.b.C.A.A.A.A.Z.w . I 3.U.@X@X@X@X@X@X&X4X8XuXpXJ.  @ P.-XiX} 9 N.V.V.V.V.V.k.k.Y - 3XuX;X@X;XV 1 f.k.",
"A.A.A.A.A.A.A.A.A.A.k.k.T + @ q C.A.A.A.x.. . ( 3.`.@X@X@X#X&X&X%X0X0XuXfX}.    N OX4XS   u.V.V.V.V.V.k.d.# [ 9X5X&X&XG.$ ^ A.A.",
"V.V.V.V.V.V.A.A.k.k.k.k.0 X ) 3 q s.k.k.W . . V ( F.`.`.@XP.G.G.P.XX X.XoXg . . @ 4 f $ . u.V.V.V.V.k.k.! * .X9X-X@X_.V 4 Z.A.A.",
"V.V.V.V.V.V.V.V.V.V.V.V.0 . J Y.( 4 Y j.W X . . d 1.U.`.@XF.V @     . . . . . . .   . * . r B.V.V.V.V.c.& [ qX:X@X#XP.@ ~ V.V.V.",
"V.V.V.V.V.V.V.V.V.V.V.V.9 . . J _.;.# Z p.0 . * 1.3.R.&X@X%X1XXX/ B   . . . . . . 3 J.*X& 1 N.V.V.V.V.u * >XXX) &X@XN 2 m.V.V.V.",
"A.A.A.V.V.V.V.V.V.V.V.V.9 5 5 X A _.;.@ # & . o J F.`.OXOX@X%X<X0X:X|.|.XX} o . o H.<XwX[ 1 N.V.V.V.m.& { 9XS L &XF.$ ~ V.V.V.A.",
"A.A.A.A.V.V.V.V.V.V.V.V.9 7 &.| 5 U _.2.B . .   4 1.F.3.U.@X@X@X%X8X0XuXdXhXM O B =XuXrXK.1 N.V.V.V.u - *X>XV !._.V 2 N.V.V.A.A.",
"A.A.A.A.A.A.A.V.V.V.V.k.0 7 *.*.%.| U 1.F.( 3 @   d 1.3.E.&X@X@X@X,X8X8XrXiXD X F.7XsXeXL.& v.m.V.c.& / 8X2.B _.P.@ ^ A.A.A.A.A.",
"V.V.V.A.A.A.A.A.V.V.V.V.9 7 *.&.&.*.-.I.E.@X_.2./ - d J _ `.@X@X@X%X5X8XeXiXM + !.6XeX:XA . # 1 ~ t.$  X XJ 3.@XN 2 m.V.A.A.A.A.",
"V.V.V.V.A.A.A.A.A.V.V.V.9 7 *.&.&.&.,.`._ N d K. X!..XL.. K &X@X@X@X1X8X0XwX[ 4.;X0X0X.X# * -.#.% & / OXV V _.G.$ p V.V.V.V.A.V.",
"V.V.V.V.V.V.V.V.V.V.V.V.9 7 *.&.,.,.8.@X_.3.( 3 @ /  X X. - Y.@X@X&X4X0X8XrXgXdXeX8X5XS . 8 @.q.c * R.F.o ) @XV 1 N.V.V.V.V.V.V.",
"V.V.V.V.V.V.V.V.V.V.V.V.9 7 *.&.>.,.w.-X-X%X&X!.;.X ) Y.X . - 3 ;.!.4X0X8XrXiXuX5X-X2.@ l %.< 6 6 A OXB > I.G.@ E k.V.V.V.V.V.V.",
"V.V.V.V.V.V.V.V.V.V.V.V.9 7 *.&.*.,.(.9X5X-X@X&X@Xk { T.X . .   . 3 2.1X5XrXiXrX0XH.= o C /.@.% @ Y.3.@ P 3.d 2 d.k.k.k.k.k.k.V.",
"k.k.k.k.k.k.k.k.V.V.V.V.9 7 *.&.&.>.^.;X4X,X&X@X@Xk _ Y.X o = X .   . f 2.T.6X>XJ.& x a 5 6.0...% * @ 4 3.I o # E k.k.k.k.k.k.k.",
"k.k.k.k.V.V.V.V.V.V.V.V.9 F 0.&.&.&.e.=X;X1X;X@X@XP _ Y.. , H l h $ o   . X S d . s H H : 8 $.*...l o & B 4 : $ & E j.k.k.k.k.k.",
"V.V.V.V.V.V.V.V.V.V.V.V.9 K @X(.5.&.&.].,X,X:X@X&X1.) Y.. = o.$.X.n x > o .   . a b H n $ . $ c ..O.v s o   a m  .$ a.k.k.k.V.V.",
"V.V.V.V.V.V.V.V.V.V.V.V.9 K &X@X&X&X).(.&X@X@X@X@XF.P.Y.. = O.&.&.o.H b x s o s b X.H a . - K 4 < l v b x : . : , & v.V.V.V.V.V.",
"V.V.V.V.V.V.V.V.V.V.V.V.9 K #X@X,XqX4X(.(.@X@X@X@XU.E.Y.. > O.&.&.*.%.X.H n n b O.+.a . . I 3.U.;.$ o h x h s = + ~ V.V.V.V.V.V.",
"V.V.V.V.V.V.V.V.V.V.V.V.9 - R.#X-X,X9X(.>.q.].@X@X( R.Y.. : o.&.*.&.&.&.%.X.H O.X.l X . . I Y.@X#X3.- X $ h x $ q B.V.A.A.A.A.A.",
"V.V.V.V.V.g.g.g.g.g.V.V.D . P.#X&X,X9X=Xw.5.>.^.(.N H.Y.. = b H o.&.&.&.&.&.&.o.l . . . . I R.&X@X@XR.* . X @ X x.A.A.A.A.A.A.A.",
"V.V.V.V.g.g.g.g.g.g.g.g.z.; V @X@X@X%X^.e.8.>.=.=., S P.X = x x x v v v v v l % . . A A . 4 1.`.@X&XE.- 1 x.b.b.S.A.A.A.A.A.A.V.",
"g.g.V.g.g.g.A.A.g.g.g.g.g.^ $ G.&X@X@X(.>.,.&.&.&.< V 1.X . X X X . . . . . . . 1 ^ S.^ + . 4 V K _ k . :.A.A.A.A.A.A.A.A.V.V.V.",
"g.g.g.g.g.A.A.A.A.g.g.g.A.Z.t * F.&X@XOX>.&.&.&.&.5 J P . . . & w w w 1 . . . ! C.A.A.t : x $       & r M.V.V.V.V.V.V.V.V.V.V.g.",
"g.A.A.g.g.A.A.A.A.A.A.A.A.A.Z.t * G.#X@Xw.&.&.*. .J P $ X . . 9 c.c.b.w . . 1 a.k.A.A.t $ z h * ^ ^ v.V.V.V.V.V.V.V.V.V.V.V.V.g.",
"A.A.A.A.A.A.A.A.A.A.A.A.A.A.A.Z.t * F.&X(.&.*.| , V $ w y X . 1 ~ y.~ + . . 0 r.r.p.C.A . o o y A.A.A.V.V.V.V.V.V.V.V.A.A.g.g.g.",
"A.A.A.A.A.V.V.V.A.A.A.A.A.V.V.V.M.t * G.(.*. .% * $ q t.^ & . . u u.i + . 2 E W W W x.x.! ^ x.Z.V.V.V.V.V.V.V.V.V.A.A.A.A.A.A.A.",
"A.A.A.A.V.V.V.V.V.A.A.A.V.V.V.k.k.f.0 * -. ., J @ 2 t.r # . . . u W 2 . . @ 1 T W W y.y.u.i.N.V.V.V.V.V.V.V.V.A.A.A.A.A.A.A.A.A.",
"A.A.V.V.V.V.V.V.V.A.A.A.V.V.k.k.k.k.f.0 $ $ k N 0 t.y.u u u u u E W Y Z Z Z Z T W W W y.y.y.c.V.V.V.V.V.V.V.A.A.A.V.V.V.A.A.A.A.",
"V.V.V.V.V.V.V.V.V.V.V.A.V.V.k.k.k.k.k.f.0 . X 0 Q W W W W u.u.W W W W W W u.u.W W W W W y.y.c.V.V.V.V.V.A.A.A.A.V.V.V.V.V.A.A.A.",
"V.V.V.V.V.V.V.V.V.V.V.V.k.k.k.k.k.k.k.k.f.M 0 E W W W W W W W W W W W W y.y.y.y.y.W W W W p.N.V.V.V.V.V.V.V.V.V.V.V.V.V.V.V.V.V.",
"V.V.V.V.V.V.k.k.k.k.k.k.k.k.k.k.V.V.V.k.k.l.f.a.W W W W W W W W W W W W y.y.y.y.y.y.y.u.c.N.V.V.V.V.V.V.V.V.V.V.V.V.V.V.V.V.V.V.",
"V.V.V.V.V.V.V.V.V.k.k.k.k.k.k.V.V.V.V.V.k.k.V.B.M.d.p.p.p.W W W y.y.W W y.y.u.i.i.i.m.N.V.V.V.V.V.V.V.V.V.V.k.k.k.V.V.V.V.V.V.V.",
"V.V.V.V.V.V.V.V.V.V.V.V.k.k.k.V.V.V.V.V.k.V.V.V.V.V.V.j.j.d.s.n.n.n.n.s.s.n.m.V.V.V.V.V.V.V.V.V.V.V.V.V.V.k.k.k.k.k.V.V.V.V.V.V.",
"V.V.V.V.V.V.A.A.V.V.V.V.V.V.V.V.V.V.V.V.V.V.V.V.V.V.V.V.V.V.V.V.V.V.V.V.V.V.V.V.V.V.V.V.V.V.k.k.k.V.V.V.k.k.k.k.k.k.V.V.V.V.V.V.",
"V.V.V.V.V.A.A.A.A.V.V.V.V.A.A.A.A.V.V.V.V.V.V.V.V.V.V.V.V.V.V.V.V.V.V.V.V.V.V.V.V.V.V.V.V.k.k.k.k.k.k.k.k.k.k.k.k.k.V.V.V.V.V.V.",
"V.V.V.A.A.A.A.A.A.A.A.A.A.A.A.A.A.A.A.V.V.V.V.V.V.V.V.k.k.k.k.V.V.V.V.V.V.V.V.V.V.V.V.V.k.k.k.k.k.k.k.k.k.k.k.k.k.k.k.k.k.V.V.V.",
"k.k.A.A.A.A.A.A.A.A.A.A.A.A.A.A.k.k.k.k.V.V.k.k.k.k.k.k.k.k.k.k.k.V.V.k.k.k.k.V.V.V.V.k.k.k.k.k.k.k.k.k.k.k.k.k.k.k.k.k.k.k.k.k."
};
