/* XPM */
static const char *player1_r[] = {
/* columns rows colors chars-per-pixel */
"64 64 229 2 ",
"   c #10172A",
".  c #151C2E",
"X  c #191E2F",
"o  c #1B1E30",
"O  c #0F1529",
"+  c #1A212F",
"@  c #1D2231",
"#  c #1E2932",
"$  c #222334",
"%  c #232B33",
"&  c #2A2B36",
"*  c #2B2439",
"=  c #2C2E38",
"-  c #282737",
";  c #32273C",
":  c #35293C",
">  c #3B2C3A",
",  c #392936",
"<  c #253235",
"1  c #2B3333",
"2  c #2C3B3A",
"3  c #2C3636",
"4  c #33333B",
"5  c #3A363E",
"6  c #343A37",
"7  c #432E39",
"8  c #4C2F3C",
"9  c #44353D",
"0  c #5A343E",
"q  c #53313D",
"w  c #354235",
"e  c #3B4936",
"r  c #32453D",
"t  c #3D4239",
"y  c #3D473B",
"u  c #2F413B",
"i  c #444A3A",
"p  c #4B5B3B",
"a  c #4D533C",
"s  c #53563E",
"d  c #53643C",
"f  c #586B3E",
"g  c #5F723F",
"h  c #4F603C",
"j  c #3A2B42",
"k  c #393A43",
"l  c #452F48",
"z  c #442E47",
"x  c #483547",
"c  c #563546",
"v  c #5A3753",
"b  c #673945",
"n  c #733D45",
"m  c #6A3D5C",
"M  c #653B54",
"N  c #3A484E",
"B  c #464244",
"V  c #494445",
"C  c #4B4A49",
"Z  c #544C4A",
"A  c #58484A",
"S  c #435B46",
"D  c #4D504E",
"F  c #5B544C",
"G  c #434856",
"H  c #575855",
"J  c #644749",
"K  c #7C454B",
"L  c #7C435A",
"P  c #774159",
"I  c #6A5C54",
"U  c #665C52",
"Y  c #775854",
"T  c #644D56",
"R  c #4B674A",
"E  c #506F4D",
"W  c #53724E",
"Q  c #5A7C52",
"!  c #577751",
"~  c #55665C",
"^  c #666743",
"/  c #627640",
"(  c #677C41",
")  c #6A6459",
"_  c #74625A",
"`  c #78695B",
"'  c #76784E",
"]  c #587765",
"[  c #6E6E61",
"{  c #797564",
"}  c #70706D",
"|  c #4D5261",
" . c #88464C",
".. c #95494D",
"X. c #8A4756",
"o. c #944B58",
"O. c #994C55",
"+. c #875653",
"@. c #975C57",
"#. c #A34F53",
"$. c #AC5255",
"%. c #A65056",
"&. c #B55555",
"*. c #B85656",
"=. c #B95C59",
"-. c #B75957",
";. c #97645B",
":. c #83725D",
">. c #BB645D",
",. c #B9665E",
"<. c #A9685E",
"1. c #846D62",
"2. c #8A7363",
"3. c #8A7864",
"4. c #957A6A",
"5. c #967D69",
"6. c #897E71",
"7. c #BE6C61",
"8. c #B77465",
"9. c #A56C60",
"0. c #AB5E60",
"q. c #C37B6A",
"w. c #C27666",
"e. c #5E8254",
"r. c #6D8243",
"t. c #708743",
"y. c #738A44",
"u. c #7C9446",
"i. c #668D59",
"p. c #618656",
"a. c #6B945B",
"s. c #719D5F",
"d. c #739F60",
"f. c #679175",
"g. c #668F74",
"h. c #79A863",
"j. c #77A562",
"k. c #74A15F",
"l. c #8A894D",
"z. c #839D48",
"x. c #999751",
"c. c #93914F",
"v. c #A09D53",
"b. c #87A149",
"n. c #89A44A",
"m. c #8FAB4B",
"M. c #92AE4C",
"N. c #95B24D",
"B. c #99B74E",
"V. c #9BB94E",
"C. c #9EB950",
"Z. c #BAB55A",
"A. c #BFBA5B",
"S. c #B5B158",
"D. c #ADA956",
"F. c #9C836C",
"G. c #98856B",
"H. c #9A9277",
"J. c #8E8B6D",
"K. c #A38D6D",
"L. c #A8956C",
"P. c #A78B71",
"I. c #AC9471",
"U. c #A79A7A",
"Y. c #B49A74",
"T. c #B59977",
"R. c #B6846A",
"E. c #8DAA6A",
"W. c #BCB66C",
"Q. c #BCA37A",
"!. c #BBA077",
"~. c #ADAF74",
"^. c #C5836E",
"/. c #C8856F",
"(. c #CC9777",
"). c #CB9075",
"_. c #C1A47B",
"`. c #CAAC7E",
"'. c #C6A97C",
"]. c #CCAF79",
"[. c #858684",
"{. c #999594",
"}. c #BAA884",
"|. c #AFA986",
" X c #AEACA8",
".X c #A39C82",
"XX c #D3A882",
"oX c #CEB384",
"OX c #D5B583",
"+X c #D9B985",
"@X c #D7B98A",
"#X c #D9BC89",
"$X c #D7B786",
"%X c #CCB38A",
"&X c #DDC591",
"*X c #D9C99A",
"=X c #DBC896",
"-X c #E1CB96",
";X c #E2CB97",
":X c #E5D29C",
">X c #DED1A1",
",X c #E8D5A0",
"<X c #EBDBA5",
"1X c #EDDDAB",
"2X c #E5D7A2",
"3X c #EADAB8",
"4X c #E3CCAA",
"5X c #EEE1AB",
"6X c #E6E0AB",
"7X c #F0E2AC",
"8X c #F1E9AD",
"9X c #EDE1B7",
"0X c #F2E6B8",
"qX c #D9DADD",
"wX c #D2CEC6",
"eX c #E7DDD0",
"rX c #F4EBC3",
"tX c #F4EACA",
"yX c #FAF1CF",
"uX c #F2E9D4",
"iX c #FAF4DB",
"pX c #F8F1D6",
"aX c #EEE3CF",
"sX c #DEDDE1",
"dX c #E1DEE2",
"fX c #FBF7E9",
"gX c #FFFFFE",
"hX c #FCFAF1",
"jX c #E5E0E5",
/* pixels */
"V.V.V.V.V.A.A.A.A.A.A.A.A.A.A.h.h.h.h.h.h.h.h.j.W E E E i.h.h.h.h.h.h.h.h.h.h.h.h.h.h.h.h.h.h.h.h.h.h.h.h.h.h.h.h.h.h.h.h.h.h.h.",
"V.V.V.V.V.V.A.A.A.A.A.A.V.h.h.h.V.V.V.h.h.s.! u > K n $ < r ! s.h.h.h.h.h.h.h.h.f.f.f.f.h.h.h.h.h.h.h.h.h.h.h.h.h.h.h.h.h.V.V.V.",
"V.V.A.A.A.A.A.A.A.A.A.V.V.V.V.V.V.V.V.V.n.w + . , $.@.J J x @ 2 W j.h.h.h.h.h.f.f.f.f.f.f.V.V.V.V.V.V.V.V.f.f.f.f.h.h.h.V.V.V.V.",
"A.A.A.A.A.A.A.A.A.A.A.V.V.V.V.V.V.V.h.a.2 X * n #.7.q./.^.8.;.Y : t Q f.f.f.h.f.f.f.f.f.f.f.f.f.f.f.V.V.f.f.f.f.f.f.f.h.V.V.V.V.",
"A.A.A.A.A.A.A.A.A.A.V.V.V.V.V.V.V.V.n.w @ l #.-.7.7.q.q.>.=.q.^.8.@.5 ~ f.f.f.f.f.f.f.f.f.f.f.f.f.f.f.f.f.A.A.A.f.f.f.f.V.V.V.A.",
"V.V.V.V.V.A.A.A.A.A.V.V.V.V.V.V.V.N.e X ,  .&.&.7.^.^.^.q.q.q.^.^.^.;.9 ] f.A.A.A.A.f.f.f.f.A.A.A.A.f.f.A.A.A.A.A.f.f.f.f.A.A.A.",
"V.V.V.V.V.V.A.A.A.A.A.V.A.A.V.V.V.y.# $ O.&.&.&.7./././.^.q.>.7.^.^.w...4 c.A.A.A.A.A.f.f.A.A.A.A.A.A.A.A.A.A.A.A.A.A.A.A.A.V.V.",
"V.V.V.V.V.V.V.V.A.A.A.A.A.A.A.V.V.d $ v X.%.*.&...;.;.9.^.^.q.>.<.^.^.8.: s Z.A.A.A.A.f.A.A.A.A.A.A.A.A.A.A.A.A.A.A.A.A.A.A.V.V.",
"A.A.V.V.V.V.V.V.V.A.A.A.V.V.V.A.V.d $ M o.&. .8 X X . - J 8.^.^.+.K q.^.+.7 x.A.A.A.A.A.A.A.A.A.A.A.A.A.A.A.A.A.A.A.A.A.A.A.V.A.",
"A.A.A.V.V.V.V.V.V.V.V.V.V.V.V.V.V.d * o.&.$.q * ; ; $ .   9 8./.8.9 Y ^.8.7 ' A.A.A.A.A.A.A.A.A.A.A.A.A.A.A.A.A.A.A.A.A.A.A.A.A.",
"A.A.A.V.V.V.A.A.V.V.V.V.V.V.V.V.V.d * P $.$.X.m m m v $ X   9 <.^.<., +.q.b t V.V.V.A.A.A.A.A.V.V.A.A.A.A.V.V.A.A.A.A.A.A.A.A.A.",
"A.A.A.V.V.A.A.A.A.A.V.V.V.V.V.V.V.r.# l P $.#.P m m m c X X   q 7.w.7 A 0.c w V.V.V.V.A.A.V.V.V.V.V.V.A.V.V.V.V.A.A.A.A.A.A.A.A.",
"A.A.A.A.A.A.A.A.A.A.A.A.A.A.A.A.A.Z.t * M L P m m m v ; % % . : X.,.c ..o.v y B.V.V.V.A.V.V.V.V.V.V.V.V.V.V.V.V.A.A.A.A.A.A.A.A.",
"A.A.A.A.A.A.A.A.A.V.V.V.V.V.V.V.V.V.z.3 o j l l l j o % y.z.3 X  . .z K P ; f V.V.V.V.A.V.V.V.V.V.V.V.V.V.V.V.V.A.A.A.A.A.V.V.V.",
"V.V.V.V.V.V.V.V.V.V.V.V.h.h.h.h.h.h.V.z.w 1 X X X + 3 y.V.N.i X  .K ; ..8 % n.V.V.V.V.V.V.V.V.V.V.V.V.V.V.V.V.V.V.V.V.V.V.V.V.V.",
"V.V.V.V.V.V.V.V.V.V.h.h.h.h.h.h.h.h.h.V.j.s.R R f / m.( f p X X n x c  .$ 6 ( N.V.V.V.V.V.V.V.V.V.V.V.V.V.V.V.V.V.V.V.V.V.V.V.V.",
"V.V.V.V.V.V.V.V.h.h.h.h.h.h.h.h.h.h.h.h.h.h.h.h.h.y.6 4 5 Z X j c X $ > 4 9 $ 6 u.V.V.V.h.h.h.V.V.V.V.V.V.V.V.V.V.V.V.V.C.W.W.V.",
"V.V.V.V.V.V.V.h.h.h.h.h.h.h.h.h.h.h.h.h.h.h.h.h.e.% B T.}.2.j T j # $ &  XeX XG % u.V.h.h.h.h.h.V.V.V.V.V.V.V.V.V.V.V.C.W.OX].V.",
"V.V.V.V.V.h.h.h.h.h.h.V.V.V.V.V.h.h.h.h.h.h.h.e.% . = {.wXeXdXjXsXqXqXqXuXuX{.-   < s.h.V.V.h.h.h.V.V.V.V.V.V.h.h.h.C.W.$X@XL.V.",
"V.V.V.h.h.h.h.h.h.h.V.V.V.V.V.V.V.h.h.h.V.V.N.r X Z x $ F >XyXyXtX3X3X3X,X-XU.J.) @ R V.V.V.V.h.h.h.V.V.V.V.h.h.h.h.~.$XuX{.y h.",
"h.V.V.V.V.V.V.V.V.V.V.V.V.V.V.V.V.h.h.V.V.V.r.+ X ` 4.T.*X1X5X5X1X<X9XrXrXtX0X-XOXZ i V.V.V.V.V.V.V.V.V.V.h.h.h.k.J.$XaXgX} u h.",
"h.h.h.h.V.V.V.V.V.V.V.V.V.V.V.V.V.V.V.V.V.V./ . 5 2.F.`.&X1X5X0XiXiXhXgXgXgXfX3X;XK.3 u.V.h.h.h.h.V.V.V.V.h.h.h.S ) uXgXfX[ r h.",
"V.V.V.V.V.V.V.V.V.V.V.V.V.V.V.V.V.V.V.V.V.m.< @ I 5.T.OXOX<X5X5X0X0X0XrXfXwX X0X7X=XZ S h.h.h.h.h.h.V.V.h.h.h.E.Z  XgXgXrX[ u h.",
"V.V.V.V.V.V.V.V.f.f.f.f.f.V.V.f.f.f.V.V.V.D.% & 4.4.T.OXOX:X<X1X5X5X5X5XyX[.4 oX<X7XG.# a.h.h.h.h.h.h.h.h.h.E.].}.uXgXaX5X[ e V.",
"V.V.V.V.V.V.V.f.f.f.f.f.f.f.f.f.f.f.f.V.A.l.+ $ _ F._.OXOXOX&X1X5X5X5X0XiX[.  :.;XyX.X  S h.h.h.h.h.h.h.h.h.Q K.tXiXfX$X:X[ e V.",
"V.V.V.V.V.f.f.f.A.A.A.A.f.f.f.A.A.f.f.A.A.a X Z 1.P.OXOXOXOX#X-X<X<X0XhXgX{.  5 %X9X|.4 p h.h.V.V.V.h.h.h.d.6 } fXtX4X&X&XU p V.",
"V.V.f.f.f.f.A.A.A.A.A.A.A.Z.Z.A.A.A.A.A.A.a X _ 5.P.OXOXOXOXOXOX+X:X0XpXiX[.  @ T.;XrX6.p V.V.V.V.V.V.h.h.! #  XiX:XOX-X` % b.V.",
"A.f.f.A.A.A.A.A.A.A.A.A.c.t 6 ^ Z.A.A.A.c.$ X I 5._.OXOXOXOXOXOX#X1X5X0XhX[.  . U #X0XH + u.V.V.V.V.V.h.d.3 D 6X5X#XOX!.= S h.h.",
"A.A.A.A.A.A.A.A.A.A.h.h.r X Z $ ^ Z.A.A.l.X X I 4.I.OXOXOX`.`.`.oX2X2X9XqX| . . = ) { k . y.V.V.V.V.V.h.W @ |.8X-XOXOX) & x.A.A.",
"V.V.V.V.V.V.A.A.h.h.h.h.r X 2.3.x S i.h.Q X X $ 5 1.P.T.oX` B 4 4 k k k k . X X .       X / V.V.V.V.h.s.t H 6X:XOX+XT.& F A.A.A.",
"V.V.V.V.V.V.V.V.V.V.V.V.r   $ 5.'.Z # e.a.2 . $ _ 4.T.OXOX#X}.[ - @ O O O   X X X @ D J.@ 1 N.V.V.V.V.r.@ |.*XH.OXOX) # b.V.V.V.",
"V.V.V.V.V.V.V.V.V.V.V.V.e - $ @ 3.`.Z @ r 2 . $ ` 5._.OXOXOX;X,X*X.XH H ) N . X   ` *X3XD 1 N.V.V.V.N.3 D <X) F +XY.= d V.V.V.V.",
"A.A.A.V.V.V.V.V.V.V.V.V.e 0 ..q & 3.'.F $ . X   B 5.P.P.T.OXOX+X-X5X7XrXfXqXk   5 Q.1X8XH.1 N.V.V.V.( # |.>XF K.OX_ % z.V.V.V.A.",
"A.A.A.A.V.V.V.V.V.V.V.V.e 0 *.&...c :.K.3.x o . X F 4.4.T.OXOXOXOX,X5X7XpXfXG . ` 4XfX0XH.1 N.V.V.m.w D 6XU.B `.Y.- d V.V.V.A.A.",
"A.A.A.A.A.A.A.V.V.V.V.h.r 0 *.&.&.&.Y 2.I.'.L.Z 4 @ A 1.K.OXOXOXOX&X1X5X5XuXG + !.1X0X:X{ + w p n.y.+ U.>XI ` OXU % v.A.A.A.A.A.",
"V.V.V.A.A.A.A.A.V.V.V.V.e 0 *.&.&.&.>.(.3.:.:.}.@X3.{ ) $ 3.OXOXOXOX,X5X0XuXG V %X5X7X*X= $ J A % e C OX) Z Y.Y.= d V.V.A.A.A.A.",
"V.V.V.V.A.A.A.A.A.V.V.V.e 0 *.&.=.=.w.OXI.F 5 B C U.>X}.X k `.+XOXOX,X7X5X9XwXeX1X7X7X{   > 8.q.q @ G.I.- U OX_ % b.V.V.V.V.A.V.",
"V.V.V.V.V.V.V.V.V.V.V.V.e 0 *.&.,.7.w.OX+XOXoX5.V X ` I.X X Z ` Y.OX,X7X5XrXiXpX1X:X}.4 >  .8 K c B oXU @ F.!.- d V.V.V.V.V.V.V.",
"V.V.V.V.V.V.V.V.V.V.V.V.e 0 *.&.-.7.(.<X2X#XOX+X'.5 { Y.X X     & U }.7X7XrXiX0X7XQ.5 . A q.J X - K.T.- Z F.Z % i.h.V.V.V.V.V.V.",
"V.V.V.V.V.V.V.V.V.V.V.V.e 0 *.&.&.>.).:X<X=XOXOXOXk { Y.X X o X   . & [ }.*X7X5X%Xk l l c q.7.n o F 5 & 1.1.- < i.h.h.h.h.h.h.V.",
"h.h.h.h.h.h.h.h.V.V.V.V.e A =.&.&.=.q.$X&X-X#XOXOXZ ` I.X * v ; * X .   & k H.[ & * M l * K =.&.n ,   4 _ C $ X 3 i.h.h.h.h.h.h.",
"h.h.h.h.V.V.V.V.V.V.V.V.e U (.w.-.&.>.XX-X2X:XOXOX2.` I.X , o.P M x z o .   X . $ M o.P z o 8 ..&.X.l $ X . l b b 2 a.h.h.h.h.h.",
"V.V.V.V.V.V.V.V.V.V.V.V.e U +XOX`./.7.(.+X+X+XOXOX4.5.I.X ; O.&.o.P m v j $ . * v o.#.M $ @ k - q  .L M l $ $ c b @ p.h.h.h.V.V.",
"V.V.V.V.V.V.V.V.V.V.V.V.e U +XOX&X8X@X(.XXOXOXOXOXP.T.I.X * o.&.*.$.o.P m v x v L #.L j X F 4.` C o ; v M j @ o X p M.V.V.V.V.V.",
"V.V.V.V.V.V.V.V.V.V.V.V.e B '.OX-X:X5X).,.).OXOXOX2.T.I.X : X.&.&.&.&.&.X.m m L $.O.j X X _ P.XX`.U . o : x M ; 1 m.V.V.V.V.V.V.",
"V.V.V.V.V.V.V.V.V.V.V.V.p X L.+X#X:X5XXXw.,.7.(.`.Z P.I.X ; O.$.*.&.&.&.&.#.#.$.X.c X X X _ T.OXOX`.2.$ . o * X / V.V.A.A.A.A.A.",
"V.V.V.V.V.f.f.f.f.f.V.V.] @ _ OXOX+X-X(.q.w.>.>.7.5 I K.X * m P O.&.&.&.&.&.&.#.c . X X X C P.OXOX+X`.4 + p ^ ^ v.A.A.A.A.A.A.A.",
"V.V.V.V.f.f.f.f.f.f.f.f.g.N = Q.OXOXOX^.,.7.=.-.&., Z G.X * v v v M M M M M c * X X s ' + X Z 2.F.Y.) o ^ A.A.A.A.A.A.A.A.A.A.V.",
"f.f.V.f.f.f.A.A.f.f.f.f.f.x.1 B _.$XOX`.=.&.&.&.&., Z ` X X X X X X X X X X X X 6 ' S.s * j o X o @ X 6 v.A.A.A.A.A.A.A.A.V.V.V.",
"f.f.f.f.f.A.A.A.A.f.f.f.A.A.x.1 V Q.OXOX7.&.&.*.#.A _ 5 . X X % i i i 1 . . X ^ D.A.A.a * M j + w w / n.V.V.V.V.V.V.V.V.V.V.V.f.",
"f.A.A.f.f.A.A.A.A.A.A.A.A.A.A.x.1 B _.+X(.&.*.#.8 I 5 + X . X e z.z.c.i X . 1 i.h.Z.A.s X ; * t Z.A.V.V.V.V.V.V.V.V.V.V.V.V.V.f.",
"A.A.A.A.A.A.A.A.A.A.A.A.A.A.A.A.x.1 V _.(.*.#.> 4 4 % ^ s X X 1 ( y./ + X . r e.e.p.D.c.a i i c.A.A.A.V.V.V.V.V.V.V.V.A.A.f.f.f.",
"A.A.A.A.A.V.V.V.A.A.A.A.A.V.V.V.V.x.1 V R.#.8 B @ % g y.' % X X d y.g + X 3 W Q Q Q l.l.x.S.A.A.V.V.V.V.V.V.V.V.V.A.A.A.A.A.A.A.",
"A.A.A.A.V.V.V.V.V.A.A.A.V.V.V.h.h.h.p.% 7 7 x I % R y.p # X X X d Q 2 X X @ < E Q Q y.t.t.y.M.V.V.V.V.V.V.V.V.A.A.A.A.A.A.A.A.A.",
"A.A.V.V.V.V.V.V.V.A.A.A.V.V.h.h.h.h.h.p.% . - 3 R y.t.f d d d d W Q R S S S S E Q Q Q y.y.t.z.V.V.V.V.V.V.V.A.A.A.V.V.V.A.A.A.A.",
"V.V.V.V.V.V.V.V.V.V.V.A.V.V.h.h.h.h.h.h.p.% # R Q Q Q Q Q y.y.Q Q Q Q Q Q y.y.Q Q Q Q Q y.t.z.V.V.V.V.V.A.A.A.A.V.V.V.V.V.A.A.A.",
"V.V.V.V.V.V.V.V.V.V.V.V.h.h.h.h.h.h.h.h.h.i.W Q Q Q Q Q Q Q Q Q Q Q Q Q y.y.y.y.y.Q Q Q Q p.N.V.V.V.V.V.V.V.V.V.V.V.V.V.V.V.V.V.",
"V.V.V.V.V.V.h.h.h.h.h.h.h.h.h.h.V.V.V.h.h.h.d.i.Q Q Q Q Q Q Q Q Q Q Q Q y.y.t.t.t.t.y.y.z.N.V.V.V.V.V.V.V.V.V.V.V.V.V.V.V.V.V.V.",
"V.V.V.V.V.V.V.V.V.h.h.h.h.h.h.V.V.V.V.V.h.h.V.B.M.s.p.p.p.Q Q Q t.t.Q Q t.t.y.u.u.u.m.M.V.V.V.V.V.V.V.V.V.V.h.h.h.V.V.V.V.V.V.V.",
"V.V.V.V.V.V.V.V.V.V.V.V.h.h.h.V.V.V.V.V.h.V.V.V.V.V.V.h.h.a.a.b.b.b.b.a.a.b.n.V.V.V.V.V.V.V.V.V.V.V.V.V.V.h.h.h.h.h.V.V.V.V.V.V.",
"V.V.V.V.V.V.A.A.V.V.V.V.V.V.V.V.V.V.V.V.V.V.V.V.V.V.V.V.V.V.V.V.V.V.V.V.V.V.V.V.V.V.V.V.V.V.h.h.h.V.V.V.h.h.h.h.h.h.V.V.V.V.V.V.",
"V.V.V.V.V.A.A.A.A.V.V.V.V.A.A.A.A.V.V.V.V.V.V.V.V.V.V.V.V.V.V.V.V.V.V.V.V.V.V.V.V.V.V.V.V.h.h.h.h.h.h.h.h.h.h.h.h.h.V.V.V.V.V.V.",
"V.V.V.A.A.A.A.A.A.A.A.A.A.A.A.A.A.A.A.V.V.V.V.V.V.V.V.h.h.h.h.V.V.V.V.V.V.V.V.V.V.V.V.V.h.h.h.h.h.h.h.h.h.h.h.h.h.h.h.h.h.V.V.V.",
"h.h.A.A.A.A.A.A.A.A.A.A.A.A.A.A.h.h.h.h.V.V.h.h.h.h.h.h.h.h.h.h.h.V.V.h.h.h.h.V.V.V.V.h.h.h.h.h.h.h.h.h.h.h.h.h.h.h.h.h.h.h.h.h."
};
