/* XPM */
static char *left[] = {
/* columns rows colors chars-per-pixel */
"64 64 227 2 ",
"   c #0E162A",
".  c #0E182C",
"X  c #10172B",
"o  c #151B2D",
"O  c #191D2F",
"+  c #1B1E31",
"@  c #211F31",
"#  c #1C202E",
"$  c #1D2131",
"%  c #232334",
"&  c #2B2434",
"*  c #252835",
"=  c #2A2A37",
"-  c #272338",
";  c #2C253A",
":  c #262B3B",
">  c #2C2D39",
",  c #372937",
"<  c #32273E",
"1  c #34293C",
"2  c #2E303A",
"3  c #34343C",
"4  c #3B353E",
"5  c #482E3B",
"6  c #4C303C",
"7  c #51313C",
"8  c #5A343F",
"9  c #3B2B42",
"0  c #2C3242",
"q  c #3C3B42",
"w  c #393C44",
"e  c #422D46",
"r  c #433E43",
"t  c #493844",
"y  c #4B314B",
"u  c #593841",
"i  c #53344D",
"p  c #4C3E53",
"a  c #543550",
"s  c #593752",
"d  c #5D3854",
"f  c #603640",
"g  c #683B47",
"h  c #713D44",
"j  c #763E48",
"k  c #633A56",
"l  c #693C52",
"z  c #653C59",
"x  c #6A3D5B",
"c  c #444142",
"v  c #4A4446",
"b  c #4B4849",
"n  c #564347",
"m  c #554C4B",
"M  c #594E4E",
"N  c #4F504E",
"B  c #5C544D",
"V  c #4E515C",
"C  c #585653",
"Z  c #644649",
"A  c #7C444A",
"S  c #7B4252",
"D  c #74405B",
"F  c #7C435A",
"G  c #625452",
"H  c #635357",
"J  c #635A51",
"K  c #695D54",
"L  c #605F59",
"P  c #785B56",
"I  c #6F6355",
"U  c #67655C",
"Y  c #75635A",
"T  c #756659",
"R  c #7C6C5C",
"E  c #7F705D",
"W  c #565A68",
"Q  c #7A516C",
"!  c #716D62",
"~  c #71736A",
"^  c #646872",
"/  c #824248",
"(  c #8A464B",
")  c #914A4D",
"_  c #9C4B4E",
"`  c #85504F",
"'  c #894654",
"]  c #824559",
"[  c #8E4858",
"{  c #914952",
"}  c #9C4D57",
"|  c #944A58",
" . c #9A4D58",
".. c #8D5754",
"X. c #965855",
"o. c #A24F55",
"O. c #AC5255",
"+. c #A75758",
"@. c #B55555",
"#. c #B95656",
"$. c #B65858",
"%. c #B85C59",
"&. c #94665C",
"*. c #82725E",
"=. c #A7675E",
"-. c #BB635C",
";. c #BF685F",
":. c #836D62",
">. c #8A7763",
",. c #907766",
"<. c #917668",
"1. c #957A6A",
"2. c #9A7D6C",
"3. c #A16E61",
"4. c #B56C62",
"5. c #BE6C62",
"6. c #A87264",
"7. c #B97968",
"8. c #BC7D6A",
"9. c #C16D62",
"0. c #C07466",
"q. c #C17866",
"w. c #C17768",
"e. c #C47B6A",
"r. c #679175",
"t. c #79A863",
"y. c #9BB94E",
"u. c #BFBA5B",
"i. c #88826C",
"p. c #9B856A",
"a. c #9A896C",
"s. c #8A8577",
"d. c #9A957A",
"f. c #A38C6D",
"g. c #BD896D",
"h. c #A8916F",
"j. c #A48770",
"k. c #A49473",
"l. c #AC9372",
"z. c #A09B7D",
"x. c #B29575",
"c. c #B49A75",
"v. c #B99E77",
"b. c #BC9D79",
"n. c #BCA379",
"m. c #C6836E",
"M. c #C8856F",
"N. c #C98A6E",
"B. c #C88870",
"V. c #CC9877",
"C. c #C3A57B",
"Z. c #CFA17A",
"A. c #C6A97C",
"S. c #CAAC7E",
"D. c #D2A97D",
"F. c #8F8E90",
"G. c #A69886",
"H. c #AAA587",
"J. c #B6AA86",
"K. c #ACA994",
"L. c #ADAAA9",
"P. c #B1B0B2",
"I. c #C2AC82",
"U. c #CDAE80",
"Y. c #D3AD80",
"T. c #CBB187",
"R. c #D5B583",
"E. c #D8B784",
"W. c #D7B986",
"Q. c #DAB985",
"!. c #D7BA88",
"~. c #DABD8A",
"^. c #C8BC93",
"/. c #DABE93",
"(. c #DCC28E",
"). c #CBC397",
"_. c #DDC593",
"`. c #D9C697",
"'. c #D5CA9B",
"]. c #DED49F",
"[. c #E2C691",
"{. c #E2CB96",
"}. c #E4CE9B",
"|. c #E5D39D",
" X c #E9D49D",
".X c #D9CCAD",
"XX c #DFD6A3",
"oX c #E1CBA3",
"OX c #E3D4A2",
"+X c #EAD6A1",
"@X c #E6DCA4",
"#X c #EBDBA5",
"$X c #E6D2AA",
"%X c #EDDFA9",
"&X c #E4CFB0",
"*X c #E9D9B7",
"=X c #EEE1AA",
"-X c #EEE6AC",
";X c #F1E3AC",
":X c #F1EAAE",
">X c #EEE3B1",
",X c #F2E5B3",
"<X c #F3E9BA",
"1X c #F3E9BD",
"2X c #CECECD",
"3X c #D1CAC0",
"4X c #DADADA",
"5X c #E5DCC5",
"6X c #EFE2C9",
"7X c #F4EAC3",
"8X c #F5EBC4",
"9X c #F6EDCC",
"0X c #EBE2D6",
"qX c #F6ECD6",
"wX c #F9F2D5",
"eX c #F7F3DA",
"rX c #F9F4DD",
"tX c #DFE0E2",
"yX c #E9E8E6",
"uX c #ECEDEE",
"iX c #F2ECE5",
"pX c #FAF7EB",
"aX c #EDEDF0",
"sX c #F3EFF3",
"dX c #F5F4F1",
"fX c #FDFBF3",
"gX c #FFFEFC",
/* pixels */
"y.y.y.y.y.u.u.u.u.u.u.u.u.u.u.t.t.t.t.t.t.t.t.t.t.t.t.t.t.t.t.t.t.t.t.t.t.t.t.t.t.t.t.O O 5 6 7 & o t.t.t.t.t.t.t.t.t.t.t.t.t.t.",
"y.y.y.y.y.y.u.u.u.u.u.u.y.t.t.t.y.y.y.t.t.t.t.t.t.t.t.t.t.t.t.t.t.t.t.t.t.t.t.t.X O $ $ $ 8 @.) & o O O t.t.t.t.t.t.t.t.t.y.y.y.",
"y.y.u.u.u.u.u.u.u.u.u.y.y.y.y.y.y.y.y.y.y.y.y.t.t.t.t.t.t.t.t.t.t.t.t.t.t.t.X = 4 t 6.6.6.6.w.$.8 , o X O r.r.r.r.t.t.t.y.y.y.y.",
"u.u.u.u.u.u.u.u.u.u.u.y.y.y.y.y.y.y.t.t.t.t.t.t.t.t.t.t.t.t.t.t.t.t.t.r.% f Z 3.m.5.9.w.M.m.5.-.@.O.h 6 o o O r.r.r.r.t.y.y.y.y.",
"u.u.u.u.u.u.u.u.u.u.y.y.y.y.y.y.y.y.y.y.t.t.t.t.t.t.t.t.t.t.t.t.t.t.r.> &.w.e.M.m.0.$.-.e.m.w.w.w.%.#.} i % o o r.r.r.r.y.y.y.u.",
"y.y.y.y.y.u.u.u.u.u.y.y.y.y.y.y.y.y.y.y.y.y.t.t.t.t.t.t.t.t.t.t.t., 8 X.e.M.m.M.0.0.e.m.m.m.m.m.;.@.@.#.( 7 @ o O r.r.r.r.u.u.u.",
"y.y.y.y.y.y.u.u.u.u.u.y.u.u.y.y.y.y.y.y.y.y.y.y.y.y.t.t.t.t.t.t.o & ) 5.m.m.M.5.%.0.m.m.m.M.B.B.-.#.@.@.@.@., + o u.u.u.u.u.y.y.",
"y.y.y.y.y.y.y.y.u.u.u.u.u.u.u.y.y.y.y.y.y.y.y.y.y.y.t.t.t.t.t.r.X t 8.m.m.7.=.-.w.m.m.B.3.&.&...( O.%.#.o.] k 9 O u.u.u.u.u.y.y.",
"u.u.y.y.y.y.y.y.y.u.u.u.y.y.y.u.y.y.y.y.y.y.y.y.y.y.y.u.u.u.u.+ f X.m.m.-.Z X.m.m.m.=.Z > o o o o 5 g O.#.} x 9 o u.u.u.u.u.y.u.",
"u.u.u.y.y.y.y.y.y.y.y.y.y.y.y.y.y.y.y.y.y.y.y.y.y.y.u.u.y.y.u.O Z e.M.6.4 n m.m.m.&.> . o o - - % % & h #.O.o.d O u.u.u.u.u.u.u.",
"u.u.u.y.y.y.u.u.y.y.y.y.y.y.y.y.y.y.y.y.y.y.y.y.y.y.u.y.y.y.O @ +.M.&., u e.m.w.P $ o O o 9 z z x x x  .@.@.| s O u.u.u.u.u.u.u.",
"u.u.u.y.y.u.u.u.u.u.y.y.y.y.y.y.y.y.y.y.y.y.y.y.y.y.y.y.y.y.o $ o.7.Z O +.m.0.h O o o o 9 x x x x x | O.o.] x ; X u.u.u.u.u.u.u.",
"u.u.u.u.u.u.u.u.u.u.u.u.u.u.u.u.u.u.u.y.y.y.y.y.y.y.y.y.y.y.+ ; l +.` & =.4.o.5 o O O o 9 z x x x x x o. .F y o O u.u.u.u.u.u.u.",
"u.u.u.u.u.u.u.u.u.y.y.y.y.y.y.y.y.y.y.y.y.y.y.y.y.y.y.y.y.y.o 9 x  .} i S O.l @ o o y.O O ; e z k k z z y 1 + o u.u.u.u.u.y.y.y.",
"y.y.y.y.y.y.y.y.y.y.y.y.t.t.t.t.t.t.y.y.y.y.y.y.y.y.y.y.y.y.y.o - S A % ; @.h X o y.y.y.O O O $ @ @ @ @ + X O y.y.y.y.y.y.y.y.y.",
"y.y.y.y.y.y.y.y.y.y.t.t.t.t.t.t.t.t.t.y.t.t.t.t.y.y.y.y.y.y.u.u.o 6 #.g y } h X O y.y.y.y.y.X O + o o o y.y.y.y.y.y.y.y.y.y.y.y.",
"y.y.y.y.y.y.y.y.t.t.t.t.t.t.t.t.t.t.t.t.t.t.t.t.t.y.y.y.u.u.o X X O j i % y h O o $ - o X t.t.y.y.y.y.y.y.y.y.y.y.y.y.y.y.y.y.y.",
"R.R.y.y.y.y.y.t.t.t.t.t.t.t.t.t.t.t.t.t.t.t.t.t.t.u.u.u.o O o M K c ; % o @ a y O > Y t v $ O t.y.y.y.y.y.y.y.y.y.y.y.y.y.y.y.y.",
"E.R.R.y.y.t.t.t.t.t.t.y.y.y.y.y.t.t.t.t.t.t.t.t.t.t.t.o X W P.0XrXL.: 0 > 0 p Q t H G.T.T.>.O O t.y.y.y.y.y.y.t.t.t.y.y.y.y.y.y.",
"f._./.R.t.t.t.t.t.t.y.y.y.y.y.y.y.t.t.t.y.y.y.t.t.t.O O X $ ! 5XqXqXaXaXaXuXuXsXaXaX0X3XP.r o o O t.y.y.y.y.t.t.t.t.t.y.y.y.t.t.",
"$ G.iX`.R.y.y.y.y.y.y.y.y.y.y.y.y.t.t.y.y.y.y.y.y.y.o > *.i.d./.}.oX*X&X*X*XwX9XqX8XI.r + - G r o + y.y.y.t.t.t.t.t.t.t.t.t.t.t.",
". ^ gXfXoXR.c.y.y.y.y.y.y.y.y.y.y.y.y.y.y.y.y.y.y.O + h.Q.[.%X<X7X<X,X*X+X+X=X=X%X=X$X^.b.<.2.G . o O y.y.t.t.t.t.t.t.t.t.t.t.t.",
". U rXgXgX&X*.  y.y.y.y.y.y.y.y.y.y.y.y.y.y.y.r.r.o B R.{.$X9XgXgXgXgXgXeXqXqX<X=X=X#X(.R.j.1.:.> o o y.t.t.t.t.y.y.y.t.t.t.t.t.",
"  U <XdXgXgXK.O a.r.r.r.r.y.y.r.r.r.y.y.y.u.u.u.u.* c. X;X9XyXtXdXfXqX7X1X7X7X,X=X;X|.R.R.I.2.2.M o o o t.t.t.y.y.y.y.y.y.y.y.y.",
"  U -X6XgXgXeXa.n.r.r.r.r.r.r.r.r.r.r.y.u.u.u.u.X E +X;X%X{.J 0 6X7X=X=X=X=X%X;X=X;X|.R.R.Y.2.1.1.3 o o t.t.t.y.y.y.y.y.y.y.y.y.",
"  U -X(.&XgXeX6X/.n.u.u.r.r.r.u.u.r.r.u.u.u.u.O X i.,X=X[.a.= : 5X7X=X=X=X=X%X;X|.(.~.R.R.U.p.1.<.2 o o t.t.y.y.y.y.y.y.y.y.y.y.",
". U |.(.!.iXeXrX.X4 O u.u.u.u.u.u.u.u.u.u.u.u.o   s.wX6XU.B . 2 yXfXeX,X%X;X;X+X}.E.R.R.R.R.C.2.K q # o t.t.t.t.t.t.t.t.t.y.y.y.",
"X w k.|.(.(.>XrXsX0 O u.u.u.u.u.u.u.u.u.u.u.u.2 R T.;X(.a.o o : uXgXgX7X#X{.{.~.R.R.R.R.R.R.A.1.<.<.% O O t.t.t.t.t.t.t.t.t.t.t.",
"u.o * J.(.D.[.:XpXH.o o t.u.u.u.u.u.u.u.u.u.t.O s.rXoXR.*.X o : *X9X8X=X;X}.R.R.R.R.R.R.R.R.S.2.1.<.- o + t.t.t.u.u.u.u.u.u.u.u.",
"y.y.O B S.W.S.|.:XXXL o t.t.t.u.u.t.t.t.t.t.O . U ,X_.v.$ O O : uXfX7X-X;X+XQ.R.R.R.R.R.R.R.Q.b.1.<.- o o u.u.u.u.u.u.u.o O o o ",
"y.y.O O h.W.W.(.=X:XH.$ O t.t.t.t.t.t.t.t.t.O o 2 N b c O O o O ^ yX.X'.'.).n.n.n.v.C.E.Y.S.C.2.:.! % o o y.y.y.y.y.. X m K o o ",
"y.y.y.O 4 S.S.Q.W.-X:X~ . y.y.y.t.t.t.t.t.t.O o X . X o O O o o X : * * * % % @ * B ,.E.b.l.j.Y 3 # O O o y.y.y.y.o c I n.M o o ",
"u.u.u.O # R E.R.S.i.=X).w . y.y.y.y.y.y.t.o o 0 G.B $ O o o o o X X X X o % $ ! H.(.Q.R.R.S.2.2.:.= o o o y.y.o O B S.C.v X o # ",
"u.u.u.u.. 3 n.E.S.$ U :Xi.$ O y.t.t.t.t.t.O O T 8X.Xc.= o o o o V N N N U ).'.OX X(.R.E.E.R.j.1.:.> o o O o O O T R.l.3 X & % o ",
"u.u.u.u.u.o J Q.R.I N ].-Xw o t.t.t.t.t.t.O : XX-X+X!.R + o o F.dXwX<X=X=X#X}.~.Q.E.S.c.c.x.l.1.v o o o X O * >.E.p.= @ f ) 7 X ",
"y.y.y.u.u.o * a.(.c.3 H.-XJ.# O y.y.y.y.y.o = XX1XpX&XC.0 o o 4XfXpX>X=X=X|.R.R.D.Q.S.l.1.1.1.G % o X + > R h.c.>.4 A _ #.#.7 o ",
"y.y.y.y.u.u.o B A.S.b B '.=XC O y.y.y.y.y.O = `.+X9XqX(.p.o + 2X,X;X=X=X#XE.R.R.(.S.Q.v.,.,.b o o + B *.x.f.1.M A @.@.#.#.#.7 X ",
"y.y.y.y.y.y.O o p.S.p.B T '.l.$ y.O O * & $ O I #X=X=X Xk.+ X 2XrX=X=X%X_.R.R.R.S.D.f.c b N : B f.k.C.A.n.c.v.4.=.@.@.@.#.#.7 o ",
"y.y.y.y.y.y.y.o 2 S.S.T X >.R.R X O u 7.q.t X 0 ^.;X=X#X`.G.^ '.,X;X;X%X!.R.R.R.Q.n.$ . d.=X].n.k.d.3 $ c I n.V.#.@.@.@.@.#.7 . ",
"y.y.y.y.y.y.y.o # R D.a.= * S.v.c O +.7...Z = X B +X;X#X8XgXgXeX;X=X;X%X~.R.R.U.A.B o . d.(.~ b O % E >.l.W.R.Z.-.5.5.%.@.$.7 o ",
"t.t.t.t.t.t.t.t.o > x.x.m + B Q.*.% A & & ) =.$ + T !.{.=X7X9X9X;X=X=X;X!.l.T 2 2 o o X p.S.# * i.A.S.(.~.(.(.U.-.;.-.@.@.#.6 X ",
"t.t.t.t.y.y.y.y.y.X r 1.1.- = a.D.c X & ) m.g.% - - B OX;X1XqX9X,X=X%Xz.I $ O X o O O o a.'.$ J D.D.Q.D.(.#X-X|.q.;.%.@.@.#.7 X ",
"y.y.y.y.y.y.y.y.+ X + K 2.Y + * c $ , _ 9.e.X.@ s z @ C ^.XX;X'.J.a.v % X o o o $ % o X p.U.O J (.D.E.(.|.@X=XV.m.-.@.@.@.#.7 X ",
"y.y.y.y.y.y.y.O + @ @ q K M + X , 8 O.#.#.( & , y x e O $ C d.w + + X o o + 9 9 s s o o p.C.= :.Q.Q.Q.`.`.~.`.N.5.@.@.@.@.;.n o ",
"y.y.y.y.y.y.X u j d y o o + - i j @.O.( 5 % O d F  .F y + X X o o O + 9 i a x D | ] O X a.C.q x.Q.S.(.-X|.{.`.;.$.@.%.9.V.D.B o ",
"y.y.y.y.y.y.O 8 k y O @ 9 a z ] ' A & * 4 % O < x } O.x a % o o ; e k x x F | O.@.l + X p.S.M l.Q.E.E.Q.E.W.E.;.;.N.D.D.S.Q.B X ",
"y.y.y.y.y.r.O o o + + - a z d 9 @ $ M P 2.Y $ $ y F O.| x s y y z x x ] } @.@.#.O.d O o p.S.p.x.E.Q.S.Q.E.R.S.V.{.:X(.S.Q.D.B X ",
"y.y.y.y.r.r.r.o o y d i a ; @ X > a.U.C.2.1.2 X + e F @.} D x x x [ O.@.#.@.@.@.| l O X p.R.<.j.E.Q.Q.S.Z.q.5.|.-X X|.(.Q.A.v o ",
"r.r.y.r.r.r.u.u.O + e ; o O % B l.E.R.E.c.1.> o o o u ' } o.[ ' | @.@.@.@.@.@.@.@.S O o p.R.Y J Q.D.V.g.-.;.7.=X@X{.(.D.Q.*.o o ",
"r.r.r.r.r.u.u.u.o O X O + X r R.E.R.E.R.x.>.= o + o o < [ @.#.%.#.#.%.@.#.@.O.| F s O X p.C.3 G N.5.;.#.q.N.N. X|.(.(.S.Q.I o r.",
"r.u.u.r.r.u.u.u.u.u.u.u.u.o 2 l.!.E.C.x.:.3 o o O o o o ; g {  . . . . . .[ x x x s O o p.2.+ 8 #.@.;.%.g.9.9.D.W.S.(.Q.f.# o r.",
"u.u.u.u.u.u.u.u.u.u.u.u.u.O X 3 B M r c ; + + o t.u.o o o X - 1 < < ; 9 ; 9 1 1 9 ; o o R ,.o 8 #.@.@.%.;.-.N.S.S.Q.D.A.b O r.r.",
"u.u.u.u.u.y.y.y.u.u.u.u.u.y.O X X X o X $ y s + o t.y.y.O o X O o o o o O X O X X X O o M <.> u #.#.@.@.@.#.D.E.R.E.l.3 . u.u.u.",
"u.u.u.u.y.y.y.y.y.u.u.u.y.y.y.t.t.t.o O 9 x e + O t.y.y.y.y.O o o o O t.t.t.t.O O O o o + b :.n ) #.@.@.@.q.S.E.E.p.> o u.u.u.u.",
"u.u.y.y.y.y.y.y.y.u.u.u.y.y.t.t.t.t.t.o % - O X o y.y.y.y.y.O o X O o t.t.t.t.o o O O o o o r B = / #.@.@.V.D.E.*.$ o y.u.u.u.u.",
"y.y.y.y.y.y.y.y.y.y.y.u.y.y.t.t.t.t.t.t.o o O t.t.t.t.t.t.y.y.O O o O t.t.y.y.O o o O t.y.o o 3 3 # h @.@.N.E.I # o y.y.y.u.u.u.",
"y.y.y.y.y.y.y.y.y.y.y.y.t.t.t.t.t.t.t.t.t.t.t.t.t.t.t.t.t.t.t.t.O O X t.y.y.y.O O o o t.t.t.y.O o M 3 u O.g.B O O y.y.y.y.y.y.y.",
"y.y.y.y.y.y.t.t.t.t.t.t.t.t.t.t.y.y.y.t.t.t.t.t.t.t.t.t.t.t.O O o o O O y.y.y.O o O O X O y.y.y.O B Y O 6 5 o O y.y.y.y.y.y.y.y.",
"y.y.y.y.y.y.y.y.y.t.t.t.t.t.t.y.y.y.y.y.t.t.y.y.y.t.t.t.t.t.t.t.y.y.t.t.y.y.y.y.y.y.y.y.y.y.y.y.y.O 4 o o O t.t.t.y.y.y.y.y.y.y.",
"y.y.y.y.y.y.y.y.y.y.y.y.t.t.t.y.y.y.y.y.t.y.y.y.y.y.y.t.t.t.t.y.y.y.y.t.t.y.y.y.y.y.y.y.y.y.y.y.y.y.o o O t.t.t.t.t.y.y.y.y.y.y.",
"y.y.y.y.y.y.u.u.y.y.y.y.y.y.y.y.y.y.y.y.y.y.y.y.y.y.y.y.y.y.y.y.y.y.y.y.y.y.y.y.y.y.y.y.y.y.t.t.t.y.y.y.t.t.t.t.t.t.y.y.y.y.y.y.",
"y.y.y.y.y.u.u.u.u.y.y.y.y.u.u.u.u.y.y.y.y.y.y.y.y.y.y.y.y.y.y.y.y.y.y.y.y.y.y.y.y.y.y.y.y.t.t.t.t.t.t.t.t.t.t.t.t.t.y.y.y.y.y.y.",
"y.y.y.u.u.u.u.u.u.u.u.u.u.u.u.u.u.u.u.y.y.y.y.y.y.y.y.t.t.t.t.y.y.y.y.y.y.y.y.y.y.y.y.y.t.t.t.t.t.t.t.t.t.t.t.t.t.t.t.t.t.y.y.y.",
"t.t.u.u.u.u.u.u.u.u.u.u.u.u.u.u.t.t.t.t.y.y.t.t.t.t.t.t.t.t.t.t.t.y.y.t.t.t.t.y.y.y.y.t.t.t.t.t.t.t.t.t.t.t.t.t.t.t.t.t.t.t.t.t."
};
