/* XPM */
static const char *player3_l[] = {
/* columns rows colors chars-per-pixel */
"64 64 230 2 ",
"   c #0F162A",
".  c #10172A",
"X  c #151B2D",
"o  c #181D2F",
"O  c #1C1F31",
"+  c #211F31",
"@  c #1A212F",
"#  c #17202E",
"$  c #1D2331",
"%  c #1E2933",
"&  c #232334",
"*  c #242A33",
"=  c #2B2B36",
"-  c #2A2439",
";  c #2C2C38",
":  c #2A2636",
">  c #352B3B",
",  c #352838",
"<  c #263235",
"1  c #2C333B",
"2  c #2B3636",
"3  c #33343C",
"4  c #3A333C",
"5  c #3B3A3E",
"6  c #343936",
"7  c #20292F",
"8  c #442D3A",
"9  c #54323E",
"0  c #4E383F",
"q  c #354235",
"w  c #3A4639",
"e  c #464A3C",
"r  c #4C583B",
"t  c #54553E",
"y  c #55673D",
"u  c #5E723F",
"i  c #372940",
"p  c #3B2A42",
"a  c #3D3B42",
"s  c #353743",
"d  c #2A3040",
"f  c #462F46",
"g  c #4C314B",
"h  c #473A44",
"j  c #573648",
"k  c #5E3955",
"l  c #583652",
"z  c #683A44",
"x  c #753E48",
"c  c #603955",
"v  c #653C59",
"b  c #6A3D5B",
"n  c #6C3D53",
"m  c #713E52",
"M  c #3A4C46",
"N  c #4A4446",
"B  c #454347",
"V  c #544B4B",
"C  c #584B4C",
"Z  c #435C46",
"A  c #5C544D",
"S  c #5B5A45",
"D  c #454957",
"F  c #5D5150",
"G  c #575955",
"H  c #684749",
"J  c #77444A",
"K  c #7B435A",
"L  c #784156",
"P  c #665A52",
"I  c #765C56",
"U  c #69544F",
"Y  c #4D6B4B",
"T  c #4A664A",
"R  c #506E4C",
"E  c #53734F",
"W  c #4A685C",
"Q  c #5A7C52",
"!  c #557750",
"~  c #636442",
"^  c #647940",
"/  c #687E42",
"(  c #637740",
")  c #7A7A49",
"_  c #727246",
"`  c #6D6155",
"'  c #68665D",
"]  c #7D6E5C",
"[  c #75665A",
"{  c #617B53",
"}  c #567866",
"|  c #767366",
" . c #6B4862",
".. c #86454B",
"X. c #974A4D",
"o. c #844556",
"O. c #8D4856",
"+. c #894758",
"@. c #944B59",
"#. c #974C54",
"$. c #8A5653",
"%. c #A34E52",
"&. c #A55156",
"*. c #AC5153",
"=. c #A85C59",
"-. c #B65555",
";. c #B85655",
":. c #B85C59",
">. c #B75A58",
",. c #9C645C",
"<. c #82725D",
"1. c #807F4A",
"2. c #BB635D",
"3. c #B7675E",
"4. c #A4665D",
"5. c #846D62",
"6. c #8C7366",
"7. c #887761",
"8. c #957B6A",
"9. c #8B7A71",
"0. c #A86C60",
"q. c #BD6B61",
"w. c #A97364",
"e. c #BB7968",
"r. c #A85D60",
"t. c #C17566",
"y. c #C37B6A",
"u. c #C47968",
"i. c #5E8154",
"p. c #6D8343",
"a. c #708743",
"s. c #728944",
"d. c #7B9446",
"f. c #638957",
"g. c #6A935B",
"h. c #6E995D",
"j. c #719D5F",
"k. c #5F856E",
"l. c #679175",
"z. c #678E73",
"x. c #74A060",
"c. c #78A763",
"v. c #79A863",
"b. c #829C48",
"n. c #82954B",
"m. c #88874C",
"M. c #A19E53",
"N. c #87A149",
"B. c #8CA74A",
"V. c #95B24D",
"C. c #99B74E",
"Z. c #9BB94E",
"A. c #93AA4F",
"S. c #A8A555",
"D. c #BFBA5B",
"F. c #B6B159",
"G. c #ABB357",
"H. c #9D826C",
"J. c #98876B",
"K. c #988D73",
"L. c #969479",
"P. c #A28B6D",
"I. c #A7936D",
"U. c #A78A71",
"Y. c #AB9473",
"T. c #B39675",
"R. c #B39A74",
"E. c #B89D79",
"W. c #B1B862",
"Q. c #B7A17B",
"!. c #9AAD6E",
"~. c #C5836E",
"^. c #C8846F",
"/. c #CC9575",
"(. c #C2A57B",
"). c #CBAC7E",
"_. c #C8A77C",
"`. c #D1A87D",
"'. c #D1B57F",
"]. c #848481",
"[. c #8F8E8F",
"{. c #A39D83",
"}. c #ADA885",
"|. c #B5AA86",
" X c #B9B28C",
".X c #BAAB95",
"XX c #B2AEA9",
"oX c #CDAF80",
"OX c #C4A983",
"+X c #CAB284",
"@X c #D5B583",
"#X c #D7B886",
"$X c #DAB985",
"%X c #D9BD89",
"&X c #D7B989",
"*X c #D4AA85",
"=X c #C0B8AD",
"-X c #DCC38F",
";X c #DEC693",
":X c #DAC998",
">X c #CEC799",
",X c #E2CD9A",
"<X c #E2C995",
"1X c #E5D29C",
"2X c #DFD5A2",
"3X c #D1C8B4",
"4X c #EADBA4",
"5X c #ECDDAA",
"6X c #E6D6A3",
"7X c #E7D8B5",
"8X c #E8D4AF",
"9X c #EFE1AB",
"0X c #E7E0A8",
"qX c #F0E2AB",
"wX c #F0EAAF",
"eX c #EEE2B5",
"rX c #F1E4B3",
"tX c #F3E8BB",
"yX c #D2D2D3",
"uX c #F4EAC7",
"iX c #F3EAD3",
"pX c #FAF3DA",
"aX c #F9F3D6",
"sX c #EBE7D8",
"dX c #E7E7E8",
"fX c #FBF8EB",
"gX c #FFFEFC",
"hX c #FEFCF2",
"jX c #F2EDE6",
"kX c #EBDED1",
/* pixels */
"Z.Z.Z.Z.Z.D.D.D.D.D.D.D.D.D.D.v.v.v.v.v.v.v.v.v.v.v.v.v.v.v.v.v.v.v.v.v.v.v.v.v.v.v.v.v.v.v.v.v.v.v.v.v.v.v.v.v.v.v.v.v.v.v.v.v.",
"Z.Z.Z.Z.Z.Z.D.D.D.D.D.D.Z.v.v.v.Z.Z.Z.v.v.v.v.v.v.v.v.v.v.v.v.v.v.v.v.x.g.g.g.g.k.l.l.l.v.v.v.v.v.v.v.v.v.v.v.v.v.v.v.v.v.Z.Z.Z.",
"Z.Z.D.D.D.D.D.D.D.D.D.Z.Z.Z.Z.Z.Z.Z.Z.Z.Z.Z.Z.v.v.v.v.v.v.v.v.v.v.c.Q w $ 4 z > 1 W k.l.l.Z.Z.Z.Z.Z.Z.Z.Z.l.l.l.l.v.v.v.Z.Z.Z.Z.",
"D.D.D.D.D.D.D.D.D.D.D.Z.Z.Z.Z.Z.Z.Z.v.v.v.v.v.v.v.v.v.v.v.v.c.g.Z 2 3 > > 0 X.8 X X 1 W l.l.l.l.l.l.Z.Z.l.l.l.l.l.l.l.v.Z.Z.Z.Z.",
"D.D.D.D.D.D.D.D.D.D.Z.Z.Z.Z.Z.Z.Z.Z.Z.Z.v.v.v.v.v.v.v.v.v.v.! % h U w.~.e.e.2.*.z 9 & $ W l.l.l.l.l.l.l.l.D.D.D.l.l.l.l.Z.Z.Z.D.",
"Z.Z.Z.Z.Z.D.D.D.D.D.Z.Z.Z.Z.Z.Z.Z.Z.Z.Z.Z.Z.v.v.v.v.v.v.v.! ; j e.^.t.q.~.t.2.:.;.-.c & % W D.D.D.D.l.l.D.D.D.D.D.l.l.l.l.D.D.D.",
"Z.Z.Z.Z.Z.Z.D.D.D.D.D.Z.D.D.Z.Z.Z.Z.Z.Z.Z.Z.Z.Z.Z.Z.v.v.! 5 ,.t.~.y.2.q.y.~.~.t.>.;.#.z o 3 F.D.D.D.D.D.D.D.D.D.D.D.D.D.D.D.Z.Z.",
"Z.Z.Z.Z.Z.Z.Z.Z.D.D.D.D.D.D.D.Z.Z.Z.Z.Z.Z.Z.Z.Z.Z.Z.v.{ 0 ,.^.~.~.y.y.~.~.~.~.q.-.-.-.#.> $ _ D.D.D.D.D.D.D.D.D.D.D.D.D.D.D.Z.Z.",
"D.D.Z.Z.Z.Z.Z.Z.Z.D.D.D.Z.Z.Z.D.Z.Z.Z.Z.Z.Z.Z.Z.Z.Z.s.> X.t.~.~.q.2.y.^.~.e.e.3.*.;.&.@.k & ~ D.D.D.D.D.D.D.D.D.D.D.D.D.D.D.Z.D.",
"D.D.D.Z.Z.Z.Z.Z.Z.Z.Z.Z.Z.Z.Z.Z.Z.Z.Z.Z.Z.Z.Z.Z.Z.V.t 4 e.~.~.4.3.y.^.w.I ; ; : 8 %.;.;.O.- ~ D.D.D.D.D.D.D.D.D.D.D.D.D.D.D.D.D.",
"D.D.D.Z.Z.Z.D.D.Z.Z.Z.Z.Z.Z.Z.Z.Z.Z.Z.Z.Z.Z.Z.Z.Z.b.8 $.~.y.J $.~.^.w.4 X X O i g O.-.&.K - ~ Z.Z.D.D.D.D.Z.Z.D.D.D.D.D.D.D.D.D.",
"D.D.D.Z.Z.D.D.D.D.D.Z.Z.Z.Z.Z.Z.Z.Z.Z.Z.Z.Z.Z.Z.Z.^ 8 e.~.U 0 e.^.w.4 . X - l b b +.&.K g $ p.Z.Z.Z.Z.D.Z.Z.Z.Z.D.D.D.D.D.D.D.D.",
"D.D.D.D.D.D.D.D.D.D.D.D.D.D.D.D.D.D.D.Z.Z.Z.Z.Z.C.q z u.I , 0.~.4.4 . X & k b b L #.o.c - q V.Z.Z.Z.Z.Z.Z.Z.Z.Z.D.D.D.D.D.D.D.D.",
"D.D.D.D.D.D.D.D.D.Z.Z.Z.Z.Z.Z.Z.Z.Z.Z.Z.Z.Z.Z.Z.C.q j r.C 8 y.q.9 . X X $ l b b c g > O 2 b.Z.Z.Z.Z.Z.Z.Z.Z.Z.Z.D.D.D.D.D.Z.Z.Z.",
"Z.Z.Z.Z.Z.Z.Z.Z.Z.Z.Z.Z.v.v.v.v.v.v.Z.Z.Z.Z.Z.Z.C.q p @.#.j >.+., X q y @ & - - - X 2 q b.Z.Z.Z.Z.Z.Z.Z.Z.Z.Z.Z.Z.Z.Z.Z.Z.Z.Z.Z.",
"Z.Z.Z.Z.Z.Z.Z.Z.Z.Z.v.v.v.v.v.v.v.v.v.Z.v.v.v.v.Z.u - L J p ....X 6 N.Z.u @ X @ r u B.V.Z.Z.Z.Z.Z.Z.Z.Z.Z.Z.Z.Z.Z.Z.Z.Z.Z.Z.Z.Z.",
"Z.G.Z.Z.Z.Z.Z.Z.v.v.v.v.v.v.v.v.v.v.v.v.v.v.v.v.v.N.< 8 X.> J ..X e V.Z.V.b.b.b.V.Z.Z.Z.v.v.v.Z.Z.Z.Z.Z.Z.Z.Z.Z.Z.Z.Z.Z.Z.Z.Z.Z.",
"W.@XW.Z.Z.Z.Z.v.v.v.v.v.v.v.v.v.v.v.v.v.v.v.v.c.x.) 6 + ..g f x X o S ~ _ F.c.c.v.Z.Z.v.v.v.v.v.Z.Z.Z.Z.Z.Z.Z.Z.Z.Z.Z.Z.Z.Z.Z.Z.",
"W.@X'.W.Z.v.v.v.v.v.v.Z.Z.Z.Z.Z.v.v.v.v.v.v.v.i.< & N 5 > + o j p X C a 3 < Q v.v.v.v.v.Z.Z.v.v.v.Z.Z.Z.Z.Z.Z.v.v.v.Z.Z.Z.Z.Z.Z.",
"n.Y.8X@X!.v.v.v.v.v.Z.Z.Z.Z.Z.Z.Z.v.v.v.Z.Z.s.% D XXiX=Xd ; ; h  .a 9.OXE.N * s.v.v.v.Z.Z.Z.Z.v.v.v.Z.Z.Z.Z.v.v.v.v.v.Z.Z.Z.v.v.",
"Y B jX7X'.W.Z.Z.Z.Z.Z.Z.Z.Z.Z.Z.Z.v.v.Z.Z.B.2 X * [.iXsXdXdXdXdXdXdXkX3X[.* X * s.Z.Z.Z.Z.Z.Z.Z.Z.Z.Z.Z.Z.v.v.v.v.v.v.v.v.v.v.v.",
"Y s sXgX7XR.p.Z.Z.Z.Z.Z.Z.Z.Z.Z.Z.Z.Z.Z.Z.u & [ K.}.,X6X8X8X7XuXuXuX:XA * N C X w V.Z.Z.Z.v.v.v.v.Z.Z.Z.Z.v.v.v.v.v.v.v.v.v.v.v.",
"( 3 eXgXgXXX* A.Z.Z.Z.Z.Z.Z.Z.Z.Z.Z.Z.Z.Z.e C @X<XrXuXuXuXtX4X9X9X9X5X:XQ.8.[ o X p.v.v.v.v.v.v.v.v.Z.Z.v.v.v.v.Z.Z.Z.v.v.v.v.v.",
"( 3 2XjXgXjX| I.l.l.l.l.l.Z.Z.l.l.l.Z.Z.d.3 I.,X7XfXgXgXgXfXpXpXtX9X4X%XoXH.6.a . T v.v.v.v.v.v.v.v.v.v.v.v.v.Z.Z.Z.Z.Z.Z.Z.Z.Z.",
"( 3 2X,XjXhX7X&XL.l.l.l.l.l.l.l.l.l.l.C.S A :XqXeXXXyXpXuXqXrXrX9XqX4X@X@XT.8.P $ * h.v.v.v.v.v.v.v.v.v.v.v.v.Z.Z.Z.Z.Z.Z.Z.Z.Z.",
"( s :X%X7XfXaX.Xe S.D.D.l.l.l.D.D.l.l.M.* K.qX4XOX3 ].aX9X9X9X9X9X4X1X@X@XT.8.8.: % h.Z.Z.v.v.Z.Z.Z.v.v.v.v.Z.Z.Z.Z.Z.Z.Z.Z.Z.Z.",
"d.q K.1X&X8XpXyX$ ) D.D.D.D.D.D.D.D.D.S . {.aX,X<.. ].pXtX9X9X9X5X;X@X@X@X(.H.I & @ E Z.Z.Z.Z.Z.Z.Z.Z.v.v.v.v.v.v.v.v.v.v.Z.Z.Z.",
"D.M * |.$X%XeXiXG 6 F.D.D.D.D.D.D.D.D.S 5 |.eXOX4 . [.gXhXrX4X6X;X$X@X@X@X@XU.6.F X t Z.Z.Z.Z.Z.Z.b.d.g.v.v.v.v.v.v.v.v.v.v.v.v.",
"D.S.* P @X@X,XwX}.& E v.v.D.D.D.D.D.D.t 9.uX<XR.$ . ].pXiXrX1X#X@X@X@X@X@X@XU.8.[ X t D.D.Z.Z.Z.a.* O * f.v.v.v.D.D.D.D.D.D.D.D.",
"Z.Z.y = R.@X#X6X0XG < j.v.v.v.D.D.v.f.# G rX%XA X . [.hXtXqX5X%X@X@X@X@X@X@X(.8.I X % m.Z.Z.Z.p.% P A . 1.D.D.D.D.D.D.D.D.D.D.D.",
"Z.Z.b.< P @X@X&X9X}.% ( v.v.v.v.v.v.i.X 3 ' P = X X D yX7X2X:XOX_.(._.@X@XoXY.6.P X X a.Z.N.r e 7.P.5 X / Z.Z.Z.Z.Z.Z.Z.Z.Z.Z.Z.",
"Z.Z.Z.y * R.$XI.| 6XG 6 B.Z.Z.Z.v.v.T X . . . X X X X d s 1 1 = : B ] @XE.U.5.4 $ X X ! i.q 3 R.R.3 . X / Z.Z.Z.Z.Z.Z.Z.Z.Z.Z.Z.",
"D.D.D.N.* P $XI.; >X|.% / Z.Z.Z.Z.V.2 $ L.G & X X X X   .   & 1 | +X%X@X@XT.8.[ & X 2 M . 3 R.R.3 + 9 & / Z.Z.Z.Z.Z.Z.Z.Z.Z.Z.D.",
"D.D.D.D.y = R.@XP Y.4XG 2 V.Z.Z.v.x.< V 7X:X<.X X X D | ' ' }.6X6X<X@X@X@X(.H.[ & X @ * A Y.R.h 9 X.*.: / Z.Z.Z.Z.Z.Z.Z.Z.Z.D.D.",
"D.D.D.D.S.2 ` @X[ F 2X}.% Y v.j.g.h.< L.rX5X(.5 . s yXfXuXqXqX<X#X@X@XT.U.U.6.h   * N 5.U.[ H X.-.;.*.: / Z.Z.Z.Z.Z.D.D.D.D.D.D.",
"Z.Z.Z.D.D.~ & R.(.V K.:XN r s.w @ w % L.tXfX8X] X D jXiXqXqX1X@X@X@X@XJ.C F = N ` I.oXoXT.w.=.;.-.-.*.: / Z.Z.Z.Z.Z.Z.Z.D.D.D.D.",
"Z.Z.Z.Z.D.M.* P @X7.; R.P.< & H 0.N   ] ,XtX5XQ.@ D iX9X9X5X-X@X@X@X(.3 3  X XR.+X[ 5 A J./.-.-.-.-.*.: / Z.Z.Z.Z.Z.Z.Z.Z.Z.D.Z.",
"Z.Z.Z.Z.Z.Z.y ; R.R.: A ).V : 3.0.H & * >XqXqX&XV D iXrX9X6X@X@X@X$XE.$ a :XL.B $ V [ Y.@X`.2.q.2.-.*.: / Z.Z.Z.Z.Z.Z.Z.Z.Z.Z.Z.",
"Z.Z.Z.Z.Z.Z.N.* ` E.V * Y.J.> j , ..$.X | qX9XeXsXyXrX9X9X1X@X@X$X_.8.$ 5 oX3 3 P.).$X%X-X@Xq.3.:.-.*.: ) D.D.v.v.v.Z.Z.Z.Z.Z.Z.",
"Z.Z.Z.Z.Z.Z.C.y & 5.6.& A (.B X J y.,.X 3 Q.,X5XaXpXuX9XqX4X@XI.` N X X 5 -XM ] $X@X@X;X9X6Xy.2.-.-.*.: E v.v.v.v.v.v.v.v.v.v.Z.",
"v.v.v.v.v.v.g.2 X N 8.F X 1 & z :.t.J - f 4 Q.qXtXpXuXqX9X|.A * . . X X 5 OX3 ] $X@X%X1X4X*Xy.>.-.-.*.: E v.v.v.v.v.v.v.v.v.v.v.",
"v.v.v.v.Z.b.6 & > ; N 3 O > ..;.*.x O > v g s  X5XqX:X|.' * X . X O > X 5 _.N P.@X#X1X,X-X/.q.-.-.:.e.; E v.v.v.v.v.v.v.v.v.v.v.",
"Z.Z.Z.Z.C.q z +.g O X - l +.%.J , o - c b v - & ' K.3 * . X o - p k n o 5 _.C E.@X#X1X;X,Xy.-.:.t.`._.3 E c.v.v.v.v.v.v.v.v.Z.Z.",
"Z.Z.Z.Z.C.w , > O & g b b z 8 * F h O g b b k - . X X X & f g b K #.L o 5 ).6.E.@X@X@X@X@X~./.&X@X@X).3 / Z.Z.v.v.Z.Z.Z.Z.Z.Z.Z.",
"Z.Z.Z.Z.Z.b.2 O i p l g - X A U.H.6.: O n +.b k - X - f c b K #.-.;.m X 5 oXU.E.@X@X@X@X/.*X9X9X%X@X).3 / Z.Z.Z.Z.Z.Z.Z.Z.Z.Z.Z.",
"Z.Z.Z.Z.Z.Z.u $ g g - X & P ).#XE.8.= X p o.@.b k g k b K #.*.-.-.&.n O 5 @X6.8.$X`./.q.:.;X4X;X%X@X<.@ / Z.Z.Z.Z.Z.Z.D.D.D.D.D.",
"Z.Z.Z.Z.Z.l.k.< o O X X 7.@X@X@X_.8.= X X 9 @.O.K b b O.-.-.-.-.-.-.o.o 5 ).A ] /.t.2.y.~.,X4X;X@X@XP * b.Z.D.D.D.D.D.D.D.D.D.D.",
"Z.Z.Z.Z.l.l.l.} } } M X 7.$X@XoXU.V O = @ X f %.-.&.&.-.;.;.;.-.%.K c X 5 R.; J ;.2.2.y.q.`.%X@X#XR.= S D.D.D.D.D.D.D.D.D.D.D.Z.",
"l.l.Z.l.l.l.D.D.l.l.k.% * ` ` C B o o e t X X > x O.O.O.O.O.O.K v v l X 3 H.= z ;.-.:.2.3.`.@X@X@X` @ S.D.D.D.D.D.D.D.D.D.Z.Z.Z.",
"l.l.l.l.l.D.D.D.D.l.l.W 6 X . . o f g * M.~ 2 X O - - - & & & & - - & X : 5.a z ;.-.-.-.y.@X@XoX` % ( C.Z.Z.Z.Z.Z.Z.Z.Z.Z.Z.Z.l.",
"l.D.D.l.l.D.D.D.D.D.D.D.F.) ) e - c i * S.D.M.6 X X X X @ @ @ @ @ X X X X 3 [ H %.;.-.:./.@X@X` @ ) Z.Z.Z.Z.Z.Z.Z.Z.Z.Z.Z.Z.Z.l.",
"D.D.D.D.D.D.D.D.D.D.D.D.D.D.D.m.& & X w S.h.f.R 2 % X X 5 ( ^ ^ r @ X * 5 * 3 V 8 %.;.2.@X@X` & ) D.D.Z.Z.Z.Z.Z.Z.Z.Z.D.D.l.l.l.",
"D.D.D.D.D.Z.Z.Z.D.D.D.D.D.Z.Z.Z.s.) _ m.Q Q Q Q Q Z 2 X @ u s.u * X @ y Q Y * ; & 8 %.2.).` $ ) Z.Z.Z.Z.Z.Z.Z.Z.Z.D.D.D.D.D.D.D.",
"D.D.D.D.Z.Z.Z.Z.Z.D.D.D.Z.Z.Z.v.v.x.f.Q Q Q Q Q Y < @ X X q s.y X X X % M Q Y % 4 C 8 &.P % ^ C.Z.Z.Z.Z.Z.Z.Z.D.D.D.D.D.D.D.D.D.",
"D.D.Z.Z.Z.Z.Z.Z.Z.D.D.D.Z.Z.v.v.v.g.Q Q Q Q Q Q R y y y y u s./ Z Z Z Z T Q Q T 1 U & , & ( Z.Z.Z.Z.Z.Z.Z.Z.D.D.D.Z.Z.Z.D.D.D.D.",
"Z.Z.Z.Z.Z.Z.Z.Z.Z.Z.Z.D.Z.Z.v.v.v.g.Q Q Q Q Q Q Q Q Q Q Q s.a.Q Q Q Q Q Q s.s.Q T * X $ ^ C.Z.Z.Z.Z.Z.Z.D.D.D.D.Z.Z.Z.Z.Z.D.D.D.",
"Z.Z.Z.Z.Z.Z.Z.Z.Z.Z.Z.Z.v.v.v.v.v.x.f.Q Q Q Q Q Q Q Q Q Q Q Q Q Q Q Q Q s.s.s.s.s.Y 2 Y c.v.Z.Z.Z.Z.Z.Z.Z.Z.Z.Z.Z.Z.Z.Z.Z.Z.Z.Z.",
"Z.Z.Z.Z.Z.Z.v.v.v.v.v.v.v.v.v.v.Z.Z.V.g.Q Q Q Q Q Q Q Q Q Q Q Q Q Q Q Q a.a.s.s.b.V.V.C.Z.Z.Z.Z.Z.Z.Z.Z.Z.Z.Z.Z.Z.Z.Z.Z.Z.Z.Z.Z.",
"Z.Z.Z.Z.Z.Z.Z.Z.Z.v.v.v.v.v.v.Z.Z.Z.Z.Z.x.j.d.d.d.Q Q Q Q Q Q Q a.a.Q f.d.d.B.V.C.Z.Z.Z.Z.Z.Z.Z.Z.Z.Z.Z.Z.Z.v.v.v.Z.Z.Z.Z.Z.Z.Z.",
"Z.Z.Z.Z.Z.Z.Z.Z.Z.Z.Z.Z.v.v.v.Z.Z.Z.Z.Z.v.Z.Z.Z.C.B.N.g.g.g.g.N.N.N.N.c.c.Z.Z.Z.Z.Z.Z.Z.Z.Z.Z.Z.Z.Z.Z.Z.Z.v.v.v.v.v.Z.Z.Z.Z.Z.Z.",
"Z.Z.Z.Z.Z.Z.D.D.Z.Z.Z.Z.Z.Z.Z.Z.Z.Z.Z.Z.Z.Z.Z.Z.Z.Z.Z.Z.Z.Z.Z.Z.Z.Z.Z.Z.Z.Z.Z.Z.Z.Z.Z.Z.Z.Z.v.v.v.Z.Z.Z.v.v.v.v.v.v.Z.Z.Z.Z.Z.Z.",
"Z.Z.Z.Z.Z.D.D.D.D.Z.Z.Z.Z.D.D.D.D.Z.Z.Z.Z.Z.Z.Z.Z.Z.Z.Z.Z.Z.Z.Z.Z.Z.Z.Z.Z.Z.Z.Z.Z.Z.Z.Z.Z.v.v.v.v.v.v.v.v.v.v.v.v.v.Z.Z.Z.Z.Z.Z.",
"Z.Z.Z.D.D.D.D.D.D.D.D.D.D.D.D.D.D.D.D.Z.Z.Z.Z.Z.Z.Z.Z.v.v.v.v.Z.Z.Z.Z.Z.Z.Z.Z.Z.Z.Z.Z.Z.v.v.v.v.v.v.v.v.v.v.v.v.v.v.v.v.v.Z.Z.Z.",
"v.v.D.D.D.D.D.D.D.D.D.D.D.D.D.D.v.v.v.v.Z.Z.v.v.v.v.v.v.v.v.v.v.v.Z.Z.v.v.v.v.Z.Z.Z.Z.v.v.v.v.v.v.v.v.v.v.v.v.v.v.v.v.v.v.v.v.v."
};
