/* XPM */
static const char *player1_l[] = {
/* columns rows colors chars-per-pixel */
"64 64 231 2 ",
"   c #0F1529",
".  c #10172A",
"X  c #151C2E",
"o  c #191E2F",
"O  c #1B1E30",
"+  c #161F30",
"@  c #1B212F",
"#  c #17202F",
"$  c #1D2331",
"%  c #1F2A33",
"&  c #222333",
"*  c #2B2535",
"=  c #242B33",
"-  c #2A2B36",
";  c #2B2439",
":  c #2C2E38",
">  c #252A39",
",  c #32273C",
"<  c #35293C",
"1  c #3B2C3A",
"2  c #382937",
"3  c #253134",
"4  c #2B3333",
"5  c #2B3B3B",
"6  c #2B3638",
"7  c #33333B",
"8  c #3A363E",
"9  c #353B37",
"0  c #432E39",
"q  c #4C2F3C",
"w  c #44353D",
"e  c #5A343E",
"r  c #53313D",
"t  c #3B4A36",
"y  c #32453D",
"u  c #394337",
"i  c #2F433C",
"p  c #454A3A",
"a  c #4B593B",
"s  c #54563E",
"d  c #53643C",
"f  c #596C3E",
"g  c #57693D",
"h  c #3A2B42",
"j  c #393A43",
"k  c #2B3B41",
"l  c #452F48",
"z  c #442E47",
"x  c #483547",
"c  c #563546",
"v  c #5A3753",
"b  c #673945",
"n  c #733D45",
"m  c #6A3D5C",
"M  c #653B54",
"N  c #394A44",
"B  c #3B524A",
"V  c #3E5752",
"C  c #464244",
"Z  c #494445",
"A  c #4B4A49",
"S  c #544C4A",
"D  c #58484A",
"F  c #465A48",
"G  c #5B554B",
"H  c #434856",
"J  c #575855",
"K  c #644749",
"L  c #7C454B",
"P  c #7C435A",
"I  c #774159",
"U  c #6A5C54",
"Y  c #665C52",
"T  c #775854",
"R  c #644D56",
"E  c #4C684A",
"W  c #506F4D",
"Q  c #52724E",
"!  c #5A7C52",
"~  c #567750",
"^  c #55645A",
"/  c #646542",
"(  c #627640",
")  c #677C41",
"_  c #6A6459",
"`  c #74625A",
"'  c #78695B",
"]  c #78744D",
"[  c #577664",
"{  c #6E6E61",
"}  c #716F63",
"|  c #797564",
" . c #6F7177",
".. c #4D5261",
"X. c #88464C",
"o. c #95494D",
"O. c #8A4756",
"+. c #944B58",
"@. c #994C55",
"#. c #875653",
"$. c #975C57",
"%. c #A34F53",
"&. c #AC5255",
"*. c #A65056",
"=. c #B55555",
"-. c #B85656",
";. c #B95C59",
":. c #B75957",
">. c #97645B",
",. c #83725D",
"<. c #BB645D",
"1. c #B9665E",
"2. c #A9685E",
"3. c #AB5E60",
"4. c #846D62",
"5. c #8A7363",
"6. c #8A7864",
"7. c #957A6A",
"8. c #967D69",
"9. c #897E71",
"0. c #BE6C61",
"q. c #B77465",
"w. c #A56C60",
"e. c #C37B6A",
"r. c #C27666",
"t. c #5E8254",
"y. c #738944",
"u. c #718743",
"i. c #7B9446",
"p. c #7F9847",
"a. c #618455",
"s. c #658C58",
"d. c #6B945B",
"f. c #719D5F",
"g. c #6D8343",
"h. c #5C816B",
"j. c #679175",
"k. c #698E73",
"l. c #74A160",
"z. c #79A863",
"x. c #78A763",
"c. c #87854C",
"v. c #829C48",
"b. c #9A9752",
"n. c #908E4F",
"m. c #87A149",
"M. c #8CA74A",
"N. c #92AE4C",
"B. c #96B34D",
"V. c #99B74D",
"C. c #9BB94E",
"Z. c #9EB950",
"A. c #BFBA5B",
"S. c #B8B459",
"D. c #AEAA56",
"F. c #9C836C",
"G. c #98856B",
"H. c #9A9277",
"J. c #8D8570",
"K. c #A38C6D",
"L. c #A8956C",
"P. c #A78B71",
"I. c #AC9471",
"U. c #A79A7A",
"Y. c #B49A74",
"T. c #B59977",
"R. c #B6846A",
"E. c #BCB66C",
"W. c #BCA37A",
"Q. c #BBA077",
"!. c #AEB26B",
"~. c #A09D53",
"^. c #C5836E",
"/. c #C8856F",
"(. c #CC9777",
"). c #CB9075",
"_. c #C1A47B",
"`. c #CAAC7E",
"'. c #C6A97C",
"]. c #CDAD7A",
"[. c #858684",
"{. c #999594",
"}. c #A39C82",
"|. c #BAA983",
" X c #AFA986",
".X c #AEACA8",
"XX c #D3A882",
"oX c #CEB384",
"OX c #D5B583",
"+X c #D9B985",
"@X c #D7B98A",
"#X c #D9BC89",
"$X c #D7B786",
"%X c #CCB38A",
"&X c #DDC591",
"*X c #D9C99A",
"=X c #DBC896",
"-X c #E1CB96",
";X c #E2CB97",
":X c #E5D29C",
">X c #DED1A1",
",X c #E8D5A0",
"<X c #EBDBA5",
"1X c #EDDDAB",
"2X c #E5D7A2",
"3X c #EADAB8",
"4X c #E3CCAA",
"5X c #EEE1AB",
"6X c #E6E0AB",
"7X c #F0E2AC",
"8X c #F1E9AD",
"9X c #EDE1B7",
"0X c #F2E6B8",
"qX c #D4CFC6",
"wX c #D9DADD",
"eX c #CECDC7",
"rX c #E7DDD0",
"tX c #F4EBC3",
"yX c #F4EACA",
"uX c #FAF1CF",
"iX c #EEE5D7",
"pX c #F2E9D4",
"aX c #FAF4DB",
"sX c #F8F1D6",
"dX c #EEE2C7",
"fX c #DEDDE1",
"gX c #E1DEE2",
"hX c #FBF7E9",
"jX c #FFFFFE",
"kX c #FCFAF1",
"lX c #E5E0E5",
/* pixels */
"C.C.C.C.C.A.A.A.A.A.A.A.A.A.A.z.z.z.z.z.z.z.z.z.z.z.z.z.z.z.z.z.z.z.z.s.W Q W Q l.z.z.z.z.z.z.z.z.z.z.z.z.z.z.z.z.z.z.z.z.z.z.z.",
"C.C.C.C.C.C.A.A.A.A.A.A.C.z.z.z.C.C.C.z.z.z.z.z.z.z.z.z.z.z.z.z.f.~ y 3 & n L 1 k ^ h.j.z.z.z.z.z.z.z.z.z.z.z.z.z.z.z.z.z.C.C.C.",
"C.C.A.A.A.A.A.A.A.A.A.C.C.C.C.C.C.C.C.C.C.C.C.z.z.z.z.z.z.z.l.Q 5 $ x K K $.&.2 X X 5 h.j.C.C.C.C.C.C.C.C.j.j.j.j.z.z.z.C.C.C.C.",
"A.A.A.A.A.A.A.A.A.A.A.C.C.C.C.C.C.C.z.z.z.z.z.z.z.z.z.z.z.! u 2 T >.q.^./.^.0.%.n * o 5 h.j.j.j.j.j.C.C.j.j.j.j.j.j.j.z.C.C.C.C.",
"A.A.A.A.A.A.A.A.A.A.C.C.C.C.C.C.C.C.C.C.z.z.z.z.z.z.z.z.! 8 $.q.^.e.;.<.e.e.0.0.:.%.l $ 5 h.j.j.j.j.j.j.j.A.A.A.j.j.j.j.C.C.C.A.",
"C.C.C.C.C.A.A.A.A.A.C.C.C.C.C.C.C.C.C.C.C.C.z.z.z.z.z.a.w >./.^.^.e.e.e.^.^.^.0.=.=.X.1 o k S.A.A.A.j.j.A.A.A.A.A.j.j.j.j.A.A.A.",
"C.C.C.C.C.C.A.A.A.A.A.C.A.A.C.C.C.C.C.C.C.C.C.C.C.C.t.: o.r.^.^.0.<.e.^./././.0.=.=.=.@.& & c.A.A.A.A.A.A.A.A.A.A.A.A.A.A.A.C.C.",
"C.C.C.C.C.C.C.C.A.A.A.A.A.A.A.C.C.C.C.C.C.C.C.C.C.B.N < q.^.^.w.<.e.^.^.w.>.>.o.=.-.*.O.v & / A.A.A.A.A.A.A.A.A.A.A.A.A.A.A.C.C.",
"A.A.C.C.C.C.C.C.C.A.A.A.C.C.C.A.C.C.C.C.C.C.C.C.C.v.0 #.^.e.L #.^.^.q.K = X X o q X.=.+.M & / A.A.A.A.A.A.A.A.A.A.A.A.A.A.A.C.A.",
"A.A.A.C.C.C.C.C.C.C.C.C.C.C.C.C.C.C.C.C.C.C.C.C.C.) 0 q.^.T w q./.q.w X X & , ; * c &.=.+.; / A.A.A.A.A.A.A.A.A.A.A.A.A.A.A.A.A.",
"A.A.A.C.C.C.A.A.C.C.C.C.C.C.C.C.C.C.C.C.C.C.C.C.V.u b e.#.2 2.^.2.w X X ; v m m m O.&.*.I ; / C.C.A.A.A.A.C.C.A.A.A.A.A.A.A.A.A.",
"A.A.A.C.C.A.A.A.A.A.C.C.C.C.C.C.C.C.C.C.C.C.C.C.V.u c 3.D 0 r.0.r X X X c m m m I *.*.P l $ g.C.C.C.C.A.C.C.C.C.A.A.A.A.A.A.A.A.",
"A.A.A.A.A.A.A.A.A.A.A.A.A.A.A.A.A.A.A.C.C.C.C.C.V.u v +.o.c 1.O.< X = = , v m m m P P M ; u B.C.C.C.C.C.C.C.C.C.A.A.A.A.A.A.A.A.",
"A.A.A.A.A.A.A.A.A.C.C.C.C.C.C.C.C.C.C.C.C.C.C.C.C.g , I L z X.X.X 6 v.y.= O h l l l < O 9 v.C.C.C.C.C.C.C.C.C.C.A.A.A.A.A.C.C.C.",
"C.C.C.C.C.C.C.C.C.C.C.C.z.z.z.z.z.z.C.C.C.C.C.C.C.m.= q o., L X.X p B.C.y.6 @ X X X 4 u v.C.C.C.C.C.C.C.C.C.C.C.C.C.C.C.C.C.C.C.",
"C.C.C.C.C.C.C.C.C.C.z.z.z.z.z.z.z.z.z.C.z.z.z.z.B.) 9 & X.c x n X o a f ) N.( d g f N.B.C.C.C.C.C.C.C.C.C.C.C.C.C.C.C.C.C.C.C.C.",
"C.E.E.Z.C.C.C.C.z.z.z.z.z.z.z.z.z.z.z.z.z.z.z.a.6 & 8 7 1 & O v < X S 8 7 9 y.C.C.C.C.C.z.z.z.C.C.C.C.C.C.C.C.C.C.C.C.C.C.C.C.C.",
"C.].OXE.Z.C.C.z.z.z.z.z.z.z.z.z.z.z.z.z.z.z.a.= H .XdX.X> > % h R h 5.|.T.C % t.z.C.C.z.z.z.z.z.C.C.C.C.C.C.C.C.C.C.C.C.C.C.C.C.",
"C.L.@X$XE.z.z.z.z.z.z.C.C.C.C.C.z.z.z.z.z.f.3 X > }.pXiXwXwXwXfXlXgXrXqX{.: X = t.z.z.z.C.C.z.z.z.C.C.C.C.C.C.z.z.z.C.C.C.C.C.C.",
"C.p {.pX$X!.z.z.z.z.C.C.C.C.C.C.C.z.z.z.C.( $ _ J.U.-X,X3X3X3XyXyXuX>XS & x A X y x.z.C.C.C.C.z.z.z.C.C.C.C.z.z.z.z.z.C.C.C.z.z.",
"z.t  .jXdX#Xb.B.C.C.C.C.C.C.C.C.C.z.z.C.C.p S OX-X7XyXtXdX9X<X5X5X5X1X*XT.7.' X @ g.C.C.C.C.C.C.C.C.C.C.C.z.z.z.z.z.z.z.z.z.z.z.",
"z.y { hXjXpX_ d Z.C.C.C.C.C.C.C.C.C.C.C.p.6 K.;X3XhXjXjXjXkXaXaX0X5X1X&XXXF.5.8 X ( C.C.C.z.z.z.z.C.C.C.C.z.z.z.z.z.z.z.z.z.z.z.",
"C.t { tXjXjX.XS !.C.C.C.C.C.C.C.C.C.C.V.d S =X7X0X.XeXhXtX7X0X0X7X7X<XOXOXT.8.U $ 3 d.z.z.z.z.z.z.z.C.C.z.z.z.z.C.C.C.z.z.z.z.z.",
"C.t { 5XdXjXpX|.|.k.j.j.j.C.C.j.j.j.C.m.= G.7X<XoX7 J.uX5X5X5X5X5X<X,XOXOXT.7.7.- $ d.z.z.z.z.z.z.z.z.z.z.z.z.C.C.C.C.C.C.C.C.C.",
"C.t } :X$XhXaXyXF.[ j.j.j.j.j.j.j.j.j.a . }.uX;X,.. [.aX0X5X5X7X1X&XOXOXOX_.F.` & @ ~ z.z.z.z.z.z.z.z.z.z.z.z.C.C.C.C.C.C.C.C.C.",
"C.a Y &X&X4XyXhX .9 S.A.j.j.j.A.A.j.j.G 7  X9X%X8 . {.jXkX0X<X<X-X#XOXOXOXOXP.4.S X N C.C.z.z.C.C.C.z.z.z.z.C.C.C.C.C.C.C.C.C.C.",
"C.m.% ' ;XOX:XaX.X$ c.A.A.A.A.A.A.A.A.G 9.dX-XY.$ . [.aXsX7X:X$XOXOXOXOXOXOXP.8.` X N C.C.C.C.C.V.B.V.z.z.z.z.z.z.z.z.z.z.C.C.C.",
"A.j.B : W.OX#X5X6XA 9 S.A.A.A.A.A.A.b.@ J 0X#XY X . [.kX0X5X1X#XOXOXOXOXOXOX_.8.U X & i.C.C.C.B.d 4 9 a.z.z.z.z.z.z.z.z.z.z.z.z.",
"A.A.b.- _ OXOX-X8X X$ Q z.A.A.A.A.A.n.X j | _ : X X ..wX9X2X2XoX`.`.`.OXOXOXT.7.U X X c.A.C.B.d & S o y z.z.z.z.A.A.A.A.A.A.A.A.",
"C.C.C.a > Y.OXOX:X6XJ 5 f.z.z.A.A.z.E X X . X X X X X j j j j 7 7 C ' oXT.P.4.8 & X X c.C.v.d x 5.5.X y A.A.A.A.A.A.A.A.A.A.A.A.",
"C.C.C.m.$ _ OXOXH.*X X$ ~ z.z.z.z.l.3 $ J.S $ X X X X       $ > } |.#XOXOXT.7.` & X 9 m.y.= S '.G.& X t C.C.C.C.C.C.C.C.C.C.C.C.",
"C.C.C.C.d : Y.+XG _ <XS 9 B.C.C.z.l.3 A 3X*X' X X X N _ J J }.*X,X;XOXOXOX_.8.' & X 5 y $ S `.6.$ & * t C.C.C.C.C.C.C.C.C.C.C.C.",
"A.A.A.C.v.= _ OXK.S 2X X& ) C.C.C.B.4 H.8X<XW.8 . j wXhXtX7X5X-X+XOXOXT.I.I.8.C X X X & G '.6.- r o.e t C.C.C.C.C.C.C.C.C.C.C.A.",
"A.A.A.A.C.d > Y.`.C U.5XJ u N.C.z.l.= H.0XhX4X' X H hXsX7X5X,XOXOXOXOXT.7.7.G o X $ x 6.K.,.c o.=.-.e t C.C.C.C.C.C.C.C.C.C.A.A.",
"A.A.A.A.A.~.= U OX' U >XU.$ t.d.B 5 @ | :X0X1XW.o H pX5X5X5X&XOXOXOXOXK.4.S $ : S K.'.T.5.T =.=.=.-.e t C.C.C.C.C.C.A.A.A.A.A.A.",
"C.C.C.A.A.A./ : Y.Y.S _ oXA t = D K & : *X7X5X%XZ H pX0X7X,XOXOXOXOX6.& _ | 6.%X|.,.,.6.(.<.=.=.=.-.e t C.C.C.C.C.C.C.C.A.A.A.A.",
"C.C.C.C.A.A.~.= _ OXY = I.G.$ r e.q.1 X | 7X5X1XrXeX9X5X5X,XOXOX+X'.j X |.>XU.A C 8 G I.OXr.;.;.=.-.e t C.C.C.C.C.C.C.C.C.C.A.C.",
"C.C.C.C.C.C.V.d > Q.F.$ Y oXC e L 0 X.7 : |.:X1XsXaXtX5X7X,XOXY.' S X o I.' X Z 6.OXOX+XOXr.0.1.=.-.e t C.C.C.C.C.C.C.C.C.C.C.C.",
"C.C.C.C.C.C.C.v.= S F.S > Y.K.* O K e.D X 8 W.7X0XaXtX7X7X|.Y - X X X o Y.| 8 '.+XOX#X2X<X(.0.:.=.-.e p A.A.A.z.z.z.C.C.C.C.C.C.",
"C.C.C.C.C.C.C.v.4 = 4.4.- 8 G o n 0.e.c l l j %X1X7X*X|.} > X X X O X o Y.| x OXOXOX=X<X:X).<.=.=.-.e y z.z.z.z.z.z.z.z.z.z.z.C.",
"z.z.z.z.z.z.s.6 X & A ` 7 X 2 n =.:.L * l M ; > { H.j - . X X ; < v ; X I.' S OXOX#X;X&X$Xe.:.=.=.;.D y z.z.z.z.z.z.z.z.z.z.z.z.",
"z.z.z.z.C.M.9 b b l X X & l O.=.o.q o z P +.M ; X X X X $ z l M I +.1 X I.' 5.OXOX:X2X-XXX<.=.:.r.(.Y i z.z.z.x.z.z.z.z.z.z.z.z.",
"C.C.C.C.C.p.$ b c & ; l M P X.r * j $ & M %.@.v ; X & h M m P +.=.@., X I.6.7.OXOX$X$X#X(.0./.].OX+XY y z.z.z.z.z.z.z.z.z.z.C.C.",
"C.C.C.C.C.N.a X O & h M v , O Z ' 7.S X h P %.P v x v m I +.&.-.=.+.* X I.T.P.OXOXOXOXXX(.@X5X&XOX+XU i C.C.C.z.z.C.C.C.C.C.C.C.",
"C.C.C.C.C.C.N.4 , M x < O X G `.`.P.` X X h @.&.P m m O.=.=.=.=.=.O.< X I.Y.5.OXOXOX).1.).5X:X-XOX'.C t C.C.C.C.C.C.C.C.C.C.C.C.",
"C.C.C.C.C.C.C.( X ; O X & 5.`.OXOXT.` X X o c O.&.%.%.=.=.=.=.-.=.@., X I.P.S `.(.0.1.r.XX5X:X#X+XK.X a C.C.C.C.C.C.C.A.A.A.A.A.",
"C.C.C.C.C.j.j.h.B B a @ 7 `.+XOXOXP.A X @ X X c %.-.-.=.=.=.=.@.P m * X K.U 8 0.<.<.0.e.(.;X$XOXOX' $ v.C.C.A.A.A.A.A.A.A.A.A.A.",
"C.C.C.C.j.j.j.j.j.j.j.V O _ Y.F.5.S X @ ] G X X * v M M M M M v v v ; o G.S 2 =.:.;.0.1.^.OXOXOXW.: d A.A.A.A.A.A.A.A.A.A.A.A.C.",
"j.j.C.j.j.j.A.A.j.j.j.[ 3 o $ O o O h ; s S.] 9 X X X X X X X o o o X o ' S 2 =.=.=.=.;.].OX+X_.C 4 p.A.A.A.A.A.A.A.A.A.A.C.C.C.",
"j.j.j.j.j.A.A.A.A.j.j.j.D.] u u $ h M , p A.A.D./ X X X 6 p p p = X X X 8 ` D %.-.=.=.0.OXOX_.Z 3 p.C.C.C.C.C.C.C.C.C.C.C.C.C.j.",
"j.A.A.j.j.A.A.A.A.A.A.A.A.A.A.S.u ; , X s A.A.A.b.4 X X p b.v.v.t X X o @ 8 U q %.-.=.(.+X_.C 4 b.A.C.C.C.C.C.C.C.C.C.C.C.C.C.j.",
"A.A.A.A.A.A.A.A.A.A.A.A.A.A.A.A.b.p p s b.d.a.t.t.p X X $ ( y.) 4 X @ s ] = 7 7 1 %.-.(._.Z 4 b.A.A.A.C.C.C.C.C.C.C.C.A.A.j.j.j.",
"A.A.A.A.A.C.C.C.A.A.A.A.A.C.C.C.C.A.S.b.! ! ! ! ! Q 9 X @ f y.d X X = ) ! E = $ C 0 %.R.Z 4 b.A.C.C.C.C.C.C.C.C.C.A.A.A.A.A.A.A.",
"A.A.A.A.C.C.C.C.C.A.A.A.C.C.C.z.z.f.t.! ! ! ! ! W 3 @ X X u y.d X X X $ B ! E = U x 0 0 3 p.C.C.C.C.C.C.C.C.C.A.A.A.A.A.A.A.A.A.",
"A.A.C.C.C.C.C.C.C.A.A.A.C.C.z.z.z.s.! ! ! ! ! ! W d d d d f y.) F F F F E ! ! E 6 = X 4 p.C.C.C.C.C.C.C.C.C.A.A.A.C.C.C.A.A.A.A.",
"C.C.C.C.C.C.C.C.C.C.C.A.C.C.z.z.z.s.! ! ! ! ! ! ! ! ! ! ! y.y.! ! ! ! ! ! u.u.! E % = a.C.C.C.C.C.C.C.C.A.A.A.A.C.C.C.C.C.A.A.A.",
"C.C.C.C.C.C.C.C.C.C.C.C.z.z.z.z.z.l.a.! ! ! ! ! ! ! ! ! ! ! ! ! ! ! ! ! u.u.u.u.u.Q s.z.z.z.C.C.C.C.C.C.C.C.C.C.C.C.C.C.C.C.C.C.",
"C.C.C.C.C.C.z.z.z.z.z.z.z.z.z.z.C.C.B.s.! ! ! ! ! ! ! ! ! ! ! ! ! ! ! ! u.u.u.y.v.N.C.C.C.C.C.C.C.C.C.C.C.C.C.C.C.C.C.C.C.C.C.C.",
"C.C.C.C.C.C.C.C.C.z.z.z.z.z.z.C.C.C.C.C.l.f.p.i.i.! ! ! ! ! ! ! u.u.! a.i.i.N.N.V.C.C.C.C.C.C.C.C.C.C.C.C.C.z.z.z.C.C.C.C.C.C.C.",
"C.C.C.C.C.C.C.C.C.C.C.C.z.z.z.C.C.C.C.C.z.C.C.C.V.M.m.s.s.s.s.m.m.m.M.x.x.C.C.C.C.C.C.C.C.C.C.C.C.C.C.C.C.z.z.z.z.z.C.C.C.C.C.C.",
"C.C.C.C.C.C.A.A.C.C.C.C.C.C.C.C.C.C.C.C.C.C.C.C.C.C.C.C.C.C.C.C.C.C.C.C.C.C.C.C.C.C.C.C.C.C.z.z.z.C.C.C.z.z.z.z.z.z.C.C.C.C.C.C.",
"C.C.C.C.C.A.A.A.A.C.C.C.C.A.A.A.A.C.C.C.C.C.C.C.C.C.C.C.C.C.C.C.C.C.C.C.C.C.C.C.C.C.C.C.C.z.z.z.z.z.z.z.z.z.z.z.z.z.C.C.C.C.C.C.",
"C.C.C.A.A.A.A.A.A.A.A.A.A.A.A.A.A.A.A.C.C.C.C.C.C.C.C.z.z.z.z.C.C.C.C.C.C.C.C.C.C.C.C.C.z.z.z.z.z.z.z.z.z.z.z.z.z.z.z.z.z.C.C.C.",
"z.z.A.A.A.A.A.A.A.A.A.A.A.A.A.A.z.z.z.z.C.C.z.z.z.z.z.z.z.z.z.z.z.C.C.z.z.z.z.C.C.C.C.z.z.z.z.z.z.z.z.z.z.z.z.z.z.z.z.z.z.z.z.z."
};
