/* XPM */
static const char *player4_l[] = {
/* columns rows colors chars-per-pixel */
"64 64 231 2 ",
"   c #0F162A",
".  c #151B2D",
"X  c #191D2F",
"o  c #11172A",
"O  c #1B1E31",
"+  c #1B212F",
"@  c #1F282F",
"#  c #1D2331",
"$  c #1E2932",
"%  c #232334",
"&  c #242933",
"*  c #2A2B35",
"=  c #2C2539",
"-  c #2B2D38",
";  c #2A2534",
":  c #35293D",
">  c #362839",
",  c #2A3433",
"<  c #2D333C",
"1  c #2A3839",
"2  c #313535",
"3  c #323B35",
"4  c #34343D",
"5  c #3B343C",
"6  c #3B3A3F",
"7  c #3B3A37",
"8  c #221F33",
"9  c #472E3A",
"0  c #49343D",
"q  c #50333D",
"w  c #364338",
"e  c #435138",
"r  c #4B5B3B",
"t  c #4D503D",
"y  c #54563E",
"u  c #44473A",
"i  c #53643C",
"p  c #5B6E3E",
"a  c #5E713F",
"s  c #3C2B43",
"d  c #362940",
"f  c #3C3B41",
"g  c #323848",
"h  c #2A3842",
"j  c #422D45",
"k  c #462F48",
"l  c #413E42",
"z  c #4D324C",
"x  c #573548",
"c  c #5B3753",
"v  c #693B47",
"b  c #6A3D5B",
"n  c #663B57",
"m  c #723F55",
"M  c #783F47",
"N  c #3B4747",
"B  c #3D5443",
"V  c #3B4050",
"C  c #454245",
"Z  c #4A4545",
"A  c #4B4949",
"S  c #574A4B",
"D  c #445D46",
"F  c #5B554A",
"G  c #515255",
"H  c #664B4B",
"J  c #7B454B",
"K  c #61584E",
"L  c #74405A",
"P  c #7E4355",
"I  c #645A52",
"U  c #685954",
"Y  c #725C57",
"T  c #4B684A",
"R  c #53734F",
"E  c #4A675C",
"W  c #567750",
"Q  c #5A7C52",
"!  c #577750",
"~  c #506E4D",
"^  c #656643",
"/  c #657A41",
"(  c #687E42",
")  c #697343",
"_  c #7C7B49",
"`  c #6B6559",
"'  c #78655B",
"]  c #7F705C",
"[  c #777666",
"{  c #686B75",
"}  c #6B6A68",
"|  c #5A7E6A",
" . c #844349",
".. c #89474D",
"X. c #834559",
"o. c #8A4756",
"O. c #9B4D55",
"+. c #964B58",
"@. c #985657",
"#. c #8F5653",
"$. c #A24F55",
"%. c #A24F58",
"&. c #AB5255",
"*. c #A45757",
"=. c #B55555",
"-. c #B95655",
";. c #B95C59",
":. c #B75957",
">. c #88655B",
",. c #98675D",
"<. c #82725E",
"1. c #807F4A",
"2. c #BB635C",
"3. c #B3665E",
"4. c #A4695F",
"5. c #836D62",
"6. c #867560",
"7. c #8D7466",
"8. c #8D7B64",
"9. c #857B6A",
"0. c #957A6A",
"q. c #977C6B",
"w. c #BD6B61",
"e. c #B06C60",
"r. c #BC7967",
"t. c #A87263",
"y. c #C17465",
"u. c #C37C6A",
"i. c #C27767",
"p. c #5E8255",
"a. c #6C8243",
"s. c #728944",
"d. c #718743",
"f. c #7B9346",
"g. c #779045",
"h. c #658C58",
"j. c #608555",
"k. c #6A935B",
"l. c #6E995D",
"z. c #719D5F",
"x. c #648D73",
"c. c #679175",
"v. c #7D9979",
"b. c #75A261",
"n. c #78A763",
"m. c #79A863",
"M. c #5F866E",
"N. c #88864C",
"B. c #819B48",
"V. c #9C9B56",
"C. c #A59D59",
"Z. c #87A149",
"A. c #8CA74A",
"S. c #92AE4C",
"D. c #95B14C",
"F. c #99B74E",
"G. c #9BB94E",
"H. c #9EB951",
"J. c #A8A555",
"K. c #B1AD57",
"L. c #BFBA5B",
"P. c #B8B459",
"I. c #A8B85A",
"U. c #968267",
"Y. c #9A8469",
"T. c #938D78",
"R. c #A1896D",
"E. c #A58870",
"W. c #AD9272",
"Q. c #A6997A",
"!. c #B19474",
"~. c #B59A75",
"^. c #BB9D79",
"/. c #B69E77",
"(. c #B48F6F",
"). c #B9B66A",
"_. c #BBA378",
"`. c #ADB361",
"'. c #C6836E",
"]. c #C8856F",
"[. c #C98770",
"{. c #CC9976",
"}. c #D09F7F",
"|. c #CAAC7E",
" X c #C6A67C",
".X c #D1A67C",
"XX c #8D8D8E",
"oX c #A8A183",
"OX c #B9AD8B",
"+X c #A2A6AE",
"@X c #B4AEB2",
"#X c #CEAF80",
"$X c #C6AE81",
"%X c #CCB589",
"&X c #D5B583",
"*X c #D7B986",
"=X c #D9B985",
"-X c #DABD8B",
";X c #D5B889",
":X c #CDB995",
">X c #C5BBAC",
",X c #DCC28E",
"<X c #DAC796",
"1X c #C9C497",
"2X c #E2CA97",
"3X c #E5D29C",
"4X c #EAD39F",
"5X c #DED5A4",
"6X c #D3C3BD",
"7X c #E9D5A2",
"8X c #EBDCA5",
"9X c #E5D8A7",
"0X c #E4D1AB",
"qX c #EFE1AB",
"wX c #F0E2AC",
"eX c #EFE1B1",
"rX c #F1E5B4",
"tX c #F5E9BE",
"yX c #EADDC8",
"uX c #EAE3CD",
"iX c #F4EBC3",
"pX c #F5ECCB",
"aX c #F4EBD7",
"sX c #F9F3DA",
"dX c #FAF1CE",
"fX c #FDFAEB",
"gX c #FAF7E8",
"hX c #FFFEFC",
"jX c #FCFAF3",
"kX c #EAE9E8",
"lX c #CDCBC7",
/* pixels */
"G.G.G.G.G.L.L.L.L.L.L.L.L.L.L.m.m.m.m.m.m.m.m.m.m.m.m.m.m.m.m.m.m.m.m.m.m.m.m.m.m.m.m.m.m.m.m.m.m.m.m.m.m.m.m.m.m.m.m.m.m.m.m.m.",
"G.G.G.G.G.G.L.L.L.L.L.L.G.m.m.m.G.G.G.m.m.m.m.m.m.m.m.m.m.m.m.m.m.m.m.m.m.m.m.m.c.c.c.c.m.m.m.m.m.m.m.m.m.m.m.m.m.m.m.m.m.G.G.G.",
"G.G.L.L.L.L.L.L.L.L.L.G.G.G.G.G.G.G.G.G.G.G.G.m.m.m.m.m.m.m.m.m.m.m.n.n.n.n.n.c.c.c.c.c.c.G.G.G.G.G.G.G.G.c.c.c.c.m.m.m.G.G.G.G.",
"L.L.L.L.L.L.L.L.L.L.L.G.G.G.G.G.G.G.m.m.m.m.m.m.m.m.m.m.m.m.m.m.n.k.p.h 1 1 Z C N | x.c.c.c.c.c.c.c.G.G.c.c.c.c.c.c.c.m.G.G.G.G.",
"L.L.L.L.L.L.L.L.L.L.G.G.G.G.G.G.G.G.G.G.m.m.m.m.m.m.m.m.m.n.b.~ D & ; H H H $. .# # E c.c.c.c.c.c.c.c.c.c.L.L.L.c.c.c.c.G.G.G.L.",
"G.G.G.G.G.L.L.L.L.L.G.G.G.G.G.G.G.G.G.G.G.G.m.m.m.m.m.m.m.W 1 > 0 ,.4.u.].].u.*.9 % # E c.c.L.L.L.L.c.c.L.L.L.L.L.c.c.c.c.L.L.L.",
"G.G.G.G.G.G.L.L.L.L.L.G.L.L.G.G.G.G.G.G.G.G.G.G.G.G.m.m.W 5 Y 3.u.[.y.:.w.'.u.2.=.J % & M.L.L.L.L.L.L.L.L.L.L.L.L.L.L.L.L.L.G.G.",
"G.G.G.G.G.G.G.G.L.L.L.L.L.L.L.G.G.G.G.G.G.G.G.G.G.G.m.W 5 O.u.'.'.u.u.u.u.'.'.u.w.=.v % y K.L.L.L.L.L.L.L.L.L.L.L.L.L.L.L.L.G.G.",
"L.L.G.G.G.G.G.G.G.L.L.L.G.G.G.L.G.G.G.G.G.G.G.G.G.G.a.& J i.'.'.w.2.y.'.].].[.'.;.-.$.> . N.L.L.L.L.L.L.L.L.L.L.L.L.L.L.L.L.G.L.",
"L.L.L.G.G.G.G.G.G.G.G.G.G.G.G.G.G.G.G.G.G.G.G.G.G.B.5 v r.].t.@.2.u.'.'.,.>.>.*.-.=.%.x % w P.L.L.L.L.L.L.L.L.L.L.L.L.L.L.L.L.L.",
"L.L.L.G.G.G.L.L.G.G.G.G.G.G.G.G.G.G.G.G.G.G.G.G.G.g.9 e.[.,.5 #.u.].t.S % . . ; v &.O.m = 2 P.G.G.L.L.L.L.G.G.L.L.L.L.L.L.L.L.L.",
"L.L.L.G.G.L.L.L.L.L.G.G.G.G.G.G.G.G.G.G.G.G.G.G.G.w x u.,.5 #.].u.t.5 . . % : : : ..&.X.k , D.G.G.G.G.L.G.G.G.G.L.L.L.L.L.L.L.L.",
"L.L.L.L.L.L.L.L.L.L.L.L.L.L.L.L.L.L.L.G.G.G.G.G.F.w x w.S 5 i.i.J > . . % c b b b +.-.&.k , D.G.G.G.G.G.G.G.G.G.L.L.L.L.L.L.L.L.",
"L.L.L.L.L.L.L.L.L.G.G.G.G.G.G.G.G.G.G.G.G.G.G.G.F.w j +...q w.O.: . X % c b b b L %.+.m O r F.G.G.G.G.G.G.G.G.G.L.L.L.L.L.G.G.G.",
"G.G.G.G.G.G.G.G.G.G.G.G.m.m.m.m.m.m.G.G.G.G.G.G.F.w s o.o.x O.J O # , : b b b X.o.+.b d & f.G.G.G.G.G.G.G.G.G.G.G.G.G.G.G.G.G.G.",
"G.G.G.G.G.G.G.G.G.G.m.m.m.m.m.m.m.m.m.G.m.m.m.m.G.p = o. .% J  .. r Z.& s n n b c j : # a.G.G.G.G.G.G.G.G.G.G.G.G.G.G.G.G.G.G.G.",
"G.G.G.G.G.G.G.G.m.m.m.m.m.m.m.m.m.m.m.m.m.m.m.m.m.s.X q =.x n M X & / e X % % % % X 3 a.m.m.m.G.G.G.G.G.G.G.G.G.G.G.G.G.G.G.G.G.",
"I.).H.G.G.G.G.m.m.m.m.m.m.m.m.m.m.m.m.m.m.m.m.l.D * + ; v ; % v = X l % O X B T T / S.n.m.m.m.m.G.G.G.G.G.G.G.G.G.G.G.G.G.G.G.G.",
"`.&X).H.G.m.m.m.m.m.m.G.G.G.G.G.m.m.m.m.m.m.l.w g { :XT.O . o : c 8 ' q.6.4 w l.m.m.m.m.G.G.m.m.m.G.G.G.G.G.G.m.m.m.G.G.G.G.G.G.",
"`.&X*X).m.m.m.m.m.m.G.G.G.G.G.G.G.m.m.m.G.D.w o V >XjXkX+X+X+X@X@X@X6XyX>Xf . w k.m.m.G.G.G.G.m.m.m.G.G.G.G.m.m.m.m.m.G.G.G.m.m.",
"! 9.uX-X).H.G.G.G.G.G.G.G.G.G.G.G.m.m.G.G.s.+ l F 9.<X0XaXaXaXgXfXfX0X} h - 4 X e G.G.G.G.G.G.G.G.G.G.G.G.m.m.m.m.m.m.m.m.m.m.m.",
"~ g kXaX;X).D.G.G.G.G.G.G.G.G.G.G.G.G.G.G.e C  X2XqXrXeX7X7X3X8XqXwX9XQ.8.5.' X & g.G.G.G.m.m.m.m.G.G.G.G.m.m.m.m.m.m.m.m.m.m.m.",
"/ 4 uXhXaX~.r D.G.G.G.G.G.G.G.G.G.G.G.G.A.w 6.,X3XpXhXhXhXfXpXpXrXqX8X2X#Xq.5.- . ( m.m.m.m.m.m.m.m.G.G.m.m.m.m.G.G.G.m.m.m.m.m.",
"/ 4 9XjXhXlX< V.c.c.c.c.c.G.G.c.c.c.G.G./ 6 ;X8XpXkXkXjXsXiXiXiXrXqX8X&X&XW.q.S X 3 z.m.m.m.m.m.m.m.m.m.m.m.m.G.G.G.G.G.G.G.G.G.",
"/ 4 5XuXhXfXQ._.v.c.c.c.c.c.c.c.c.c.c.S., U.qX8X,XA XXdXqXqXqXqXqXqX8X&X&X~.0.7.; # l.m.m.m.m.m.m.m.m.m.m.m.m.G.G.G.G.G.G.G.G.G.",
"/ 4 5X,XuXfXiX;XC.L.L.L.c.c.c.L.L.c.c.) X Q.tX3XU.X T.dXrXqXqXqX8X2X-X&X&X^.q.5.% # h.G.G.m.m.G.G.G.m.m.m.m.G.G.G.G.G.G.G.G.G.G.",
"/ g <X,X0XsXsX@X& J.L.L.L.L.L.L.L.L.L.F X oXpX%XA   XXhXgXeX8X8X3X,X&X&X&X&XE.' l X B G.G.G.G.G.G.G.G.m.m.m.m.m.m.m.m.m.m.G.G.G.",
"K.h ` <X*X<XdXlX< F L.L.L.L.L.L.L.L.L.^ 9.0X2X/.# o XXfXgXrX3X-X&X&X&X&X&X&XE.q.' X y G.G.G.G.G.G.G.G.m.m.m.m.m.m.m.m.m.m.m.m.m.",
"L._ + Q.*X*X9XiX[ * h.m.m.L.L.L.L.L.J.2 } pX-X] O o XXsXtXqX8X*X&X&X&X&X&X&X~.q.Y X , V.L.G.G.G.D.a r R n.m.m.m.L.L.L.L.L.L.L.L.",
"G.S.3 Z &X&X<XqX1X- D n.m.m.m.L.L.m.p.. A oXY.6 . o { gXiXwXwX-X&X&X&X&X&X&X^.q.' X X N.G.G.G.D.r & - + N.L.L.L.L.L.L.L.L.L.L.L.",
"G.G.( & U.=X&X2XqX[ @ A.m.m.m.m.m.m.Q X o . X X X X O { } ` ` I F I <.&X^.!.7.Z 5 X X a.G.F.S.i & 8.I . ( G.G.G.G.G.G.G.G.G.G.G.",
"G.G.D.3 A |.&X$X<X1X< r G.G.G.G.m.b.1 # G < . X X X . o         N 9. X&X&X!.7.S X . & h.m.a.& F _.<.# X ( G.G.G.G.G.G.G.G.G.G.G.",
"L.L.L.a.# R.*XY.A 9X[ & B.G.G.G.G.D., 4 5XOXK . X . % < < < [ oX<X7X*X&X&X^.0.7.& . B k.B & F |.8.# X X ( G.G.G.G.G.G.G.G.G.G.L.",
"L.L.L.K.3 Z &X/.f OX1X- i G.G.G.m.b.& T.rX4XW.* . - @XuX0X5X8X7X,X&X&X_.^./.Y.A . X 7 u X F |.6.# 9 J ; ( G.G.G.G.G.G.G.G.G.L.L.",
"L.L.L.L._ & U.=XU 9.qX[ $ k.m.m.m.b.& T.tXsX<XF o A jXgXrXwX8X*X&X&X&XW.0.0.' & . . O 4 8.W.8.0  .=.&.; ( G.G.G.G.G.L.L.L.L.L.L.",
"G.G.G.L.P.3 A |.8.Z <X%X- i G.f.p g., U.8XpXeX~.X A aXqXqXqX2X&X&X&X&X^.0.7.- . X Z 6.W.R.U J =.-.=.&.; ( G.G.G.G.G.G.G.L.L.L.L.",
"G.G.G.G.L.N.# Y.|.I ` ,XI e r 2 5 3 + f <XwX8X$X* V aXrXqX7X*X&X&X&X&X' f K C ] /.~.~.W.W.r.:.=.=.=.&.; ( G.G.G.G.G.G.G.G.G.L.G.",
"G.G.G.G.G.S.w Z &XU.# U._.& % #.'.H . O T.wXwX7X@X+XeXqXwX4X&X&X*X&X~.# N 5X9XQ.[ A # F R..X:.=.=.=.&.; ( G.G.G.G.G.G.G.G.G.G.G.",
"G.G.G.G.G.G./ & Y._.4 Z |.` ; *.J v 0 . C <X7XeXfXfXiXqXqX7X*X|.W.] 4 . f %XK & 4 6.~.|.*X.X2.w.2.=.&.; _ L.L.m.m.m.G.G.G.G.G.G.",
"G.G.G.G.G.G.D.3 Z E.U O Y./.5 > ; @.,.X O F &X8XiXsXiXqXwX2X8.Z X X . . 6 %Xf S |.&X=X,X3X,Xi.w.=.=.&.; R m.m.m.m.m.m.m.m.m.m.G.",
"m.m.m.m.m.m.n.D O Y 7.4 4 Y.4 ; O.].@.X k d I 9XrXtXwX<XoXA # . X X % . 6 ;Xf <.*X&X*X2XqX2Xu.;.=.=.&.; R m.m.m.m.m.m.m.m.m.m.m.",
"m.m.m.m.G.F.( + . f 7.K . X ; ..;.3.q : c n O A Q.:X` A X . . O % z x O 6 |.6 <.*X&X-X2X3X}.i.:.=.=.&.; R m.m.m.m.m.m.m.m.m.m.m.",
"G.G.G.G.G./ 5 9 z % % # = x $.-...9 . d L X.z O # - . . X = d c m o.n . 6 |.S !.&X*X8X4X<X[.2.=.=.w.[.4 R m.m.m.m.m.m.m.m.m.G.G.",
"G.G.G.G.F.3 x P j O % z n +...9 ; # . O c +.L z O . O = z n L +.=.+.n X 6 |.K ~.&X&X,X-X,Xi.;.w.{.&X|.4 ( G.G.m.m.G.G.G.G.G.G.G.",
"G.G.G.G.G.i O O X % c b x : ; C 5.U # . = n o.L z : z n b X.%.-.=.o.m X 6 |.Y./.&X&X&X&X&X{.-X7X*X&X|.4 ( G.G.G.G.G.G.G.G.G.G.G.",
"G.G.G.G.G.D.e % z z z : O & 8. XE.7.- . . = o.+.m b b P %.=.=.=.=.O.n . 6 #XY.!.&X&X&X{.w.;XqX7X,X&X_.* ( G.G.G.G.G.G.L.L.L.L.L.",
"G.G.G.G.G.c.E # : d O . l U.&X=X X0.- . X . = X.%.o.%.=.-.-.=.=.O.X.c . 6 &X5.6.*X{.i.2.w.2X8X<X&X*X` . ( G.L.L.L.L.L.L.L.L.L.L.",
"G.G.G.G.c.c.x.N 1 1 # . U.*X&X&X X5.& & ^ & X > J %.&.&.&.&.%.X.b b c . 6 |.C ' i.w.2.u.'.,X3X-X&X#XS 7 K.L.L.L.L.L.L.L.L.L.L.G.",
"c.c.G.c.c.c.L.P.x.x.E O I |.|.!.7.4 . t P.1.& X X : j s s s j s s s d . 6 W.- v -.2.2.u.2.{.&X&X*XR.# _ L.L.L.L.L.L.L.L.L.G.G.G.",
"c.c.c.c.c.L.L.L.L.c.x.1 X 4 4 - & % % 3 K.P.J.y X . . . . . . . . . X . 4 0.- v -.=.:.;.i.&X&X&X_.l 3 S.G.G.G.G.G.G.G.G.G.G.G.c.",
"c.L.L.c.c.L.L.L.L.L.L.J.^ & # X % c z & J.L.L.K.y X X X 3 y r r , X X X & U S v -.=.=.=.u.&X=X_.l 2 B.G.G.G.G.G.G.G.G.G.G.G.G.c.",
"L.L.L.L.L.L.L.L.L.L.L.L.P.J.J.^ % z % & V.l.j.p.Q u X X & ( s.a., X + y u % U S  .-.=.;..X=X/.l 2 V.L.G.G.G.G.G.G.G.G.L.L.c.c.c.",
"L.L.L.L.L.G.G.G.L.L.L.L.L.G.G.B.3 & & t Q Q Q Q Q R 3 X + a s.i X X & / R 3 & Z -  .-.2.&X_.l 2 B.G.G.G.G.G.G.G.G.L.L.L.L.L.L.L.",
"L.L.L.L.G.G.G.G.G.L.L.L.G.G.G.m.z.k.R Q Q Q Q Q ~ , + X X w s.i X X X # B W 3 # & :  .2.~.l , B.G.G.G.G.G.G.G.L.L.L.L.L.L.L.L.L.",
"L.L.G.G.G.G.G.G.G.L.L.L.G.G.m.m.m.k.Q Q Q Q Q Q ~ i i i i p d.( D D D D T Q W 3 5 Y > J 0 , B.G.G.G.G.G.G.G.L.L.L.G.G.G.L.L.L.L.",
"G.G.G.G.G.G.G.G.G.G.G.L.G.G.m.m.m.k.Q Q Q Q Q Q Q Q Q Q Q s.d.Q Q Q Q Q Q s.s.W w l # X , B.G.G.G.G.G.G.L.L.L.L.G.G.G.G.G.L.L.L.",
"G.G.G.G.G.G.G.G.G.G.G.G.m.m.m.m.m.b.p.Q Q Q Q Q Q Q Q Q Q Q Q Q Q Q Q Q d.d.d.d.a.w X 1 h.m.G.G.G.G.G.G.G.G.G.G.G.G.G.G.G.G.G.G.",
"G.G.G.G.G.G.m.m.m.m.m.m.m.m.m.m.G.G.D.h.Q Q Q Q Q Q Q Q Q Q Q Q Q Q Q Q d.d.d.s.B.A.p B.G.G.G.G.G.G.G.G.G.G.G.G.G.G.G.G.G.G.G.G.",
"G.G.G.G.G.G.G.G.G.m.m.m.m.m.m.G.G.G.G.G.b.z.f.g.g.Q Q Q Q Q Q Q d.d.Q j.g.g.S.S.F.G.G.G.G.G.G.G.G.G.G.G.G.G.m.m.m.G.G.G.G.G.G.G.",
"G.G.G.G.G.G.G.G.G.G.G.G.m.m.m.G.G.G.G.G.m.G.G.G.G.A.Z.k.k.k.k.Z.Z.Z.A.n.n.G.G.G.G.G.G.G.G.G.G.G.G.G.G.G.G.m.m.m.m.m.G.G.G.G.G.G.",
"G.G.G.G.G.G.L.L.G.G.G.G.G.G.G.G.G.G.G.G.G.G.G.G.G.G.G.G.G.G.G.G.G.G.G.G.G.G.G.G.G.G.G.G.G.G.m.m.m.G.G.G.m.m.m.m.m.m.G.G.G.G.G.G.",
"G.G.G.G.G.L.L.L.L.G.G.G.G.L.L.L.L.G.G.G.G.G.G.G.G.G.G.G.G.G.G.G.G.G.G.G.G.G.G.G.G.G.G.G.G.m.m.m.m.m.m.m.m.m.m.m.m.m.G.G.G.G.G.G.",
"G.G.G.L.L.L.L.L.L.L.L.L.L.L.L.L.L.L.L.G.G.G.G.G.G.G.G.m.m.m.m.G.G.G.G.G.G.G.G.G.G.G.G.G.m.m.m.m.m.m.m.m.m.m.m.m.m.m.m.m.m.G.G.G.",
"m.m.L.L.L.L.L.L.L.L.L.L.L.L.L.L.m.m.m.m.G.G.m.m.m.m.m.m.m.m.m.m.m.G.G.m.m.m.m.G.G.G.G.m.m.m.m.m.m.m.m.m.m.m.m.m.m.m.m.m.m.m.m.m."
};
