/* XPM */
static char *test3[] = {
/* columns rows colors chars-per-pixel */
"64 64 209 2 ",
"   c #0E162A",
".  c #10172B",
"X  c #151B2E",
"o  c #181D2F",
"O  c #171D30",
"+  c #1A1E30",
"@  c #241F36",
"#  c #1E2232",
"$  c #232434",
"%  c #2A2434",
"&  c #262936",
"*  c #292A37",
"=  c #2B253A",
"-  c #2C2D39",
";  c #342635",
":  c #3B2937",
">  c #31273D",
",  c #34283F",
"<  c #38293A",
"1  c #2F313A",
"2  c #34333C",
"3  c #3A343E",
"4  c #3C3B3F",
"5  c #4A2E3A",
"6  c #44343D",
"7  c #54313C",
"8  c #5C343F",
"9  c #3B2B42",
"0  c #2C3140",
"q  c #353847",
"w  c #3C3A41",
"e  c #422D46",
"r  c #462E48",
"t  c #423C42",
"y  c #473049",
"u  c #4D324B",
"i  c #52344E",
"p  c #553A49",
"a  c #553551",
"s  c #593753",
"d  c #5C3854",
"f  c #623740",
"g  c #653942",
"h  c #6B3A43",
"j  c #743E46",
"k  c #613A56",
"l  c #6C3D52",
"z  c #653B59",
"x  c #6A3D5B",
"c  c #733F54",
"v  c #3F4346",
"b  c #4A4346",
"n  c #484748",
"m  c #4D4548",
"M  c #554448",
"N  c #544A4B",
"B  c #594D4D",
"V  c #5B524D",
"C  c #5F5251",
"Z  c #5A5D56",
"A  c #684C4C",
"S  c #7A444A",
"D  c #72405B",
"F  c #7A425A",
"G  c #635552",
"H  c #635A51",
"J  c #6A5A56",
"K  c #6E5D58",
"L  c #785652",
"P  c #715F59",
"I  c #5F6059",
"U  c #6E6356",
"Y  c #69635A",
"T  c #736657",
"R  c #74625A",
"E  c #7A655D",
"W  c #7B6A5D",
"Q  c #565B6B",
"!  c #7B6C60",
"~  c #797565",
"^  c #7C7A6A",
"/  c #747472",
"(  c #8B494C",
")  c #974A4E",
"_  c #844559",
"`  c #894758",
"'  c #954B57",
"]  c #944A58",
"[  c #885955",
"{  c #A34E52",
"}  c #A75055",
"|  c #AB5155",
" . c #A45058",
".. c #B65555",
"X. c #B95655",
"o. c #B75957",
"O. c #B95D59",
"+. c #8F635A",
"@. c #96665C",
"#. c #BA625C",
"$. c #846D62",
"%. c #9E6C60",
"&. c #817360",
"*. c #8B7365",
"=. c #8D7B63",
"-. c #907D65",
";. c #917768",
":. c #977B6B",
">. c #997D6C",
",. c #A76C60",
"<. c #BE6C61",
"1. c #AC7465",
"2. c #BB7365",
"3. c #B67A69",
"4. c #B97C6A",
"5. c #C16E62",
"6. c #C17566",
"7. c #C27768",
"8. c #C37B6A",
"9. c #679175",
"0. c #79A863",
"q. c #9BB94E",
"w. c #BFBA5B",
"e. c #8A856E",
"r. c #948066",
"t. c #9B8669",
"y. c #9C836C",
"u. c #908F76",
"i. c #969479",
"p. c #999378",
"a. c #A2856F",
"s. c #A38D6D",
"d. c #BF806C",
"f. c #A38670",
"g. c #A68B71",
"h. c #AB8D73",
"j. c #AE9373",
"k. c #A99673",
"l. c #B29475",
"z. c #B49A74",
"x. c #B89B77",
"c. c #BB9C79",
"v. c #BBA077",
"b. c #B1A37E",
"n. c #BDA279",
"m. c #C5836E",
"M. c #C8846E",
"N. c #CA8670",
"B. c #C3A47C",
"V. c #C6A87D",
"C. c #CAAC7F",
"Z. c #D3B17F",
"A. c #9D9A89",
"S. c #9A9895",
"D. c #A99E82",
"F. c #AEAA8F",
"G. c #AAA8A4",
"H. c #C4AC81",
"J. c #CEAE80",
"K. c #CDB283",
"L. c #C7B389",
"P. c #D5B583",
"I. c #D8B784",
"U. c #D7B887",
"Y. c #DABA86",
"T. c #D9BC8A",
"R. c #C7BD93",
"E. c #C2BEB9",
"W. c #DCC18E",
"Q. c #C9C396",
"!. c #DEC492",
"~. c #D9CA98",
"^. c #E0C58F",
"/. c #E2C995",
"(. c #E3CC98",
"). c #E6D29D",
"_. c #DDD6A2",
"`. c #E9D6A3",
"'. c #E3DCA6",
"]. c #ECDBA5",
"[. c #E8D5A9",
"{. c #EDDEA9",
"}. c #E5D1B3",
"|. c #EFE1AB",
" X c #EFE8AD",
".X c #F1E3AD",
"XX c #ECE0B9",
"oX c #F1E4B3",
"OX c #F2E6BB",
"+X c #F4EAB9",
"@X c #CDCFD5",
"#X c #ECDDC5",
"$X c #EEE4CC",
"%X c #F4EAC3",
"&X c #F1E4C9",
"*X c #F8F4CD",
"=X c #F6EED2",
"-X c #F4EBDE",
";X c #F7F0D6",
":X c #F8F3D9",
">X c #F8F3DB",
",X c #E1E1E1",
"<X c #FAF5E2",
"1X c #FDF9E5",
"2X c #FAF6E9",
"3X c #FCF9EC",
"4X c #FAF6F2",
"5X c #FDFCF5",
"6X c #FFFEFD",
/* pixels */
"q.q.q.q.q.w.w.w.w.w.w.w.w.w.w.0.0.0.0.0.0.0.0.0.0.0.0.0.0.0.o X X X X X X X X X 0.0.0.0.0.0.0.0.0.0.0.0.0.0.0.0.0.0.0.0.0.0.0.0.",
"q.q.q.q.q.q.w.w.w.w.w.w.q.0.0.0.q.q.q.0.0.0.0.0.0.0.0.0.X X $ - L L L [ [ N $ # X X 9.9.0.0.0.0.0.0.0.0.0.0.0.0.0.0.0.0.0.q.q.q.",
"q.q.w.w.w.w.w.w.w.w.w.q.q.q.q.q.q.q.q.q.q.q.q.0.0.0.0.X X 7 1.3.4.M L N.N.d.3.+.$ O X 9.9.q.q.q.q.q.q.q.q.9.9.9.9.0.0.0.q.q.q.q.",
"w.w.w.w.w.w.w.w.w.w.w.q.q.q.q.q.q.q.0.0.0.0.0.0.0.0.0.X M 4.M.3.6 * 1.M.m.m.m.m.@.% X X 9.9.9.9.9.9.q.q.9.9.9.9.9.9.9.0.q.q.q.q.",
"w.w.w.w.w.w.w.w.w.w.q.q.q.q.q.q.q.q.q.q.0.0.0.0.0.0.X M 4.M.m.M   L m.m.m.7.#.o.O.[ $ X X 9.9.9.9.9.9.9.9.w.w.w.9.9.9.9.q.q.q.w.",
"q.q.q.q.q.w.w.w.w.w.q.q.q.q.q.q.q.q.q.q.q.q.0.0.0.X $ 1.M.M.7.6 2 ,.m.m.7.......X.{ e 9 o 9.w.w.w.w.9.9.w.w.w.w.w.9.9.9.9.w.w.w.",
"P.P.q.q.q.q.w.w.w.w.w.q.w.w.q.q.q.q.q.q.q.q.q.q.q.X g 8.m.M.<.j 1.M.m.m.#...) h X...` a o w.w.w.w.w.w.w.w.w.w.w.w.w.w.w.w.w.q.q.",
"I.P.P.q.q.q.q.q.w.w.w.w.w.w.w.q.q.q.q.q.q.q.q.q.o . h 8.m.m.#.O.m.m.m.m.#...{ ; ) X.` a o w.w.w.w.w.w.w.w.w.w.w.w.w.w.w.w.w.q.q.",
"z.!.U.P.q.q.q.q.q.w.w.w.q.q.q.w.q.q.q.q.q.q.q.q.X $ [ <.M.8...6.m.m.m.<.....| : f X.) u X w.w.w.w.w.w.w.w.w.w.w.w.w.w.w.w.w.q.w.",
"2 E.#XP.P.q.q.q.q.q.q.q.q.q.q.q.q.q.q.q.q.q.q.q.. 6 M.m.m.8.X.2.m.m.8.#.....X.j # { | ; X w.w.w.w.w.w.w.w.w.w.w.w.w.w.w.w.w.w.w.",
"  S.6X#XU.l.w.w.q.q.q.q.q.q.q.q.q.q.q.q.q.q.q.q.. 3 1.m.m.m.<.7.m.m.m.7.O...X.j o { h X X w.w.q.q.w.w.w.w.q.q.w.w.w.w.w.w.w.w.w.",
". A.5X6X&X&.w.w.w.w.q.q.q.q.q.q.q.q.q.q.q.q.q.q.X X S M.m.m.8.8.m.m.m.m.O.....5 : ..f . o q.q.q.q.q.q.w.q.q.q.q.w.w.w.w.w.w.w.w.",
". i.*X6X6XG.n w.w.w.w.w.w.w.w.w.w.w.w.q.q.q.q.q.q.X 8 #.8.M.m.m.m.m.m.#.O.X.( @ s { 5 X q.q.q.q.q.q.q.q.q.q.q.q.w.w.w.w.w.w.w.w.",
". i. X-X6X>XW.P.w.q.q.q.q.q.q.q.q.q.q.q.q.q.q.q.q.X X g O.5.<.<.#.<.#.X.X.( % , D S o w.q.q.q.q.q.q.q.q.q.q.q.q.w.w.w.w.w.q.q.q.",
". p.^.T.2X>X&XC.q.q.q.q.0.0.0.0.0.0.q.q.q.q.q.q.q.q.X o ; j { X.O.X.X.{ 5 # % d k = X q.q.q.q.q.q.q.q.q.q.q.q.q.q.q.q.q.q.q.q.q.",
". e.).!.}.XX1XS.X q.0.0.0.0.0.0.0.0.0.q.0.0.0.0.q.q.q.X X X : g g g h < o 3 d x , X q.q.q.q.q.q.q.q.q.q.q.q.q.q.q.q.q.q.q.q.q.q.",
"q.2 b.!.Z.~.>XF.& 0.0.0.0.0.0.0.0.0.0.0.0.0.0.0.0.q.q.q.w.X X   . . . + = u x y O X X q.0.0.0.q.q.q.q.q.q.q.q.q.q.q.q.q.q.q.q.q.",
"q.. b P.P.W. X XI   0.0.0.0.0.0.0.0.0.0.0.0.0.0.0.w.w.w.X X n ~ $ . 9 i z z r t ~ * + O 0.0.0.0.q.q.q.q.q.q.q.q.q.q.q.q.q.q.q.q.",
"q.q.# =.Y.Z.). X^ X 0.q.q.q.q.q.0.0.0.0.0.0.0.0.0.0.0.O X & F..Xp.w @ @ m E C R.+XD.n X q.q.0.0.0.q.q.q.q.q.q.0.0.0.q.q.q.q.q.q.",
"q.q.. m V.Z.W. X_.1 o q.q.q.q.q.q.0.0.0.q.q.q.0.0.0.X X + . / *X;X=XS./ ~.#X=X%XG.0 3 & X X q.0.0.0.q.q.q.q.0.0.0.0.0.q.q.q.0.0.",
"0.q.q.o k.Y.I.Q._.u.. q.q.q.q.q.q.0.0.q.q.q.q.q.q.q.X 3 P t q Q @X@X,X5X3X5X4X$Xt.R *.K & X q.q.q.q.q.q.q.0.0.0.0.0.0.0.0.0.0.0.",
"0.0.0.o W Z.C.V b._.v q.q.q.q.q.q.q.q.q.q.q.q.q.q.X o W >.>.-.H ! / A.>X>X>X[.P.Z.l.>.*.w X X 0.0.q.q.q.q.0.0.0.0.0.0.0.0.0.0.0.",
"q.q.q.X 1 n.W.=.i.+Xe.o q.q.q.q.q.q.q.q.q.q.q.9.9.X m :.>.c.I.Y.)..X.X.X{.|.].T.P.C.>.;.R - . 0.0.0.q.q.0.0.0.0.q.q.q.0.0.0.0.0.",
"q.q.q.q.X T Z.k.Y _._.w 9.q.q.9.9.9.q.q.q.w.w.w.X X G >.f.J.I.^..X|..X|..X|.|.).P.P.c.y.>.2 X X X 0.0.0.0.0.0.q.q.q.q.q.q.q.q.q.",
"q.q.q.q.X - l.Y.H z. Xn X 9.9.9.9.9.9.q.w.w.w.w.X - *.a.x.I.P.).+X<X2X2X2X2XOX).P.P.P.a.:.K O + & . 0.0.0.0.0.q.q.q.q.q.q.q.q.q.",
"q.q.q.q.q.X U P.=.Y Q.k.o X 9.X o o 9.w.w.w.w.w.o B x.P.P.P.T.`..X<X6X6X6X5X+X.X!.P.P.l.:.;.3 & t.V & 0.0.0.q.q.q.q.q.q.q.q.q.q.",
"q.q.9.9.9.X 1 C.C.& v b.V X o A @.6 X w.w.w.w.X # *.a.l.C.P.T.`.{.+X=X6X5X=X{.|.`.P.I.V.>.>.G X U P.=.# X 0.0.0.0.0.0.0.0.q.q.q.",
"w.9.9.w.w.w.$ t.K.V o z.s.& % ,.4.4 X w.w.w.w.o + J :.>.l.C.P.P.W.(.OX6X%X.X|.|.{.Y.V.>.:.>.E & X H K.r.& . 0.0.0.0.0.0.0.0.0.0.",
"w.w.w.w.w.w.. - s.=.o H P.N % 6 4 g L o w.w.X X m E :.g.P./.).`.[.`.%X6X2X2XOX|.{.T.V.B.B.y.*.4 . # H C.r.2 o . w.w.w.w.w.w.w.w.",
"q.q.q.q.q.q.X X J >.b - =.s.# . h 6.@.X 0.0.X X K >.>.V.P.T.{.<X6X6X6X6X6X5X+X|.{.T.P.I.P.t.4 o X B N T t.j.G 2 X X w.w.w.w.w.w.",
"q.q.q.q.q.q.X X 2 ;.$.$ X 4 % g o.8.[ X 0.0.o X J >.>.C.I.T.{.OX=X6X5X5X6X=X{.|.{.U.P.P.c.y.*.> . G >.$.R y.B.z.-.2 * X q.q.q.q.",
"q.q.q.q.q.X # = & C J $ X 5 { ..X.( ; 0.0.0.X X J >.>.C.P.T.{..X{.oXoX.XoX.X{..X{.!.P.J.>.>.>.t . G >.:.a.s.-.-.t.L.H.Y Y Z # X ",
"w.w.w.q.  5 j i @ o + e i ' X.) 7 % . q.0.0.X X P >.>.V.P.T.{.|.oXoXoX|.|.|..X{.(.T.P.z.>.>.*.9   G y.:.>.$.C & & Z Z L.'.Q.& X ",
"w.w.w.w.. # $ + o d k x c j p 6 t & X 0.0.0.X X m E a.x.P.T.`.oX5X5X3X%X{.).).T.P.P.P.J.J.h.M t + G >.:.:.>.:.*.$.t & & &.n.& X ",
"w.w.w.w.w.X X # $ k k e @ # 4 =.>.m X X 0.0.o X X J x.P.P.P./..X;X6X6X<X=X).T.T.)./.P.P.P.l.>.C X C >.>.:.:.:.>.:.>.E + ^ n.#   ",
"q.q.q.w.w.X # e r e # X - s.H.J.g.*.* X q.q.X X 3 ;.>.a.V.C.W..XOX5X6X6X5XoX{.{..XT.P.B.l.:.>.w # R >.:.>.:.:.:.:.:.:.& ^ H.$ X ",
"q.q.q.q.w.w.X o X X X - k.I.I.I.B.*.* . q.q.q.X w ;.:.:.:.f.L.{.{.%X4X5X2X.X|..X{.B.P.B.g.>.E $ w >.>.:.:.:.:.:.:.:.;.- T n.# X ",
"q.q.q.q.q.q.X X X X X 6 I.I.I.V.:.t X X q.q.q.X X P >.:.:.a.c.T.W.`.].+XoX|.{.`.L.h.P.P.l.:.n X N >.:.:.:.:.:.:.:.:.>.K T n.# X ",
"q.q.q.q.q.q.q.q.q.q.X * G T x.J 2 X X q.q.q.q.q.X $ P >.:.V.P.P.P.!.`.|.{./.!.P.h.f.l.h.:.M O + C :.:.:.>.:.:.:.:.>.>.E W n.$ X ",
"q.q.q.q.q.q.q.q.q.q.q.X   X - + + = + X q.q.q.q.X X $ P >.a.V.J.P.)..X`.`./.T.P.f.:.:.! m X + + 2 *.:.:.:.:.:.>.:.:.:.-.k.v.$ X ",
"0.0.0.0.0.0.0.0.q.q.q.q.q.X X X > k $ X q.q.q.q.q.o X $ J :.:.V.I.^.(.W.I.(.{.j.:.E b $ O + a 9 X G >.:.:.:.>.:.:.:.:.;.x.v.$ X ",
"0.0.0.0.q.q.q.q.q.q.q.q.q.q.q.X + $ + X q.q.q.q.q.X X X # 2 R r.s.s.s.s.s.s.s.E t & . X e d x d = & *.>.:.:.:.:.:.:.;.N l.v.# X ",
"q.q.q.q.q.q.q.q.q.q.q.q.q.q.q.q.+ X X q.q.q.q.q.X X > 9 o O X X X X X o X X X o o $ r u x x a 9 = X B :.>.:.:.:.>.:.;.3 =.n.$ X ",
"q.q.q.q.q.q.q.q.q.q.q.q.q.q.q.q.q.q.9.9.9.9.9.q.X o i x s i = = = = = = = = = < d d x x x x k 9 X X 2 :.:.:.:.>.:.:.;.* V l.# X ",
"q.q.q.q.q.q.q.q.q.q.q.q.q.q.q.q.9.9.9.9.9.9.9.9.X = x x ] ] _ x x x x x x x x x x x x x x x x k #   2 :.>.:.:.:.:.:.;.* m y.# X ",
"q.q.q.q.q.q.q.q.q.q.q.q.q.q.q.9.9.9.w.w.w.9.9.9.X = x F ......} } } } | } ' F F F F ' ` ` | _ x 9 X 2 :.:.:.:.:.:.:.:.- G R + X ",
"q.q.q.q.q.9.9.9.9.9.q.q.9.9.9.9.9.w.w.w.w.w.w.9.X = z F ..............................F _ ` x z $   9 ;.:.:.:.:.:.>.K G R & X w.",
"q.q.q.q.9.9.9.9.9.9.9.9.9.9.9.9.9.w.w.w.w.w.w.w.X + u x ] ..........................} F ] D x d 9 X # B :.:.:.:.>.J 2 G & X w.q.",
"9.9.q.9.9.9.w.w.9.9.9.9.9.w.w.9.9.9.w.w.w.w.w.w.w.X = z F | X....................... ._ x x x > X q.X X N :.>.>.J # 2 & X q.q.q.",
"9.9.9.9.9.w.w.w.w.9.9.9.w.w.w.w.w.9.w.w.w.w.w.w.w.X X $ e ] ........................} _ x k , + X q.q.X X N :.G 2 N X X q.q.q.9.",
"9.w.w.9.9.w.w.w.w.w.w.w.w.w.w.w.w.w.w.w.w.w.w.w.w.w.X X O a F ' ..........X..... ._ x x x k > X X w.q.q.X X t # G m X q.q.q.q.9.",
"w.w.w.w.w.w.w.w.w.w.w.w.w.w.w.w.w.w.w.w.w.0.0.0.0.w.w.O X $ = u l x l l l l l l d s s d r $ X w.w.w.w.q.q.q.X X & + q.w.w.9.9.9.",
"w.w.w.w.w.q.q.q.w.w.w.w.w.q.q.q.q.w.w.w.0.0.0.0.0.0.X o X X X + o o + X + + O O + + + + o X w.w.q.q.q.q.q.q.q.X X w.w.w.w.w.w.w.",
"w.w.w.w.q.q.q.q.q.w.w.w.q.q.q.0.0.0.0.0.0.0.0.0.0.0.X o o X X X q.0.0.0.0.X X X X X X X + q.q.q.q.q.q.q.q.q.q.w.w.w.w.w.w.w.w.w.",
"w.w.q.q.q.q.q.q.q.w.w.w.q.q.0.0.0.0.0.0.0.0.0.0.0.q.X X X X q.q.0.0.0.0.0.0.0.0.o X X X X q.q.q.q.q.q.q.q.q.w.w.w.q.q.q.w.w.w.w.",
"q.q.q.q.q.q.q.q.q.q.q.w.q.q.0.0.0.0.0.0.0.0.0.0.0.0.0.X X o q.0.0.0.0.0.0.q.q.0.X X o X q.q.q.q.q.q.q.q.w.w.w.w.q.q.q.q.q.w.w.w.",
"q.q.q.q.q.q.q.q.q.q.q.q.0.0.0.0.0.0.0.0.0.0.0.0.0.0.0.o X X X 0.0.0.0.0.q.q.q.q.+ X X 0.0.0.q.q.q.q.q.q.q.q.q.q.q.q.q.q.q.q.q.q.",
"q.q.q.q.q.q.0.0.0.0.0.0.0.0.0.0.q.q.q.0.0.0.0.0.0.0.X X X + X 0.0.0.0.0.q.q.q.q.X X X X q.q.q.q.q.q.q.q.q.q.q.q.q.q.q.q.q.q.q.q.",
"q.q.q.q.q.q.q.q.q.0.0.0.0.0.0.q.q.q.q.q.0.0.q.q.q.0.0.X X o X 0.q.q.0.0.q.q.q.q.X X X X X q.q.q.q.q.q.q.q.q.0.0.0.q.q.q.q.q.q.q.",
"q.q.q.q.q.q.q.q.q.q.q.q.0.0.0.q.q.q.q.q.0.q.q.q.q.q.q.0.0.0.0.q.q.q.q.0.0.q.q.q.q.q.q.q.q.q.q.q.q.q.q.q.q.0.0.0.0.0.q.q.q.q.q.q.",
"q.q.q.q.q.q.w.w.q.q.q.q.q.q.q.q.q.q.q.q.q.q.q.q.q.q.q.q.q.q.q.q.q.q.q.q.q.q.q.q.q.q.q.q.q.q.0.0.0.q.q.q.0.0.0.0.0.0.q.q.q.q.q.q.",
"q.q.q.q.q.w.w.w.w.q.q.q.q.w.w.w.w.q.q.q.q.q.q.q.q.q.q.q.q.q.q.q.q.q.q.q.q.q.q.q.q.q.q.q.q.0.0.0.0.0.0.0.0.0.0.0.0.0.q.q.q.q.q.q.",
"q.q.q.w.w.w.w.w.w.w.w.w.w.w.w.w.w.w.w.q.q.q.q.q.q.q.q.0.0.0.0.q.q.q.q.q.q.q.q.q.q.q.q.q.0.0.0.0.0.0.0.0.0.0.0.0.0.0.0.0.0.q.q.q.",
"0.0.w.w.w.w.w.w.w.w.w.w.w.w.w.w.0.0.0.0.q.q.0.0.0.0.0.0.0.0.0.0.0.q.q.0.0.0.0.q.q.q.q.0.0.0.0.0.0.0.0.0.0.0.0.0.0.0.0.0.0.0.0.0."
};
