/* XPM */
static const char *player4_r[] = {
/* columns rows colors chars-per-pixel */
"64 64 229 2 ",
"   c #0F162A",
".  c #151B2D",
"X  c #191D2F",
"o  c #11172A",
"O  c #1B1E31",
"+  c #221F33",
"@  c #1B212F",
"#  c #1F282F",
"$  c #1D2231",
"%  c #232334",
"&  c #232A33",
"*  c #2C2539",
"=  c #2B2D38",
"-  c #2B2634",
";  c #35293D",
":  c #362839",
">  c #2A3432",
",  c #2C343B",
"<  c #2D3D3A",
"1  c #263437",
"2  c #313535",
"3  c #343C35",
"4  c #34343D",
"5  c #3B343C",
"6  c #3B3A3F",
"7  c #393937",
"8  c #472E3A",
"9  c #49343D",
"0  c #50333D",
"q  c #2F413C",
"w  c #31433D",
"e  c #364236",
"r  c #4B5B3A",
"t  c #48523A",
"y  c #55573F",
"u  c #45483A",
"i  c #53643C",
"p  c #5A6D3E",
"a  c #5F723F",
"s  c #3C2B43",
"d  c #362940",
"f  c #3C3B41",
"g  c #323848",
"h  c #282F42",
"j  c #422D45",
"k  c #462F48",
"l  c #413E42",
"z  c #4D324C",
"x  c #573548",
"c  c #5B3753",
"v  c #693B47",
"b  c #6A3D5B",
"n  c #663B57",
"m  c #723F55",
"M  c #783F47",
"N  c #3C4645",
"B  c #3D4B4A",
"V  c #454244",
"C  c #4A4545",
"Z  c #4B4B4B",
"A  c #4B4746",
"S  c #574A4B",
"D  c #435C46",
"F  c #5B564A",
"G  c #515255",
"H  c #664B4B",
"J  c #7B454B",
"K  c #74405A",
"L  c #7E4355",
"P  c #645A52",
"I  c #685954",
"U  c #725C57",
"Y  c #61584E",
"T  c #4E6D4C",
"R  c #496449",
"E  c #53724E",
"W  c #5A7C52",
"Q  c #577650",
"!  c #4A6857",
"~  c #666743",
"^  c #657940",
"/  c #687E42",
"(  c #797948",
")  c #6B6559",
"_  c #78655B",
"`  c #7F705C",
"'  c #777666",
"]  c #686B75",
"[  c #6B6A68",
"{  c #844349",
"}  c #89474D",
"|  c #834559",
" . c #8A4756",
".. c #9B4D55",
"X. c #964B58",
"o. c #985657",
"O. c #8F5653",
"+. c #A24F55",
"@. c #A24F58",
"#. c #AB5255",
"$. c #A45757",
"%. c #B55555",
"&. c #B95655",
"*. c #B95C59",
"=. c #B75957",
"-. c #807F4A",
";. c #88655B",
":. c #98675D",
">. c #82725E",
",. c #BB635C",
"<. c #B3665E",
"1. c #A4695F",
"2. c #836D62",
"3. c #867560",
"4. c #8D7466",
"5. c #8D7B64",
"6. c #857B6A",
"7. c #957A6A",
"8. c #977C6B",
"9. c #BD6B61",
"0. c #B06C60",
"q. c #BC7967",
"w. c #A87263",
"e. c #C17465",
"r. c #C37C6A",
"t. c #C27767",
"y. c #5F8355",
"u. c #6C8142",
"i. c #708743",
"p. c #728944",
"a. c #7B9346",
"s. c #658C58",
"d. c #608555",
"f. c #6B945B",
"g. c #6E995D",
"h. c #719D5F",
"j. c #679175",
"k. c #699367",
"l. c #75A361",
"z. c #78A763",
"x. c #79A863",
"c. c #87864C",
"v. c #839C48",
"b. c #9B9B55",
"n. c #94924F",
"m. c #87A149",
"M. c #8CA74A",
"N. c #92AE4C",
"B. c #95B14C",
"V. c #99B74E",
"C. c #9BB94E",
"Z. c #9EB951",
"A. c #A9A655",
"S. c #B1AD57",
"D. c #BFBA5B",
"F. c #B9B459",
"G. c #A8B959",
"H. c #968267",
"J. c #9A8469",
"K. c #938D78",
"L. c #A1896D",
"P. c #A58870",
"I. c #AD9272",
"U. c #A6997A",
"Y. c #B19474",
"T. c #B59A75",
"R. c #BB9D79",
"E. c #B89D77",
"W. c #B48F6F",
"Q. c #BAB76A",
"!. c #BAA176",
"~. c #BBA578",
"^. c #ACAB73",
"/. c #9DA360",
"(. c #C6836E",
"). c #C8856F",
"_. c #C98670",
"`. c #C98C73",
"'. c #CC9976",
"]. c #D09F7F",
"[. c #CAAC7E",
"{. c #C6A67C",
"}. c #D1A67C",
"|. c #8D8D8E",
" X c #A8A183",
".X c #B9AD8B",
"XX c #A2A6AE",
"oX c #B4AEB2",
"OX c #CEAF80",
"+X c #C6AE81",
"@X c #CCB589",
"#X c #D5B583",
"$X c #D7B986",
"%X c #D9B985",
"&X c #DABD8B",
"*X c #D5B989",
"=X c #CDB995",
"-X c #C5BBAC",
";X c #DCC28E",
":X c #DAC796",
">X c #C9C497",
",X c #E2CA97",
"<X c #E5D29C",
"1X c #EAD39F",
"2X c #DED5A4",
"3X c #D3C3BD",
"4X c #E9D5A2",
"5X c #EBDCA5",
"6X c #EBDEA8",
"7X c #E3D6A7",
"8X c #E4D1AB",
"9X c #EFE1AB",
"0X c #F0E2AC",
"qX c #EFE1B1",
"wX c #F1E5B4",
"eX c #F5E9BE",
"rX c #EADDC8",
"tX c #EAE3CD",
"yX c #F4EBC3",
"uX c #F5ECCB",
"iX c #F4EBD7",
"pX c #F9F3DA",
"aX c #FAF1CE",
"sX c #FDFAEB",
"dX c #FAF7E8",
"fX c #FFFEFC",
"gX c #FCFAF3",
"hX c #EAE9E8",
"jX c #CDCBC7",
/* pixels */
"C.C.C.C.C.D.D.D.D.D.D.D.D.D.D.x.x.x.x.x.x.x.x.x.x.x.x.x.x.x.x.x.x.x.x.x.x.x.x.x.x.x.x.x.x.x.x.x.x.x.x.x.x.x.x.x.x.x.x.x.x.x.x.x.",
"C.C.C.C.C.C.D.D.D.D.D.D.C.x.x.x.C.C.C.x.x.x.x.x.x.x.x.x.x.x.x.x.x.x.x.x.x.x.x.x.j.j.j.j.x.x.x.x.x.x.x.x.x.x.x.x.x.x.x.x.x.C.C.C.",
"C.C.D.D.D.D.D.D.D.D.D.C.C.C.C.C.C.C.C.C.C.C.C.z.z.z.z.z.z.x.x.x.x.z.x.x.x.x.x.j.j.j.j.j.j.C.C.C.C.C.C.C.C.j.j.j.j.x.x.x.C.C.C.C.",
"D.D.D.D.D.D.D.D.D.D.D.C.C.C.C.C.C.C.x.x.x.z.f.D A V < < q y.f.z.x.x.x.j.j.j.x.j.j.j.j.j.j.j.j.j.j.j.C.C.j.j.j.j.j.j.j.x.C.C.C.C.",
"D.D.D.D.D.D.D.D.D.D.C.C.C.C.C.C.C.C.C.C.x.E $ $ { +.H H H = & D T l.j.j.j.j.j.j.j.j.j.j.j.j.j.j.j.j.j.j.j.D.D.D.j.j.j.j.C.C.C.D.",
"C.C.C.C.C.D.D.D.D.D.C.C.C.C.C.C.C.C.C.C./ $ % 8 $.r.).(.r.1.:.9 : 1 ! j.j.j.D.D.D.D.j.j.j.j.D.D.D.D.j.j.D.D.D.D.D.j.j.j.j.D.D.D.",
"C.C.C.C.C.C.D.D.D.D.D.C.D.D.C.C.C.C.C.M.> % { %.,.r.(.9.=.e._.r.<.U 5 ! D.D.D.D.D.D.D.j.j.D.D.D.D.D.D.D.D.D.D.D.D.D.D.D.D.D.C.C.",
"C.C.C.C.C.C.C.C.D.D.D.D.D.D.D.C.C.C.N.r % v %.9.r.(.(.r.r.t.t.(.(.r...5 c.D.D.D.D.D.D.j.D.D.D.D.D.D.D.D.D.D.D.D.D.D.D.D.D.D.C.C.",
"D.D.C.C.C.C.C.C.C.D.D.D.C.C.C.D.C.C.i.. : +.%.*.(._.).).(.e.,.9.).).r.J & c.D.D.D.D.D.D.D.D.D.D.D.D.D.D.D.D.D.D.D.D.D.D.D.D.C.D.",
"D.D.D.C.C.C.C.C.C.C.C.C.C.C.C.C.C.B.e % x @.%.&.$.;.;.:.(.(.r.,.o.w._.q.v 5 A.D.D.D.D.D.D.D.D.D.D.D.D.D.D.D.D.D.D.D.D.D.D.D.D.D.",
"D.D.D.C.C.C.D.D.C.C.C.C.C.C.C.C.C.B.> * m ..#.v : . . % S w.).r.O.5 :._.0.8 n.C.C.C.D.D.D.D.D.C.C.D.D.D.D.C.C.D.D.D.D.D.D.D.D.D.",
"D.D.D.C.C.D.D.D.D.D.C.C.C.C.C.C.C.B.> k | #.} ; ; ; % . . 5 w.r._.O.5 :.r.x e C.C.C.C.D.D.C.C.C.C.C.C.D.C.C.C.C.D.D.D.D.D.D.D.D.",
"D.D.D.D.D.D.D.D.D.D.D.D.D.D.D.D.D.F.2 k #.&...b b b c % . . : J e.e.; S 9.x e V.C.C.C.D.C.C.C.C.C.C.C.C.C.C.C.C.D.D.D.D.D.D.D.D.",
"D.D.D.D.D.D.D.D.D.C.C.C.C.C.C.C.C.V.r O m ..@.K b b b c % . . ; ..9.0 } X.j e V.C.C.C.D.C.C.C.C.C.C.C.C.C.C.C.C.D.D.D.D.D.C.C.C.",
"C.C.C.C.C.C.C.C.C.C.C.C.x.x.x.x.x.x.a.& d b X. .| b b b ; > & O J ..x  . .s e V.C.C.C.C.C.C.C.C.C.C.C.C.C.C.C.C.C.C.C.C.C.C.C.C.",
"C.C.C.C.C.C.C.C.C.C.x.x.x.x.x.x.x.x.x.u.$ ; j c b n n s & m.y . { J % {  .* p C.C.C.C.C.C.C.C.C.C.C.C.C.C.C.C.C.C.C.C.C.C.C.C.C.",
"C.C.C.C.C.C.C.C.x.x.x.x.x.x.x.x.x.x.x.x.Q 1 . % % % % X t ( & . M n x %.0 . i.C.C.C.C.C.x.x.x.C.C.C.C.C.C.C.C.C.C.C.C.C.C.C.C.C.",
"C.C.C.C.C.C.C.x.x.x.x.x.x.x.x.x.x.x.x.x.x.h.T R T F . X & l . * v % * v - @ & D g.C.C.x.x.x.x.x.C.C.C.C.C.C.C.C.C.C.C.C.C.Z.Q.G.",
"C.C.C.C.C.x.x.x.x.x.x.C.C.C.C.C.x.x.x.x.x.x.x.x.g.w 4 3.8._ + c ; o . O K.=X] g w g.x.x.C.C.x.x.x.C.C.C.C.C.C.x.x.x.C.C.Z.Q.#XQ.",
"C.C.C.x.x.x.x.x.x.x.C.C.C.C.C.C.C.x.x.x.C.C.C.g.q . f -XrX3XoX-XoXXXXXXXhXgX-XN o w l.C.C.C.C.x.x.x.C.C.C.C.x.x.x.x.x.Z.Q.$X#X/.",
"x.C.C.C.C.C.C.C.C.C.C.C.C.C.C.C.C.x.x.C.C.C.C.t . 4 = h [ 8XsXsXdXiXiXiX8X:X6.F l @ p.C.C.C.C.C.C.C.C.C.C.x.x.x.x.x.x.^.*XtX6.Q ",
"x.x.x.x.C.C.C.C.C.C.C.C.C.C.C.C.C.C.C.C.C.C.a.& . _ 2.5.U.7X9X9X6X<X4X4XqXwX9X,X{.l t C.C.x.x.x.x.C.C.C.C.x.x.x.x.l.^.*XiXhXg T ",
"C.C.C.C.C.C.C.C.C.C.C.C.C.C.C.C.C.C.C.C.C.C./ . = 2.8.OX,X6X9XwXuXuXsXfXfXfXiX<X;X3.< g.x.x.x.x.x.x.C.C.x.x.x.x.B.r T.iXfXtX4 T ",
"C.C.C.C.C.C.C.C.j.j.j.j.j.C.C.j.j.j.C.C.C.S.e . S 8.I.#X$X5X9XwXyXyXyXpXgXhXhXuX6X*X6 T x.x.x.x.x.x.x.x.x.x.x.C.b., jXfXgX7X4 ^ ",
"C.C.C.C.C.C.C.j.j.j.j.j.j.j.j.j.j.j.j.C.D.A.& = 4.7.T.$X$X5X9X9X9X9X9X9XaX|.A ;X6X6X5.& h.x.x.x.x.x.x.x.x.x.x.G.!.U.sXfXtX2X4 ^ ",
"C.C.C.C.C.j.j.j.D.D.D.D.j.j.j.D.D.j.j.D.D.b.& % 2.8.R.$X$X&X,X6X9X9X9XwXaXK.X H.<XeXU.. p x.x.C.C.C.x.x.x.x.C.b.*XyXsXtX;X2X4 ^ ",
"C.C.j.j.j.j.D.D.D.D.D.D.D.D.D.D.D.D.D.D.D.y . l _ P.#X#X#X#X;X<X9X9XwXdXfX|.  A @XuX XX r C.C.C.C.C.C.x.x.x.f.& oXpXpX8X;X:X4 ^ ",
"D.j.j.D.D.D.D.D.D.D.D.D.D.D.D.D.D.D.D.D.D.y . _ 8.P.#X#X#X#X#X$X&X<XwXdXsX|.o $ E.,X8X6.i C.C.C.C.C.C.x.x.x.B , jXaX:X$X:X) w h.",
"D.D.D.D.D.D.D.D.D.D.x.z.E F ( F.D.D.D.D.b.2 . _ 8.T.#X#X#X#X#X#X$X6X9XeXpX|.o X ` &XaX[ 2 m.C.C.C.C.C.x.x.s.& ' yX5X$X%XU.$ ( D.",
"C.C.C.C.C.C.D.D.x.x.x.W @ = & F F.x.x.x.W . . _ 8.R.#X#X#X$X$X$X&X0X0XyXdX] o . 6 L. XZ . p.C.C.C.C.x.x.D.~ = >X9X:X#X#XC 7 S.D.",
"C.C.C.C.C.C.C.C.C.C.C./ . P 5.& D h.z.x.W . . 5 C 4.Y.R.OX>.Y F P ) ) [ ] O . . . . . . . i.C.C.C.C.C.C.M.# ' 9X,X#X%XH.& ^ C.C.",
"C.C.C.C.C.C.C.C.C.C.C./ . & >.~.F & W x.s.& . X S 7.Y.#X#X{.6.N         o . . . . . , G $ 3 B.C.C.C.C.C.r , >X:X+X#X[.S 3 B.C.C.",
"D.D.D.C.C.C.C.C.C.C.C./ X X $ 5.[.F & t g.N . & 4.8.R.%X#X%X1X:X X' , , , % . . . F .X8X4 > B.C.C.C.C.v.& ' 7XZ J.%XJ.$ u.C.C.D.",
"D.D.D.D.C.C.C.C.C.C.C./ - J 8 $ 3.[.F . < < . . S L.E.R.R.#X$X;X4X6X2X8XtXoX= . = I.4XwXK.> B.C.C.C.V.i = >X.Xf E.#XC 3 M.C.D.D.",
"D.D.D.D.D.D.D.C.C.C.C.E - #.%.{ 9 5.Y.5.4 X . . & _ 7.7.I.#X#X#X$X5X0XwXdXgXZ o F :XpXeXK.> B.C.C.C.m.& ' 6X6.I %XH.& ( D.D.D.D.",
"C.C.C.D.D.D.D.D.C.C.C./ - #.%.&.%.J I L.I.3.A . . = 4.7.R.$X#X#X#X,X9X9X9XiXZ @ T.qXuX5XH.> a.p a.C.i = @X:XC 5.[.S 3 B.D.D.D.D.",
"C.C.C.C.D.D.D.D.D.C.C./ - #.%.%.%.=.q.I.I.T.T.E.` V P f _ #X#X#X#X$X4X9XwXiXN = +X6X0X:Xf @ 4 5 2 r t P :X) P [.L.$ u.C.C.C.D.C.",
"C.C.C.C.C.C.C.C.C.C.C./ - #.%.%.%.=.}.L.F $ A ' U.7X2XN $ T.$X%X$X#X1X9X9X9XXXoX4X0X0XK.O . H (.O.% & !.H.$ H.#XC e M.C.C.C.C.C.",
"C.C.C.C.C.C.C.C.C.C.C./ - #.%.,.9.,.}.%X[.T.>.4 & P @Xf . 4 ` I.[.%X4X9X9XyXsXsXqX4X:XV . 9 v J $.- ) [.C 4 !.J.& T C.C.C.C.C.C.",
"C.C.C.C.C.C.C.C.C.C.C./ - #.%.%.9.e.;X<X:X%X$X[.S f *X6 . . . . A 5.,X0X0XyXpXeX6X@XS O . :.o.- : 5 E.J.O I P.A 1 l.x.x.x.x.x.C.",
"x.x.x.x.x.x.x.x.C.C.C./ - #.%.%.*.r.,X9X,X$X#X%X>.f *X6 . % . . . $ Z  X:X0XeXwX7XP d k X :.).o.- 4 H.4 4 7.U X D z.x.x.x.x.x.x.",
"x.x.x.x.C.C.C.C.C.C.C./ - #.%.%.=.e.].<X,X&X#X%X>.6 [.6 O c z % O . . . A ) =XU.Z O n c ; 0 <.*.} : X . Y 4.f . $ E z.x.x.x.x.x.",
"C.C.C.C.C.C.C.C.C.C.C./ 4 `.9.%.%.,.`.:X<X5X$X$XY.S [.6 . n  .m c d * . . . = $ O z | K d . 8 } %.+.x * $ & % z 8 5 E x.x.x.C.C.",
"C.C.C.C.C.C.C.C.C.C.C./ 4 [.#X'.e.*.e.;X&X;X$X$XT.Y [.6 X n ..%...K n z * O . O z K X.c O . O - 8 } X.n z % O j L x 3 V.C.C.C.C.",
"C.C.C.C.C.C.C.C.C.C.C./ 4 [.#X$X4X&X'.#X#X#X#X#XE.J.OX6 X m  .%.&.@.| b n z ; z K  .n * . $ I 2.V - ; c b c % . O X i C.C.C.C.C.",
"C.C.C.C.C.C.C.C.C.C.C./ = E.#X;X5X9X*X9.'.#X$X$XY.J.OX6 . n @.%.%.%.%.@.| b b m X. .* . . = 7.P.{.5.& O ; z z z % t B.D.D.D.D.D.",
"C.C.C.C.C.j.j.j.j.j.C./ . ) %X$X:X5X,X9.,.t.'.%X3.2.#X6 X c | ..%.%.%.&.%.@. .@.| * . . . = 7.{.%X$XH.l . O d ; & c.D.D.D.D.D.D.",
"C.C.C.C.j.j.j.j.j.j.j.j.1 S [.#X&X<X;X(.r.,.9.e._ V {.6 X c b b | @.#.#.#.#.+.J : . & ~ & & 2.{.$X#X%XH.. & 7 3 t F.D.D.D.D.D.C.",
"j.j.C.j.j.j.D.D.j.j.j.j.! $ L.%X#X$X'.,.r.,.,.&.v = I.6 . d s s s j j j j j ; X . & -.F.t . 4 4.Y.[.[.P @ -.F.F.F.D.D.D.D.C.C.C.",
"j.j.j.j.j.D.D.D.D.j.j.j.A.3 l !.$X#X#Xe.=.=.%.&.v = 7.4 . . . . . . . . . . . . y A.D.S.3 % + & = 4 4 X 3 N.C.C.C.C.C.C.C.C.C.j.",
"j.D.D.j.j.D.D.D.D.D.D.D.D.b.2 l !.%X#Xr.%.%.%.&.v S U & X . . > r r F 3 . . . N h.D.D.A.& z c O X $ & p m.C.C.C.C.C.C.C.C.C.C.j.",
"D.D.D.D.D.D.D.D.D.D.D.D.D.D.b.2 l !.$X}.*.%.&.{ S I % u y @ . > u.p./ & . . w W y.d.A.b.& % z % ~ A.A.V.C.C.C.C.C.C.C.D.D.j.j.j.",
"D.D.D.D.D.C.C.C.D.D.D.D.D.C.C.v.> l !.#X,.&.{ - C % e u.( & . . i p.a @ . 1 E W W W c.c.u & & 3 v.C.C.C.C.C.C.C.C.D.D.D.D.D.D.D.",
"D.D.D.D.C.C.C.C.C.D.D.D.C.C.C.x.s.1 l T.,.{ ; & $ < u.r $ . . . i W < . . $ 1 T W W p.p.u.u.v.N.C.C.C.C.C.C.C.D.D.D.D.D.D.D.D.D.",
"D.D.C.C.C.C.C.C.C.D.D.D.C.C.x.x.x.s.1 9 J - U 5 < u.p.p i i i i E W R D D D D T W W W p.p.i.v.C.C.C.C.C.C.C.D.D.D.C.C.C.D.D.D.D.",
"C.C.C.C.C.C.C.C.C.C.C.D.C.C.x.x.x.x.s.1 X $ l w Q W W W W p.i.W W W W W W p.i.W W W W W p.i.v.C.C.C.C.C.D.D.D.D.C.C.C.C.C.D.D.D.",
"C.C.C.C.C.C.C.C.C.C.C.C.x.x.x.x.x.x.x.s.1 . w E W W W W W W W W W W W W p.p.p.p.p.W W W W d.B.C.C.C.C.C.C.C.C.C.C.C.C.C.C.C.C.C.",
"C.C.C.C.C.C.x.x.x.x.x.x.x.x.x.x.C.C.C.x.s.R g.s.W W W W W W W W W W W W p.p.i.i.i.i.p.p.v.B.C.C.C.C.C.C.C.C.C.C.C.C.C.C.C.C.C.C.",
"C.C.C.C.C.C.C.C.C.x.x.x.x.x.x.C.C.C.C.C.x.x.C.V.B.g.d.d.d.W W W i.i.W W i.i.i.a.a.a.M.N.C.C.C.C.C.C.C.C.C.C.x.x.x.C.C.C.C.C.C.C.",
"C.C.C.C.C.C.C.C.C.C.C.C.x.x.x.C.C.C.C.C.x.C.C.C.C.C.C.z.z.g.f.m.m.m.m.f.f.m.M.C.C.C.C.C.C.C.C.C.C.C.C.C.C.x.x.x.x.x.C.C.C.C.C.C.",
"C.C.C.C.C.C.D.D.C.C.C.C.C.C.C.C.C.C.C.C.C.C.C.C.C.C.C.C.C.C.C.C.C.C.C.C.C.C.C.C.C.C.C.C.C.C.x.x.x.C.C.C.x.x.x.x.x.x.C.C.C.C.C.C.",
"C.C.C.C.C.D.D.D.D.C.C.C.C.D.D.D.D.C.C.C.C.C.C.C.C.C.C.C.C.C.C.C.C.C.C.C.C.C.C.C.C.C.C.C.C.x.x.x.x.x.x.x.x.x.x.x.x.x.C.C.C.C.C.C.",
"C.C.C.D.D.D.D.D.D.D.D.D.D.D.D.D.D.D.D.C.C.C.C.C.C.C.C.x.x.x.x.C.C.C.C.C.C.C.C.C.C.C.C.C.x.x.x.x.x.x.x.x.x.x.x.x.x.x.x.x.x.C.C.C.",
"x.x.D.D.D.D.D.D.D.D.D.D.D.D.D.D.x.x.x.x.C.C.x.x.x.x.x.x.x.x.x.x.x.C.C.x.x.x.x.C.C.C.C.x.x.x.x.x.x.x.x.x.x.x.x.x.x.x.x.x.x.x.x.x."
};
