/* XPM */
static const char *player2_r[] = {
/* columns rows colors chars-per-pixel */
"64 64 236 2 ",
"   c #151C2E",
".  c #191E2F",
"X  c #11172A",
"o  c #1B1E31",
"O  c #0E1529",
"+  c #1A212F",
"@  c #1F292F",
"#  c #1D2331",
"$  c #1E2932",
"%  c #232334",
"&  c #242A33",
"*  c #2A2C36",
"=  c #2C253A",
"-  c #2D2D39",
";  c #2B2534",
":  c #36293D",
">  c #3B2B3A",
",  c #362739",
"<  c #2A3233",
"1  c #2B3538",
"2  c #2A3737",
"3  c #34333C",
"4  c #383A39",
"5  c #432D39",
"6  c #4B2E3B",
"7  c #47323C",
"8  c #5A343F",
"9  c #52313D",
"0  c #2F413B",
"q  c #354235",
"w  c #3B4A36",
"e  c #32443D",
"r  c #3D4539",
"t  c #45473A",
"y  c #4B5A3A",
"u  c #4A533B",
"i  c #55573F",
"p  c #52633C",
"a  c #596B3E",
"s  c #5F723F",
"d  c #4F603C",
"f  c #3B2B43",
"g  c #352940",
"h  c #3A3A41",
"j  c #2B3141",
"k  c #412D45",
"l  c #472F47",
"z  c #493546",
"x  c #563847",
"c  c #583652",
"v  c #693A46",
"b  c #743E4A",
"n  c #653B59",
"m  c #6B3E5B",
"M  c #643B55",
"N  c #713F5B",
"B  c #3B4C4D",
"V  c #454345",
"C  c #4A4545",
"Z  c #4C4947",
"A  c #554D4B",
"S  c #584749",
"D  c #435C46",
"F  c #4D504E",
"G  c #5B554C",
"H  c #555652",
"J  c #424757",
"K  c #66494A",
"L  c #7C444A",
"P  c #74405A",
"I  c #7D4255",
"U  c #6A5C55",
"Y  c #675A53",
"T  c #775955",
"R  c #61584F",
"E  c #4B674A",
"W  c #546B4A",
"Q  c #53724E",
"!  c #5A7C52",
"~  c #577851",
"^  c #5F6058",
"/  c #676843",
"(  c #657941",
")  c #6A6459",
"_  c #74625A",
"`  c #78695B",
"'  c #75764E",
"]  c #555966",
"[  c #5B6F6C",
"{  c #6C6D64",
"}  c #797466",
"|  c #6C6774",
" . c #727374",
".. c #85454C",
"X. c #95494D",
"o. c #894758",
"O. c #9C4D55",
"+. c #964B57",
"@. c #8A5452",
"#. c #985559",
"$. c #A34F54",
"%. c #A65057",
"&. c #A95156",
"*. c #A75358",
"=. c #B65555",
"-. c #B85655",
";. c #B95C59",
":. c #B65A59",
">. c #99675D",
",. c #82715D",
"<. c #887152",
"1. c #BB645D",
"2. c #BC695F",
"3. c #A4605A",
"4. c #836C61",
"5. c #8B7364",
"6. c #8C7B63",
"7. c #867863",
"8. c #967A6A",
"9. c #947D68",
"0. c #807870",
"q. c #BD6C61",
"w. c #B26A60",
"e. c #BA7566",
"r. c #A87263",
"t. c #C17465",
"y. c #C47C6A",
"u. c #C17768",
"i. c #C06A61",
"p. c #5E8254",
"a. c #6C8242",
"s. c #708743",
"d. c #738944",
"f. c #7C9446",
"g. c #668E59",
"h. c #618656",
"j. c #6C955C",
"k. c #729D5F",
"l. c #74A15F",
"z. c #739F60",
"x. c #648E73",
"c. c #679175",
"v. c #76A361",
"b. c #79A863",
"n. c #78A763",
"m. c #849E48",
"M. c #999751",
"N. c #8A894D",
"B. c #A09D53",
"V. c #87A149",
"C. c #89A44A",
"Z. c #8FAB4B",
"A. c #92AE4C",
"S. c #95B24D",
"D. c #99B74E",
"F. c #9BB94E",
"G. c #9EB950",
"H. c #AAA655",
"J. c #BFBA5B",
"K. c #BAB55A",
"L. c #B3AF58",
"P. c #9C836C",
"I. c #99866A",
"U. c #868378",
"Y. c #9C9175",
"T. c #93936E",
"R. c #A38D6D",
"E. c #A2856F",
"W. c #A8956C",
"Q. c #A88B71",
"!. c #AC9471",
"~. c #A89A7A",
"^. c #B59A75",
"/. c #B69A77",
"(. c #B6846A",
"). c #8DAA6A",
"_. c #BCB66C",
"`. c #BDA379",
"'. c #BBA077",
"]. c #ADAF74",
"[. c #C5836E",
"{. c #C8846F",
"}. c #CC9777",
"|. c #CA8D73",
" X c #C2A57C",
".X c #CBAC7E",
"XX c #C6A97D",
"oX c #CCAF79",
"OX c #8C7085",
"+X c #8C8D91",
"@X c #A79C88",
"#X c #AAA585",
"$X c #B6A984",
"%X c #B1AC96",
"&X c #A7A8A5",
"*X c #CDAE80",
"=X c #D3A882",
"-X c #CDB385",
";X c #D5B583",
":X c #D9B985",
">X c #D7B98A",
",X c #DABD8A",
"<X c #D7B786",
"1X c #CCBA96",
"2X c #DDC491",
"3X c #D9C99A",
"4X c #DBC997",
"5X c #E1CC97",
"6X c #E4CD9C",
"7X c #E5D39D",
"8X c #E8D39E",
"9X c #DFD4A1",
"0X c #DCC5A6",
"qX c #E9D6A2",
"wX c #EBDBA5",
"eX c #E9DBA6",
"rX c #E5D1AE",
"tX c #EEE2AB",
"yX c #E6E0AB",
"uX c #F1E3AC",
"iX c #F1E9AD",
"pX c #EEE2B5",
"aX c #F1E5B5",
"sX c #F3E8BC",
"dX c #D2CDC8",
"fX c #F4EBC6",
"gX c #F4ECD4",
"hX c #F8F3DA",
"jX c #F9F2D4",
"kX c #F1E5CC",
"lX c #FAF7E7",
"zX c #FDFAF4",
"xX c #FEFEFC",
"cX c #FAF7F3",
"vX c #EFF0F1",
"bX c #EDDFC7",
/* pixels */
"F.F.F.F.F.J.J.J.J.J.J.J.J.J.J.b.b.b.b.b.b.b.b.z.Q Q Q Q g.b.b.b.b.b.b.b.b.b.b.b.b.b.b.b.b.b.b.b.b.b.b.b.b.b.b.b.b.b.b.b.b.b.b.b.",
"F.F.F.F.F.F.J.J.J.J.J.J.F.b.b.b.F.F.F.b.b.k.~ 2 > L 5 X & D j.k.b.b.b.b.b.b.b.b.c.c.c.c.b.b.b.b.b.b.b.b.b.b.b.b.b.b.b.b.b.F.F.F.",
"F.F.J.J.J.J.J.J.J.J.J.F.F.F.F.F.F.F.F.F.C.q + % 8 O.K S K z $ 2 Q v.b.b.b.b.b.c.c.c.c.c.c.F.F.F.F.F.F.F.F.c.c.c.c.b.b.b.F.F.F.F.",
"J.J.J.J.J.J.J.J.J.J.J.F.F.F.F.F.F.F.b.j.2   9 X.=.q.[.{.[.e.>.T # D v.c.c.c.b.c.c.c.c.c.c.c.c.c.c.c.F.F.c.c.c.c.c.c.c.b.F.F.F.F.",
"J.J.J.J.J.J.J.J.J.J.F.F.F.F.F.F.F.F.C.q # l &.;.q.q.u.y.1.q.y.[.@.6 B x.c.c.c.c.c.c.c.c.c.c.c.c.c.c.c.c.c.J.J.J.c.c.c.c.F.F.F.J.",
"F.F.F.F.F.J.J.J.J.J.F.F.F.F.F.F.F.S.w . > ..=.=.q.[.[.[.u.q.[.[.y.e.S B x.c.J.J.J.J.c.c.c.c.J.J.J.J.c.c.J.J.J.J.J.c.c.c.c.J.J.J.",
"F.F.F.F.F.F.J.J.J.J.J.F.J.J.F.F.F.d.$ % O.=.=.-.q.{.{.{.[.y.q.[.[.[.w.v ' K.J.J.J.J.J.c.c.J.J.J.J.J.J.J.J.J.J.J.J.J.J.J.J.J.F.F.",
"F.F.F.F.F.F.F.F.J.J.J.J.J.J.J.F.F.p % c o.%.-.X.@.>.>.r.[.[.q.1.y.[.y.#.; ' J.J.J.J.J.c.J.J.J.J.J.J.J.J.J.J.J.J.J.J.J.J.J.J.F.F.",
"J.J.F.F.F.F.F.F.F.J.J.J.F.F.F.J.F.p % I =.-.X.; . . . ; K r.[.e.@.e.[.[.7 t H.J.J.J.J.J.J.J.J.J.J.J.J.J.J.J.J.J.J.J.J.J.J.J.F.J.",
"J.J.J.F.F.F.F.F.F.F.F.F.F.F.F.F.F.p = o.=.-.+.c l = .   X S [.[.>.x e.[.*.7 M.J.J.J.J.J.J.J.J.J.J.J.J.J.J.J.J.J.J.J.J.J.J.J.J.J.",
"J.J.J.F.F.F.J.J.F.F.F.F.F.F.F.F.F.a o c o.%.o.m m n : .   ; >.[.[.K x e.e.6 W F.F.F.J.J.J.J.J.F.F.J.J.J.J.F.F.J.J.J.J.J.J.J.J.J.",
"J.J.J.F.F.J.J.J.J.J.F.F.F.F.F.F.F.Z.< g P O.$.P m m n %     % @.y.e.> K t.v q F.F.F.F.J.J.F.F.F.F.F.F.J.F.F.F.F.J.J.J.J.J.J.J.J.",
"J.J.J.J.J.J.J.J.J.J.J.J.J.J.J.J.J.J.' $ = z M n m m l o $ + X 6 :.u.7 K #.l q D.F.F.F.J.F.F.F.F.F.F.F.F.F.F.F.F.J.J.J.J.J.J.J.J.",
"J.J.J.J.J.J.J.J.J.F.F.F.F.F.F.F.F.F.F.( + o o g l f o & d.y   % I *.x O.+.f q D.F.F.F.J.F.F.F.F.F.F.F.F.F.F.F.F.J.J.J.J.J.F.F.F.",
"F.F.F.F.F.F.F.F.F.F.F.F.b.b.b.b.b.b.F.D.f.s.q < . + 2 d.F.S.w   ....= b M % s.F.F.F.F.F.F.F.F.F.F.F.F.F.F.F.F.F.F.F.F.F.F.F.F.F.",
"F.F.F.F.F.F.F.F.F.F.b.b.b.b.b.b.b.b.b.F.b.n.v.k.a ( S.D.D.V.4   L b l &.> q Z.F.F.F.F.F.F.F.F.F.F.F.F.F.F.F.F.F.F.F.F.F.F.F.F.F.",
"F.F.F.F.F.F.F.F.b.b.b.b.b.b.b.b.b.b.b.b.b.b.b.b.b.S.f.w 4 4 . o v = > v . & u f.S.F.F.F.b.b.b.F.F.F.F.F.F.F.F.F.F.F.F.F.G._._.F.",
"F.F.F.F.F.F.F.b.b.b.b.b.b.b.b.b.b.b.b.b.b.b.b.b.v./ % A R Y   l k X   % Y } h $ E D.F.n.b.b.b.b.F.F.F.F.F.F.F.F.F.F.F.G._.;XoXF.",
"F.F.F.F.F.b.b.b.b.b.b.F.F.F.F.F.b.b.b.b.b.b.b.v.E . Z 1X0X@X| OX| ] ] ] dXzXdX] . E v.n.F.F.b.b.b.F.F.F.F.F.F.b.b.b.G._.<X>XW.F.",
"F.F.F.b.b.b.b.b.b.b.F.F.F.F.F.F.F.b.b.b.F.F.F.E . # # ] %XbXxXxXzXzXcXcXbXrX} * # $ j.F.F.F.F.b.b.b.F.F.F.F.b.b.b.b.].<XkX@Xw b.",
"b.F.F.F.F.F.F.F.F.F.F.F.F.F.F.F.F.b.b.F.F.F.C.2 . U Y Z ) 3XaXaXpX6X6X6XqXwX3X-XI.- y F.F.F.F.F.F.F.F.F.F.b.b.b.l.T.<XkXxX .0 b.",
"b.b.b.b.F.F.F.F.F.F.F.F.F.F.F.F.F.F.F.F.F.F.( . # ` 8.*X8XtXtXuXaXaXjXlXlXlXpX2X<XU w S.F.b.b.b.b.F.F.F.F.b.b.b.D ) kXxXlX{ e b.",
"F.F.F.F.F.F.F.F.F.F.F.F.F.F.F.F.F.F.F.F.F.S.y X C 8.E.*X<XwXtXsXhXjXhXcXxXxXxXfXqX X* ! b.b.b.b.b.b.F.F.b.b.b.).A &XxXxXfX{ e b.",
"F.F.F.F.F.F.F.F.c.c.c.c.c.F.F.c.c.c.F.F.F.H.& % ` 8./.<X<XwXuXtXtXtXtXaXjX&X .qXuXqX` e v.b.b.b.b.b.b.b.b.b.).oX$XgXxXbXtX{ w F.",
"F.F.F.F.F.F.F.c.c.c.c.c.c.c.c.c.c.c.c.F.J.H.& * 5.8./.<X<X5X7XeXtXtXtXtXjXU.& ^.8XuXY.# ! b.b.b.b.b.b.b.b.b.! R.kXhXlX<X7X{ w F.",
"F.F.F.F.F.c.c.c.J.J.J.J.c.c.c.J.J.c.c.J.J./ . * U E.*X<X;X;X2XwXuXuXtXgXzX+XO ) 4XjX@XX y b.b.F.F.F.b.b.b.z.4 | lXfXrX2X2X^ y F.",
"F.F.c.c.c.c.J.J.J.J.J.J.J.K.K.J.J.J.J.J.J.i . U 8.E.;X;X;X;X<X,X5X8XsXxXxX+XX ; `.qX1XY p F.F.F.F.F.F.b.b.Q $ &XhX7X;X5X` & V.F.",
"J.c.c.J.J.J.J.J.J.J.J.J.M.r 4 / K.J.J.J.L.t . U 8.Q.;X;X;X;X;X;X:XwXtXfXjXU.X # R.2XjX .w S.F.F.F.F.F.b.k.2 F yXtX,X;X'.1 D n.b.",
"J.J.J.J.J.J.J.J.J.J.b.b.e . A % / K.J.J.N.. . _ 8. X:X;X;X:X<X<X,XuXuXfXxX+XX X Z *XqXH X d.F.F.F.F.F.b.Q $ #XiX5X;X;X) * M.J.J.",
"F.F.F.F.F.F.J.J.b.b.b.b.e . 7.7.z D g.b.~ .   A _ P. XXX;XR.I.I.R.#X$X%X&Xj     # 3 h % . d.F.F.F.F.b.k.r H yX8X;X:X/.* G J.J.J.",
"F.F.F.F.F.F.F.F.F.F.F.F.e X % 9.XXA $ p.~ # . . h 5.Q. X;XI.Z # X X . .     . .   X . * . y D.F.F.F.F.a.# #X3XY.;X;X) $ V.F.F.F.",
"F.F.F.F.F.F.F.F.F.F.F.F.w ; % # 6..XA # e 2   * 5.8./.<X;X,X7X#XY V X X X   . .   4 U.1X& < S.F.F.F.S.2 F eX) G <X^.- p F.F.F.F.",
"J.J.J.F.F.F.F.F.F.F.F.F.w 8 X.9 * 6.XXG %     o Y P. X*X*X;X,X6XuX3X@X#X%X .o   o I.6XpX{ < S.F.F.F.( $ #X9XA R.<X_ * m.F.F.F.J.",
"J.J.J.J.F.F.F.F.F.F.F.F.w 8 -.=.X.x ,.R.6.z o X 3 5.P.P.!.;X;X;X,XeXuXfXzXvXB O C -XfXsXY.< S.F.F.Z.q H yX~.V .X/.* p F.F.F.J.J.",
"J.J.J.J.J.J.J.F.F.F.F.b.e 8 -.=.=.=.T 5.^. XR.A 3 3 A 4.R.;X;X;X;X5XtXtXsXgXJ . I.rXlXaXY.+ q y C.d.# ~.9XU ` ;XU & B.J.J.J.J.J.",
"F.F.F.J.J.J.J.J.F.F.F.F.w 8 -.=.=.=.1.}.6.,.,.$X-X7.} ) % 6.;X;X;X,XwXtXaXhXB + `.eXuX4XG % K S & w Z -X) A /.^.1 p F.F.J.J.J.J.",
"F.F.F.F.J.J.J.J.J.F.F.F.w 8 -.=.;.;.q.;X!.G 3 V C ~.9X$X. C <X;X;X;X7XtXuXpX{ 0.2XuXuX%X$ > e.u.9 # I.!.% Y <X_ & V.F.F.F.F.J.F.",
"F.F.F.F.F.F.F.F.F.F.F.F.w 8 -.=.2.q.u.<X<X;X*X9.C . ` !.. 1 !.;X;X<XqXuXtXsXcXzXaXuXqXH > ..6 L x V *XY # P.'.* p D.F.F.F.F.F.F.",
"F.F.F.F.F.F.F.F.F.F.F.F.w 8 -.=.;.q.}.eXqX,X;X<XXX3 } /.. . * 4 ,.`.qXuXtXsXjXfXwX2X6.# S u.K o ; R./.* A P.A & g.b.F.F.F.F.F.F.",
"F.F.F.F.F.F.F.F.F.F.F.F.w 8 -.=.=.1.|.7XeX4X<X;X;Xz } ^.. . X X   4 7.9XeXsXjXsXuXI.- % x y.q.v o G 4 * 5.4.; < g.b.b.b.b.b.b.F.",
"b.b.b.b.b.b.b.b.F.F.F.F.w S ;.=.=.;.y.<X2X5X,X;X;XA ` !.. o = . .   . h 7.~.eX3XU.; c l % L ;.=.b , X 3 _ Z % . 2 g.b.b.b.b.b.b.",
"b.b.b.b.F.F.F.F.F.F.F.F.w Y }.u.;.=.1.=X5XqX7X;X<X5.` !.. = m z k % o X   o H h   g m c : o 6 X.=.o.l % .   l v v 2 j.b.b.b.b.b.",
"F.F.F.F.F.F.F.F.F.F.F.F.w Y <X;XXX{.2.}.,X:X:X;X;X9.9.!.. > O.o.P M c : o . X   f I $.P g # h ; 9 ..I M l % % x v # h.b.b.b.F.F.",
"F.F.F.F.F.F.F.F.F.F.F.F.w U <X;X2XtX,X}.*X<X;X;X;XQ./.!.. = +.-.%.o.N m c g o g m O.O.k . G 8.` Z o = c n g # o . y A.F.F.F.F.F.",
"F.F.F.F.F.F.F.F.F.F.F.F.w V  X<X4X7XtX|.2.|.;X;X;X5./.!.. = o.=.=.=.&.o.P n M m +.O.M %   _ Q.*X.XR   o : z M = < A.F.F.F.F.F.F.",
"F.F.F.F.F.F.F.F.F.F.F.F.y . W.<X>X7XtX=Xt.2.q.}..XA Q.!.. > O.=.=.=.=.=.O.P P o.&.o.=   . _ /.<X<X.X7.% X o = . ( F.F.J.J.J.J.J.",
"F.F.F.F.F.c.c.c.c.c.F.F.[ # ` ;X<X:X5X}.y.t.1.1.q.4 U R.. = o.O.=.=.=.=.-.=.=.=.I =   . . Z Q.;X<X<X.X3 + y / / H.J.J.J.J.J.J.J.",
"F.F.F.F.c.c.c.c.c.c.c.c.x.B 1 `.<X;X;X[.2.q.;.-.=., A I.. = m m o.%.&.&.&.&.$.L , . % i # . A 5.P.^.) o / J.J.J.J.J.J.J.J.J.J.F.",
"c.c.F.c.c.c.J.J.c.c.c.c.c.M.< V  X:X;X.X;.=.=.=.=.> A ` . % f f f k k k k k : . . % <.i ; g o . o # . 4 B.J.J.J.J.J.J.J.J.F.F.F.",
"c.c.c.c.c.J.J.J.J.c.c.c.J.J.M.< C `.<X;Xq.=.=.-.$.S _ 3   .                 . . i H.J.u = n f + q q ( C.F.F.F.F.F.F.F.F.F.F.F.c.",
"c.J.J.c.c.J.J.J.J.J.J.J.J.J.J.M.< V  X<X}.=.-.$.7 U 3 + . . . < y y G 4 . . . B k.J.J.i . = = r K.J.F.F.F.F.F.F.F.F.F.F.F.F.F.c.",
"J.J.J.J.J.J.J.J.J.J.J.J.J.J.J.J.M.< C  X}.-.$.> 3 3 * / i . . < a.d.( & . . 0 ~ p.h.H.M.u t u M.J.J.J.F.F.F.F.F.F.F.F.J.J.c.c.c.",
"J.J.J.J.J.F.F.F.J.J.J.J.J.F.F.F.F.M.< C (.$.6 V # & s d.' & . . p d.s + . 2 Q ! ! ~ N.N.M.L.J.J.F.F.F.F.F.F.F.F.F.J.J.J.J.J.J.J.",
"J.J.J.J.F.F.F.F.F.J.J.J.F.F.F.b.b.b.h.& 5 5 z U & E d.y $ . . . p ! 2 . . + < W ! ! d.s.s.d.A.F.F.F.F.F.F.F.F.J.J.J.J.J.J.J.J.J.",
"J.J.F.F.F.F.F.F.F.J.J.J.F.F.b.b.b.b.b.h.&   * 1 E d.s.a p p p p Q ! E D D D D Q ! ! ! d.d.s.m.F.F.F.F.F.F.F.J.J.J.F.F.F.J.J.J.J.",
"F.F.F.F.F.F.F.F.F.F.F.J.F.F.b.b.b.b.b.b.h.& $ E ! ! ! ! ! d.d.! ! ! ! ! ! d.d.! ! ! ! ! d.s.m.F.F.F.F.F.J.J.J.J.F.F.F.F.F.J.J.J.",
"F.F.F.F.F.F.F.F.F.F.F.F.b.b.b.b.b.b.b.b.b.g.Q ! ! ! ! ! ! ! ! ! ! ! ! ! d.d.d.d.d.! ! ! ~ h.S.F.F.F.F.F.F.F.F.F.F.F.F.F.F.F.F.F.",
"F.F.F.F.F.F.b.b.b.b.b.b.b.b.b.b.F.F.F.b.b.b.z.g.! ! ~ ~ ~ ! ! ! ! ! ! ! d.d.s.s.s.s.d.d.m.S.F.F.F.F.F.F.F.F.F.F.F.F.F.F.F.F.F.F.",
"F.F.F.F.F.F.F.F.F.b.b.b.b.b.b.F.F.F.F.F.b.b.F.D.A.k.h.h.h.! ~ ~ s.s.~ ~ s.s.d.f.f.f.Z.A.F.F.F.F.F.F.F.F.F.F.b.b.b.F.F.F.F.F.F.F.",
"F.F.F.F.F.F.F.F.F.F.F.F.b.b.b.F.F.F.F.F.b.F.F.F.F.F.F.n.n.j.j.V.V.V.V.j.j.V.C.F.F.F.F.F.F.F.F.F.F.F.F.F.F.b.b.b.b.b.F.F.F.F.F.F.",
"F.F.F.F.F.F.J.J.F.F.F.F.F.F.F.F.F.F.F.F.F.F.F.F.F.F.F.F.F.F.F.F.F.F.F.F.F.F.F.F.F.F.F.F.F.F.b.b.b.F.F.F.b.b.b.b.b.b.F.F.F.F.F.F.",
"F.F.F.F.F.J.J.J.J.F.F.F.F.J.J.J.J.F.F.F.F.F.F.F.F.F.F.F.F.F.F.F.F.F.F.F.F.F.F.F.F.F.F.F.F.b.b.b.b.b.b.b.b.b.b.b.b.b.F.F.F.F.F.F.",
"F.F.F.J.J.J.J.J.J.J.J.J.J.J.J.J.J.J.J.F.F.F.F.F.F.F.F.b.b.b.b.F.F.F.F.F.F.F.F.F.F.F.F.F.b.b.b.b.b.b.b.b.b.b.b.b.b.b.b.b.b.F.F.F.",
"b.b.J.J.J.J.J.J.J.J.J.J.J.J.J.J.b.b.b.b.F.F.b.b.b.b.b.b.b.b.b.b.b.F.F.b.b.b.b.F.F.F.F.b.b.b.b.b.b.b.b.b.b.b.b.b.b.b.b.b.b.b.b.b."
};
