/* XPM */
static const char *player5_l[] = {
/* columns rows colors chars-per-pixel */
"64 64 234 2 ",
"   c #11172A",
".  c #151C2E",
"X  c #181E2F",
"o  c #1C1E31",
"O  c #0E1529",
"+  c #1B212F",
"@  c #1D2331",
"#  c #1E2932",
"$  c #232434",
"%  c #2C2434",
"&  c #242A34",
"*  c #2A2B36",
"=  c #2C253A",
"-  c #2C2D38",
";  c #212D38",
":  c #32273C",
">  c #352B3C",
",  c #3A2C3A",
"<  c #382736",
"1  c #2B3433",
"2  c #2B3736",
"3  c #35373B",
"4  c #432C39",
"5  c #49323C",
"6  c #5A343E",
"7  c #51343E",
"8  c #344135",
"9  c #3B4A36",
"0  c #31433D",
"q  c #3B4638",
"w  c #2F433C",
"e  c #45493B",
"r  c #48543A",
"t  c #56583F",
"y  c #55663D",
"u  c #5E713F",
"i  c #4F613C",
"p  c #62763F",
"a  c #3C2B43",
"s  c #372940",
"d  c #3E3B41",
"f  c #363841",
"g  c #2B3141",
"h  c #432D46",
"j  c #482E45",
"k  c #453745",
"l  c #563646",
"z  c #593652",
"x  c #583652",
"c  c #663A45",
"v  c #6A3C52",
"b  c #6A3D5B",
"n  c #643B58",
"m  c #733F51",
"M  c #394D44",
"N  c #3E4B4B",
"B  c #4D4847",
"V  c #494647",
"C  c #544C4A",
"Z  c #574648",
"A  c #435D46",
"S  c #5D5A48",
"D  c #5A5753",
"F  c #424757",
"G  c #66494A",
"H  c #79454A",
"J  c #784259",
"K  c #645653",
"L  c #655B52",
"P  c #6B5C55",
"I  c #6C5956",
"U  c #725C57",
"Y  c #63554F",
"T  c #4A654A",
"R  c #4D6B4C",
"E  c #53734E",
"W  c #5A7C52",
"Q  c #567750",
"!  c #4B6757",
"~  c #646543",
"^  c #627640",
"/  c #687D41",
"(  c #777648",
")  c #696458",
"_  c #736259",
"`  c #7C6C5D",
"'  c #756959",
"]  c #7E705C",
"[  c #555966",
"{  c #566868",
"}  c #557765",
"|  c #6B6C63",
" . c #767367",
".. c #706D6F",
"X. c #844349",
"o. c #8A474C",
"O. c #994A4E",
"+. c #894759",
"@. c #9C4D57",
"#. c #934A58",
"$. c #974B55",
"%. c #975958",
"&. c #875D57",
"*. c #A34F54",
"=. c #A95456",
"-. c #B55555",
";. c #B85655",
":. c #B85D5A",
">. c #99665C",
",. c #82735E",
"<. c #8F635A",
"1. c #BB635C",
"2. c #BD685F",
"3. c #A4645C",
"4. c #8D7466",
"5. c #897A66",
"6. c #977C6A",
"7. c #807870",
"8. c #BD6B61",
"9. c #B46C61",
"0. c #BB7D6A",
"q. c #BB7365",
"w. c #A67766",
"e. c #C17466",
"r. c #C27C6A",
"t. c #C17866",
"y. c #C06B60",
"u. c #5E8254",
"i. c #6C8142",
"p. c #728944",
"a. c #718743",
"s. c #7C9446",
"d. c #608556",
"f. c #668D59",
"g. c #6A935B",
"h. c #6E985D",
"j. c #719D5F",
"k. c #5F866E",
"l. c #648C72",
"z. c #679175",
"x. c #739476",
"c. c #75A361",
"v. c #79A863",
"b. c #78A662",
"n. c #87854C",
"m. c #829B48",
"M. c #9B9951",
"N. c #898654",
"B. c #87A149",
"V. c #8AA54A",
"C. c #8DA94B",
"Z. c #91AD4C",
"A. c #95B24D",
"S. c #99B74E",
"D. c #9BB94E",
"F. c #B2AE58",
"G. c #A4B856",
"H. c #BFBA5B",
"J. c #B7B359",
"K. c #ACA956",
"L. c #9C846B",
"P. c #9D886A",
"I. c #938269",
"U. c #868378",
"Y. c #999277",
"T. c #968E75",
"R. c #A38C6D",
"E. c #A2856F",
"W. c #A88B71",
"Q. c #AC9371",
"!. c #AC9E7C",
"~. c #B49875",
"^. c #B79B78",
"/. c #B08C6E",
"(. c #91A571",
"). c #BCA37A",
"_. c #A29F53",
"`. c #C5836E",
"'. c #C9846F",
"]. c #CC9776",
"[. c #C68370",
"{. c #CCAE7F",
"}. c #C5A57C",
"|. c #C6B576",
" X c #D1A07F",
".X c #767984",
"XX c #8C7085",
"oX c #85888E",
"OX c #A79C88",
"+X c #B7AA84",
"@X c #BCB895",
"#X c #AEA88F",
"$X c #A3A5AA",
"%X c #CDAE81",
"&X c #CAB183",
"*X c #D5B583",
"=X c #D8B784",
"-X c #D9B985",
";X c #DBBE8A",
":X c #D7B888",
">X c #C7BA97",
",X c #D5B087",
"<X c #DBC18D",
"1X c #DDC492",
"2X c #DBC799",
"3X c #CBC698",
"4X c #E1CC96",
"5X c #E4CE9B",
"6X c #E5D29E",
"7X c #E8D39E",
"8X c #D7CBAB",
"9X c #E9D6A2",
"0X c #EBDBA5",
"qX c #EADAA5",
"wX c #E5D1AE",
"eX c #EEE2AB",
"rX c #EBE3A9",
"tX c #F1E3AC",
"yX c #F0E9AE",
"uX c #EDE2B6",
"iX c #F1E5B5",
"pX c #F4E9BC",
"aX c #F2E5BA",
"sX c #D2CDC8",
"dX c #F5EBC6",
"fX c #F4EDD6",
"gX c #F9F3D7",
"hX c #F3E8CC",
"jX c #FAF6E8",
"kX c #FDFBF4",
"lX c #FEFEFC",
"zX c #FAF7F3",
"xX c #EFF0F1",
"cX c #EDDFC7",
/* pixels */
"D.D.D.D.D.H.H.H.H.H.H.H.H.H.H.v.v.v.v.v.v.v.v.v.v.v.v.v.v.v.v.v.v.v.v.v.v.v.v.v.v.v.v.v.v.v.v.v.v.v.v.v.v.v.v.v.v.v.v.v.v.v.v.v.",
"D.D.D.D.D.D.H.H.H.H.H.H.D.v.v.v.D.D.D.v.v.v.v.v.v.v.v.v.v.v.v.v.v.v.v.v.v.v.v.v.z.z.z.z.v.v.v.v.v.v.v.v.v.v.v.v.v.v.v.v.v.D.D.D.",
"D.D.H.H.H.H.H.H.H.H.H.D.D.D.D.D.D.D.D.D.D.D.D.v.v.v.v.v.v.v.v.v.v.v.j.R R R W z.z.z.z.z.z.D.D.D.D.D.D.D.D.z.z.z.z.v.v.v.D.D.D.D.",
"H.H.H.H.H.H.H.H.H.H.H.D.D.D.D.D.D.D.v.v.v.v.v.v.v.v.v.v.v.v.b.g.d.0 2 > > , G V N } z.z.z.z.z.z.z.z.D.D.z.z.z.z.z.z.z.v.D.D.D.D.",
"H.H.H.H.H.H.H.H.H.H.D.D.D.D.D.D.D.D.D.D.v.v.v.v.v.v.v.v.v.g.A & $ G U 0./.0.8.X.@ @ ! z.z.z.z.z.z.z.z.z.z.H.H.H.z.z.z.z.D.D.D.H.",
"D.D.D.D.D.H.H.H.H.H.D.D.D.D.D.D.D.D.D.D.D.D.v.v.v.v.v.v.g.0 5 o.3.`.e.:.e.`.`.=.4 $ @ ! z.z.H.H.H.H.z.z.H.H.H.H.H.z.z.z.z.H.H.H.",
"D.D.D.D.D.D.H.H.H.H.H.D.H.H.D.D.D.D.D.D.D.D.D.D.D.D.v.g.3 H t.`.'.`.r.8.q.`.r.1.-.X.$ ; k.H.H.H.H.H.H.H.H.H.H.H.H.H.H.H.H.H.D.D.",
"D.D.D.D.D.D.D.D.H.H.H.H.H.H.H.D.D.D.D.D.D.D.D.D.D.D.g.2 c 8.`.`.t.1.8.`.`.`.`.t.8.-.v $ t F.H.H.H.H.H.H.H.H.H.H.H.H.H.H.H.H.D.D.",
"H.H.D.D.D.D.D.D.D.H.H.H.D.D.D.H.D.D.D.D.D.D.D.D.D.C.q > w.'./.q.:.e.`.'.0.0.0.r.:.-.*.< . n.H.H.H.H.H.H.H.H.H.H.H.H.H.H.H.H.D.H.",
"H.H.H.D.D.D.D.D.D.D.D.D.D.D.D.D.D.D.D.D.D.D.D.D.D.m.5 3.'.0.Z H e.`.0.<.5 * * c -.-.*.l $ q J.H.H.H.H.H.H.H.H.H.H.H.H.H.H.H.H.H.",
"H.H.H.D.D.D.H.H.D.D.D.D.D.D.D.D.D.D.D.D.D.D.D.D.D.i 5 q.q.l G `.'.`.G X . o o . 6 =.$.m = 3 J.D.D.H.H.H.H.D.D.H.H.H.H.H.H.H.H.H.",
"H.H.H.D.D.H.H.H.H.H.D.D.D.D.D.D.D.D.D.D.D.D.D.D.S.8 c e.G < q.r.%.Z X X o j z : : o.=.+.j 1 A.D.D.D.D.H.D.D.D.D.H.H.H.H.H.H.H.H.",
"H.H.H.H.H.H.H.H.H.H.H.H.H.H.H.H.H.H.H.D.D.D.D.D.S.8 j %.G 5 e.:.4   X o j b b b b @.;.=.j 1 A.D.D.D.D.D.D.D.D.D.H.H.H.H.H.H.H.H.",
"H.H.H.H.H.H.H.H.H.D.D.D.D.D.D.D.D.D.D.D.D.D.D.D.S.8 a #.$.z =.J $ X X s b b b J #.-.@.m o r S.D.D.D.D.D.D.D.D.D.H.H.H.H.H.D.D.D.",
"D.D.D.D.D.D.D.D.D.D.D.D.v.v.v.v.v.v.D.D.D.D.D.D.D.r s +.H = X.X.. 9 i.$ x b b J J #.b s & s.D.D.D.D.D.D.D.D.D.D.D.D.D.D.D.D.D.D.",
"D.D.D.D.D.D.D.D.D.D.v.v.v.v.v.v.v.v.v.D.v.v.v.v.D.s.+ c =.j m H . 3 m.9 @ h h x z h : # i.D.D.D.D.D.D.D.D.D.D.D.D.D.D.D.D.D.D.D.",
"D.G.G.D.D.D.D.D.v.v.v.v.v.v.v.v.v.v.v.v.v.v.v.b.d.9   % O., : c o X q * . * 2 @ $ X 2 / v.v.v.D.D.D.D.D.D.D.D.D.D.D.D.D.D.D.D.D.",
"D.|.|.G.D.D.D.v.v.v.v.v.v.v.v.v.v.v.v.v.v.v.b.T # f  .L % .   h j . K K C e A T T ^ Z.b.v.v.v.v.D.D.D.D.D.D.D.D.D.D.D.D.D.D.D.D.",
"D.|.*X|.G.v.v.v.v.v.v.D.D.D.D.D.v.v.v.v.v.b.T X [ sXkXsX[ [ [ ..XX..OX8X>XB X T b.v.v.v.D.D.v.v.v.D.D.D.D.D.D.v.v.v.D.D.D.D.D.D.",
"D.N.>X2X|.(.v.v.v.v.D.D.D.D.D.D.D.v.v.v.D.B.# @ &  .wXcXzXzXzXkXkXkXcX#X{ @ @ X T v.v.D.D.D.D.v.v.v.D.D.D.D.v.v.v.v.v.D.D.D.v.v.",
"v.9 oXjX2X|.G.D.D.D.D.D.D.D.D.D.D.v.v.D.D.r - P.&X2X0X9X5X5X6XiXiXiX2X) B K P X 2 V.D.D.D.D.D.D.D.D.D.D.D.v.v.v.v.v.v.v.v.v.v.v.",
"v.0 ..kXjX2XN.m.D.D.D.D.D.D.D.D.D.D.D.D.S.9 P -X1XaXjXjXjXgXiXiXtXeXeX7X%X6.` @ X / D.D.D.v.v.v.v.D.D.D.D.v.v.v.v.v.v.v.v.v.v.v.",
"D.9 | gXlXjX..e G.D.D.D.D.D.D.D.D.D.D.D.p.- }.9XhXkXlXlXzXgXgXgXaXtX0X-X%XE.6.V . r b.v.v.v.v.v.v.v.D.D.v.v.v.v.D.D.D.v.v.v.v.v.",
"D.9 | pXzXlX8X' (.z.z.z.z.D.D.z.z.z.D.A.q ' 9XtX9X..$XgXiXeXeXeXeXtX0X=X=X~.6.` $ # h.v.v.v.v.v.v.v.v.v.v.v.v.D.D.D.D.D.D.D.D.D.",
"D.9 | rXwXzXgX8X&Xx.z.z.z.z.z.z.z.z.z.p.@ Y.tX7X~.& U.gXeXeXeXeX0X7X4X=X*X~.6.4.* # h.v.v.v.v.v.v.v.v.v.v.v.v.D.D.D.D.D.D.D.D.D.",
"D.9  .5X=XfXgXfX7.~ H.H.z.z.z.H.H.z.z.S   OXgX2X) O oXkXhXtXtXtX0X1X*X*X*X{.E.I * X A D.D.v.v.D.D.D.v.v.v.v.D.D.D.D.D.D.D.D.D.D.",
"D.p V &X4X;XuXkX.X1 _.H.H.H.H.H.H.H.H.~ L >X9X).&   oXlXkXiX7X4X;X=X*X*X*X*XE.6.P X M D.D.D.D.D.D.D.D.v.v.v.v.v.v.v.v.v.v.D.D.D.",
"H.k.; C 1X*X1XdX8X- ~ H.H.H.H.H.H.H.J.e ..fX1XR.@   U.gXdXtX0X=X*X*X*X*X*X*XW.6.U X e Z.D.D.D.D.V.s.s.c.v.v.v.v.v.v.v.v.v.v.v.v.",
"H.H.( $ P.-X=X0XrX .# h.v.H.H.H.H.H.N.  D 9X%XB     oXkXdXtXtX;X-X-X-X*X=X=X}.L._ X X n.H.D.D.V.8 @ + R v.v.v.v.H.H.H.H.H.H.H.H.",
"D.D.Z.2 C {.*X<XeX@X- A v.v.v.H.H.v.u.X $ f 3 @ . . g $X@X+X+XR.P.P.R.*X}.}.L._ C X X n.D.D.B.8 3 ] X 0 H.H.H.H.H.H.H.H.H.H.H.H.",
"D.D.D./ @ R.=X*X2XyX| 1 f.v.v.v.v.b.M X & X   . X X . X X X     @ B L.*X}.W.4.d X X X p.S.u 8 _ Q.L X 9 D.D.D.D.D.D.D.D.D.D.D.D.",
"D.D.D.C.2 B *X=X` #X3X& y D.D.D.v.c.1 & >XU.3 . X . . . .   V L #X5X;X*X=X~.6.4.& . 0 d.A $ ,.{.L . X 9 D.D.D.D.D.D.D.D.D.D.D.D.",
"H.H.H.D.^ $ L.-XP D rX .& V.D.D.D.A.1 | uX5XI.X . o ..#XOXOX3XtX5X;X*X%X%X}.L.K o X ; # @ ,.{.D X 4 4 9 D.D.D.D.D.D.D.D.D.D.D.H.",
"H.H.H.H.A.2 C {.).C 2X>X- y D.D.v.c.; Y.pXdX*XV   N xXkXdXtX0X;X*X*X*XW.6.L.4.3   . . V 5.{.Y 4 X.-.6 9 D.D.D.D.D.D.D.D.D.D.H.H.",
"H.H.H.H.H.( @ R.{.V 5.eX) & f.v.h.f.& T.iXjXwXL.X F fXaXeXtX5X=X*X*X=X^.6.4.d   @ 3 _ L.4.Y X.=.;.;.6 9 D.D.D.D.D.D.H.H.H.H.H.H.",
"D.D.D.H.H.K.3 B =X6.K +X+X$ i.^ 1 # X D 2XtX0X).+ N fXiXeX0X;X*X*X=X}.' K d - ) 5.{.*X^.w.%.;.-.-.;.6 9 D.D.D.D.D.D.D.D.H.H.H.H.",
"D.D.D.D.H.H.( $ L.{.C C %X) & % &.>.* # @XtXtX1X7.| uXiXeX9X*X*X*X=XL . T.@X).+XY.d B ' }.2.-.-.-.;.6 9 D.D.D.D.D.D.D.D.D.D.H.D.",
"D.D.D.D.D.D.A.1 C *X` X P.~.* c e.%.7 . D 0XeXiXzXzXaXeXtX7X=X*X*XQ.- X +X+X) @ 3 _ 6.{.*Xe.2.2.-.;.6 9 D.D.D.D.D.D.D.D.D.D.D.D.",
"D.D.D.D.D.D.D./ @ P.E.> V %XD 5 5 < =.l @ 5.<X0XdXfXdXeXtX9X).,.3 - . X Q.` X ,.).-X-X<X<Xr.2.1.-.;.6 e H.H.H.v.v.v.D.D.D.D.D.D.",
"D.D.D.D.D.D.D.V.2 d 6.L @ 6.Q.@ % %.'.Z o = I.tXpXfXpX0X6X5.3 .     X X !. .d *X=X*X;X0XeX].8.;.-.;.6 0 v.v.v.v.v.v.v.v.v.v.v.D.",
"v.v.v.v.v.v.v.E # @ U 6.3 @ - % O.y.9.4 a z $ U.3XqX!.5.f X . . X = o X Q.' d *X*X=X4X9X1X`.1.-.-.;.6 0 v.v.v.v.v.v.v.v.v.v.v.v.",
"v.v.v.v.D.D./ * $ : 3 V $ o l O.;.*.7 : m J s . d D X .   o $ h l J , X Q.' P *X*X1X6X1X,Xt.;.-.-.y.G 0 v.v.v.v.v.v.v.v.v.v.v.v.",
"D.D.D.D.D.m.& o.J a   o s v #.O.c $ . $ n J b s .   . o : z n +.*.$.: X Q.` 4.*X*X2X4X4X X-.-.8.].*XL w v.v.v.v.v.v.v.v.v.v.D.D.",
"D.D.D.D.D.m.$ , = X : z b v l < 3 L - . a J +.b s o : x b J @.-.-.#.= X Q.R.L.*X*X*X*X=X].[.:X=X*X-XL w D.D.D.v.v.D.D.D.D.D.D.D.",
"D.D.D.D.D.D./ + % s h z h o $ ,.W.6.U X X a $.#.b n b J +.=.-.-.-.#.> X Q.^.W.*X*X=X*X].].9XyX4X*X=XL 9 D.D.D.D.D.D.D.D.D.D.D.D.",
"D.D.D.D.D.D.S.8 $ z a $ X - 6.=X*XQ._ X X X l +.#.J +.=.-.-.-.-.=.$.: X Q.~._ *X*X Xt.1.].eX4X<X=X~.- 9 D.D.D.D.D.D.D.H.H.H.H.H.",
"D.D.D.D.D.z.z.} X o X   - ~.*X*X*X~.U X X X . l @.-.-.-.-.-.-.$.J b = X Q.6.B ].`.1.8.r.,XrX4X=X=XR.X ^ D.D.H.H.H.H.H.H.H.H.H.H.",
"D.D.D.D.z.z.z.l.} } } ; - ^.-X*X}.4.3 X t t X X % z v v v v v z x z = X R.D , :.:.1.q.t.[.<X*X*X*XC 1 K.H.H.H.H.H.H.H.H.H.H.H.D.",
"z.z.D.z.z.z.H.H.z.z.z.! . k ' L C 3 . @ ( J.( 3 X X X X X X X X X X X X 4.C < -.-.-.2.1.].*X*X=XP.$ ^ H.H.H.H.H.H.H.H.H.H.D.D.D.",
"z.z.z.z.z.H.H.H.H.z.z.l.S *       $ x : r H.H.K.~ X X X 1 e e e & X X X K K 4 -.-.-.-.1.%X*X=XL.& r Z.D.D.D.D.D.D.D.D.D.D.D.D.z.",
"z.H.H.z.z.H.H.H.H.H.H.H.H.M.( ( * h z $ r H.H.H.M.1 X X e M.m.m.9 X X X $ L K X.;.-.-.r.*X=XP.* r F.D.D.D.D.D.D.D.D.D.D.D.D.D.z.",
"H.H.H.H.H.H.H.H.H.H.H.H.H.H.H.H.t o o X S h.d.u.u.e X X @ ^ a./ 1 X + t e $ C , X.;.-.].-XP.& r F.H.H.D.D.D.D.D.D.D.D.H.H.z.z.z.",
"H.H.H.H.H.D.D.D.H.H.H.H.H.D.D.D.Z.n.( ~ Q W W W W E 2 X + u p.y X X & / Q 2 $ * % X.;.].P.* r F.D.D.D.D.D.D.D.D.D.H.H.H.H.H.H.H.",
"H.H.H.H.D.D.D.D.D.H.H.H.D.D.D.v.v.c.d.W W W W W R 1 + X X 8 p.y X X X # M Q 2 @ K > X.<.& r Z.D.D.D.D.D.D.D.D.H.H.H.H.H.H.H.H.H.",
"H.H.D.D.D.D.D.D.D.H.H.H.D.D.v.v.v.g.W W W W W W R y y y y u a./ A A A A T W Q 0 B k $ $ r Z.D.D.D.D.D.D.D.D.H.H.H.D.D.D.H.H.H.H.",
"D.D.D.D.D.D.D.D.D.D.D.H.D.D.v.v.v.g.W W W W W W W W W W W p.a.W W W W W W p.p.Q 3 o . M Z.D.D.D.D.D.D.D.H.H.H.H.D.D.D.D.D.H.H.H.",
"D.D.D.D.D.D.D.D.D.D.D.D.v.v.v.v.v.c.d.W W W W W W W W W W W W W W W W W a.a.a.a.i.0 M j.v.v.D.D.D.D.D.D.D.D.D.D.D.D.D.D.D.D.D.D.",
"D.D.D.D.D.D.v.v.v.v.v.v.v.v.v.v.D.D.A.f.W W W W W W W W W W W W W W W W a.a.a.p.m.Z.S.D.D.D.D.D.D.D.D.D.D.D.D.D.D.D.D.D.D.D.D.D.",
"D.D.D.D.D.D.D.D.D.v.v.v.v.v.v.D.D.D.D.D.c.j.s.s.s.W W W W W W W a.a.W d.s.s.C.Z.S.D.D.D.D.D.D.D.D.D.D.D.D.D.v.v.v.D.D.D.D.D.D.D.",
"D.D.D.D.D.D.D.D.D.D.D.D.v.v.v.D.D.D.D.D.v.D.D.D.S.V.B.g.g.g.g.B.B.B.V.b.b.D.D.D.D.D.D.D.D.D.D.D.D.D.D.D.D.v.v.v.v.v.D.D.D.D.D.D.",
"D.D.D.D.D.D.H.H.D.D.D.D.D.D.D.D.D.D.D.D.D.D.D.D.D.D.D.D.D.D.D.D.D.D.D.D.D.D.D.D.D.D.D.D.D.D.v.v.v.D.D.D.v.v.v.v.v.v.D.D.D.D.D.D.",
"D.D.D.D.D.H.H.H.H.D.D.D.D.H.H.H.H.D.D.D.D.D.D.D.D.D.D.D.D.D.D.D.D.D.D.D.D.D.D.D.D.D.D.D.D.v.v.v.v.v.v.v.v.v.v.v.v.v.D.D.D.D.D.D.",
"D.D.D.H.H.H.H.H.H.H.H.H.H.H.H.H.H.H.H.D.D.D.D.D.D.D.D.v.v.v.v.D.D.D.D.D.D.D.D.D.D.D.D.D.v.v.v.v.v.v.v.v.v.v.v.v.v.v.v.v.v.D.D.D.",
"v.v.H.H.H.H.H.H.H.H.H.H.H.H.H.H.v.v.v.v.D.D.v.v.v.v.v.v.v.v.v.v.v.D.D.v.v.v.v.D.D.D.D.v.v.v.v.v.v.v.v.v.v.v.v.v.v.v.v.v.v.v.v.v."
};
