/* XPM */
static const char *right1[] = {
/* columns rows colors chars-per-pixel */
"64 64 184 2 ",
"   c #0D112C",
".  c #13162B",
"X  c #161C2E",
"o  c #181E2E",
"O  c #121227",
"+  c #171E30",
"@  c #1B222F",
"#  c #172031",
"$  c #192333",
"%  c #1A2837",
"&  c #1C2C3A",
"*  c #1E323E",
"=  c #21292F",
"-  c #202830",
";  c #2B3432",
":  c #2E3B34",
">  c #283538",
",  c #333F35",
"<  c #2F403B",
"1  c #364236",
"2  c #3A4636",
"3  c #3C4B37",
"4  c #3D4138",
"5  c #404936",
"6  c #405238",
"7  c #49563A",
"8  c #465A3A",
"9  c #4B5C3A",
"0  c #4C613B",
"q  c #53633C",
"w  c #5B6D3E",
"e  c #5E713F",
"r  c #5E793F",
"t  c #63743F",
"y  c #1F3541",
"u  c #213B45",
"i  c #213E48",
"p  c #26484E",
"a  c #24434A",
"s  c #3E5543",
"d  c #274D52",
"f  c #284E53",
"g  c #295256",
"h  c #2B5759",
"j  c #2C5B5C",
"k  c #33635E",
"l  c #2A5E61",
"z  c #2E6161",
"x  c #2F6868",
"c  c #306764",
"v  c #316966",
"b  c #326C69",
"n  c #34726D",
"m  c #3E7E6F",
"M  c #347772",
"N  c #377A73",
"B  c #397C73",
"V  c #2E7575",
"C  c #4C684A",
"Z  c #4B6847",
"A  c #5E7940",
"S  c #476358",
"D  c #49775A",
"F  c #567750",
"G  c #626342",
"H  c #657A41",
"J  c #6A7C41",
"K  c #7B7A48",
"L  c #407B69",
"P  c #517261",
"I  c #587C68",
"U  c #407F72",
"Y  c #398178",
"T  c #398077",
"R  c #5E8354",
"E  c #578C5F",
"W  c #5B8E5C",
"Q  c #57815A",
"!  c #5F905A",
"~  c #6E8443",
"^  c #6E8D43",
"/  c #6B8B4D",
"(  c #67864D",
")  c #778E45",
"_  c #788F44",
"`  c #739445",
"'  c #799145",
"]  c #749C4C",
"[  c #799F4A",
"{  c #799C46",
"}  c #648955",
"|  c #668D59",
" . c #669455",
".. c #699654",
"X. c #6E9950",
"o. c #629259",
"O. c #6A935B",
"+. c #6D995F",
"@. c #729C5D",
"#. c #7B9850",
"$. c #7DA147",
"%. c #7CA148",
"&. c #7BA15A",
"*. c #4D8665",
"=. c #44826D",
"-. c #49856D",
";. c #4E8A6C",
":. c #528963",
">. c #588D67",
",. c #538B69",
"<. c #56896E",
"1. c #5C9165",
"2. c #5F9669",
"3. c #458272",
"4. c #578C70",
"5. c #5D8C75",
"6. c #629463",
"7. c #689661",
"8. c #6C9C63",
"9. c #68956C",
"0. c #719B6F",
"q. c #608E75",
"w. c #679175",
"e. c #6FA166",
"r. c #75A462",
"t. c #78A763",
"y. c #79A863",
"u. c #918F4E",
"i. c #839C48",
"p. c #92914F",
"a. c #9D9A52",
"s. c #87864C",
"d. c #81A346",
"f. c #84A548",
"g. c #8AA349",
"h. c #83A949",
"j. c #8CAA49",
"k. c #90A448",
"l. c #92AD4A",
"z. c #96B14B",
"x. c #9BB54C",
"c. c #9BB94E",
"v. c #84A657",
"b. c #86AB56",
"n. c #8BAD54",
"m. c #83A658",
"M. c #91AE52",
"N. c #8FB252",
"B. c #93B351",
"V. c #A1B74C",
"C. c #A3B94C",
"Z. c #A9A555",
"A. c #A7BA50",
"S. c #ABBD53",
"D. c #A6B459",
"F. c #BAB55A",
"G. c #BFBA5B",
"H. c #8FA363",
"J. c #8CAA6C",
"K. c #91AD6B",
"L. c #AFBE6A",
"P. c #AAC04C",
"I. c #B2C057",
"U. c #B3C159",
"Y. c #BAC55D",
"T. c #BEC761",
"R. c #BEC765",
"E. c #C1C963",
"W. c #C5CB66",
"Q. c #C7CC67",
"!. c #C6CC67",
"~. c #C7CC67",
"^. c #C8CC67",
"/. c #CACE67",
"(. c #CCCF67",
"). c #C8CD68",
"_. c #C8CD68",
"`. c #CACE69",
"'. c #C8CD68",
"]. c #CED066",
"[. c #45A6A4",
"{. c #47ABA9",
"}. c #47ABA9",
"|. c #46A9A7",
/* pixels */
"c.c.c.c.c.G.G.G.G.G.G.G.G.G.G.y.y.y.y.y.y.y.y.y.y.y.y.y.y.y.y.y.y.y.y.y.y.y.y.y.y.y.y.y.y.y.y.y.y.y.y.y.y.y.y.y.y.y.c.c.c.c.c.X ",
"c.c.c.c.c.c.G.G.G.G.G.G.c.y.y.y.c.c.c.y.y.y.y.y.y.y.y.y.y.y.y.y.y.y.y.y.y.y.y.y.w.w.w.w.y.y.y.y.y.y.y.y.y.y.y.y.y.c.c.c.c.c.c.X ",
"c.c.G.G.G.G.G.G.G.G.G.c.c.c.c.c.c.c.c.c.c.c.c.y.y.y.y.y.y.y.y.y.y.y.y.y.y.y.y.w.w.w.w.w.w.c.c.c.c.c.c.c.c.y.y.y.y.c.c.c.c.c.c.X ",
"G.G.G.G.G.G.G.G.G.G.G.c.c.c.c.c.c.c.y.y.y.y.y.y.y.y.y.y.y.y.y.y.y.y.y.w.w.w.y.w.w.w.w.w.w.w.w.w.w.c.c.c.X X X X X y.c.c.c.c.X X ",
"G.G.G.G.G.G.G.G.G.G.c.c.c.c.c.c.c.c.c.c.y.y.y.y.y.y.y.y.y.y.y.y.y.y.w.w.w.w.w.w.w.w.w.w.w.w.w.w.w.X X X X X X X X X c.c.c.c.X X ",
"c.c.c.c.c.G.G.G.G.G.c.c.c.c.c.c.c.c.c.c.c.c.y.y.y.y.y.y.y.y.y.y.y.w.w.w.w.w.G.G.G.G.w.w.w.w.G.G.G.G.X X G.G.G.X X X X c.c.X X {.",
"c.c.c.c.c.c.G.G.G.G.G.c.G.G.c.c.c.c.c.c.c.c.c.c.c.c.y.y.y.y.y.y.y.w.w.w.G.G.G.G.G.G.G.w.w.G.G.G.G.G.G.G.G.G.G.G.X X X X X X X {.",
"c.c.c.c.c.c.c.c.G.G.G.G.G.G.G.c.c.c.c.c.c.c.c.c.c.c.y.y.y.y.y.w.w.w.w.G.G.G.G.G.G.G.G.w.G.G.G.G.G.G.G.G.G.G.G.G.G.X X X X X {.{.",
"G.G.c.c.c.c.c.c.c.G.G.G.c.c.c.G.c.c.c.c.c.c.c.c.c.c.c.G.G.G.G.G.G.w.G.G.G.G.G.G.G.G.G.G.G.G.G.G.G.G.G.G.G.G.G.G.G.X X X X X X {.",
"G.G.G.c.c.c.c.c.c.c.c.c.c.c.c.c.c.c.c.c.c.c.c.c.c.c.G.G.c.c.G.G.G.G.G.G.G.G.G.G.G.G.G.G.G.G.G.G.G.G.G.G.G.G.G.G.X X X G.G.X X X ",
"G.G.G.c.c.c.G.G.c.c.c.c.c.c.c.c.c.c.c.c.c.c.c.c.c.c.G.c.c.c.c.G.G.G.G.G.G.G.G.c.c.c.G.G.G.G.G.c.c.G.G.G.G.c.c.X X G.G.G.G.G.X X ",
"G.G.G.c.c.G.G.G.G.G.c.c.c.c.c.c.c.c.c.c.c.c.c.c.c.c.c.c.c.c.c.c.c.c.c.G.G.G.c.c.c.c.c.G.G.c.c.c.c.c.c.G.c.c.c.c.G.G.G.G.G.G.X X ",
"G.G.G.G.G.G.G.G.G.G.G.G.G.G.G.G.G.G.G.c.c.c.c.c.c.c.c.c.c.c.c.c.c.c.c.c.G.G.c.c.c.c.c.G.c.c.c.c.c.c.c.c.c.c.c.c.c.c.G.G.G.G.X X ",
"G.G.G.G.G.G.G.G.G.c.c.c.c.c.c.c.c.c.c.c.c.c.c.c.c.c.c.c.c.c.c.c.c.c.c.c.c.c.c.c.c.c.c.G.c.c.c.c.c.c.c.c.c.c.c.c.c.c.c.G.G.G.X X ",
"c.c.c.c.c.c.c.c.c.c.c.c.y.y.y.y.y.y.c.c.c.c.c.c.c.c.c.c.c.c.c.c.c.c.c.c.c.c.c.c.c.c.c.c.c.c.c.c.c.c.c.c.c.c.c.c.c.c.c.G.G.X X X ",
"c.c.c.c.c.c.c.c.c.c.y.y.y.y.y.y.y.y.y.c.y.y.y.y.c.c.c.c.c.c.G.G.G.c.c.c.c.c.c.c.c.c.c.c.c.c.c.c.c.c.c.c.c.c.c.c.c.c.c.G.X X X X ",
"c.c.c.c.c.c.c.c.y.y.y.y.y.y.y.y.y.y.y.y.y.y.y.y.y.c.c.c.G.G.G.G.G.G.c.c.c.c.c.c.c.c.c.c.y.y.y.c.c.c.c.c.c.c.c.X X X X X X X X {.",
"c.c.c.c.c.c.c.y.y.y.y.y.y.y.y.y.y.y.y.y.y.y.y.y.y.G.G.G.G.G.G.G.G.G.G.G.G.G.y.y.y.c.c.y.y.y.y.y.c.c.c.c.c.c.c.c.c.X X X X {.{.{.",
"c.c.c.c.c.y.y.y.y.y.y.c.c.c.c.c.y.y.y.y.y.y.y.y.y.y.y.y.G.G.G.G.G.G.G.G.G.y.y.y.y.y.y.y.c.c.y.y.y.c.c.c.c.c.c.y.y.y.X X X {.{.{.",
"c.c.c.y.y.y.y.y.y.y.c.c.c.c.c.c.c.y.y.y.c.c.c.y.y.y.y.y.y.y.G.G.G.y.y.y.y.y.c.c.y.y.y.c.c.c.c.y.y.y.y.y.c.c.y.y.y.y.y.X X X {.{.",
"y.c.c.c.c.c.c.c.c.c.c.c.c.c.c.c.c.y.y.c.c.c.n.B N N N N >.c.c.c.c.c.1.N N N N N b.B.c.c.B.B.B.B.c.c.y.y.c.y.y.y.y.y.y.X X X {.{.",
"y.y.y.y.c.c.c.c.c.c.c.c.c.c.c.c.c.c.B.N.B.n.B N =.=.=.B N 6.c.N.B.6.N N U =.=.=.B B n.n.B B N -.r.c.c.c.c.y.y.y.y.y.X X X X {.{.",
"c.c.c.c.c.c.c.c.c.c.c.c.c.c.c.c.c.N.-.N N N N ,.x.x.V.v.B 1.8.N N N N B v.V.x.x.,.N N N N =.=.=.-.r.c.c.y.y.y.y.y.X X X X X {.{.",
"c.c.c.c.c.c.c.c.w.w.w.w.w.c.c.w.q.B N -.-.-.=.x.V.V.V.C.&.M N N N N U v.C.A.A.C.x.,.N N ,.x.C.b.N -.e.8.r.y.y.c.X X c.c.X X X {.",
"c.c.c.c.c.c.c.w.w.w.w.w.w.w.w.q.U N -.B.V.z.-.x.V.V.V.x.+.U 4.4.3.M &.C.C.E.^.A.V.x.B m x.V.C.n.=.N N N ;.8.r.c.c.c.c.c.c.X X X ",
"c.c.c.c.c.w.w.w.G.G.G.G.w.5.5.<.N N M.C.V.z.=.x.S.A.C.v.V 0.].(.K.U @.C.Y.).Q.S.C.x.9.9.S.A.V.C.v.N N N N N 6.B.c.c.c.c.c.c.X X ",
"c.c.w.w.w.w.G.G.G.G.G.G.D.<.N N N N M.V.V.z.6.S.^.E.A.7.B J.^.Q.].0.@.S.E.^.Q.Q.A.S.^.^.).E.S.C.m.B >.>.>.=.N 2.y.c.c.c.c.c.X X ",
"G.w.w.G.G.G.G.G.G.G.G.G.9.N ;.1.B N M.S.S.S.C.Q.Q.^.L.w.J.(.Q.Q.^.J.v.Y.).Q.Q.Q.U.!.Q.Q.Q.Q.E.C.n.@.C.C.C.m.=.;.r.y.c.c.c.X X X ",
"G.G.G.G.G.G.G.G.G.G.y.} L ,.M.C.@.B 7.R.).Q.U.Q.Q.Q.^.(.^.Q.Q.Q.Q.^.Y.T.Q.Q.Q.Q.).Q.Q.Q.Q.^.E.V.C.C.V.V.V.C.7.M H.G.X X X X X {.",
"c.c.c.c.c.c.G.G.y.y.| : y #.P.C.C.@.0.R.^.Q.).Q.Q.Q.Q.Q.Q.).Q.Q.Q.^.).Q.Q.Q.).Q.Q.Q.Q.Q.Q.!.U.V.V.V.V.V.V.C.7.M H.G.G.G.X X {.{.",
"c.c.c.c.c.c.c.c.c.i.1 X   5 w g.C.C.U.U.Q.).).).Q.Q.Q.).E.Y.).Q.).T.E.).Q.Q.Y.!.).).).).Q.U.V.V.C.C.C.C.C.n.;.,.n.c.G.G.G.X X {.",
"c.c.c.c.c.c.c.c.i.1 . , 0 8 q g.C.V.V.V.U.U.U.U.).).E.U.S.C.T.).T.A.S.E.Q.Q.Y.U.U.U.U.U.I.V.C.A.k.q q _ n.;.l / c.c.c.c.c.X X {.",
"G.G.G.c.c.c.c.c.H X , ^ h.j.C.C.V.C.C.j.x.V.V.C.I.U.S.V.V.V.A.U.A.x.S.E.Q.Q.).Y.U.C.V.V.V.C.k.9 2     ; D z & , i.c.c.c.c.X X {.",
"G.G.G.G.c.f.7 9 1 . 8 h.%.l.C.V.V.j.j.l.V.V.V.V.V.V.V.V.V.V.V.V.V.V.Y.).Q.Q.Q.).).C.V.V.V.C.l.t J J 7   & & O X 1 i.c.c.c.X X {.",
"G.G.G.G.Z.4 X X X . 8 h.%.z.C.V.V.z.d.x.V.V.V.C.x.j.j.C.V.V.V.V.V.V.Y.).Q.Q.Q.Q.U.C.V.V.V.V.C.C.C.C.l.7 . 2 A : . , i.c.X X X {.",
"c.c.c.Z.4 X & z z i = A h.h.x.V.V.C.f.f.x.C.x.j.f.%.%.j.V.V.V.V.V.V.A.T.).^.^.I.V.V.V.V.V.V.V.V.V.V.C.J   0 h.^ : . X X X X {.{.",
"c.c.c.i.X & b B B n u @ r $.h.x.C.j.%.%.f.f.f.%.%.%.%.f.C.V.V.V.C.l.z.A.S.S.S.V.V.V.V.V.V.V.V.V.V.V.C.t 1 ` %.d.^ : X X X X X {.",
"c.c.c.i.X y B N N B n z R %.%.h.f.%.%.%.%.%.%.d.x.x.x.l.j.V.V.C.l.%.l.V.V.V.V.V.V.x.j.V.V.V.V.V.V.V.C.g.` %.%.%.h.2 X } y.X X X ",
"c.c.c.i.X y B N N N N N o.%.%.%.%.%.%.z.x.d.d.x.V.V.V.V.l.h.h.f.d.%.d.z.V.V.V.V.V.x.d.h.f.j.V.V.V.V.z.d.%.%.%.$.8 @ X ; f.c.X X ",
"c.c.c.i.X y N N h % % Z %.%.%.%.%.%.z.V.V.x.x.V.V.V.V.C.z.%.%.%.j.x.j.d.h.x.V.V.V.x.d.d.x.x.V.x.d.d.d.%.%.%.%.W n y X X ; g.X X ",
"y.y.y.} X X a j # X 8 { %.%.%.%.%.%.x.V.V.V.V.V.V.V.V.V.V.x.l.%.l.C.V.j.%.z.V.V.x.f.d.x.V.V.V.x.%.%.%.%.%.%.d.:.N n y X X f.X X ",
"y.y.| % X X + $ . 6 %.%.%.%.%.%.%.%.d.x.x.V.V.V.V.x.V.V.V.V.V.j.j.V.V.V.f.%.x.x.f.%.d.x.V.V.V.z.%.%.%.%.%.%.%.:.N N M & X X X X ",
"c.j.- X X % % $ . 3 %.%.%.{ ` ] %.%.%.%.d.x.V.V.x.f.V.V.V.V.C.l.%.l.x.x.f.%.%.%.%.%.%.h.x.x.x.%.%.%.%.%.[ [ E N N N B * X X X {.",
"c.g.o X u M N j # X 8 ` ` 3 $ c ..%.%.%.%.d.x.x.%.f.x.x.V.V.V.j.%.%.%.%.%.%.%.%.%.%.%.%.%.%.%.%.%.%.%.o.N B N N N N n & X X |.{.",
"c.~ o & N N N B h $ X o o $ j N N ..] ] %.%.%.%.%.%.%.f.x.x.j.%.%.%.%.%.%.%.%.%.%.%.%.%.%.%.%.%.%.%.%. .B N N N n b * X X X [.{.",
"c.~ o & N N N N B h & $ . d M N N N N =.[ %.%.%.%.%.%.%.%.%.%.%.%.%.%.%.%.%.%.] %.%.%.%.%.%.%.%.%.%.%.%.o.B N n y X X X X X X |.",
"l.~ o & b B N N N N B g $ . d n N N =.[ %.%.%.%.%.%.%.%.%.%.%.] [ %.%.%.%.%.] U ] %.%.%.%.] %.%.%.%.%.%.d.W N f # X X X X X X X ",
") ~ ; X & z v B N N N B g * * c B N ] %.%.%.%.%.X.%.%.%.%.%.[ *.*.[ %.%.%.] =.=.[ %.%.%.] =.%.%.%.%.%.%.[ :.N B f $ X X K X X X ",
"P P ~ > X X & v N N N N N B B N N N o.%.%.%.%.o.=.%.%.%.%.[ W *.m :... . .=.N ] %.%.%.%.] =.%.%.%.%.%.d.! N N N B d $ X K p.X X ",
"I I P S X X $ g B N N N N N N N N N N !  . .[ *.=.%.%.%.d.o.:.d. .*.m =.*.B N W %.%.%. .! m ..%.%.%.d.] D v N N N B y X K p.X X ",
"w.Z.p.S X % g B N N B B N N N N N N N N N :.%.] m ..d.d.[ *.:.%.%.d.o.] d.W B N W o.! N N N m o.o.o. .D y p B N N B y X K p.X X ",
"F.u.p.K X y Y N B v f c N N N N N N N N B %.%.] N m ! o.:.M E d.%.%.d...] d.=.N N N N N N N N N N b f y O f B N B z & X K X X X ",
"G.Z.p.K X % j T b y O d B N N N N N N N N W [ E N N N N N N =.X.%.%.d.*.*.W m N N N N N N N N N N v a p * * v Y z % X X X X X |.",
"G.F.p.s.3 X % d y . * c N N N N N N N N N N :.N N N N N N N N =.X.d...=.N N N N N N N N N N B N N N B Y g O * d & X X X X X X {.",
"G.G.g.) ) 3 X X X X d Y N N N N B N N N N N N N N N N N N N N N =.E =.N N N N N N N N N N n g B N N B c * X X X X X ~ ' X X X X ",
"c.c.c.g.) ~ q q q 1 & z B B B B f b N N N N N N N N N B N N N N N N N N N N N N N N N N N b $ f B B v & X 4 G G ~ ' ) ) g.X X X ",
"c.c.c.c.j.g.' ' ' 9 X & i i i i $ v B N N N N N N B b f B N N N N B g z N N N N N N N B n u X $ i i & X X 9 ' ' ' ) g.j.c.X X X ",
"c.c.c.c.c.c.O.R R F : X X X X X X * n N N N N N B b & $ f B B B B h $ j B N N N N N M u * X X X X X X , w J ' ) ) g.c.c.c.X X X ",
"c.c.c.c.c.c.c.l.f.R F C C C C e e e ( } N N N n y & X X $ y y y y % X & c B N N N N N k w e e e e e e J ' ' R O.@.c.c.c.c.X X {.",
"c.c.c.c.c.c.c.c.c.z.f.' R R R ' ' ' _ _ Q / / ( t t H s X X X X X X X X & * * b N N } / ' ' ' z.j.' ' ' ) O.r.r.y.y.c.c.X X {.{.",
"c.c.c.c.c.c.G.G.c.c.c.z.i.) ) ) ) ) ) ) _ _ ' l.' ' ' ) H H H H H H H H H H H / / / ) _ ) ) R O.t.g.) i.r.r.y.y.y.y.X X X {.{.{.",
"c.c.c.c.c.G.G.G.G.c.c.c.c.F.F.a.p.' ' ) ) ' z.z.) ) ) ) ' ' ' ' ' ' ' ' ' ' ' ' _ _ ) ) ) R R | y.t.r.r.y.y.y.y.y.X X X X X X {.",
"c.c.c.G.G.G.G.G.G.G.G.G.G.G.G.F.F.F.F.' ' z.c.z.) ) ) R | +.R ) ) ) ) ) ) ' l.z.' ' ' ' } r.r.r.y.y.y.y.y.y.y.y.y.y.y.y.y.y.X X ",
"y.y.G.G.G.G.G.G.G.G.G.G.G.G.G.G.y.y.y.r.c.c.y.r.R R R | @.R R R R ) ) R R @.y.c.c.c.c.r.r.y.y.y.y.y.y.y.y.c.c.c.c.c.c.y.y.y.y.X "
};
