/* XPM */
static const char *right3[] = {
/* columns rows colors chars-per-pixel */
"64 64 189 2 ",
"   c #0D112C",
".  c #12162B",
"X  c #161C2E",
"o  c #181E2E",
"O  c #121227",
"+  c #171F30",
"@  c #1A212F",
"#  c #172031",
"$  c #182233",
"%  c #1B2835",
"&  c #1C2C3A",
"*  c #1E323E",
"=  c #222A2E",
"-  c #202A32",
";  c #263134",
":  c #2B3332",
">  c #2E3B34",
",  c #343F35",
"<  c #3C3F37",
"1  c #354235",
"2  c #3A4736",
"3  c #37433A",
"4  c #3E5038",
"5  c #43463A",
"6  c #415438",
"7  c #4C5C3B",
"8  c #495639",
"9  c #4B603B",
"0  c #54633C",
"q  c #5C6F3F",
"w  c #5E713F",
"e  c #63743F",
"r  c #607B3F",
"t  c #1F3541",
"y  c #1F3845",
"u  c #213B45",
"i  c #26484E",
"p  c #24434B",
"a  c #274D52",
"s  c #284E53",
"d  c #295155",
"f  c #2A5659",
"g  c #2C5B5D",
"h  c #3E5543",
"j  c #33635E",
"k  c #2A5D61",
"l  c #2E6262",
"z  c #2F6868",
"x  c #316664",
"c  c #316966",
"v  c #326D6A",
"b  c #35736E",
"n  c #3E7E6E",
"m  c #347772",
"M  c #377A73",
"N  c #397C74",
"B  c #496449",
"V  c #4A6846",
"C  c #5E7A40",
"Z  c #53734E",
"A  c #476258",
"S  c #49775A",
"D  c #626342",
"F  c #657A40",
"G  c #6A7C41",
"H  c #7B7A48",
"J  c #477F68",
"K  c #517161",
"L  c #587C68",
"P  c #567E63",
"I  c #407F71",
"U  c #398077",
"Y  c #398178",
"T  c #5E8254",
"R  c #578C5F",
"E  c #5B8E5C",
"W  c #57815A",
"Q  c #5F905A",
"!  c #6D8342",
"~  c #6D8C43",
"^  c #6B8B4D",
"/  c #66864E",
"(  c #708643",
")  c #778E45",
"_  c #788F44",
"`  c #799145",
"'  c #769845",
"]  c #7A9D46",
"[  c #749C4D",
"{  c #799E4A",
"}  c #719244",
"|  c #608555",
" . c #638955",
".. c #668D58",
"X. c #669455",
"o. c #699654",
"O. c #6E9950",
"+. c #629259",
"@. c #6A925B",
"#. c #6F995D",
"$. c #719C5E",
"%. c #7DA147",
"&. c #7CA148",
"*. c #7CA259",
"=. c #4D8665",
"-. c #44816D",
";. c #4B866D",
":. c #4E896C",
">. c #528963",
",. c #588D67",
"<. c #528B6A",
"1. c #598A6D",
"2. c #5D9165",
"3. c #5F9669",
"4. c #448272",
"5. c #578C70",
"6. c #5E8D75",
"7. c #649562",
"8. c #689661",
"9. c #6B9A62",
"0. c #67956E",
"q. c #739C6E",
"w. c #608E75",
"e. c #679175",
"r. c #6FA165",
"t. c #75A462",
"y. c #78A763",
"u. c #79A863",
"i. c #918F4E",
"p. c #839D48",
"a. c #809947",
"s. c #93914F",
"d. c #9D9A52",
"f. c #86854B",
"g. c #A19D52",
"h. c #81A345",
"j. c #84A448",
"k. c #8AA449",
"l. c #84A948",
"z. c #8CAA49",
"x. c #90A448",
"c. c #92AD4A",
"v. c #96B24C",
"b. c #9CB54C",
"n. c #9BB94E",
"m. c #86AA56",
"M. c #8AAC55",
"N. c #81A458",
"B. c #86A858",
"V. c #92AF52",
"C. c #8FB153",
"Z. c #93B351",
"A. c #A1B74C",
"S. c #A4B94C",
"D. c #ACBD4F",
"F. c #AAA655",
"G. c #A6BA51",
"H. c #ABBC53",
"J. c #A6B459",
"K. c #BAB55A",
"L. c #BFBA5B",
"P. c #B0BF56",
"I. c #8CAA6C",
"U. c #8FA363",
"Y. c #9EAA61",
"T. c #AFBE6A",
"R. c #B3C157",
"E. c #B3C158",
"W. c #B4C25A",
"Q. c #BAC55D",
"!. c #BDC760",
"~. c #BEC766",
"^. c #BDC769",
"/. c #C1C963",
"(. c #C5CB66",
"). c #C7CC67",
"_. c #C6CC67",
"`. c #C5CB66",
"'. c #C9CD67",
"]. c #CCCF67",
"[. c #C8CD68",
"{. c #C8CD68",
"}. c #CACE69",
"|. c #C8CD68",
" X c #CED066",
".X c #45A6A4",
"XX c #47ABA9",
"oX c #47ABA9",
"OX c #46A9A7",
/* pixels */
"n.n.n.n.n.L.L.L.L.L.L.L.L.L.L.u.u.u.u.u.u.u.u.u.u.u.u.u.u.u.u.u.u.u.u.u.u.u.u.u.u.u.u.u.u.u.u.u.u.u.u.u.u.u.u.u.u.u.n.n.n.n.n.X ",
"n.n.n.n.n.n.L.L.L.L.L.L.n.u.u.u.n.n.n.u.u.u.u.u.u.u.u.u.u.u.u.u.u.u.u.u.u.u.u.u.e.e.e.e.u.u.u.u.u.u.u.u.u.u.u.u.u.n.n.n.n.n.n.X ",
"n.n.L.L.L.L.L.L.L.L.L.n.n.n.n.n.n.n.n.n.n.n.n.u.u.u.u.u.u.u.u.u.u.u.u.u.u.u.u.e.e.e.e.e.e.n.n.n.n.n.n.n.n.u.u.u.u.n.n.n.n.n.n.X ",
"L.L.L.L.L.L.L.L.L.L.L.n.n.n.n.n.n.n.u.u.u.u.u.u.u.u.u.u.u.u.u.u.u.u.u.e.e.e.u.e.e.e.e.e.e.e.e.e.e.n.n.n.X X X X X u.n.n.n.n.X X ",
"L.L.L.L.L.L.L.L.L.L.n.n.n.n.n.n.n.n.n.n.u.u.u.u.u.u.u.u.u.u.u.u.u.u.e.e.e.e.e.e.e.e.e.e.e.e.e.e.e.X X X X X X X X X n.n.n.n.X X ",
"n.n.n.n.n.L.L.L.L.L.n.n.n.n.n.n.n.n.n.n.n.n.u.u.u.u.u.u.u.u.u.u.u.e.e.e.e.e.L.L.L.L.e.e.e.e.L.L.L.L.X X L.L.L.X X X X n.n.X X XX",
"n.n.n.n.n.n.L.L.L.L.L.n.L.L.n.n.n.n.n.n.n.n.n.n.n.n.u.u.u.u.u.u.u.e.e.e.L.L.L.L.L.L.L.e.e.L.L.L.L.L.L.L.L.L.L.L.X X X X X X X XX",
"n.n.n.n.n.n.n.n.L.L.L.L.L.L.L.n.n.n.n.n.n.n.n.n.n.n.u.u.u.u.u.e.e.e.e.L.L.L.L.L.L.L.L.e.L.L.L.L.L.L.L.L.L.L.L.L.L.X X X X X XXXX",
"L.L.n.n.n.n.n.n.n.L.L.L.n.n.n.L.n.n.n.n.n.n.n.n.n.n.n.L.L.L.L.L.L.e.L.L.L.L.L.L.L.L.L.L.L.L.L.L.L.L.L.L.L.L.L.L.L.X X X X X X XX",
"L.L.L.n.n.n.n.n.n.n.n.n.n.n.n.n.n.n.n.n.n.n.n.n.n.n.L.L.n.n.L.L.L.L.L.L.L.L.L.L.L.L.L.L.L.L.L.L.L.L.L.L.L.L.L.L.X X X L.L.X X X ",
"L.L.L.n.n.n.L.L.n.n.n.n.n.n.n.n.n.n.n.n.n.n.n.n.n.n.L.n.n.n.n.L.L.L.L.L.L.L.L.n.n.n.L.L.L.L.L.n.n.L.L.L.L.n.n.X X L.L.L.L.L.X X ",
"L.L.L.n.n.L.L.L.L.L.n.n.n.n.n.n.n.n.n.n.n.n.n.n.n.n.n.n.n.n.n.n.n.n.n.L.L.L.n.n.n.n.n.L.L.n.n.n.n.n.n.L.n.n.n.n.L.L.L.L.L.L.X X ",
"L.L.L.L.L.L.L.L.L.L.L.L.L.L.L.L.L.L.L.n.n.n.n.n.n.n.n.n.n.n.n.n.n.n.n.n.L.L.n.n.n.n.n.L.n.n.n.n.n.n.n.n.n.n.n.n.n.n.L.L.L.L.X X ",
"L.L.L.L.L.L.L.L.L.n.n.n.n.n.n.n.n.n.n.n.n.n.n.n.n.n.n.n.n.n.n.n.n.n.n.n.n.n.n.n.n.n.n.L.n.n.n.n.n.n.n.n.n.n.n.n.n.n.n.L.L.L.X X ",
"n.n.n.n.n.n.n.n.n.n.n.n.u.u.u.u.u.u.n.n.n.n.n.n.n.n.n.n.n.n.n.n.n.n.n.n.n.n.n.n.n.n.n.n.n.n.n.n.n.n.n.n.n.n.n.n.n.n.n.L.L.X X X ",
"n.n.n.n.n.n.n.n.n.n.u.u.u.u.u.u.u.u.u.n.u.u.u.u.n.n.n.n.n.n.L.L.L.n.n.n.n.n.n.n.n.n.n.n.n.n.n.n.n.n.n.n.n.n.n.n.n.n.n.L.X X X X ",
"n.n.n.n.n.n.n.n.u.u.u.u.u.u.u.u.u.u.u.u.u.u.u.u.u.n.n.n.L.L.L.L.L.L.n.n.n.n.n.n.n.n.n.n.u.u.u.n.n.n.n.n.n.n.n.X X X X X X X X XX",
"n.n.n.n.n.n.n.u.u.u.u.u.u.u.u.u.u.u.u.u.u.u.u.u.u.L.L.L.L.L.L.L.L.L.L.L.L.L.u.u.u.n.n.u.u.u.u.u.n.n.n.n.n.n.n.n.n.X X X X XXXXXX",
"n.n.n.n.n.u.u.u.u.u.u.n.n.n.n.n.u.u.u.u.u.u.u.u.u.u.u.u.L.L.L.L.L.L.L.L.L.u.u.u.u.u.u.u.n.n.u.u.u.n.n.n.n.n.n.u.u.u.X X X XXXXXX",
"n.n.n.u.u.u.u.u.u.u.n.n.n.n.n.n.n.u.u.u.n.n.n.u.u.u.u.u.u.u.L.L.L.u.u.u.u.u.n.n.u.u.u.n.n.n.n.u.u.u.u.u.n.n.u.u.u.u.u.X X X XXXX",
"u.n.n.n.n.n.n.n.n.n.n.n.n.n.n.n.n.u.u.n.n.n.n.m.M M M M M 2.n.n.n.n.b.,.M M M M N M.Z.n.n.Z.Z.Z.Z.n.u.u.n.u.u.u.u.u.u.X X X XXXX",
"u.u.u.u.n.n.n.n.n.n.n.n.n.n.n.n.n.n.n.Z.C.Z.m.N M -.-.-.N M 7.n.C.Z.2.M M I -.-.-.N -.M.m.N N M ;.Z.n.n.n.u.u.u.u.u.X X X X XXXX",
"n.n.n.n.n.n.n.n.n.n.n.n.n.n.n.n.n.n.C.-.M M M M ,.b.b.A.N.N 2.8.M M M M I m.b.b.b.:.M M M M -.-.-.;.Z.n.u.u.u.u.u.X X X X X XXXX",
"n.n.n.n.n.n.n.n.e.e.e.e.e.n.n.e.e.w.-.M ;.;.-.-.b.A.A.A.S.*.m M M M M -.m.A.G.H.A.b.<.M M ,.b.A.m.-.;.r.r.t.u.n.X X n.n.X X X XX",
"n.n.n.n.n.n.n.e.e.e.e.e.e.e.e.e.6.N M :.b.A.Z.-.b.A.A.A.b.7.I 5.5.4.m *.A.G./.).G.A.b.N -.b.A.A.S.N.M M M <.t.n.n.n.n.n.n.X X X ",
"n.n.n.n.n.e.e.e.L.L.L.L.e.6.6.Y.;.M <.b.A.b.*.2.H.H.A.b.8.N I.]. Xq.-.m.H./.'.).S.A.G.w.0.H.A.A.b.8.m M M M 7.Z.n.n.n.n.n.n.X X ",
"n.n.e.e.e.e.L.L.L.L.L.L.J.1.M M M M V.A.A.b.7.H.{./.G.7.N I.].).].q.$.D./.{.).).S.H.`.'.'.`.H.A.N.N ,.,.,.-.M 3.u.n.n.n.n.n.X X ",
"L.e.e.L.L.L.L.L.L.L.L.g.P M :.2.N M V.H.H.H.S.).).'.T.e.I.].).).'.I.B.Q.{.).).).E.`.).).).'./.A.M.$.S.S.S.N.-.:.t.u.n.n.n.X X X ",
"L.L.L.L.L.L.L.L.L.L.@.3 u P Z.S.$.N 8.~.{.).W.).).).'.].'.).).).).'.Q.!.'.).).).{.).).).).'./.A.A.S.A.A.A.S.8.m U.L.X X X X X XX",
"n.n.n.n.n.n.L.L.u.@.3 X   8 c.S.S.$.q.^.'.).{.).).).).).'.{.).).).{.{.).).).{.).).).).).'.`.E.A.A.A.A.A.A.S.8.m U.L.L.L.X X XXXX",
"n.n.n.n.n.n.n.n.p.2 . > 9 - 2 x.A.S.W.W.).{.{.{.).).).{./.Q.{.).{.!./.{.).).Q.`.{.{.{.{.).E.A.A.A.S.S.S.S.m.:.<.M.n.L.L.L.X X XX",
"n.n.n.n.n.n.n.n.F X > ~ l.w 0 k.A.A.A.A.E.E.E.W.{.{./.E.H.S.!.{.!.G.H./.).).Q.E.E.E.E.E.R.A.A.D.x.0 0 _ M.:.k ^ n.n.n.n.n.X X XX",
"L.L.L.n.n.k.7 0 2 . 9 l.&.z.A.A.A.A.A.A.z.b.A.A.R.E.H.b.A.A.G.E.H.b.H./.).).{.Q.W.A.A.A.A.A.x.7 2     : S l & , p.n.n.n.n.X X XX",
"L.L.L.L.k.2 X X X . 7 l.&.c.A.A.A.A.z.z.c.A.A.A.A.A.A.A.A.A.A.A.A.A.Q.{.).).).{.).S.A.A.A.A.c.F G G 8   & & O X 1 p.n.n.n.X X XX",
"L.L.L.F.5 X & g g u = F %.c.A.A.A.A.v.h.b.A.A.A.A.b.z.c.A.A.A.A.A.A.H./.{.).).).).S.A.A.A.A.A.S.S.S.c.8 . 2 C > . , p.n.X X X XX",
"n.n.n.g.X & c N N b y = r l.b.A.A.A.A.j.z.A.A.b.z.j.&.&.c.A.A.A.A.A.A.H./.{.'.).P.A.A.A.A.A.A.A.A.A.S.G   9 l.~ > . X X X X XXXX",
"n.n.n.p.X t N M M N v k T &.l.b.A.A.z.&.&.j.j.j.&.&.&.&.z.A.A.A.A.A.c.v.H.H.H.H.A.A.A.A.A.A.A.A.A.A.S.e 1 } &.%.~ > X X X X X XX",
"n.n.n.p.X t N M M M M M +.&.&.l.j.j.&.&.&.&.&.&.l.b.b.b.c.z.A.A.A.c.&.c.A.A.A.A.A.A.b.z.A.A.A.A.A.A.A.k.} &.&.&.l.2 X  .u.X X X ",
"n.n.n.p.X t M N g & & V &.&.&.&.&.&.&.&.b.b.&.h.b.A.A.A.A.c.l.l.j.&.&.h.b.A.A.A.A.A.b.&.l.j.z.A.A.A.v.j.&.&.&.%.7 @ X : k.n.X X ",
"n.n.n.a.X X p g $ X 6 ] &.&.&.&.&.&.&.b.A.A.b.b.A.A.A.A.A.c.&.&.&.z.b.j.h.l.b.A.A.A.b.&.l.b.b.A.b.j.h.&.&.&.&.E b t X X ; k.X X ",
"u.u.@.- X X + $ . 4 ] &.&.&.&.&.&.&.&.b.A.A.A.A.A.A.A.A.A.A.b.z.&.c.A.b.j.&.b.A.A.b.j.h.b.A.A.A.v.&.&.&.&.&.h.>.M b t X X k.X X ",
"u.#.- X X $ $ # . 6 &.&.] ' ' { { &.&.h.b.b.A.A.A.A.b.A.A.A.A.A.z.c.A.A.A.j.&.b.b.j.&.h.b.A.A.A.v.&.&.&.&.&.&.>.M M m & X X X X ",
"n.z.@ X t b m f + X 7 ] 6 @ % x N [ &.&.&.l.b.A.A.v.z.A.A.A.A.A.z.&.c.b.b.j.&.&.&.&.&.&.l.b.b.v.&.&.&.&.{ { R M M M N * X X X XX",
"n.k.o & m M M M f + o @ o $ g M M o.&.&.&.&.j.b.b.&.j.b.A.A.A.b.z.&.&.&.&.&.&.&.&.&.&.&.&.&.&.&.&.&.&.+.M N M M M M b & X X OXXX",
"b.! o & M M M M N f % & + a M M M M o.[ &.&.&.&.&.&.&.j.b.b.z.&.&.&.&.&.&.&.&.&.&.&.&.&.&.&.&.&.&.&.&.X.N M M M b v * X X X .XXX",
"b.! o & v M M M M M M N a X s m M M -.-.{ &.&.&.&.&.&.&.&.&.&.&.&.&.&.&.&.&.&.[ &.&.&.&.&.&.&.&.&.&.&.&.+.N M b t X X X X X X OX",
"c.! : X & x v N M M M M N a & x M M [ &.&.&.&.&.&.&.&.&.&.&.&.[ { &.&.&.&.&.[ I [ &.&.&.&.[ &.&.&.&.&.&.h.E M s # X X X X X X X ",
"_ _ ! : X X & c M M M M M M M M M M [ &.&.&.&.&.O.&.&.&.&.&.{ =.=.{ &.&.&.[ I -.{ &.&.&.[ -.&.&.&.&.&.&.{ >.M N s $ X X H X X X ",
"K K ` A X X $ s N M M M M M M M M M +.&.&.&.&.+.-.&.&.&.&.{ E =.n >.o.X.X.-.M [ &.&.&.&.[ -.&.&.&.&.&.h.Q M M M N a $ X H s.X X ",
"L L K A X $ d N M M N M M M M M M M M Q X.X.{ =.-.&.&.&.h.+.>.h.X.=.n -.=.N M E &.&.&.X.Q n o.&.&.&.h.[ S c N M M N t X H s.X X ",
"e.F.s.A X t Y M N c d c M M M M M M M M M >.&.[ n o.h.h.{ =.>.&.&.h.+.[ j.E N M E +.Q M M M n +.+.+.X.S t i N M M N t X H s.X X ",
"K.i.s.H X & l U v u O a N M M M M M M M N &.&.[ M n Q +.>.m R h.&.&.h.o.[ h.-.M M M M M M M M M M c s t O s N M N l & X H X X X ",
"L.F.s.f.5 X % d u . * x N M M M M M M M M E { R M M M M M M -.O.&.&.h.=.=.E n M M M M M M M M M M c p i * * c Y l % X X X X X XX",
"L.K.i.s.( 2 X X X X s Y M M M M N M M M M M >.M M M M M M M M -.O.j.o.-.M M M M M M M M M M N M M M N Y d O * a & X X X X X X XX",
"L.L.k._ ` ! 7 7 9 < & x N N M M d v M M M M M M M M M M M M M M -.R -.M M M M M M M M M M b d N M M N x * X X X X X ! ` X X X X ",
"n.n.b.k._ _ ` ` ` 7 X & p u c U * c N M M M M M M M M N M M M M M M M M M M M M M M M M M v $ s N N c & X 3 D D ! ` _ _ k.X X X ",
"n.n.n.b.z.k._ _ ` ! 1 X X . * u $ t b M M M M M M N c s N M M M M N d l M M M M M M M N b u X $ u u & X X 8 ` ` ` _ k.z.b.X X X ",
"n.n.n.n.n.b.@.T T | Z B B B ; X X X t b M M M M N v & $ d N N N N f $ g N M M M M M m u * X X X X X X , q G ` _ _ k.b.n.n.X X X ",
"n.n.n.n.n.n.b.c.k.T T | | | Z w w w w / M M M b t & X X $ t t t t % X & x N M M M M M j q w w w w w w G ` ` T @.$.b.n.n.n.X X XX",
"n.n.n.n.n.n.n.n.b.v.p._ T T T ` ` ` ` _ W ^ ^ / e e F h X X X X X X X X & * * v M M  .^ ` ` ` v.z.` ` ` _ @.t.t.u.u.n.n.X X XXXX",
"n.n.n.n.n.n.L.L.n.n.v.v.p._ _ _ _ _ _ _ _ _ ` c.` ` ` ( F F F F F F F F F F F ^ ^ ^ _ _ _ _ T @.y.k._ p.t.t.u.u.u.u.X X X XXXXXX",
"n.n.n.n.n.L.L.L.L.n.n.n.b.K.K.d.s.` ` _ _ ` v.v._ _ _ _ ` ` ` ` ` ` ` ` ` ` ` ` _ _ _ _ _ T T ..u.y.t.t.u.u.u.u.u.X X X X X X XX",
"n.n.n.L.L.L.L.L.L.L.L.L.L.L.L.K.K.K.K.` ` v.n.v._ _ _ T ..#.T _ _ _ _ _ _ ` c.v.` ` ` `  .t.t.t.u.u.u.u.u.u.u.u.u.u.u.u.u.u.X X ",
"u.u.L.L.L.L.L.L.L.L.L.L.L.L.L.L.u.u.u.t.b.n.u.t.T T T ..$.T T T T _ _ T T $.u.n.b.b.b.t.t.u.u.u.u.u.u.u.u.n.n.n.n.n.n.u.u.u.u.X "
};
