/* XPM */
static const char *right5[] = {
/* columns rows colors chars-per-pixel */
"64 64 194 2 ",
"   c #0B0F2C",
".  c #0E122C",
"X  c #13162B",
"o  c #161C2E",
"O  c #181E2E",
"+  c #121227",
"@  c #171F30",
"#  c #1C232F",
"$  c #172031",
"%  c #192333",
"&  c #1B2C3A",
"*  c #192839",
"=  c #1E323E",
"-  c #21292F",
";  c #202830",
":  c #2B3633",
">  c #2A3838",
",  c #323D35",
"<  c #303731",
"1  c #2F403B",
"2  c #354335",
"3  c #3D4A37",
"4  c #3E4138",
"5  c #384235",
"6  c #434E37",
"7  c #435339",
"8  c #465A3A",
"9  c #4C5C3B",
"0  c #4F523D",
"q  c #57583F",
"w  c #4D633B",
"e  c #53633C",
"r  c #5C6C3E",
"t  c #57693D",
"y  c #5E713F",
"u  c #5E793F",
"i  c #63753F",
"p  c #1F3541",
"a  c #1F3A46",
"s  c #213A44",
"d  c #213E48",
"f  c #22424B",
"g  c #26484E",
"h  c #274C51",
"j  c #284F53",
"k  c #295255",
"l  c #2B5659",
"z  c #2C5B5C",
"x  c #265259",
"c  c #33635E",
"v  c #2E6262",
"b  c #306664",
"n  c #316967",
"m  c #326C69",
"M  c #34726D",
"N  c #3F7E6E",
"B  c #357671",
"V  c #377A73",
"C  c #397C73",
"Z  c #2E7575",
"A  c #405C43",
"S  c #5A5C40",
"D  c #4E6B4B",
"F  c #4B6847",
"G  c #5E6041",
"H  c #5E7940",
"J  c #476358",
"K  c #416B59",
"L  c #4E7D5A",
"P  c #46735C",
"I  c #567750",
"U  c #507E5D",
"Y  c #627540",
"T  c #677C41",
"R  c #6B7C41",
"E  c #7B7A48",
"W  c #407F6E",
"Q  c #4F7B65",
"!  c #517261",
"~  c #587C68",
"^  c #417F73",
"/  c #398077",
"(  c #398178",
")  c #5E8354",
"_  c #5B8E5D",
"`  c #56865D",
"'  c #5F905A",
"]  c #6E8443",
"[  c #6D8D43",
"{  c #6B8A4E",
"}  c #67864D",
"|  c #778F45",
" . c #788F44",
".. c #739444",
"X. c #799145",
"o. c #749C4C",
"O. c #789E4A",
"+. c #799C46",
"@. c #648955",
"#. c #668D58",
"$. c #659456",
"%. c #6A9653",
"&. c #6E9851",
"*. c #619159",
"=. c #6A935B",
"-. c #6E9A5F",
";. c #679858",
":. c #739D5E",
">. c #789F59",
",. c #7DA147",
"<. c #7BA148",
"1. c #7DA259",
"2. c #4B8566",
"3. c #44826D",
"4. c #4B856C",
"5. c #4F8B6D",
"6. c #528963",
"7. c #598E66",
"8. c #538A6A",
"9. c #5A9066",
"0. c #448272",
"q. c #578C70",
"w. c #5F8D75",
"e. c #629463",
"r. c #6C9E65",
"t. c #679568",
"y. c #749D6E",
"u. c #618E75",
"i. c #679175",
"p. c #6A9770",
"a. c #6FA165",
"s. c #75A462",
"d. c #78A763",
"f. c #79A863",
"g. c #86854B",
"h. c #918F4E",
"j. c #839C48",
"k. c #93914F",
"l. c #809D50",
"z. c #9B9951",
"x. c #81A346",
"c. c #84A548",
"v. c #89A349",
"b. c #83A848",
"n. c #8CAA49",
"m. c #91A549",
"M. c #91AD4A",
"N. c #96B14B",
"B. c #9BB54C",
"V. c #9BB94E",
"C. c #85A756",
"Z. c #86AB56",
"A. c #8AAC55",
"S. c #8BAE58",
"D. c #80A458",
"F. c #93AF51",
"G. c #8FB253",
"H. c #93B351",
"J. c #A1B74C",
"K. c #A3B94C",
"L. c #A9BE4D",
"P. c #A8A757",
"I. c #A7BA50",
"U. c #ABBD53",
"Y. c #A0B654",
"T. c #B0BF57",
"R. c #BAB55A",
"E. c #BFBA5B",
"W. c #B0BF58",
"Q. c #8DAB6C",
"!. c #98A862",
"~. c #ABBC6A",
"^. c #B1C057",
"/. c #B4C159",
"(. c #BAC55D",
"). c #BDC760",
"_. c #BFC761",
"`. c #BFC862",
"'. c #C5CB66",
"]. c #C7CC67",
"[. c #C6CC67",
"{. c #C4CB65",
"}. c #C9CD67",
"|. c #CCCF67",
" X c #C8CD68",
".X c #C8CD68",
"XX c #CACE69",
"oX c #C8CD68",
"OX c #C0C869",
"+X c #CED066",
"@X c #45A6A4",
"#X c #47ABA9",
"$X c #47ABA9",
"%X c #46A9A7",
/* pixels */
"V.V.V.V.V.E.E.E.E.E.E.E.E.E.E.f.f.f.f.f.f.f.f.f.f.f.f.f.f.f.f.f.f.f.f.f.f.f.f.f.f.f.f.f.f.f.f.f.f.f.f.f.f.f.f.f.f.f.V.V.V.V.V.o ",
"V.V.V.V.V.V.E.E.E.E.E.E.V.f.f.f.V.V.V.f.f.f.f.f.f.f.f.f.f.f.f.f.f.f.f.f.f.f.f.f.i.i.i.i.f.f.f.f.f.f.f.f.f.f.f.f.f.V.V.V.V.V.V.o ",
"V.V.E.E.E.E.E.E.E.E.E.V.V.V.V.V.V.V.V.V.V.V.V.f.f.f.f.f.f.f.f.f.f.f.f.f.f.f.f.i.i.i.i.i.i.V.V.V.V.V.V.V.V.f.f.f.f.V.V.V.V.V.V.o ",
"E.E.E.E.E.E.E.E.E.E.E.V.V.V.V.V.V.V.f.f.f.f.f.f.f.f.f.f.f.f.f.f.f.f.f.i.i.i.f.i.i.i.i.i.i.i.i.i.i.V.V.V.o o o o o f.V.V.V.V.o o ",
"E.E.E.E.E.E.E.E.E.E.V.V.V.V.V.V.V.V.V.V.f.f.f.f.f.f.f.f.f.f.f.f.f.f.i.i.i.i.i.i.i.i.i.i.i.i.i.i.i.o o o o o o o o o V.V.V.V.o o ",
"V.V.V.V.V.E.E.E.E.E.V.V.V.V.V.V.V.V.V.V.V.V.f.f.f.f.f.f.f.f.f.f.f.i.i.i.i.i.E.E.E.E.i.i.i.i.E.E.E.E.o o E.E.E.o o o o V.V.o o #X",
"V.V.V.V.V.V.E.E.E.E.E.V.E.E.V.V.V.V.V.V.V.V.V.V.V.V.f.f.f.f.f.f.f.i.i.i.E.E.E.E.E.E.E.i.i.E.E.E.E.E.E.E.E.E.E.E.o o o o o o o #X",
"V.V.V.V.V.V.V.V.E.E.E.E.E.E.E.V.V.V.V.V.V.V.V.V.V.V.f.f.f.f.f.i.i.i.i.E.E.E.E.E.E.E.E.i.E.E.E.E.E.E.E.E.E.E.E.E.E.o o o o o #X#X",
"E.E.V.V.V.V.V.V.V.E.E.E.V.V.V.E.V.V.V.V.V.V.V.V.V.V.V.E.E.E.E.E.E.i.E.E.E.E.E.E.E.E.E.E.E.E.E.E.E.E.E.E.E.E.E.E.E.o o o o o o #X",
"E.E.E.V.V.V.V.V.V.V.V.V.V.V.V.V.V.V.V.V.V.V.V.V.V.V.E.E.V.V.E.E.E.E.E.E.E.E.E.E.E.E.E.E.E.E.E.E.E.E.E.E.E.E.E.E.o o o E.E.o o o ",
"E.E.E.V.V.V.E.E.V.V.V.V.V.V.V.V.V.V.V.V.V.V.V.V.V.V.E.V.V.V.V.E.E.E.E.E.E.E.E.V.V.V.E.E.E.E.E.V.V.E.E.E.E.V.V.o o E.E.E.E.E.o o ",
"E.E.E.V.V.E.E.E.E.E.V.V.V.V.V.V.V.V.V.V.V.V.V.V.V.V.V.V.V.V.V.V.V.V.V.E.E.E.V.V.V.V.V.E.E.V.V.V.V.V.V.E.V.V.V.V.E.E.E.E.E.E.o o ",
"E.E.E.E.E.E.E.E.E.E.E.E.E.E.E.E.E.E.E.V.V.V.V.V.V.V.V.V.V.V.V.V.V.V.V.V.E.E.V.V.V.V.V.E.V.V.V.V.V.V.V.V.V.V.V.V.V.V.E.E.E.E.o o ",
"E.E.E.E.E.E.E.E.E.V.V.V.V.V.V.V.V.V.V.V.V.V.V.V.V.V.V.V.V.V.V.V.V.V.V.V.V.V.V.V.V.V.V.E.V.V.V.V.V.V.V.V.V.V.V.V.V.V.V.E.E.E.o o ",
"V.V.V.V.V.V.V.V.V.V.V.V.f.f.f.f.f.f.V.V.V.V.V.V.V.V.V.V.V.V.V.V.V.V.V.V.V.V.V.V.V.V.V.V.V.V.V.V.V.V.V.V.V.V.V.V.V.V.V.E.E.o o o ",
"V.V.V.V.V.V.V.V.V.V.f.f.f.f.f.f.f.f.f.V.f.f.f.f.V.V.V.V.V.V.E.E.E.V.V.V.V.V.V.V.V.V.V.V.V.V.V.V.V.V.V.V.V.V.V.V.V.V.V.E.o o o o ",
"V.V.V.V.V.V.V.V.f.f.f.f.f.f.f.f.f.f.f.f.f.f.f.f.f.V.V.V.E.E.E.E.E.E.V.V.V.V.V.V.V.V.V.V.f.f.f.V.V.V.V.V.V.V.V.o o o o o o o o #X",
"V.V.V.V.V.V.V.f.f.f.f.f.f.f.f.f.f.f.f.f.f.f.f.f.f.E.E.E.E.E.E.E.E.E.E.E.E.E.f.f.f.V.V.f.f.f.f.f.V.V.V.V.V.V.V.V.V.o o o o #X#X#X",
"V.V.V.V.V.f.f.f.f.f.f.V.V.V.V.V.f.f.f.f.f.f.f.f.f.f.f.f.E.E.E.E.E.E.E.E.E.f.f.f.f.f.f.f.V.V.f.f.f.V.V.V.V.V.V.f.f.f.o o o #X#X#X",
"V.V.V.f.f.f.f.f.f.f.V.V.V.V.V.V.V.f.f.f.V.V.V.f.f.f.f.f.f.f.E.E.E.f.f.f.f.f.V.V.f.f.f.V.V.V.V.f.f.f.f.f.V.V.f.f.f.f.f.o o o #X#X",
"f.V.V.V.V.V.V.V.V.V.V.V.V.V.V.V.V.f.f.V.V.V.A.C V V V V 7.V.V.V.V.V.9.V V V V V Z.H.V.V.H.H.H.H.V.V.f.f.V.f.f.f.f.f.f.o o o #X#X",
"f.f.f.f.V.V.V.V.V.V.V.V.V.V.V.V.V.V.H.H.H.A.C V 3.3.3.C V e.V.G.H.e.V V C 3.3.3.C C A.A.C C V 3.s.V.V.V.V.f.f.f.f.f.o o o o #X#X",
"V.V.V.V.V.V.V.V.V.V.V.V.V.V.V.V.V.G.3.V V V V 8.B.B.J.C.C 9.r.V V V V C C.J.B.B.8.V V V V 3.3.3.3.s.V.V.f.f.f.f.f.o o o o o #X#X",
"V.V.V.V.V.V.V.V.i.i.i.i.i.V.V.i.u.C V 3.3.3.3.B.J.J.J.K.1.V V V V V 3.C.K.I.I.J.B.8.V V 8.B.K.Z.V 3.a.r.s.f.f.V.o o V.V.o o o #X",
"V.V.V.V.V.V.V.i.i.i.i.i.i.i.i.i.^ V 4.H.J.N.7.A.J.J.J.K.1.B 0.q.q.^ e.B.J.).}.U.J.B.8.W B.J.J.A.4.3.V V 5.r.r.H.V.V.V.V.V.o o o ",
"V.V.V.V.V.i.i.i.E.E.E.E.i.i.w.!.4.V F.K.J.J.H.3.J.U.I.K.1.Z y.+X|.Q.C 1.K.).}.].U.J.B.t.U.U.I.J.K.D.B V V V V e.H.V.V.V.V.V.o o ",
"V.V.i.i.i.i.E.E.E.E.E.E.E.P.8.V V V >.B.J.J.N.e.W. X{.Y.e.^ Q.}.].+Xp.>.U.{.}.].].K.U.}. X X{.U.K.1.C 7.7.7.3.V t.V.V.V.V.V.o o ",
"E.i.i.E.E.E.E.E.E.E.E.E.E.t.V 8.7.C V H.U.U.U.L.].].}.~.i.Q.|.].].}.Q.A.(. X].].]./.'.].].].}.).K.A.>.K.K.K.1.3.8.s.V.V.V.o o o ",
"E.E.E.E.E.E.E.E.E.E.f.f.@.Q 8.F.K.-.C -.{. X'./.].].].}.|.}.].].].].}.(._.].].].]. X].].].].}.).J.K.K.J.J.J.K.e.V !.o o o o o #X",
"V.V.V.V.V.V.E.E.f.f.f.#.> a l.L.K.K.:.y.OX].]. X].].].].].].}.].].].}. X].].]. X].].].].].].'.^.J.J.J.J.J.J.K.e.V !.E.E.o o #X#X",
"V.V.V.V.V.V.V.V.V.V.+.2 o X 6 t m.K.K././.]. X X X].].]. X{.(. X]. X(.{.}.].].(.'. X X X X'.^.J.J.K.L.L.K.K.S.K U G.E.E.E.o o #X",
"V.V.V.V.V.V.V.V.V.+., X 2 w 8 e m.K.J.J.J././././. X X{./.U.I.). X).K.U.{.].].(./././././.T.J.K.L.v.e e  .S.K * 3 v.V.V.V.o o #X",
"E.E.E.V.V.V.V.V.V.Y X 2 [ x.n.K.K.J.K.J.n.B.J.J.K././.U.B.J.J.I./.I.B.U.{.].]. X(./.J.J.J.J.K.v.9 5   . < P f X o 3 v.V.V.o o #X",
"E.E.E.E.V.V.j.8 9 , 2 [ ,.n.B.J.J.J.n.n.M.J.J.J.J.J.J.J.J.J.J.J.J.J.U.'. X].].]. X].K.J.J.J.K.m.i T R 7 . * A , X o X.V.V.o o #X",
"E.E.E.E.P.0 4 o o X w b.<.N.K.J.J.J.x.M.J.J.J.K.B.n.n.K.J.J.J.J.J.J.(. X].].]. X].T.J.J.J.J.J.K.K.K.L.m.6 2 ..[ : X 2 v.o o o #X",
"V.V.V.P.4 o & v v d - u x.x.B.K.J.J.x.n.B.K.B.n.c.,.,.n.J.J.J.J.J.J.I._. X X X^.U.J.J.J.J.J.J.J.J.J.J.L.r 8 x.x.[ : o o o o #X#X",
"V.V.V.j.o & m C C M s # u ,.x.B.K.n.,.,.c.c.c.,.,.,.,.c.K.J.J.J.K.M.N.I.U.U.U.K.J.J.J.J.J.J.J.J.J.J.J.L.r 8 x.,.b.5 X o o o o #X",
"V.V.V.j.o p C V V V M v ) ,.,.x.c.,.,.,.,.,.,.x.B.B.B.M.n.J.J.K.M.,.M.J.J.J.J.J.J.B.n.B.J.J.J.J.J.J.K.N.....,.x.9 # o > =.o o o ",
"V.V.V.j.o p C V V V V V *.,.,.,.,.,.,.N.B.,.x.B.J.J.J.J.M.x.x.c.x.,.x.N.J.J.J.J.J.B.x.x.c.n.J.J.J.N.x.x.,.,.,._ M p o o : v.o o ",
"V.V.V.j.o p V V z * * F <.,.,.,.,.,.N.J.J.B.B.J.J.J.J.K.N.,.,.<.n.B.n.x.x.B.J.J.J.B.x.x.B.B.J.B.x.x.,.,.,.,.x.6.V M = o o v.o o ",
"f.f.f.@.o o f z $ o 8 +.,.,.,.,.,.,.B.J.J.J.J.J.J.J.J.J.J.B.M.,.M.K.B.n.,.N.J.J.B.c.x.B.J.J.J.B.,.,.,.,.,.,.,.6.V V M & o v.o o ",
"f.f.#.% o o @ % X 7 +.,.,.,.,.,.,.,.x.B.B.J.J.J.J.B.J.J.J.J.J.n.n.J.J.J.c.,.B.B.c.,.x.B.J.J.J.N.,.,.,.<.O.<._ V V V C = o o o o ",
"V.n.; o o * * % X 7 ,.,.,.+...o.<.,.,.,.x.B.J.J.B.c.J.J.J.J.K.M.,.M.B.B.c.,.,.,.,.,.,.x.B.B.B.,.,.,.,.*.V C V V V V B & o o o #X",
"V.v.O o s B V z $ o 8 ....3 % b %.,.,.,.,.x.B.B.,.c.B.B.J.J.J.n.,.,.,.,.,.,.,.,.,.,.,.,.,.,.,.,.,.,.,.$.V V V V M M p o o o %X#X",
"V.] O & V V V C z % o O O % z V V $.o.o.<.,.,.,.,.,.,.c.B.B.n.,.,.,.,.,.,.,.,.,.,.,.,.,.,.,.,.,.,.,.,.,.*.C V M s o o o o o @X#X",
"V.] O & V V V V C l * % X h B V V V V 3.O.,.,.,.,.,.,.,.,.,.,.O.O.,.,.,.,.,.,.o.<.,.,.,.,.,.,.,.,.,.,.,.,._ V h @ o o o o o o %X",
"M.] O * m C V V V V C k % X h M V V 3.O.,.,.,.,.,.,.,.,.,.,.O.6.6.O.,.,.,.o.&.W o.,.,.,.<.o.,.,.,.,.,.,.O.6.V C h @ o o o o o o ",
"| ] : o * v n C V V V C k = = b V V o.,.,.,.,.<.&.,.,.,.,.O._ 2.C 6.&.%.%.3.V 3.O.,.,.,.o.3.,.,.,.,.,.x.' V V V C h % o E o o o ",
"! ! ] > o X & n V V V V V C C V V V *.,.,.,.<.*.3.,.,.,.x.*.6.x.$.2.C 3.2.C V o.,.,.,.,.o.3.,.,.,.,.x.<.L m V V V C p o E k.o o ",
"~ ~ ! J o o % k C V V V V V V V V V V ' $.$.O.2.3.,.,.,.O.6.6.,.,.x.*.&.x._ C _ <.,.,.$.' N %.,.x.o.;.L a g C V V C p o E k.o o ",
"i.P.k.J o * k C V V C C V V V V V V V V V 6.<.o.N %.x.O.6.B ` x.,.,.,.%.O.x.3.V _ *.' V V V N *.*.L x a X h C V C v * o E k.o o ",
"R.h.k.E o p ( V C n j b V V V V V V V V C <.,.o.V N *.6.V V 3.&.,.,.x.2.6.*.W V V V V V V V V V V v f f = p m / v * o 2 g.o o o ",
"E.P.k.E o * z / m p + h C V V V V V V V V _ O._ V V V V V V V 3.o.x.%.3.V V V V V V V V V V V V V V C ( k X p k * o 5 o o o o %X",
"E.R.k.g.3 o * h p X = b V V V V V V V V V V 6.V V V V V V V V V 3._ 3.V V V V V V V V V V V C V V V C n = o o o 4 o o o o o o #X",
"E.E.v.| | 3 o o o o h ( V V V V C V V V V V V V V V V V V V V V V V V V V V V V V V V V V M k C V C n = X , G S o o X.| o o o o ",
"V.V.V.v.| ] e e e 2 * v C C C C j m V V V V V V V V V C C V V V V C l v V V V V V V V V V m % j C m = o o q z.k.X.| | | v.o o o ",
"V.V.V.V.n.v.X.X.+.9 o & d d d d % n C V V V V V V V m s k C C C C z % z C V V V V V V C M s o % d = o , t T X.| | | v.n.V.o o o ",
"V.V.V.V.V.V.=.) ) I , o o o o o o = M V V V V V C m = X * s s s s * o & n C V V V V B s = o o o o : r T X.X.| | | v.V.V.V.o o o ",
"V.V.V.V.V.V.V.M.v.) I F D D F y y y } @.V V V M p & o o o o o o o o o o & = m V V V V c r y y y y T X.X.| | ) =.:.V.V.V.V.o o #X",
"V.V.V.V.V.V.V.V.V.N.v. .) ) ) X.X.X. . .` { { } i i Y D D D D Y Y Y Y D D i > m V V @.{ X.X.+.N.n.| | | | =.s.s.f.f.V.V.o o #X#X",
"V.V.V.V.V.V.E.E.V.V.N.N.j.| | | | | | |  . .X.M.X.X.X.X.X.X.X.X.X.X.X.X.X.X.R { { { |  .| | ) =.f.v.| j.s.s.f.f.f.f.o o o #X#X#X",
"V.V.V.V.V.E.E.E.E.V.V.V.V.R.R.z.k.X.X.| | X.N.N. .| | | | X.| | | | | | | | X.X. . .| | | ) ) #.f.f.s.s.f.f.f.f.f.o o o o o o #X",
"V.V.V.E.E.E.E.E.E.E.E.E.E.E.E.R.R.R.R.+.X.N.V.N. .| | ) #.-.) | | | | | | X.M.N.+.X.X.X.@.s.s.s.f.f.f.f.f.f.f.f.f.f.f.f.f.f.o o ",
"f.f.E.E.E.E.E.E.E.E.E.E.E.E.E.E.f.f.f.s.V.V.f.s.) ) ) #.:.) ) ) ) | | ) ) :.f.V.V.V.V.s.s.f.f.f.f.f.f.f.f.V.V.V.V.V.V.f.f.f.f.o "
};
