/* XPM */
static const char *right6[] = {
/* columns rows colors chars-per-pixel */
"64 64 192 2 ",
"   c #0D122C",
".  c #13162B",
"X  c #161C2E",
"o  c #181E2E",
"O  c #121227",
"+  c #171E30",
"@  c #1C222E",
"#  c #172031",
"$  c #192333",
"%  c #1A2837",
"&  c #1C2C3A",
"*  c #182739",
"=  c #1E313E",
"-  c #21292F",
";  c #232B31",
":  c #2C3533",
">  c #2B3736",
",  c #313E34",
"<  c #2F403B",
"1  c #364335",
"2  c #394536",
"3  c #3C4B37",
"4  c #3E4139",
"5  c #404B36",
"6  c #405238",
"7  c #495639",
"8  c #465A3A",
"9  c #4C5C3B",
"0  c #57593F",
"q  c #4C613B",
"w  c #53633C",
"e  c #596B3E",
"r  c #5D713E",
"t  c #5E793F",
"y  c #63753F",
"u  c #1F3541",
"i  c #1F3A45",
"p  c #213C46",
"a  c #213E48",
"s  c #23434B",
"d  c #26484E",
"f  c #314F48",
"g  c #3E5443",
"h  c #274D52",
"j  c #284F53",
"k  c #295256",
"l  c #2C5B5C",
"z  c #295659",
"x  c #32605B",
"c  c #2B5F62",
"v  c #2E6161",
"b  c #306764",
"n  c #316967",
"m  c #326C69",
"M  c #34726D",
"N  c #3E7E6F",
"B  c #357671",
"V  c #377A73",
"C  c #397C74",
"Z  c #2E7575",
"A  c #5C5E40",
"S  c #425842",
"D  c #4C684A",
"F  c #4B6847",
"G  c #5E6041",
"H  c #5E7940",
"J  c #476358",
"K  c #47765A",
"L  c #567750",
"P  c #657A41",
"I  c #6A7C41",
"U  c #617540",
"Y  c #7B7A48",
"T  c #417F6D",
"R  c #417665",
"E  c #517261",
"W  c #587C68",
"Q  c #407F72",
"!  c #398078",
"~  c #398077",
"^  c #5E8354",
"/  c #53815B",
"(  c #5B8E5C",
")  c #578C5F",
"_  c #5E905B",
"`  c #6E8443",
"'  c #6D8C43",
"]  c #68874C",
"[  c #698A4F",
"{  c #65854E",
"}  c #778E45",
"|  c #788F44",
" . c #739445",
".. c #799145",
"X. c #749C4C",
"o. c #799F4A",
"O. c #799C46",
"+. c #648956",
"@. c #668D59",
"#. c #698C51",
"$. c #659456",
"%. c #699654",
"&. c #6D9851",
"*. c #619159",
"=. c #6A935B",
"-. c #6D995F",
";. c #729C5D",
":. c #769A50",
">. c #7DA147",
",. c #7BA048",
"<. c #7BA15A",
"1. c #4D8665",
"2. c #44816D",
"3. c #49856D",
"4. c #4F8A6D",
"5. c #528963",
"6. c #588D67",
"7. c #538B69",
"8. c #56896E",
"9. c #5C9165",
"0. c #5F9669",
"q. c #458272",
"w. c #578C70",
"e. c #5D8C75",
"r. c #629463",
"t. c #689661",
"y. c #6C9C63",
"u. c #68956C",
"i. c #719B6F",
"p. c #608E75",
"a. c #679175",
"s. c #6FA166",
"d. c #75A462",
"f. c #78A763",
"g. c #79A863",
"h. c #918F4E",
"j. c #869E47",
"k. c #839C48",
"l. c #93914F",
"z. c #9B9951",
"x. c #87864C",
"c. c #81A346",
"v. c #84A548",
"b. c #8AA449",
"n. c #83A949",
"m. c #8CAA49",
"M. c #90A448",
"N. c #92AD4A",
"B. c #96B14B",
"V. c #9BB54C",
"C. c #9BB94E",
"Z. c #84A657",
"A. c #86AB56",
"S. c #8BAC54",
"D. c #83A658",
"F. c #91AE52",
"G. c #8EB154",
"H. c #93B351",
"J. c #A1B74C",
"K. c #A3B94C",
"L. c #A9A555",
"P. c #A7BA50",
"I. c #ABBD53",
"U. c #A6B459",
"Y. c #BAB55A",
"T. c #BFBA5B",
"R. c #8CAA6C",
"E. c #8FA363",
"W. c #91AD6B",
"Q. c #AFBE6A",
"!. c #AAC04C",
"~. c #B2C057",
"^. c #B3C159",
"/. c #BAC55D",
"(. c #BEC761",
"). c #BEC765",
"_. c #C1C963",
"`. c #C5CB66",
"'. c #C7CC67",
"]. c #C6CC67",
"[. c #C7CC67",
"{. c #C9CD67",
"}. c #CCCF67",
"|. c #C8CD68",
" X c #C8CD68",
".X c #CACE69",
"XX c #C8CD68",
"oX c #CED066",
"OX c #45A6A4",
"+X c #47ABA9",
"@X c #47ABA9",
"#X c #46A9A7",
/* pixels */
"C.C.C.C.C.T.T.T.T.T.T.T.T.T.T.g.g.g.g.g.g.g.g.g.g.g.g.g.g.g.g.g.g.g.g.g.g.g.g.g.g.g.g.g.g.g.g.g.g.g.g.g.g.g.g.g.g.g.C.C.C.C.C.X ",
"C.C.C.C.C.C.T.T.T.T.T.T.C.g.g.g.C.C.C.g.g.g.g.g.g.g.g.g.g.g.g.g.g.g.g.g.g.g.g.g.a.a.a.a.g.g.g.g.g.g.g.g.g.g.g.g.g.C.C.C.C.C.C.X ",
"C.C.T.T.T.T.T.T.T.T.T.C.C.C.C.C.C.C.C.C.C.C.C.g.g.g.g.g.g.g.g.g.g.g.g.g.g.g.g.a.a.a.a.a.a.C.C.C.C.C.C.C.C.g.g.g.g.C.C.C.C.C.C.X ",
"T.T.T.T.T.T.T.T.T.T.T.C.C.C.C.C.C.C.g.g.g.g.g.g.g.g.g.g.g.g.g.g.g.g.g.a.a.a.g.a.a.a.a.a.a.a.a.a.a.C.C.C.X X X X X g.C.C.C.C.X X ",
"T.T.T.T.T.T.T.T.T.T.C.C.C.C.C.C.C.C.C.C.g.g.g.g.g.g.g.g.g.g.g.g.g.g.a.a.a.a.a.a.a.a.a.a.a.a.a.a.a.X X X X X X X X X C.C.C.C.X X ",
"C.C.C.C.C.T.T.T.T.T.C.C.C.C.C.C.C.C.C.C.C.C.g.g.g.g.g.g.g.g.g.g.g.a.a.a.a.a.T.T.T.T.a.a.a.a.T.T.T.T.X X T.T.T.X X X X C.C.X X +X",
"C.C.C.C.C.C.T.T.T.T.T.C.T.T.C.C.C.C.C.C.C.C.C.C.C.C.g.g.g.g.g.g.g.a.a.a.T.T.T.T.T.T.T.a.a.T.T.T.T.T.T.T.T.T.T.T.X X X X X X X +X",
"C.C.C.C.C.C.C.C.T.T.T.T.T.T.T.C.C.C.C.C.C.C.C.C.C.C.g.g.g.g.g.a.a.a.a.T.T.T.T.T.T.T.T.a.T.T.T.T.T.T.T.T.T.T.T.T.T.X X X X X +X+X",
"T.T.C.C.C.C.C.C.C.T.T.T.C.C.C.T.C.C.C.C.C.C.C.C.C.C.C.T.T.T.T.T.T.a.T.T.T.T.T.T.T.T.T.T.T.T.T.T.T.T.T.T.T.T.T.T.T.X X X X X X +X",
"T.T.T.C.C.C.C.C.C.C.C.C.C.C.C.C.C.C.C.C.C.C.C.C.C.C.T.T.C.C.T.T.T.T.T.T.T.T.T.T.T.T.T.T.T.T.T.T.T.T.T.T.T.T.T.T.X X X T.T.X X X ",
"T.T.T.C.C.C.T.T.C.C.C.C.C.C.C.C.C.C.C.C.C.C.C.C.C.C.T.C.C.C.C.T.T.T.T.T.T.T.T.C.C.C.T.T.T.T.T.C.C.T.T.T.T.C.C.X X T.T.T.T.T.X X ",
"T.T.T.C.C.T.T.T.T.T.C.C.C.C.C.C.C.C.C.C.C.C.C.C.C.C.C.C.C.C.C.C.C.C.C.T.T.T.C.C.C.C.C.T.T.C.C.C.C.C.C.T.C.C.C.C.T.T.T.T.T.T.X X ",
"T.T.T.T.T.T.T.T.T.T.T.T.T.T.T.T.T.T.T.C.C.C.C.C.C.C.C.C.C.C.C.C.C.C.C.C.T.T.C.C.C.C.C.T.C.C.C.C.C.C.C.C.C.C.C.C.C.C.T.T.T.T.X X ",
"T.T.T.T.T.T.T.T.T.C.C.C.C.C.C.C.C.C.C.C.C.C.C.C.C.C.C.C.C.C.C.C.C.C.C.C.C.C.C.C.C.C.C.T.C.C.C.C.C.C.C.C.C.C.C.C.C.C.C.T.T.T.X X ",
"C.C.C.C.C.C.C.C.C.C.C.C.g.g.g.g.g.g.C.C.C.C.C.C.C.C.C.C.C.C.C.C.C.C.C.C.C.C.C.C.C.C.C.C.C.C.C.C.C.C.C.C.C.C.C.C.C.C.C.T.T.X X X ",
"C.C.C.C.C.C.C.C.C.C.g.g.g.g.g.g.g.g.g.C.g.g.g.g.C.C.C.C.C.C.T.T.T.C.C.C.C.C.C.C.C.C.C.C.C.C.C.C.C.C.C.C.C.C.C.C.C.C.C.T.X X X X ",
"C.C.C.C.C.C.C.C.g.g.g.g.g.g.g.g.g.g.g.g.g.g.g.g.g.C.C.C.T.T.T.T.T.T.C.C.C.C.C.C.C.C.C.C.g.g.g.C.C.C.C.C.C.C.C.X X X X X X X X +X",
"C.C.C.C.C.C.C.g.g.g.g.g.g.g.g.g.g.g.g.g.g.g.g.g.g.T.T.T.T.T.T.T.T.T.T.T.T.T.g.g.g.C.C.g.g.g.g.g.C.C.C.C.C.C.C.C.C.X X X X +X+X+X",
"C.C.C.C.C.g.g.g.g.g.g.C.C.C.C.C.g.g.g.g.g.g.g.g.g.g.g.g.T.T.T.T.T.T.T.T.T.g.g.g.g.g.g.g.C.C.g.g.g.C.C.C.C.C.C.g.g.g.X X X +X+X+X",
"C.C.C.g.g.g.g.g.g.g.C.C.C.C.C.C.C.g.g.g.C.C.C.g.g.g.g.g.g.g.T.T.T.g.g.g.g.g.C.C.g.g.g.C.C.C.C.g.g.g.g.g.C.C.g.g.g.g.g.X X X +X+X",
"g.C.C.C.C.C.C.C.C.C.C.C.C.C.C.C.C.g.g.C.C.C.S.C V V V V 6.C.C.C.C.C.9.V V V V V A.H.C.C.H.H.H.H.C.C.g.g.C.g.g.g.g.g.g.X X X +X+X",
"g.g.g.g.C.C.C.C.C.C.C.C.C.C.C.C.C.C.H.H.H.S.C V 2.2.2.C V r.C.G.H.r.V V Q 2.2.2.C C S.S.C C V 3.d.C.C.C.C.g.g.g.g.g.X X X X +X+X",
"C.C.C.C.C.C.C.C.C.C.C.C.C.C.C.C.C.G.3.V V V V 7.V.V.J.Z.C 9.y.V V V V C Z.J.V.V.7.V V V V 2.2.2.3.d.C.C.g.g.g.g.g.X X X X X +X+X",
"C.C.C.C.C.C.C.C.a.a.a.a.a.C.C.a.p.C V 3.3.3.2.V.J.J.J.K.<.B V V V V Q Z.K.P.P.K.V.7.V V 7.V.K.A.V 3.s.y.d.g.g.C.X X C.C.X X X +X",
"C.C.C.C.C.C.C.a.a.a.a.a.a.a.a.p.Q V 3.H.J.B.3.V.J.J.J.V.-.Q w.w.q.B <.K.K._.{.P.J.V.C N V.J.K.S.2.V V V 4.y.d.C.C.C.C.C.C.X X X ",
"C.C.C.C.C.a.a.a.T.T.T.T.a.e.e.8.V V F.K.J.B.2.V.I.P.K.Z.Z i.oX}.W.Q ;.K./.|.'.I.J.V.u.u.I.P.J.K.Z.V V V V V r.H.C.C.C.C.C.C.X X ",
"C.C.a.a.a.a.T.T.T.T.T.T.U.8.V V V V F.J.J.B.r.I.{._.P.t.C R.{.'.oXi.;.I._.{.'.'.P.I.{.{.|._.I.K.D.C 6.6.6.2.V 0.g.C.C.C.C.C.X X ",
"T.a.a.T.T.T.T.T.T.T.T.T.u.V 4.9.C V F.I.I.I.K.'.'.{.Q.a.R.}.'.'.{.R.Z./.|.'.'.'.^.].'.'.'.'._.K.S.;.K.K.K.D.2.4.d.g.C.C.C.X X X ",
"T.T.T.T.T.T.T.T.T.T.g.+.R 7.F.K.;.C t.).|.'.^.'.'.'.{.}.{.'.'.'.'.{./.(.'.'.'.'.|.'.'.'.'.{._.J.K.K.J.J.J.K.t.V E.T.X X X X X +X",
"C.C.C.C.C.C.T.T.g.g.@., i :.!.K.K.;.i.).{.'.|.'.'.'.'.'.'.|.'.'.'.{.|.'.'.'.|.'.'.'.'.'.'.].^.J.J.J.J.J.J.K.t.B E.T.T.T.X X +X+X",
"C.C.C.C.C.C.C.C.C.k.1 X . 5 e b.K.K.^.^.'.|.|.|.'.'.'.|._./.|.'.|.(._.|.'.'./.].|.|.|.|.'.^.J.J.K.K.K.K.K.S.4.6.G.C.T.T.T.X X +X",
"C.C.C.C.C.C.C.C.k.1 . , q 8 w b.K.J.J.J.^.^.^.^.|.|._.^.I.K.(.|.(.P.I._.'.'./.^.^.^.^.^.~.J.K.P.M.w w | G.4.c S j.C.C.C.C.X X +X",
"T.T.T.C.C.C.C.C.P X , ' n.m.K.K.J.K.K.m.V.J.J.K.~.^.I.J.J.J.P.^.P.V.I._.'.'.|./.^.J.J.J.J.K.M.9 2     : g s & X 2 j.C.C.C.X X +X",
"T.T.T.T.C.v.7 9 1 . 8 n.,.N.K.J.J.m.m.N.J.J.J.J.J.J.J.J.J.J.J.J.J.J./.|.'.'.'.|.|.K.J.J.J.K.N.y P I 7   . 1 r > . 2 v.C.C.X X +X",
"T.T.T.T.L.4 X X X . 8 n.,.B.K.J.J.B.c.V.J.J.J.K.V.m.m.K.J.J.J.J.J.J./.|.'.'.'.'.^.K.J.J.J.J.K.K.K.K.N.7   q n.' > X ..C.X X X +X",
"C.C.C.L.4 X & v v a - H n.n.V.J.J.K.v.b.V.K.V.m.v.,.,.m.J.J.J.J.J.J.P.(.|.{.{.~.J.J.J.J.J.J.J.J.J.J.K.y ,  .,.n.3 . X X X X +X+X",
"C.C.C.k.X & m C C M p @ t >.n.V.K.m.,.,.v.v.v.,.,.,.,.v.K.J.J.J.K.N.B.P.I.I.I.J.J.J.J.J.J.J.J.J.J.J.K.j.' >.,.,.' > X X X X X +X",
"C.C.C.k.X u C V V C M v ^ ,.,.n.v.,.,.,.,.,.,.c.V.V.V.N.m.J.J.K.N.,.N.J.J.J.J.J.J.V.m.V.J.J.J.J.K.K.B.c.,.,.,.,.n.1 X +.g.X X X ",
"C.C.C.k.X u C V V V V V *.,.,.,.,.,.,.B.V.c.c.V.J.J.K.J.N.n.n.v.c.,.c.B.J.J.J.J.J.V.c.n.v.m.J.V.v.v.c.,.,.,.,._ f @ X : v.C.X X ",
"C.C.C.k.X u V V l % % F ,.,.,.,.,.,.B.J.J.V.V.J.J.J.J.K.B.,.,.,.m.V.m.c.n.V.J.J.J.V.c.c.V.V.J.V.,.,.,.,.,.,.c.5.M u X X ; b.X X ",
"g.g.g.+.X X s l # X 8 O.,.,.,.,.,.,.V.J.J.J.J.J.J.J.J.J.J.V.N.,.N.K.J.m.,.B.J.J.V.v.c.V.J.J.J.V.,.,.,.,.,.,.,.5.V M u X X v.X X ",
"g.g.@.% X X + # . 6 o.,.,.,.,.,.,.,.c.V.V.J.J.J.J.J.J.J.J.J.J.m.m.J.J.J.v.,.V.V.v.,.c.V.J.J.J.B.,.,.,.,.o.,.( V V V B & X X X X ",
"C.m.; X X % % # . 6 ,.,.,.O. .O.,.,.,.,.c.V.J.J.V.v.J.J.J.J.K.N.,.N.J.V.v.,.,.,.,.,.,.n.V.V.V.,.,.,.c.*.V N V V V V C = X X X +X",
"C.b.o X p B V l # X 8  . .3 $ b %.,.,.,.,.c.V.V.,.v.V.V.J.J.J.m.,.,.,.,.,.,.,.,.,.,.,.,.,.,.,.,.,.,.c.$.V V V V V V M & X X #X+X",
"C.` o & V V V C l # X o o $ l V V %.X.X.,.,.,.,.,.,.,.v.V.V.m.,.,.,.,.,.,.,.o.,.,.,.,.,.,.,.,.,.,.,.,.,.*.C V M m m = X X X OX+X",
"C.` o & V V V V C z & $ . h B V V V 2.2.o.,.,.,.,.,.,.,.,.,.,.,.,.,.,.,.,.X.2.X.,.,.,.,.X.,.,.,.,.,.,.,.,.( V h # X X X X X X #X",
"N.` o & m C V V V V C k # . h B V 2.X.,.,.,.,.,.,.,.,.,.,.,.o.X.,.,.,.,.X.2.2.X.,.,.,.o.2.,.,.,.,.,.,.,.o.5.V C a X X X X X X X ",
"} ` : X & v n C V V V C k = = b C X.,.,.,.,.,.&.,.,.,.,.,.o.5.1.o.c.,.c.1.V X.,.,.,.,.o.2.,.,.,.,.,.,.c._ V V C h # X X Y X X X ",
"E E ` > X X & n V V V V V C C V V _ ,.,.,.,.*.2.,.,.,.,.o.( 1.N 1.%.$.%.2.V _ ,.,.,.%.*.N %.o.%.%.%.X.,.K m V V C h # X Y l.X X ",
"W W E J X X # k C V V V V V V V V V ( $.$.o.1.2.,.,.,.,.$.1.c.%.1.N 2.1.1.N V ( $.*.V V V N ( V m z K / i d C V V C u X Y l.X X ",
"a.L.l.J X % k C V V C C V V V V V V V V 5.,.o.N $.,.c.o.5.5.c.,.c.$.&.c.c.1.V V V V V V V V V C n p d i O h C V V C u X Y l.X X ",
"Y.h.l.Y X u ! V C n h b V V V V V V V C ,.,.o.V C _ *.5.B 5.c.,.,.c.%.X.%.T V V V V V V V V V V V C b s = u m C C v & X Y X X X ",
"T.L.l.Y X % l ~ m u O h C V V V V V V V ( o.( V V V V V V 2.&.,.,.c.5.1.T V V V V V V V V V C V V V V ! k O u j h % X X X X X #X",
"T.Y.h.x.3 X % h u . = b V V V V V V V V V 5.V V V V V V V V 2.&.c.%.2.V V V V V V V V V V M k C C V V C k X X X X X X X X X X +X",
"T.T.b.} } 3 X X X X h ! V V V V C V V V V V V V V V V V V V V 2.) 2.V V V V V V V V V V C m # s k C C b = , G A X X ` ..X X X X ",
"C.C.C.b.} ` w w w 1 & v C C C C h m V V V V V V V V V C V V V V V V C V V V V V V V V C B a X . % s s = X 0 z.l.....} } b.X X X ",
"C.C.C.C.m.b.......9 X & a a a a # n C V V V V V V C m h C V V V V C k v C V V V V V B a p X X ; e 5 X X , I ..} } } b.m.C.X X X ",
"C.C.C.C.C.C.=.^ ^ L , X X X X X X = M V V V V V C m & # j C C C C z # l C C C V V V V x e e e U ..` e e I ..} } } b.C.C.C.X X X ",
"C.C.C.C.C.C.C.N.v.^ L D D D D r r r { +.V V V M u & X X # u u u u % X & u u u m V V +.#.........} | ......} ^ =.;.C.C.C.C.X X +X",
"C.C.C.C.C.C.C.C.C.B.v...^ ^ ^ ........| / [ [ ] y y P g X X X X X X X X g y y { [ [ } | } } ..B.b.} } } } =.d.d.g.g.C.C.X X +X+X",
"C.C.C.C.C.C.T.T.C.C.C.B.k.} } } } } } } | | ..N.......} P P P P P P P P } ....| | | } } } } ^ =.g.b.} k.d.d.g.g.g.g.X X X +X+X+X",
"C.C.C.C.C.T.T.T.T.C.C.C.C.Y.Y.z.l.....} } ..B.B.} } } } ................} } } ..} } } } } ^ ^ @.g.g.d.d.g.g.g.g.g.X X X X X X +X",
"C.C.C.T.T.T.T.T.T.T.T.T.T.T.T.Y.Y.Y.Y.....B.C.B.| } } ^ @.-.^ } } } } } } ..N.B.........+.d.d.d.g.g.g.g.g.g.g.g.g.g.g.g.g.g.X X ",
"g.g.T.T.T.T.T.T.T.T.T.T.T.T.T.T.g.g.g.d.C.C.g.d.^ ^ ^ @.;.^ ^ ^ ^ } } ^ ^ ;.g.C.C.C.C.d.d.g.g.g.g.g.g.g.g.C.C.C.C.C.C.g.g.g.g.X "
};
