/* XPM */
static const char *right2[] = {
/* columns rows colors chars-per-pixel */
"64 64 185 2 ",
"   c #0D112C",
".  c #12162B",
"X  c #161C2E",
"o  c #181F2E",
"O  c #121227",
"+  c #171F30",
"@  c #1B222F",
"#  c #172031",
"$  c #182333",
"%  c #1A2836",
"&  c #1C2C3A",
"*  c #1E323E",
"=  c #21292F",
"-  c #202A33",
";  c #2B3332",
":  c #2E3B34",
">  c #2A3636",
",  c #333F35",
"<  c #2F403B",
"1  c #364336",
"2  c #3A4636",
"3  c #3B4537",
"4  c #424739",
"5  c #405238",
"6  c #465A3A",
"7  c #4C5C3B",
"8  c #4A5639",
"9  c #4C613B",
"0  c #53633C",
"q  c #5B6D3E",
"w  c #5E713F",
"e  c #5E793F",
"r  c #63743F",
"t  c #1F3541",
"y  c #213C46",
"u  c #203742",
"i  c #26484E",
"p  c #23424A",
"a  c #274D52",
"s  c #284E53",
"d  c #295155",
"f  c #2A5659",
"g  c #2C5C5D",
"h  c #3E5543",
"j  c #33635E",
"k  c #2A5E61",
"l  c #2E6162",
"z  c #2F6868",
"x  c #306764",
"c  c #316966",
"v  c #326D69",
"b  c #35736D",
"n  c #3E7E6F",
"m  c #357672",
"M  c #377A73",
"N  c #397C73",
"B  c #2E7575",
"V  c #4C684A",
"C  c #4B6847",
"Z  c #5E7940",
"A  c #476258",
"S  c #49775A",
"D  c #567750",
"F  c #626342",
"G  c #657A40",
"H  c #6A7C41",
"J  c #7B7A48",
"K  c #407B69",
"L  c #517161",
"P  c #587C68",
"I  c #407F72",
"U  c #398178",
"Y  c #5E8354",
"T  c #578C5F",
"R  c #5B8E5C",
"E  c #57815A",
"W  c #5F905A",
"Q  c #6D8343",
"!  c #6E8D43",
"~  c #6B8B4D",
"^  c #67864D",
"/  c #708643",
"(  c #778E45",
")  c #788F44",
"_  c #739445",
"`  c #799145",
"'  c #749C4C",
"]  c #799F4A",
"[  c #799C46",
"{  c #648955",
"}  c #668D59",
"|  c #669455",
" . c #699654",
".. c #6E9950",
"X. c #629259",
"o. c #6A935B",
"O. c #6E995E",
"+. c #729C5D",
"@. c #7B9850",
"#. c #7DA147",
"$. c #7CA148",
"%. c #7BA15A",
"&. c #4D8665",
"*. c #44826D",
"=. c #49856D",
"-. c #4E8A6C",
";. c #528963",
":. c #588D67",
">. c #538B69",
",. c #56896E",
"<. c #5C9165",
"1. c #5F9669",
"2. c #458272",
"3. c #578C70",
"4. c #5D8C75",
"5. c #629463",
"6. c #689661",
"7. c #6C9C63",
"8. c #68956C",
"9. c #719B6F",
"0. c #608E75",
"q. c #679175",
"w. c #6FA166",
"e. c #75A462",
"r. c #78A763",
"t. c #79A863",
"y. c #918F4E",
"u. c #839C48",
"i. c #809947",
"p. c #93914F",
"a. c #9D9A52",
"s. c #86854B",
"d. c #A09D53",
"f. c #81A346",
"g. c #84A548",
"h. c #8AA349",
"j. c #83A949",
"k. c #8CAA49",
"l. c #90A448",
"z. c #92AD4A",
"x. c #96B14B",
"c. c #9BB54C",
"v. c #9BB94E",
"b. c #84A657",
"n. c #86AB56",
"m. c #8BAD54",
"M. c #83A658",
"N. c #91AE52",
"B. c #8FB252",
"V. c #93B351",
"C. c #A1B74C",
"Z. c #A3B94C",
"A. c #AAA655",
"S. c #A7BA50",
"D. c #ABBD53",
"F. c #A6B459",
"G. c #BAB55A",
"H. c #BFBA5B",
"J. c #8CAA6C",
"K. c #8FA363",
"L. c #91AD6B",
"P. c #AFBE6A",
"I. c #AAC04C",
"U. c #B2C057",
"Y. c #B3C159",
"T. c #BAC55D",
"R. c #BDC760",
"E. c #BEC764",
"W. c #BEC765",
"Q. c #C1C963",
"!. c #C5CB66",
"~. c #C7CC67",
"^. c #C6CC67",
"/. c #C7CC67",
"(. c #C9CD67",
"). c #CCCF67",
"_. c #C8CD68",
"`. c #C8CD68",
"'. c #CACE69",
"]. c #C8CD68",
"[. c #CED066",
"{. c #45A6A4",
"}. c #47ABA9",
"|. c #47ABA9",
" X c #46A9A7",
/* pixels */
"v.v.v.v.v.H.H.H.H.H.H.H.H.H.H.t.t.t.t.t.t.t.t.t.t.t.t.t.t.t.t.t.t.t.t.t.t.t.t.t.t.t.t.t.t.t.t.t.t.t.t.t.t.t.t.t.t.t.v.v.v.v.v.X ",
"v.v.v.v.v.v.H.H.H.H.H.H.v.t.t.t.v.v.v.t.t.t.t.t.t.t.t.t.t.t.t.t.t.t.t.t.t.t.t.t.q.q.q.q.t.t.t.t.t.t.t.t.t.t.t.t.t.v.v.v.v.v.v.X ",
"v.v.H.H.H.H.H.H.H.H.H.v.v.v.v.v.v.v.v.v.v.v.v.t.t.t.t.t.t.t.t.t.t.t.t.t.t.t.t.q.q.q.q.q.q.v.v.v.v.v.v.v.v.t.t.t.t.v.v.v.v.v.v.X ",
"H.H.H.H.H.H.H.H.H.H.H.v.v.v.v.v.v.v.t.t.t.t.t.t.t.t.t.t.t.t.t.t.t.t.t.q.q.q.t.q.q.q.q.q.q.q.q.q.q.v.v.v.X X X X X t.v.v.v.v.X X ",
"H.H.H.H.H.H.H.H.H.H.v.v.v.v.v.v.v.v.v.v.t.t.t.t.t.t.t.t.t.t.t.t.t.t.q.q.q.q.q.q.q.q.q.q.q.q.q.q.q.X X X X X X X X X v.v.v.v.X X ",
"v.v.v.v.v.H.H.H.H.H.v.v.v.v.v.v.v.v.v.v.v.v.t.t.t.t.t.t.t.t.t.t.t.q.q.q.q.q.H.H.H.H.q.q.q.q.H.H.H.H.X X H.H.H.X X X X v.v.X X }.",
"v.v.v.v.v.v.H.H.H.H.H.v.H.H.v.v.v.v.v.v.v.v.v.v.v.v.t.t.t.t.t.t.t.q.q.q.H.H.H.H.H.H.H.q.q.H.H.H.H.H.H.H.H.H.H.H.X X X X X X X }.",
"v.v.v.v.v.v.v.v.H.H.H.H.H.H.H.v.v.v.v.v.v.v.v.v.v.v.t.t.t.t.t.q.q.q.q.H.H.H.H.H.H.H.H.q.H.H.H.H.H.H.H.H.H.H.H.H.H.X X X X X }.}.",
"H.H.v.v.v.v.v.v.v.H.H.H.v.v.v.H.v.v.v.v.v.v.v.v.v.v.v.H.H.H.H.H.H.q.H.H.H.H.H.H.H.H.H.H.H.H.H.H.H.H.H.H.H.H.H.H.H.X X X X X X }.",
"H.H.H.v.v.v.v.v.v.v.v.v.v.v.v.v.v.v.v.v.v.v.v.v.v.v.H.H.v.v.H.H.H.H.H.H.H.H.H.H.H.H.H.H.H.H.H.H.H.H.H.H.H.H.H.H.X X X H.H.X X X ",
"H.H.H.v.v.v.H.H.v.v.v.v.v.v.v.v.v.v.v.v.v.v.v.v.v.v.H.v.v.v.v.H.H.H.H.H.H.H.H.v.v.v.H.H.H.H.H.v.v.H.H.H.H.v.v.X X H.H.H.H.H.X X ",
"H.H.H.v.v.H.H.H.H.H.v.v.v.v.v.v.v.v.v.v.v.v.v.v.v.v.v.v.v.v.v.v.v.v.v.H.H.H.v.v.v.v.v.H.H.v.v.v.v.v.v.H.v.v.v.v.H.H.H.H.H.H.X X ",
"H.H.H.H.H.H.H.H.H.H.H.H.H.H.H.H.H.H.H.v.v.v.v.v.v.v.v.v.v.v.v.v.v.v.v.v.H.H.v.v.v.v.v.H.v.v.v.v.v.v.v.v.v.v.v.v.v.v.H.H.H.H.X X ",
"H.H.H.H.H.H.H.H.H.v.v.v.v.v.v.v.v.v.v.v.v.v.v.v.v.v.v.v.v.v.v.v.v.v.v.v.v.v.v.v.v.v.v.H.v.v.v.v.v.v.v.v.v.v.v.v.v.v.v.H.H.H.X X ",
"v.v.v.v.v.v.v.v.v.v.v.v.t.t.t.t.t.t.v.v.v.v.v.v.v.v.v.v.v.v.v.v.v.v.v.v.v.v.v.v.v.v.v.v.v.v.v.v.v.v.v.v.v.v.v.v.v.v.v.H.H.X X X ",
"v.v.v.v.v.v.v.v.v.v.t.t.t.t.t.t.t.t.t.v.t.t.t.t.v.v.v.v.v.v.H.H.H.v.v.v.v.v.v.v.v.v.v.v.v.v.v.v.v.v.v.v.v.v.v.v.v.v.v.H.X X X X ",
"v.v.v.v.v.v.v.v.t.t.t.t.t.t.t.t.t.t.t.t.t.t.t.t.t.v.v.v.H.H.H.H.H.H.v.v.v.v.v.v.v.v.v.v.t.t.t.v.v.v.v.v.v.v.v.X X X X X X X X }.",
"v.v.v.v.v.v.v.t.t.t.t.t.t.t.t.t.t.t.t.t.t.t.t.t.t.H.H.H.H.H.H.H.H.H.H.H.H.H.t.t.t.v.v.t.t.t.t.t.v.v.v.v.v.v.v.v.v.X X X X }.}.}.",
"v.v.v.v.v.t.t.t.t.t.t.v.v.v.v.v.t.t.t.t.t.t.t.t.t.t.t.t.H.H.H.H.H.H.H.H.H.t.t.t.t.t.t.t.v.v.t.t.t.v.v.v.v.v.v.t.t.t.X X X }.}.}.",
"v.v.v.t.t.t.t.t.t.t.v.v.v.v.v.v.v.t.t.t.v.v.v.t.t.t.t.t.t.t.H.H.H.t.t.t.t.t.v.v.t.t.t.v.v.v.v.t.t.t.t.t.v.v.t.t.t.t.t.X X X }.}.",
"t.v.v.v.v.v.v.v.v.v.v.v.v.v.v.v.v.t.t.v.v.v.m.N M M M M :.v.v.v.v.v.<.M M M M M n.V.v.v.V.V.V.V.v.v.t.t.v.t.t.t.t.t.t.X X X }.}.",
"t.t.t.t.v.v.v.v.v.v.v.v.v.v.v.v.v.v.V.B.V.m.N M *.*.*.N M 5.v.B.V.5.M M I *.*.*.N N m.m.N N M =.e.v.v.v.v.t.t.t.t.t.X X X X }.}.",
"v.v.v.v.v.v.v.v.v.v.v.v.v.v.v.v.v.B.=.M M M M >.c.c.C.b.N <.7.M M M M N b.C.c.c.>.M M M M *.*.*.=.e.v.v.t.t.t.t.t.X X X X X }.}.",
"v.v.v.v.v.v.v.v.q.q.q.q.q.v.v.q.0.N M =.=.=.*.c.C.C.C.Z.%.m M M M M I b.Z.S.S.Z.c.>.M M >.c.Z.n.M =.w.7.e.t.t.v.X X v.v.X X X }.",
"v.v.v.v.v.v.v.q.q.q.q.q.q.q.q.0.I M =.V.C.x.=.c.C.C.C.c.O.I 3.3.2.m %.Z.S.Q.(.S.C.c.N n c.C.Z.m.*.M M M -.7.e.v.v.v.v.v.v.X X X ",
"v.v.v.v.v.q.q.q.H.H.H.H.q.4.4.,.M M N.Z.C.x.*.c.D.S.Z.b.B 9.[.).L.I +.Z.T._.~.D.C.c.8.8.D.S.C.Z.b.M M M M M 5.V.v.v.v.v.v.v.X X ",
"v.v.q.q.q.q.H.H.H.H.H.H.F.,.M M M M N.C.C.x.5.D.(.Q.S.6.N J.(.~.[.9.+.D.Q.~.~.~.S.D.(.(._.Q.D.Z.M.N :.:.:.*.M 1.t.v.v.v.v.v.X X ",
"H.q.q.H.H.H.H.H.H.H.H.H.8.M -.<.N M N.D.D.D.Z.~.~.(.P.q.J.).~.~.(.J.b.T._.~.~.~.Y.^.~.~.~.~.Q.Z.m.+.Z.Z.Z.M.*.-.e.t.v.v.v.X X X ",
"H.H.H.H.H.H.H.H.H.H.t.{ K >.N.Z.+.N 6.W._.~.Y.~.~.~.(.).(.~.~.~.~.(.T.R.~.~.~.~._.~.~.~.~.(.Q.C.Z.Z.C.C.C.Z.6.m K.H.X X X X X }.",
"v.v.v.v.v.v.H.H.t.t.} : t @.I.Z.Z.+.9.W.(.~._.~.~.~.~.~.~._.~.~.~.(._.~.~.~._.~.~.~.~.~.~.^.Y.C.C.C.C.C.C.Z.6.m K.H.H.H.X X }.}.",
"v.v.v.v.v.v.v.v.v.u.1 X   4 q h.Z.Z.Y.Y.~._._._.~.~.~._.Q.T._.~._.R.Q._.~.~.T.^._._._._.~.Y.C.C.Z.Z.Z.Z.Z.m.-.>.m.v.H.H.H.X X }.",
"v.v.v.v.v.v.v.v.u.1 . , 9 6 0 h.Z.C.C.C.Y.Y.Y.Y._._.Q.Y.D.Z.R._.R.S.D.Q.~.~.T.Y.Y.Y.Y.Y.U.C.Z.S.l.0 0 ) m.-.k ~ v.v.v.v.v.X X }.",
"H.H.H.v.v.h.7 0 2 X , ! j.k.Z.Z.C.Z.Z.k.c.C.C.Z.U.Y.D.C.C.C.S.Y.S.c.D.Q.~.~._.T.Y.C.C.C.C.Z.l.7 3     ; S l & , u.v.v.v.v.X X }.",
"H.H.H.H.h.2 X X X . 6 j.$.z.Z.C.C.k.k.z.C.C.C.C.C.C.C.C.C.C.C.C.C.C.T._.~.~.~._._.Z.C.C.C.Z.z.r H H 8   & & . X 1 u.v.v.v.X X }.",
"H.H.H.A.4 X & g p . 6 j.$.x.Z.C.C.x.f.c.C.C.C.Z.c.k.k.Z.C.C.C.C.C.C.T._.~.~.~.~.Y.Z.C.C.C.C.Z.Z.Z.Z.z.8 . 2 Z : . , u.v.X X X }.",
"v.v.v.d.X & c N b y = Z j.j.c.C.C.Z.g.g.c.Z.c.k.g.$.$.k.C.C.C.C.C.C.S.R._.(.(.U.C.C.C.C.C.C.C.C.C.C.Z.H   9 j.! : . X X X X }.}.",
"v.v.v.u.X t N M N b y @ e #.j.c.Z.k.$.$.g.g.g.$.$.$.$.g.Z.C.C.C.Z.z.x.S.D.D.D.C.C.C.C.C.C.C.C.C.C.C.Z.r 1 _ $.f.! : X X X X X }.",
"v.v.v.u.X t N M M N b l Y $.$.j.g.$.$.$.$.$.$.f.c.c.c.z.k.C.C.Z.z.$.z.C.C.C.C.C.C.c.k.c.C.C.C.C.C.C.Z.h._ $.$.$.j.1 X { t.X X X ",
"v.v.v.u.X t M M M M M M X.$.$.$.$.$.$.x.c.f.f.c.C.C.C.C.z.j.j.g.f.$.f.x.C.C.C.C.C.c.f.j.g.k.C.C.C.C.x.f.$.$.$.#.6 @ X ; h.v.X X ",
"v.v.v.i.X X p N f % % C $.$.$.$.$.$.x.C.C.c.c.C.C.C.C.Z.x.$.$.$.k.c.k.f.j.c.C.C.C.c.f.f.c.c.C.c.f.f.f.$.$.$.$.R b t X X ; h.X X ",
"t.t.o.- X X + % $ X 6 [ $.$.$.$.$.$.c.C.C.C.C.C.C.C.C.C.C.c.z.$.z.Z.C.k.$.x.C.C.c.g.f.c.C.C.C.c.$.$.$.$.$.$.f.;.M b t X X h.X X ",
"t.O.- X X $ $ + . 5 $.$.$.$.$.$.$.$.f.c.c.C.C.C.C.c.C.C.C.C.C.k.k.C.C.C.g.$.c.c.g.$.f.c.C.C.C.x.$.$.$.$.$.$.$.;.M M m & X X X X ",
"v.k.@ X t b m f . 2 $.$.$.[ _ ' $.$.$.$.f.c.C.C.c.g.C.C.C.C.Z.z.$.z.c.c.g.$.$.$.$.$.$.j.c.c.c.$.$.$.$.$.] ] T M M M N * X X X }.",
"v.h.o & m M N g + X 6 _ _ 2 $ x  .$.$.$.$.f.c.c.$.g.c.c.C.C.C.k.$.$.$.$.$.$.$.$.$.$.$.$.$.$.$.$.$.$.$.X.M N M M M M b & X X  X}.",
"v.Q o & M M M M g $ X o o $ g M M  .' ' $.$.$.$.$.$.$.g.c.c.k.$.$.$.$.$.$.$.$.$.$.$.$.$.$.$.$.$.$.$.$.| N M M M b v * X X X {.}.",
"v.Q o & v M M M N f & $ . a m M M M M *.] $.$.$.$.$.$.$.$.$.$.$.$.$.$.$.$.$.$.' $.$.$.$.$.$.$.$.$.$.$.$.X.N M b t X X X X X X  X",
"z.Q ; X & x v N M M N d $ . a b M M *.] $.$.$.$.$.$.$.$.$.$.$.' ] $.$.$.$.$.' I ' $.$.$.$.' $.$.$.$.$.$.f.R M s # X X X X X X X ",
") ) Q ; X X * v M M M N d * * x N M ' $.$.$.$.$...$.$.$.$.$.] &.&.] $.$.$.' *.*.] $.$.$.' *.$.$.$.$.$.$.] ;.M N s $ X X J X X X ",
"L L ` A X X $ s N M M M M N N M M M X.$.$.$.$.X.*.$.$.$.$.] R &.n ;. .| | *.M ' $.$.$.$.' *.$.$.$.$.$.f.W M M M N a $ X J p.X X ",
"P P L A X $ d N M M M M M M M M M M M W | | ] &.*.$.$.$.f.X.;.f.| &.n *.&.N M R $.$.$.| W n  .$.$.$.f.' S c M M M N t X J p.X X ",
"q.A.p.A X t U M M N N M M M M M M M M M M ;.$.' n  .f.f.] &.;.$.$.f.X.' f.R N M R X.W M M M n X.X.X.| S t i N M M N t X J p.X X ",
"G.y.p.J X & l N N c s x M M M M M M M M N $.$.' M n W X.;.m T f.$.$.f. .' f.*.M M M M M M M M M M v s t . s N M N l & X J X X X ",
"H.A.p.s.4 X % l v t O a N M M M M M M M M R ] T M M M M M M *...$.$.f.&.&.R n M M M M M M M M M M c p i * * c U l % X X X X X  X",
"H.G.y.p./ 2 X & u . * x M M M M M M M M M M ;.M M M M M M M M *...f. .*.M M M M M M M M M M N M M M N U d . * a & X X X X X X }.",
"H.H.h.) ` Q 7 2 X X a U M M M M N M M M M M M M M M M M M M M M *.T *.M M M M M M M M M M b d N M M N x * X X X X X Q ` X X X X ",
"v.v.v.h.) ) ` Q 0 1 & l N N N N s v M M M M M M M M M N M M M M M M M M M M M M M M M M M v $ s N N c & X 3 F F Q ` ) ) h.X X X ",
"v.v.v.v.k.h.) ` ` 7 X & y y y y $ c N M M M M M M N v s N M M M M N d l M M M M M M M N b u X $ y y & X X 8 ` ` ` ) h.k.v.X X X ",
"v.v.v.v.v.v.o.Y Y D : X X X X X X * b M M M M M N v & $ d N N N N f $ g N M M M M M m y * X X X X X X , q H ` ) ) h.v.v.v.X X X ",
"v.v.v.v.v.v.v.z.h.Y D V V V V w w w ^ { M M M b t & X X $ t t t t % X & x N M M M M M j q w w w w w w H ` ` Y o.+.v.v.v.v.X X }.",
"v.v.v.v.v.v.v.v.v.x.h.` Y Y Y ` ` ` ) ) E ~ ~ ^ r r G h X X X X X X X X & * * v M M { ~ ` ` ` x.k.` ` ` ) o.e.e.t.t.v.v.X X }.}.",
"v.v.v.v.v.v.H.H.v.v.c.x.u.) ) ) ) ) ) ) ) ) ` z.` ` ` / G G G G G G G G G G G ~ ~ ~ ) ) ) ) Y o.t.h.) u.e.e.t.t.t.t.X X X }.}.}.",
"v.v.v.v.v.H.H.H.H.v.v.v.v.G.G.a.p.` ` ) ) ` x.x.) ) ) ) ` ` ` ` ` ` ` ` ` ` ` ` ) ) ) ) ) Y Y } t.t.e.e.t.t.t.t.t.X X X X X X }.",
"v.v.v.H.H.H.H.H.H.H.H.H.H.H.H.G.G.G.G.` ` x.v.x.) ) ) Y } O.Y ) ) ) ) ) ) ` z.c.` ` ` ` { e.e.e.t.t.t.t.t.t.t.t.t.t.t.t.t.t.X X ",
"t.t.H.H.H.H.H.H.H.H.H.H.H.H.H.H.t.t.t.e.v.v.t.e.Y Y Y } +.Y Y Y Y ) ) Y Y +.t.v.v.v.v.e.e.t.t.t.t.t.t.t.t.v.v.v.v.v.v.t.t.t.t.X "
};
