/* XPM */
static const char *right4[] = {
/* columns rows colors chars-per-pixel */
"64 64 193 2 ",
"   c #0D112C",
".  c #12152B",
"X  c #161C2E",
"o  c #181E2E",
"O  c #171F30",
"+  c #1A212F",
"@  c #172031",
"#  c #192333",
"$  c #1B2835",
"%  c #1C2C3A",
"&  c #1E323E",
"*  c #222A2E",
"=  c #202830",
"-  c #2B3633",
";  c #2E3B34",
":  c #293639",
">  c #323D35",
",  c #364336",
"<  c #394535",
"1  c #3E4B37",
"2  c #3D4138",
"3  c #31433D",
"4  c #3E5038",
"5  c #415438",
"6  c #4A5B3A",
"7  c #495839",
"8  c #4A603B",
"9  c #53633C",
"0  c #5C6F3F",
"q  c #59663C",
"w  c #5E723F",
"e  c #66743F",
"r  c #607B3F",
"t  c #1E3541",
"y  c #1F3845",
"u  c #213B44",
"i  c #223F48",
"p  c #26484E",
"a  c #23424A",
"s  c #3C5242",
"d  c #274C52",
"f  c #284F53",
"g  c #295255",
"h  c #2A5658",
"j  c #2C5C5D",
"k  c #33635E",
"l  c #2A5D61",
"z  c #2E6262",
"x  c #2F6868",
"c  c #306664",
"v  c #316966",
"b  c #326C69",
"n  c #34726D",
"m  c #3E7E6E",
"M  c #357772",
"N  c #377A73",
"B  c #397C74",
"V  c #2D7475",
"C  c #455345",
"Z  c #4A6649",
"A  c #4E6B4C",
"S  c #4A6846",
"D  c #54734F",
"F  c #476358",
"G  c #416A58",
"H  c #4B7B5B",
"J  c #49735A",
"K  c #5A7D52",
"L  c #626342",
"P  c #657A40",
"I  c #6A7C41",
"U  c #607340",
"Y  c #7B7A48",
"T  c #407F6D",
"R  c #4E7F62",
"E  c #517261",
"W  c #587C68",
"Q  c #537E65",
"!  c #407F71",
"~  c #3A8178",
"^  c #398077",
"/  c #5E8354",
"(  c #568C5F",
")  c #5B8E5C",
"_  c #55805C",
"`  c #5E905A",
"'  c #6E8443",
"]  c #6B8B4D",
"[  c #698946",
"{  c #778E45",
"}  c #788E44",
"|  c #799145",
" . c #769845",
".. c #7A9D46",
"X. c #749C4D",
"o. c #789E4A",
"O. c #719244",
"+. c #608555",
"@. c #648954",
"#. c #668D59",
"$. c #669456",
"%. c #699654",
"&. c #6E9951",
"*. c #629258",
"=. c #6A935B",
"-. c #6E9A5F",
";. c #729D5E",
":. c #789F59",
">. c #7DA147",
",. c #7CA148",
"<. c #7CA259",
"1. c #4E8765",
"2. c #44816D",
"3. c #4A856D",
"4. c #4D886C",
"5. c #4F8864",
"6. c #538A62",
"7. c #598D67",
"8. c #528B6B",
"9. c #5C9165",
"0. c #5F916E",
"q. c #428072",
"w. c #578C70",
"e. c #5F8D75",
"r. c #639463",
"t. c #6B9C64",
"y. c #659667",
"u. c #749D6E",
"i. c #608E75",
"p. c #679175",
"a. c #6A9770",
"s. c #6FA165",
"d. c #76A462",
"f. c #78A763",
"g. c #79A863",
"h. c #86854B",
"j. c #918F4E",
"k. c #839C48",
"l. c #92914F",
"z. c #9D9A52",
"x. c #A09B51",
"c. c #81A346",
"v. c #84A448",
"b. c #89A449",
"n. c #83A848",
"m. c #8CAA49",
"M. c #90A448",
"N. c #92AD4A",
"B. c #96B14B",
"V. c #9CB54C",
"C. c #9BB94E",
"Z. c #86AB56",
"A. c #8AAB55",
"S. c #81A458",
"D. c #82A557",
"F. c #93AF51",
"G. c #8EB153",
"H. c #93B351",
"J. c #A1B74C",
"K. c #A3B94C",
"L. c #A8BB4F",
"P. c #A9A757",
"I. c #A7BA50",
"U. c #ABBD53",
"Y. c #A0B654",
"T. c #BAB55A",
"R. c #BFBA5B",
"E. c #B0BF57",
"W. c #8DAB6C",
"Q. c #98A862",
"!. c #ABBC6A",
"~. c #AAC14D",
"^. c #B1C057",
"/. c #B3C159",
"(. c #BAC55D",
"). c #BEC761",
"_. c #BFC862",
"`. c #C5CB66",
"'. c #C7CC67",
"]. c #C6CC67",
"[. c #C4CB65",
"{. c #C9CD67",
"}. c #CCCF67",
"|. c #C8CD68",
" X c #C8CD68",
".X c #CACE69",
"XX c #C8CD68",
"oX c #C0C869",
"OX c #CED066",
"+X c #45A6A4",
"@X c #47ABA9",
"#X c #47ABA9",
"$X c #46A9A7",
/* pixels */
"C.C.C.C.C.R.R.R.R.R.R.R.R.R.R.g.g.g.g.g.g.g.g.g.g.g.g.g.g.g.g.g.g.g.g.g.g.g.g.g.g.g.g.g.g.g.g.g.g.g.g.g.g.g.g.g.g.g.C.C.C.C.C.X ",
"C.C.C.C.C.C.R.R.R.R.R.R.C.g.g.g.C.C.C.g.g.g.g.g.g.g.g.g.g.g.g.g.g.g.g.g.g.g.g.g.p.p.p.p.g.g.g.g.g.g.g.g.g.g.g.g.g.C.C.C.C.C.C.X ",
"C.C.R.R.R.R.R.R.R.R.R.C.C.C.C.C.C.C.C.C.C.C.C.g.g.g.g.g.g.g.g.g.g.g.g.g.g.g.g.p.p.p.p.p.p.C.C.C.C.C.C.C.C.g.g.g.g.C.C.C.C.C.C.X ",
"R.R.R.R.R.R.R.R.R.R.R.C.C.C.C.C.C.C.g.g.g.g.g.g.g.g.g.g.g.g.g.g.g.g.g.p.p.p.g.p.p.p.p.p.p.p.p.p.p.C.C.C.X X X X X g.C.C.C.C.X X ",
"R.R.R.R.R.R.R.R.R.R.C.C.C.C.C.C.C.C.C.C.g.g.g.g.g.g.g.g.g.g.g.g.g.g.p.p.p.p.p.p.p.p.p.p.p.p.p.p.p.X X X X X X X X X C.C.C.C.X X ",
"C.C.C.C.C.R.R.R.R.R.C.C.C.C.C.C.C.C.C.C.C.C.g.g.g.g.g.g.g.g.g.g.g.p.p.p.p.p.R.R.R.R.p.p.p.p.R.R.R.R.X X R.R.R.X X X X C.C.X X @X",
"C.C.C.C.C.C.R.R.R.R.R.C.R.R.C.C.C.C.C.C.C.C.C.C.C.C.g.g.g.g.g.g.g.p.p.p.R.R.R.R.R.R.R.p.p.R.R.R.R.R.R.R.R.R.R.R.X X X X X X X @X",
"C.C.C.C.C.C.C.C.R.R.R.R.R.R.R.C.C.C.C.C.C.C.C.C.C.C.g.g.g.g.g.p.p.p.p.R.R.R.R.R.R.R.R.p.R.R.R.R.R.R.R.R.R.R.R.R.R.X X X X X @X@X",
"R.R.C.C.C.C.C.C.C.R.R.R.C.C.C.R.C.C.C.C.C.C.C.C.C.C.C.R.R.R.R.R.R.p.R.R.R.R.R.R.R.R.R.R.R.R.R.R.R.R.R.R.R.R.R.R.R.X X X X X X @X",
"R.R.R.C.C.C.C.C.C.C.C.C.C.C.C.C.C.C.C.C.C.C.C.C.C.C.R.R.C.C.R.R.R.R.R.R.R.R.R.R.R.R.R.R.R.R.R.R.R.R.R.R.R.R.R.R.X X X R.R.X X X ",
"R.R.R.C.C.C.R.R.C.C.C.C.C.C.C.C.C.C.C.C.C.C.C.C.C.C.R.C.C.C.C.R.R.R.R.R.R.R.R.C.C.C.R.R.R.R.R.C.C.R.R.R.R.C.C.X X R.R.R.R.R.X X ",
"R.R.R.C.C.R.R.R.R.R.C.C.C.C.C.C.C.C.C.C.C.C.C.C.C.C.C.C.C.C.C.C.C.C.C.R.R.R.C.C.C.C.C.R.R.C.C.C.C.C.C.R.C.C.C.C.R.R.R.R.R.R.X X ",
"R.R.R.R.R.R.R.R.R.R.R.R.R.R.R.R.R.R.R.C.C.C.C.C.C.C.C.C.C.C.C.C.C.C.C.C.R.R.C.C.C.C.C.R.C.C.C.C.C.C.C.C.C.C.C.C.C.C.R.R.R.R.X X ",
"R.R.R.R.R.R.R.R.R.C.C.C.C.C.C.C.C.C.C.C.C.C.C.C.C.C.C.C.C.C.C.C.C.C.C.C.C.C.C.C.C.C.C.R.C.C.C.C.C.C.C.C.C.C.C.C.C.C.C.R.R.R.X X ",
"C.C.C.C.C.C.C.C.C.C.C.C.g.g.g.g.g.g.C.C.C.C.C.C.C.C.C.C.C.C.C.C.C.C.C.C.C.C.C.C.C.C.C.C.C.C.C.C.C.C.C.C.C.C.C.C.C.C.C.R.R.X X X ",
"C.C.C.C.C.C.C.C.C.C.g.g.g.g.g.g.g.g.g.C.g.g.g.g.C.C.C.C.C.C.R.R.R.C.C.C.C.C.C.C.C.C.C.C.C.C.C.C.C.C.C.C.C.C.C.C.C.C.C.R.X X X X ",
"C.C.C.C.C.C.C.C.g.g.g.g.g.g.g.g.g.g.g.g.g.g.g.g.g.C.C.C.R.R.R.R.R.R.C.C.C.C.C.C.C.C.C.C.g.g.g.C.C.C.C.C.C.C.C.X X X X X X X X @X",
"C.C.C.C.C.C.C.g.g.g.g.g.g.g.g.g.g.g.g.g.g.g.g.g.g.R.R.R.R.R.R.R.R.R.R.R.R.R.g.g.g.C.C.g.g.g.g.g.C.C.C.C.C.C.C.C.C.X X X X @X@X@X",
"C.C.C.C.C.g.g.g.g.g.g.C.C.C.C.C.g.g.g.g.g.g.g.g.g.g.g.g.R.R.R.R.R.R.R.R.R.g.g.g.g.g.g.g.C.C.g.g.g.C.C.C.C.C.C.g.g.g.X X X @X@X@X",
"C.C.C.g.g.g.g.g.g.g.C.C.C.C.C.C.C.g.g.g.C.C.C.g.g.g.g.g.g.g.R.R.R.g.g.g.g.g.C.C.g.g.g.C.C.C.C.g.g.g.g.g.C.C.g.g.g.g.g.X X X @X@X",
"g.C.C.C.C.C.C.C.C.C.C.C.C.C.C.C.C.g.g.C.C.C.C.Z.N N N N N 9.C.C.C.C.V.7.N N N N B A.H.C.C.H.H.H.H.C.g.g.C.g.g.g.g.g.g.X X X @X@X",
"g.g.g.g.C.C.C.C.C.C.C.C.C.C.C.C.C.C.C.H.G.H.Z.B N 2.2.2.B N r.C.G.H.9.N N ! 2.2.2.B 2.A.Z.B B N 3.H.C.C.C.g.g.g.g.g.X X X X @X@X",
"C.C.C.C.C.C.C.C.C.C.C.C.C.C.C.C.C.C.G.2.N N N N 3.V.V.J.S.B 9.t.N N N N ! A.V.V.V.4.N N N N 2.2.2.3.H.C.g.g.g.g.g.X X X X X @X@X",
"C.C.C.C.C.C.C.C.p.p.p.p.p.C.C.p.p.i.2.N 3.3.3.N 7.J.J.J.K.<.M N N N N 2.A.K.K.I.K.V.8.N N 7.V.K.D.N 4.s.s.d.g.C.X X C.C.X X X @X",
"C.C.C.C.C.C.C.p.p.p.p.p.p.p.p.p.i.B N 4.B.J.H.3.J.J.J.J.V.r.q.w.w.q.M <.K.I.[.'.I.J.B.B 2.V.J.K.A.2.N N N 8.t.H.C.C.C.C.C.X X X ",
"C.C.C.C.C.p.p.p.R.R.R.R.p.p.e.Q.4.N N H.J.J.H.2.J.U.I.K.<.V u.OX}.W.B <.K._.{.'.U.J.V.0.y.U.I.J.K.S.M N N N N r.H.C.C.C.C.C.X X ",
"C.C.p.p.p.p.R.R.R.R.R.R.R.P.8.N N N N F.J.J.B.r.E.|.[.Y.r.! W.{.'.OXa.:.U.[.'.'.'.K.U.{.{.|.[.U.K.<.B 7.7.7.2.N y.C.C.C.C.C.X X ",
"R.p.p.R.R.R.R.R.R.R.R.R.x.Q N 8.7.B N H.U.U.U.L.'.'.{.!.p.W.}.'.'.{.W.A.(.|.'.'.'./.`.'.'.'.{._.K.A.;.K.K.K.<.2.8.d.C.C.C.X X X ",
"R.R.R.R.R.R.R.R.R.R.#.D > i R F.K.-.B -.[.|.`./.'.'.'.{.}.{.'.'.'.'.{.(.[.{.'.'.'.|.'.'.'.'.{._.J.K.K.J.J.J.K.r.N Q.X X X X X @X",
"C.C.C.C.C.C.R.R.g.=.3 X .   } ~.K.K.;.u.oX'.'.|.'.'.'.'.'.{.{.'.'.'.|.|.'.'.'.|.'.'.'.'.'.'.`.^.J.J.J.J.J.J.K.r.N Q.R.R.X X @X@X",
"C.C.C.C.C.C.C.C.C.U . ; 6 6 9 q M.K.K././.'.|.|.'.'.'.|.|.[.(.{.'.|.(.[.|.'.'.(.`.|.|.|.|.`.^.J.K.L.L.K.K.K.A.3.8.G.R.R.R.X X @X",
"C.C.C.C.C.C.C.C.k., ; [ n.n.P q M.K.J.J.J./././.|.|.[././.U.^.|._./.K.(.|.'.'.K.U././././.E.K.L.M.9 9 } A.t.G H G.C.C.C.C.X X @X",
"R.R.R.C.C.C.C.k., . 8 n.,.m.K.L.K.J.K.J.m.V.J.K.^./.U.V.J.J.I./.I.V.U.[.'.'.'.(./.J.J.J.J.J.M.6 <     - J z % < 9 k.C.C.C.X X @X",
"R.R.R.R.C.k.7 , X . 8 n.,.N.K.J.J.J.m.m.N.J.J.J.J.J.J.J.J.J.J.J.J.J.(.|.'.'.'.|.|.K.J.J.J.K.N.e I I 7   % % . . X , v.C.C.X X @X",
"R.R.R.R.P.2 X & j u * P >.N.K.J.J.J.B.c.V.J.J.K.V.m.N.K.J.J.J.J.J.J.(.|.'.'.'.'./.K.J.J.J.J.K.K.K.L.N.7 . < w w - . | C.X X X @X",
"C.C.C.P.2 X % b B n y * w n.V.J.J.J.K.v.V.K.V.m.v.,.,.m.J.J.J.J.J.J.I._.|.{.{.^.J.J.J.J.J.J.J.J.J.J.L.I   8 n.n.[ - X X X X @X@X",
"C.C.C.k.X % b B N B b l / ,.n.V.K.J.m.,.v.v.v.,.,.,.,.v.K.J.J.J.K.N.B.I.U.U.U.J.J.J.J.J.J.J.J.J.J.J.L.e , O.,.,.n., X X X X X @X",
"C.C.C.k.X t B N N N N N *.,.,.n.v.v.,.,.,.,.,.c.V.V.V.N.m.J.J.K.N.,.N.J.J.J.J.J.J.V.m.J.J.J.J.J.J.J.K.b.O.,.,.c.6 + X : =.X X X ",
"C.C.C.k.X t B B j % % S ,.,.,.,.,.,.,.B.V.c.c.V.J.J.J.J.N.n.n.v.c.,.c.B.J.J.J.J.J.V.c.n.v.m.J.J.J.K.B.c.,.,.,.,.H t X X - b.X X ",
"C.C.C.k.X t B j @ X 5 ..,.,.,.,.,.,.B.J.J.V.V.J.J.J.J.K.B.,.,.,.m.V.m.c.n.V.J.J.J.V.c.c.V.V.J.V.c.c.c.,.,.,.,.) B n & X X v.X X ",
"g.g.g.@.X O $ @ . 4 ..,.,.,.,.,.,.,.V.J.J.J.J.J.J.J.J.J.J.V.N.,.N.J.J.m.,.V.J.J.J.v.c.V.J.J.J.V.,.,.,.,.,.,.c.6.N N n % X v.X X ",
"g.g.#.$ X X X @ . 5 ,.,... . .o.,.,.c.c.V.V.J.J.J.J.V.J.J.J.J.V.m.N.J.V.V.m.c.V.V.c.,.n.V.J.J.J.N.,.,.,.,.,.,.6.N N B & X X X X ",
"C.m.= X X @ u j O X 6 ..5 + $ c &.,.,.,.,.c.V.J.J.B.b.J.J.J.J.K.m.,.N.V.V.v.,.,.,.,.,.,.n.V.V.B.,.,.,.,.o.o.( N N N M % X X X @X",
"C.b.+ X u M M N h O o + o @ j N $.,.,.,.,.,.c.V.V.,.v.V.J.J.J.V.m.,.,.,.,.,.,.,.,.,.,.,.,.,.,.,.,.,.c.*.N B N N n n t X X X $X@X",
"V.' o % N N N N B h $ % O d N N N %.X.X.,.,.,.,.,.,.,.v.V.V.m.,.,.,.,.,.,.,.,.,.,.,.,.,.,.,.,.,.,.,.,.$.B N N B i X X X X X +X@X",
"V.' o % N N N N N N N B d X f M N N 2.2.o.,.,.,.,.,.,.,.,.,.,.o.o.,.,.,.,.,.,.X.,.,.,.,.,.,.,.,.,.,.,.,.*.B N n t X X X X X X $X",
"N.' o % b B B N N N N N B d % c B N X.,.,.,.,.,.X.,.,.,.,.,.o.5.) c.,.,.,.,.X.T X.,.,.,.,.X.,.,.,.,.,.,.c.) N d % @ X X X X X X ",
"{ ' - X % z z v N N N N N N B N N N *.,.,.,.,.*.2.,.,.,.,.o.) 2.) o.c.,.,.X.2.2.o.,.,.,.X.2.,.,.,.,.,.,.o.6.N N B d @ X Y X X X ",
"E E ' : X X O f B N N N N N N N N N N *.%.%.o.3.2.,.,.,.c.*.6.c.( 5.%.$.$.2.N X.,.,.,.,.X.2.,.,.,.,.,.c.` N N N N B t X Y l.X X ",
"W W E F X @ g B N N N N N N N N N N N N N 5.,.X.T %.,.c.o.6.6.c.$.5.B 2.5.B N ) ,.,.,.$.` m %.c.,.,.c.X.H v N N N B t X Y l.X X ",
"p.P.l.F X t B N N B v v N N N N N N N N B ,.,.X.N m *.*.6.M 6.c.,.c.*.X.c.` B N ) *.` N N N m *.*.*.$.H t p B N B z % X Y l.X X ",
"T.j.l.Y X t B N B b % d B N N N N N N N N ` ,.) N N N N N N ( c.,.,.c.%.X.c.2.N N N N N N N N N N b f t . f B N z % X , h.X X X ",
"R.P.l.Y X $ j ^ b & % c B N N N N N N N N N ( N N N N N N N 2.&.,.,.c.5.5.) m N N N N N N N N N N v a p & & v ^ u . , X X X X @X",
"R.T.l.h.1 X $ d t . f ^ N N N N N N N N N N N N N N N N N N N 2.&.c.%.2.N N N N N N N N N N B N N N B ^ g . & d C X X X X X X @X",
"R.R.b.{ { 1 X X X X % c B N N N B N N N N N N N N N N B N N N N 2.( 2.N N N N N N N N N N n g B N N B c & X X X X X | { X X X X ",
"C.C.V.b.{ ' 9 9 9 , X % a c B B f b N N N N N N N B b g B N N N N N N N N N N N N N N N N b @ f B B v % X 2 L L I | { { b.X X X ",
"C.C.C.V.m.b.| | | ' , X . & u u @ v B N N N N N B n & @ g B B B N B g z B N N N N N N B n u X @ u u & X X 7 | | | { b.m.V.X X X ",
"C.C.C.C.C.V.=./ / +.D Z Z : X X X & u J B N N n u & X X $ u u t j h @ j B N N N N N M u & X X X X X X > 0 I | { { b.V.C.C.X X X ",
"C.C.C.C.C.C.V.N.v./ / +.+.D Z w w w w { _ _ @.@.w Z A s X X X X $ $ X % c B N N N N N k 0 w w w w w w I | | / =.;.V.C.C.C.X X @X",
"C.C.C.C.C.C.C.C.V.B.v.{ / / / | | | | { / } } } | | | K A A A P < X X X % & & b N N @.] | | | B.m.| | | { =.d.d.g.g.C.C.X X @X@X",
"C.C.C.C.C.C.R.R.C.C.V.B.k.{ { { { { { { { { | N.{ { { { | | | | ' P P P P P P ] ] ] { } { { / =.f.b.{ k.d.d.g.g.g.g.X X X @X@X@X",
"C.C.C.C.C.R.R.R.R.C.C.C.V.T.T.z.l.| | { { | B.B.{ { { { { | { { { | | | | | | | } } { { { / / #.g.f.d.d.g.g.g.g.g.X X X X X X @X",
"C.C.C.R.R.R.R.R.R.R.R.R.R.R.R.T.T.T.T.| | B.C.B.} { { / #.-./ { { { { { { | N.B.| | | | @.d.d.d.g.g.g.g.g.g.g.g.g.g.g.g.g.g.X X ",
"g.g.R.R.R.R.R.R.R.R.R.R.R.R.R.R.g.g.g.d.V.C.g.d./ / / #.;./ / / / { { / / ;.g.C.V.V.V.d.d.g.g.g.g.g.g.g.g.C.C.C.C.C.C.g.g.g.g.X "
};
