/* XPM */
static const char *top_right2[] = {
/* columns rows colors chars-per-pixel */
"64 64 187 2 ",
"   c #0D112C",
".  c #12162B",
"X  c #161C2E",
"o  c #181F2E",
"O  c #121227",
"+  c #171F30",
"@  c #1B222F",
"#  c #172031",
"$  c #182333",
"%  c #1A2836",
"&  c #1B2C3A",
"*  c #1E323E",
"=  c #21292F",
"-  c #202A33",
";  c #2B3332",
":  c #2E3B35",
">  c #333E35",
",  c #2F403B",
"<  c #364235",
"1  c #3A4636",
"2  c #3A4A36",
"3  c #43463A",
"4  c #404936",
"5  c #405238",
"6  c #465A3A",
"7  c #4C5C3B",
"8  c #4A5639",
"9  c #4C613B",
"0  c #53633C",
"q  c #5B6D3E",
"w  c #5E713F",
"e  c #5E793F",
"r  c #63743F",
"t  c #1F3541",
"y  c #213C46",
"u  c #203742",
"i  c #26484E",
"p  c #23424A",
"a  c #274D52",
"s  c #284E53",
"d  c #295155",
"f  c #2A5659",
"g  c #2C5C5D",
"h  c #3E5543",
"j  c #33635E",
"k  c #2A5E61",
"l  c #2E6162",
"z  c #2F6868",
"x  c #306764",
"c  c #316966",
"v  c #326D69",
"b  c #35736D",
"n  c #3E7E6F",
"m  c #357672",
"M  c #377A73",
"N  c #397C73",
"B  c #35777B",
"V  c #2E7575",
"C  c #5D5E41",
"Z  c #4C684A",
"A  c #4B6847",
"S  c #5E7940",
"D  c #476258",
"F  c #49775A",
"G  c #567750",
"H  c #606141",
"J  c #657A40",
"K  c #6A7B41",
"L  c #7B7A48",
"P  c #407B69",
"I  c #517161",
"U  c #587C68",
"Y  c #407F72",
"T  c #398178",
"R  c #5E8354",
"E  c #57815A",
"W  c #578C5F",
"Q  c #5B8E5C",
"!  c #5F905A",
"~  c #6D8343",
"^  c #6B8B4E",
"/  c #6B8A47",
"(  c #708643",
")  c #778E45",
"_  c #788F44",
"`  c #739445",
"'  c #799145",
"]  c #749C4C",
"[  c #799F4A",
"{  c #799C46",
"}  c #648955",
"|  c #668D59",
" . c #608555",
".. c #669455",
"X. c #699654",
"o. c #6E9950",
"O. c #629259",
"+. c #6A935B",
"@. c #6E995E",
"#. c #729C5D",
"$. c #7B9850",
"%. c #7DA147",
"&. c #7CA148",
"*. c #79A15B",
"=. c #4D8665",
"-. c #44826D",
";. c #49856D",
":. c #4E8A6C",
">. c #528963",
",. c #588D67",
"<. c #538B69",
"1. c #56896E",
"2. c #5C9165",
"3. c #468471",
"4. c #578C70",
"5. c #5D8C75",
"6. c #629463",
"7. c #689661",
"8. c #6C9C63",
"9. c #68956C",
"0. c #719B6F",
"q. c #608E75",
"w. c #679175",
"e. c #6FA166",
"r. c #75A462",
"t. c #78A763",
"y. c #79A863",
"u. c #85844B",
"i. c #918F4E",
"p. c #839C48",
"a. c #809947",
"s. c #93914F",
"d. c #9D9A52",
"f. c #A09D53",
"g. c #81A346",
"h. c #84A548",
"j. c #8AA349",
"k. c #8CAA49",
"l. c #83A949",
"z. c #90A448",
"x. c #92AD4A",
"c. c #96B14B",
"v. c #9BB54C",
"b. c #9BB94E",
"n. c #84A657",
"m. c #86AB56",
"M. c #8CAD54",
"N. c #83A658",
"B. c #91AE52",
"V. c #8FB252",
"C. c #92B351",
"Z. c #A1B74C",
"A. c #A3B94C",
"S. c #AAA655",
"D. c #A7BA50",
"F. c #ABBD53",
"G. c #A6B459",
"H. c #BAB55A",
"J. c #BFBA5B",
"K. c #B1B45D",
"L. c #8CAA6C",
"P. c #8FA363",
"I. c #91AD6B",
"U. c #AFBE6A",
"Y. c #AAC04C",
"T. c #B2C057",
"R. c #B3C159",
"E. c #BAC55D",
"W. c #BEC761",
"Q. c #BEC765",
"!. c #C1C963",
"~. c #C5CB66",
"^. c #C7CC67",
"/. c #C6CC67",
"(. c #C7CC67",
"). c #C9CD67",
"_. c #CCCF67",
"`. c #C8CD68",
"'. c #C8CD68",
"]. c #CACE69",
"[. c #C8CD68",
"{. c #CED066",
"}. c #3C8A8C",
"|. c #45A6A5",
" X c #46A9A7",
".X c #47ABA9",
"XX c #47ABA9",
/* pixels */
"X X X .X.X.X.X.X.X.X.X.X.X.X.X.X.X.XX X X X .X.X.X.X.X.X.X.X.XX X X X X X X .X.X.X.X.X.X.X.X.X.X.X.X.X.X.X.X.X.X.X.X.X.X.X.X.X.X",
"X X X X X .X.X.XX X X X X X .X.X.XX X X X X X .X.X.X.X.X.X.XX X X X X X X X X .X.X.X.X.X.X.X.X.X.X.XX X X X .X.X.X.X.X.X.X.X.X.X",
"J.J.J.X X X .XX X X X X X X X .XX X X b.b.X X .XX X X X X .XX X X J.J.J.J.X X .X.X.X.X.X.X.X.X.XX X X X X X X X .X.X.X.X.X.X.X.X",
"J.J.J.J.X X X X X X J.J.J.J.X X X X b.b.b.b.X X X X X X X X X X J.J.J.J.J.J.X X .X.X.X.X.X.X.XX X X X b.b.b.X X X .X.X.X.X.X.X.X",
"J.J.J.J.X X X X X J.J.J.J.J.J.X X X b.b.b.b.b.X X X y.y.X X X X J.J.J.J.J.J.X X X X X X X .X.XX X X b.b.b.b.b.X X X .X.X.X.X.X.X",
"b.b.b.J.J.X X X X J.J.J.J.J.J.J.X X b.b.b.b.b.X X y.y.y.y.X X X J.J.J.J.J.X X X X X X X X X .XX X y.b.b.b.b.b.b.X X .X.X.X.X.X.X",
"b.b.b.b.b.b.J.X X J.J.J.J.J.J.J.J.X X b.b.b.b.b.X y.y.y.J.J.X X J.J.J.J.J.X X J.J.J.J.J.X X X X X b.b.b.b.b.b.b.X X .X.X.X.X.X.X",
"b.b.b.b.b.b.b.b.X X X J.b.b.b.b.J.b.X b.b.b.b.b.y.y.y.J.J.J.J.X J.J.J.J.X X J.J.J.J.J.J.J.X X y.y.b.b.b.b.b.b.b.X X .X.X.X.X.X.X",
"J.J.b.b.b.b.b.b.b.J.J.J.b.b.b.b.b.b.b.b.b.b.b.b.b.y.y.J.J.J.J.X J.J.J.J.X J.J.J.J.J.J.J.J.X X y.y.b.b.b.b.b.b.b.X X .X.X.X.X.X.X",
"J.J.J.b.b.b.b.b.b.b.b.b.b.b.b.b.b.b.b.b.b.b.b.b.b.b.J.J.b.b.J.J.J.J.J.J.J.J.J.J.J.J.J.J.J.X X y.y.b.b.b.b.b.X X X X X .X.X.X.X.X",
"J.J.J.b.b.b.J.J.b.b.b.b.b.b.b.b.b.b.b.b.b.b.b.b.b.b.J.b.b.b.b.J.J.J.J.J.J.J.J.b.b.b.J.X X X y.y.y.y.b.b.X X X X X X X X .X.X.X.X",
"J.J.J.b.b.J.J.J.J.J.b.b.b.b.b.b.b.b.b.b.b.b.b.b.b.b.b.b.b.b.b.b.b.b.b.J.J.J.b.b.b.b.X X X X y.y.y.y.y.b.X X b.b.b.b.X X X .X.X.X",
"J.J.J.J.J.J.J.J.J.J.J.J.J.J.J.J.J.J.J.b.b.b.b.b.b.b.b.b.b.b.b.b.b.b.b.b.J.J.b.b.b.b.X b.b.b.y.y.y.y.y.b.b.b.b.b.b.b.b.X X .X.X.X",
"J.J.J.J.J.J.J.J.J.b.b.b.b.b.b.b.b.b.b.b.b.b.b.b.b.b.b.b.b.b.b.b.b.b.b.b.b.b.b.b.b.b.b.b.b.b.b.y.y.y.y.b.b.b.b.b.b.b.b.X X .X.X.X",
"b.b.b.b.b.b.b.b.b.b.b.b.y.y.y.y.y.y.b.b.b.b.b.b.b.b.b.b.b.b.b.b.b.b.b.b.b.b.b.b.b.b.b.y.y.y.y.y.y.b.b.b.b.b.b.b.b.b.b.X X .X.X.X",
"b.b.b.b.b.b.b.b.b.b.y.y.y.y.y.y.y.y.y.b.y.y.y.y.b.b.b.b.b.b.J.J.J.b.b.b.b.b.b.b.b.b.b.y.y.y.y.y.y.b.b.b.X X b.b.b.b.X X X .X.X.X",
"b.b.b.b.b.b.b.b.y.y.y.y.y.y.y.y.y.y.y.y.y.y.y.y.y.b.b.b.J.J.J.J.J.J.b.b.b.b.b.b.b.b.b.b.y.y.y.y.b.b.b.b.b.b.X X X X X X .X.X.X.X",
"b.b.b.b.b.b.b.y.y.y.y.y.y.y.y.y.y.y.y.y.y.y.y.y.y.J.J.J.J.J.J.J.J.J.J.J.J.J.y.y.y.b.b.y.y.y.y.y.b.b.b.b.b.b.y.X X X X X .X.X.X.X",
"b.b.b.b.b.y.y.y.y.y.y.b.b.b.b.b.y.y.y.y.y.y.y.y.y.y.y.y.J.J.J.J.J.J.J.J.J.y.y.y.y.y.y.y.b.b.y.y.y.b.b.b.b.b.b.b.X X .X.X.X.X.X.X",
"b.b.b.y.y.y.y.y.y.y.b.b.b.b.b.b.b.y.y.y.b.b.b.y.y.y.y.y.y.y.J.J.J.y.y.y.y.y.b.b.y.y.y.b.b.b.b.y.y.b.b.b.b.b.b.b.X X .X.X.X.X.X.X",
"y.b.b.b.b.b.b.b.b.b.b.b.b.b.b.b.b.y.y.b.b.b.M.N M M M M ,.b.b.b.b.b.2.M M M M M m.C.b.b.C.C.C.r.y.y.b.b.b.b.b.X X X X .X.X.X.X.X",
"y.y.y.y.b.b.b.b.b.b.b.b.b.b.b.b.b.b.C.V.C.M.N M -.-.-.N M 6.b.V.C.6.M M Y -.-.-.N N M.M.N N M ;.r.y.y.y.b.b.b.y.X X X .X.X.X.X.X",
"b.b.b.b.b.b.b.b.b.b.b.b.b.b.b.b.b.V.;.M M M M <.v.v.Z.n.N 2.8.M M M M N n.Z.v.v.<.M M M M -.-.-.;.r.y.y.y.y.y.y.y.X X .X.X.X.X.X",
"b.b.b.b.b.b.b.b.w.w.w.w.w.b.b.w.q.N M ;.;.;.-.v.Z.Z.Z.A.*.m M M M M Y n.A.D.D.A.v.<.M M <.v.A.m.M ;.e.8.r.y.y.y.y.X X X .X.X.X.X",
"b.b.b.b.b.b.b.w.w.w.w.w.w.w.w.q.Y M ;.C.Z.c.;.v.Z.Z.Z.v.@.Y 4.4.3.m *.A.D.!.).D.Z.v.N n v.Z.A.M.-.M M M :.8.r.y.X X X X X X .X.X",
"b.b.b.b.b.w.w.w.J.J.J.J.w.5.5.1.M M B.A.Z.c.-.v.F.D.A.n.V 0.{._.I.Y #.A.E.`.^.F.Z.v.9.9.F.D.Z.A.n.M M M M M 6.C.b.J.J.J.X X X .X",
"b.b.w.w.w.w.J.J.J.J.J.J.G.1.M M M M B.Z.Z.c.6.F.).!.D.7.N L.).^.{.0.#.F.!.).^.^.D.F.).).`.!.F.A.N.N ,.,.,.-.M *.J.J.J.J.J.X X .X",
"J.w.w.J.J.J.J.J.J.J.J.J.9.M :.2.N M B.F.F.F.A.^.^.).U.w.L._.^.^.).L.n.E.`.^.^.^.R./.^.^.^.^.!.A.M.#.A.A.A.N.-.:.K.J.J.J.J.X X .X",
"J.J.J.J.J.J.J.J.J.J.y.} P <.B.A.#.N 7.Q.`.^.R.^.^.^.)._.).^.^.^.^.).E.W.^.^.^.^.`.^.^.^.^.).!.Z.A.A.Z.Z.Z.A.7.m P.J.J.J.J.X X .X",
"b.b.b.b.b.b.J.J.y.y.| : t $.Y.A.A.#.0.Q.).^.`.^.^.^.^.^.^.`.^.^.^.).`.^.^.^.`.^.^.^.^.^.^./.R.Z.Z.Z.Z.Z.Z.A.7.m P.J.J.J.X X X .X",
"b.b.b.b.b.b.b.b.b.p.< X   4 q j.A.A.R.R.^.`.`.`.^.^.^.`.!.E.`.^.`.W.!.`.^.^.E./.`.`.`.`.^.R.Z.Z.A.A.A.A.A.M.:.3.& X X X X X .X.X",
"b.b.b.b.b.b.b.b.p.< . > 9 6 0 j.A.Z.Z.Z.R.R.R.R.`.`.!.R.F.A.W.`.W.D.F.!.^.^.E.R.R.R.R.R.T.Z.A.D.z.0 0 _ M.:.k E y.X X X X .X.X.X",
"J.J.J.b.b.j.7 0 1 X > / l.k.A.A.Z.A.A.k.v.Z.Z.A.T.R.F.Z.Z.Z.D.R.D.v.F.!.^.^.`.E.R.Z.Z.Z.Z.A.z.7 1     ; F l & > | y.X X X .X.X.X",
"J.J.J.J.j.1 X X X . 6 l.&.x.A.Z.Z.k.k.x.Z.Z.Z.Z.Z.Z.Z.Z.Z.Z.Z.Z.Z.Z.E.`.^.^.^.`.`.A.Z.Z.Z.A.x.r K K 8   & & . X < p.b.X X X .X.X",
"J.J.J.S.3 X & g p . 6 l.&.c.A.Z.Z.c.g.v.Z.Z.Z.A.v.k.k.A.Z.Z.Z.Z.Z.Z.E.`.^.^.^.^.R.A.Z.Z.Z.Z.A.A.A.A.x.8 . 1 S : . > p.b.X X .X.X",
"b.b.b.f.X & c N b y = S g.l.v.Z.Z.A.h.h.v.A.v.k.h.&.&.k.Z.Z.Z.Z.Z.Z.D.W.`.).).T.Z.Z.Z.Z.Z.Z.Z.Z.Z.Z.A.K   9 l./ : . > j.b.X X .X",
"b.b.b.p.X t N M N b y @ e %.l.v.A.k.&.&.h.h.h.&.&.&.&.h.A.Z.Z.Z.A.x.c.D.F.F.F.Z.Z.Z.Z.Z.Z.Z.Z.Z.Z.Z.A.r < ` &.g.` : X ' b.X X .X",
"b.b.b.p.X t N M M N b l R &.&.l.h.&.&.&.&.&.&.g.v.v.v.x.k.Z.Z.A.x.&.x.Z.Z.Z.Z.Z.Z.v.k.v.Z.Z.Z.Z.Z.Z.A.j.` &.&.&.l.1 X ' b.X X .X",
"b.b.b.p.X t M M M M M M O.&.&.&.&.&.&.c.v.g.g.v.Z.Z.Z.Z.x.l.l.h.g.&.g.c.Z.Z.Z.Z.Z.v.g.l.h.k.Z.Z.Z.Z.c.g.&.&.&.%.6 @ X ; j.X X .X",
"b.b.b.a.X X p N f % % A &.&.&.&.&.&.c.Z.Z.v.v.Z.Z.Z.Z.A.c.&.&.&.k.v.k.g.l.v.Z.Z.Z.v.g.g.v.v.Z.v.g.g.g.&.&.&.&.Q b t X X X X X .X",
"y.y.+.- X X + % $ X 6 { &.&.&.&.&.&.v.Z.Z.Z.Z.Z.Z.Z.Z.Z.Z.v.x.&.x.A.Z.k.&.c.Z.Z.v.h.g.v.Z.Z.Z.v.&.&.&.&.&.&.g.>.M b t X X X X .X",
"y.@.- X X $ $ + . 5 &.&.&.&.&.&.&.&.g.v.v.Z.Z.Z.Z.v.Z.Z.Z.Z.Z.k.k.Z.Z.Z.h.&.v.v.h.&.g.v.Z.Z.Z.c.&.&.&.&.&.&.&.>.M M m & X X .X.X",
"b.k.@ X t b m f . 2 &.&.&.{ ` ] &.&.&.&.g.v.Z.Z.v.h.Z.Z.Z.Z.A.x.&.x.v.v.h.&.&.&.&.&.&.l.v.v.v.&.&.&.&.&.[ [ W M M M N * X }..X.X",
"b.j.o & m M N g + X 6 ` ` 2 $ x X.&.&.&.&.g.v.v.&.h.v.v.Z.Z.Z.k.&.&.&.&.&.&.&.&.&.&.&.&.&.&.&.&.&.&.&.O.M N M M M M b & X B |..X",
"b.~ o & M M M M g $ X o o $ g M M X.] ] &.&.&.&.&.&.&.h.v.v.k.&.&.&.&.&.&.&.&.&.&.&.&.&.&.&.&.&.&.&.&...N M M M b v * X & B |..X",
"b.~ o & v M M M N f & $ . a m M M M M -.[ &.&.&.&.&.&.&.&.&.&.&.&.&.&.&.&.&.&.] &.&.&.&.&.&.&.&.&.&.&.&.O.N M b t X X X B }.}.|.",
"x.~ ; X & x v N M M N d $ . a b M M -.[ &.&.&.&.&.&.&.&.&.&.&.] [ &.&.&.&.&.] Y ] &.&.&.&.] &.&.&.&.&.&.g.Q M s # X X X X X X  X",
"_ _ ~ ; X X * v M M M N d * * x N M ] &.&.&.&.&.o.&.&.&.&.&.[ =.=.[ &.&.&.] -.-.[ &.&.&.] -.&.&.&.&.&.&.[ >.M N s $ X X L X X X ",
"I I ' D X X $ s N M M M M N N M M M O.&.&.&.&.O.-.&.&.&.&.[ Q =.n >.X.....-.M ] &.&.&.&.] -.&.&.&.&.&.g.! M M M N a $ X L s.X X ",
"U U I D X $ d N M M M M M M M M M M M ! ....[ =.-.&.&.&.g.O.>.g...=.n -.=.N M Q &.&.&...! n X.&.&.&.g.] F c N M M N t X L s.X X ",
"w.S.s.D X t T M M M N N M M M M M M M M M >.&.] n X.g.g.[ =.>.&.&.g.O.] g.Q N M Q O.! M M M n O.O.O...F t i N M M N t X L X X X ",
"H.i.s.L X & l N N c s x M M M M M M M M N &.&.] M n ! O.>.m W g.&.&.g.X.] g.-.M M M M M M M M M M v s t O s N M N l & X X X X |.",
"J.S.s.u.3 X % l v t O a N M M M M M M M M Q [ W M M M M M M -.o.&.&.g.=.=.Q n M M M M M M M M M M c p i * * c T k % X X X X X  X",
"J.H.i.s.( 1 X & u . * x M M M M M M M M M M >.M M M M M M M M -.o.g.X.-.M M M M M M M M M M N M M M N T d . * a & X X X X X X X ",
"J.J.j._ ' ~ 7 1 X X a T M M M M N M M M M M M M M M M M M M M M -.W -.M M M M M M M M M M b d N M M N x * X X X 3 C X ' _ X X X ",
"b.b.b.j._ _ ' ~ 0 < & l N N N N s v M M M M M M M M M N M M M M M M M M M M M M M M M M M v $ s N N c & X < 0 H u.' _ _ j.b.X X ",
"b.b.b.b.k.j._ ' ' 7 X & y y y y $ c N M M M M M M N v s N M M M M N d l M M M M M M M N b u X $ y y & X X 8 }  .R _ j.k.b.b.X X ",
"b.b.b.b.b.b.+.R R G : X X X X X X * b M M M M M N v & $ s N N N N f $ g N M M M M M m y * X X X X X X > q X X X R +.b.b.b.b.X X ",
"b.b.b.b.b.b.b.x.j.R G Z Z Z Z w w w ^ } M M M b t & X X $ t t t t % X & x N M M M M M j q w w w w w w K ' ' X X X r.b.b.b.b.X X ",
"b.b.b.b.b.b.b.b.b.c.j.' R R R ' ' ' _ _ E ^ ^ ^ r r J h X X X X X X X X & * * v M M } ^ ' ' ' c.k.' ' ' _ +.r.X X X b.b.b.X X X ",
"b.b.b.b.b.b.J.J.b.b.c.c.p._ _ _ _ _ _ _ _ _ ' x.' ' ' ( J J J J J J J J J J J ^ ^ ^ _ _ _ _ R +.y.j._ p.r.r.y.X X X X X X X X .X",
"b.b.b.b.b.J.J.J.J.b.b.b.b.H.H.d.s.' ' _ _ ' c.c._ _ _ _ ' ' ' ' ' ' ' ' ' ' ' ' _ _ _ _ _ R R | y.y.r.r.y.y.y.X X X X X X X .X.X",
"b.b.b.J.J.J.J.J.J.J.J.J.J.J.J.H.H.H.H.' ' c.b.c._ _ _ R | @.R _ _ _ _ _ _ ' x.c.' ' ' ' } r.r.r.y.y.y.y.y.y.y.X X y.y.y.X X X .X",
"y.y.J.J.J.J.J.J.J.J.J.J.J.J.J.J.y.y.y.r.b.b.y.r.R R R | #.R R R R _ _ R R #.y.b.b.b.b.r.r.y.y.y.y.y.y.y.y.y.X X y.y.y.b.b.b.X X "
};
