/* XPM */
static const char *top_5[] = {
/* columns rows colors chars-per-pixel */
"64 64 194 2 ",
"   c #0E122C",
".  c #13162B",
"X  c #161C2E",
"o  c #181E2E",
"O  c #121227",
"+  c #171F30",
"@  c #0B0F2C",
"#  c #1C232F",
"$  c #172031",
"%  c #192333",
"&  c #1B2C3A",
"*  c #192839",
"=  c #1E323E",
"-  c #21292F",
";  c #202830",
":  c #2C3633",
">  c #2B3938",
",  c #323D35",
"<  c #303731",
"1  c #2F403B",
"2  c #344335",
"3  c #3D4A37",
"4  c #3E4238",
"5  c #384235",
"6  c #424A38",
"7  c #435339",
"8  c #465A3A",
"9  c #4C5C3B",
"0  c #4F523D",
"q  c #57593F",
"w  c #4D633B",
"e  c #53633C",
"r  c #5C6C3E",
"t  c #57693D",
"y  c #5E713F",
"u  c #5E793F",
"i  c #63753F",
"p  c #1F3541",
"a  c #1F3A46",
"s  c #213A44",
"d  c #213E48",
"f  c #22424B",
"g  c #26484E",
"h  c #274C51",
"j  c #284F53",
"k  c #295255",
"l  c #2C5B5C",
"z  c #295559",
"x  c #33635E",
"c  c #2E6262",
"v  c #306664",
"b  c #316967",
"n  c #326C69",
"m  c #34726D",
"M  c #3F7E6E",
"N  c #357671",
"B  c #377A73",
"V  c #397C73",
"C  c #2E7575",
"Z  c #405C43",
"A  c #5A5C40",
"S  c #4E6B4B",
"D  c #4B6847",
"F  c #5E6041",
"G  c #5E7940",
"H  c #476358",
"J  c #416B59",
"K  c #4E7D5A",
"L  c #46735C",
"P  c #567750",
"I  c #507E5D",
"U  c #627540",
"Y  c #667B41",
"T  c #6B7C41",
"R  c #7B7A48",
"E  c #636542",
"W  c #407F6E",
"Q  c #4F7B65",
"!  c #517261",
"~  c #597C68",
"^  c #417F73",
"/  c #398077",
"(  c #398178",
")  c #5E8354",
"_  c #5B8E5D",
"`  c #56865D",
"'  c #5F905A",
"]  c #6E8443",
"[  c #6D8D43",
"{  c #6B8A4E",
"}  c #67864D",
"|  c #778F45",
" . c #788F44",
".. c #739444",
"X. c #799145",
"o. c #749C4C",
"O. c #789E4A",
"+. c #799C46",
"@. c #648955",
"#. c #668D58",
"$. c #659456",
"%. c #6A9653",
"&. c #6E9851",
"*. c #619159",
"=. c #6A935B",
"-. c #6E9A5F",
";. c #679858",
":. c #739D5E",
">. c #789F59",
",. c #7DA147",
"<. c #7BA148",
"1. c #7DA259",
"2. c #4B8566",
"3. c #44826D",
"4. c #4B856C",
"5. c #4F8B6D",
"6. c #528963",
"7. c #598E66",
"8. c #538A6A",
"9. c #5A9066",
"0. c #448272",
"q. c #578C70",
"w. c #5F8D75",
"e. c #629463",
"r. c #6C9E65",
"t. c #679568",
"y. c #749D6E",
"u. c #638E74",
"i. c #679175",
"p. c #6A9770",
"a. c #6FA165",
"s. c #75A462",
"d. c #78A763",
"f. c #79A863",
"g. c #85844B",
"h. c #8E8D4E",
"j. c #918F4E",
"k. c #839C48",
"l. c #93914F",
"z. c #809D50",
"x. c #9C9951",
"c. c #81A346",
"v. c #83A548",
"b. c #89A349",
"n. c #83A848",
"m. c #8CAA49",
"M. c #91A549",
"N. c #91AD4A",
"B. c #96B14B",
"V. c #9BB54C",
"C. c #9BB94E",
"Z. c #85A756",
"A. c #86AB56",
"S. c #8AAC55",
"D. c #8BAE58",
"F. c #80A458",
"G. c #93AF51",
"H. c #8FB253",
"J. c #93B351",
"K. c #A1B74C",
"L. c #A3B94C",
"P. c #A9BE4D",
"I. c #A6A354",
"U. c #A9A958",
"Y. c #A7BA50",
"T. c #ABBD53",
"R. c #A0B654",
"E. c #B0BF57",
"W. c #BAB55A",
"Q. c #BFBA5B",
"!. c #B0BF58",
"~. c #B0AC57",
"^. c #8DAB6C",
"/. c #98A862",
"(. c #ABBC6A",
"). c #B1C057",
"_. c #B4C159",
"`. c #BAC55D",
"'. c #BDC760",
"]. c #BFC761",
"[. c #BFC862",
"{. c #C5CB66",
"}. c #C7CC67",
"|. c #C6CC67",
" X c #C4CB65",
".X c #C9CD67",
"XX c #CCCF67",
"oX c #C8CD68",
"OX c #C8CD68",
"+X c #CACE69",
"@X c #C8CD68",
"#X c #C0C869",
"$X c #CED066",
"%X c #47ABA9",
/* pixels */
"X %X%XX X X X X %X%X%X%X%X%X%X%X%X%X%X%X%X%X%X%X%X%X%X%X%X%X%X%X%X%X%XX X X X X X X %XX X X %X%XX X X X X X %X%X%X%X%X%X%X%XX X ",
"X X X X X X X X X %XX X X X %X%X%X%X%X%X%X%X%XX X X X X %X%X%X%X%X%XX X X X X X X X X X X X X X X X X X X X X X X X %X%X%XX X X ",
"X X X X X C.C.X X X X X X X X %XX X X X %X%XX X X X X X X %X%X%X%XX X X X Q.Q.Q.X X X f.f.X X X X Q.Q.Q.X X X X X X X X X X Q.Q.",
"C.X X X C.C.C.C.X X X X X X X X X X X X X %XX X f.f.f.X X X %X%X%XX X X Q.Q.Q.Q.Q.X f.f.f.f.X X Q.Q.Q.Q.Q.X X X f.f.X X X Q.Q.Q.",
"Q.X X C.C.C.C.C.X X X Q.Q.Q.X X X C.C.C.X X X f.f.f.f.f.X X X X X X X Q.Q.Q.Q.Q.Q.X f.f.f.f.X X Q.Q.Q.Q.Q.X X f.f.f.f.X Q.Q.Q.Q.",
"Q.X X C.C.C.C.C.X X Q.Q.Q.Q.Q.X C.C.C.C.C.X X f.f.f.f.f.X X X X X X X Q.Q.Q.Q.Q.Q.Q.f.f.f.f.Q.Q.Q.Q.Q.Q.Q.X X f.f.f.f.X Q.Q.Q.Q.",
"Q.X C.C.C.C.C.C.X Q.Q.Q.Q.Q.Q.X C.C.C.C.C.C.C.C.C.f.f.X X X Q.Q.Q.X X X Q.Q.Q.Q.Q.Q.Q.f.f.Q.Q.Q.Q.Q.Q.Q.X X X f.Q.Q.Q.X Q.Q.Q.C.",
"Q.C.C.C.C.C.C.X X Q.C.C.C.C.Q.f.f.C.C.C.C.C.C.C.C.C.f.X X Q.Q.Q.Q.Q.Q.X X Q.Q.Q.Q.Q.Q.f.Q.Q.Q.Q.Q.Q.Q.Q.X X Q.Q.Q.Q.Q.Q.Q.Q.C.C.",
"Q.Q.C.C.C.C.C.X C.C.C.C.C.C.C.f.f.C.C.C.C.C.C.C.C.C.C.X Q.Q.Q.Q.Q.Q.Q.Q.X Q.Q.Q.Q.Q.Q.Q.Q.Q.Q.Q.Q.Q.Q.X X Q.Q.Q.Q.Q.Q.Q.Q.Q.C.Q.",
"Q.Q.Q.C.C.C.C.C.C.C.C.C.C.C.C.C.f.f.C.C.C.C.C.C.C.C.Q.Q.C.C.Q.Q.Q.Q.Q.Q.Q.Q.Q.Q.Q.Q.Q.Q.Q.Q.Q.Q.Q.Q.Q.Q.Q.Q.Q.Q.Q.Q.Q.Q.Q.Q.Q.Q.",
"Q.Q.Q.C.C.C.Q.Q.C.C.C.C.C.C.C.C.C.C.C.C.C.C.C.C.C.C.Q.C.C.C.C.Q.Q.Q.Q.Q.Q.Q.Q.C.C.C.Q.Q.Q.Q.Q.C.C.Q.Q.Q.Q.C.C.Q.Q.Q.Q.Q.Q.Q.Q.Q.",
"Q.Q.Q.C.C.Q.Q.Q.Q.Q.C.C.C.C.C.C.C.C.C.C.C.C.C.C.C.C.C.C.C.C.C.C.C.C.C.Q.Q.Q.C.C.C.C.C.Q.Q.C.C.C.C.C.C.Q.C.C.C.C.Q.Q.Q.Q.Q.Q.Q.Q.",
"Q.Q.Q.Q.Q.Q.Q.Q.Q.Q.Q.Q.Q.Q.Q.Q.Q.Q.Q.C.C.C.C.C.C.C.C.C.C.C.C.C.C.C.C.C.Q.Q.C.C.C.C.C.Q.C.C.C.C.C.C.C.C.C.C.C.C.Q.Q.Q.Q.Q.Q.Q.Q.",
"Q.Q.Q.Q.Q.Q.Q.Q.Q.C.C.C.C.C.C.C.C.C.C.C.C.C.C.C.C.C.C.C.C.C.C.C.C.C.C.C.C.C.C.C.C.C.C.Q.C.C.C.C.C.C.C.C.C.C.C.C.Q.Q.Q.Q.Q.C.C.C.",
"C.C.C.C.C.C.C.C.C.C.C.C.f.f.f.f.f.f.C.C.C.C.C.C.C.C.C.C.C.C.C.C.C.C.C.C.C.C.C.C.C.C.C.C.C.C.C.C.C.C.C.C.C.C.C.C.C.C.C.C.C.C.C.C.",
"C.C.C.C.C.C.C.C.C.C.f.f.f.f.f.f.f.f.f.C.f.f.f.f.C.C.C.C.C.C.Q.Q.Q.C.C.C.C.C.C.C.C.C.C.C.C.C.C.C.C.C.C.C.C.C.C.C.C.C.C.C.C.C.C.C.",
"C.C.C.C.C.C.C.C.f.f.f.f.f.f.f.f.f.f.f.f.f.f.f.f.f.C.C.C.Q.Q.Q.Q.Q.Q.C.C.C.C.C.C.C.C.C.C.f.f.f.C.C.C.C.C.C.C.C.C.C.C.C.C.C.C.C.C.",
"C.C.C.C.C.C.C.f.f.f.f.f.f.f.f.f.f.f.f.f.f.f.f.f.f.Q.Q.Q.Q.Q.Q.Q.Q.Q.Q.Q.Q.Q.f.f.f.C.C.f.f.f.f.f.C.C.C.C.C.C.C.C.C.C.C.C.C.C.C.C.",
"C.C.C.C.C.f.f.f.f.f.f.C.C.C.C.C.f.f.f.f.f.f.f.f.f.f.f.f.Q.Q.Q.Q.Q.Q.Q.Q.Q.f.f.f.f.f.f.f.C.C.f.f.f.C.C.C.C.C.C.f.f.f.C.C.C.C.C.C.",
"C.C.C.f.f.f.f.f.f.f.C.C.C.C.C.C.C.f.f.f.C.C.C.f.f.f.f.f.f.f.Q.Q.Q.f.f.f.f.f.C.C.f.f.f.C.C.C.C.f.f.f.C.C.C.C.f.f.f.f.f.C.C.C.f.f.",
"f.C.C.C.C.C.C.C.C.C.C.C.C.C.C.C.C.f.f.C.C.C.S.V B B B B 7.C.C.C.C.C.9.B B B B B A.J.C.C.J.J.J.J.C.C.C.C.C.f.f.f.f.f.f.f.f.f.f.f.",
"f.f.f.f.C.C.C.C.C.C.C.C.C.C.C.C.C.C.J.J.J.S.V B 3.3.3.V B e.C.H.J.e.B B V 3.3.3.V V S.S.V V B 3.s.C.C.C.C.f.f.f.f.f.f.f.f.f.f.f.",
"C.C.C.C.C.C.C.C.C.C.C.C.C.C.C.C.C.H.3.B B B B 8.V.V.K.Z.V 9.r.B B B B V Z.K.V.V.8.B B B B 3.3.3.3.s.C.C.f.f.f.f.C.C.C.f.f.f.f.f.",
"C.C.C.C.C.C.C.C.i.i.i.i.i.C.C.i.u.V B 3.3.3.3.V.K.K.K.L.1.B B B B B 3.Z.L.Y.Y.K.V.8.B B 8.V.L.A.B 3.a.r.s.f.f.C.C.C.C.C.C.C.C.C.",
"C.C.C.C.C.C.C.i.i.i.i.i.i.i.i.i.^ B 4.J.K.B.7.S.K.K.K.L.1.N 0.q.q.^ e.V.K.'..XT.K.V.8.W V.K.K.S.4.3.B B 5.r.r.J.C.C.C.C.C.C.C.C.",
"C.C.C.C.C.i.i.i.Q.Q.Q.Q.i.i.w./.4.B G.L.K.K.J.3.K.T.Y.L.1.C y.$XXX^.V 1.L.'..X}.T.K.V.t.T.T.Y.K.L.F.N B B B B e.J.C.C.C.C.C.C.C.",
"C.C.i.i.i.i.Q.Q.Q.Q.Q.Q.Q.U.8.B B B >.V.K.K.B.e.!.oX XR.e.^ ^..X}.$Xp.>.T. X.X}.}.L.T..XoXoX XT.L.1.V 7.7.7.3.B t.f.f.f.f.C.C.C.",
"Q.i.i.Q.Q.Q.Q.Q.Q.Q.Q.Q.Q.t.B 8.7.V B J.T.T.T.P.}.}..X(.i.^.XX}.}..X^.S.`.oX}.}.}._.{.}.}.}..X'.L.S.>.L.L.L.1.3.8.s.f.f.f.f.f.f.",
"Q.Q.Q.Q.Q.Q.Q.Q.Q.Q.f.f.@.Q 8.G.L.-.V -. XoX{._.}.}.}..XXX.X}.}.}.}..X`.].}.}.}.}.oX}.}.}.}..X'.K.L.L.K.K.K.L.e.B /.Q.Q.Q.Q.Q.Q.",
"C.C.C.C.C.C.Q.Q.f.f.f.#.> a z.P.L.L.:.y.#X}.}.oX}.}.}.}.}.}..X}.}.}..XoX}.}.}.oX}.}.}.}.}.}.{.).K.K.K.K.K.K.L.e.B /.Q.Q.Q.Q.Q.Q.",
"C.C.C.C.C.C.C.C.C.C.+.2 X . 6 t M.L.L._._.}.oXoXoX}.}.}.oX X`.oX}.oX`. X.X}.}.`.{.oXoXoXoX{.).K.K.L.P.P.L.L.D.J I H.C.C.C.C.C.C.",
"C.C.C.C.C.C.C.C.C.+., . 2 w 8 e M.L.K.K.K._._._._.oXoX X_.T.Y.'.oX'.L.T. X}.}.`._._._._._.E.K.L.P.b.e e  .D.J & 3 b.C.C.C.C.C.C.",
"Q.Q.Q.C.C.C.C.C.C.U . 2 [ v.m.L.L.K.L.K.m.V.K.K.L._._.T.V.K.K.Y._.Y.V.T. X}.}.oX`._.K.K.K.K.L.b.9 5 @   < L f . X 3 b.C.C.C.C.Q.",
"Q.Q.Q.Q.C.C.k.8 9 , 2 [ ,.m.V.K.K.K.m.m.N.K.K.K.K.K.K.K.K.K.K.K.K.K.T.{.oX}.}.}.oX}.L.K.K.K.L.M.i Y T 7   * Z , . X | C.C.C.Q.Q.",
"Q.Q.Q.Q.I.0 4 X X . w n.<.B.L.K.K.K.v.N.K.K.K.L.V.m.m.L.K.K.K.K.K.K.`.oX}.}.}.oX}.E.K.K.K.K.K.L.L.L.P.M.6 2 ..[ : . 4 I.Q.Q.Q.Q.",
"C.C.C.U.4 X & c c d - u v.v.V.L.K.K.v.m.V.L.V.m.v.,.,.m.K.K.K.K.K.K.Y.].oXoXoX).T.K.K.K.K.K.K.K.K.K.K.P.r 8 v.v.[ : X +.Q.Q.Q.Q.",
"C.C.C.k.X & n V V m s # u ,.v.V.L.m.,.,.v.v.v.,.,.,.,.v.K.K.K.K.L.N.B.Y.T.T.T.L.K.K.K.K.K.K.K.K.K.K.K.P.r 8 v.,.n.5 . +.C.C.Q.C.",
"C.C.C.k.X p V B B B m c ) ,.,.v.v.,.,.,.,.,.,.c.V.V.V.N.m.K.K.L.N.,.N.K.K.K.K.K.K.V.m.V.K.K.K.K.K.K.L.B.....,.c.9 # X : b.C.C.C.",
"C.C.C.k.X p V B B B B B *.,.,.,.,.,.,.B.V.,.c.V.K.K.K.K.N.v.v.v.c.,.c.B.K.K.K.K.K.V.c.v.v.m.K.K.K.B.v.c.,.,.,._ m p X X : b.C.C.",
"C.C.C.k.X p B B l * * D <.,.,.,.,.,.B.K.K.V.V.K.K.K.K.L.B.,.,.<.m.V.m.c.v.V.K.K.K.V.c.c.V.V.K.V.v.c.,.,.,.,.c.6.B m = X X =.f.C.",
"f.f.f.@.X X f l $ X 8 +.,.,.,.,.,.,.V.K.K.K.K.K.K.K.K.K.K.V.N.,.N.L.K.m.,.B.K.K.V.v.c.V.K.K.K.V.,.,.,.,.,.,.,.6.B B m & X =.f.f.",
"f.f.#.% X X + % . 3 ,.,.,.,.,.,.,.,.c.V.V.K.K.K.K.V.K.K.K.K.K.m.m.K.K.K.v.,.V.V.v.,.c.V.K.K.K.B.,.,.,.<.O.<._ B B B V = X =.f.f.",
"C.m.; X X * * % . 7 ,.,.,.+...o.<.,.,.,.c.V.K.K.V.v.K.K.K.K.L.N.,.N.V.V.v.,.,.,.,.,.,.v.V.V.V.,.,.,.,.*.B V B B B B N & X =.C.C.",
"C.b.o X s N B l $ X 8 ....3 % v %.,.,.,.,.c.V.V.,.v.V.V.K.K.K.m.,.,.,.,.,.,.,.,.,.,.,.,.,.,.,.,.,.,.,.$.B B B B m m p X ; ] C.C.",
"C.] o & B B B B l % X o o % l B B $.o.o.<.,.,.,.,.,.,.v.V.V.m.,.,.,.,.,.,.,.,.,.,.,.,.,.,.,.,.,.,.,.,.,.*.V B m s X X ; Y X.N.C.",
"C.] o & B B B B V z & % . h N B B B B 3.O.,.,.,.,.,.,.,.,.,.,.O.O.,.,.,.,.,.,.o.<.,.,.,.,.,.,.,.,.,.,.,.,._ B h + X X E h.l.l.W.",
"N.] o & n V B B B B V k % . h m B B 3.O.,.,.,.,.,.,.,.,.,.,.O.6.6.O.,.,.,.o.&.W o.,.,.,.<.o.,.,.,.,.,.,.O.6.B V h + X X R l.x.W.",
"| ] : X & c b V B B B V k = = v B B o.,.,.,.,.<.&.,.,.,.,.O._ 2.V 6.&.%.%.3.B 3.O.,.,.,.o.3.,.,.,.,.,.c.' B B B V h % X R l.~.C.",
"! ! ] > X . & b B B B B B V V B B B *.,.,.,.<.*.3.,.,.,.c.*.6.c.$.2.V 3.2.V B o.,.,.,.,.o.3.,.,.,.,.c.<.K n B B B V p X R X.| m.",
"~ ~ ! H X X % k V B B B B B B B B B B ' $.$.O.2.3.,.,.,.O.6.6.,.,.c.*.&.c._ V _ <.,.,.$.' M %.,.c.o.;.K a g V B B V p X Y X.| ! ",
"i.U.l.H X * k V B B V B B B B B B B B B B 6.<.o.M %.c.O.6.N ` c.,.,.,.%.O.c.3.B _ *.' B B B M *.*.K z a . h V B V c & X Y X.| ~ ",
"W.j.l.R X p ( B V b j v B B B B B B B B V <.,.o.B M *.6.B B 3.&.,.,.c.2.6.*.W B B B B B B B B B B c f f = p n / c * X 4 g.! ! u.",
"Q.I.l.R X * l / n p O h V B B B B B B B B _ O._ B B B B B B B 3.o.c.%.3.B B B B B B B B B B B B B B V ( k . p k & X 6 g.l.l.I.Q.",
"Q.W.l.g.3 X * h p . = v B B B B B B B B B B 6.B B B B B B B B B 3._ 3.B B B B B B B B B B B V B B B V b = X X X 4 q g.l.j.j.W.Q.",
"Q.Q.b.| | 3 X X X X h ( B B B B V B B B B B B B B B B B B B B B B B B B B B B B B B B B B m k V B V b = . , F A g.X. .| j.U.Q.Q.",
"C.C.C.b.| ] e e e 2 & c V V V V j n B B B B B B B B B V V B B B B V z c B B B B B B B B B n % j V n = X X q x.l.X.| | | b.Q.Q.Q.",
"C.C.C.C.m.b.X.X.+.9 X & d d d d % b V B B B B B B B n s k V V V V l % l V B B B B B B V m s X % d = X , t Y X.| | | b.m.C.C.C.C.",
"C.C.C.C.C.C.=.) ) P , X X X X X X = m B B B B B V n = . * s s s s * X & b V B B B B N s = X X X X : r Y X.X.| | | b.C.C.C.C.C.C.",
"C.C.C.C.C.C.C.N.b.) P D S S D y y y } @.B B B m p & X X X X X X X X X X & = n B B B B x r y y y y Y X.X.| | ) =.:.C.C.C.C.C.C.C.",
"C.C.C.C.C.C.C.C.C.B.b. .) ) ) X.X.X. . .` { { } i i U S S S S U U U U S S i > n B B @.{ X.X.+.B.m.| | | | =.s.s.f.f.C.C.C.C.C.C.",
"C.C.C.C.C.C.Q.Q.C.C.V.B.k.| | | | | | |  . .X.N.X.X.X.X.X.X.X.X.X.X.X.X.X.X.T } { { |  .| | ) =.f.b.| k.s.s.f.f.f.f.C.C.C.C.C.C.",
"C.C.C.C.C.Q.Q.Q.Q.C.C.C.C.W.W.x.l.X.X.| | X.B.B. .| | | | X.| | | | | | | | X.X. . .| | | ) ) #.f.f.s.s.f.f.f.f.f.f.C.C.C.C.C.C.",
"C.C.C.Q.Q.Q.Q.Q.Q.Q.Q.Q.Q.Q.Q.W.W.W.W.+.X.B.C.B. .| | ) #.-.) | | | | | | X.N.V.+.X.X.X.@.s.s.s.f.f.f.f.f.f.f.f.f.f.f.f.f.C.C.C.",
"f.f.Q.Q.Q.Q.Q.Q.Q.Q.Q.Q.Q.Q.Q.Q.f.f.f.s.C.C.f.s.) ) ) #.:.) ) ) ) | | ) ) :.f.C.C.C.C.s.s.f.f.f.f.f.f.f.f.f.f.f.f.f.f.f.f.f.f.f."
};
