/* XPM */
static const char *top_right5[] = {
/* columns rows colors chars-per-pixel */
"64 64 183 2 ",
"   c #0B0F2C",
".  c #0E122C",
"X  c #121227",
"o  c #13162B",
"O  c #161C2E",
"+  c #191F2E",
"@  c #171F30",
"#  c #1D242E",
"$  c #172031",
"%  c #192333",
"&  c #1A2837",
"*  c #17283B",
"=  c #1B2C3A",
"-  c #1E323E",
";  c #21292F",
":  c #212930",
">  c #2B3533",
",  c #2C3B37",
"<  c #303731",
"1  c #323D35",
"2  c #344335",
"3  c #384235",
"4  c #3D4A37",
"5  c #3F4239",
"6  c #424A38",
"7  c #435339",
"8  c #465A3A",
"9  c #4C5C3B",
"0  c #57593F",
"q  c #4D633B",
"w  c #53633C",
"e  c #57693D",
"r  c #5C6C3E",
"t  c #5E713F",
"y  c #5E793F",
"u  c #63753F",
"i  c #1F3541",
"p  c #1F3A46",
"a  c #213A44",
"s  c #213E48",
"d  c #22424B",
"f  c #26484E",
"g  c #274C51",
"h  c #284F53",
"j  c #295255",
"k  c #265259",
"l  c #2B5659",
"z  c #2C5B5C",
"x  c #33635E",
"c  c #2E6262",
"v  c #306664",
"b  c #316967",
"n  c #326C69",
"m  c #34726D",
"M  c #3F7E6E",
"N  c #2E7575",
"B  c #357671",
"V  c #377A73",
"C  c #397C73",
"Z  c #405C43",
"A  c #5A5C40",
"S  c #4B6847",
"D  c #4E6B4B",
"F  c #5E6041",
"G  c #5E7940",
"H  c #416B59",
"J  c #46735C",
"K  c #4E7D5A",
"L  c #567750",
"P  c #507E5D",
"I  c #636542",
"U  c #627540",
"Y  c #667B41",
"T  c #6B7C41",
"R  c #7B7A48",
"E  c #4F7B65",
"W  c #407F6E",
"Q  c #517161",
"!  c #597D68",
"~  c #407F73",
"^  c #398077",
"/  c #398178",
"(  c #5E8354",
")  c #56865D",
"_  c #5B8E5D",
"`  c #5F905A",
"'  c #6D8D43",
"]  c #6A8548",
"[  c #6B8A4E",
"{  c #778F45",
"}  c #788F44",
"|  c #739444",
" . c #799145",
".. c #799C46",
"X. c #749C4C",
"o. c #789E4A",
"O. c #648954",
"+. c #658D58",
"@. c #659456",
"#. c #6A9653",
"$. c #6E9851",
"%. c #619159",
"&. c #6A935B",
"*. c #679858",
"=. c #6E9A5F",
"-. c #739D5E",
";. c #789F59",
":. c #7DA147",
">. c #7BA148",
",. c #7DA259",
"<. c #4B8566",
"1. c #44826D",
"2. c #4B856C",
"3. c #4F8B6D",
"4. c #528963",
"5. c #598E66",
"6. c #538A6A",
"7. c #5A9066",
"8. c #448272",
"9. c #578C70",
"0. c #629463",
"q. c #6C9E65",
"w. c #679568",
"e. c #749D6E",
"r. c #658E73",
"t. c #659470",
"y. c #6FA165",
"u. c #75A462",
"i. c #79A863",
"p. c #85844B",
"a. c #8E8D4E",
"s. c #918F4E",
"d. c #839C48",
"f. c #93914F",
"g. c #809D50",
"h. c #9C9951",
"j. c #81A346",
"k. c #83A548",
"l. c #8AA349",
"z. c #83A848",
"x. c #8CAA49",
"c. c #91A549",
"v. c #92AD4A",
"b. c #96B14B",
"n. c #9CB44C",
"m. c #9BB94E",
"M. c #85A756",
"N. c #86AB56",
"B. c #8AAC55",
"V. c #80A458",
"C. c #8BAE58",
"Z. c #93AF51",
"A. c #8FB253",
"S. c #93B351",
"D. c #A1B74C",
"F. c #A3B94C",
"G. c #A9BE4D",
"H. c #A7A859",
"J. c #B0AC57",
"K. c #A0B654",
"L. c #A7BA50",
"P. c #ABBD53",
"I. c #B0BF57",
"U. c #BAB55A",
"Y. c #B0BF58",
"T. c #BFBA5B",
"R. c #8DAB6C",
"E. c #98A862",
"W. c #ABBC6A",
"Q. c #B1C057",
"!. c #B4C159",
"~. c #BAC55D",
"^. c #BDC760",
"/. c #BFC761",
"(. c #C1C963",
"). c #C5CB66",
"_. c #C7CC67",
"`. c #C9CD67",
"'. c #CCCF67",
"]. c #C0C869",
"[. c #C8CD68",
"{. c #CED066",
"}. c #47ABA9",
/* pixels */
"}.}.}.}.}.}.}.}.}.}.}.}.}.}.}.}.}.}.}.}.}.}.}.}.}.}.}.O O O O O O O }.}.}.}.}.}.}.}.}.}.}.}.}.}.}.}.}.}.}.}.}.}.}.}.}.}.O O O O ",
"}.}.}.}.}.}.}.O O O O O O }.}.}.}.}.}.}.}.}.}.}.}.}.O O O O O O O O O }.}.}.}.}.}.}.}.}.}.O O O O O O }.}.}.}.}.}.}.}.O O O O O ",
"}.}.}.}.}.}.O O O O O O O O }.O O O O }.}.}.}.}.}.}.O O O i.i.i.O O O O }.O O O }.}.}.}.O O O O O O O O }.O O O O O O O O T.T.T.",
"}.}.}.}.}.O O O m.m.m.m.O O O O O O O O O }.}.O O O O O i.i.i.i.i.O O O O O O O O O }.O O O T.T.T.O O O O O O O O O O O T.T.T.T.",
"}.}.}.}.}.O O m.m.m.m.m.m.O O O O O O O O O O O O O O O i.i.i.i.i.i.O O O T.T.T.O O O O O T.T.T.T.T.O O O O i.i.i.i.O O T.T.T.T.",
"}.}.}.}.}.O O m.m.m.m.m.m.O O O m.m.m.O O O O O m.m.O O O i.i.i.i.i.O O T.T.T.T.T.O O O T.T.T.T.T.T.O O O i.i.i.i.i.i.O T.T.T.T.",
"}.}.}.}.}.O O m.m.m.m.m.m.m.O m.m.m.m.m.m.O O m.m.m.m.m.O i.i.i.i.O O T.T.T.T.T.T.O O T.T.T.T.T.T.T.O O O i.i.i.i.i.i.O T.T.T.T.",
"}.}.}.}.}.O O O m.m.m.m.m.m.O m.m.m.m.m.m.O O m.m.m.m.m.T.T.T.i.i.O T.T.T.T.T.T.T.O O T.T.T.T.T.T.O O O O O i.i.i.T.T.O T.T.T.T.",
"}.}.}.O O O O O O m.m.m.m.m.m.m.m.m.m.m.m.O O m.m.m.m.T.T.T.T.T.T.T.T.T.T.T.T.T.O O T.T.T.T.T.T.O O T.T.O O O i.T.T.T.T.T.T.T.T.",
"}.}.O O O O O O O O i.i.m.m.m.m.m.m.m.m.m.m.O O m.m.T.T.m.m.T.T.T.T.T.T.T.T.T.T.T.T.T.T.T.T.T.T.T.T.T.T.T.O O O T.T.T.T.T.T.T.T.",
"}.O O O i.i.i.O O O i.i.i.m.m.m.m.m.m.m.m.m.m.m.m.m.T.m.m.m.m.T.T.T.T.T.T.T.T.m.m.m.T.T.T.T.T.m.m.T.T.T.T.m.m.T.T.T.T.T.T.T.T.T.",
"}.O O i.i.i.i.i.i.O i.i.i.i.i.m.m.m.m.m.m.m.m.m.m.m.m.m.m.m.m.m.m.m.m.T.T.T.m.m.m.m.m.T.T.m.m.m.m.m.m.T.m.m.m.m.T.T.T.T.T.T.T.T.",
"}.O O i.i.i.i.i.i.m.m.m.m.m.m.m.m.m.m.m.m.m.m.m.m.m.m.m.m.m.m.m.m.m.m.m.T.T.m.m.m.m.m.T.m.m.m.m.m.m.m.m.m.m.m.m.T.T.T.T.T.T.T.T.",
"}.O O i.i.i.i.i.m.m.m.m.m.m.m.m.m.m.m.m.m.m.m.m.m.m.m.m.m.m.m.m.m.m.m.m.m.m.m.m.m.m.m.T.m.m.m.m.m.m.m.m.m.m.m.m.T.T.T.T.T.m.m.m.",
"}.O O i.i.i.i.i.m.m.m.m.m.m.m.m.m.i.m.m.m.m.m.m.m.m.m.m.m.m.m.m.m.m.m.m.m.m.m.m.m.m.m.m.m.m.m.m.m.m.m.m.m.m.m.m.m.m.m.m.m.m.m.m.",
"}.O O O i.i.i.O m.m.m.m.m.m.m.m.i.i.i.m.i.i.i.i.m.m.m.m.m.m.T.T.T.m.m.m.m.m.m.m.m.m.m.m.m.m.m.m.m.m.m.m.m.m.m.m.m.m.m.m.m.m.m.m.",
"}.}.O O O O O O O i.i.i.i.i.i.i.i.i.i.i.i.i.i.i.i.m.m.m.T.T.T.T.T.T.m.m.m.m.m.m.m.m.m.m.i.i.i.m.m.m.m.m.m.m.m.m.m.m.m.m.m.m.m.m.",
"}.}.}.O O O O O O i.i.i.i.i.i.i.i.i.i.i.i.i.i.i.i.T.T.T.T.T.T.T.T.T.T.T.T.T.i.i.i.m.m.i.i.i.i.i.m.m.m.m.m.m.m.m.m.m.m.m.m.m.m.m.",
"}.}.O O O m.m.m.O O i.m.m.m.m.m.i.i.i.i.i.i.i.i.i.i.i.i.T.T.T.T.T.T.T.T.T.i.i.i.i.i.i.i.m.m.i.i.i.m.m.m.m.m.m.i.i.i.m.m.m.m.m.m.",
"}.}.O O m.m.m.m.m.m.m.m.m.m.m.m.m.i.i.i.m.m.m.i.i.i.i.i.i.i.T.T.T.i.i.i.i.i.m.m.i.i.i.m.m.m.m.i.i.i.m.m.m.m.i.i.i.i.i.m.m.m.i.i.",
"}.}.O O m.m.m.m.m.m.m.m.m.m.m.m.m.i.i.m.m.m.B.C V V V V 5.m.m.m.m.m.7.V V V V V N.S.m.m.S.S.S.S.m.m.m.m.m.i.i.i.i.i.i.i.i.i.i.i.",
"}.}.O O m.m.m.m.m.m.m.m.m.m.m.m.m.m.S.A.S.B.C V 1.1.1.C V 0.m.A.S.0.V V C 1.1.1.C C B.B.C C V 1.u.m.m.m.m.i.i.i.i.i.i.i.i.i.i.i.",
"}.}.}.O O m.m.m.m.m.m.m.m.m.m.m.m.A.1.V V V V 6.n.n.D.M.C 7.q.V V V V C M.D.n.n.6.V V V V 1.1.1.1.u.m.m.i.i.i.i.m.m.m.i.i.i.i.i.",
"}.}.}.O O O O O O O O m.m.m.m.O & b V 1.2.2.1.n.D.D.D.F.,.V V V V V 1.M.F.L.L.D.n.6.V V 6.n.F.N.V 2.y.q.u.i.i.m.m.m.m.m.m.m.m.m.",
"}.}.}.}.O O O O O O O O O O O O v V 2.S.D.b.5.B.D.D.D.F.,.B 8.9.9.~ 0.n.D.^.[.P.D.n.6.W n.D.D.B.2.1.V V 3.q.q.S.m.m.m.m.m.m.m.m.",
"}.}.}.O O O O O T.T.O O O O H.E.2.V Z.F.D.D.S.1.D.P.L.F.,.N e.{.'.R.C ,.F.^.`.`.P.D.n.w.P.P.L.D.F.V.B V V V V 0.S.m.m.m.m.m.m.m.",
"}.}.O O O T.T.T.T.T.T.T.O H.6.V V V ;.n.D.D.b.0.Y.[.(.K.0.~ R.`._.{.t.;.P.(.`.`._.F.P.`.[.[.(.P.F.,.C 5.5.5.1.V w.i.i.i.i.m.m.m.",
"}.O O T.T.T.T.T.T.T.T.T.T.w.V 6.5.C V S.P.P.P.G._._.`.W.t.R.'._._.`.R.N.~.[._._._.!.)._._._.`.^.F.N.;.F.F.F.,.1.6.u.i.i.i.i.i.i.",
"O O T.T.T.T.T.T.T.T.i.i.O.E 6.Z.F.=.C =.(.[.).!._._._.`.'.`._._._._.`.~.^._._._._.[._._._._.`.^.D.F.F.D.D.D.F.0.V E.T.T.T.T.T.T.",
"O O T.T.T.T.O O i.i.i.+., p g.G.F.F.-.e.]._._.[._._._._._._.`._._._.[.[._._._.[._._._._._._.).Q.D.D.D.D.D.D.F.0.V E.T.T.T.T.T.T.",
"O O O T.T.O O m.m.m...2 O o 6 e c.F.F.!.!._.[.[.[._._._.[.(.^.[._.[.~.(.[._._.!.).[.[.[.[.).Q.D.D.F.G.G.F.F.C.H P A.m.m.m.m.m.m.",
"O O O O O O m.m.m...1 o 2 q 8 w c.F.D.D.D.!.!.!.!.[.[.(.!.P.L.^.[.^.L.P.(.`._.!.!.!.!.!.!.I.D.F.G.l.w w } C.H = 4 l.m.m.m.m.m.m.",
"}.O O O O O m.m.m.U o 2 ' k.x.F.F.D.F.D.x.n.D.D.F.!.!.P.n.D.D.L.!.L.n.P.(._._.[.~.!.D.D.D.D.F.l.9 3   . < J d o O 4 l.m.m.m.m.T.",
"}.}.}.O O O O 8 9 1 2 ' :.x.n.D.D.D.x.x.v.D.D.D.D.D.D.D.D.D.D.D.D.D.P.).[._._._.[._.F.D.D.D.F.c.u Y T 7 . * Z 1 o O { m.m.m.T.T.",
"}.}.O O O O O O O o q z.>.b.F.D.D.D.k.v.D.D.D.F.n.x.x.F.D.D.D.D.D.D.~.[._._._.[._.I.F.D.D.D.D.F.F.F.G.c.6 2 | ' > o 5 H.T.T.T.T.",
"}.}.O O O O = c c s ; G k.k.n.F.D.D.k.x.n.F.n.x.k.:.:.x.D.D.D.D.D.D.L.^.[.[.[.Q.P.D.D.D.D.D.D.D.D.D.D.G.r 8 k.k.' > O ..T.T.T.T.",
"}.O O d.O = n C C m a # y :.k.n.F.x.:.:.k.k.k.:.:.:.:.k.F.D.D.D.F.v.b.L.P.P.P.F.D.D.D.D.D.D.D.D.D.D.D.G.r 8 k.:.z.3 o ..m.m.T.m.",
"O O m.d.O i C V V V m c ( :.:.k.k.:.:.:.:.:.:.j.n.n.n.v.x.D.D.F.v.:.v.D.D.D.D.D.D.n.x.n.D.D.D.D.D.D.F.b.| | :.j.9 # O > l.m.m.m.",
"O O m.d.O i C V V V V V %.:.:.:.:.:.:.b.n.:.j.n.D.D.D.D.v.k.k.k.j.:.j.b.D.D.D.D.D.n.j.k.k.x.D.D.D.b.k.j.:.:.:._ m i O O > l.m.m.",
"O O m.d.O i V V l & & S >.:.:.:.:.:.b.D.D.n.n.D.D.D.D.F.b.:.:.>.x.n.x.j.k.n.D.D.D.n.j.j.n.n.D.n.k.j.:.:.:.:.j.4.V m - O O &.i.m.",
"O O O O O O d z $ O 8 ..:.:.:.:.:.:.n.D.D.D.D.D.D.D.D.D.D.n.v.:.v.F.n.x.:.b.D.D.n.k.j.n.D.D.D.n.:.:.:.:.:.:.:.4.V V m = O &.i.i.",
"}.O O O O O @ % o 4 :.:.:.:.:.:.:.:.j.n.n.D.D.D.D.n.D.D.D.D.D.x.x.D.D.D.k.:.n.n.k.:.j.n.D.D.D.b.:.:.:.>.o.>._ V V V C - O &.i.i.",
"}.}.O O O & & % o 7 :.:.:...| X.>.:.:.:.j.n.D.D.n.k.D.D.D.D.F.v.:.v.n.n.k.:.:.:.:.:.:.k.n.n.n.:.:.:.:.%.V C V V V V m = O &.m.m.",
"}.}.O O a B V z $ O 8 | | 4 % v #.:.:.:.:.j.n.n.:.k.n.n.D.D.D.x.:.:.:.:.:.:.:.:.:.:.:.:.:.:.:.:.:.:.:.@.V V V V m m i O : ] m.m.",
"}.O O = V V V C l % O + + % z V V @.X.X.>.:.:.:.:.:.:.k.n.n.x.:.:.:.:.:.:.:.:.:.:.:.:.:.:.:.:.:.:.:.:.:.%.C V m a O O : Y  .v.m.",
"}.O O = V V V V C l = % o g B V V V V 1.o.:.:.:.:.:.:.:.:.:.:.o.o.:.:.:.:.:.:.X.>.:.:.:.:.:.:.:.:.:.:.:.:._ V g $ O O I a.f.f.U.",
"}.O O = n C V V V V C j % o g m V V 1.o.:.:.:.:.:.:.:.:.:.:.o.4.4.o.:.:.:.X.$.W X.:.:.:.>.X.:.:.:.:.:.:.o.4.V C g @ O O R f.h.U.",
"}.O O O = c b C V V V C j - - v C V X.:.:.:.:.>.$.:.:.:.:.o._ <.C 4.$.#.#.1.V 1.o.:.:.:.X.1.:.:.:.:.:.j.` V V V C g % O R f.J.m.",
"}.}.O O O o = b V V V V V C C V V V %.:.:.:.>.%.1.:.:.:.j.%.4.j.@.<.C 1.<.C V X.:.:.:.:.X.1.:.:.:.:.j.>.K n V V V C i O R  .{ x.",
"}.}.O O O O % j C V V V V V V V V V V ` @.@.o.<.1.:.:.:.o.4.4.:.:.j.%.$.j._ C _ >.:.:.@.` M #.:.j.X.*.K p f C V V C i O Y  .{ Q ",
"}.O O O O & j C V V C C V V V V V V V V V 4.>.X.M #.j.o.4.B ) j.:.:.:.#.o.j.1.V _ %.` V V V M %.%.K k p o g C V C c = O Y  .{ ! ",
"}.O O Y O i / V C b h v V V V V V V V V C >.:.X.V M %.4.V V 1.$.:.:.j.<.4.%.W V V V V V V V V V V c d d - i n ^ c & O 5 p.Q Q r.",
"}.O O Y O & z ^ n i X g C V V V V V V V V _ o._ V V V V V V V 1.X.j.#.1.V V V V V V V V V V V V V V C / j o i j = O 6 p.f.f.H.T.",
"}.O O ] 4 O & g i o - v V V V V V V V V V V 4.V V V V V V V V V 1._ 1.V V V V V V V V V V V C V V V C b - O O O 5 0 p.f.s.s.U.T.",
"}.O O O { 4 O O O O g / V V V V C V V V V V V V V V V V V V V V V V V V V V V V V V V V V m j C V C b - o 1 F A p. .} { s.H.T.T.",
"}.}.O O O O w w w 2 = c C C C C h n V V V V V V V V V C C V V V V C l c V V V V V V V V V n % h C b - O O 0 h.f.} { { { l.T.T.T.",
"}.}.O O O l. . ...9 O = s s s s % b C V V V V V V C n a j C C C C l % z C V V V V V V C m a O % s - O 1 e Y  .{ { { l.x.m.m.m.m.",
"}.}.O O m.m.&.( ( L , O O O O O O - m V V V V V C n - o & a a a a & O = b C V V V V B a - O O O O > r Y  . .{ { { l.m.m.m.m.m.m.",
"}.O O O m.m.m.v.l.( L S D D S t t t O.O.V V V m i = O O O O O O O O O O = i n V V V V x r t t t t Y  . .{ { ( &.-.m.m.m.m.m.m.m.",
"O O O O O m.m.m.m.b.l.} ( ( (  . . .} } ) [ [ [ u u U D D D D U U U U D D u , n V V O.[  . ...b.x.{ { { { &.u.u.i.i.m.m.m.m.m.m.",
"O O m.m.m.m.m.m.m.m.b.b.d.{ { { { { { { } }  .v. . . . . . . . . . . . . . .T ] [ [ { } { { ( &.i.l.{ d.u.u.i.i.i.i.m.m.m.m.m.m.",
"O m.m.m.m.m.m.T.T.T.T.m.m.U.U.h.f. . .{ {  .b.b.{ { { { {  .{ { { { { { { {  . .} } { { { ( ( +.i.i.u.u.i.i.i.i.i.i.m.m.m.m.m.m.",
"O m.m.m.m.m.m.m.T.T.T.T.T.T.T.U.U.U.U... .b.m.b.} { { ( +.=.( { { { { { {  .v.b... . . .O.u.u.u.i.i.i.i.i.i.i.i.i.i.i.i.i.m.m.m.",
"O m.m.m.m.m.m.m.T.T.T.T.T.T.T.T.i.i.i.u.m.m.i.u.( ( ( +.-.( ( ( ( { { ( ( -.i.m.m.m.m.u.u.i.i.i.i.i.i.i.i.i.i.i.i.i.i.i.i.i.i.i."
};
