/* XPM */
static const char *top_right8[] = {
/* columns rows colors chars-per-pixel */
"64 64 187 2 ",
"   c #0D112C",
".  c #13162B",
"X  c #161C2E",
"o  c #181E2E",
"O  c #121227",
"+  c #171E30",
"@  c #1B222F",
"#  c #172031",
"$  c #192333",
"%  c #1A2837",
"&  c #1B2C3A",
"*  c #1E323E",
"=  c #21292F",
"-  c #202830",
";  c #2B3432",
":  c #2C3936",
">  c #333E35",
",  c #2F403B",
"<  c #364235",
"1  c #3C4B37",
"2  c #3E4139",
"3  c #3A4636",
"4  c #424738",
"5  c #405238",
"6  c #49563A",
"7  c #465A3A",
"8  c #4B5C3A",
"9  c #4C613B",
"0  c #53633C",
"q  c #5B6D3E",
"w  c #5E713F",
"e  c #5E793F",
"r  c #63743F",
"t  c #1F3541",
"y  c #213B45",
"u  c #213E48",
"i  c #26484E",
"p  c #24434A",
"a  c #274D52",
"s  c #284E53",
"d  c #295256",
"f  c #2C5B5C",
"g  c #2B5759",
"h  c #3E5543",
"j  c #33635E",
"k  c #2A5E61",
"l  c #2E6161",
"z  c #2F6868",
"x  c #306764",
"c  c #316966",
"v  c #326C69",
"b  c #34726D",
"n  c #3E7E6F",
"m  c #347772",
"M  c #377A73",
"N  c #397C73",
"B  c #35777B",
"V  c #2E7575",
"C  c #5D5E41",
"Z  c #4C684A",
"A  c #4B6847",
"S  c #5E7940",
"D  c #476358",
"F  c #49775A",
"G  c #567750",
"H  c #606141",
"J  c #657A41",
"K  c #6A7B41",
"L  c #7B7A48",
"P  c #407B69",
"I  c #517261",
"U  c #587C68",
"Y  c #407F72",
"T  c #398178",
"R  c #398077",
"E  c #5E8354",
"W  c #57815A",
"Q  c #578C5F",
"!  c #5B8E5C",
"~  c #5F905A",
"^  c #6E8443",
"/  c #6E8D43",
"(  c #6B8B4E",
")  c #67864D",
"_  c #778E45",
"`  c #788F44",
"'  c #739445",
"]  c #799145",
"[  c #749C4C",
"{  c #799F4A",
"}  c #799C46",
"|  c #648955",
" . c #668D59",
".. c #608555",
"X. c #669455",
"o. c #699654",
"O. c #6E9950",
"+. c #629259",
"@. c #6A945B",
"#. c #6D995F",
"$. c #729C5D",
"%. c #7B9850",
"&. c #7DA147",
"*. c #7CA148",
"=. c #79A15B",
"-. c #4D8665",
";. c #44826D",
":. c #49856D",
">. c #4E8A6C",
",. c #528963",
"<. c #588D67",
"1. c #538B69",
"2. c #56896E",
"3. c #5C9165",
"4. c #468471",
"5. c #578C70",
"6. c #5D8C75",
"7. c #629463",
"8. c #689661",
"9. c #6C9C63",
"0. c #68956C",
"q. c #719B6F",
"w. c #608E75",
"e. c #679175",
"r. c #6FA166",
"t. c #75A462",
"y. c #78A763",
"u. c #79A863",
"i. c #85844B",
"p. c #918F4E",
"a. c #839C48",
"s. c #92914F",
"d. c #9D9A52",
"f. c #81A346",
"g. c #84A548",
"h. c #8AA349",
"j. c #83A949",
"k. c #8CAA49",
"l. c #90A448",
"z. c #92AD4A",
"x. c #96B14B",
"c. c #9BB54C",
"v. c #9BB94E",
"b. c #84A657",
"n. c #86AB56",
"m. c #8CAD54",
"M. c #83A658",
"N. c #91AE52",
"B. c #8FB252",
"V. c #92B351",
"C. c #A1B74C",
"Z. c #A3B94C",
"A. c #A9A555",
"S. c #A7BA50",
"D. c #ABBD53",
"F. c #A6B459",
"G. c #BAB55A",
"H. c #BFBA5B",
"J. c #B1B45D",
"K. c #8CAA6C",
"L. c #8FA363",
"P. c #91AD6B",
"I. c #AFBE6A",
"U. c #AAC04C",
"Y. c #B2C057",
"T. c #B3C159",
"R. c #BAC55D",
"E. c #BEC761",
"W. c #BEC765",
"Q. c #C1C963",
"!. c #C5CB66",
"~. c #C7CC67",
"^. c #C6CC67",
"/. c #C7CC67",
"(. c #C9CD67",
"). c #CCCF67",
"_. c #C8CD68",
"`. c #C8CD68",
"'. c #CACE69",
"]. c #C8CD68",
"[. c #CED066",
"{. c #3F9394",
"}. c #3A8688",
"|. c #45A6A5",
" X c #46A9A7",
".X c #47ABA9",
"XX c #47ABA9",
/* pixels */
"X X X .X.X.X.X.X.X.X.X.X.X.X.X.X.X.XX X X X .X.X.X.X.X.X.X.X.XX X X X X X X .X.X.X.X.X.X.X.X.X.X.X.X.X.X.X.X.X.X.X.X.X.X.X.X.X.X",
"X X X X X .X.X.XX X X X X X .X.X.XX X X X X X .X.X.X.X.X.X.XX X X X X X X X X .X.X.X.X.X.X.X.X.X.X.XX X X X .X.X.X.X.X.X.X.X.X.X",
"H.H.H.X X X .XX X X X X X X X .XX X X v.v.X X .XX X X X X .XX X X H.H.H.H.X X .X.X.X.X.X.X.X.X.XX X X X X X X X .X.X.X.X.X.X.X.X",
"H.H.H.H.X X X X X X H.H.H.H.X X X X v.v.v.v.X X X X X X X X X X H.H.H.H.H.H.X X .X.X.X.X.X.X.XX X X X v.v.v.X X X .X.X.X.X.X.X.X",
"H.H.H.H.X X X X X H.H.H.H.H.H.X X X v.v.v.v.v.X X X u.u.X X X X H.H.H.H.H.H.X X X X X X X .X.XX X X v.v.v.v.v.X X X .X.X.X.X.X.X",
"v.v.v.H.H.X X X X H.H.H.H.H.H.H.X X v.v.v.v.v.X X u.u.u.u.X X X H.H.H.H.H.X X X X X X X X X .XX X u.v.v.v.v.v.v.X X .X.X.X.X.X.X",
"v.v.v.v.v.v.H.X X H.H.H.H.H.H.H.H.X X v.v.v.v.v.X u.u.u.H.H.X X H.H.H.H.H.X X H.H.H.H.H.X X X X X v.v.v.v.v.v.v.X X .X.X.X.X.X.X",
"v.v.v.v.v.v.v.v.X X X H.v.v.v.v.H.v.X v.v.v.v.v.u.u.u.H.H.H.H.X H.H.H.H.X X H.H.H.H.H.H.H.X X u.u.v.v.v.v.v.v.v.X X .X.X.X.X.X.X",
"H.H.v.v.v.v.v.v.v.H.H.H.v.v.v.v.v.v.v.v.v.v.v.v.v.u.u.H.H.H.H.X H.H.H.H.X H.H.H.H.H.H.H.H.X X u.u.v.v.v.v.v.v.v.X X .X.X.X.X.X.X",
"H.H.H.v.v.v.v.v.v.v.v.v.v.v.v.v.v.v.v.v.v.v.v.v.v.v.H.H.v.v.H.H.H.H.H.H.H.H.H.H.H.H.H.H.H.X X u.u.v.v.v.v.v.X X X X X .X.X.X.X.X",
"H.H.H.v.v.v.H.H.v.v.v.v.v.v.v.v.v.v.v.v.v.v.v.v.v.v.H.v.v.v.v.H.H.H.H.H.H.H.H.v.v.v.H.X X X u.u.u.u.v.v.X X X X X X X X .X.X.X.X",
"H.H.H.v.v.H.H.H.H.H.v.v.v.v.v.v.v.v.v.v.v.v.v.v.v.v.v.v.v.v.v.v.v.v.v.H.H.H.v.v.v.v.X X X X u.u.u.u.u.v.X X v.v.v.v.X X X .X.X.X",
"H.H.H.H.H.H.H.H.H.H.H.H.H.H.H.H.H.H.H.v.v.v.v.v.v.v.v.v.v.v.v.v.v.v.v.v.H.H.v.v.v.v.X v.v.v.u.u.u.u.u.v.v.v.v.v.v.v.v.X X .X.X.X",
"H.H.H.H.H.H.H.H.H.v.v.v.v.v.v.v.v.v.v.v.v.v.v.v.v.v.v.v.v.v.v.v.v.v.v.v.v.v.v.v.v.v.v.v.v.v.v.u.u.u.u.v.v.v.v.v.v.v.v.X X .X.X.X",
"v.v.v.v.v.v.v.v.v.v.v.v.u.u.u.u.u.u.v.v.v.v.v.v.v.v.v.v.v.v.v.v.v.v.v.v.v.v.v.v.v.v.v.u.u.u.u.u.u.v.v.v.v.v.v.v.v.v.v.X X .X.X.X",
"v.v.v.v.v.v.v.v.v.v.u.u.u.u.u.u.u.u.u.v.u.u.u.u.v.v.v.v.v.v.H.H.H.v.v.v.v.v.v.v.v.v.v.u.u.u.u.u.u.v.v.v.X X v.v.v.v.X X X .X.X.X",
"v.v.v.v.v.v.v.v.u.u.u.u.u.u.u.u.u.u.u.u.u.u.u.u.u.v.v.v.H.H.H.H.H.H.v.v.v.v.v.v.v.v.v.v.u.u.u.u.v.v.v.v.v.v.X X X X X X .X.X.X.X",
"v.v.v.v.v.v.v.u.u.u.u.u.u.u.u.u.u.u.u.u.u.u.u.u.u.H.H.H.H.H.H.H.H.H.H.H.H.H.u.u.u.v.v.u.u.u.u.u.v.v.v.v.v.v.u.X X X X X .X.X.X.X",
"v.v.v.v.v.u.u.u.u.u.u.v.v.v.v.v.u.u.u.u.u.u.u.u.u.u.u.u.H.H.H.H.H.H.H.H.H.u.u.u.u.u.u.u.v.v.u.u.u.v.v.v.v.v.v.v.X X .X.X.X.X.X.X",
"v.v.v.u.u.u.u.u.u.u.v.v.v.v.v.v.v.u.u.u.v.v.v.u.u.u.u.u.u.u.H.H.H.u.u.u.u.u.v.v.u.u.u.v.v.v.v.u.u.v.v.v.v.v.v.v.X X .X.X.X.X.X.X",
"u.v.v.v.v.v.v.v.v.v.v.v.v.v.v.v.v.u.u.v.v.v.m.N M M M M <.v.v.v.v.v.3.M M M M M n.V.v.v.V.V.V.t.u.u.v.v.v.v.v.X X X X .X.X.X.X.X",
"u.u.u.u.v.v.v.v.v.v.v.v.v.v.v.v.v.v.V.B.V.m.N M ;.;.;.N M 7.v.B.V.7.M M Y ;.;.;.N N m.m.N N M :.t.u.u.u.v.v.v.u.X X X .X.X.X.X.X",
"v.v.v.v.v.v.v.v.v.v.v.v.v.v.v.v.v.B.:.M M M M 1.c.c.C.b.N 3.9.M M M M N b.C.c.c.1.M M M M ;.;.;.:.t.u.u.u.u.u.u.u.X X .X.X.X.X.X",
"v.v.v.v.v.v.v.v.e.e.e.e.e.v.v.e.w.N M :.:.:.;.c.C.C.C.Z.=.m M M M M Y b.Z.S.S.Z.c.1.M M 1.c.Z.n.M :.r.9.t.u.u.u.u.X X X .X.X.X.X",
"v.v.v.v.v.v.v.e.e.e.e.e.e.e.e.w.Y M :.V.C.x.:.c.C.C.C.c.#.Y 5.5.4.m =.Z.S.Q.(.S.C.c.N n c.C.Z.m.;.M M M >.9.t.u.X X X X X X .X.X",
"v.v.v.v.v.e.e.e.H.H.H.H.e.6.6.2.M M N.Z.C.x.;.c.D.S.Z.b.V q.[.).P.Y $.Z.R._.~.D.C.c.0.0.D.S.C.Z.b.M M M M M 7.V.v.H.H.H.X X X .X",
"v.v.e.e.e.e.H.H.H.H.H.H.F.2.M M M M N.C.C.x.7.D.(.Q.S.8.N K.(.~.[.q.$.D.Q.(.~.~.S.D.(.(._.Q.D.Z.M.N <.<.<.;.M =.H.H.H.H.H.X X .X",
"H.e.e.H.H.H.H.H.H.H.H.H.0.M >.3.N M N.D.D.D.Z.~.~.(.I.e.K.).~.~.(.K.b.R._.~.~.~.T.^.~.~.~.~.Q.Z.m.$.Z.Z.Z.M.;.>.J.H.H.H.H.X X .X",
"H.H.H.H.H.H.H.H.H.H.u.| P 1.N.Z.$.N 8.W._.~.T.~.~.~.(.).(.~.~.~.~.(.R.E.~.~.~.~._.~.~.~.~.(.Q.C.Z.Z.C.C.C.Z.8.m L.H.H.H.H.X X .X",
"v.v.v.v.v.v.H.H.u.u. .: t %.U.Z.Z.$.q.W.(.~._.~.~.~.~.~.~._.~.~.~.(._.~.~.~._.~.~.~.~.~.~.^.T.C.C.C.C.C.C.Z.8.m L.H.H.H.X X X .X",
"v.v.v.v.v.v.v.v.v.a.< X   4 q h.Z.Z.T.T.~._._._.~.~.~._.Q.R._.~._.E.Q._.~.~.R.^._._._._.~.T.C.C.Z.Z.Z.Z.Z.m.>.4.& X X X X X .X.X",
"v.v.v.v.v.v.v.v.a.< . > 9 7 0 h.Z.C.C.C.T.T.T.T._._.Q.T.D.Z.E._.E.S.D.Q.~.~.R.T.T.T.T.T.Y.C.Z.S.l.0 0 ` m.>.k W u.X X X X .X.X.X",
"H.H.H.v.v.v.v.v.J X > / j.k.Z.Z.C.Z.Z.k.c.C.C.Z.Y.T.D.C.C.C.S.T.S.c.D.Q.~.~._.R.T.C.C.C.C.Z.l.8 3     ; F l & >  .u.X X X .X.X.X",
"H.H.H.H.v.g.6 8 < . 7 j.*.z.Z.C.C.k.k.z.C.C.C.C.C.C.C.C.C.C.C.C.C.C.R._.~.~.~._._.Z.C.C.C.Z.z.r K K 6   & & O X < a.v.X X X .X.X",
"H.H.H.H.A.2 X X X . 7 j.*.x.Z.C.C.x.f.c.C.C.C.Z.c.k.k.Z.C.C.C.C.C.C.R._.~.~.~.~.T.Z.C.C.C.C.Z.Z.Z.Z.z.6 . 3 S > . > a.v.X X .X.X",
"v.v.v.A.2 X & l l u = S j.j.c.C.C.Z.g.g.c.Z.c.k.g.*.*.k.C.C.C.C.C.C.S.E._.(.(.Y.C.C.C.C.C.C.C.C.C.C.Z.K   9 j./ : . > g.v.X X .X",
"v.v.v.a.X & v N N b y @ e &.j.c.Z.k.*.*.g.g.g.*.*.*.*.g.Z.C.C.C.Z.z.x.S.D.D.D.C.C.C.C.C.C.C.C.C.C.C.Z.r < ' *.f./ : X ] v.X X .X",
"v.v.v.a.X t N M M N b l E *.*.j.g.*.*.*.*.*.*.f.c.c.c.z.k.C.C.Z.z.*.z.C.C.C.C.C.C.c.k.C.C.C.C.C.C.C.Z.h.' *.*.*.j.3 X ] v.X X .X",
"v.v.v.a.X t N M M M M M +.*.*.*.*.*.*.x.c.f.f.c.C.C.C.C.z.j.j.g.f.*.f.x.C.C.C.C.C.c.f.j.g.k.C.C.C.C.x.f.*.*.*.&.7 @ X ; g.X X .X",
"v.v.v.a.X t M M g % % A *.*.*.*.*.*.x.C.C.c.c.C.C.C.C.Z.x.*.*.*.k.c.k.f.j.c.C.C.C.c.f.f.c.c.C.c.f.f.f.*.*.*.*.! b t X X X X X .X",
"u.u.u.| X X p f # X 7 } *.*.*.*.*.*.c.C.C.C.C.C.C.C.C.C.C.c.z.*.z.Z.C.k.*.x.C.C.c.g.f.c.C.C.C.c.*.*.*.*.*.*.f.,.M b t X X X X .X",
"u.u. .% X X + $ . 5 *.*.*.*.*.*.*.*.f.c.c.C.C.C.C.c.C.C.C.C.C.k.k.C.C.C.g.*.c.c.g.*.f.c.C.C.C.x.*.*.*.*.*.*.*.,.M M m & X X .X.X",
"v.k.- X X % % $ . 1 *.*.*.} ' [ *.*.*.*.f.c.C.C.c.g.C.C.C.C.Z.z.*.z.c.c.g.*.*.*.*.*.*.j.c.c.c.*.*.*.*.*.{ { Q M M M N * X {..X.X",
"v.h.o X y m M f # X 7 ' ' 1 $ x o.*.*.*.*.f.c.c.*.g.c.c.C.C.C.k.*.*.*.*.*.*.*.*.*.*.*.*.*.*.*.*.*.*.*.+.M N M M M M b & X B |..X",
"v.^ o & M M M N g $ X o o $ f M M o.[ [ *.*.*.*.*.*.*.g.c.c.k.*.*.*.*.*.*.*.*.*.*.*.*.*.*.*.*.*.*.*.*.X.N M M M b v * X & B |..X",
"v.^ o & M M M M N g & $ . a m M M M M ;.{ *.*.*.*.*.*.*.*.*.*.*.*.*.*.*.*.*.*.[ *.*.*.*.*.*.*.*.*.*.*.*.+.N M b t X X X B }.}.|.",
"z.^ o & v N M M M M N d $ . a b M M ;.{ *.*.*.*.*.*.*.*.*.*.*.[ { *.*.*.*.*.[ Y [ *.*.*.*.[ *.*.*.*.*.*.f.! M s # X X X X X X  X",
"_ ^ ; X & l c N M M M N d * * x N M [ *.*.*.*.*.O.*.*.*.*.*.{ -.-.{ *.*.*.[ ;.;.{ *.*.*.[ ;.*.*.*.*.*.*.{ ,.M N s $ X X L X X X ",
"I I ^ ; X X & c M M M M M N N M M M +.*.*.*.*.+.;.*.*.*.*.{ ! -.n ,.o.X.X.;.M [ *.*.*.*.[ ;.*.*.*.*.*.f.~ M M M N a $ X L s.X X ",
"U U I D X X $ d N M M M M M M M M M M ~ X.X.{ -.;.*.*.*.f.+.,.f.X.-.n ;.-.N M ! *.*.*.X.~ n o.*.*.*.f.[ F c M M M N t X L s.X X ",
"e.A.s.D X % d N M M N N M M M M M M M M M ,.*.[ n o.f.f.{ -.,.*.*.f.+.[ f.! N M ! +.~ M M M n +.+.+.X.F t i N M M N t X L X X X ",
"G.p.s.L X t T M N c s x M M M M M M M M N *.*.[ M n ~ +.,.m Q f.*.*.f.o.[ f.;.M M M M M M M M M M v s t O s N M N l & X X X X |.",
"H.A.s.L X % f R v t O a N M M M M M M M M ! { Q M M M M M M ;.O.*.*.f.-.-.! n M M M M M M M M M M c p i * * c T l % X X X X X  X",
"H.G.s.i.1 X % a t . * x M M M M M M M M M M ,.M M M M M M M M ;.O.f.o.;.M M M M M M M M M M N M M M N T d O * a & X X X X X X X ",
"H.H.h._ _ 1 X X X X a T M M M M N M M M M M M M M M M M M M M M ;.Q ;.M M M M M M M M M M b d N M M N x * X X X 4 C X ] _ X X X ",
"v.v.v.h._ ^ 0 0 0 < & l N N N N s v M M M M M M M M M N M M M M M M M M M M M M M M M M M v $ s N N c & X < 0 H i.] _ _ h.v.X X ",
"v.v.v.v.k.h.] ] ] 8 X & u u u u $ c N M M M M M M N v s N M M M M N d l M M M M M M M N b y X $ u u & X X 8 | ..E _ h.k.v.v.X X ",
"v.v.v.v.v.v.@.E E G : X X X X X X * b M M M M M N v & $ s N N N N g $ f N M M M M M m y * X X X X X X > q X X X E @.v.v.v.v.X X ",
"v.v.v.v.v.v.v.z.g.E G Z Z Z Z w w w ) | M M M b t & X X $ t t t t % X & x N M M M M M j q w w w w w w K ] ] X X X t.v.v.v.v.X X ",
"v.v.v.v.v.v.v.v.v.x.g.] E E E ] ] ] ` ` W ( ( ) r r J h X X X X X X X X & * * v M M | ( ] ] ] x.k.] ] ] _ @.t.X X X v.v.v.X X X ",
"v.v.v.v.v.v.H.H.v.v.v.x.a._ _ _ _ _ _ _ ` ` ] z.] ] ] _ J J J J J J J J J J J ( ( ( _ ` _ _ E @.y.h._ a.t.t.u.X X X X X X X X .X",
"v.v.v.v.v.H.H.H.H.v.v.v.v.G.G.d.s.] ] _ _ ] x.x._ _ _ _ ] ] ] ] ] ] ] ] ] ] ] ] ` ` _ _ _ E E  .u.y.t.t.u.u.u.X X X X X X X .X.X",
"v.v.v.H.H.H.H.H.H.H.H.H.H.H.H.G.G.G.G.] ] x.v.x._ _ _ E  .#.E _ _ _ _ _ _ ] z.x.] ] ] ] | t.t.t.u.u.u.u.u.u.u.X X u.u.u.X X X .X",
"u.u.H.H.H.H.H.H.H.H.H.H.H.H.H.H.u.u.u.t.v.v.u.t.E E E  .$.E E E E _ _ E E $.u.v.v.v.v.t.t.u.u.u.u.u.u.u.u.u.X X u.u.u.v.v.v.X X "
};
