/* XPM */
static const char *top_right3[] = {
/* columns rows colors chars-per-pixel */
"64 64 178 2 ",
"   c #0D112C",
".  c #121227",
"X  c #12162B",
"o  c #161C2E",
"O  c #181E2E",
"+  c #171F30",
"@  c #1A212F",
"#  c #172031",
"$  c #182233",
"%  c #1B2835",
"&  c #1C2C3A",
"*  c #1E323E",
"=  c #222A2E",
"-  c #222C32",
";  c #282D33",
":  c #263235",
">  c #2B3332",
",  c #2E3B34",
"<  c #333E35",
"1  c #3C3F37",
"2  c #354235",
"3  c #3A4636",
"4  c #3D4437",
"5  c #31413C",
"6  c #3E5038",
"7  c #44473A",
"8  c #415438",
"9  c #495639",
"0  c #4C5D3B",
"q  c #4B603B",
"w  c #54633C",
"e  c #5C6F3F",
"r  c #5E713F",
"t  c #63743F",
"y  c #607B3F",
"u  c #1F3541",
"i  c #1F3845",
"p  c #213B45",
"a  c #24434B",
"s  c #26484E",
"d  c #3E5543",
"f  c #274D52",
"g  c #284E53",
"h  c #295155",
"j  c #2A5659",
"k  c #2C5B5D",
"l  c #33635E",
"z  c #2A5D61",
"x  c #2E6262",
"c  c #316664",
"v  c #316966",
"b  c #326D69",
"n  c #35736E",
"m  c #3E7E6E",
"M  c #347772",
"N  c #377A73",
"B  c #397C74",
"V  c #4A6846",
"C  c #496449",
"Z  c #5E7A40",
"A  c #53734E",
"S  c #49775A",
"D  c #626342",
"F  c #657A40",
"G  c #6A7C41",
"H  c #7B7B49",
"J  c #477F68",
"K  c #517261",
"L  c #577D66",
"P  c #407F71",
"I  c #398178",
"U  c #5E8254",
"Y  c #57815A",
"T  c #578C5F",
"R  c #5B8E5C",
"E  c #5F905A",
"W  c #6D8242",
"Q  c #6D8C43",
"!  c #66864E",
"~  c #6B8B4D",
"^  c #708743",
"/  c #778E45",
"(  c #788F44",
")  c #719244",
"_  c #799145",
"`  c #769845",
"'  c #7A9D46",
"]  c #749C4D",
"[  c #799E4A",
"{  c #608555",
"}  c #648954",
"|  c #668D58",
" . c #669455",
".. c #699654",
"X. c #6E9950",
"o. c #629259",
"O. c #6A935B",
"+. c #719C5E",
"@. c #7DA147",
"#. c #7CA148",
"$. c #7CA259",
"%. c #4D8665",
"&. c #44816D",
"*. c #4B866D",
"=. c #4E896C",
"-. c #528963",
";. c #588D67",
":. c #528B6A",
">. c #598A6D",
",. c #5D9165",
"<. c #5F9669",
"1. c #448272",
"2. c #578C70",
"3. c #649562",
"4. c #689661",
"5. c #6B9A62",
"6. c #63936D",
"7. c #6F9A6F",
"8. c #739C6E",
"9. c #658E73",
"0. c #629270",
"q. c #6FA165",
"w. c #75A462",
"e. c #78A763",
"r. c #79A863",
"t. c #8A884C",
"y. c #918F4E",
"u. c #809947",
"i. c #839D48",
"p. c #92914F",
"a. c #9D9A51",
"s. c #A39D51",
"d. c #81A345",
"f. c #84A548",
"g. c #8AA349",
"h. c #84A948",
"j. c #8CAA49",
"k. c #90A448",
"l. c #92AD4A",
"z. c #96B14C",
"x. c #9CB44C",
"c. c #9BB94E",
"v. c #86AA56",
"b. c #8AAC55",
"n. c #81A458",
"m. c #86A858",
"M. c #92AF52",
"N. c #8FB153",
"B. c #93B351",
"V. c #A1B74C",
"C. c #A4B94C",
"Z. c #ACBD4F",
"A. c #A5A254",
"S. c #B0AC57",
"D. c #A2B754",
"F. c #A6BA51",
"G. c #ABBC53",
"H. c #B0BF56",
"J. c #BAB55A",
"K. c #BFBA5B",
"L. c #8FA363",
"P. c #8CAA6C",
"I. c #9CAA61",
"U. c #AFBE6A",
"Y. c #B3C157",
"T. c #B3C159",
"R. c #BAC55D",
"E. c #BDC760",
"W. c #BEC766",
"Q. c #BDC769",
"!. c #C1C963",
"~. c #C5CB66",
"^. c #C7CC67",
"/. c #C9CD67",
"(. c #CCCF67",
"). c #C8CD68",
"_. c #CED066",
"`. c #47ABA9",
/* pixels */
"`.`.`.`.`.`.`.`.`.`.`.`.`.`.`.`.`.`.`.`.`.`.`.`.`.`.`.o o o o o o o `.`.`.`.`.`.`.`.`.`.`.`.`.`.`.`.`.`.`.`.`.`.`.`.`.`.o o o o ",
"`.`.`.`.`.`.`.o o o o o o `.`.`.`.`.`.`.`.`.`.`.`.`.o o o o o o o o o `.`.`.`.`.`.`.`.`.`.o o o o o o `.`.`.`.`.`.`.`.o o o o o ",
"`.`.`.`.`.`.o o o o o o o o `.o o o o `.`.`.`.`.`.`.o o o r.r.r.o o o o `.o o o `.`.`.`.o o o o o o o o `.o o o o o o o o K.K.K.",
"`.`.`.`.`.o o o c.c.c.c.o o o o o o o o o `.`.o o o o o r.r.r.r.r.o o o o o o o o o `.o o o K.K.K.o o o o o o o o o o o K.K.K.K.",
"`.`.`.`.`.o o c.c.c.c.c.c.o o o o o o o o o o o o o o o r.r.r.r.r.r.o o o K.K.K.o o o o o K.K.K.K.K.o o o o r.r.r.r.o o K.K.K.K.",
"`.`.`.`.`.o o c.c.c.c.c.c.o o o c.c.c.o o o o o c.c.o o o r.r.r.r.r.o o K.K.K.K.K.o o o K.K.K.K.K.K.o o o r.r.r.r.r.r.o K.K.K.K.",
"`.`.`.`.`.o o c.c.c.c.c.c.c.o c.c.c.c.c.c.o o c.c.c.c.c.o r.r.r.r.o o K.K.K.K.K.K.o o K.K.K.K.K.K.K.o o o r.r.r.r.r.r.o K.K.K.K.",
"`.`.`.`.`.o o o c.c.c.c.c.c.o c.c.c.c.c.c.o o c.c.c.c.c.K.K.K.r.r.o K.K.K.K.K.K.K.o o K.K.K.K.K.K.o o o o o r.r.r.K.K.o K.K.K.K.",
"`.`.`.o o o o o o c.c.c.c.c.c.c.c.c.c.c.c.o o c.c.c.c.K.K.K.K.K.K.K.K.K.K.K.K.K.o o K.K.K.K.K.K.o o K.K.o o o r.K.K.K.K.K.K.K.K.",
"`.`.o o o o o o o o r.r.c.c.c.c.c.c.c.c.c.c.o o c.c.K.K.c.c.K.K.K.K.K.K.K.K.K.K.K.K.K.K.K.K.K.K.K.K.K.K.K.o o o K.K.K.K.K.K.K.K.",
"`.o o o r.r.r.o o o r.r.r.c.c.c.c.c.c.c.c.c.c.c.c.c.K.c.c.c.c.K.K.K.K.K.K.K.K.c.c.c.K.K.K.K.K.c.c.K.K.K.K.c.c.K.K.K.K.K.K.K.K.K.",
"`.o o r.r.r.r.r.r.o r.r.r.r.r.c.c.c.c.c.c.c.c.c.c.c.c.c.c.c.c.c.c.c.c.K.K.K.c.c.c.c.c.K.K.c.c.c.c.c.c.K.c.c.c.c.K.K.K.K.K.K.K.K.",
"`.o o r.r.r.r.r.r.c.c.c.c.c.c.c.c.c.c.c.c.c.c.c.c.c.c.c.c.c.c.c.c.c.c.c.K.K.c.c.c.c.c.K.c.c.c.c.c.c.c.c.c.c.c.c.K.K.K.K.K.K.K.K.",
"`.o o r.r.r.r.r.c.c.c.c.c.c.c.c.c.c.c.c.c.c.c.c.c.c.c.c.c.c.c.c.c.c.c.c.c.c.c.c.c.c.c.K.c.c.c.c.c.c.c.c.c.c.c.c.K.K.K.K.K.c.c.c.",
"`.o o r.r.r.r.r.c.c.c.c.c.c.c.c.c.r.c.c.c.c.c.c.c.c.c.c.c.c.c.c.c.c.c.c.c.c.c.c.c.c.c.c.c.c.c.c.c.c.c.c.c.c.c.c.c.c.c.c.c.c.c.c.",
"`.o o o r.r.r.o c.c.c.c.c.c.c.c.r.r.r.c.r.r.r.r.c.c.c.c.c.c.K.K.K.c.c.c.c.c.c.c.c.c.c.c.c.c.c.c.c.c.c.c.c.c.c.c.c.c.c.c.c.c.c.c.",
"`.`.o o o o o o o r.r.r.r.r.r.r.r.r.r.r.r.r.r.r.r.c.c.c.K.K.K.K.K.K.c.c.c.c.c.c.c.c.c.c.r.r.r.c.c.c.c.c.c.c.c.c.c.c.c.c.c.c.c.c.",
"`.`.`.o o o o o o r.r.r.r.r.r.r.r.r.r.r.r.r.r.r.r.K.K.K.K.K.K.K.K.K.K.K.K.K.r.r.r.c.c.r.r.r.r.r.c.c.c.c.c.c.c.c.c.c.c.c.c.c.c.c.",
"`.`.o o o c.c.c.o o r.c.c.c.c.c.r.r.r.r.r.r.r.r.r.r.r.r.K.K.K.K.K.K.K.K.K.r.r.r.r.r.r.r.c.c.r.r.r.c.c.c.c.c.c.r.r.r.c.c.c.c.c.c.",
"`.`.o o c.c.c.c.c.c.c.c.c.c.c.c.c.r.r.r.c.c.c.r.r.r.r.r.r.r.K.K.K.r.r.r.r.r.c.c.r.r.r.c.c.c.c.r.r.r.c.c.c.c.r.r.r.r.r.c.c.c.r.r.",
"`.`.o o c.c.c.c.c.c.c.c.c.c.c.c.c.r.r.c.c.c.c.v.N N N N N ,.c.c.c.c.x.;.N N N N B b.B.c.c.B.B.B.B.c.c.c.c.r.r.r.r.r.r.r.r.r.r.r.",
"`.`.o o c.c.c.c.c.c.c.c.c.c.c.c.c.c.c.B.N.B.v.B N &.&.&.B N 3.c.N.B.,.N N P &.&.&.B &.b.v.B B N *.B.c.c.c.r.r.r.r.r.r.r.r.r.r.r.",
"`.`.`.o o c.c.c.c.c.c.c.c.c.c.c.c.c.N.&.N N N N ;.x.x.V.n.B ,.4.N N N N P v.x.x.x.=.N N N N &.&.&.*.B.c.r.r.r.r.c.c.c.r.r.r.r.r.",
"`.`.`.o o o o o o o o c.c.c.c.o o & &.N *.*.&.&.x.V.V.V.C.$.M N N N N &.v.V.F.G.V.x.:.N N ;.x.V.v.&.*.q.5.w.r.c.c.c.c.c.c.c.c.c.",
"`.`.`.`.o o o o o o o o o o o o & b N =.x.V.B.&.x.V.V.V.x.4.P 2.2.1.M $.V.F.!.^.F.V.x.B &.x.V.V.C.n.N N N :.w.c.c.c.c.c.c.c.c.c.",
"`.`.`.o o o o o K.K.o o o & I.I.*.N :.x.V.x.$.,.G.G.V.x.4.B P.(._.8.&.v.G.!./.^.F.V.D.6.6.F.V.V.x.4.M N N N 3.B.c.c.c.c.c.c.c.c.",
"`.`.o o o K.K.K.K.K.K.K.& >.N N N N M.V.V.x.3.G.).!.D.3.B P.(.^.(.7.+.Z.!.).^.^.C.G.~././.~.G.V.n.B ;.;.;.&.N <.r.r.r.r.r.c.c.c.",
"`.o o K.K.K.K.K.K.K.K.s.L N =.,.B N M.G.G.G.C.^.^./.U.0.P.(.^.^./.P.m.R.).^.^.^.T.~.^.^.^./.!.V.b.+.C.C.C.n.&.=.w.r.r.r.r.r.r.r.",
"o o K.K.K.K.K.K.K.K.O.5 p J B.C.+.B 4.W.).^.T.^.^.^./.(./.^.^.^.^./.R.E.^.^.^.^.).^.^.^.^./.!.V.V.C.V.V.V.C.4.M L.K.K.K.K.K.K.K.",
"o o K.K.K.K.o o r.O.5 o   9 l.C.C.+.8.Q./.^.).^.^.^.^.^./.).^.^.^./.).^.^.^.).^.^.^.^.^./.~.T.V.V.V.V.V.V.C.4.M L.K.K.K.K.K.K.K.",
"o o o K.K.o o c.i.3 X , q - 4 g.V.C.T.T.^.).).).^.^.^.).!.R.).^.).E.!.).^.^.R.~.).).).).^.T.V.V.V.C.C.C.C.v.=.:.b.c.c.c.c.c.c.c.",
"o o o o o o c.c.F o , Q h.r w g.V.V.V.V.T.T.T.T.).).!.T.G.C.E.).E.F.G.!.^.^.R.T.T.T.T.T.Y.V.V.Z.k.w w ( b.=.z ~ c.c.c.c.c.c.c.c.",
"`.o o o o o 0 w 3 X q h.#.j.V.V.V.V.V.V.j.x.V.V.Y.T.G.x.V.V.F.T.G.x.G.!.^.^.).R.T.V.V.V.V.V.k.0 3     > S x & < u.c.c.c.c.c.c.K.",
"`.`.`.o o o o o o X 0 h.#.l.V.V.V.V.j.j.l.V.V.V.V.V.V.V.V.V.V.V.V.V.R.).^.^.^.).^.C.V.V.V.V.l.F G G 9   & & . o 2 i.c.c.c.c.K.K.",
"`.`.o o o o & k k p = F @.l.V.V.V.V.z.d.x.V.V.V.V.x.j.l.V.V.V.V.V.V.G.!.).^.^.^.^.C.V.V.V.V.V.C.C.C.l.9 X 3 Z , X < A.K.K.K.K.K.",
"`.`.o o o & v B B n i = y h.x.V.V.V.V.f.j.V.V.x.j.f.#.#.l.V.V.V.V.V.V.G.!.)./.^.H.V.V.V.V.V.V.V.V.V.C.G   q h.Q , X < g.K.K.K.K.",
"`.o o i.o u B N N B b z U #.h.x.V.V.j.#.#.f.f.f.#.#.#.#.j.V.V.V.V.V.l.z.G.G.G.G.V.V.V.V.V.V.V.V.V.V.C.t 2 ) #.@.Q , o _ c.c.K.c.",
"o o c.i.o u B N N N N N o.#.#.h.f.f.#.#.#.#.#.#.h.x.x.x.l.j.V.V.V.l.#.l.V.V.V.V.V.V.x.j.V.V.V.V.V.V.V.g.) #.#.#.h.2 o _ c.c.c.c.",
"o o c.i.o u N B k & & V #.#.#.#.#.#.#.#.x.x.#.d.x.V.V.V.V.l.h.h.f.#.#.d.x.V.V.V.V.V.x.#.h.f.j.V.V.V.z.f.#.#.#.@.0 @ o > g.c.c.c.",
"o o c.u.o o a k $ o 8 ' #.#.#.#.#.#.#.x.V.V.x.x.V.V.V.V.V.l.#.#.#.j.x.f.d.h.x.V.V.V.x.#.h.x.x.V.x.f.d.#.#.#.#.R n u o o - O.r.c.",
"o o o o o o + $ X 6 ' #.#.#.#.#.#.#.#.x.V.V.V.V.V.V.V.V.V.V.x.j.#.l.V.x.f.#.x.V.V.x.f.d.x.V.V.V.z.#.#.#.#.#.d.-.N n u o o O.r.r.",
"`.o o o o $ $ + X 8 #.#.' ` ` [ [ #.#.d.x.x.V.V.V.V.x.V.V.V.V.V.j.l.V.V.V.f.#.x.x.f.#.d.x.V.V.V.z.#.#.#.#.#.#.-.N N M & o O.r.r.",
"`.`.o o u n M j + o 0 ' 8 @ % c B ] #.#.#.h.x.V.V.z.j.V.V.V.V.V.j.#.l.x.x.f.#.#.#.#.#.#.h.x.x.z.#.#.#.#.[ [ T N N N B * o O.c.c.",
"`.`.o & M N N N j + O @ O $ k N N ..#.#.#.#.f.x.x.#.f.x.V.V.V.x.j.#.#.#.#.#.#.#.#.#.#.#.#.#.#.#.#.#.#.o.N B N N N N n & o W x.c.",
"`.o o & N N N N B j % & + f N N N N ..] #.#.#.#.#.#.#.f.x.x.j.#.#.#.#.#.#.#.#.#.#.#.#.#.#.#.#.#.#.#.#. .B N N N n b * o - W l.c.",
"`.o o & b N N N N N N B f o g M N N &.&.[ #.#.#.#.#.#.#.#.#.#.#.#.#.#.#.#.#.#.] #.#.#.#.#.#.#.#.#.#.#.#.o.B N n u o o ; H p.p.J.",
"`.o o o & c b B N N N N B f & c N N ] #.#.#.#.#.#.#.#.#.#.#.#.] [ #.#.#.#.#.] P ] #.#.#.#.] #.#.#.#.#.#.d.R N g # o o D y.p.a.J.",
"`.o o o o o & b N N N N N N N N N N ] #.#.#.#.#.X.#.#.#.#.#.[ %.%.[ #.#.#.] P &.[ #.#.#.] &.#.#.#.#.#.#.[ -.N B g $ o o H p.S.c.",
"`.`.o o o o $ g B N N N N N N N N N o.#.#.#.#.o.&.#.#.#.#.[ R %.m -... . .&.N ] #.#.#.#.] &.#.#.#.#.#.d.E N N N B f $ o H _ / j.",
"`.`.o o o $ h B N N B N N N N N N N N E  . .[ %.&.#.#.#.d.o.-.d. .%.m &.%.B N R #.#.#. .E m ..#.#.#.d.] S v N N N B u o F _ / K ",
"`.o o o o u I N B b h v N N N N N N N N N -.#.] m ..d.d.[ %.-.#.#.d.o.] f.R B N R o.E N N N m o.o.o. .S u s B N N B u o F _ / L ",
"`.o o F o & x I b p . f B N N N N N N N B #.#.] N m E o.-.M T d.#.#.d...] d.&.N N N N N N N N N N b g u . g B N B x & o H K K 9.",
"`.o o W 3 o % h p X * c B N N N N N N N N R [ T N N N N N N &.X.#.#.d.%.%.R m N N N N N N N N N N v a s * * v I z % o 7 t.p.A.K.",
"`.o o _ ^ 3 o X o o g I N N N N B N N N N N -.N N N N N N N N &.X.f...&.N N N N N N N N N N B N N N B I h . * f & o 7 t.p.y.J.K.",
"`.o o o _ W 0 0 q 1 & c B B N N h b N N N N N N N N N N N N N N &.T &.N N N N N N N N N N n h B N N B c * o o o 7 0 W _ y.A.K.K.",
"`.`.o o o o _ _ _ 0 o & a p v I * v B N N N N N N N N B N N N N N N N N N N N N N N N N N b $ g B B v & o 4 D D W _ / / g.K.K.K.",
"`.`.o o o g./ / _ W 2 o o X * p $ u n N N N N N N B b g B N N N N B h x N N N N N N N B n p o $ p p & o o 9 _ _ _ / g.j.x.c.c.c.",
"`.`.o o c.x.O.U U { A C C C : o o o u n N N N N B b & $ h B B B B j $ k B N N N N N M p * o o o o o o < e G _ / / g.x.c.c.c.c.c.",
"`.o o o c.c.x.l.g.U U { { { A r r r r ! N N N n u & o o $ u u u u % o & c B N N N N N l e r r r r r r G _ _ U O.+.x.c.c.c.c.c.c.",
"o o o o o c.c.c.x.z.i./ U U U _ _ _ _ ( Y ~ ~ ! t t F d o o o o o o o o & * * b N N } ~ _ _ _ z.j._ _ _ / O.w.w.r.r.c.c.c.c.c.c.",
"o o c.c.c.c.c.c.c.c.z.z.i./ ( / / / / / ( ( _ l._ _ _ ^ F F F F F F F F F F F ~ ~ ~ / ( / / U O.e.g./ i.w.w.r.r.r.r.c.c.c.c.c.c.",
"o c.c.c.c.c.c.K.K.K.K.c.x.J.J.a.p._ _ / / _ z.z./ / / / _ _ _ _ _ _ _ _ _ _ _ _ ( ( / / / U U | r.e.w.w.r.r.r.r.r.r.c.c.c.c.c.c.",
"o c.c.c.c.c.c.c.K.K.K.K.K.K.K.J.J.J.J._ _ z.c.z./ / / U | O.U / / / / / / _ l.z._ _ _ _ } w.w.w.r.r.r.r.r.r.r.r.r.r.r.r.r.c.c.c.",
"o c.c.c.c.c.c.c.K.K.K.K.K.K.K.K.r.r.r.w.x.c.r.w.U U U | +.U U U U / / U U +.r.c.x.x.x.w.w.r.r.r.r.r.r.r.r.r.r.r.r.r.r.r.r.r.r.r."
};
