/* XPM */
static const char *top_4[] = {
/* columns rows colors chars-per-pixel */
"64 64 191 2 ",
"   c #0D112C",
".  c #12152B",
"X  c #161C2E",
"o  c #181E2E",
"O  c #171F30",
"+  c #1A212F",
"@  c #172031",
"#  c #192333",
"$  c #1B2835",
"%  c #1C2C3A",
"&  c #1E323E",
"*  c #222A2E",
"=  c #202830",
"-  c #2B3633",
";  c #2E3B34",
":  c #2A383A",
">  c #313C35",
",  c #364236",
"<  c #394535",
"1  c #3E4139",
"2  c #3A4839",
"3  c #3E5038",
"4  c #415438",
"5  c #4A5B3A",
"6  c #495839",
"7  c #4B4E3C",
"8  c #4A603B",
"9  c #53633C",
"0  c #5A6A3D",
"q  c #5E723F",
"w  c #64773F",
"e  c #1E3541",
"r  c #1F3845",
"t  c #213B44",
"y  c #223F48",
"u  c #26484E",
"i  c #23424A",
"p  c #3C5242",
"a  c #274C52",
"s  c #284F53",
"d  c #295255",
"f  c #2A5658",
"g  c #2C5C5D",
"h  c #33635E",
"j  c #2A5D61",
"k  c #2E6262",
"l  c #2F6868",
"z  c #306664",
"x  c #316966",
"c  c #326C69",
"v  c #34726D",
"b  c #3E7E6E",
"n  c #357772",
"m  c #377A73",
"M  c #397C74",
"N  c #2D7475",
"B  c #455345",
"V  c #4A6649",
"C  c #4E6B4C",
"Z  c #4A6846",
"A  c #54734F",
"S  c #476358",
"D  c #416A58",
"F  c #4B7B5B",
"G  c #49735A",
"H  c #5A7D52",
"J  c #646542",
"K  c #657A40",
"L  c #6A7C41",
"P  c #607340",
"I  c #7B7A48",
"U  c #407F6D",
"Y  c #4E7F62",
"T  c #517261",
"R  c #597C68",
"E  c #537E65",
"W  c #407F71",
"Q  c #3A8178",
"!  c #398077",
"~  c #5E8354",
"^  c #568C5F",
"/  c #5B8E5C",
"(  c #55805C",
")  c #5E905A",
"_  c #6E8443",
"`  c #6B8B4D",
"'  c #698946",
"]  c #778E45",
"[  c #788E44",
"{  c #799145",
"}  c #769845",
"|  c #7A9D46",
" . c #749C4D",
".. c #789E4A",
"X. c #719244",
"o. c #608555",
"O. c #648954",
"+. c #668D59",
"@. c #669456",
"#. c #699654",
"$. c #6E9951",
"%. c #629258",
"&. c #6A935B",
"*. c #6E9A5F",
"=. c #729D5E",
"-. c #789F59",
";. c #7DA147",
":. c #7CA148",
">. c #7CA259",
",. c #4E8765",
"<. c #44816D",
"1. c #4A856D",
"2. c #4D886C",
"3. c #4F8864",
"4. c #538A62",
"5. c #598D67",
"6. c #528B6B",
"7. c #5C9165",
"8. c #5F916E",
"9. c #428072",
"0. c #578C70",
"q. c #5F8D75",
"w. c #639463",
"e. c #6B9C64",
"r. c #659667",
"t. c #749D6E",
"y. c #628E74",
"u. c #679175",
"i. c #6A9770",
"p. c #6FA165",
"a. c #76A462",
"s. c #78A763",
"d. c #79A863",
"f. c #86854B",
"g. c #8E8D4E",
"h. c #918F4E",
"j. c #839C48",
"k. c #93914F",
"l. c #9D9A51",
"z. c #A09B51",
"x. c #81A346",
"c. c #84A548",
"v. c #89A449",
"b. c #83A848",
"n. c #8CAA49",
"m. c #90A448",
"M. c #92AD4A",
"N. c #96B14B",
"B. c #9CB54C",
"V. c #9BB94E",
"C. c #86AB56",
"Z. c #8AAB55",
"A. c #81A458",
"S. c #82A557",
"D. c #93AF51",
"F. c #8EB153",
"G. c #93B351",
"H. c #A1B74C",
"J. c #A3B94C",
"K. c #A8BB4F",
"L. c #A6A354",
"P. c #A9A958",
"I. c #B0AC57",
"U. c #A7BA50",
"Y. c #ABBD53",
"T. c #A0B654",
"R. c #BAB55A",
"E. c #BFBA5B",
"W. c #B0BF57",
"Q. c #8DAB6C",
"!. c #98A862",
"~. c #ABBC6A",
"^. c #AAC14D",
"/. c #B1C057",
"(. c #B3C159",
"). c #BAC55D",
"_. c #BEC761",
"`. c #BFC862",
"'. c #C5CB66",
"]. c #C7CC67",
"[. c #C6CC67",
"{. c #C4CB65",
"}. c #C9CD67",
"|. c #CCCF67",
" X c #C8CD68",
".X c #C8CD68",
"XX c #CACE69",
"oX c #C8CD68",
"OX c #C0C869",
"+X c #CED066",
"@X c #47ABA9",
/* pixels */
"X @X@XX X X X X @X@X@X@X@X@X@X@X@X@X@X@X@X@X@X@X@X@X@X@X@X@X@X@X@X@X@XX X X X X X X @XX X X @X@XX X X X X X @X@X@X@X@X@X@X@XX X ",
"X X X X X X X X X @XX X X X @X@X@X@X@X@X@X@X@XX X X X X @X@X@X@X@X@XX X X X X X X X X X X X X X X X X X X X X X X X @X@X@XX X X ",
"X X X X X V.V.X X X X X X X X @XX X X X @X@XX X X X X X X @X@X@X@XX X X X E.E.E.X X X d.d.X X X X E.E.E.X X X X X X X X X X E.E.",
"V.X X X V.V.V.V.X X X X X X X X X X X X X @XX X d.d.d.X X X @X@X@XX X X E.E.E.E.E.X d.d.d.d.X X E.E.E.E.E.X X X d.d.X X X E.E.E.",
"E.X X V.V.V.V.V.X X X E.E.E.X X X V.V.V.X X X d.d.d.d.d.X X X X X X X E.E.E.E.E.E.X d.d.d.d.X X E.E.E.E.E.X X d.d.d.d.X E.E.E.E.",
"E.X X V.V.V.V.V.X X E.E.E.E.E.X V.V.V.V.V.X X d.d.d.d.d.X X X X X X X E.E.E.E.E.E.E.d.d.d.d.E.E.E.E.E.E.E.X X d.d.d.d.X E.E.E.E.",
"E.X V.V.V.V.V.V.X E.E.E.E.E.E.X V.V.V.V.V.V.V.V.V.d.d.X X X E.E.E.X X X E.E.E.E.E.E.E.d.d.E.E.E.E.E.E.E.X X X d.E.E.E.X E.E.E.V.",
"E.V.V.V.V.V.V.X X E.V.V.V.V.E.d.d.V.V.V.V.V.V.V.V.V.d.X X E.E.E.E.E.E.X X E.E.E.E.E.E.d.E.E.E.E.E.E.E.E.X X E.E.E.E.E.E.E.E.V.V.",
"E.E.V.V.V.V.V.X V.V.V.V.V.V.V.d.d.V.V.V.V.V.V.V.V.V.V.X E.E.E.E.E.E.E.E.X E.E.E.E.E.E.E.E.E.E.E.E.E.E.X X E.E.E.E.E.E.E.E.E.V.E.",
"E.E.E.V.V.V.V.V.V.V.V.V.V.V.V.V.d.d.V.V.V.V.V.V.V.V.E.E.V.V.E.E.E.E.E.E.E.E.E.E.E.E.E.E.E.E.E.E.E.E.E.E.E.E.E.E.E.E.E.E.E.E.E.E.",
"E.E.E.V.V.V.E.E.V.V.V.V.V.V.V.V.V.V.V.V.V.V.V.V.V.V.E.V.V.V.V.E.E.E.E.E.E.E.E.V.V.V.E.E.E.E.E.V.V.E.E.E.E.V.V.E.E.E.E.E.E.E.E.E.",
"E.E.E.V.V.E.E.E.E.E.V.V.V.V.V.V.V.V.V.V.V.V.V.V.V.V.V.V.V.V.V.V.V.V.V.E.E.E.V.V.V.V.V.E.E.V.V.V.V.V.V.E.V.V.V.V.E.E.E.E.E.E.E.E.",
"E.E.E.E.E.E.E.E.E.E.E.E.E.E.E.E.E.E.E.V.V.V.V.V.V.V.V.V.V.V.V.V.V.V.V.V.E.E.V.V.V.V.V.E.V.V.V.V.V.V.V.V.V.V.V.V.E.E.E.E.E.E.E.E.",
"E.E.E.E.E.E.E.E.E.V.V.V.V.V.V.V.V.V.V.V.V.V.V.V.V.V.V.V.V.V.V.V.V.V.V.V.V.V.V.V.V.V.V.E.V.V.V.V.V.V.V.V.V.V.V.V.E.E.E.E.E.V.V.V.",
"V.V.V.V.V.V.V.V.V.V.V.V.d.d.d.d.d.d.V.V.V.V.V.V.V.V.V.V.V.V.V.V.V.V.V.V.V.V.V.V.V.V.V.V.V.V.V.V.V.V.V.V.V.V.V.V.V.V.V.V.V.V.V.V.",
"V.V.V.V.V.V.V.V.V.V.d.d.d.d.d.d.d.d.d.V.d.d.d.d.V.V.V.V.V.V.E.E.E.V.V.V.V.V.V.V.V.V.V.V.V.V.V.V.V.V.V.V.V.V.V.V.V.V.V.V.V.V.V.V.",
"V.V.V.V.V.V.V.V.d.d.d.d.d.d.d.d.d.d.d.d.d.d.d.d.d.V.V.V.E.E.E.E.E.E.V.V.V.V.V.V.V.V.V.V.d.d.d.V.V.V.V.V.V.V.V.V.V.V.V.V.V.V.V.V.",
"V.V.V.V.V.V.V.d.d.d.d.d.d.d.d.d.d.d.d.d.d.d.d.d.d.E.E.E.E.E.E.E.E.E.E.E.E.E.d.d.d.V.V.d.d.d.d.d.V.V.V.V.V.V.V.V.V.V.V.V.V.V.V.V.",
"V.V.V.V.V.d.d.d.d.d.d.V.V.V.V.V.d.d.d.d.d.d.d.d.d.d.d.d.E.E.E.E.E.E.E.E.E.d.d.d.d.d.d.d.V.V.d.d.d.V.V.V.V.V.V.d.d.d.V.V.V.V.V.V.",
"V.V.V.d.d.d.d.d.d.d.V.V.V.V.V.V.V.d.d.d.V.V.V.d.d.d.d.d.d.d.E.E.E.d.d.d.d.d.V.V.d.d.d.V.V.V.V.d.d.d.V.V.V.V.d.d.d.d.d.V.V.V.d.d.",
"d.V.V.V.V.V.V.V.V.V.V.V.V.V.V.V.V.d.d.V.V.V.V.C.m m m m m 7.V.V.V.V.B.5.m m m m M Z.G.V.V.G.G.G.G.V.V.V.V.d.d.d.d.d.d.d.d.d.d.d.",
"d.d.d.d.V.V.V.V.V.V.V.V.V.V.V.V.V.V.V.G.F.G.C.M m <.<.<.M m w.V.F.G.7.m m W <.<.<.M <.Z.C.M M m 1.G.V.V.V.d.d.d.d.d.d.d.d.d.d.d.",
"V.V.V.V.V.V.V.V.V.V.V.V.V.V.V.V.V.V.F.<.m m m m 1.B.B.H.A.M 7.e.m m m m W Z.B.B.B.2.m m m m <.<.<.1.G.V.d.d.d.d.V.V.V.d.d.d.d.d.",
"V.V.V.V.V.V.V.V.u.u.u.u.u.V.V.u.u.y.<.m 1.1.1.m 5.H.H.H.J.>.n m m m m <.Z.J.J.U.J.B.6.m m 5.B.J.S.m 2.p.e.a.d.V.V.V.V.V.V.V.V.V.",
"V.V.V.V.V.V.V.u.u.u.u.u.u.u.u.u.y.M m 2.N.H.G.1.H.H.H.H.B.w.9.0.0.9.n >.J.U.{.].U.H.N.M <.B.H.J.Z.<.m m m 6.e.G.V.V.V.V.V.V.V.V.",
"V.V.V.V.V.u.u.u.E.E.E.E.u.u.q.!.2.m m G.H.H.G.<.H.Y.U.J.>.N t.+X|.Q.M >.J.`.}.].Y.H.B.8.r.Y.U.H.J.A.n m m m m w.G.V.V.V.V.V.V.V.",
"V.V.u.u.u.u.E.E.E.E.E.E.E.P.6.m m m m D.H.H.N.w.W. X{.T.w.W Q.}.].+Xi.-.Y.{.].].].J.Y.}.}. X{.Y.J.>.M 5.5.5.<.m r.d.d.d.d.V.V.V.",
"E.u.u.E.E.E.E.E.E.E.E.E.z.E m 6.5.M m G.Y.Y.Y.K.].].}.~.u.Q.|.].].}.Q.Z.). X].].].(.'.].].].}.`.J.Z.=.J.J.J.>.<.6.a.d.d.d.d.d.d.",
"E.E.E.E.E.E.E.E.E.E.+.A > y Y D.J.*.M *.{. X'.(.].].].}.|.}.].].].].}.).{.}.].].]. X].].].].}.`.H.J.J.H.H.H.J.w.m !.E.E.E.E.E.E.",
"V.V.V.V.V.V.E.E.d.&., X .   [ ^.J.J.=.t.OX].]. X].].].].].}.}.].].]. X X].].]. X].].].].].].'./.H.H.H.H.H.H.J.w.m !.E.E.E.E.E.E.",
"V.V.V.V.V.V.V.V.V.P . ; 5 5 9 9 m.J.J.(.(.]. X X].].]. X X{.).}.]. X).{. X].].).'. X X X X'./.H.J.K.K.J.J.J.Z.1.6.F.V.V.V.V.V.V.",
"V.V.V.V.V.V.V.V.j., ; ' b.b.K 9 m.J.H.H.H.(.(.(. X X{.(.(.Y./. X`.(.J.). X].].J.Y.(.(.(.(.W.J.K.m.9 9 [ Z.e.D F F.V.V.V.V.V.V.V.",
"E.E.E.V.V.V.V.j., . 8 b.:.n.J.K.J.H.J.H.n.B.H.J./.(.Y.B.H.H.U.(.U.B.Y.{.].].].).(.H.H.H.H.H.m.5 <     - G k % < 9 j.V.V.V.V.V.E.",
"E.E.E.E.V.j.6 , X . 8 b.:.M.J.H.H.H.n.n.M.H.H.H.H.H.H.H.H.H.H.H.H.H.). X].].]. X XJ.H.H.H.J.M.w L L 6   % % . . X , c.V.V.V.E.E.",
"E.E.E.E.L.1 X & g t * K ;.M.J.H.H.H.N.x.B.H.H.J.B.n.M.J.H.H.H.H.H.H.). X].].].].(.J.H.H.H.H.J.J.J.K.M.6 . < q q - . k.E.E.E.E.E.",
"V.V.V.P.1 X % c M v r * q b.B.J.H.H.J.c.B.J.B.n.c.:.:.n.H.H.H.H.H.H.U.`. X}.}./.H.H.H.H.H.H.H.H.H.H.K.L   8 b.b.' - > c.E.E.E.E.",
"V.V.V.j.X % c M m M c j ~ :.b.B.J.H.n.:.c.c.c.:.:.:.:.c.J.H.H.H.J.M.N.U.Y.Y.Y.H.H.H.H.H.H.H.H.H.H.H.K.w , X.:.:.b., X { V.V.E.V.",
"V.V.V.j.X e M m m m m m %.:.:.b.c.c.:.:.:.:.:.x.B.B.B.M.n.H.H.J.M.:.M.H.H.H.H.H.H.B.n.H.H.H.H.H.H.H.J.v.X.:.:.x.5 + X - v.V.V.V.",
"V.V.V.j.X e M M g % % Z :.:.:.:.:.:.:.N.B.x.x.B.H.H.H.H.M.b.b.c.x.:.x.N.H.H.H.H.H.B.x.b.c.n.H.H.H.J.N.x.:.:.:.:.F e X X - v.V.V.",
"V.V.V.j.X e M g @ X 4 | :.:.:.:.:.:.N.H.H.B.B.H.H.H.H.J.N.:.:.:.n.B.n.x.b.B.H.H.H.B.x.x.B.B.H.B.x.x.x.:.:.:.:./ M v & X X &.d.V.",
"d.d.d.O.X O $ @ . 3 | :.:.:.:.:.:.:.B.H.H.H.H.H.H.H.H.H.H.B.M.:.M.H.H.n.:.B.H.H.H.c.x.B.H.H.H.B.:.:.:.:.:.:.x.4.m m v % X &.d.d.",
"d.d.+.$ X X X @ . 4 :.:.| } } ..:.:.x.x.B.B.H.H.H.H.H.H.H.H.H.B.n.M.H.B.B.n.x.B.B.x.:.b.B.H.H.H.M.:.:.:.:.:.:.4.m m M & X &.d.d.",
"V.n.= X X @ t g O X 5 | 4 + $ z $.:.:.:.:.x.B.H.H.N.v.H.H.H.H.J.n.:.M.B.B.c.:.:.:.:.:.:.b.B.B.N.:.:.:.:.....^ m m m n % X &.V.V.",
"V.v.+ X t n n m f O o + o @ g m @.:.:.:.:.:.x.B.B.:.c.B.H.H.H.B.n.:.:.:.:.:.:.:.:.:.:.:.:.:.:.:.:.:.x.%.m M m m v v e X = _ B.V.",
"B._ o % m m m m M f $ % O a m m m #. . .:.:.:.:.:.:.:.c.B.B.n.:.:.:.:.:.:.:.:.:.:.:.:.:.:.:.:.:.:.:.:.@.M m m M y X X = K { M.V.",
"B._ o % m m m m m m m M a X s n m m <.<...:.:.:.:.:.:.:.:.:.:.....:.:.:.:.:.:. .:.:.:.:.:.:.:.:.:.:.:.:.%.M m v e X X J g.k.k.R.",
"M._ o % c M M m m m m m M a % z M m  .:.:.:.:.:. .:.:.:.:.:...3./ x.:.:.:.:. .U  .:.:.:.:. .:.:.:.:.:.:.x./ m a % @ X X I k.l.R.",
"] _ - X % k k x m m m m m m M m m m %.:.:.:.:.%.<.:.:.:.:.../ <./ ..x.:.:. .<.<...:.:.:. .<.:.:.:.:.:.:...4.m m M a @ X I k.I.V.",
"T T _ : X X O s M m m m m m m m m m m %.#.#...1.<.:.:.:.x.%.4.x.^ 3.#.@.@.<.m  .:.:.:.:. .<.:.:.:.:.:.x.) m m m m M e X I { ] n.",
"R R T S X @ d M m m m m m m m m m m m m m 3.:. .U #.:.x...4.4.x.@.3.M <.3.M m / :.:.:.@.) b #.x.:.:.x. .F x m m m M e X K { ] T ",
"u.P.k.S X e M m m M x x m m m m m m m m M :.:. .m b %.%.4.n 4.x.:.x.%. .x.) M m / %.) m m m b %.%.%.@.F e u M m M k % X K { ] R ",
"R.h.k.I X e M m M c % a M m m m m m m m m ) :./ m m m m m m ^ x.:.:.x.#. .x.<.m m m m m m m m m m c s e . s M m k % X 1 f.T T y.",
"E.L.k.I X $ g ! c & % z M m m m m m m m m m ^ m m m m m m m <.$.:.:.x.3.3./ b m m m m m m m m m m x i u & & x ! t . 7 f.k.k.L.E.",
"E.R.k.f.2 X $ a e . s ! m m m m m m m m m m m m m m m m m m m <.$.x.#.<.m m m m m m m m m m M m m m M ! d . & a B 9 f.k.h.h.R.E.",
"E.E.v.] ] 2 X X X X % z M m m m M m m m m m m m m m m M m m m m <.^ <.m m m m m m m m m m v d M m m M z & X X X J { { ] h.P.E.E.",
"V.V.B.v.] _ 9 9 9 , X % i z M M s c m m m m m m m M c d M m m m m m m m m m m m m m m m m c @ s M M x % X 1 J J L { ] ] v.E.E.E.",
"V.V.V.B.n.v.{ { { _ , X . & t t @ x M m m m m m M v & @ d M M M m M d k m m m m m m m M v t X @ t t & X X 6 { { { ] v.n.B.V.V.V.",
"V.V.V.V.V.B.&.~ ~ o.A V V : X X X & t G M m m v t & X X $ t t e g f @ g M m m m m m n t & X X X X X X > q L { ] ] v.B.V.V.V.V.V.",
"V.V.V.V.V.V.B.M.c.~ ~ o.o.A V q q q q ] ( ( O.O.q V C p X X X X $ $ X % z M m m m m m h q q q q q q q L { { ~ &.=.B.V.V.V.V.V.V.",
"V.V.V.V.V.V.V.V.B.N.c.] ~ ~ ~ { { { { ] ~ [ [ [ { { { H C C C K < X X X % & & c m m O.` { { { N.n.{ { { ] &.a.a.d.d.V.V.V.V.V.V.",
"V.V.V.V.V.V.E.E.V.V.B.N.j.] ] ] ] ] ] ] ] ] { M.] ] ] ] { { { { _ K K K K K K ` ` ` ] [ ] ] ~ &.s.v.] j.a.a.d.d.d.d.V.V.V.V.V.V.",
"V.V.V.V.V.E.E.E.E.V.V.V.B.R.R.l.k.{ { ] ] { N.N.] ] ] ] ] { ] ] ] { { { { { { { [ [ ] ] ] ~ ~ +.d.s.a.a.d.d.d.d.d.d.V.V.V.V.V.V.",
"V.V.V.E.E.E.E.E.E.E.E.E.E.E.E.R.R.R.R.{ { N.V.N.[ ] ] ~ +.*.~ ] ] ] ] ] ] { M.N.{ { { { O.a.a.a.d.d.d.d.d.d.d.d.d.d.d.d.d.V.V.V.",
"d.d.E.E.E.E.E.E.E.E.E.E.E.E.E.E.d.d.d.a.B.V.d.a.~ ~ ~ +.=.~ ~ ~ ~ ] ] ~ ~ =.d.V.B.B.B.a.a.d.d.d.d.d.d.d.d.d.d.d.d.d.d.d.d.d.d.d."
};
