/* XPM */
static const char *top_right2[] = {
/* columns rows colors chars-per-pixel */
"64 64 170 2 ",
"   c #0D112C",
".  c #121227",
"X  c #12162B",
"o  c #161C2E",
"O  c #191F2E",
"+  c #171F30",
"@  c #1C232E",
"#  c #172031",
"$  c #182333",
"%  c #1A2837",
"&  c #1B2C3A",
"*  c #1E323E",
"=  c #21292F",
"-  c #242C33",
";  c #2B3332",
":  c #2E3B34",
">  c #2E3D3A",
",  c #333E35",
"<  c #364336",
"1  c #3B4537",
"2  c #3A4636",
"3  c #434739",
"4  c #4A5639",
"5  c #465A3A",
"6  c #4C5D3B",
"7  c #4C613B",
"8  c #53633C",
"9  c #5B6D3E",
"0  c #5E713F",
"q  c #5E793F",
"w  c #63743F",
"e  c #1F3541",
"r  c #203742",
"t  c #213C46",
"y  c #23424A",
"u  c #26484E",
"i  c #3E5543",
"p  c #274D52",
"a  c #284E53",
"s  c #295155",
"d  c #2A5659",
"f  c #2C5C5D",
"g  c #33635E",
"h  c #2A5E61",
"j  c #2E6162",
"k  c #306764",
"l  c #316967",
"z  c #326D69",
"x  c #35736D",
"c  c #3E7E6F",
"v  c #2E7575",
"b  c #357672",
"n  c #377A73",
"m  c #397C73",
"M  c #4B6847",
"N  c #4C684A",
"B  c #5E7940",
"V  c #49775A",
"C  c #567750",
"Z  c #626342",
"A  c #657A40",
"S  c #6A7C41",
"D  c #7B7B49",
"F  c #407B69",
"G  c #517261",
"H  c #597D68",
"J  c #407F72",
"K  c #398178",
"L  c #5E8354",
"P  c #57815A",
"I  c #578C5F",
"U  c #5B8E5C",
"Y  c #5F905A",
"T  c #6D8342",
"R  c #6E8D43",
"E  c #67864D",
"W  c #6B8B4D",
"Q  c #708743",
"!  c #778E45",
"~  c #788F44",
"^  c #739445",
"/  c #799145",
"(  c #799C46",
")  c #749C4C",
"_  c #799F4A",
"`  c #648954",
"'  c #668D59",
"]  c #669455",
"[  c #699654",
"{  c #6E9950",
"}  c #629259",
"|  c #6A935B",
" . c #6D995F",
".. c #7B9850",
"X. c #729C5D",
"o. c #7DA147",
"O. c #7CA148",
"+. c #7BA15A",
"@. c #4D8665",
"#. c #44826D",
"$. c #49856D",
"%. c #4E8A6C",
"&. c #528963",
"*. c #588D67",
"=. c #538B69",
"-. c #56896E",
";. c #5C9165",
":. c #5F9669",
">. c #458272",
",. c #578C70",
"<. c #629463",
"1. c #689661",
"2. c #6C9C63",
"3. c #68956C",
"4. c #719B6F",
"5. c #658E73",
"6. c #629270",
"7. c #6FA166",
"8. c #75A462",
"9. c #78A763",
"0. c #79A863",
"q. c #8A884C",
"w. c #918F4E",
"e. c #829C48",
"r. c #92914F",
"t. c #9D9A51",
"y. c #81A346",
"u. c #84A548",
"i. c #8AA349",
"p. c #83A949",
"a. c #8CAA49",
"s. c #90A448",
"d. c #92AD4A",
"f. c #96B14B",
"g. c #9CB44C",
"h. c #9BB94E",
"j. c #84A657",
"k. c #86AB56",
"l. c #8BAD54",
"z. c #83A658",
"x. c #91AE52",
"c. c #8FB252",
"v. c #93B351",
"b. c #A1B74C",
"n. c #A3B94C",
"m. c #A5A254",
"M. c #B0AC57",
"N. c #A2B754",
"B. c #A7BA50",
"V. c #ABBD53",
"C. c #BAB55A",
"Z. c #BFBA5B",
"A. c #8FA363",
"S. c #8CAA6C",
"D. c #97AC66",
"F. c #AFBE6A",
"G. c #AAC04C",
"H. c #B2C057",
"J. c #B3C159",
"K. c #BAC55D",
"L. c #BDC760",
"P. c #BEC765",
"I. c #C1C963",
"U. c #C6CC67",
"Y. c #C7CC67",
"T. c #C8CC67",
"R. c #CCCF67",
"E. c #C8CD68",
"W. c #CED066",
"Q. c #47ABA9",
/* pixels */
"Q.Q.Q.Q.Q.Q.Q.Q.Q.Q.Q.Q.Q.Q.Q.Q.Q.Q.Q.Q.Q.Q.Q.Q.Q.Q.Q.o o o o o o o Q.Q.Q.Q.Q.Q.Q.Q.Q.Q.Q.Q.Q.Q.Q.Q.Q.Q.Q.Q.Q.Q.Q.Q.Q.Q.o o o o ",
"Q.Q.Q.Q.Q.Q.Q.o o o o o o Q.Q.Q.Q.Q.Q.Q.Q.Q.Q.Q.Q.Q.o o o o o o o o o Q.Q.Q.Q.Q.Q.Q.Q.Q.Q.o o o o o o Q.Q.Q.Q.Q.Q.Q.Q.o o o o o ",
"Q.Q.Q.Q.Q.Q.o o o o o o o o Q.o o o o Q.Q.Q.Q.Q.Q.Q.o o o 0.0.0.o o o o Q.o o o Q.Q.Q.Q.o o o o o o o o Q.o o o o o o o o Z.Z.Z.",
"Q.Q.Q.Q.Q.o o o h.h.h.h.o o o o o o o o o Q.Q.o o o o o 0.0.0.0.0.o o o o o o o o o Q.o o o Z.Z.Z.o o o o o o o o o o o Z.Z.Z.Z.",
"Q.Q.Q.Q.Q.o o h.h.h.h.h.h.o o o o o o o o o o o o o o o 0.0.0.0.0.0.o o o Z.Z.Z.o o o o o Z.Z.Z.Z.Z.o o o o 0.0.0.0.o o Z.Z.Z.Z.",
"Q.Q.Q.Q.Q.o o h.h.h.h.h.h.o o o h.h.h.o o o o o h.h.o o o 0.0.0.0.0.o o Z.Z.Z.Z.Z.o o o Z.Z.Z.Z.Z.Z.o o o 0.0.0.0.0.0.o Z.Z.Z.Z.",
"Q.Q.Q.Q.Q.o o h.h.h.h.h.h.h.o h.h.h.h.h.h.o o h.h.h.h.h.o 0.0.0.0.o o Z.Z.Z.Z.Z.Z.o o Z.Z.Z.Z.Z.Z.Z.o o o 0.0.0.0.0.0.o Z.Z.Z.Z.",
"Q.Q.Q.Q.Q.o o o h.h.h.h.h.h.o h.h.h.h.h.h.o o h.h.h.h.h.Z.Z.Z.0.0.o Z.Z.Z.Z.Z.Z.Z.o o Z.Z.Z.Z.Z.Z.o o o o o 0.0.0.Z.Z.o Z.Z.Z.Z.",
"Q.Q.Q.o o o o o o h.h.h.h.h.h.h.h.h.h.h.h.o o h.h.h.h.Z.Z.Z.Z.Z.Z.Z.Z.Z.Z.Z.Z.Z.o o Z.Z.Z.Z.Z.Z.o o Z.Z.o o o 0.Z.Z.Z.Z.Z.Z.Z.Z.",
"Q.Q.o o o o o o o o 0.0.h.h.h.h.h.h.h.h.h.h.o o h.h.Z.Z.h.h.Z.Z.Z.Z.Z.Z.Z.Z.Z.Z.Z.Z.Z.Z.Z.Z.Z.Z.Z.Z.Z.Z.Z.o o o Z.Z.Z.Z.Z.Z.Z.Z.",
"Q.o o o 0.0.0.o o o 0.0.0.h.h.h.h.h.h.h.h.h.h.h.h.h.Z.h.h.h.h.Z.Z.Z.Z.Z.Z.Z.Z.h.h.h.Z.Z.Z.Z.Z.h.h.Z.Z.Z.Z.h.h.Z.Z.Z.Z.Z.Z.Z.Z.Z.",
"Q.o o 0.0.0.0.0.0.o 0.0.0.0.0.h.h.h.h.h.h.h.h.h.h.h.h.h.h.h.h.h.h.h.h.Z.Z.Z.h.h.h.h.h.Z.Z.h.h.h.h.h.h.Z.h.h.h.h.Z.Z.Z.Z.Z.Z.Z.Z.",
"Q.o o 0.0.0.0.0.0.h.h.h.h.h.h.h.h.h.h.h.h.h.h.h.h.h.h.h.h.h.h.h.h.h.h.h.Z.Z.h.h.h.h.h.Z.h.h.h.h.h.h.h.h.h.h.h.h.Z.Z.Z.Z.Z.Z.Z.Z.",
"Q.o o 0.0.0.0.0.h.h.h.h.h.h.h.h.h.h.h.h.h.h.h.h.h.h.h.h.h.h.h.h.h.h.h.h.h.h.h.h.h.h.h.Z.h.h.h.h.h.h.h.h.h.h.h.h.Z.Z.Z.Z.Z.h.h.h.",
"Q.o o 0.0.0.0.0.h.h.h.h.h.h.h.h.h.0.h.h.h.h.h.h.h.h.h.h.h.h.h.h.h.h.h.h.h.h.h.h.h.h.h.h.h.h.h.h.h.h.h.h.h.h.h.h.h.h.h.h.h.h.h.h.",
"Q.o o o 0.0.0.o h.h.h.h.h.h.h.h.0.0.0.h.0.0.0.0.h.h.h.h.h.h.Z.Z.Z.h.h.h.h.h.h.h.h.h.h.h.h.h.h.h.h.h.h.h.h.h.h.h.h.h.h.h.h.h.h.h.",
"Q.Q.o o o o o o o 0.0.0.0.0.0.0.0.0.0.0.0.0.0.0.0.h.h.h.Z.Z.Z.Z.Z.Z.h.h.h.h.h.h.h.h.h.h.0.0.0.h.h.h.h.h.h.h.h.h.h.h.h.h.h.h.h.h.",
"Q.Q.Q.o o o o o o 0.0.0.0.0.0.0.0.0.0.0.0.0.0.0.0.Z.Z.Z.Z.Z.Z.Z.Z.Z.Z.Z.Z.Z.0.0.0.h.h.0.0.0.0.0.h.h.h.h.h.h.h.h.h.h.h.h.h.h.h.h.",
"Q.Q.o o o h.h.h.o o 0.h.h.h.h.h.0.0.0.0.0.0.0.0.0.0.0.0.Z.Z.Z.Z.Z.Z.Z.Z.Z.0.0.0.0.0.0.0.h.h.0.0.0.h.h.h.h.h.h.0.0.0.h.h.h.h.h.h.",
"Q.Q.o o h.h.h.h.h.h.h.h.h.h.h.h.h.0.0.0.h.h.h.0.0.0.0.0.0.0.Z.Z.Z.0.0.0.0.0.h.h.0.0.0.h.h.h.h.0.0.0.h.h.h.h.0.0.0.0.0.h.h.h.0.0.",
"Q.Q.o o h.h.h.h.h.h.h.h.h.h.h.h.h.0.0.h.h.h.l.m n n n n *.h.h.h.h.h.;.n n n n n k.v.h.h.v.v.v.v.h.h.h.h.h.0.0.0.0.0.0.0.0.0.0.0.",
"Q.Q.o o h.h.h.h.h.h.h.h.h.h.h.h.h.h.v.c.v.l.m n #.#.#.m n <.h.c.v.;.n n J $.#.#.m m l.l.m m n $.8.h.h.h.h.0.0.0.0.0.0.0.0.0.0.0.",
"Q.Q.Q.o o h.h.h.h.h.h.h.h.h.h.h.h.c.$.n n n n =.g.g.b.j.m ;.2.n n n n m j.b.g.g.=.n n n n $.$.#.$.8.h.h.0.0.0.0.h.h.h.0.0.0.0.0.",
"Q.Q.Q.o o o o o o o o h.h.h.h.o % l n $.$.$.#.g.b.b.b.n.+.b n n n n J j.n.B.B.b.g.=.n n =.g.b.k.n $.7.2.8.0.0.h.h.h.h.h.h.h.h.h.",
"Q.Q.Q.Q.o o o o o o o o o o o & l n $.v.b.f.$.g.b.b.b.g. .J ,.,.>.b +.n.B.I.T.B.b.g.m c g.b.n.l.$.n n n %.2.8.h.h.h.h.h.h.h.h.h.",
"Q.Q.Q.o o o o o Z.Z.o o o & D.-.n n x.b.b.f.$.g.V.B.n.j.v 4.W.R.S.J X.n.K.E.Y.V.b.g.6.6.V.B.b.n.j.n n n n n <.v.h.h.h.h.h.h.h.h.",
"Q.Q.o o o Z.Z.Z.Z.Z.Z.Z.& -.n n n n x.b.b.f.<.V.T.I.N.1.m S.T.Y.W.4.X.V.I.T.Y.Y.n.V.T.T.E.I.V.n.z.m *.*.*.$.n :.0.0.0.0.0.h.h.h.",
"Q.o o Z.Z.Z.Z.Z.Z.Z.Z.Z.3.n %.;.m n x.V.V.V.n.Y.Y.T.F.6.S.R.Y.Y.T.S.j.K.E.Y.Y.Y.J.Y.Y.Y.Y.T.I.n.l.X.n.n.n.z.$.%.8.0.0.0.0.0.0.0.",
"o o Z.Z.Z.Z.Z.Z.Z.Z.0.` F =.x.n.X.m 1.P.E.Y.J.Y.Y.Y.T.R.T.Y.Y.Y.Y.T.K.L.Y.Y.Y.Y.T.T.Y.Y.Y.T.I.b.b.n.b.b.b.n.1.b A.Z.Z.Z.Z.Z.Z.Z.",
"o o Z.Z.Z.Z.o o 0.0.' > e ..G.b.n.X.4.P.T.Y.E.Y.Y.Y.Y.Y.Y.E.Y.Y.Y.T.E.Y.Y.Y.E.Y.Y.Y.Y.Y.T.Y.J.b.b.b.b.b.b.n.1.b A.Z.Z.Z.Z.Z.Z.Z.",
"o o o Z.Z.o o h.h.e.< o X 3 9 i.b.n.J.J.Y.E.E.E.Y.Y.Y.E.I.K.E.Y.E.L.I.E.Y.Y.K.Y.E.E.E.E.Y.J.b.b.b.n.n.n.n.l.%.=.l.h.h.h.h.h.h.h.",
"o o o o o o h.h.e.< X , 7 5 8 i.b.b.b.b.J.J.J.J.E.E.I.J.V.n.L.E.L.B.V.I.Y.Y.K.J.J.J.J.J.H.b.b.B.s.8 8 ~ l.%.h W h.h.h.h.h.h.h.h.",
"Q.o o o o o 6 8 2 o , R p.a.b.b.b.b.b.a.g.b.b.b.H.J.V.g.b.b.B.J.B.g.V.I.Y.Y.E.K.J.b.b.b.b.b.s.6 2     ; V j & , e.h.h.h.h.h.h.Z.",
"Q.Q.Q.o o o o o o X 5 p.O.d.b.b.b.a.a.d.b.b.b.b.b.b.b.b.b.b.b.b.b.b.K.E.Y.Y.Y.E.E.n.b.b.b.b.d.w S S 4   & & X o < e.h.h.h.h.Z.Z.",
"Q.Q.o o o o & f y X 5 p.O.f.b.b.b.f.y.g.b.b.b.b.g.a.d.b.b.b.b.b.b.b.K.E.Y.Y.Y.Y.J.b.b.b.b.b.b.n.n.n.d.4 X 2 B : X , m.Z.Z.Z.Z.Z.",
"Q.Q.o o o & l m x t = B p.p.g.b.b.b.u.u.b.b.g.a.u.O.O.a.b.b.b.b.b.b.B.L.E.T.T.H.b.b.b.b.b.b.b.b.b.b.n.S   7 p.R : X , i.Z.Z.Z.Z.",
"Q.o o e.o e m n m x t @ q o.p.g.b.a.O.O.u.u.u.O.O.O.O.u.b.b.b.b.b.d.f.B.V.V.V.b.b.b.b.b.b.b.b.b.b.b.n.w < ^ O.y.R : o / h.h.Z.h.",
"o o h.e.o e m n n m x j L y.O.p.u.O.O.O.O.O.O.y.g.g.g.d.a.b.b.b.d.O.d.b.b.b.b.b.b.g.a.b.b.b.b.b.b.b.b.i.^ O.O.O.p.< o / h.h.h.h.",
"o o h.e.o e n n n n n n } O.O.O.O.O.O.f.g.y.y.g.b.b.b.b.d.p.u.u.y.O.y.f.b.b.b.b.b.g.y.p.u.a.b.b.b.b.f.y.O.O.O.o.5 @ o ; i.h.h.h.",
"o o h.e.o o y m d % % M O.O.O.O.O.O.f.b.b.g.g.b.b.b.b.b.f.O.O.O.a.g.a.y.p.g.b.b.b.g.y.y.g.g.b.g.y.y.y.O.O.O.O.U x e o o -  .0.h.",
"o o o o o o + % $ o 5 ( O.O.O.O.O.O.g.b.b.b.b.b.b.b.b.b.b.g.d.O.d.b.b.a.O.f.b.b.g.u.y.g.b.b.b.g.O.O.O.O.O.O.y.&.n x e o o | 0.0.",
"Q.o o o o $ $ + X 2 O.O.O.O.O.O.O.O.y.g.g.b.b.b.b.g.b.b.b.b.b.a.a.b.b.b.u.O.g.g.u.O.y.g.b.b.b.f.O.O.O.O.O.O.O.&.n n b & o | 0.0.",
"Q.Q.o o e x b d X 2 O.O.O.( ^ ) O.O.O.O.y.g.b.b.g.u.b.b.b.b.b.d.O.d.g.g.u.O.O.O.O.O.O.p.g.g.g.O.O.O.O.O._ _ I n n n m * o | h.h.",
"Q.Q.o & b n m f + o 5 ^ ^ 2 $ k [ O.O.O.O.y.g.g.O.u.g.g.b.b.b.a.O.O.O.O.O.O.O.O.O.O.O.O.O.O.O.O.O.O.O.} n m n n n n x & o T h.h.",
"Q.o o & n n n n f $ o O O $ f n n [ ) ) O.O.O.O.O.O.O.u.g.g.a.O.O.O.O.O.O.O.O.O.O.O.O.O.O.O.O.O.O.O.O.] m n n n x z * o = T d.h.",
"Q.o o & z n n n m d & $ X p b n n n n #._ O.O.O.O.O.O.O.O.O.O.O.O.O.O.O.O.O.O.) O.O.O.O.O.O.O.O.O.O.O.O.} m n x e o o - D r.r.C.",
"Q.o o o & k z m n n m s $ X p x n n #._ O.O.O.O.O.O.O.O.O.O.O.) _ O.O.O.O.O.) J ) O.O.O.O.) O.O.O.O.O.O.y.U n a # o o Z w.r.t.C.",
"Q.o o o o o * z n n n m s * * k m n ) O.O.O.O.O.{ O.O.O.O.O._ @.@._ O.O.O.) #.#._ O.O.O.) #.O.O.O.O.O.O._ &.n m a $ o o D r.M.h.",
"Q.Q.o o o o $ a m n n n n m m n n n } O.O.O.O.} #.O.O.O.O._ U @.c &.[ ] ] #.n ) O.O.O.O.) #.O.O.O.O.O.y.Y n n n m p $ o D / ! a.",
"Q.Q.o o o $ s m n n n n n n n n n n n Y ] ] _ @.#.O.O.O.y.} &.y.] @.c #.@.m n U O.O.O.] Y c [ O.O.O.y.) V l n n n m e o A / ! G ",
"Q.o o o o e K n n n m n n n n n n n n n n &.O.) c [ y.y._ @.&.O.O.y.} ) y.U m n U } Y n n n c } } } ] V e u m n n m e o A / ~ H ",
"Q.o o A o & j m m l a k n n n n n n n n m O.O.) n c Y } &.b I y.O.O.y.[ ) y.#.n n n n n n n n n n z a e X a m n m j & o D G G 5.",
"Q.o o T 2 o % j z e . p m n n n n n n n n U _ I n n n n n n #.{ O.O.y.@.@.U c n n n n n n n n n n l y u * * l K h % o 3 q.r.m.Z.",
"Q.o o / Q 2 o & r X * k n n n n n n n n n n &.n n n n n n n n #.{ y.[ #.n n n n n n n n n n m n n n m K s X * p & o 3 q.r.w.C.Z.",
"Q.o o o / T 6 2 o o a K n n n n m n n n n n n n n n n n n n n n #.I #.n n n n n n n n n n x s m n n m k * o o o 3 6 T / w.m.Z.Z.",
"Q.Q.o o o o / T 8 < & j m m m m a z n n n n n n n n n m n n n n n n n n n n n n n n n n n z $ a m m l & o 2 Z Z T / ! ! i.Z.Z.Z.",
"Q.Q.o o o i.! / / 6 o & t t t t $ l m n n n n n n m z a m n n n n m s j n n n n n n n m x r o $ t t & o o 4 / / / ! i.a.h.h.h.h.",
"Q.Q.o o h.h.| L L C > o o o o o o * x n n n n n m z & $ s m m m m d $ f m n n n n n b t * o o o o o o , 9 S / ! ! i.h.h.h.h.h.h.",
"Q.o o o h.h.h.d.i.L C N N N N 0 0 0 E ` n n n x e & o o $ e e e e % o & k m n n n n n g 9 0 0 0 0 0 0 S / / L | X.h.h.h.h.h.h.h.",
"o o o o o h.h.h.h.f.i./ L L L / / / ~ ~ P W W E w w A i o o o o o o o o & * * z n n ` W / / / f.a./ / / ! | 8.8.0.0.h.h.h.h.h.h.",
"o o h.h.h.h.h.h.h.h.g.f.e.! ! ! ! ! ! ! ~ ~ / d./ / / Q A A A A A A A A A A A W W W ! ~ ! ! L | 9.i.! e.8.8.0.0.0.0.h.h.h.h.h.h.",
"o h.h.h.h.h.h.Z.Z.Z.Z.h.h.C.C.t.r./ / ! ! / f.f.! ! ! ! / / / / / / / / / / / / ~ ~ ! ! ! L L ' 0.9.8.8.0.0.0.0.0.0.h.h.h.h.h.h.",
"o h.h.h.h.h.h.h.Z.Z.Z.Z.Z.Z.Z.C.C.C.C./ / f.h.f.! ! ! L '  .L ! ! ! ! ! ! / d.g./ / / / ` 8.8.8.0.0.0.0.0.0.0.0.0.0.0.0.0.h.h.h.",
"o h.h.h.h.h.h.h.Z.Z.Z.Z.Z.Z.Z.Z.0.0.0.8.h.h.0.8.L L L ' X.L L L L ! ! L L X.0.h.h.h.h.8.8.0.0.0.0.0.0.0.0.0.0.0.0.0.0.0.0.0.0.0."
};
