/* XPM */
static const char *top_right3[] = {
/* columns rows colors chars-per-pixel */
"64 64 188 2 ",
"   c #0D112C",
".  c #12162B",
"X  c #161C2E",
"o  c #181E2E",
"O  c #121227",
"+  c #171F30",
"@  c #1A212F",
"#  c #172031",
"$  c #182233",
"%  c #1B2835",
"&  c #1C2C3A",
"*  c #1E323E",
"=  c #222A2E",
"-  c #202A32",
";  c #2B3332",
":  c #2E3B34",
">  c #263235",
",  c #333E35",
"<  c #3C3F37",
"1  c #354235",
"2  c #3A4736",
"3  c #35443A",
"4  c #3E5038",
"5  c #43463A",
"6  c #415438",
"7  c #4C5C3B",
"8  c #495639",
"9  c #4B603B",
"0  c #54633C",
"q  c #5C6F3F",
"w  c #5E713F",
"e  c #63743F",
"r  c #607B3F",
"t  c #1F3541",
"y  c #1F3845",
"u  c #213B45",
"i  c #26484E",
"p  c #24434B",
"a  c #274D52",
"s  c #284E53",
"d  c #295155",
"f  c #2A5659",
"g  c #2C5B5D",
"h  c #3E5543",
"j  c #33635E",
"k  c #2A5D61",
"l  c #2E6262",
"z  c #2F6868",
"x  c #316664",
"c  c #316966",
"v  c #326D6A",
"b  c #35736E",
"n  c #3E7E6E",
"m  c #347772",
"M  c #377A73",
"N  c #397C74",
"B  c #35777B",
"V  c #5D5E41",
"C  c #496449",
"Z  c #4A6846",
"A  c #5E7A40",
"S  c #53734E",
"D  c #476258",
"F  c #49775A",
"G  c #606141",
"H  c #657A40",
"J  c #6A7B41",
"K  c #7B7A48",
"L  c #477F68",
"P  c #517161",
"I  c #587C68",
"U  c #567E63",
"Y  c #407F71",
"T  c #398077",
"R  c #398178",
"E  c #5E8254",
"W  c #57815A",
"Q  c #578C5F",
"!  c #5B8E5C",
"~  c #5F905A",
"^  c #6D8342",
"/  c #6D8C43",
"(  c #6B8B4E",
")  c #66864E",
"_  c #708643",
"`  c #778E45",
"'  c #788F44",
"]  c #799145",
"[  c #7A9D46",
"{  c #749C4D",
"}  c #799E4A",
"|  c #749545",
" . c #608555",
".. c #638955",
"X. c #668D59",
"o. c #669455",
"O. c #699654",
"+. c #6E9950",
"@. c #629259",
"#. c #6A925B",
"$. c #6F995D",
"%. c #719C5D",
"&. c #7DA147",
"*. c #7CA148",
"=. c #7CA259",
"-. c #73A05D",
";. c #4D8665",
":. c #44816D",
">. c #4B866D",
",. c #4E896C",
"<. c #528963",
"1. c #588D67",
"2. c #538B6A",
"3. c #598A6D",
"4. c #5D9165",
"5. c #468471",
"6. c #578C70",
"7. c #5E8D75",
"8. c #649562",
"9. c #689661",
"0. c #6B9A62",
"q. c #67956E",
"w. c #739C6E",
"e. c #608E75",
"r. c #679175",
"t. c #6FA165",
"y. c #75A462",
"u. c #78A763",
"i. c #79A863",
"p. c #85844B",
"a. c #918F4E",
"s. c #839D48",
"d. c #809947",
"f. c #93914F",
"g. c #9D9A52",
"h. c #A19D52",
"j. c #81A345",
"k. c #84A448",
"l. c #8AA449",
"z. c #84A948",
"x. c #8CAA49",
"c. c #92AD4A",
"v. c #90A448",
"b. c #96B24C",
"n. c #9CB54C",
"m. c #9BB94E",
"M. c #86AA56",
"N. c #8BAC55",
"B. c #81A458",
"V. c #86A858",
"C. c #92AF52",
"Z. c #8FB153",
"A. c #92B351",
"S. c #A1B74C",
"D. c #A4B94C",
"F. c #ACBD4F",
"G. c #AAA655",
"H. c #A6BA51",
"J. c #ABBC53",
"K. c #A6B459",
"L. c #BAB55A",
"P. c #BFBA5B",
"I. c #B1B95A",
"U. c #8DA869",
"Y. c #9EAA61",
"T. c #AFBE6A",
"R. c #B3C157",
"E. c #B3C159",
"W. c #BAC55D",
"Q. c #BEC761",
"!. c #BDC769",
"~. c #C1C963",
"^. c #C5CB66",
"/. c #C7CC67",
"(. c #C6CC67",
"). c #C5CB66",
"_. c #C9CD67",
"`. c #CCCF67",
"'. c #C8CD68",
"]. c #C8CD68",
"[. c #CACE69",
"{. c #C8CD68",
"}. c #CED066",
"|. c #3C8A8C",
" X c #45A6A5",
".X c #46A9A7",
"XX c #47ABA9",
"oX c #47ABA9",
/* pixels */
"X X X XXXXXXXXXXXXXXXXXXXXXXXXXXXXXXX X X X XXXXXXXXXXXXXXXXXXX X X X X X X XXXXXXXXXXXXXXXXXXXXXXXXXXXXXXXXXXXXXXXXXXXXXXXXXXXX",
"X X X X X XXXXXXX X X X X X XXXXXXX X X X X X XXXXXXXXXXXXXXX X X X X X X X X XXXXXXXXXXXXXXXXXXXXXXX X X X XXXXXXXXXXXXXXXXXXXX",
"P.P.P.X X X XXX X X X X X X X XXX X X m.m.X X XXX X X X X XXX X X P.P.P.P.X X XXXXXXXXXXXXXXXXXXX X X X X X X X XXXXXXXXXXXXXXXX",
"P.P.P.P.X X X X X X P.P.P.P.X X X X m.m.m.m.X X X X X X X X X X P.P.P.P.P.P.X X XXXXXXXXXXXXXXX X X X m.m.m.X X X XXXXXXXXXXXXXX",
"P.P.P.P.X X X X X P.P.P.P.P.P.X X X m.m.m.m.m.X X X i.i.X X X X P.P.P.P.P.P.X X X X X X X XXXXX X X m.m.m.m.m.X X X XXXXXXXXXXXX",
"m.m.m.P.P.X X X X P.P.P.P.P.P.P.X X m.m.m.m.m.X X i.i.i.i.X X X P.P.P.P.P.X X X X X X X X X XXX X i.m.m.m.m.m.m.X X XXXXXXXXXXXX",
"m.m.m.m.m.m.P.X X P.P.P.P.P.P.P.P.X X m.m.m.m.m.X i.i.i.P.P.X X P.P.P.P.P.X X P.P.P.P.P.X X X X X m.m.m.m.m.m.m.X X XXXXXXXXXXXX",
"m.m.m.m.m.m.m.m.X X X P.m.m.m.m.P.m.X m.m.m.m.m.i.i.i.P.P.P.P.X P.P.P.P.X X P.P.P.P.P.P.P.X X i.i.m.m.m.m.m.m.m.X X XXXXXXXXXXXX",
"P.P.m.m.m.m.m.m.m.P.P.P.m.m.m.m.m.m.m.m.m.m.m.m.m.i.i.P.P.P.P.X P.P.P.P.X P.P.P.P.P.P.P.P.X X i.i.m.m.m.m.m.m.m.X X XXXXXXXXXXXX",
"P.P.P.m.m.m.m.m.m.m.m.m.m.m.m.m.m.m.m.m.m.m.m.m.m.m.P.P.m.m.P.P.P.P.P.P.P.P.P.P.P.P.P.P.P.X X i.i.m.m.m.m.m.X X X X X XXXXXXXXXX",
"P.P.P.m.m.m.P.P.m.m.m.m.m.m.m.m.m.m.m.m.m.m.m.m.m.m.P.m.m.m.m.P.P.P.P.P.P.P.P.m.m.m.P.X X X i.i.i.i.m.m.X X X X X X X X XXXXXXXX",
"P.P.P.m.m.P.P.P.P.P.m.m.m.m.m.m.m.m.m.m.m.m.m.m.m.m.m.m.m.m.m.m.m.m.m.P.P.P.m.m.m.m.X X X X i.i.i.i.i.m.X X m.m.m.m.X X X XXXXXX",
"P.P.P.P.P.P.P.P.P.P.P.P.P.P.P.P.P.P.P.m.m.m.m.m.m.m.m.m.m.m.m.m.m.m.m.m.P.P.m.m.m.m.X m.m.m.i.i.i.i.i.m.m.m.m.m.m.m.m.X X XXXXXX",
"P.P.P.P.P.P.P.P.P.m.m.m.m.m.m.m.m.m.m.m.m.m.m.m.m.m.m.m.m.m.m.m.m.m.m.m.m.m.m.m.m.m.m.m.m.m.m.i.i.i.i.m.m.m.m.m.m.m.m.X X XXXXXX",
"m.m.m.m.m.m.m.m.m.m.m.m.i.i.i.i.i.i.m.m.m.m.m.m.m.m.m.m.m.m.m.m.m.m.m.m.m.m.m.m.m.m.m.i.i.i.i.i.i.m.m.m.m.m.m.m.m.m.m.X X XXXXXX",
"m.m.m.m.m.m.m.m.m.m.i.i.i.i.i.i.i.i.i.m.i.i.i.i.m.m.m.m.m.m.P.P.P.m.m.m.m.m.m.m.m.m.m.i.i.i.i.i.i.m.m.m.X X m.m.m.m.X X X XXXXXX",
"m.m.m.m.m.m.m.m.i.i.i.i.i.i.i.i.i.i.i.i.i.i.i.i.i.m.m.m.P.P.P.P.P.P.m.m.m.m.m.m.m.m.m.m.i.i.i.i.m.m.m.m.m.m.X X X X X X XXXXXXXX",
"m.m.m.m.m.m.m.i.i.i.i.i.i.i.i.i.i.i.i.i.i.i.i.i.i.P.P.P.P.P.P.P.P.P.P.P.P.P.i.i.i.m.m.i.i.i.i.i.m.m.m.m.m.m.i.X X X X X XXXXXXXX",
"m.m.m.m.m.i.i.i.i.i.i.m.m.m.m.m.i.i.i.i.i.i.i.i.i.i.i.i.P.P.P.P.P.P.P.P.P.i.i.i.i.i.i.i.m.m.i.i.i.m.m.m.m.m.m.m.X X XXXXXXXXXXXX",
"m.m.m.i.i.i.i.i.i.i.m.m.m.m.m.m.m.i.i.i.m.m.m.i.i.i.i.i.i.i.P.P.P.i.i.i.i.i.m.m.i.i.i.m.m.m.m.i.i.m.m.m.m.m.m.m.X X XXXXXXXXXXXX",
"i.m.m.m.m.m.m.m.m.m.m.m.m.m.m.m.m.i.i.m.m.m.m.M.N M M M M 4.m.m.m.m.n.1.M M M M N N.A.m.m.A.A.y.y.i.m.m.m.m.m.X X X X XXXXXXXXXX",
"i.i.i.i.m.m.m.m.m.m.m.m.m.m.m.m.m.m.m.A.Z.A.M.N N :.:.:.N M 8.m.Z.A.4.M M Y :.:.:.N :.N.M.N N N >.y.i.i.m.m.m.i.X X X XXXXXXXXXX",
"m.m.m.m.m.m.m.m.m.m.m.m.m.m.m.m.m.m.Z.:.N N N N 1.n.n.S.B.N 4.9.M N N M Y M.n.n.n.,.M N N N :.:.:.>.y.i.i.i.i.i.i.X X XXXXXXXXXX",
"m.m.m.m.m.m.m.m.r.r.r.r.r.m.m.r.r.e.:.M >.>.:.:.n.S.S.S.D.=.m M M M M :.M.S.H.J.S.n.2.N N 1.n.S.M.:.>.t.t.y.i.i.i.X X X XXXXXXXX",
"m.m.m.m.m.m.m.r.r.r.r.r.r.r.r.r.7.N M ,.n.S.A.:.n.S.S.S.n.8.Y 6.6.5.m =.S.H.~./.H.S.n.N :.n.S.S.D.B.M M M 2.y.i.X X X X X X XXXX",
"m.m.m.m.m.r.r.r.P.P.P.P.r.7.7.Y.>.M 2.n.S.n.=.4.J.J.S.n.9.N U.`.}.w.:.M.J.~._./.D.S.H.e.q.J.S.S.n.9.m M M M 8.A.m.P.P.P.X X X XX",
"m.m.r.r.r.r.P.P.P.P.P.P.K.3.M M M N C.S.S.n.8.J.].~.H.8.N U.`./.`.w.%.F.~.]./.).D.J.)._._.).J.S.B.N 1.1.1.:.M -.P.P.P.P.P.X X XX",
"P.r.r.P.P.P.P.P.P.P.P.h.U M ,.4.N M C.J.J.J.D././._.T.r.U.`././._.U.V.W.]./././.E.)./././._.~.S.N.%.D.D.D.B.:.,.I.P.P.P.P.X X XX",
"P.P.P.P.P.P.P.P.P.P.#.3 u U A.D.%.N 9.!.]./.E./././._.`._././././._.W.Q././././.]././././._.~.S.S.D.S.S.S.D.9.m U.P.P.P.P.X X XX",
"m.m.m.m.m.m.P.P.i.#.3 X   8 c.D.D.%.w.!._./.]./././././._.]./././._.]./././.]./././././._.).E.S.S.S.S.S.S.D.9.m U.P.P.P.X X X XX",
"m.m.m.m.m.m.m.m.s.2 . : 9 - 2 v.S.D.E.E./.].].]./././.].~.W.]./.].Q.~.]././.W.).].].].]./.E.S.S.S.D.D.D.D.M.,.5.& X X X X X XXXX",
"m.m.m.m.m.m.m.m.H X : / z.w 0 l.S.S.S.S.E.E.E.E.].].~.E.J.H.Q.].Q.H.J.~././.W.E.E.E.E.E.R.S.S.F.v.0 0 ' N.,.k W i.X X X X XXXXXX",
"P.P.P.m.m.l.7 0 2 . 7 z.*.x.S.S.S.S.S.S.x.n.S.S.R.E.J.n.S.S.H.E.J.n.J.~././.].W.E.S.S.S.S.S.v.7 2     ; F l & , X.i.X X X XXXXXX",
"P.P.P.P.l.2 X X X . 7 z.*.c.S.S.S.S.x.x.c.S.S.S.S.S.S.S.S.S.S.S.S.S.W.]./././.]./.D.S.S.S.S.c.H J J 8   & & O X 1 s.m.X X X XXXX",
"P.P.P.G.5 X & g g u = H &.b.S.S.S.S.b.j.n.S.S.S.S.n.x.c.S.S.S.S.S.S.J.~.]././././.D.S.S.S.S.S.D.D.D.c.8 . 2 A : . , s.m.X X XXXX",
"m.m.m.h.X & c N N b y = w z.n.S.S.S.S.k.x.S.S.n.x.k.*.*.c.S.S.S.S.S.S.J.~.]._./.I.S.S.S.S.S.S.S.S.S.D.J   9 z./ : . , l.m.X X XX",
"m.m.m.s.X t N M M N v k E *.z.n.S.S.x.*.*.k.k.k.*.*.*.*.x.S.S.S.S.S.c.b.J.J.J.J.S.S.S.S.S.S.S.S.S.S.D.e 1 | *.&./ : X ] m.X X XX",
"m.m.m.s.X t N M M M N M @.*.*.z.k.k.*.*.*.*.*.*.z.n.n.n.c.x.S.S.S.c.*.c.S.S.S.S.S.S.n.x.S.S.S.S.S.S.S.l./ *.*.*.z.2 X ] m.X X XX",
"m.m.m.s.X t M N g & & Z *.*.*.*.*.*.*.*.n.n.*.j.n.S.S.S.S.c.z.z.k.*.*.j.n.S.S.S.S.S.n.*.z.k.x.S.S.S.b.k.*.*.*.&.7 @ X ; l.X X XX",
"m.m.m.d.X X p g $ X 6 [ *.*.*.*.*.*.*.n.S.S.n.n.S.S.S.S.S.c.*.*.*.x.n.k.j.z.n.S.S.S.n.*.z.n.n.S.n.k.j.*.*.*.*.! b t X X X X X XX",
"i.i.#.- X X + $ . 4 [ *.*.*.*.*.*.*.*.n.S.S.S.S.S.S.S.S.S.S.n.x.*.c.S.n.k.*.n.S.S.n.k.j.n.S.S.S.b.*.*.*.*.*.j.<.M b t X X X X XX",
"i.$.- X X $ $ # . 6 *.*.[ | | } } *.*.j.n.n.S.S.S.S.n.S.S.S.S.S.x.c.S.S.S.k.*.n.n.k.*.j.n.S.S.S.b.*.*.*.*.*.*.<.M M m & X X XXXX",
"m.x.@ X t b m f + X 7 [ 6 @ % x N { *.*.*.z.n.S.S.b.x.S.S.S.S.S.x.*.c.n.n.k.*.*.*.*.*.*.z.n.n.b.*.*.*.*.} } Q M M M N * X |.XXXX",
"m.l.o & m M M M f + o @ o $ g N M O.*.*.*.*.k.n.n.*.k.n.S.S.S.n.x.*.*.*.*.*.*.*.*.*.*.*.*.*.*.*.*.*.*.@.N N N M M M b & X B  XXX",
"n.^ o & M M M M N f % & + a M N M N O.{ *.*.*.*.*.*.*.k.n.n.x.*.*.*.*.*.*.*.*.*.*.*.*.*.*.*.*.*.*.*.*.o.N M M M b v * X & B  XXX",
"n.^ o & v M M M M M M M a X s m M M :.:.} *.*.*.*.*.*.*.*.*.*.*.*.*.*.*.*.*.*.{ *.*.*.*.*.*.*.*.*.*.*.*.@.N M b t X X X B |.|. X",
"c.^ ; X & x v N M M M M N a & x M N { *.*.*.*.*.*.*.*.*.*.*.*.{ } *.*.*.*.*.{ Y { *.*.*.*.{ *.*.*.*.*.*.j.! M s # X X X X X X .X",
"' ' ^ ; X X & v M M M M M M M M M N { *.*.*.*.*.+.*.*.*.*.*.} ;.;.} *.*.*.{ Y :.} *.*.*.{ :.*.*.*.*.*.*.} <.M N s $ X X K X X X ",
"P P ] D X X $ s N M M M M M M M M M @.*.*.*.*.@.:.*.*.*.*.} ! ;.n <.O.o.o.:.M { *.*.*.*.{ :.*.*.*.*.*.j.~ M M M N a $ X K f.X X ",
"I I P D X $ d N M M N M M M M M M M M ~ o.o.} ;.:.*.*.*.j.@.<.j.o.;.n :.;.N M ! *.*.*.o.~ n O.*.*.*.j.{ F c M M M N t X K f.X X ",
"r.G.f.D X t R M N v d c M M M M M M M M M <.*.{ n O.j.j.} ;.<.*.*.j.@.{ k.! N M ! @.~ M M M n @.@.@.o.F t i N M M N t X K X X X ",
"L.a.f.K X & l T v u O a N M M M M M M M N *.*.{ M n ~ @.<.m Q j.*.*.j.O.{ j.:.M M M M M M M M M M v s t O s N M N l & X X X X  X",
"P.G.f.p.5 X % d u . * x N M M M M M M M N ! } Q M M M M M M :.+.*.*.j.;.;.! n M M M M M M M M M M c p i * * c R l % X X X X X .X",
"P.L.a.f._ 2 X X X X s R M M M M N M M M M N <.M M M M M M M M :.+.k.O.:.M M M M M M M M M M N M M M N R d O * a & X X X X X X X ",
"P.P.l.' ] ^ 7 7 9 < & x N N M M d v M M M M M M M M M M M M M M :.Q :.M M M M M M M M M M b d N M M N x * X X X 5 V X ] ' X X X ",
"m.m.n.l.' ' ] ] ] 7 X & p u c T * c M M M M M M M M M N M M M M M M M M M M M M M M M M M v $ s N N c & X 1 0 G p.] ' ' l.n.X X ",
"m.m.m.n.x.l.' ' ] ^ 1 X X . * u $ t b M M M M M M N v s N M M M M N d l M M M M M M M N b u X $ u u & X X 8 .. .E ' l.x.n.m.X X ",
"m.m.m.m.m.n.#.E E  .S C C C > X X X t b M M M M N v & $ d N N N N f $ g N M M M M M m u * X X X X X X , q X X X E #.n.m.m.m.X X ",
"m.m.m.m.m.m.n.c.l.E E  . . .S w w w w ) N M M b t & X X $ t t t t % X & x N M M M M M j q w w w w w w J ] ] X X X y.m.m.m.m.X X ",
"m.m.m.m.m.m.m.m.n.b.s.' E E E ] ] ] ] ' W ( ( ) e e H h X X X X X X X X & * * v M N ..( ] ] ] b.x.] ] ] ' #.y.X X X m.m.m.X X X ",
"m.m.m.m.m.m.P.P.m.m.b.b.s.' ' ' ' ' ' ' ' ' ] c.] ] ] _ H H H H H H H H H H H ( ( ( ' ' ' ' E #.u.l.' s.y.y.i.X X X X X X X X XX",
"m.m.m.m.m.P.P.P.P.m.m.m.n.L.L.g.f.] ] ' ' ] b.b.' ' ' ' ] ] ] ] ] ] ] ] ] ] ] ] ' ' ' ' ' E E X.i.u.y.y.i.i.i.X X X X X X X XXXX",
"m.m.m.P.P.P.P.P.P.P.P.P.P.P.P.L.L.L.L.] ] b.m.b.' ' ' E X.$.E ' ' ' ' ' ' ] c.b.] ] ] ] ..y.y.y.i.i.i.i.i.i.i.X X i.i.i.X X X XX",
"i.i.P.P.P.P.P.P.P.P.P.P.P.P.P.P.i.i.i.y.n.m.i.y.E E E X.%.E E E E ' ' E E %.i.m.n.n.n.y.y.i.i.i.i.i.i.i.i.i.X X i.i.i.m.m.m.X X "
};
