/* XPM */
static const char *top_right6[] = {
/* columns rows colors chars-per-pixel */
"64 64 183 2 ",
"   c #0D122C",
".  c #121227",
"X  c #13162B",
"o  c #161C2E",
"O  c #191F2E",
"+  c #171E30",
"@  c #1D242E",
"#  c #172031",
"$  c #192333",
"%  c #1A2837",
"&  c #1C2C3A",
"*  c #1E313E",
"=  c #21292F",
"-  c #232D32",
";  c #282D33",
":  c #2C3735",
">  c #2D3A34",
",  c #313E34",
"<  c #364335",
"1  c #394536",
"2  c #3C4B37",
"3  c #404B36",
"4  c #44473A",
"5  c #405238",
"6  c #4A5639",
"7  c #465A3A",
"8  c #4C5C3B",
"9  c #57593F",
"0  c #4C613B",
"q  c #53633C",
"w  c #596B3E",
"e  c #5D713E",
"r  c #5E793F",
"t  c #63753F",
"y  c #1F3541",
"u  c #1F3A45",
"i  c #213C46",
"p  c #213E48",
"a  c #23434B",
"s  c #26484E",
"d  c #314F48",
"f  c #3E5443",
"g  c #274D52",
"h  c #284F53",
"j  c #295256",
"k  c #27545A",
"l  c #2B5759",
"z  c #2C5B5C",
"x  c #32605B",
"c  c #2B5F62",
"v  c #2E6161",
"b  c #306764",
"n  c #316967",
"m  c #326C69",
"M  c #34726D",
"N  c #3E7E6F",
"B  c #2E7575",
"V  c #357671",
"C  c #377A73",
"Z  c #397C74",
"A  c #425842",
"S  c #5C5E40",
"D  c #4B6847",
"F  c #4C684A",
"G  c #5E6041",
"H  c #5E7940",
"J  c #47765A",
"K  c #567750",
"L  c #616242",
"P  c #617540",
"I  c #657A41",
"U  c #6A7C41",
"Y  c #7B7B49",
"T  c #417665",
"R  c #417F6D",
"E  c #517261",
"W  c #597D68",
"Q  c #407F72",
"!  c #398077",
"~  c #398078",
"^  c #5E8354",
"/  c #53815B",
"(  c #578C5F",
")  c #5B8E5C",
"_  c #5E905B",
"`  c #6D8343",
"'  c #6D8C43",
"]  c #65854E",
"[  c #68874C",
"{  c #698A4F",
"}  c #778E45",
"|  c #788F44",
" . c #739445",
".. c #799145",
"X. c #799C46",
"o. c #749C4C",
"O. c #799F4A",
"+. c #648955",
"@. c #698C51",
"#. c #668D59",
"$. c #659456",
"%. c #699654",
"&. c #6D9851",
"*. c #619159",
"=. c #6A935B",
"-. c #6D995F",
";. c #769A50",
":. c #729C5D",
">. c #7DA147",
",. c #7BA048",
"<. c #7BA15A",
"1. c #4D8665",
"2. c #44816D",
"3. c #49856D",
"4. c #4F8A6D",
"5. c #528963",
"6. c #588D67",
"7. c #538B69",
"8. c #56896E",
"9. c #5C9165",
"0. c #5F9669",
"q. c #458272",
"w. c #578C70",
"e. c #629463",
"r. c #689661",
"t. c #6C9C63",
"y. c #68956C",
"u. c #719B6F",
"i. c #658E73",
"p. c #629270",
"a. c #6FA166",
"s. c #75A462",
"d. c #79A863",
"f. c #8A884C",
"g. c #918F4E",
"h. c #869E47",
"j. c #839C48",
"k. c #93914F",
"l. c #9C9951",
"z. c #81A346",
"x. c #84A548",
"c. c #8AA449",
"v. c #83A949",
"b. c #8CAA49",
"n. c #90A448",
"m. c #92AD4A",
"M. c #96B14B",
"N. c #9CB44C",
"B. c #9BB94E",
"V. c #84A657",
"C. c #86AB56",
"Z. c #8BAC54",
"A. c #83A658",
"S. c #91AE52",
"D. c #8EB154",
"F. c #93B351",
"G. c #A1B74C",
"H. c #A3B94C",
"J. c #A7A354",
"K. c #B0AC57",
"L. c #A2B754",
"P. c #A7BA50",
"I. c #ABBD53",
"U. c #BAB55A",
"Y. c #BFBA5B",
"T. c #8FA363",
"R. c #8CAA6C",
"E. c #97AC66",
"W. c #AFBE6A",
"Q. c #AAC04C",
"!. c #B2C057",
"~. c #B3C159",
"^. c #BAC55D",
"/. c #BEC761",
"(. c #BEC765",
"). c #C1C963",
"_. c #C6CC67",
"`. c #C7CC67",
"'. c #C9CD67",
"]. c #CCCF67",
"[. c #C8CD68",
"{. c #CED066",
"}. c #47ABA9",
/* pixels */
"}.}.}.}.}.}.}.}.}.}.}.}.}.}.}.}.}.}.}.}.}.}.}.}.}.}.}.o o o o o o o }.}.}.}.}.}.}.}.}.}.}.}.}.}.}.}.}.}.}.}.}.}.}.}.}.}.o o o o ",
"}.}.}.}.}.}.}.o o o o o o }.}.}.}.}.}.}.}.}.}.}.}.}.o o o o o o o o o }.}.}.}.}.}.}.}.}.}.o o o o o o }.}.}.}.}.}.}.}.o o o o o ",
"}.}.}.}.}.}.o o o o o o o o }.o o o o }.}.}.}.}.}.}.o o o d.d.d.o o o o }.o o o }.}.}.}.o o o o o o o o }.o o o o o o o o Y.Y.Y.",
"}.}.}.}.}.o o o B.B.B.B.o o o o o o o o o }.}.o o o o o d.d.d.d.d.o o o o o o o o o }.o o o Y.Y.Y.o o o o o o o o o o o Y.Y.Y.Y.",
"}.}.}.}.}.o o B.B.B.B.B.B.o o o o o o o o o o o o o o o d.d.d.d.d.d.o o o Y.Y.Y.o o o o o Y.Y.Y.Y.Y.o o o o d.d.d.d.o o Y.Y.Y.Y.",
"}.}.}.}.}.o o B.B.B.B.B.B.o o o B.B.B.o o o o o B.B.o o o d.d.d.d.d.o o Y.Y.Y.Y.Y.o o o Y.Y.Y.Y.Y.Y.o o o d.d.d.d.d.d.o Y.Y.Y.Y.",
"}.}.}.}.}.o o B.B.B.B.B.B.B.o B.B.B.B.B.B.o o B.B.B.B.B.o d.d.d.d.o o Y.Y.Y.Y.Y.Y.o o Y.Y.Y.Y.Y.Y.Y.o o o d.d.d.d.d.d.o Y.Y.Y.Y.",
"}.}.}.}.}.o o o B.B.B.B.B.B.o B.B.B.B.B.B.o o B.B.B.B.B.Y.Y.Y.d.d.o Y.Y.Y.Y.Y.Y.Y.o o Y.Y.Y.Y.Y.Y.o o o o o d.d.d.Y.Y.o Y.Y.Y.Y.",
"}.}.}.o o o o o o B.B.B.B.B.B.B.B.B.B.B.B.o o B.B.B.B.Y.Y.Y.Y.Y.Y.Y.Y.Y.Y.Y.Y.Y.o o Y.Y.Y.Y.Y.Y.o o Y.Y.o o o d.Y.Y.Y.Y.Y.Y.Y.Y.",
"}.}.o o o o o o o o d.d.B.B.B.B.B.B.B.B.B.B.o o B.B.Y.Y.B.B.Y.Y.Y.Y.Y.Y.Y.Y.Y.Y.Y.Y.Y.Y.Y.Y.Y.Y.Y.Y.Y.Y.Y.o o o Y.Y.Y.Y.Y.Y.Y.Y.",
"}.o o o d.d.d.o o o d.d.d.B.B.B.B.B.B.B.B.B.B.B.B.B.Y.B.B.B.B.Y.Y.Y.Y.Y.Y.Y.Y.B.B.B.Y.Y.Y.Y.Y.B.B.Y.Y.Y.Y.B.B.Y.Y.Y.Y.Y.Y.Y.Y.Y.",
"}.o o d.d.d.d.d.d.o d.d.d.d.d.B.B.B.B.B.B.B.B.B.B.B.B.B.B.B.B.B.B.B.B.Y.Y.Y.B.B.B.B.B.Y.Y.B.B.B.B.B.B.Y.B.B.B.B.Y.Y.Y.Y.Y.Y.Y.Y.",
"}.o o d.d.d.d.d.d.B.B.B.B.B.B.B.B.B.B.B.B.B.B.B.B.B.B.B.B.B.B.B.B.B.B.B.Y.Y.B.B.B.B.B.Y.B.B.B.B.B.B.B.B.B.B.B.B.Y.Y.Y.Y.Y.Y.Y.Y.",
"}.o o d.d.d.d.d.B.B.B.B.B.B.B.B.B.B.B.B.B.B.B.B.B.B.B.B.B.B.B.B.B.B.B.B.B.B.B.B.B.B.B.Y.B.B.B.B.B.B.B.B.B.B.B.B.Y.Y.Y.Y.Y.B.B.B.",
"}.o o d.d.d.d.d.B.B.B.B.B.B.B.B.B.d.B.B.B.B.B.B.B.B.B.B.B.B.B.B.B.B.B.B.B.B.B.B.B.B.B.B.B.B.B.B.B.B.B.B.B.B.B.B.B.B.B.B.B.B.B.B.",
"}.o o o d.d.d.o B.B.B.B.B.B.B.B.d.d.d.B.d.d.d.d.B.B.B.B.B.B.Y.Y.Y.B.B.B.B.B.B.B.B.B.B.B.B.B.B.B.B.B.B.B.B.B.B.B.B.B.B.B.B.B.B.B.",
"}.}.o o o o o o o d.d.d.d.d.d.d.d.d.d.d.d.d.d.d.d.B.B.B.Y.Y.Y.Y.Y.Y.B.B.B.B.B.B.B.B.B.B.d.d.d.B.B.B.B.B.B.B.B.B.B.B.B.B.B.B.B.B.",
"}.}.}.o o o o o o d.d.d.d.d.d.d.d.d.d.d.d.d.d.d.d.Y.Y.Y.Y.Y.Y.Y.Y.Y.Y.Y.Y.Y.d.d.d.B.B.d.d.d.d.d.B.B.B.B.B.B.B.B.B.B.B.B.B.B.B.B.",
"}.}.o o o B.B.B.o o d.B.B.B.B.B.d.d.d.d.d.d.d.d.d.d.d.d.Y.Y.Y.Y.Y.Y.Y.Y.Y.d.d.d.d.d.d.d.B.B.d.d.d.B.B.B.B.B.B.d.d.d.B.B.B.B.B.B.",
"}.}.o o B.B.B.B.B.B.B.B.B.B.B.B.B.d.d.d.B.B.B.d.d.d.d.d.d.d.Y.Y.Y.d.d.d.d.d.B.B.d.d.d.B.B.B.B.d.d.d.B.B.B.B.d.d.d.d.d.B.B.B.d.d.",
"}.}.o o B.B.B.B.B.B.B.B.B.B.B.B.B.d.d.B.B.B.Z.Z C C C C 6.B.B.B.B.B.9.C C C C C C.F.B.B.F.F.F.F.B.B.B.B.B.d.d.d.d.d.d.d.d.d.d.d.",
"}.}.o o B.B.B.B.B.B.B.B.B.B.B.B.B.B.F.D.F.Z.Z C 2.2.2.Z C e.B.D.F.9.C C Q 3.2.2.Z Z Z.Z.Z Z C 3.s.B.B.B.B.d.d.d.d.d.d.d.d.d.d.d.",
"}.}.}.o o B.B.B.B.B.B.B.B.B.B.B.B.D.3.C C C C 7.N.N.G.V.Z 9.t.C C C C Z V.G.N.N.7.C C C C 3.3.2.3.s.B.B.d.d.d.d.B.B.B.d.d.d.d.d.",
"}.}.}.o o o o o o o o B.B.B.B.o % n C 3.3.3.2.N.G.G.G.H.<.V C C C C Q V.H.P.P.H.N.7.C C 7.N.H.C.C 3.a.t.s.d.d.B.B.B.B.B.B.B.B.B.",
"}.}.}.}.o o o o o o o o o o o & n C 3.F.G.M.3.N.G.G.G.N.-.Q w.w.q.V <.H.H.).'.P.G.N.Z N N.G.H.Z.3.C C C 4.t.s.B.B.B.B.B.B.B.B.B.",
"}.}.}.o o o o o Y.Y.o o o & E.8.C C S.H.G.M.3.N.I.P.H.V.B u.{.].R.Q :.H.^.[.'.I.H.N.p.p.I.P.G.H.V.C C C C C e.F.B.B.B.B.B.B.B.B.",
"}.}.o o o Y.Y.Y.Y.Y.Y.Y.& 8.C C C C S.G.G.M.e.I.'.).L.r.Z R.'.`.{.u.:.I.).'.`.`.H.I.'.'.[.).I.H.A.Z 6.6.6.3.C 0.d.d.d.d.d.B.B.B.",
"}.o o Y.Y.Y.Y.Y.Y.Y.Y.Y.y.C 4.9.Z C S.I.I.I.H.`.`.'.W.p.R.].`.`.'.R.V.^.[.`.`.`.~.`.`.`.`.`.).H.Z.:.H.H.H.A.3.4.s.d.d.d.d.d.d.d.",
"o o Y.Y.Y.Y.Y.Y.Y.Y.d.+.T 7.S.H.:.Z r.(.[.`.~.`.`.`.'.].'.`.`.`.`.'.^./.`.`.`.`.'.'.`.`.`.'.).G.H.H.G.G.G.H.r.V T.Y.Y.Y.Y.Y.Y.Y.",
"o o Y.Y.Y.Y.o o d.d.#., u ;.Q.H.H.:.u.(.'.`.[.`.`.`.`.`.`.[.`.`.`.'.[.`.`.`.[.`.`.`.`.`.`.`.~.G.G.G.G.G.G.H.r.V T.Y.Y.Y.Y.Y.Y.Y.",
"o o o Y.Y.o o B.B.j.< o X 3 w c.H.H.~.~.`.[.[.[.`.`.`.[.).^.[.`.[./.).[.`.`.^.`.[.[.[.[.`.~.G.G.H.H.H.H.H.Z.4.7.D.B.B.B.B.B.B.B.",
"o o o o o o B.B.j.< X , 0 7 q c.H.G.G.G.~.~.~.~.[.[.).~.I.H./.[./.P.I.).`.`.^.~.~.~.~.~.!.G.H.P.n.q q | D.4.c A h.B.B.B.B.B.B.B.",
"}.o o o o o B.B.I o , ' v.b.H.H.G.H.H.b.N.G.G.H.!.~.I.G.G.G.P.~.P.N.I.).`.`.[.^.~.G.G.G.G.H.n.8 1     : f a & o 1 h.B.B.B.B.B.Y.",
"}.}.}.o o o o 8 < X 7 v.,.m.H.G.G.b.b.m.G.G.G.G.G.G.G.G.G.G.G.G.G.G.^.[.`.`.`.[.[.H.G.G.G.H.m.t I U 6   X < e > X 1 x.B.B.B.Y.Y.",
"}.}.o o o o o o o X 7 v.,.M.H.G.G.M.z.N.G.G.G.H.N.b.b.H.G.G.G.G.G.G.^.[.`.`.`.`.~.H.G.G.G.G.H.H.H.H.m.6   0 v.' > o k.Y.Y.Y.Y.Y.",
"}.}.o o o o & v v p = H v.v.N.G.G.H.x.c.N.H.N.b.x.,.,.b.G.G.G.G.G.G.P./.[.'.'.!.G.G.G.G.G.G.G.G.G.G.H.t ,  .,.v.2 X , x.Y.Y.Y.Y.",
"}.o o j.o & m Z Z M i @ r >.v.N.H.b.,.,.x.x.x.,.,.,.,.x.H.G.G.G.H.m.M.P.I.I.I.G.G.G.G.G.G.G.G.G.G.G.H.h.' >.,.,.' > o ..B.B.Y.B.",
"o o B.j.o y Z C C Z M v ^ ,.,.v.x.,.,.,.,.,.,.z.N.N.N.m.b.G.G.H.m.,.m.G.G.G.G.G.G.N.b.N.G.G.G.G.H.H.M.z.,.,.,.,.v.< X ..B.B.B.B.",
"o o B.j.o y Z C C C C C *.,.,.,.,.,.,.M.N.z.z.N.G.G.H.G.m.v.v.x.z.,.z.M.G.G.G.G.G.N.z.v.x.b.G.N.x.x.z.,.,.,.,._ d @ o ; x.B.B.B.",
"o o B.j.o y C C l % % D ,.,.,.,.,.,.M.G.G.N.N.G.G.G.G.H.M.,.,.,.b.N.b.z.v.N.G.G.G.N.z.z.N.N.G.N.,.,.,.,.,.,.z.5.M y o o - -.d.B.",
"o o o o o o a z # o 7 X.,.,.,.,.,.,.N.G.G.G.G.G.G.G.G.G.G.N.m.,.m.H.G.b.,.M.G.G.N.x.z.N.G.G.G.N.,.,.,.,.,.,.,.5.C M y o o =.d.d.",
"}.o o o o o + $ X 5 ,.,.,.,.,.,.,.,.z.N.N.G.G.G.G.G.G.G.G.G.G.b.b.G.G.G.x.,.N.N.x.,.z.N.G.G.G.M.,.,.,.,.O.,.) C C C V & o =.d.d.",
"}.}.o o o % % $ X 5 ,.,.,.X. .o.,.,.,.,.z.N.G.G.N.x.G.G.G.G.H.m.,.m.G.N.x.,.,.,.,.,.,.v.N.N.N.,.,.,.z.*.C N C C C C Z * o =.B.B.",
"}.}.o o i V C z # o 7  . .2 $ b %.,.,.,.,.z.N.N.,.x.N.N.G.G.G.b.,.,.,.,.,.,.,.,.,.,.,.,.,.,.,.,.,.,.z.$.C C C C C C M & o ` B.B.",
"}.o o & C C C Z z $ o O O $ z C C %.o.o.,.,.,.,.,.,.,.x.N.N.b.,.,.,.,.,.,.,.O.,.,.,.,.,.,.,.,.,.,.,.,.,.*.Z C M m m * o - ` m.B.",
"}.o o & C C C C Z l & $ X g V C C C 2.2.O.,.,.,.,.,.,.,.,.,.,.,.,.,.,.,.,.o.2.o.,.,.,.,.o.,.,.,.,.,.,.,.,.) C g $ o o ; Y k.k.U.",
"}.o o & m Z C C C C Z j $ X g M C 2.o.,.,.,.,.,.,.,.,.,.,.,.O.o.,.,.,.,.o.2.2.o.,.,.,.O.2.,.,.,.,.,.,.,.O.5.C Z i o o L g.k.l.U.",
"}.o o o & v n Z C C C Z j * * b Z o.,.,.,.,.,.&.,.,.,.,.,.O.5.1.O.z.,.z.1.C o.,.,.,.,.O.2.,.,.,.,.,.,.z._ C C Z g $ o o Y k.K.B.",
"}.}.o o o X & n C C C C C Z Z C C _ ,.,.,.,.*.2.,.,.,.,.O.) 1.N 1.%.$.%.2.C _ ,.,.,.%.*.N %.O.%.%.%.o.,.J m C C Z g $ o Y ..} b.",
"}.}.o o o o $ j Z C C C C C C C C C ) $.$.O.1.2.,.,.,.,.$.1.z.%.1.N 2.1.1.N C ) $.*.C C C N ) C m k J / u s Z C C Z y o I ..} E ",
"}.o o o o % j Z C C Z C C C C C C C C C 5.,.O.N $.,.z.O.5.5.z.,.z.$.&.z.z.1.C C C C C C C C C Z n i s u . g Z C C Z y o I ..} W ",
"}.o o I o y ~ C Z n h b C C C C C C C Z ,.,.O.C Z _ *.5.V 5.z.,.,.z.%.o.%.R C C C C C C C C C C C Z b a * y m Z Z v & o Y E E i.",
"}.o o I o % z ! m y . g Z C C C C C C C ) O.) C C C C C C 2.&.,.,.z.5.1.R C C C C C C C C C Z C C C C ~ j . y h g % o 4 f.k.J.Y.",
"}.o o ` 2 o % g y X * b Z C C C C C C C C 5.C C C C C C C C 2.&.z.%.2.C C C C C C C C C C M j Z Z C C Z j o o o o o 4 f.k.g.U.Y.",
"}.o o o } 2 o o o o g ~ C C C C Z C C C C C C C C C C C C C C 2.( 2.C C C C C C C C C C Z m $ a j Z Z b * , G S S 8 ` ..g.J.Y.Y.",
"}.}.o o o o q q q < & v Z Z Z Z h m C C C C C C C C C Z C C C C C C Z C C C C C C C C Z V i o X % a a * o 9 l.k.....} } c.Y.Y.Y.",
"}.}.o o o c.......8 o & i i i i $ n Z C C C C C C Z m h Z C C C C Z j v Z C C C C C V i i o o - w 3 o o , U ..} } } c.b.B.B.B.B.",
"}.}.o o B.B.=.^ ^ K , o o o o o o * M C C C C C Z m & $ h Z Z Z Z l $ z Z Z Z C C C C x w w w P ..` w w U ..} } } c.B.B.B.B.B.B.",
"}.o o o B.B.B.m.x.^ K F F F F e e e ] +.C C C M y & o o $ y y y y % o & y y y m C C +.@.........} | ......} ^ =.:.B.B.B.B.B.B.B.",
"o o o o o B.B.B.B.M.x...^ ^ ^ ......| | / { { [ t t I f o o o o o o o o f t t ] { { } | } } ..M.c.} } } } =.s.s.d.d.B.B.B.B.B.B.",
"o o B.B.B.B.B.B.B.B.B.M.j.} } } } } } } | | ..m.......} I I I I I I I I } ....| | | } } } } ^ =.d.c.} j.s.s.d.d.d.d.B.B.B.B.B.B.",
"o B.B.B.B.B.B.Y.Y.Y.Y.B.B.U.U.l.k.....} } ..M.M.} } } } ................} } } | } } } } } ^ ^ #.d.d.s.s.d.d.d.d.d.d.B.B.B.B.B.B.",
"o B.B.B.B.B.B.B.Y.Y.Y.Y.Y.Y.Y.U.U.U.U.....M.B.M.} } } ^ #.-.^ } } } } } } ..m.M.........+.s.s.s.d.d.d.d.d.d.d.d.d.d.d.d.d.B.B.B.",
"o B.B.B.B.B.B.B.Y.Y.Y.Y.Y.Y.Y.Y.d.d.d.s.B.B.d.s.^ ^ ^ #.:.^ ^ ^ ^ } } ^ ^ :.d.B.B.B.B.s.s.d.d.d.d.d.d.d.d.d.d.d.d.d.d.d.d.d.d.d."
};
