/* XPM */
static const char *top_right4[] = {
/* columns rows colors chars-per-pixel */
"64 64 181 2 ",
"   c #0D112C",
".  c #12152B",
"X  c #161C2E",
"o  c #181E2E",
"O  c #171F30",
"+  c #1A212F",
"@  c #172031",
"#  c #1B2835",
"$  c #1C2C3A",
"%  c #1E323E",
"&  c #222A2E",
"*  c #212930",
"=  c #2B3533",
"-  c #2E3B34",
";  c #2E3E3A",
":  c #313C35",
">  c #364236",
",  c #394535",
"<  c #3E4138",
"1  c #3A4839",
"2  c #3E5038",
"3  c #404439",
"4  c #415438",
"5  c #495839",
"6  c #4A5C3A",
"7  c #56583E",
"8  c #4A603B",
"9  c #53633C",
"0  c #59663C",
"q  c #5C6F3F",
"w  c #5E723F",
"e  c #66743F",
"r  c #607B3F",
"t  c #1E3541",
"y  c #1F3845",
"u  c #213B44",
"i  c #223F48",
"p  c #23424A",
"a  c #26484E",
"s  c #3C5242",
"d  c #274C52",
"f  c #284F53",
"g  c #295255",
"h  c #2A5658",
"j  c #2C5C5D",
"k  c #33635E",
"l  c #2A5D61",
"z  c #2E6262",
"x  c #306664",
"c  c #316966",
"v  c #326C69",
"b  c #34726D",
"n  c #3E7E6E",
"m  c #2D7475",
"M  c #357772",
"N  c #377A73",
"B  c #397C74",
"V  c #455345",
"C  c #4A6846",
"Z  c #4A6649",
"A  c #4E6B4C",
"S  c #54734F",
"D  c #416A58",
"F  c #49735A",
"G  c #4B7B5B",
"H  c #5A7D52",
"J  c #636442",
"K  c #686843",
"L  c #607340",
"P  c #657A40",
"I  c #6A7C41",
"U  c #7B7A48",
"Y  c #4E7F62",
"T  c #407F6D",
"R  c #517161",
"E  c #567D67",
"W  c #407F71",
"Q  c #398077",
"!  c #5E8354",
"~  c #55805C",
"^  c #568C5F",
"/  c #5B8E5C",
"(  c #5E905A",
")  c #6E8443",
"_  c #698946",
"`  c #6B8B4D",
"'  c #778E45",
"]  c #788E44",
"[  c #719244",
"{  c #799145",
"}  c #769845",
"|  c #7A9D46",
" . c #749C4D",
".. c #789E4A",
"X. c #608555",
"o. c #658953",
"O. c #668D59",
"+. c #669456",
"@. c #699654",
"#. c #6E9951",
"$. c #629258",
"%. c #6A935B",
"&. c #6E9A5F",
"*. c #729D5E",
"=. c #789F59",
"-. c #7DA147",
";. c #7CA148",
":. c #7CA259",
">. c #4F8864",
",. c #44816D",
"<. c #4A856D",
"1. c #4D886C",
"2. c #538A62",
"3. c #598D67",
"4. c #528B6B",
"5. c #5C9165",
"6. c #5F916E",
"7. c #428072",
"8. c #578C70",
"9. c #639463",
"0. c #659667",
"q. c #6B9C64",
"w. c #749D6E",
"e. c #658E73",
"r. c #659470",
"t. c #6FA165",
"y. c #76A462",
"u. c #78A763",
"i. c #79A863",
"p. c #86854B",
"a. c #8E8D4E",
"s. c #918F4E",
"d. c #839C48",
"f. c #93914F",
"g. c #9D9A51",
"h. c #A09B51",
"j. c #81A346",
"k. c #84A548",
"l. c #89A449",
"z. c #83A848",
"x. c #8CAA49",
"c. c #90A448",
"v. c #92AD4A",
"b. c #96B14B",
"n. c #9CB54C",
"m. c #9BB94E",
"M. c #82A557",
"N. c #86AB56",
"B. c #8AAB55",
"V. c #81A458",
"C. c #93AF51",
"Z. c #8EB153",
"A. c #93B351",
"S. c #A1B74C",
"D. c #A3B94C",
"F. c #A8BB4F",
"G. c #A7A95A",
"H. c #B0AC57",
"J. c #A0B654",
"K. c #A7BA50",
"L. c #ABBD53",
"P. c #B0BF57",
"I. c #BAB55A",
"U. c #BFBA5B",
"Y. c #8DAB6C",
"T. c #98A862",
"R. c #ABBC6A",
"E. c #AAC14D",
"W. c #B1C057",
"Q. c #B3C159",
"!. c #BAC55D",
"~. c #BFC862",
"^. c #C1C962",
"/. c #C5CB66",
"(. c #C7CC67",
"). c #C9CD67",
"_. c #CCCF67",
"`. c #C0C869",
"'. c #C8CD68",
"]. c #CED066",
"[. c #47ABA9",
/* pixels */
"[.[.[.[.[.[.[.[.[.[.[.[.[.[.[.[.[.[.[.[.[.[.[.[.[.[.[.X X X X X X X [.[.[.[.[.[.[.[.[.[.[.[.[.[.[.[.[.[.[.[.[.[.[.[.[.[.X X X X ",
"[.[.[.[.[.[.[.X X X X X X [.[.[.[.[.[.[.[.[.[.[.[.[.X X X X X X X X X [.[.[.[.[.[.[.[.[.[.X X X X X X [.[.[.[.[.[.[.[.X X X X X ",
"[.[.[.[.[.[.X X X X X X X X [.X X X X [.[.[.[.[.[.[.X X X i.i.i.X X X X [.X X X [.[.[.[.X X X X X X X X [.X X X X X X X X U.U.U.",
"[.[.[.[.[.X X X m.m.m.m.X X X X X X X X X [.[.X X X X X i.i.i.i.i.X X X X X X X X X [.X X X U.U.U.X X X X X X X X X X X U.U.U.U.",
"[.[.[.[.[.X X m.m.m.m.m.m.X X X X X X X X X X X X X X X i.i.i.i.i.i.X X X U.U.U.X X X X X U.U.U.U.U.X X X X i.i.i.i.X X U.U.U.U.",
"[.[.[.[.[.X X m.m.m.m.m.m.X X X m.m.m.X X X X X m.m.X X X i.i.i.i.i.X X U.U.U.U.U.X X X U.U.U.U.U.U.X X X i.i.i.i.i.i.X U.U.U.U.",
"[.[.[.[.[.X X m.m.m.m.m.m.m.X m.m.m.m.m.m.X X m.m.m.m.m.X i.i.i.i.X X U.U.U.U.U.U.X X U.U.U.U.U.U.U.X X X i.i.i.i.i.i.X U.U.U.U.",
"[.[.[.[.[.X X X m.m.m.m.m.m.X m.m.m.m.m.m.X X m.m.m.m.m.U.U.U.i.i.X U.U.U.U.U.U.U.X X U.U.U.U.U.U.X X X X X i.i.i.U.U.X U.U.U.U.",
"[.[.[.X X X X X X m.m.m.m.m.m.m.m.m.m.m.m.X X m.m.m.m.U.U.U.U.U.U.U.U.U.U.U.U.U.X X U.U.U.U.U.U.X X U.U.X X X i.U.U.U.U.U.U.U.U.",
"[.[.X X X X X X X X i.i.m.m.m.m.m.m.m.m.m.m.X X m.m.U.U.m.m.U.U.U.U.U.U.U.U.U.U.U.U.U.U.U.U.U.U.U.U.U.U.U.X X X U.U.U.U.U.U.U.U.",
"[.X X X i.i.i.X X X i.i.i.m.m.m.m.m.m.m.m.m.m.m.m.m.U.m.m.m.m.U.U.U.U.U.U.U.U.m.m.m.U.U.U.U.U.m.m.U.U.U.U.m.m.U.U.U.U.U.U.U.U.U.",
"[.X X i.i.i.i.i.i.X i.i.i.i.i.m.m.m.m.m.m.m.m.m.m.m.m.m.m.m.m.m.m.m.m.U.U.U.m.m.m.m.m.U.U.m.m.m.m.m.m.U.m.m.m.m.U.U.U.U.U.U.U.U.",
"[.X X i.i.i.i.i.i.m.m.m.m.m.m.m.m.m.m.m.m.m.m.m.m.m.m.m.m.m.m.m.m.m.m.m.U.U.m.m.m.m.m.U.m.m.m.m.m.m.m.m.m.m.m.m.U.U.U.U.U.U.U.U.",
"[.X X i.i.i.i.i.m.m.m.m.m.m.m.m.m.m.m.m.m.m.m.m.m.m.m.m.m.m.m.m.m.m.m.m.m.m.m.m.m.m.m.U.m.m.m.m.m.m.m.m.m.m.m.m.U.U.U.U.U.m.m.m.",
"[.X X i.i.i.i.i.m.m.m.m.m.m.m.m.m.i.m.m.m.m.m.m.m.m.m.m.m.m.m.m.m.m.m.m.m.m.m.m.m.m.m.m.m.m.m.m.m.m.m.m.m.m.m.m.m.m.m.m.m.m.m.m.",
"[.X X X i.i.i.X m.m.m.m.m.m.m.m.i.i.i.m.i.i.i.i.m.m.m.m.m.m.U.U.U.m.m.m.m.m.m.m.m.m.m.m.m.m.m.m.m.m.m.m.m.m.m.m.m.m.m.m.m.m.m.m.",
"[.[.X X X X X X X i.i.i.i.i.i.i.i.i.i.i.i.i.i.i.i.m.m.m.U.U.U.U.U.U.m.m.m.m.m.m.m.m.m.m.i.i.i.m.m.m.m.m.m.m.m.m.m.m.m.m.m.m.m.m.",
"[.[.[.X X X X X X i.i.i.i.i.i.i.i.i.i.i.i.i.i.i.i.U.U.U.U.U.U.U.U.U.U.U.U.U.i.i.i.m.m.i.i.i.i.i.m.m.m.m.m.m.m.m.m.m.m.m.m.m.m.m.",
"[.[.X X X m.m.m.X X i.m.m.m.m.m.i.i.i.i.i.i.i.i.i.i.i.i.U.U.U.U.U.U.U.U.U.i.i.i.i.i.i.i.m.m.i.i.i.m.m.m.m.m.m.i.i.i.m.m.m.m.m.m.",
"[.[.X X m.m.m.m.m.m.m.m.m.m.m.m.m.i.i.i.m.m.m.i.i.i.i.i.i.i.U.U.U.i.i.i.i.i.m.m.i.i.i.m.m.m.m.i.i.i.m.m.m.m.i.i.i.i.i.m.m.m.i.i.",
"[.[.X X m.m.m.m.m.m.m.m.m.m.m.m.m.i.i.m.m.m.m.N.N N N N N 5.m.m.m.m.n.3.N N N N B B.A.m.m.A.A.A.A.m.m.m.m.i.i.i.i.i.i.i.i.i.i.i.",
"[.[.X X m.m.m.m.m.m.m.m.m.m.m.m.m.m.m.A.Z.A.N.B N ,.,.,.B N 9.m.Z.A.5.N N W ,.,.,.B ,.B.N.B B N <.A.m.m.m.i.i.i.i.i.i.i.i.i.i.i.",
"[.[.[.X X m.m.m.m.m.m.m.m.m.m.m.m.m.Z.,.N N N N <.n.n.S.V.B 5.q.N N N N W B.n.n.n.1.N N N N ,.,.,.<.A.m.i.i.i.i.m.m.m.i.i.i.i.i.",
"[.[.[.X X X X X X X X m.m.m.m.X X $ ,.N <.<.<.N 3.S.S.S.D.:.M N N N N ,.N.D.K.K.S.n.4.N N 3.n.S.M.N 1.t.q.y.i.m.m.m.m.m.m.m.m.m.",
"[.[.[.[.X X X X X X X X X X X X $ v N 1.b.S.A.<.S.S.S.S.n.9.7.8.8.7.M :.D.K.^.(.D.S.b.B ,.n.S.D.B.,.N N N 4.q.A.m.m.m.m.m.m.m.m.",
"[.[.[.X X X X X U.U.X X X X G.T.1.N N A.S.S.A.,.S.L.K.D.:.m w.]._.Y.B :.D.~.).(.L.S.n.6.r.L.K.S.D.V.M N N N N 9.A.m.m.m.m.m.m.m.",
"[.[.X X X U.U.U.U.U.U.U.X G.4.N N N N C.S.S.b.9.P.'.^.J.9.W Y.).(.].r.=.L.^.(.(.(.D.L.).).'.^.L.D.:.B 3.3.3.,.N 0.i.i.i.i.m.m.m.",
"[.X X U.U.U.U.U.U.U.U.U.h.E N 4.3.B N A.L.L.L.F.(.(.).R.r.Y._.(.(.).Y.B.!.'.(.(.(.Q./.(.(.(.).~.D.B.*.D.D.D.:.,.4.y.i.i.i.i.i.i.",
"X X U.U.U.U.U.U.U.U.O.S ; i Y C.D.&.B &.^.'./.Q.(.(.(.)._.).(.(.(.(.).!.^.'.(.(.(.'.(.(.(.(.).~.S.D.D.S.S.S.D.9.N T.U.U.U.U.U.U.",
"X X U.U.U.U.X X i.%.> X .   ] E.S.D.*.w.`.(.(.'.(.(.(.(.(.).'.(.(.(.'.'.).(.(.'.(.(.(.(.(.(./.W.S.S.S.S.S.S.D.9.N T.U.U.U.U.U.U.",
"X X X U.U.X X m.m.L . - 6 6 9 0 c.S.D.Q.Q.(.'.'.(.(.(.'.'.^.!.).'.'.!.^.'.(.(.!./.'.'.'.'./.W.S.S.F.F.D.D.D.B.<.4.Z.m.m.m.m.m.m.",
"X X X X X X m.m.d.> - _ z.z.P 0 c.S.S.S.S.Q.Q.Q.'.'.^.Q.Q.L.P.'.~.Q.D.!.'.(.(.D.L.Q.Q.Q.Q.P.D.F.c.9 9 ] B.q.D G Z.m.m.m.m.m.m.m.",
"[.X X X X X m.d.> . 8 z.;.x.S.F.S.S.S.S.x.n.S.S.W.Q.L.S.S.S.K.Q.K.n.L.^.(.(.(.!.Q.S.S.S.S.S.c.6 ,     = F z $ , 9 d.m.m.m.m.m.U.",
"[.[.[.X X X X > X . 8 z.;.v.S.S.S.S.x.x.v.S.S.S.S.S.S.S.S.S.S.S.S.S.!.'.(.(.(.'.'.D.S.S.S.S.v.e I I 5   $ $ . . X , k.m.m.m.U.U.",
"[.[.X X X X X % j u & P -.v.S.S.S.S.b.j.n.S.S.S.n.x.v.S.S.S.S.S.S.S.!.'.(.(.(.(.Q.S.S.S.S.S.S.D.D.F.v.5 . , w w = . f.U.U.U.U.U.",
"[.[.X X X X $ v B b y & r z.n.S.S.S.S.k.n.S.n.x.k.;.;.x.S.S.S.S.S.S.K.~.'.).).W.S.S.S.S.S.S.S.S.S.S.F.I   8 z.z._ = : k.U.U.U.U.",
"[.X X d.X $ v B N B v l ! ;.z.n.S.S.x.;.k.k.k.;.;.;.;.k.S.S.S.S.S.v.b.K.L.L.L.S.S.S.S.S.S.S.S.S.S.S.F.e > [ ;.;.z., X { m.m.U.m.",
"X X m.d.X t B N N N N N $.;.;.z.k.k.;.;.;.;.;.j.n.n.n.v.x.S.S.S.v.;.v.S.S.S.S.S.S.n.x.S.S.S.S.S.S.S.S.l.[ ;.;.j.6 + X = l.m.m.m.",
"X X m.d.X t B B j $ $ C ;.;.;.;.;.;.;.b.n.j.j.n.S.S.S.S.v.z.k.k.j.;.j.b.S.S.S.S.S.n.j.z.k.x.S.S.S.S.b.j.;.;.;.;.G t X X = l.m.m.",
"X X m.d.X t B j @ X 4 | ;.;.;.;.;.;.b.S.S.n.n.S.S.S.S.S.b.;.;.;.x.n.x.j.z.n.S.S.S.n.j.j.n.n.S.n.j.j.j.;.;.;.;./ B b % X X %.i.m.",
"X X X X X O # @ . 2 | ;.;.;.;.;.;.;.n.S.S.S.S.S.S.S.S.S.S.n.v.;.v.S.S.x.;.n.S.S.S.k.j.n.S.S.S.n.;.;.;.;.;.;.j.2.N N b $ X %.i.i.",
"[.X X X X X X @ . 4 ;.;.| } } ..;.;.j.j.n.n.S.S.S.S.S.S.S.S.S.n.x.v.S.n.n.x.j.n.n.j.;.z.n.S.S.S.v.;.;.;.;.;.;.2.N N B % X %.i.i.",
"[.[.X X X @ u j O X 6 | 4 + # x #.;.;.;.;.j.n.S.S.b.l.S.S.S.S.S.x.;.v.n.n.k.;.;.;.;.;.;.z.n.n.b.;.;.;.;.....^ N N N M $ X %.m.m.",
"[.[.X X u M M N h O o + o @ j N +.;.;.;.;.;.j.n.n.;.k.n.S.S.S.n.x.;.;.;.;.;.;.;.;.;.;.;.;.;.;.;.;.;.j.$.N B N N b b t X * ) n.m.",
"[.X X $ N N N N B h # $ O d N N N @. . .;.;.;.;.;.;.;.k.n.n.x.;.;.;.;.;.;.;.;.;.;.;.;.;.;.;.;.;.;.;.;.+.B N N B i X X * P { v.m.",
"[.X X $ N N N N N N N B d X f M N N ,.,...;.;.;.;.;.;.;.;.;.;.....;.;.;.;.;.;. .;.;.;.;.;.;.;.;.;.;.;.;.$.B N b t X X J a.f.f.I.",
"[.X X $ v B B N N N N N B d $ x B N  .;.;.;.;.;. .;.;.;.;.;...>./ j.;.;.;.;. .T  .;.;.;.;. .;.;.;.;.;.;.j./ N d $ @ X X U f.g.I.",
"[.X X X $ z z c N N N N N N B N N N $.;.;.;.;.$.,.;.;.;.;.../ ,./ ..j.;.;. .,.,...;.;.;. .,.;.;.;.;.;.;...2.N N B d @ X U f.H.m.",
"[.[.X X X X O f B N N N N N N N N N N $.@.@...<.,.;.;.;.j.$.2.j.^ >.@.+.+.,.N  .;.;.;.;. .,.;.;.;.;.;.j.( N N N N B t X U { ' x.",
"[.[.X X X @ g B N N N N N N N N N N N N N >.;. .T @.;.j...2.2.j.+.>.B ,.>.B N / ;.;.;.+.( n @.j.;.;.j. .G c N N N B t X P { ' R ",
"[.X X X X t B N N B c c N N N N N N N N B ;.;. .N n $.$.2.M 2.j.;.j.$. .j.( B N / $.( N N N n $.$.$.+.G t a B N B z $ X P { { E ",
"[.X X P X t B N B v $ d B N N N N N N N N ( ;./ N N N N N N ^ j.;.;.j.@. .j.,.N N N N N N N N N N v f t . f B N z $ X < p.R R e.",
"[.X X P X # j Q v % $ x B N N N N N N N N N ^ N N N N N N N ,.#.;.;.j.>.>./ n N N N N N N N N N N c p a % % c Q u . 3 p.f.f.G.U.",
"[.X X ) 1 X # d t . f Q N N N N N N N N N N N N N N N N N N N ,.#.j.@.,.N N N N N N N N N N B N N N B Q g . % d V 7 p.f.s.s.I.U.",
"[.X X X ' 1 X X X X $ z B N N N B N N N N N N N N N N B N N N N ,.^ ,.N N N N N N N N N N b g B N N B x % X X X K { ] ' s.G.U.U.",
"[.[.X X X X 9 9 9 > X $ p x B B f v N N N N N N N B v g B N N N N N N N N N N N N N N N N v @ f B B c $ X < J J I ] ' ' l.U.U.U.",
"[.[.X X X l.{ { { ) > X . % u u @ c B N N N N N B b % @ g B B B N B g z N N N N N N N B b u X @ u u % X X 5 { { { ' l.x.n.m.m.m.",
"[.[.X X m.n.%.! ! X.S Z Z = X X X % u F B N N b u % X X # u u t j h @ j B N N N N N M u % X X X X X X : q I { ' ' l.n.m.m.m.m.m.",
"[.X X X m.m.n.v.k.! ! X.X.S Z w w w w ' ~ ~ o.o.w Z A s X X X X # # X $ x B N N N N N k q w w w w w w I { { ! %.*.n.m.m.m.m.m.m.",
"X X X X X m.m.m.n.b.k.' ! ! ! { { { { ' ! ] ] ] { { { H A A A P , X X X $ % % v N N o.` { { | b.x.{ { { ' %.y.y.i.i.m.m.m.m.m.m.",
"X X m.m.m.m.m.m.m.m.n.b.d.' ' ' ' ' ' ' ' ' { v.' ' ' ' { { { { ) P P P P P P ` ` ` ' ] ' ' ! %.u.l.' d.y.y.i.i.i.i.m.m.m.m.m.m.",
"X m.m.m.m.m.m.U.U.U.U.m.n.I.I.g.f.{ { ' ' { b.b.' ' ' ' ' { ' ' ' { { { { { { { ] ] ' ' ' ! ! O.i.u.y.y.i.i.i.i.i.i.m.m.m.m.m.m.",
"X m.m.m.m.m.m.m.U.U.U.U.U.U.U.I.I.I.I.{ { b.m.b.] ' ' ! O.&.! ' ' ' ' ' ' { v.b.{ { { { X.y.y.y.i.i.i.i.i.i.i.i.i.i.i.i.i.m.m.m.",
"X m.m.m.m.m.m.m.U.U.U.U.U.U.U.U.i.i.i.y.n.m.i.y.! ! ! O.*.! ! ! ! ' ' ! ! *.i.m.n.n.n.y.y.i.i.i.i.i.i.i.i.i.i.i.i.i.i.i.i.i.i.i."
};
