/* XPM */
static const char *top_right4[] = {
/* columns rows colors chars-per-pixel */
"64 64 195 2 ",
"   c #0D112C",
".  c #12152B",
"X  c #161C2E",
"o  c #181E2E",
"O  c #171F30",
"+  c #1A212F",
"@  c #172031",
"#  c #192333",
"$  c #1B2835",
"%  c #1C2C3A",
"&  c #1E323E",
"*  c #222A2E",
"=  c #202830",
"-  c #2B3633",
";  c #2E3B34",
":  c #2A383A",
">  c #313C35",
",  c #364236",
"<  c #394535",
"1  c #3E4239",
"2  c #3A4839",
"3  c #3E5038",
"4  c #415438",
"5  c #4A5B3A",
"6  c #495839",
"7  c #4B4E3C",
"8  c #4A603B",
"9  c #54643C",
"0  c #5A6A3D",
"q  c #5E723F",
"w  c #64773F",
"e  c #1E3541",
"r  c #1F3845",
"t  c #213B44",
"y  c #223F48",
"u  c #26484E",
"i  c #23424A",
"p  c #3C5242",
"a  c #274C52",
"s  c #284F53",
"d  c #295255",
"f  c #2C5C5D",
"g  c #2A5658",
"h  c #33635E",
"j  c #2A5D61",
"k  c #2E6262",
"l  c #2F6868",
"z  c #306664",
"x  c #316966",
"c  c #326C69",
"v  c #34726D",
"b  c #3E7E6E",
"n  c #357772",
"m  c #377A73",
"M  c #397C74",
"N  c #35767B",
"B  c #2D7475",
"V  c #435645",
"C  c #4A6649",
"Z  c #4E6B4C",
"A  c #4A6846",
"S  c #54734F",
"D  c #476358",
"F  c #416A58",
"G  c #4A785B",
"H  c #5A7D52",
"J  c #646542",
"K  c #657A40",
"L  c #6A7B41",
"P  c #607340",
"I  c #7B7A48",
"U  c #407F6D",
"Y  c #487961",
"T  c #517261",
"R  c #587C68",
"E  c #537E65",
"W  c #407F71",
"Q  c #3A8178",
"!  c #398077",
"~  c #5E8354",
"^  c #568C5F",
"/  c #5B8E5C",
"(  c #55805C",
")  c #5E905A",
"_  c #6E8443",
"`  c #6B8B4D",
"'  c #698946",
"]  c #778E45",
"[  c #788E44",
"{  c #799145",
"}  c #769845",
"|  c #7A9D46",
" . c #749C4D",
".. c #789E4A",
"X. c #719244",
"o. c #608555",
"O. c #648955",
"+. c #668D59",
"@. c #688F5A",
"#. c #669456",
"$. c #699654",
"%. c #6E9951",
"&. c #629258",
"*. c #6A935B",
"=. c #6E9A5F",
"-. c #719C5E",
";. c #789F59",
":. c #7DA147",
">. c #7CA148",
",. c #7CA259",
"<. c #4E8765",
"1. c #44816D",
"2. c #4A856D",
"3. c #4D886C",
"4. c #4F8864",
"5. c #538A62",
"6. c #598D67",
"7. c #528A6B",
"8. c #5C9165",
"9. c #5F916E",
"0. c #428072",
"q. c #578C70",
"w. c #5F8D75",
"e. c #639463",
"r. c #6B9C64",
"t. c #6A9567",
"y. c #749D6E",
"u. c #608E75",
"i. c #679175",
"p. c #6A9770",
"a. c #6FA165",
"s. c #75A462",
"d. c #78A763",
"f. c #79A863",
"g. c #84834B",
"h. c #918F4E",
"j. c #839C48",
"k. c #92914F",
"l. c #9B9851",
"z. c #A09B51",
"x. c #81A346",
"c. c #84A548",
"v. c #89A449",
"b. c #83A848",
"n. c #8CAA49",
"m. c #90A448",
"M. c #92AD4A",
"N. c #96B14B",
"B. c #9CB54C",
"V. c #9BB94E",
"C. c #86AB56",
"Z. c #8AAB55",
"A. c #81A458",
"S. c #82A557",
"D. c #93AF51",
"F. c #8FB153",
"G. c #93B251",
"H. c #A1B74C",
"J. c #A3B94C",
"K. c #A8BB4F",
"L. c #A9A757",
"P. c #A7BA50",
"I. c #ABBD53",
"U. c #A0B654",
"Y. c #BAB55A",
"T. c #BFBA5B",
"R. c #B1BC59",
"E. c #8DAB6C",
"W. c #8FA463",
"Q. c #98A862",
"!. c #ABBC6A",
"~. c #AAC14D",
"^. c #B1C057",
"/. c #B3C159",
"(. c #BAC55D",
"). c #BEC761",
"_. c #BFC862",
"`. c #C5CB66",
"'. c #C7CC67",
"]. c #C6CC67",
"[. c #C4CB65",
"{. c #C9CD67",
"}. c #CCCF67",
"|. c #C8CD68",
" X c #C8CD68",
".X c #CACE69",
"XX c #C8CD68",
"oX c #C0C869",
"OX c #CED066",
"+X c #3A8587",
"@X c #3F9394",
"#X c #45A6A5",
"$X c #46A9A7",
"%X c #47ABA9",
"&X c #47ABA9",
/* pixels */
"X X X %X%X%X%X%X%X%X%X%X%X%X%X%X%X%XX X X X %X%X%X%X%X%X%X%X%XX X X X X X X %X%X%X%X%X%X%X%X%X%X%X%X%X%X%X%X%X%X%X%X%X%X%X%X%X%X",
"X X X X X %X%X%XX X X X X X %X%X%XX X X X X X %X%X%X%X%X%X%XX X X X X X X X X %X%X%X%X%X%X%X%X%X%X%XX X X X %X%X%X%X%X%X%X%X%X%X",
"T.T.T.X X X %XX X X X X X X X %XX X X V.V.X X %XX X X X X %XX X X T.T.T.T.X X %X%X%X%X%X%X%X%X%XX X X X X X X X %X%X%X%X%X%X%X%X",
"T.T.T.T.X X X X X X T.T.T.T.X X X X V.V.V.V.X X X X X X X X X X T.T.T.T.T.T.X X %X%X%X%X%X%X%XX X X X V.V.V.X X X %X%X%X%X%X%X%X",
"T.T.T.T.X X X X X T.T.T.T.T.T.X X X V.V.V.V.V.X X X f.f.X X X X T.T.T.T.T.T.X X X X X X X %X%XX X X V.V.V.V.V.X X X %X%X%X%X%X%X",
"V.V.V.T.T.X X X X T.T.T.T.T.T.T.X X V.V.V.V.V.X X f.f.f.f.X X X T.T.T.T.T.X X X X X X X X X %XX X f.V.V.V.V.V.V.X X %X%X%X%X%X%X",
"V.V.V.V.V.V.T.X X T.T.T.T.T.T.T.T.X X V.V.V.V.V.X f.f.f.T.T.X X T.T.T.T.T.X X T.T.T.T.T.X X X X X V.V.V.V.V.V.V.X X %X%X%X%X%X%X",
"V.V.V.V.V.V.V.V.X X X T.V.V.V.V.T.V.X V.V.V.V.V.f.f.f.T.T.T.T.X T.T.T.T.X X T.T.T.T.T.T.T.X X f.f.V.V.V.V.V.V.V.X X %X%X%X%X%X%X",
"T.T.V.V.V.V.V.V.V.T.T.T.V.V.V.V.V.V.V.V.V.V.V.V.V.f.f.T.T.T.T.X T.T.T.T.X T.T.T.T.T.T.T.T.X X f.f.V.V.V.V.V.V.V.X X %X%X%X%X%X%X",
"T.T.T.V.V.V.V.V.V.V.V.V.V.V.V.V.V.V.V.V.V.V.V.V.V.V.T.T.V.V.T.T.T.T.T.T.T.T.T.T.T.T.T.T.T.X X f.f.V.V.V.V.V.X X X X X %X%X%X%X%X",
"T.T.T.V.V.V.T.T.V.V.V.V.V.V.V.V.V.V.V.V.V.V.V.V.V.V.T.V.V.V.V.T.T.T.T.T.T.T.T.V.V.V.T.X X X f.f.f.f.V.V.X X X X X X X X %X%X%X%X",
"T.T.T.V.V.T.T.T.T.T.V.V.V.V.V.V.V.V.V.V.V.V.V.V.V.V.V.V.V.V.V.V.V.V.V.T.T.T.V.V.V.V.X X X X f.f.f.f.f.V.X X V.V.V.V.X X X %X%X%X",
"T.T.T.T.T.T.T.T.T.T.T.T.T.T.T.T.T.T.T.V.V.V.V.V.V.V.V.V.V.V.V.V.V.V.V.V.T.T.V.V.V.V.X V.V.V.f.f.f.f.f.V.V.V.V.V.V.V.V.X X %X%X%X",
"T.T.T.T.T.T.T.T.T.V.V.V.V.V.V.V.V.V.V.V.V.V.V.V.V.V.V.V.V.V.V.V.V.V.V.V.V.V.V.V.V.V.V.V.V.V.V.f.f.f.f.V.V.V.V.V.V.V.V.X X %X%X%X",
"V.V.V.V.V.V.V.V.V.V.V.V.f.f.f.f.f.f.V.V.V.V.V.V.V.V.V.V.V.V.V.V.V.V.V.V.V.V.V.V.V.V.V.f.f.f.f.f.f.V.V.V.V.V.V.V.V.V.V.X X %X%X%X",
"V.V.V.V.V.V.V.V.V.V.f.f.f.f.f.f.f.f.f.V.f.f.f.f.V.V.V.V.V.V.T.T.T.V.V.V.V.V.V.V.V.V.V.f.f.f.f.f.f.V.V.V.X X V.V.V.V.X X X %X%X%X",
"V.V.V.V.V.V.V.V.f.f.f.f.f.f.f.f.f.f.f.f.f.f.f.f.f.V.V.V.T.T.T.T.T.T.V.V.V.V.V.V.V.V.V.V.f.f.f.f.V.V.V.V.V.V.X X X X X X %X%X%X%X",
"V.V.V.V.V.V.V.f.f.f.f.f.f.f.f.f.f.f.f.f.f.f.f.f.f.T.T.T.T.T.T.T.T.T.T.T.T.T.f.f.f.V.V.f.f.f.f.f.V.V.V.V.V.V.f.X X X X X %X%X%X%X",
"V.V.V.V.V.f.f.f.f.f.f.V.V.V.V.V.f.f.f.f.f.f.f.f.f.f.f.f.T.T.T.T.T.T.T.T.T.f.f.f.f.f.f.f.V.V.f.f.f.V.V.V.V.V.V.V.X X %X%X%X%X%X%X",
"V.V.V.f.f.f.f.f.f.f.V.V.V.V.V.V.V.f.f.f.V.V.V.f.f.f.f.f.f.f.T.T.T.f.f.f.f.f.V.V.f.f.f.V.V.V.V.f.f.V.V.V.V.V.V.V.X X %X%X%X%X%X%X",
"f.V.V.V.V.V.V.V.V.V.V.V.V.V.V.V.V.f.f.V.V.V.V.C.m m m m m 8.V.V.V.V.B.6.m m m m M Z.G.V.V.G.G.s.s.f.V.V.V.V.V.X X X X %X%X%X%X%X",
"f.f.f.f.V.V.V.V.V.V.V.V.V.V.V.V.V.V.V.G.F.G.C.M m 1.1.1.M m e.V.F.G.8.m m W 1.1.1.M 1.Z.C.M M m 2.s.f.f.V.V.V.f.X X X %X%X%X%X%X",
"V.V.V.V.V.V.V.V.V.V.V.V.V.V.V.V.V.V.F.1.m m m m 2.B.B.H.A.M 8.r.m m m m W Z.B.B.B.3.m m m m 1.1.1.2.s.f.f.f.f.f.f.X X %X%X%X%X%X",
"V.V.V.V.V.V.V.V.i.i.i.i.i.V.V.i.i.u.1.m 2.2.2.m 6.H.H.H.J.,.n m m m m 1.Z.J.J.P.J.B.7.m m 6.B.J.A.m 3.a.a.s.f.f.f.X X X %X%X%X%X",
"V.V.V.V.V.V.V.i.i.i.i.i.i.i.i.i.u.M m 3.N.H.G.2.H.H.H.H.B.e.0.q.q.0.n ,.J.P.[.'.J.H.N.M 1.B.H.J.Z.1.m m m 7.r.s.X X X X X X %X%X",
"V.V.V.V.V.i.i.i.T.T.T.T.i.i.w.Q.3.m m G.H.H.G.1.H.I.P.J.,.B y.OX}.E.M ,.J._.{.'.I.H.B.9.p.I.P.H.J.A.n m m m m e.G.T.T.T.X X X %X",
"V.V.i.i.i.i.T.T.T.T.T.T.T.L.7.m m m m D.H.H.N.e.R.|.[.U.e.W E.{.'.OXp.;.I.[.'.'.'.J.I.{.{.|.[.I.J.,.M 6.6.6.1.m W.T.T.T.T.X X %X",
"T.i.i.T.T.T.T.T.T.T.T.T.z.E m 7.6.M m G.I.I.I.K.'.'.{.!.i.E.}.'.'.{.E.Z.(.|.'.'.'./.`.'.'.'.{._.J.Z.-.J.J.J.,.1.t.Y.T.T.T.X X %X",
"T.T.T.T.T.T.T.T.T.T.+.S > y E D.J.=.M =.[.|.`./.'.'.'.{.}.{.'.'.'.'.{.(.[.|.'.'.'.|.'.'.'.'.{._.H.H.J.H.H.H.J.e.m Q.T.T.T.X X %X",
"V.V.V.V.V.V.T.T.f.*., X .   [ ~.J.J.-.y.oX'.'.|.'.'.'.'.'.{.{.'.'.'.|.|.'.'.'.|.'.'.'.'.'.'.`.^.H.H.H.H.H.H.J.e.m Q.T.T.X X X %X",
"V.V.V.V.V.V.V.V.V.P . ; 5 5 9 9 m.J.J././.'.|.|.'.'.'.|.|.[.(.{.'.|.(.[.|.'.'.(.`.|.|.|.|.`.^.H.J.K.K.J.J.J.Z.2.f % X X X X %X%X",
"V.V.V.V.V.V.V.V.j., ; ' b.b.K 9 m.J.H.H.H./././.|.|.[././.I.^.|._./.J.(.|.'.'.J.I././././.R.J.K.m.9 9 [ Z.r.F Y s.X X X X %X%X%X",
"T.T.T.V.V.V.V.j., . 8 b.>.n.J.K.J.H.J.H.n.B.H.J.^./.I.B.H.H.P./.P.B.I.[.'.'.'.(./.H.H.H.H.H.m.5 <     - F k % < V *.X X X %X%X%X",
"T.T.T.T.V.j.6 , X . 8 b.>.M.J.H.H.H.n.n.M.H.H.H.H.H.H.H.H.H.H.H.H.H.(.|.'.'.'.|.|.J.H.H.H.J.M.w L L 6   % % . . X < c.X X X %X%X",
"T.T.T.T.L.1 X & f t * K :.M.J.H.H.H.N.x.B.H.H.J.B.n.M.J.H.H.H.H.H.H.(.|.'.'.'.'./.J.H.H.H.H.J.J.J.K.M.6 . < q q - . { V.X X %X%X",
"V.V.V.L.1 X % c M v r * q b.B.H.H.H.H.c.B.J.B.n.c.>.>.n.H.H.H.H.H.H.P._.|.{.{.^.H.H.H.H.H.H.H.H.H.H.K.L   8 b.b.' - > c.V.X X %X",
"V.V.V.j.X % c M m M c j ~ >.b.B.J.H.n.>.c.c.c.>.>.>.>.c.J.H.H.H.J.M.N.P.I.I.I.H.H.H.H.H.H.H.H.H.H.H.K.w , X.>.>.b.< X { V.X X %X",
"V.V.V.j.X e M m m m m m &.>.>.b.c.c.>.>.>.>.>.x.B.B.B.M.n.H.H.J.M.>.M.H.H.H.H.H.H.B.n.H.H.H.H.H.H.H.J.v.X.>.>.x.5 + X - v.X X %X",
"V.V.V.j.X e M M f % % A >.>.>.>.>.>.>.N.B.x.x.B.H.H.H.H.M.b.b.c.x.>.x.N.H.H.H.H.H.B.x.b.c.n.H.H.H.J.N.x.>.>.>.>.G e X X - X X %X",
"V.V.V.j.X e M f @ X 4 | >.>.>.>.>.>.N.H.H.B.B.H.H.H.H.J.N.>.>.>.n.B.n.x.b.B.H.H.H.B.x.x.B.B.H.B.x.x.x.>.>.>.>./ M v & X X X X %X",
"f.f.f.O.X O $ @ . 3 | >.>.>.>.>.>.>.B.H.H.H.H.H.H.H.H.H.H.B.M.>.M.H.H.n.>.B.H.H.H.c.x.B.H.H.H.B.>.>.>.>.>.>.x.5.m m v % X X X %X",
"f.f.+.$ X X X @ . 4 >.>.| } } ..>.>.x.x.B.B.H.H.H.H.B.H.H.H.H.B.n.M.H.B.B.n.x.B.B.x.>.b.B.H.H.H.M.>.>.>.>.>.>.5.m m M & X X %X%X",
"V.n.= X X @ t f O X 5 | 4 + $ z %.>.>.>.>.x.B.H.H.N.v.H.H.H.H.J.n.>.M.B.B.c.>.>.>.>.>.>.b.B.B.N.>.>.>.>.....^ m m m v % X @X%X%X",
"V.v.+ X t n n m g O o + o @ f m #.>.>.>.>.>.x.B.B.>.c.B.H.H.H.B.n.>.>.>.>.>.>.>.>.>.>.>.>.>.>.>.>.>.x.&.m M m m v v e X $ N #X%X",
"B._ o % m m m m M g $ % O a m m m $. . .>.>.>.>.>.>.>.c.B.B.n.>.>.>.>.>.>.>.>.>.>.>.>.>.>.>.>.>.>.>.>.#.M m m M y X X X N +X#X%X",
"B._ o % m m m m m m m M a X s n m m 1.1...>.>.>.>.>.>.>.>.>.>.....>.>.>.>.>.>. .>.>.>.>.>.>.>.>.>.>.>.>.&.M m v e X X X +X+X+X#X",
"M._ o % c M M m m m m m M a % z M m  .>.>.>.>.>. .>.>.>.>.>...4./ x.>.>.>.>. .U  .>.>.>.>. .>.>.>.>.>.>.x./ m a % @ X X X X X $X",
"] _ - X % k k x m m m m m m M m m m &.>.>.>.>.&.1.>.>.>.>.../ 1./ ..x.>.>. .1.1...>.>.>. .1.>.>.>.>.>.>...5.m m M a @ X I X X X ",
"T T _ : X X O s M m m m m m m m m m m &.$.$...2.1.>.>.>.x.&.5.x.^ 4.$.#.#.1.m  .>.>.>.>. .1.>.>.>.>.>.x.) m m m m M e X I k.X X ",
"R R T D X @ d M m m m m m m m m m m m m m 4.>. .U $.>.x...5.5.x.#.4.M 1.4.M m / >.>.>.#.) b $.x.>.>.x. .G x m m m M e X I k.X X ",
"i.L.k.D X e M m m M x x m m m m m m m m M >.>. .m b &.&.5.n 5.x.>.x.&. .x.) M m / &.) m m m b &.&.&.#.G e u M m M k % X I X X X ",
"Y.h.k.I X e M m M c % a M m m m m m m m m ) >./ m m m m m m ^ x.>.>.x.$. .x.1.m m m m m m m m m m c s e . s M M k % X 1 X X X #X",
"T.L.k.I X $ f ! c & % z M m m m m m m m m m ^ m m m m m m m 1.%.>.>.x.4.4./ b m m m m m m m m m m x i u & & x ! t . 7 X X X X $X",
"T.Y.k.g.2 X $ a e . s ! m m m m m m m m m m m m m m m m m m m 1.%.x.$.1.m m m m m m m m m m M m m m M ! d . & a V 9 X X X X X X ",
"T.T.v.] ] 2 X X X X % z M m m m M m m m m m m m m m m M m m m m 1.^ 1.m m m m m m m m m m v d M m m M z & X X X J l.X ] ] X X X ",
"V.V.B.v.] _ 9 9 9 , X % i z M M s c m m m m m m m M c d M m m m m m m m m m m m m m m m m c @ s M M x % X , 9 J g.{ ] ] v.B.X X ",
"V.V.V.B.n.v.{ { { _ , X . & t t @ x M m m m m m M v & @ d M M M m M d k M m m m m m m M v t X @ t t & X X 6 O.o.~ ] v.n.B.V.X X ",
"V.V.V.V.V.B.*.~ ~ o.S C C : X X X & t G M m m v t & X X $ t t e f g @ f M m m m m m n t & X X X X X X > q X X X ~ *.B.V.V.V.X X ",
"V.V.V.V.V.V.B.M.c.~ ~ o.o.S C q q q q ] ( ( O.O.q C Z p X X X X $ $ X % z M m m m m m h q q q q q q q L { { X X X s.V.V.V.V.X X ",
"V.V.V.V.V.V.V.V.B.N.c.] ~ ~ ~ { { { { ] ~ [ [ [ { { { H Z Z Z K < X X X % & & c m m O.` { { { N.n.{ { { ] *.s.X X X V.V.V.X X X ",
"V.V.V.V.V.V.T.T.V.V.B.N.j.] ] ] ] ] ] ] ] ] { M.] ] ] ] { { { { _ K K K K K K ` ` ` ] [ ] ] ~ *.d.v.] j.s.s.f.X X X X X X X X %X",
"V.V.V.V.V.T.T.T.T.V.V.V.B.Y.Y.l.k.{ { ] ] { N.N.] ] ] ] ] { ] ] ] { { { { { { { [ [ ] ] ] ~ ~ +.f.d.s.s.f.f.f.X X X X X X X %X%X",
"V.V.V.T.T.T.T.T.T.T.T.T.T.T.T.Y.Y.Y.Y.{ { N.V.N.[ ] ] ~ +.=.~ ] ] ] ] ] ] { M.N.{ { { { O.s.s.s.f.f.f.f.f.f.f.X X f.f.f.X X X %X",
"f.f.T.T.T.T.T.T.T.T.T.T.T.T.T.T.f.f.f.s.B.V.f.s.~ ~ ~ +.-.~ ~ ~ ~ ] ] ~ ~ -.f.V.B.B.B.s.s.f.f.f.f.f.f.f.f.f.X X f.f.f.V.V.V.X X "
};
