/* XPM */
static const char *top_2[] = {
/* columns rows colors chars-per-pixel */
"64 64 184 2 ",
"   c #0D112C",
".  c #12162B",
"X  c #161C2E",
"o  c #181F2E",
"O  c #121227",
"+  c #171F30",
"@  c #1B222F",
"#  c #172031",
"$  c #182333",
"%  c #1A2836",
"&  c #1C2C3A",
"*  c #1E323E",
"=  c #21292F",
"-  c #212B33",
";  c #282D33",
":  c #2B3332",
">  c #2E3B35",
",  c #333E35",
"<  c #2F403B",
"1  c #364336",
"2  c #3A4636",
"3  c #3B4537",
"4  c #43463A",
"5  c #424938",
"6  c #405238",
"7  c #465A3A",
"8  c #4C5D3B",
"9  c #4A5639",
"0  c #4C613B",
"q  c #53633C",
"w  c #5B6D3E",
"e  c #5E713F",
"r  c #5E793F",
"t  c #63743F",
"y  c #1F3541",
"u  c #213C46",
"i  c #203742",
"p  c #26484E",
"a  c #23424A",
"s  c #274D52",
"d  c #284E53",
"f  c #295155",
"g  c #2A5659",
"h  c #2C5C5D",
"j  c #3E5543",
"k  c #33635E",
"l  c #2A5E61",
"z  c #2E6162",
"x  c #2F6868",
"c  c #306764",
"v  c #316966",
"b  c #326D69",
"n  c #35736D",
"m  c #3E7E6F",
"M  c #357672",
"N  c #377A73",
"B  c #397C73",
"V  c #2E7575",
"C  c #4C684A",
"Z  c #4B6847",
"A  c #5E7940",
"S  c #476258",
"D  c #49775A",
"F  c #567750",
"G  c #626342",
"H  c #657A40",
"J  c #6A7C41",
"K  c #7B7B49",
"L  c #407B69",
"P  c #517261",
"I  c #597C68",
"U  c #407F72",
"Y  c #398178",
"T  c #5E8354",
"R  c #578C5F",
"E  c #5B8E5C",
"W  c #57815A",
"Q  c #5F905A",
"!  c #6D8342",
"~  c #6E8D43",
"^  c #6B8B4D",
"/  c #67864D",
"(  c #708643",
")  c #778E45",
"_  c #788F44",
"`  c #739445",
"'  c #799145",
"]  c #749C4C",
"[  c #799F4A",
"{  c #799C46",
"}  c #648954",
"|  c #668D59",
" . c #669455",
".. c #699654",
"X. c #6E9950",
"o. c #629259",
"O. c #6A935B",
"+. c #6E995E",
"@. c #729C5D",
"#. c #7B9850",
"$. c #7DA147",
"%. c #7CA148",
"&. c #7BA15A",
"*. c #4D8665",
"=. c #44826D",
"-. c #49856D",
";. c #4E8A6C",
":. c #528963",
">. c #588D67",
",. c #538B69",
"<. c #56896E",
"1. c #5C9165",
"2. c #5F9669",
"3. c #458272",
"4. c #578C70",
"5. c #5D8C75",
"6. c #629463",
"7. c #689661",
"8. c #6C9C63",
"9. c #68956C",
"0. c #719B6F",
"q. c #628E74",
"w. c #679175",
"e. c #6FA166",
"r. c #75A462",
"t. c #78A763",
"y. c #79A863",
"u. c #89874C",
"i. c #918F4E",
"p. c #829C48",
"a. c #809947",
"s. c #93914F",
"d. c #9D9A51",
"f. c #A09D53",
"g. c #81A346",
"h. c #84A548",
"j. c #8AA349",
"k. c #8CAA49",
"l. c #83A949",
"z. c #90A448",
"x. c #92AD4A",
"c. c #96B14B",
"v. c #9BB54C",
"b. c #9BB94E",
"n. c #84A657",
"m. c #86AB56",
"M. c #8BAD54",
"N. c #83A658",
"B. c #91AE52",
"V. c #8FB252",
"C. c #93B351",
"Z. c #A1B74C",
"A. c #A3B94C",
"S. c #A7A455",
"D. c #B0AC57",
"F. c #A7BA50",
"G. c #ABBD53",
"H. c #A6B459",
"J. c #BAB55A",
"K. c #BFBA5B",
"L. c #8CAA6C",
"P. c #8FA363",
"I. c #91AD6B",
"U. c #AFBE6A",
"Y. c #AAC04C",
"T. c #B2C057",
"R. c #B3C159",
"E. c #BAC55D",
"W. c #BDC760",
"Q. c #BEC764",
"!. c #BEC765",
"~. c #C1C963",
"^. c #C5CB66",
"/. c #C7CC67",
"(. c #C6CC67",
"). c #C7CC67",
"_. c #C9CD67",
"`. c #CCCF67",
"'. c #C8CD68",
"]. c #C8CD68",
"[. c #CACE69",
"{. c #C8CD68",
"}. c #CED066",
"|. c #47ABA9",
/* pixels */
"X |.|.X X X X X |.|.|.|.|.|.|.|.|.|.|.|.|.|.|.|.|.|.|.|.|.|.|.|.|.|.|.X X X X X X X |.X X X |.|.X X X X X X |.|.|.|.|.|.|.|.X X ",
"X X X X X X X X X |.X X X X |.|.|.|.|.|.|.|.|.X X X X X |.|.|.|.|.|.X X X X X X X X X X X X X X X X X X X X X X X X |.|.|.X X X ",
"X X X X X b.b.X X X X X X X X |.X X X X |.|.X X X X X X X |.|.|.|.X X X X K.K.K.X X X y.y.X X X X K.K.K.X X X X X X X X X X K.K.",
"b.X X X b.b.b.b.X X X X X X X X X X X X X |.X X y.y.y.X X X |.|.|.X X X K.K.K.K.K.X y.y.y.y.X X K.K.K.K.K.X X X y.y.X X X K.K.K.",
"K.X X b.b.b.b.b.X X X K.K.K.X X X b.b.b.X X X y.y.y.y.y.X X X X X X X K.K.K.K.K.K.X y.y.y.y.X X K.K.K.K.K.X X y.y.y.y.X K.K.K.K.",
"K.X X b.b.b.b.b.X X K.K.K.K.K.X b.b.b.b.b.X X y.y.y.y.y.X X X X X X X K.K.K.K.K.K.K.y.y.y.y.K.K.K.K.K.K.K.X X y.y.y.y.X K.K.K.K.",
"K.X b.b.b.b.b.b.X K.K.K.K.K.K.X b.b.b.b.b.b.b.b.b.y.y.X X X K.K.K.X X X K.K.K.K.K.K.K.y.y.K.K.K.K.K.K.K.X X X y.K.K.K.X K.K.K.b.",
"K.b.b.b.b.b.b.X X K.b.b.b.b.K.y.y.b.b.b.b.b.b.b.b.b.y.X X K.K.K.K.K.K.X X K.K.K.K.K.K.y.K.K.K.K.K.K.K.K.X X K.K.K.K.K.K.K.K.b.b.",
"K.K.b.b.b.b.b.X b.b.b.b.b.b.b.y.y.b.b.b.b.b.b.b.b.b.b.X K.K.K.K.K.K.K.K.X K.K.K.K.K.K.K.K.K.K.K.K.K.K.X X K.K.K.K.K.K.K.K.K.b.K.",
"K.K.K.b.b.b.b.b.b.b.b.b.b.b.b.b.y.y.b.b.b.b.b.b.b.b.K.K.b.b.K.K.K.K.K.K.K.K.K.K.K.K.K.K.K.K.K.K.K.K.K.K.K.K.K.K.K.K.K.K.K.K.K.K.",
"K.K.K.b.b.b.K.K.b.b.b.b.b.b.b.b.b.b.b.b.b.b.b.b.b.b.K.b.b.b.b.K.K.K.K.K.K.K.K.b.b.b.K.K.K.K.K.b.b.K.K.K.K.b.b.K.K.K.K.K.K.K.K.K.",
"K.K.K.b.b.K.K.K.K.K.b.b.b.b.b.b.b.b.b.b.b.b.b.b.b.b.b.b.b.b.b.b.b.b.b.K.K.K.b.b.b.b.b.K.K.b.b.b.b.b.b.K.b.b.b.b.K.K.K.K.K.K.K.K.",
"K.K.K.K.K.K.K.K.K.K.K.K.K.K.K.K.K.K.K.b.b.b.b.b.b.b.b.b.b.b.b.b.b.b.b.b.K.K.b.b.b.b.b.K.b.b.b.b.b.b.b.b.b.b.b.b.K.K.K.K.K.K.K.K.",
"K.K.K.K.K.K.K.K.K.b.b.b.b.b.b.b.b.b.b.b.b.b.b.b.b.b.b.b.b.b.b.b.b.b.b.b.b.b.b.b.b.b.b.K.b.b.b.b.b.b.b.b.b.b.b.b.K.K.K.K.K.b.b.b.",
"b.b.b.b.b.b.b.b.b.b.b.b.y.y.y.y.y.y.b.b.b.b.b.b.b.b.b.b.b.b.b.b.b.b.b.b.b.b.b.b.b.b.b.b.b.b.b.b.b.b.b.b.b.b.b.b.b.b.b.b.b.b.b.b.",
"b.b.b.b.b.b.b.b.b.b.y.y.y.y.y.y.y.y.y.b.y.y.y.y.b.b.b.b.b.b.K.K.K.b.b.b.b.b.b.b.b.b.b.b.b.b.b.b.b.b.b.b.b.b.b.b.b.b.b.b.b.b.b.b.",
"b.b.b.b.b.b.b.b.y.y.y.y.y.y.y.y.y.y.y.y.y.y.y.y.y.b.b.b.K.K.K.K.K.K.b.b.b.b.b.b.b.b.b.b.y.y.y.b.b.b.b.b.b.b.b.b.b.b.b.b.b.b.b.b.",
"b.b.b.b.b.b.b.y.y.y.y.y.y.y.y.y.y.y.y.y.y.y.y.y.y.K.K.K.K.K.K.K.K.K.K.K.K.K.y.y.y.b.b.y.y.y.y.y.b.b.b.b.b.b.b.b.b.b.b.b.b.b.b.b.",
"b.b.b.b.b.y.y.y.y.y.y.b.b.b.b.b.y.y.y.y.y.y.y.y.y.y.y.y.K.K.K.K.K.K.K.K.K.y.y.y.y.y.y.y.b.b.y.y.y.b.b.b.b.b.b.y.y.y.b.b.b.b.b.b.",
"b.b.b.y.y.y.y.y.y.y.b.b.b.b.b.b.b.y.y.y.b.b.b.y.y.y.y.y.y.y.K.K.K.y.y.y.y.y.b.b.y.y.y.b.b.b.b.y.y.y.b.b.b.b.y.y.y.y.y.b.b.b.y.y.",
"y.b.b.b.b.b.b.b.b.b.b.b.b.b.b.b.b.y.y.b.b.b.M.B N N N N >.b.b.b.b.b.1.N N N N N m.C.b.b.C.C.C.C.b.b.b.b.b.y.y.y.y.y.y.y.y.y.y.y.",
"y.y.y.y.b.b.b.b.b.b.b.b.b.b.b.b.b.b.C.V.C.M.B N =.=.=.B N 6.b.V.C.1.N N U -.=.=.B B M.M.B B N -.r.b.b.b.b.y.y.y.y.y.y.y.y.y.y.y.",
"b.b.b.b.b.b.b.b.b.b.b.b.b.b.b.b.b.V.-.N N N N ,.v.v.Z.n.B 1.8.N N N N B n.Z.v.v.,.N N N N -.-.=.-.r.b.b.y.y.y.y.b.b.b.y.y.y.y.y.",
"b.b.b.b.b.b.b.b.w.w.w.w.w.b.b.w.q.B N -.-.-.=.v.Z.Z.Z.A.&.M N N N N U n.A.F.F.Z.v.,.N N ,.v.Z.m.N -.e.8.r.y.y.b.b.b.b.b.b.b.b.b.",
"b.b.b.b.b.b.b.w.w.w.w.w.w.w.w.q.U N -.C.Z.c.-.v.Z.Z.Z.v.+.U 4.4.3.M &.A.F.~._.F.Z.v.B m v.Z.A.M.-.N N N ;.8.r.b.b.b.b.b.b.b.b.b.",
"b.b.b.b.b.w.w.w.K.K.K.K.w.5.5.<.N N B.Z.Z.c.-.v.G.F.A.n.V 0.}.`.I.U @.A.E.'./.G.Z.v.9.9.G.F.Z.A.n.N N N N N 6.C.b.b.b.b.b.b.b.b.",
"b.b.w.w.w.w.K.K.K.K.K.K.H.<.N N N N B.Z.Z.c.6.G._.~.F.7.B L._./.}.0.@.G.~./././.F.G._._.'.~.G.A.N.B >.>.>.-.N 2.y.y.y.y.y.b.b.b.",
"K.w.w.K.K.K.K.K.K.K.K.K.9.N ;.1.B N B.G.G.G.A././._.U.w.L.`././._.L.n.E.'./././.R.(././././.~.A.M.@.A.A.A.N.-.;.r.y.y.y.y.y.y.y.",
"K.K.K.K.K.K.K.K.K.K.y.} L ,.B.A.@.B 7.!.'./.R./././._.`._././././._.E.W././././.'././././._.~.Z.Z.A.Z.Z.Z.A.7.M P.K.K.K.K.K.K.K.",
"b.b.b.b.b.b.K.K.y.y.| > y #.Y.Z.A.@.0.!._./.'././././././.'./././._.'./././.'./././././._.(.R.Z.Z.Z.Z.Z.Z.A.7.M P.K.K.K.K.K.K.K.",
"b.b.b.b.b.b.b.b.b.p.1 X . 5 w j.Z.A.R.R./.'.'.'./././.'.~.E.'./.'.W.~.'././.E.(.'.'.'.'./.R.Z.Z.Z.A.A.A.A.M.;.,.M.b.b.b.b.b.b.b.",
"b.b.b.b.b.b.b.b.p.1 . , 0 7 q j.Z.Z.Z.Z.R.R.R.R.'.'.~.R.G.A.W.'.W.F.G.~././.E.R.R.R.R.R.T.Z.Z.F.z.q q _ M.;.l ^ b.b.b.b.b.b.b.b.",
"K.K.K.b.b.j.8 q 2 X , ~ l.k.Z.Z.Z.Z.Z.k.v.Z.Z.Z.T.R.G.v.Z.Z.F.R.F.v.G.~././.'.E.R.Z.Z.Z.Z.Z.z.8 3     : D z % , p.b.b.b.b.b.b.K.",
"K.K.K.K.j.2 X X X . 7 l.%.x.Z.Z.Z.k.k.x.Z.Z.Z.Z.Z.Z.Z.Z.Z.Z.Z.Z.Z.Z.E.'./././.'.'.A.Z.Z.Z.Z.x.t J J 9   & & . X 1 p.b.b.b.b.K.K.",
"K.K.K.S.4 X & h a . 7 l.%.c.Z.Z.Z.c.g.v.Z.Z.Z.Z.v.k.x.Z.Z.Z.Z.Z.Z.Z.E.'././././.R.Z.Z.Z.Z.Z.Z.A.A.A.x.9 . 2 A > . , S.K.K.K.K.K.",
"b.b.b.f.X & v B n u = A l.l.v.Z.Z.Z.h.h.Z.Z.v.k.h.%.%.k.Z.Z.Z.Z.Z.Z.F.W.'._._.T.Z.Z.Z.Z.Z.Z.Z.Z.Z.Z.A.J   0 l.~ > . , j.K.K.K.K.",
"b.b.b.p.X y B N B n u @ r $.l.v.Z.k.%.%.h.h.h.%.%.%.%.h.Z.Z.Z.Z.Z.x.c.F.G.G.G.Z.Z.Z.Z.Z.Z.Z.Z.Z.Z.Z.A.t 1 ` %.g.~ > X ' b.b.K.b.",
"b.b.b.p.X y B N N N n z T g.%.l.h.%.%.%.%.%.%.g.v.v.v.x.k.Z.Z.Z.x.%.x.Z.Z.Z.Z.Z.Z.v.k.Z.Z.Z.Z.Z.Z.Z.Z.j.` %.%.%.l.1 X ' b.b.b.b.",
"b.b.b.p.X y N N N N N N o.%.%.%.%.%.%.c.v.g.g.v.Z.Z.Z.Z.x.l.h.h.g.%.g.c.Z.Z.Z.Z.Z.v.g.l.h.k.Z.Z.Z.Z.c.g.%.%.%.$.7 @ X : j.b.b.b.",
"b.b.b.a.X X a B g % % Z %.%.%.%.%.%.c.Z.Z.v.v.Z.Z.Z.Z.Z.c.%.%.%.k.v.k.g.l.v.Z.Z.Z.v.g.g.v.v.Z.v.g.g.g.%.%.%.%.E n y X X - +.y.b.",
"y.y.O.- X X + % $ X 7 { %.%.%.%.%.%.v.Z.Z.Z.Z.Z.Z.Z.Z.Z.Z.v.x.%.x.Z.Z.k.%.c.Z.Z.v.h.g.v.Z.Z.Z.v.%.%.%.%.%.%.g.:.N n y X X O.y.y.",
"y.+.- X X $ $ + . 6 %.%.%.%.%.%.%.%.g.v.v.Z.Z.Z.Z.Z.Z.Z.Z.Z.Z.k.k.Z.Z.Z.h.%.v.v.h.%.g.v.Z.Z.Z.c.%.%.%.%.%.%.%.:.N N M & X O.y.y.",
"b.k.@ X y n M g . 6 %.%.%.{ ` ] %.%.%.%.g.v.Z.Z.v.h.Z.Z.Z.Z.Z.x.%.x.v.v.h.%.%.%.%.%.%.l.v.v.v.%.%.%.%.%.[ [ R N N N B * X O.b.b.",
"b.j.o & M N B h # X 7 ` ` 2 $ c ..%.%.%.%.g.v.v.%.h.v.v.Z.Z.Z.k.%.%.%.%.%.%.%.%.%.%.%.%.%.%.%.%.%.%.%.o.N B N N N N n & X ! b.b.",
"b.! o & N N N N h $ X o o $ h N N ..] ] %.%.%.%.%.%.%.h.v.v.k.%.%.%.%.%.%.%.%.%.%.%.%.%.%.%.%.%.%.%.%. .B N N N n b * X - ! x.b.",
"b.! o % b N N N B g & $ . s M N N N N =.[ %.%.%.%.%.%.%.%.%.%.%.%.%.%.%.%.%.%.] %.%.%.%.%.%.%.%.%.%.%.%.o.B N n y X X ; K s.s.J.",
"x.! : X & c b B N N B f $ . s n N N =.[ %.%.%.%.%.%.%.%.%.%.%.] [ %.%.%.%.%.] U ] %.%.%.%.] %.%.%.%.%.%.g.E N d # X X G i.s.d.J.",
"_ _ ! : X X * b N N N B f * * c N N ] %.%.%.%.%.X.%.%.%.%.%.[ *.*.[ %.%.%.] =.=.[ %.%.%.] =.%.%.%.%.%.%.[ :.N B d $ X X K s.D.b.",
"P P ' S X X # d B N N N N B B N N N o.%.%.%.%.o.=.%.%.%.%.[ E *.m :... . .=.N ] %.%.%.%.] =.%.%.%.%.%.g.Q N N N B s $ X K ' _ k.",
"I I P S X $ f B N N N N N N N N N N N Q  . .[ *.=.%.%.%.g.o.:.g. .*.m =.*.B N E %.%.%. .Q m ..%.%.%.g.] D v N N N B y X H ' _ P ",
"w.D.s.S X y Y N N N B N N N N N N N N N N :.%.] m ..g.g.[ *.:.%.%.g.o.] g.E B N E o.Q N N N m o.o.o. .D y p B N N B y X H ' ' I ",
"J.i.s.K X % z B B v d c N N N N N N N N B %.%.] N m Q o.:.M R g.%.%.g...] g.=.N N N N N N N N N N b d y . d B N B z % X K P P q.",
"K.S.s.u.4 X % z b y O s B N N N N N N N N E [ R N N N N N N =.X.%.%.g.*.*.E m N N N N N N N N N N v a p * * v Y l % X 4 u.s.S.K.",
"K.J.i.s.( 2 X % i . * c N N N N N N N N N N :.N N N N N N N N =.X.g...=.N N N N N N N N N N B N N N B Y f . * s % X 4 u.s.i.J.K.",
"K.K.j._ ' ! 8 2 X X s Y N N N N B N N N N N N N N N N N N N N N =.R =.N N N N N N N N N N n f B N N B c * X X X 4 8 ! ' i.S.K.K.",
"b.b.b.j._ _ ' ! q 1 & z B B B B d b N N N N N N N N N B N N N N N N N N N N N N N N N N N b $ d B B v & X 3 G G ! ' _ _ j.K.K.K.",
"b.b.b.b.k.j._ ' ' 8 X & u u u u $ v B N N N N N N B b d B N N N N B f z N N N N N N N B n i X $ u u & X X 9 ' ' ' _ j.k.b.b.b.b.",
"b.b.b.b.b.b.O.T T F > X X X X X X * n N N N N N B b & $ d B B B B g $ h B N N N N N M u * X X X X X X , w J ' _ _ j.b.b.b.b.b.b.",
"b.b.b.b.b.b.b.x.j.T F C C C C e e e / } N N N n y & X X $ y y y y % X % c B N N N N N k w e e e e e e J ' ' T O.@.b.b.b.b.b.b.b.",
"b.b.b.b.b.b.b.b.b.c.j.' T T T ' ' ' _ _ W ^ ^ / t t H j X X X X X X X X % * * b N N } ^ ' ' ' c.k.' ' ' _ O.r.r.y.y.b.b.b.b.b.b.",
"b.b.b.b.b.b.K.K.b.b.v.c.p._ _ _ _ _ _ _ _ _ ' x.' ' ' ( H H H H H H H H H H H ^ ^ ^ _ _ _ _ T O.y.j._ p.r.r.y.y.y.y.b.b.b.b.b.b.",
"b.b.b.b.b.K.K.K.K.b.b.b.b.J.J.d.s.' ' _ _ ' c.c._ _ _ _ ' ' ' ' ' ' ' ' ' ' ' ' _ _ _ _ _ T T | y.y.r.r.y.y.y.y.y.y.b.b.b.b.b.b.",
"b.b.b.K.K.K.K.K.K.K.K.K.K.K.K.J.J.J.J.' ' c.b.c._ _ _ T | +.T _ _ _ _ _ _ ' x.v.' ' ' ' } r.r.r.y.y.y.y.y.y.y.y.y.y.y.y.y.b.b.b.",
"y.y.K.K.K.K.K.K.K.K.K.K.K.K.K.K.y.y.y.r.b.b.y.r.T T T | @.T T T T _ _ T T @.y.b.b.b.b.r.r.y.y.y.y.y.y.y.y.y.y.y.y.y.y.y.y.y.y.y."
};
