/* XPM */
static const char *top_6[] = {
/* columns rows colors chars-per-pixel */
"64 64 192 2 ",
"   c #0D122C",
".  c #13162B",
"X  c #161C2E",
"o  c #181E2E",
"O  c #121227",
"+  c #171E30",
"@  c #1C222E",
"#  c #172031",
"$  c #192333",
"%  c #1A2837",
"&  c #1C2C3A",
"*  c #182739",
"=  c #1E313E",
"-  c #21292F",
";  c #232C32",
":  c #282D33",
">  c #2C3533",
",  c #2B3936",
"<  c #313E34",
"1  c #2F403B",
"2  c #364335",
"3  c #394536",
"4  c #3C4B37",
"5  c #3E4139",
"6  c #404B36",
"7  c #44473A",
"8  c #405238",
"9  c #495639",
"0  c #465A3A",
"q  c #4C5C3B",
"w  c #57593F",
"e  c #4C613B",
"r  c #53633C",
"t  c #596B3E",
"y  c #5D713E",
"u  c #5E793F",
"i  c #63753F",
"p  c #1F3541",
"a  c #1F3A45",
"s  c #213C46",
"d  c #213E48",
"f  c #23434B",
"g  c #26484E",
"h  c #314F48",
"j  c #3E5443",
"k  c #274D52",
"l  c #284F53",
"z  c #295256",
"x  c #2C5B5C",
"c  c #295659",
"v  c #32605B",
"b  c #2B5F62",
"n  c #2E6161",
"m  c #306764",
"M  c #316967",
"N  c #326C69",
"B  c #34726D",
"V  c #3E7E6F",
"C  c #357671",
"Z  c #377A73",
"A  c #397C74",
"S  c #2E7575",
"D  c #5C5E40",
"F  c #425842",
"G  c #4C684A",
"H  c #4B6847",
"J  c #5E6041",
"K  c #5E7940",
"L  c #476358",
"P  c #47765A",
"I  c #567750",
"U  c #616242",
"Y  c #657A41",
"T  c #6A7C41",
"R  c #617540",
"E  c #7B7B48",
"W  c #417F6D",
"Q  c #417665",
"!  c #517261",
"~  c #597C68",
"^  c #407F72",
"/  c #398078",
"(  c #398077",
")  c #5E8354",
"_  c #5B8E5C",
"`  c #55855C",
"'  c #5E905B",
"]  c #6E8443",
"[  c #6D8C43",
"{  c #68874C",
"}  c #698A4F",
"|  c #65854E",
" . c #778E45",
".. c #788F44",
"X. c #739445",
"o. c #799145",
"O. c #749C4C",
"+. c #799F4A",
"@. c #799C46",
"#. c #648955",
"$. c #668D59",
"%. c #698C51",
"&. c #659456",
"*. c #699654",
"=. c #6D9851",
"-. c #619159",
";. c #6A935B",
":. c #6D995F",
">. c #729C5D",
",. c #769A50",
"<. c #7DA147",
"1. c #7BA048",
"2. c #7BA15A",
"3. c #4D8665",
"4. c #44816D",
"5. c #49856D",
"6. c #4F8A6D",
"7. c #528963",
"8. c #588D67",
"9. c #538B69",
"0. c #56896E",
"q. c #5C9165",
"w. c #5F9669",
"e. c #578C70",
"r. c #5D8C75",
"t. c #458272",
"y. c #629463",
"u. c #689661",
"i. c #6C9C63",
"p. c #68956C",
"a. c #719B6F",
"s. c #628E74",
"d. c #679175",
"f. c #6FA166",
"g. c #75A462",
"h. c #78A763",
"j. c #79A863",
"k. c #89884C",
"l. c #918F4E",
"z. c #869E47",
"x. c #839C48",
"c. c #93914F",
"v. c #9C9951",
"b. c #81A346",
"n. c #84A548",
"m. c #8AA349",
"M. c #8CAA49",
"N. c #83A949",
"B. c #90A448",
"V. c #92AD4A",
"C. c #96B14B",
"Z. c #9BB54C",
"A. c #9BB94E",
"S. c #84A657",
"D. c #86AB56",
"F. c #8BAC54",
"G. c #83A658",
"H. c #91AE52",
"J. c #8EB154",
"K. c #93B351",
"L. c #A1B74C",
"P. c #A3B94C",
"I. c #A8A555",
"U. c #A7BA50",
"Y. c #ABBD53",
"T. c #A6B459",
"R. c #BAB55A",
"E. c #BFBA5B",
"W. c #B0AC57",
"Q. c #8CAA6C",
"!. c #8FA363",
"~. c #91AD6B",
"^. c #AFBE6A",
"/. c #AAC04C",
"(. c #B2C057",
"). c #B3C159",
"_. c #BAC55D",
"`. c #BEC761",
"'. c #BEC765",
"]. c #C1C963",
"[. c #C5CB66",
"{. c #C7CC67",
"}. c #C6CC67",
"|. c #C7CC67",
" X c #C9CD67",
".X c #CCCF67",
"XX c #C8CD68",
"oX c #C8CD68",
"OX c #CACE69",
"+X c #C8CD68",
"@X c #CED066",
"#X c #47ABA9",
/* pixels */
"X #X#XX X X X X #X#X#X#X#X#X#X#X#X#X#X#X#X#X#X#X#X#X#X#X#X#X#X#X#X#X#XX X X X X X X #XX X X #X#XX X X X X X #X#X#X#X#X#X#X#XX X ",
"X X X X X X X X X #XX X X X #X#X#X#X#X#X#X#X#XX X X X X #X#X#X#X#X#XX X X X X X X X X X X X X X X X X X X X X X X X #X#X#XX X X ",
"X X X X X A.A.X X X X X X X X #XX X X X #X#XX X X X X X X #X#X#X#XX X X X E.E.E.X X X j.j.X X X X E.E.E.X X X X X X X X X X E.E.",
"A.X X X A.A.A.A.X X X X X X X X X X X X X #XX X j.j.j.X X X #X#X#XX X X E.E.E.E.E.X j.j.j.j.X X E.E.E.E.E.X X X j.j.X X X E.E.E.",
"E.X X A.A.A.A.A.X X X E.E.E.X X X A.A.A.X X X j.j.j.j.j.X X X X X X X E.E.E.E.E.E.X j.j.j.j.X X E.E.E.E.E.X X j.j.j.j.X E.E.E.E.",
"E.X X A.A.A.A.A.X X E.E.E.E.E.X A.A.A.A.A.X X j.j.j.j.j.X X X X X X X E.E.E.E.E.E.E.j.j.j.j.E.E.E.E.E.E.E.X X j.j.j.j.X E.E.E.E.",
"E.X A.A.A.A.A.A.X E.E.E.E.E.E.X A.A.A.A.A.A.A.A.A.j.j.X X X E.E.E.X X X E.E.E.E.E.E.E.j.j.E.E.E.E.E.E.E.X X X j.E.E.E.X E.E.E.A.",
"E.A.A.A.A.A.A.X X E.A.A.A.A.E.j.j.A.A.A.A.A.A.A.A.A.j.X X E.E.E.E.E.E.X X E.E.E.E.E.E.j.E.E.E.E.E.E.E.E.X X E.E.E.E.E.E.E.E.A.A.",
"E.E.A.A.A.A.A.X A.A.A.A.A.A.A.j.j.A.A.A.A.A.A.A.A.A.A.X E.E.E.E.E.E.E.E.X E.E.E.E.E.E.E.E.E.E.E.E.E.E.X X E.E.E.E.E.E.E.E.E.A.E.",
"E.E.E.A.A.A.A.A.A.A.A.A.A.A.A.A.j.j.A.A.A.A.A.A.A.A.E.E.A.A.E.E.E.E.E.E.E.E.E.E.E.E.E.E.E.E.E.E.E.E.E.E.E.E.E.E.E.E.E.E.E.E.E.E.",
"E.E.E.A.A.A.E.E.A.A.A.A.A.A.A.A.A.A.A.A.A.A.A.A.A.A.E.A.A.A.A.E.E.E.E.E.E.E.E.A.A.A.E.E.E.E.E.A.A.E.E.E.E.A.A.E.E.E.E.E.E.E.E.E.",
"E.E.E.A.A.E.E.E.E.E.A.A.A.A.A.A.A.A.A.A.A.A.A.A.A.A.A.A.A.A.A.A.A.A.A.E.E.E.A.A.A.A.A.E.E.A.A.A.A.A.A.E.A.A.A.A.E.E.E.E.E.E.E.E.",
"E.E.E.E.E.E.E.E.E.E.E.E.E.E.E.E.E.E.E.A.A.A.A.A.A.A.A.A.A.A.A.A.A.A.A.A.E.E.A.A.A.A.A.E.A.A.A.A.A.A.A.A.A.A.A.A.E.E.E.E.E.E.E.E.",
"E.E.E.E.E.E.E.E.E.A.A.A.A.A.A.A.A.A.A.A.A.A.A.A.A.A.A.A.A.A.A.A.A.A.A.A.A.A.A.A.A.A.A.E.A.A.A.A.A.A.A.A.A.A.A.A.E.E.E.E.E.A.A.A.",
"A.A.A.A.A.A.A.A.A.A.A.A.j.j.j.j.j.j.A.A.A.A.A.A.A.A.A.A.A.A.A.A.A.A.A.A.A.A.A.A.A.A.A.A.A.A.A.A.A.A.A.A.A.A.A.A.A.A.A.A.A.A.A.A.",
"A.A.A.A.A.A.A.A.A.A.j.j.j.j.j.j.j.j.j.A.j.j.j.j.A.A.A.A.A.A.E.E.E.A.A.A.A.A.A.A.A.A.A.A.A.A.A.A.A.A.A.A.A.A.A.A.A.A.A.A.A.A.A.A.",
"A.A.A.A.A.A.A.A.j.j.j.j.j.j.j.j.j.j.j.j.j.j.j.j.j.A.A.A.E.E.E.E.E.E.A.A.A.A.A.A.A.A.A.A.j.j.j.A.A.A.A.A.A.A.A.A.A.A.A.A.A.A.A.A.",
"A.A.A.A.A.A.A.j.j.j.j.j.j.j.j.j.j.j.j.j.j.j.j.j.j.E.E.E.E.E.E.E.E.E.E.E.E.E.j.j.j.A.A.j.j.j.j.j.A.A.A.A.A.A.A.A.A.A.A.A.A.A.A.A.",
"A.A.A.A.A.j.j.j.j.j.j.A.A.A.A.A.j.j.j.j.j.j.j.j.j.j.j.j.E.E.E.E.E.E.E.E.E.j.j.j.j.j.j.j.A.A.j.j.j.A.A.A.A.A.A.j.j.j.A.A.A.A.A.A.",
"A.A.A.j.j.j.j.j.j.j.A.A.A.A.A.A.A.j.j.j.A.A.A.j.j.j.j.j.j.j.E.E.E.j.j.j.j.j.A.A.j.j.j.A.A.A.A.j.j.j.A.A.A.A.j.j.j.j.j.A.A.A.j.j.",
"j.A.A.A.A.A.A.A.A.A.A.A.A.A.A.A.A.j.j.A.A.A.F.A Z Z Z Z 8.A.A.A.A.A.q.Z Z Z Z Z D.K.A.A.K.K.K.K.A.A.A.A.A.j.j.j.j.j.j.j.j.j.j.j.",
"j.j.j.j.A.A.A.A.A.A.A.A.A.A.A.A.A.A.K.J.K.F.A Z 4.4.4.A Z y.A.J.K.y.Z Z ^ 4.4.4.A A F.F.A A Z 5.g.A.A.A.A.j.j.j.j.j.j.j.j.j.j.j.",
"A.A.A.A.A.A.A.A.A.A.A.A.A.A.A.A.A.J.5.Z Z Z Z 9.Z.Z.L.S.A q.i.Z Z Z Z A S.L.Z.Z.9.Z Z Z Z 4.4.4.5.g.A.A.j.j.j.j.A.A.A.j.j.j.j.j.",
"A.A.A.A.A.A.A.A.d.d.d.d.d.A.A.d.s.A Z 5.5.5.4.Z.L.L.L.P.2.C Z Z Z Z ^ S.P.U.U.P.Z.9.Z Z 9.Z.P.D.Z 5.f.i.g.j.j.A.A.A.A.A.A.A.A.A.",
"A.A.A.A.A.A.A.d.d.d.d.d.d.d.d.s.^ Z 5.K.L.C.5.Z.L.L.L.Z.:.^ e.e.t.C 2.P.P.]. XU.L.Z.A V Z.L.P.F.4.Z Z Z 6.i.g.A.A.A.A.A.A.A.A.A.",
"A.A.A.A.A.d.d.d.E.E.E.E.d.r.r.0.Z Z H.P.L.C.4.Z.Y.U.P.S.S a.@X.X~.^ >.P._.XX{.Y.L.Z.p.p.Y.U.L.P.S.Z Z Z Z Z y.K.A.A.A.A.A.A.A.A.",
"A.A.d.d.d.d.E.E.E.E.E.E.T.0.Z Z Z Z H.L.L.C.y.Y. X].U.u.A Q. X{.@Xa.>.Y.]. X{.{.U.Y. X XXX].Y.P.G.A 8.8.8.4.Z w.j.j.j.j.j.A.A.A.",
"E.d.d.E.E.E.E.E.E.E.E.E.p.Z 6.q.A Z H.Y.Y.Y.P.{.{. X^.d.Q..X{.{. XQ.S._.XX{.{.{.).}.{.{.{.{.].P.F.>.P.P.P.G.4.6.g.j.j.j.j.j.j.j.",
"E.E.E.E.E.E.E.E.E.E.j.#.Q 9.H.P.>.A u.'.XX{.).{.{.{. X.X X{.{.{.{. X_.`.{.{.{.{.XX{.{.{.{. X].L.P.P.L.L.L.P.u.Z !.E.E.E.E.E.E.E.",
"A.A.A.A.A.A.E.E.j.j.$., a ,./.P.P.>.a.'. X{.XX{.{.{.{.{.{.XX{.{.{. XXX{.{.{.XX{.{.{.{.{.{.}.).L.L.L.L.L.L.P.u.C !.E.E.E.E.E.E.E.",
"A.A.A.A.A.A.A.A.A.x.2 X . 6 t m.P.P.).).{.XXXXXX{.{.{.XX]._.XX{.XX`.].XX{.{._.}.XXXXXXXX{.).L.L.P.P.P.P.P.F.6.8.J.A.A.A.A.A.A.A.",
"A.A.A.A.A.A.A.A.x.2 . < e 0 r m.P.L.L.L.).).).).XXXX].).Y.P.`.XX`.U.Y.].{.{._.).).).).).(.L.P.U.B.r r ..J.6.b F z.A.A.A.A.A.A.A.",
"E.E.E.A.A.A.A.A.Y X < [ N.M.P.P.L.P.P.M.Z.L.L.P.(.).Y.L.L.L.U.).U.Z.Y.].{.{.XX_.).L.L.L.L.P.B.q 3     > j f & X 3 x.A.A.A.A.A.E.",
"E.E.E.E.A.n.9 q 2 . 0 N.1.V.P.L.L.M.M.V.L.L.L.L.L.L.L.L.L.L.L.L.L.L._.XX{.{.{.XXXXP.L.L.L.P.V.i Y T 9   . 2 y , . 3 n.A.A.A.E.E.",
"E.E.E.E.I.5 X X X . 0 N.1.C.P.L.L.C.b.Z.L.L.L.P.Z.M.M.P.L.L.L.L.L.L._.XX{.{.{.{.).P.L.L.L.L.P.P.P.P.V.9   e N.[ , X c.E.E.E.E.E.",
"A.A.A.I.5 X & n n d - K N.N.Z.L.L.P.n.m.Z.P.Z.M.n.1.1.M.L.L.L.L.L.L.U.`.XX X X(.L.L.L.L.L.L.L.L.L.L.P.i < X.1.N.4 . < n.E.E.E.E.",
"A.A.A.x.X & N A A B s @ u <.N.Z.P.M.1.1.n.n.n.1.1.1.1.n.P.L.L.L.P.V.C.U.Y.Y.Y.L.L.L.L.L.L.L.L.L.L.L.P.z.[ <.1.1.[ , X o.A.A.E.A.",
"A.A.A.x.X p A Z Z A B n ) 1.1.N.n.1.1.1.1.1.1.b.Z.Z.Z.V.M.L.L.P.V.1.V.L.L.L.L.L.L.Z.M.Z.L.L.L.L.P.P.C.b.1.1.1.1.N.2 X o.A.A.A.A.",
"A.A.A.x.X p A Z Z Z Z Z -.1.1.1.1.1.1.C.Z.b.b.Z.L.L.P.L.V.N.N.n.b.1.b.C.L.L.L.L.L.Z.b.N.n.M.L.Z.n.n.b.1.1.1.1.' h @ X > n.A.A.A.",
"A.A.A.x.X p Z Z x % % H 1.1.1.1.1.1.C.L.L.Z.Z.L.L.L.L.P.C.1.1.1.M.Z.M.b.N.Z.L.L.L.Z.b.b.Z.Z.L.Z.1.1.1.1.1.1.b.7.B p X X ; :.j.A.",
"j.j.j.#.X X f x # X 0 @.1.1.1.1.1.1.Z.L.L.L.L.L.L.L.L.L.L.Z.V.1.V.P.L.M.1.C.L.L.Z.n.b.Z.L.L.L.Z.1.1.1.1.1.1.1.7.Z B p X X ;.j.j.",
"j.j.$.% X X + # . 8 +.1.1.1.1.1.1.1.b.Z.Z.L.L.L.L.L.L.L.L.L.L.M.M.L.L.L.n.1.Z.Z.n.1.b.Z.L.L.L.C.1.1.1.1.+.1._ Z Z Z C & X ;.j.j.",
"A.M.; X X % % # . 8 1.1.1.@.X.@.1.1.1.1.b.Z.L.L.Z.n.L.L.L.L.P.V.1.V.L.Z.n.1.1.1.1.1.1.N.Z.Z.Z.1.1.1.b.-.Z V Z Z Z Z A = X ;.A.A.",
"A.m.o X s C Z x # X 0 X.X.4 $ m *.1.1.1.1.b.Z.Z.1.n.Z.Z.L.L.L.M.1.1.1.1.1.1.1.1.1.1.1.1.1.1.1.1.1.1.b.&.Z Z Z Z Z Z B & X ] A.A.",
"A.] o & Z Z Z A x # X o o $ x Z Z *.O.O.1.1.1.1.1.1.1.n.Z.Z.M.1.1.1.1.1.1.1.+.1.1.1.1.1.1.1.1.1.1.1.1.1.-.A Z B N N = X ; ] V.A.",
"A.] o & Z Z Z Z A c & $ . k C Z Z Z 4.4.+.1.1.1.1.1.1.1.1.1.1.1.1.1.1.1.1.O.4.O.1.1.1.1.O.1.1.1.1.1.1.1.1._ Z k # X X : E c.c.R.",
"V.] o & N A Z Z Z Z A z # . k C Z 4.O.1.1.1.1.1.1.1.1.1.1.1.+.O.1.1.1.1.O.4.4.O.1.1.1.+.4.1.1.1.1.1.1.1.+.7.Z A s X X U l.c.v.R.",
" .] > X & n M A Z Z Z A z = = m A O.1.1.1.1.1.=.1.1.1.1.1.+.7.3.+.b.1.b.3.Z O.1.1.1.1.+.4.1.1.1.1.1.1.b.' Z Z A k # X X E c.W.A.",
"! ! ] : X X & M Z Z Z Z Z A A Z Z ' 1.1.1.1.-.4.1.1.1.1.+._ 3.V 3.*.&.*.4.Z ' 1.1.1.*.-.V *.+.*.*.*.O.1.P N Z Z A k # X E o. .M.",
"~ ~ ! L X X # z A Z Z Z Z Z Z Z Z Z _ &.&.+.3.4.1.1.1.1.&.3.b.*.3.V 4.3.3.V Z _ &.-.Z Z Z V _ Z N c P ` a g A Z Z A p X Y o. .! ",
"d.I.c.L X % z A Z Z A Z Z Z Z Z Z Z Z Z 7.1.+.V &.1.b.+.7.7.b.1.b.&.=.b.b.3.Z Z Z Z Z Z Z Z Z A M s g a O k A Z Z A p X Y o.o.~ ",
"R.l.c.E X p / Z A M l m Z Z Z Z Z Z Z A 1.1.+.Z A ' -.7.C 7.b.1.1.b.*.O.*.W Z Z Z Z Z Z Z Z Z Z Z A m f = p N A A n & X E ! ! s.",
"E.I.c.E X % x ( N p O k A Z Z Z Z Z Z Z _ +._ Z Z Z Z Z Z 4.=.1.1.b.7.3.W Z Z Z Z Z Z Z Z Z A Z Z Z Z / z O p l k % X 7 k.c.I.E.",
"E.R.c.k.4 X % k p . = m A Z Z Z Z Z Z Z Z 7.Z Z Z Z Z Z Z Z 4.=.b.*.4.Z Z Z Z Z Z Z Z Z Z B z A A Z Z A z X X X X X 7 k.c.l.R.E.",
"E.E.m. . .4 X X X X k / Z Z Z Z A Z Z Z Z Z Z Z Z Z Z Z Z Z Z 4._ 4.Z Z Z Z Z Z Z Z Z Z A N # f z A A m = < J D D q ] o.l.I.E.E.",
"A.A.A.m. .] r r r 2 & n A A A A l N Z Z Z Z Z Z Z Z Z A Z Z Z Z Z Z A Z Z Z Z Z Z Z Z A C s X . % f f = X w v.c.o.o. . .m.E.E.E.",
"A.A.A.A.M.m.o.o.o.q X & s s s s # M A Z Z Z Z Z Z A N l A Z Z Z Z A z n A Z Z Z Z Z C s s X X ; t 6 X X < T o. . . .m.M.A.A.A.A.",
"A.A.A.A.A.A.;.) ) I , X X X X X X = B Z Z Z Z Z A N & # l A A A A c # x A A A Z Z Z Z v t t t R o.] t t T o. . . .m.A.A.A.A.A.A.",
"A.A.A.A.A.A.A.V.n.) I G G G G y y y | #.Z Z Z B p & X X # p p p p % X & p p p N Z Z #.%.o.o.o.o. ...o.o.o. .) ;.>.A.A.A.A.A.A.A.",
"A.A.A.A.A.A.A.A.A.C.n.o.) ) ) o.o.o.o...` } } { i i Y j X X X X X X X X j i i | } }  ... . .o.C.m. . . . .;.g.g.j.j.A.A.A.A.A.A.",
"A.A.A.A.A.A.E.E.A.A.A.C.x. . . . . . . .....o.V.o.o.o. .Y Y Y Y Y Y Y Y  .o.o....... . . . .) ;.j.m. .x.g.g.j.j.j.j.A.A.A.A.A.A.",
"A.A.A.A.A.E.E.E.E.A.A.A.A.R.R.v.c.o.o. . .o.C.C. . . . .o.o.o.o.o.o.o.o. . . ... . . . . .) ) $.j.j.g.g.j.j.j.j.j.j.A.A.A.A.A.A.",
"A.A.A.E.E.E.E.E.E.E.E.E.E.E.E.R.R.R.R.o.o.C.A.C... . .) $.:.)  . . . . . .o.V.C.o.o.o.o.#.g.g.g.j.j.j.j.j.j.j.j.j.j.j.j.j.A.A.A.",
"j.j.E.E.E.E.E.E.E.E.E.E.E.E.E.E.j.j.j.g.A.A.j.g.) ) ) $.>.) ) ) )  . .) ) >.j.A.A.A.A.g.g.j.j.j.j.j.j.j.j.j.j.j.j.j.j.j.j.j.j.j."
};
