/* XPM */
static const char *top_right5[] = {
/* columns rows colors chars-per-pixel */
"64 64 196 2 ",
"   c #0E122C",
".  c #13162B",
"X  c #161C2E",
"o  c #181E2E",
"O  c #121227",
"+  c #171F30",
"@  c #0B0F2C",
"#  c #1C232F",
"$  c #172031",
"%  c #192333",
"&  c #1B2C3A",
"*  c #192839",
"=  c #1E323E",
"-  c #21292F",
";  c #202830",
":  c #2C3633",
">  c #2B3938",
",  c #323D35",
"<  c #353A34",
"1  c #2F403B",
"2  c #354235",
"3  c #3C4B37",
"4  c #3E4138",
"5  c #35433A",
"6  c #424A38",
"7  c #435339",
"8  c #465A3A",
"9  c #4B5B3A",
"0  c #4F523D",
"q  c #57593F",
"w  c #4D633B",
"e  c #53633C",
"r  c #5C6C3E",
"t  c #57693D",
"y  c #5E713F",
"u  c #5E793F",
"i  c #63753F",
"p  c #1F3541",
"a  c #1F3A46",
"s  c #213A44",
"d  c #213E48",
"f  c #22424B",
"g  c #26484E",
"h  c #274C51",
"j  c #284F53",
"k  c #295255",
"l  c #2C5B5C",
"z  c #295559",
"x  c #33635E",
"c  c #2E6262",
"v  c #306664",
"b  c #316967",
"n  c #326C69",
"m  c #34726D",
"M  c #3F7E6E",
"N  c #357671",
"B  c #377A73",
"V  c #397C73",
"C  c #35767B",
"Z  c #2E7575",
"A  c #405C43",
"S  c #5A5C40",
"D  c #4E6B4B",
"F  c #4B6847",
"G  c #5E6041",
"H  c #5E7940",
"J  c #476358",
"K  c #416B59",
"L  c #4E7D5A",
"P  c #46735C",
"I  c #567750",
"U  c #627540",
"Y  c #677C41",
"T  c #6B7C41",
"R  c #7B7A48",
"E  c #407F6E",
"W  c #4F7B65",
"Q  c #517261",
"!  c #587C68",
"~  c #417F73",
"^  c #398077",
"/  c #398178",
"(  c #5E8354",
")  c #5B8E5D",
"_  c #56865D",
"`  c #5F905A",
"'  c #6E8443",
"]  c #6D8D43",
"[  c #6B8A4E",
"{  c #67864D",
"}  c #778F45",
"|  c #788F44",
" . c #739444",
".. c #7A9245",
"X. c #749C4C",
"o. c #789E4A",
"O. c #799C46",
"+. c #648955",
"@. c #668D58",
"#. c #659456",
"$. c #6A9653",
"%. c #6E9851",
"&. c #619159",
"*. c #6A945B",
"=. c #6E9A5F",
"-. c #679858",
";. c #739D5D",
":. c #789F59",
">. c #7DA147",
",. c #7BA148",
"<. c #7DA259",
"1. c #4B8566",
"2. c #44826D",
"3. c #4B856C",
"4. c #4F8B6D",
"5. c #528963",
"6. c #598E66",
"7. c #538A6A",
"8. c #5A9066",
"9. c #448272",
"0. c #578C70",
"q. c #5F8D75",
"w. c #629463",
"e. c #6C9E65",
"r. c #6A9468",
"t. c #749D6E",
"y. c #618E75",
"u. c #679175",
"i. c #6A9770",
"p. c #6FA165",
"a. c #75A462",
"s. c #78A763",
"d. c #79A863",
"f. c #84834B",
"g. c #918F4E",
"h. c #839C48",
"j. c #93914F",
"k. c #809D50",
"l. c #9A9851",
"z. c #81A346",
"x. c #83A548",
"c. c #8AA349",
"v. c #83A848",
"b. c #8CAA49",
"n. c #91A549",
"m. c #91AD4A",
"M. c #96B14B",
"N. c #9CB54C",
"B. c #9BB94E",
"V. c #85A756",
"C. c #86AB56",
"Z. c #8AAC55",
"A. c #8BAE58",
"S. c #80A458",
"D. c #93AF51",
"F. c #8FB252",
"G. c #93B351",
"H. c #A1B74C",
"J. c #A3B94C",
"K. c #A9BE4D",
"L. c #A8A757",
"P. c #A7BA50",
"I. c #ABBD53",
"U. c #A0B654",
"Y. c #B0BF57",
"T. c #BAB55A",
"R. c #BFBA5B",
"E. c #B1BA5A",
"W. c #8DAB6C",
"Q. c #8FA463",
"!. c #98A862",
"~. c #ABBC6A",
"^. c #B1C057",
"/. c #B4C159",
"(. c #BAC55D",
"). c #BDC760",
"_. c #BFC761",
"`. c #BFC862",
"'. c #C5CB66",
"]. c #C7CC67",
"[. c #C6CC67",
"{. c #C4CB65",
"}. c #C9CD67",
"|. c #CCCF67",
" X c #C8CD68",
".X c #C8CD68",
"XX c #CACE69",
"oX c #C8CD68",
"OX c #C0C869",
"+X c #CED066",
"@X c #3A8587",
"#X c #3F9394",
"$X c #45A6A5",
"%X c #46A9A7",
"&X c #47ABA9",
"*X c #47ABA9",
/* pixels */
"X X X &X&X&X&X&X&X&X&X&X&X&X&X&X&X&XX X X X &X&X&X&X&X&X&X&X&XX X X X X X X &X&X&X&X&X&X&X&X&X&X&X&X&X&X&X&X&X&X&X&X&X&X&X&X&X&X",
"X X X X X &X&X&XX X X X X X &X&X&XX X X X X X &X&X&X&X&X&X&XX X X X X X X X X &X&X&X&X&X&X&X&X&X&X&XX X X X &X&X&X&X&X&X&X&X&X&X",
"R.R.R.X X X &XX X X X X X X X &XX X X B.B.X X &XX X X X X &XX X X R.R.R.R.X X &X&X&X&X&X&X&X&X&XX X X X X X X X &X&X&X&X&X&X&X&X",
"R.R.R.R.X X X X X X R.R.R.R.X X X X B.B.B.B.X X X X X X X X X X R.R.R.R.R.R.X X &X&X&X&X&X&X&XX X X X B.B.B.X X X &X&X&X&X&X&X&X",
"R.R.R.R.X X X X X R.R.R.R.R.R.X X X B.B.B.B.B.X X X d.d.X X X X R.R.R.R.R.R.X X X X X X X &X&XX X X B.B.B.B.B.X X X &X&X&X&X&X&X",
"B.B.B.R.R.X X X X R.R.R.R.R.R.R.X X B.B.B.B.B.X X d.d.d.d.X X X R.R.R.R.R.X X X X X X X X X &XX X d.B.B.B.B.B.B.X X &X&X&X&X&X&X",
"B.B.B.B.B.B.R.X X R.R.R.R.R.R.R.R.X X B.B.B.B.B.X d.d.d.R.R.X X R.R.R.R.R.X X R.R.R.R.R.X X X X X B.B.B.B.B.B.B.X X &X&X&X&X&X&X",
"B.B.B.B.B.B.B.B.X X X R.B.B.B.B.R.B.X B.B.B.B.B.d.d.d.R.R.R.R.X R.R.R.R.X X R.R.R.R.R.R.R.X X d.d.B.B.B.B.B.B.B.X X &X&X&X&X&X&X",
"R.R.B.B.B.B.B.B.B.R.R.R.B.B.B.B.B.B.B.B.B.B.B.B.B.d.d.R.R.R.R.X R.R.R.R.X R.R.R.R.R.R.R.R.X X d.d.B.B.B.B.B.B.B.X X &X&X&X&X&X&X",
"R.R.R.B.B.B.B.B.B.B.B.B.B.B.B.B.B.B.B.B.B.B.B.B.B.B.R.R.B.B.R.R.R.R.R.R.R.R.R.R.R.R.R.R.R.X X d.d.B.B.B.B.B.X X X X X &X&X&X&X&X",
"R.R.R.B.B.B.R.R.B.B.B.B.B.B.B.B.B.B.B.B.B.B.B.B.B.B.R.B.B.B.B.R.R.R.R.R.R.R.R.B.B.B.R.X X X d.d.d.d.B.B.X X X X X X X X &X&X&X&X",
"R.R.R.B.B.R.R.R.R.R.B.B.B.B.B.B.B.B.B.B.B.B.B.B.B.B.B.B.B.B.B.B.B.B.B.R.R.R.B.B.B.B.X X X X d.d.d.d.d.B.X X B.B.B.B.X X X &X&X&X",
"R.R.R.R.R.R.R.R.R.R.R.R.R.R.R.R.R.R.R.B.B.B.B.B.B.B.B.B.B.B.B.B.B.B.B.B.R.R.B.B.B.B.X B.B.B.d.d.d.d.d.B.B.B.B.B.B.B.B.X X &X&X&X",
"R.R.R.R.R.R.R.R.R.B.B.B.B.B.B.B.B.B.B.B.B.B.B.B.B.B.B.B.B.B.B.B.B.B.B.B.B.B.B.B.B.B.B.B.B.B.B.d.d.d.d.B.B.B.B.B.B.B.B.X X &X&X&X",
"B.B.B.B.B.B.B.B.B.B.B.B.d.d.d.d.d.d.B.B.B.B.B.B.B.B.B.B.B.B.B.B.B.B.B.B.B.B.B.B.B.B.B.d.d.d.d.d.d.B.B.B.B.B.B.B.B.B.B.X X &X&X&X",
"B.B.B.B.B.B.B.B.B.B.d.d.d.d.d.d.d.d.d.B.d.d.d.d.B.B.B.B.B.B.R.R.R.B.B.B.B.B.B.B.B.B.B.d.d.d.d.d.d.B.B.B.X X B.B.B.B.X X X &X&X&X",
"B.B.B.B.B.B.B.B.d.d.d.d.d.d.d.d.d.d.d.d.d.d.d.d.d.B.B.B.R.R.R.R.R.R.B.B.B.B.B.B.B.B.B.B.d.d.d.d.B.B.B.B.B.B.X X X X X X &X&X&X&X",
"B.B.B.B.B.B.B.d.d.d.d.d.d.d.d.d.d.d.d.d.d.d.d.d.d.R.R.R.R.R.R.R.R.R.R.R.R.R.d.d.d.B.B.d.d.d.d.d.B.B.B.B.B.B.d.X X X X X &X&X&X&X",
"B.B.B.B.B.d.d.d.d.d.d.B.B.B.B.B.d.d.d.d.d.d.d.d.d.d.d.d.R.R.R.R.R.R.R.R.R.d.d.d.d.d.d.d.B.B.d.d.d.B.B.B.B.B.B.B.X X &X&X&X&X&X&X",
"B.B.B.d.d.d.d.d.d.d.B.B.B.B.B.B.B.d.d.d.B.B.B.d.d.d.d.d.d.d.R.R.R.d.d.d.d.d.B.B.d.d.d.B.B.B.B.d.d.B.B.B.B.B.B.B.X X &X&X&X&X&X&X",
"d.B.B.B.B.B.B.B.B.B.B.B.B.B.B.B.B.d.d.B.B.B.Z.V B B B B 6.B.B.B.B.B.8.B B B B B C.G.B.B.G.G.G.a.d.d.B.B.B.B.B.X X X X &X&X&X&X&X",
"d.d.d.d.B.B.B.B.B.B.B.B.B.B.B.B.B.B.G.G.G.Z.V B 2.2.2.V B w.B.F.G.w.B B V 2.2.2.V V Z.Z.V V B 2.a.d.d.d.B.B.B.d.X X X &X&X&X&X&X",
"B.B.B.B.B.B.B.B.B.B.B.B.B.B.B.B.B.F.2.B B B B 7.N.N.H.V.V 8.e.B B B B V V.H.N.N.7.B B B B 2.2.2.2.a.d.d.d.d.d.d.d.X X &X&X&X&X&X",
"B.B.B.B.B.B.B.B.u.u.u.u.u.B.B.u.y.V B 2.2.2.2.N.H.H.H.J.<.B B B B B 2.V.J.P.P.H.N.7.B B 7.N.J.C.B 2.p.e.a.d.d.d.d.X X X &X&X&X&X",
"B.B.B.B.B.B.B.u.u.u.u.u.u.u.u.u.~ B 3.G.H.M.6.Z.H.H.H.J.<.N 9.0.0.~ w.N.H.).}.I.H.N.7.E N.H.H.Z.3.2.B B 4.e.e.a.X X X X X X &X&X",
"B.B.B.B.B.u.u.u.R.R.R.R.u.u.q.!.3.B D.J.H.H.G.2.H.I.P.J.<.Z t.+X|.W.V <.J.).}.].I.H.N.r.I.I.P.H.J.S.N B B B B w.G.R.R.R.X X X &X",
"B.B.u.u.u.u.R.R.R.R.R.R.R.L.7.B B B :.N.H.H.M.w.Y. X{.U.w.~ W.}.].+Xi.:.I.{.}.].].J.I.}. X X{.I.J.<.V 6.6.6.2.B Q.R.R.R.R.X X &X",
"R.u.u.R.R.R.R.R.R.R.R.R.R.r.B 7.6.V B G.I.I.I.K.].].}.~.u.W.|.].].}.W.Z.(. X].].]./.'.].].].}.).J.Z.:.J.J.J.<.2.r.E.R.R.R.X X &X",
"R.R.R.R.R.R.R.R.R.R.d.d.+.W 7.D.J.=.V =.{. X'./.].].].}.|.}.].].].].}.(._.].].].]. X].].].].}.).H.J.J.H.H.H.J.w.B !.R.R.R.X X &X",
"B.B.B.B.B.B.R.R.d.d.d.@.> a k.K.J.J.;.t.OX].]. X].].].].].].}.].].].}. X].].]. X].].].].].].'.^.H.H.H.H.H.H.J.w.B !.R.R.X X X &X",
"B.B.B.B.B.B.B.B.B.B.O.2 X . 6 t n.J.J././.]. X X X].].]. X{.(. X]. X(.{.}.].].(.'. X X X X'.^.H.H.J.K.K.J.J.A.K h & X X X X &X&X",
"B.B.B.B.B.B.B.B.B.O., . 2 w 8 e n.J.H.H.H././././. X X{./.I.P.). X).J.I.{.].].(./././././.Y.H.J.K.c.e e | A.K & 5 X X X X &X&X&X",
"R.R.R.B.B.B.B.B.B.U . 2 ] x.b.J.J.H.J.H.b.N.H.H.J././.I.N.H.H.P./.P.N.I.{.].]. X(./.H.H.H.H.J.c.9 2 @   : P f . X 5 X X X &X&X&X",
"R.R.R.R.B.B.h.7 9 , 2 ] >.b.N.H.H.H.b.b.m.H.H.H.H.H.H.H.H.H.H.H.H.H.I.'. X].].]. X].J.H.H.H.J.n.i Y T 7   * A , . X | X X X &X&X",
"R.R.R.R.L.0 4 X X . w v.,.M.J.H.H.H.x.m.H.H.H.J.N.b.b.J.H.H.H.H.H.H.(. X].].]. X].Y.H.H.H.H.H.J.J.J.K.n.6 2  .] : . 2 c.X X &X&X",
"B.B.B.L.4 X & c c d - u x.x.N.J.H.H.x.b.N.J.N.b.x.>.>.b.H.H.H.H.H.H.P._. X X X^.I.H.H.H.H.H.H.H.H.H.H.K.r 8 x.x.] : X O.B.X X &X",
"B.B.B.h.X & n V V m s # u >.x.N.J.b.>.>.x.x.x.>.>.>.>.x.H.H.H.H.J.m.M.P.I.I.I.J.H.H.H.H.H.H.H.H.H.H.H.K.r 8 x.>.v.2 X O.B.X X &X",
"B.B.B.h.X p V B B B m c ( >.>.x.x.>.>.>.>.>.>.z.N.N.N.m.b.H.H.J.m.>.m.H.H.H.H.H.H.N.b.N.H.H.H.H.H.H.J.M. . .>.z.9 # X : c.X X &X",
"B.B.B.h.X p V B B B B B &.>.>.>.>.>.>.M.N.>.z.N.H.H.H.H.m.x.x.x.z.>.z.M.H.H.H.H.H.N.z.x.x.b.H.H.H.M.x.z.>.>.>.) m p X X : X X &X",
"B.B.B.h.X p B B l * * F ,.>.>.>.>.>.M.H.H.N.N.H.H.H.H.J.M.>.>.,.b.N.b.z.x.N.H.H.H.N.z.z.N.N.H.N.x.z.>.>.>.>.z.5.B m = X X X X &X",
"d.d.d.+.X X f l $ X 8 O.>.>.>.>.>.>.N.H.H.H.H.H.H.H.H.H.H.N.m.>.m.J.H.b.>.M.H.H.N.x.z.N.H.H.H.N.>.>.>.>.>.>.>.5.B B m & X X X &X",
"d.d.@.% X X + % . 3 >.>.>.>.>.>.>.>.z.N.N.H.H.H.H.N.H.H.H.H.H.b.b.H.H.H.x.>.N.N.x.>.z.N.H.H.H.M.>.>.>.,.o.,.) B B B V = X X &X&X",
"B.b.; X X * * % . 7 >.>.>.O. .X.,.>.>.>.z.N.H.H.N.x.H.H.H.H.J.m.>.m.N.N.x.>.>.>.>.>.>.x.N.N.N.>.>.>.>.&.B V B B B B m & X #X&X&X",
"B.c.o X s N B l $ X 8  . .3 % v $.>.>.>.>.z.N.N.>.x.N.N.H.H.H.b.>.>.>.>.>.>.>.>.>.>.>.>.>.>.>.>.>.>.>.#.B B B B m m p X * C $X&X",
"B.' o & B B B B l % X o o % l B B #.X.X.,.>.>.>.>.>.>.x.N.N.b.>.>.>.>.>.>.>.>.>.>.>.>.>.>.>.>.>.>.>.>.>.&.V B m s X X X C @X$X&X",
"B.' o & B B B B V z & % . h N B B B B 2.o.>.>.>.>.>.>.>.>.>.>.o.o.>.>.>.>.>.>.X.,.>.>.>.>.>.>.>.>.>.>.>.>.) B h $ X X X @X@X@X$X",
"m.' o & n V B B B B V k % . h m B B 2.o.>.>.>.>.>.>.>.>.>.>.o.5.5.o.>.>.>.X.%.E X.>.>.>.,.X.>.>.>.>.>.>.o.5.B V h + X X X X X %X",
"} ' : X & c b V B B B V k = = v B B X.>.>.>.>.,.%.>.>.>.>.o.) 1.V 5.%.$.$.2.B 2.o.>.>.>.X.2.>.>.>.>.>.z.` B B B V h % X R X X X ",
"Q Q ' > X . & b B B B B B V V B B B &.>.>.>.,.&.2.>.>.>.z.&.5.z.#.1.V 2.1.V B X.>.>.>.>.X.2.>.>.>.>.z.,.L n B B B V p X R j.X X ",
"! ! Q J X X % k V B B B B B B B B B B ` #.#.o.1.2.>.>.>.o.5.5.>.>.z.&.%.z.) V ) ,.>.>.#.` M $.>.z.X.-.L a g V B B V p X R j.X X ",
"u.L.j.J X * k V B B V B B B B B B B B B B 5.,.X.M $.z.o.5.C _ z.>.>.>.$.o.z.2.B ) &.` B B B M &.&.L z a . h V B V c & X R X X X ",
"T.g.j.R X p / B V b j v B B B B B B B B V ,.>.X.B M &.5.B B 2.%.>.>.z.1.5.&.E B B B B B B B B B B c f f = p n ^ c * X 4 X X X $X",
"R.L.j.R X * l ^ n p O h V B B B B B B B B ) o.) B B B B B B B 2.X.z.$.2.B B B B B B B B B B B B B B V / k . p k & X 6 X X X X %X",
"R.T.g.f.3 X * h p . = v B B B B B B B B B B 5.B B B B B B B B B 2.) 2.B B B B B B B B B B B V B B B V b = X X X 4 q X X X X X X ",
"R.R.c.} } 3 X X X X h / B B B B V B B B B B B B B B B B B B B B B B B B B B B B B B B B B m k V B V b = . < G S f.l.X } } X X X ",
"B.B.B.c.} ' e e e 2 & c V V V V j n B B B B B B B B B V V B B B B V z c B B B B B B B B B n % j V n = X X 9 O.j.j.} } } c.B.X X ",
"B.B.B.B.b.c.....O.9 X & d d d d % b V B B B B B B B n s k V V V V l % l V B B B B B B V m s X % d = X , t Y ( ( ( } c.b.B.B.X X ",
"B.B.B.B.B.B.*.( ( I , X X X X X X = m B B B B B V n = . * s s s s * X & b V B B B B N s = X X X X : r Y ..X X X ( *.B.B.B.B.X X ",
"B.B.B.B.B.B.B.m.c.( I F D D F y y y { +.B B B m p & X X X X X X X X X X & = n B B B B x r y y y y Y ....} } X X X a.B.B.B.B.X X ",
"B.B.B.B.B.B.B.B.B.M.c.| ( ( ( ......| | _ [ [ { i i U D D D D U U U U D D i > n B B +.[ ....O.M.b.} } } } *.a.X X X B.B.B.X X X ",
"B.B.B.B.B.B.R.R.B.B.M.M.h.} } } } } } } | | ..m.............................T { [ [ } | } } ( *.d.c.} h.a.a.d.X X X X X X X X &X",
"B.B.B.B.B.R.R.R.R.B.B.B.B.T.T.l.j.....} } ..M.M.| } } } } | } } } } } } } } ....| | } } } ( ( @.d.d.a.a.d.d.d.X X X X X X X &X&X",
"B.B.B.R.R.R.R.R.R.R.R.R.R.R.R.T.T.T.T.O...M.B.M.| } } ( @.*.( } } } } } } ..m.M.O.......+.a.a.a.d.d.d.d.d.d.d.X X d.d.d.X X X &X",
"d.d.R.R.R.R.R.R.R.R.R.R.R.R.R.R.d.d.d.a.B.B.d.a.( ( ( @.;.( ( ( ( } } ( ( ;.d.B.B.B.B.a.a.d.d.d.d.d.d.d.d.d.X X d.d.d.B.B.B.X X "
};
