/* XPM */
static const char *top_7[] = {
/* columns rows colors chars-per-pixel */
"64 64 185 2 ",
"   c #0D112C",
".  c #13162B",
"X  c #161C2E",
"o  c #181E2E",
"O  c #121227",
"+  c #171E30",
"@  c #1B222F",
"#  c #172031",
"$  c #192333",
"%  c #1A2837",
"&  c #1C2C3A",
"*  c #1E323E",
"=  c #21292F",
"-  c #222B32",
";  c #282D33",
":  c #2B3432",
">  c #2E3B34",
",  c #29373A",
"<  c #333E35",
"1  c #2F403B",
"2  c #364236",
"3  c #3C4B37",
"4  c #3D4138",
"5  c #3A4636",
"6  c #434739",
"7  c #405238",
"8  c #49563A",
"9  c #465A3A",
"0  c #4C5C3B",
"q  c #4C613B",
"w  c #53633C",
"e  c #5B6D3E",
"r  c #5E713F",
"t  c #5E793F",
"y  c #63743F",
"u  c #1F3541",
"i  c #213B45",
"p  c #213E48",
"a  c #26484E",
"s  c #24434A",
"d  c #274D52",
"f  c #284E53",
"g  c #295256",
"h  c #2B5759",
"j  c #2C5B5C",
"k  c #3E5543",
"l  c #33635E",
"z  c #2A5E61",
"x  c #2E6161",
"c  c #2F6868",
"v  c #306764",
"b  c #316966",
"n  c #326C69",
"m  c #34726D",
"M  c #3E7E6F",
"N  c #347773",
"B  c #377A73",
"V  c #397C73",
"C  c #2E7575",
"Z  c #4C684A",
"A  c #4B6847",
"S  c #5E7940",
"D  c #476358",
"F  c #49775A",
"G  c #567750",
"H  c #626342",
"J  c #657A41",
"K  c #6A7C41",
"L  c #7B7B48",
"P  c #407F6D",
"I  c #417665",
"U  c #517261",
"Y  c #597C68",
"T  c #407F72",
"R  c #398178",
"E  c #398077",
"W  c #5E8354",
"Q  c #578C5F",
"!  c #5B8E5D",
"~  c #57815A",
"^  c #5E905B",
"/  c #6D8343",
"(  c #6E8D43",
")  c #6B8B4D",
"_  c #67864D",
"`  c #778E45",
"'  c #788F44",
"]  c #739445",
"[  c #799145",
"{  c #759C4C",
"}  c #799F4A",
"|  c #799C46",
" . c #648955",
".. c #668D59",
"X. c #669456",
"o. c #699654",
"O. c #6D9851",
"+. c #619259",
"@. c #6A935B",
"#. c #6D995F",
"$. c #729C5D",
"%. c #7B9850",
"&. c #7DA147",
"*. c #7CA148",
"=. c #7BA15A",
"-. c #4D8665",
";. c #44826D",
":. c #49856C",
">. c #4E8A6C",
",. c #4F8864",
"<. c #528962",
"1. c #588D67",
"2. c #538B69",
"3. c #56896E",
"4. c #5C9165",
"5. c #5F9669",
"6. c #458272",
"7. c #578C70",
"8. c #5D8C75",
"9. c #629463",
"0. c #689661",
"q. c #6C9C63",
"w. c #68956C",
"e. c #719B6F",
"r. c #628E74",
"t. c #679175",
"y. c #6FA166",
"u. c #75A462",
"i. c #78A763",
"p. c #79A863",
"a. c #89884C",
"s. c #918F4E",
"d. c #829C48",
"f. c #93914F",
"g. c #9D9A51",
"h. c #81A346",
"j. c #84A548",
"k. c #8AA349",
"l. c #83A949",
"z. c #8CAA49",
"x. c #90A448",
"c. c #92AD4A",
"v. c #96B14B",
"b. c #9BB54C",
"n. c #9BB94E",
"m. c #84A657",
"M. c #86AB56",
"N. c #8BAD54",
"B. c #83A658",
"V. c #91AE52",
"C. c #8FB252",
"Z. c #93B351",
"A. c #A1B74C",
"S. c #A3B94C",
"D. c #A5A254",
"F. c #AAA655",
"G. c #B0AC57",
"H. c #A7BA50",
"J. c #ABBD53",
"K. c #A6B459",
"L. c #BAB55A",
"P. c #BFBA5B",
"I. c #8CAA6C",
"U. c #8FA363",
"Y. c #91AD6B",
"T. c #AFBE6A",
"R. c #AAC04C",
"E. c #B2C057",
"W. c #B3C159",
"Q. c #BAC55D",
"!. c #BEC761",
"~. c #BEC765",
"^. c #C1C963",
"/. c #C5CB66",
"(. c #C7CC67",
"). c #C6CC67",
"_. c #C7CC67",
"`. c #C9CD67",
"'. c #CCCF67",
"]. c #C8CD68",
"[. c #C8CD68",
"{. c #CACE69",
"}. c #C8CD68",
"|. c #CED066",
" X c #47ABA9",
/* pixels */
"X  X XX X X X X  X X X X X X X X X X X X X X X X X X X X X X X X X X XX X X X X X X  XX X X  X XX X X X X X  X X X X X X X XX X ",
"X X X X X X X X X  XX X X X  X X X X X X X X XX X X X X  X X X X X XX X X X X X X X X X X X X X X X X X X X X X X X  X X XX X X ",
"X X X X X n.n.X X X X X X X X  XX X X X  X XX X X X X X X  X X X XX X X X P.P.P.X X X p.p.X X X X P.P.P.X X X X X X X X X X P.P.",
"n.X X X n.n.n.n.X X X X X X X X X X X X X  XX X p.p.p.X X X  X X XX X X P.P.P.P.P.X p.p.p.p.X X P.P.P.P.P.X X X p.p.X X X P.P.P.",
"P.X X n.n.n.n.n.X X X P.P.P.X X X n.n.n.X X X p.p.p.p.p.X X X X X X X P.P.P.P.P.P.X p.p.p.p.X X P.P.P.P.P.X X p.p.p.p.X P.P.P.P.",
"P.X X n.n.n.n.n.X X P.P.P.P.P.X n.n.n.n.n.X X p.p.p.p.p.X X X X X X X P.P.P.P.P.P.P.p.p.p.p.P.P.P.P.P.P.P.X X p.p.p.p.X P.P.P.P.",
"P.X n.n.n.n.n.n.X P.P.P.P.P.P.X n.n.n.n.n.n.n.n.n.p.p.X X X P.P.P.X X X P.P.P.P.P.P.P.p.p.P.P.P.P.P.P.P.X X X p.P.P.P.X P.P.P.n.",
"P.n.n.n.n.n.n.X X P.n.n.n.n.P.p.p.n.n.n.n.n.n.n.n.n.p.X X P.P.P.P.P.P.X X P.P.P.P.P.P.p.P.P.P.P.P.P.P.P.X X P.P.P.P.P.P.P.P.n.n.",
"P.P.n.n.n.n.n.X n.n.n.n.n.n.n.p.p.n.n.n.n.n.n.n.n.n.n.X P.P.P.P.P.P.P.P.X P.P.P.P.P.P.P.P.P.P.P.P.P.P.X X P.P.P.P.P.P.P.P.P.n.P.",
"P.P.P.n.n.n.n.n.n.n.n.n.n.n.n.n.p.p.n.n.n.n.n.n.n.n.P.P.n.n.P.P.P.P.P.P.P.P.P.P.P.P.P.P.P.P.P.P.P.P.P.P.P.P.P.P.P.P.P.P.P.P.P.P.",
"P.P.P.n.n.n.P.P.n.n.n.n.n.n.n.n.n.n.n.n.n.n.n.n.n.n.P.n.n.n.n.P.P.P.P.P.P.P.P.n.n.n.P.P.P.P.P.n.n.P.P.P.P.n.n.P.P.P.P.P.P.P.P.P.",
"P.P.P.n.n.P.P.P.P.P.n.n.n.n.n.n.n.n.n.n.n.n.n.n.n.n.n.n.n.n.n.n.n.n.n.P.P.P.n.n.n.n.n.P.P.n.n.n.n.n.n.P.n.n.n.n.P.P.P.P.P.P.P.P.",
"P.P.P.P.P.P.P.P.P.P.P.P.P.P.P.P.P.P.P.n.n.n.n.n.n.n.n.n.n.n.n.n.n.n.n.n.P.P.n.n.n.n.n.P.n.n.n.n.n.n.n.n.n.n.n.n.P.P.P.P.P.P.P.P.",
"P.P.P.P.P.P.P.P.P.n.n.n.n.n.n.n.n.n.n.n.n.n.n.n.n.n.n.n.n.n.n.n.n.n.n.n.n.n.n.n.n.n.n.P.n.n.n.n.n.n.n.n.n.n.n.n.P.P.P.P.P.n.n.n.",
"n.n.n.n.n.n.n.n.n.n.n.n.p.p.p.p.p.p.n.n.n.n.n.n.n.n.n.n.n.n.n.n.n.n.n.n.n.n.n.n.n.n.n.n.n.n.n.n.n.n.n.n.n.n.n.n.n.n.n.n.n.n.n.n.",
"n.n.n.n.n.n.n.n.n.n.p.p.p.p.p.p.p.p.p.n.p.p.p.p.n.n.n.n.n.n.P.P.P.n.n.n.n.n.n.n.n.n.n.n.n.n.n.n.n.n.n.n.n.n.n.n.n.n.n.n.n.n.n.n.",
"n.n.n.n.n.n.n.n.p.p.p.p.p.p.p.p.p.p.p.p.p.p.p.p.p.n.n.n.P.P.P.P.P.P.n.n.n.n.n.n.n.n.n.n.p.p.p.n.n.n.n.n.n.n.n.n.n.n.n.n.n.n.n.n.",
"n.n.n.n.n.n.n.p.p.p.p.p.p.p.p.p.p.p.p.p.p.p.p.p.p.P.P.P.P.P.P.P.P.P.P.P.P.P.p.p.p.n.n.p.p.p.p.p.n.n.n.n.n.n.n.n.n.n.n.n.n.n.n.n.",
"n.n.n.n.n.p.p.p.p.p.p.n.n.n.n.n.p.p.p.p.p.p.p.p.p.p.p.p.P.P.P.P.P.P.P.P.P.p.p.p.p.p.p.p.n.n.p.p.p.n.n.n.n.n.n.p.p.p.n.n.n.n.n.n.",
"n.n.n.p.p.p.p.p.p.p.n.n.n.n.n.n.n.p.p.p.n.n.n.p.p.p.p.p.p.p.P.P.P.p.p.p.p.p.n.n.p.p.p.n.n.n.n.p.p.p.n.n.n.n.p.p.p.p.p.n.n.n.p.p.",
"p.n.n.n.n.n.n.n.n.n.n.n.n.n.n.n.n.p.p.n.n.n.N.V B B B B 1.n.n.n.n.n.4.B B B B B M.Z.n.n.Z.Z.Z.Z.n.n.n.n.n.p.p.p.p.p.p.p.p.p.p.p.",
"p.p.p.p.n.n.n.n.n.n.n.n.n.n.n.n.n.n.Z.C.Z.N.V B ;.;.;.V B 9.n.C.Z.4.B B T :.;.;.V V N.N.V V B :.u.n.n.n.n.p.p.p.p.p.p.p.p.p.p.p.",
"n.n.n.n.n.n.n.n.n.n.n.n.n.n.n.n.n.C.:.B B B B 2.b.b.A.m.V 4.q.B B B B V m.A.b.b.2.B B B B :.:.;.:.u.n.n.p.p.p.p.n.n.n.p.p.p.p.p.",
"n.n.n.n.n.n.n.n.t.t.t.t.t.n.n.t.r.V B :.:.:.;.b.A.A.A.S.=.N B B B B T m.S.H.H.S.b.2.B B 2.b.S.M.B :.y.q.u.p.p.n.n.n.n.n.n.n.n.n.",
"n.n.n.n.n.n.n.t.t.t.t.t.t.t.t.r.T B :.Z.A.v.:.b.A.A.A.b.#.T 7.7.6.N =.S.S.^.`.H.A.b.V M b.A.S.N.:.B B B >.q.u.n.n.n.n.n.n.n.n.n.",
"n.n.n.n.n.t.t.t.P.P.P.P.t.8.8.3.B B V.S.A.v.:.b.J.H.S.m.C e.|.'.Y.T $.S.Q.].(.J.A.b.w.w.J.H.A.S.m.B B B B B 9.Z.n.n.n.n.n.n.n.n.",
"n.n.t.t.t.t.P.P.P.P.P.P.K.3.B B B B V.A.A.v.9.J.`.^.H.0.V I.`.(.|.e.$.J.^.`.(.(.H.J.`.`.].^.J.S.B.V 1.1.1.:.B 5.p.p.p.p.p.n.n.n.",
"P.t.t.P.P.P.P.P.P.P.P.P.w.B >.4.V B V.J.J.J.S.(.(.`.T.t.I.'.(.(.`.I.m.Q.].(.(.(.W.).(.(.(.(.^.S.N.$.S.S.S.B.:.>.u.p.p.p.p.p.p.p.",
"P.P.P.P.P.P.P.P.P.P.p. .I 2.V.S.$.V 0.~.].(.W.(.(.(.`.'.`.(.(.(.(.`.Q.!.(.(.(.(.].(.(.(.(.`.^.A.S.S.A.A.A.S.0.N U.P.P.P.P.P.P.P.",
"n.n.n.n.n.n.P.P.p.p...> u %.R.S.S.$.e.~.`.(.].(.(.(.(.(.(.].(.(.(.`.].(.(.(.].(.(.(.(.(.(.).W.A.A.A.A.A.A.S.0.N U.P.P.P.P.P.P.P.",
"n.n.n.n.n.n.n.n.n.d.2 X   6 e k.S.S.W.W.(.].].].(.(.(.].^.Q.].(.].!.^.].(.(.Q.).].].].].).W.A.A.S.S.S.S.S.N.>.2.N.n.n.n.n.n.n.n.",
"n.n.n.n.n.n.n.n.d.2 . < q 9 w k.S.A.A.A.W.W.W.W.].].^.W.J.S.!.].!.H.J.^.(.(.Q.W.W.W.W.W.E.A.S.H.x.w w ' N.>.z ) n.n.n.n.n.n.n.n.",
"P.P.P.n.n.n.n.n.J X < ( l.z.S.S.A.S.S.z.b.A.A.S.E.W.J.A.A.A.H.W.H.b.J.^.(.(.].Q.W.A.A.A.A.S.x.0 5     : F x & < d.n.n.n.n.n.n.P.",
"P.P.P.P.n.k.8 0 2 . 9 l.*.c.S.A.A.z.z.c.A.A.A.A.A.A.A.A.A.A.A.A.A.A.Q.].(.(.(.].].S.A.A.A.S.c.y K K 8   & & O X 2 d.n.n.n.n.P.P.",
"P.P.P.P.D.4 X X X . 9 l.*.v.S.A.A.v.h.b.A.A.A.S.b.z.z.S.A.A.A.A.A.A.Q.].(.(.(.(.W.S.A.A.A.A.S.S.S.S.c.8 . 5 S > . < D.P.P.P.P.P.",
"n.n.n.F.4 X & x x p = S l.l.b.A.A.S.j.j.b.S.b.z.j.*.*.z.A.A.A.A.A.A.H.!.].`.`.E.A.A.A.A.A.A.A.A.A.A.S.K   q l.( > . < k.P.P.P.P.",
"n.n.n.d.X & n V V m i @ t &.l.b.S.z.*.*.j.j.j.*.*.*.*.j.S.A.A.A.S.c.v.H.J.J.J.A.A.A.A.A.A.A.A.A.A.A.S.y 2 ] *.&.( > X [ n.n.P.n.",
"n.n.n.d.X u V B B B m x W *.*.l.j.*.*.*.*.*.*.h.b.b.b.c.z.A.A.S.c.*.c.A.A.A.A.A.A.b.z.A.A.A.A.A.A.A.S.k.] *.*.*.l.2 X [ n.n.n.n.",
"n.n.n.d.X u V B B B B B +.*.*.*.*.*.*.v.b.h.h.b.A.A.A.A.c.l.l.j.h.*.h.v.A.A.A.A.A.b.h.l.j.z.A.A.A.A.v.h.*.*.*.&.9 @ X : k.n.n.n.",
"n.n.n.d.X u B B h % % A *.*.*.*.*.*.v.A.A.b.b.A.A.A.A.S.v.*.*.*.z.b.z.h.l.b.A.A.A.b.h.h.b.b.A.b.h.h.h.*.*.*.*.! m u X X - #.p.n.",
"p.p.p. .X X s j # X 9 | *.*.*.*.*.*.b.A.A.A.A.A.A.A.A.A.A.b.c.*.c.S.A.z.*.v.A.A.b.j.h.b.A.A.A.b.*.*.*.*.*.*.h.<.B m u X X @.p.p.",
"p.p...% X X + # . 7 *.*.*.*.*.*.*.*.h.b.b.A.A.A.A.b.A.A.A.A.A.z.z.A.A.A.j.*.b.b.j.*.h.b.A.A.A.v.*.*.*.*.*.*.*.<.B B N & X @.p.p.",
"n.z.- X X % % # . 7 *.*.*.| ] { *.*.*.*.h.b.A.A.b.j.A.A.A.A.S.c.*.c.b.b.j.*.*.*.*.*.*.l.b.b.b.*.*.*.*.*.} } Q B B B V * X @.n.n.",
"n.k.o X i N B j # X 9 ] ] 3 $ v o.*.*.*.*.h.b.b.*.j.b.b.A.A.A.z.*.*.*.*.*.*.*.*.*.*.*.*.*.*.*.*.*.*.*.+.B V B B B B m & X / n.n.",
"n./ o & B B B V j # X o o $ j B B o.{ { *.*.*.*.*.*.*.j.b.b.z.*.*.*.*.*.*.*.*.*.*.*.*.*.*.*.*.*.*.*.*.X.V B B B m n * X - / c.n.",
"n./ o & B B B B V h & $ . d N B B B B ;.} *.*.*.*.*.*.*.*.*.*.*.*.*.*.*.*.*.*.{ *.*.*.*.*.*.*.*.*.*.*.*.+.V B m u X X ; L f.f.L.",
"c./ o & n V B B B B V g # . d m B B ;.} *.*.*.*.*.*.*.*.*.*.*.} } *.*.*.*.*.{ P { *.*.*.*.{ *.*.*.*.*.*.h.! B f # X X H s.f.g.L.",
"` / : X & x b V B B B V g * * v B B { *.*.*.*.*.O.*.*.*.*.} o.-.<.} *.*.*.{ P ;.} *.*.*.{ ;.*.*.*.*.*.*.} <.B V f # X X L f.G.n.",
"U U / , X X & b B B B B B V V B B B +.*.*.*.o.X.<.*.*.*.} <.M ;.N <.o.X.o.;.:.} *.*.*.*.X.<.*.*.*.*.*.h.^ B B B V d # X L [ ` z.",
"Y Y U D X X # g V B B B B B B B B B B ^ X.} -.P *.*.*.*.X.V X.o.-.M ;.-.V B ! *.*.*.X.+.M o.*.*.*.*.h.{ F b B B B V u X J [ ` U ",
"t.F.f.D X % g V B B V B B B B B B B B B <.} } M X.*.h.} <.<.h.*.h.X.O.h.^ M B ! +.+.B B B M +.+.+.+.X.F u a V B B V u X J [ [ Y ",
"L.s.f.L X u R B V b f v B B B B B B B V } *.} B V ^ +.<.N <.h.*.*.h.o.{ h.-.B B B B B B B B B B B n f u O f V B V x & X L U U r.",
"P.D.f.L X % j E n u O d V B B B B B B B ! } ! B B B B B B ;.O.*.*.h.<.-.! P B B B B B B B B B B B b s a * * b R j % X 6 a.f.D.P.",
"P.L.f.a.3 X % d u . * v B B B B B B B B B <.B B B B B B B B ;.O.h.o.;.B B B B B B B B B B B V B B B V R g O * d & X 6 a.f.s.L.P.",
"P.P.k.` ` 3 X X X X d R B B B B V B B B B B B B B B B B B B B ;.Q ;.B B B B B B B B B B B m g V B B V v * X X X 6 0 / [ s.F.P.P.",
"n.n.n.k.` / w w w 2 & x V V V V f n B B B B B B B B B V B B B B B B V B B B B B B B B B B n # f V V b & X 4 H H / [ ` ` k.P.P.P.",
"n.n.n.n.z.k.[ [ [ 0 X & p p p p # b V B B B B B B V n f V B B B B V g x B B B B B B B V m i X # p p & X X 0 [ [ [ ` k.z.n.n.n.n.",
"n.n.n.n.n.n.@.W W G > X X X X X X * m B B B B B V n & # f V V V V h # j V B B B B B N i * X X X X X X < e K [ ` ` k.n.n.n.n.n.n.",
"n.n.n.n.n.n.n.c.k.W G Z Z Z Z r r r _  .B B B m u & X X # u u u u % X & v V B B B B B l e r r r r r r K [ [ W @.$.n.n.n.n.n.n.n.",
"n.n.n.n.n.n.n.n.n.v.k.[ W W W [ [ [ [ ' ~ ) ) _ y y J k X X X X X X X X & * * n B B  .) [ [ [ v.z.[ [ [ ` @.u.u.p.p.n.n.n.n.n.n.",
"n.n.n.n.n.n.P.P.n.n.b.v.d.` ` ` ` ` ` ` ' ' [ c.[ [ [ ` J J J J J J J J J J J ) ) ) ` ' ` ` W @.i.k.` d.u.u.p.p.p.p.n.n.n.n.n.n.",
"n.n.n.n.n.P.P.P.P.n.n.n.n.L.L.g.f.[ [ ` ` [ v.v.` ` ` ` [ [ [ [ [ [ [ [ [ [ [ [ ' ' ` ` ` W W ..p.i.u.u.p.p.p.p.p.p.n.n.n.n.n.n.",
"n.n.n.P.P.P.P.P.P.P.P.P.P.P.P.L.L.L.L.[ [ v.n.v.` ` ` W ..#.W ` ` ` ` ` ` [ c.b.[ [ [ [  .u.u.u.p.p.p.p.p.p.p.p.p.p.p.p.p.n.n.n.",
"p.p.P.P.P.P.P.P.P.P.P.P.P.P.P.P.p.p.p.u.n.n.p.u.W W W ..$.W W W W ` ` W W $.p.n.n.n.n.u.u.p.p.p.p.p.p.p.p.p.p.p.p.p.p.p.p.p.p.p."
};
