/* XPM */
static const char *top_1[] = {
/* columns rows colors chars-per-pixel */
"64 64 183 2 ",
"   c #0D112C",
".  c #13162B",
"X  c #161C2E",
"o  c #181E2E",
"O  c #121227",
"+  c #171E30",
"@  c #1B222F",
"#  c #172031",
"$  c #192333",
"%  c #1A2837",
"&  c #1C2C3A",
"*  c #1E323E",
"=  c #21292F",
"-  c #222B32",
";  c #282D33",
":  c #2B3432",
">  c #2E3B34",
",  c #29373A",
"<  c #333E35",
"1  c #2F403B",
"2  c #364236",
"3  c #3A4636",
"4  c #3C4B37",
"5  c #3D4138",
"6  c #434739",
"7  c #405238",
"8  c #49563A",
"9  c #465A3A",
"0  c #4C5C3B",
"q  c #4C613B",
"w  c #53633C",
"e  c #5B6D3E",
"r  c #5E713F",
"t  c #5E793F",
"y  c #63743F",
"u  c #1F3541",
"i  c #213B45",
"p  c #213E48",
"a  c #26484E",
"s  c #24434A",
"d  c #274D52",
"f  c #284E53",
"g  c #295256",
"h  c #2B5759",
"j  c #2C5B5C",
"k  c #3E5543",
"l  c #33635E",
"z  c #2A5E61",
"x  c #2E6161",
"c  c #2F6868",
"v  c #306764",
"b  c #316966",
"n  c #326C69",
"m  c #34726D",
"M  c #3E7E6F",
"N  c #347772",
"B  c #377A73",
"V  c #397C73",
"C  c #2E7575",
"Z  c #4C684A",
"A  c #4B6847",
"S  c #5E7940",
"D  c #476358",
"F  c #49775A",
"G  c #567750",
"H  c #626342",
"J  c #657A41",
"K  c #6A7C41",
"L  c #7B7B48",
"P  c #407B69",
"I  c #517261",
"U  c #597C68",
"Y  c #407F72",
"T  c #398178",
"R  c #398077",
"E  c #5E8354",
"W  c #578C5F",
"Q  c #5B8E5C",
"!  c #57815A",
"~  c #5F905A",
"^  c #6D8343",
"/  c #6E8D43",
"(  c #6B8B4D",
")  c #67864D",
"_  c #778E45",
"`  c #788F44",
"'  c #739445",
"]  c #799145",
"[  c #749C4C",
"{  c #799F4A",
"}  c #799C46",
"|  c #648955",
" . c #668D59",
".. c #669455",
"X. c #699654",
"o. c #6E9950",
"O. c #629259",
"+. c #6A935B",
"@. c #6D995F",
"#. c #729C5D",
"$. c #7B9850",
"%. c #7DA147",
"&. c #7CA148",
"*. c #7BA15A",
"=. c #4D8665",
"-. c #44826D",
";. c #49856D",
":. c #4E8A6C",
">. c #528963",
",. c #588D67",
"<. c #538B69",
"1. c #56896E",
"2. c #5C9165",
"3. c #5F9669",
"4. c #458272",
"5. c #578C70",
"6. c #5D8C75",
"7. c #629463",
"8. c #689661",
"9. c #6C9C63",
"0. c #68956C",
"q. c #719B6F",
"w. c #628E74",
"e. c #679175",
"r. c #6FA166",
"t. c #75A462",
"y. c #78A763",
"u. c #79A863",
"i. c #89884C",
"p. c #918F4E",
"a. c #829C48",
"s. c #93914F",
"d. c #9D9A51",
"f. c #81A346",
"g. c #84A548",
"h. c #8AA349",
"j. c #83A949",
"k. c #8CAA49",
"l. c #90A448",
"z. c #92AD4A",
"x. c #96B14B",
"c. c #9BB54C",
"v. c #9BB94E",
"b. c #84A657",
"n. c #86AB56",
"m. c #8BAD54",
"M. c #83A658",
"N. c #91AE52",
"B. c #8FB252",
"V. c #93B351",
"C. c #A1B74C",
"Z. c #A3B94C",
"A. c #A5A254",
"S. c #AAA655",
"D. c #B0AC57",
"F. c #A7BA50",
"G. c #ABBD53",
"H. c #A6B459",
"J. c #BAB55A",
"K. c #BFBA5B",
"L. c #8CAA6C",
"P. c #8FA363",
"I. c #91AD6B",
"U. c #AFBE6A",
"Y. c #AAC04C",
"T. c #B2C057",
"R. c #B3C159",
"E. c #BAC55D",
"W. c #BEC761",
"Q. c #BEC765",
"!. c #C1C963",
"~. c #C5CB66",
"^. c #C7CC67",
"/. c #C6CC67",
"(. c #C7CC67",
"). c #C9CD67",
"_. c #CCCF67",
"`. c #C8CD68",
"'. c #C8CD68",
"]. c #CACE69",
"[. c #C8CD68",
"{. c #CED066",
"}. c #47ABA9",
/* pixels */
"X }.}.X X X X X }.}.}.}.}.}.}.}.}.}.}.}.}.}.}.}.}.}.}.}.}.}.}.}.}.}.}.X X X X X X X }.X X X }.}.X X X X X X }.}.}.}.}.}.}.}.X X ",
"X X X X X X X X X }.X X X X }.}.}.}.}.}.}.}.}.X X X X X }.}.}.}.}.}.X X X X X X X X X X X X X X X X X X X X X X X X }.}.}.X X X ",
"X X X X X v.v.X X X X X X X X }.X X X X }.}.X X X X X X X }.}.}.}.X X X X K.K.K.X X X u.u.X X X X K.K.K.X X X X X X X X X X K.K.",
"v.X X X v.v.v.v.X X X X X X X X X X X X X }.X X u.u.u.X X X }.}.}.X X X K.K.K.K.K.X u.u.u.u.X X K.K.K.K.K.X X X u.u.X X X K.K.K.",
"K.X X v.v.v.v.v.X X X K.K.K.X X X v.v.v.X X X u.u.u.u.u.X X X X X X X K.K.K.K.K.K.X u.u.u.u.X X K.K.K.K.K.X X u.u.u.u.X K.K.K.K.",
"K.X X v.v.v.v.v.X X K.K.K.K.K.X v.v.v.v.v.X X u.u.u.u.u.X X X X X X X K.K.K.K.K.K.K.u.u.u.u.K.K.K.K.K.K.K.X X u.u.u.u.X K.K.K.K.",
"K.X v.v.v.v.v.v.X K.K.K.K.K.K.X v.v.v.v.v.v.v.v.v.u.u.X X X K.K.K.X X X K.K.K.K.K.K.K.u.u.K.K.K.K.K.K.K.X X X u.K.K.K.X K.K.K.v.",
"K.v.v.v.v.v.v.X X K.v.v.v.v.K.u.u.v.v.v.v.v.v.v.v.v.u.X X K.K.K.K.K.K.X X K.K.K.K.K.K.u.K.K.K.K.K.K.K.K.X X K.K.K.K.K.K.K.K.v.v.",
"K.K.v.v.v.v.v.X v.v.v.v.v.v.v.u.u.v.v.v.v.v.v.v.v.v.v.X K.K.K.K.K.K.K.K.X K.K.K.K.K.K.K.K.K.K.K.K.K.K.X X K.K.K.K.K.K.K.K.K.v.K.",
"K.K.K.v.v.v.v.v.v.v.v.v.v.v.v.v.u.u.v.v.v.v.v.v.v.v.K.K.v.v.K.K.K.K.K.K.K.K.K.K.K.K.K.K.K.K.K.K.K.K.K.K.K.K.K.K.K.K.K.K.K.K.K.K.",
"K.K.K.v.v.v.K.K.v.v.v.v.v.v.v.v.v.v.v.v.v.v.v.v.v.v.K.v.v.v.v.K.K.K.K.K.K.K.K.v.v.v.K.K.K.K.K.v.v.K.K.K.K.v.v.K.K.K.K.K.K.K.K.K.",
"K.K.K.v.v.K.K.K.K.K.v.v.v.v.v.v.v.v.v.v.v.v.v.v.v.v.v.v.v.v.v.v.v.v.v.K.K.K.v.v.v.v.v.K.K.v.v.v.v.v.v.K.v.v.v.v.K.K.K.K.K.K.K.K.",
"K.K.K.K.K.K.K.K.K.K.K.K.K.K.K.K.K.K.K.v.v.v.v.v.v.v.v.v.v.v.v.v.v.v.v.v.K.K.v.v.v.v.v.K.v.v.v.v.v.v.v.v.v.v.v.v.K.K.K.K.K.K.K.K.",
"K.K.K.K.K.K.K.K.K.v.v.v.v.v.v.v.v.v.v.v.v.v.v.v.v.v.v.v.v.v.v.v.v.v.v.v.v.v.v.v.v.v.v.K.v.v.v.v.v.v.v.v.v.v.v.v.K.K.K.K.K.v.v.v.",
"v.v.v.v.v.v.v.v.v.v.v.v.u.u.u.u.u.u.v.v.v.v.v.v.v.v.v.v.v.v.v.v.v.v.v.v.v.v.v.v.v.v.v.v.v.v.v.v.v.v.v.v.v.v.v.v.v.v.v.v.v.v.v.v.",
"v.v.v.v.v.v.v.v.v.v.u.u.u.u.u.u.u.u.u.v.u.u.u.u.v.v.v.v.v.v.K.K.K.v.v.v.v.v.v.v.v.v.v.v.v.v.v.v.v.v.v.v.v.v.v.v.v.v.v.v.v.v.v.v.",
"v.v.v.v.v.v.v.v.u.u.u.u.u.u.u.u.u.u.u.u.u.u.u.u.u.v.v.v.K.K.K.K.K.K.v.v.v.v.v.v.v.v.v.v.u.u.u.v.v.v.v.v.v.v.v.v.v.v.v.v.v.v.v.v.",
"v.v.v.v.v.v.v.u.u.u.u.u.u.u.u.u.u.u.u.u.u.u.u.u.u.K.K.K.K.K.K.K.K.K.K.K.K.K.u.u.u.v.v.u.u.u.u.u.v.v.v.v.v.v.v.v.v.v.v.v.v.v.v.v.",
"v.v.v.v.v.u.u.u.u.u.u.v.v.v.v.v.u.u.u.u.u.u.u.u.u.u.u.u.K.K.K.K.K.K.K.K.K.u.u.u.u.u.u.u.v.v.u.u.u.v.v.v.v.v.v.u.u.u.v.v.v.v.v.v.",
"v.v.v.u.u.u.u.u.u.u.v.v.v.v.v.v.v.u.u.u.v.v.v.u.u.u.u.u.u.u.K.K.K.u.u.u.u.u.v.v.u.u.u.v.v.v.v.u.u.u.v.v.v.v.u.u.u.u.u.v.v.v.u.u.",
"u.v.v.v.v.v.v.v.v.v.v.v.v.v.v.v.v.u.u.v.v.v.m.V B B B B ,.v.v.v.v.v.2.B B B B B n.V.v.v.V.V.V.V.v.v.v.v.v.u.u.u.u.u.u.u.u.u.u.u.",
"u.u.u.u.v.v.v.v.v.v.v.v.v.v.v.v.v.v.V.B.V.m.V B -.-.-.V B 7.v.B.V.2.B B Y ;.-.-.V V m.m.V V B ;.t.v.v.v.v.u.u.u.u.u.u.u.u.u.u.u.",
"v.v.v.v.v.v.v.v.v.v.v.v.v.v.v.v.v.B.;.B B B B <.c.c.C.b.V 2.9.B B B B V b.C.c.c.<.B B B B ;.;.-.;.t.v.v.u.u.u.u.v.v.v.u.u.u.u.u.",
"v.v.v.v.v.v.v.v.e.e.e.e.e.v.v.e.w.V B ;.;.;.-.c.C.C.C.Z.*.N B B B B Y b.Z.F.F.C.c.<.B B <.c.C.n.B ;.r.9.t.u.u.v.v.v.v.v.v.v.v.v.",
"v.v.v.v.v.v.v.e.e.e.e.e.e.e.e.w.Y B ;.V.C.x.;.c.C.C.C.c.@.Y 5.5.4.N *.Z.Z.!.).F.C.c.V M c.C.Z.m.;.B B B :.9.t.v.v.v.v.v.v.v.v.v.",
"v.v.v.v.v.e.e.e.K.K.K.K.e.6.6.1.B B N.C.C.x.;.c.G.F.Z.b.C q.{._.I.Y #.Z.E.`.^.G.C.c.0.0.G.F.C.Z.b.B B B B B 7.V.v.v.v.v.v.v.v.v.",
"v.v.e.e.e.e.K.K.K.K.K.K.H.1.B B B B N.C.C.x.7.G.).!.F.8.V L.).^.{.q.#.G.!.).^.^.F.G.).).`.!.G.Z.M.V ,.,.,.;.B 3.u.u.u.u.u.v.v.v.",
"K.e.e.K.K.K.K.K.K.K.K.K.0.B :.2.V B N.G.G.G.Z.^.^.).U.e.L._.^.^.).L.b.E.`.^.^.^.R./.^.^.^.^.!.Z.m.#.Z.Z.Z.M.;.:.t.u.u.u.u.u.u.u.",
"K.K.K.K.K.K.K.K.K.K.u.| P <.N.Z.#.V 8.Q.`.^.R.^.^.^.)._.).^.^.^.^.).E.W.^.^.^.^.`.^.^.^.^.).!.C.C.Z.C.C.C.Z.8.N P.K.K.K.K.K.K.K.",
"v.v.v.v.v.v.K.K.u.u. .> u $.Y.C.Z.#.q.Q.).^.`.^.^.^.^.^.^.`.^.^.^.).`.^.^.^.`.^.^.^.^.^.)./.R.C.C.C.C.C.C.Z.8.N P.K.K.K.K.K.K.K.",
"v.v.v.v.v.v.v.v.v.a.2 X . 6 e h.C.Z.R.R.^.`.`.`.^.^.^.`.!.E.`.^.`.W.!.`.^.^.E./.`.`.`.`.^.R.C.C.C.Z.Z.Z.Z.m.:.<.m.v.v.v.v.v.v.v.",
"v.v.v.v.v.v.v.v.a.2 . < q 9 w h.C.C.C.C.R.R.R.R.`.`.!.R.G.Z.W.`.W.F.G.!.^.^.E.R.R.R.R.R.T.C.C.F.l.w w ` m.:.z ( v.v.v.v.v.v.v.v.",
"K.K.K.v.v.v.v.v.J X < / j.k.C.C.C.C.C.k.c.C.C.C.T.R.G.c.C.C.F.R.F.c.G.!.^.^.`.E.R.C.C.C.C.C.l.0 3     : F x & < a.v.v.v.v.v.v.K.",
"K.K.K.K.v.h.8 0 2 . 9 j.&.z.C.C.C.k.k.z.C.C.C.C.C.C.C.C.C.C.C.C.C.C.E.`.^.^.^.`.`.Z.C.C.C.C.z.y K K 8   & & O X 2 a.v.v.v.v.K.K.",
"K.K.K.K.A.5 X X X . 9 j.&.x.C.C.C.x.f.c.C.C.C.C.c.k.z.C.C.C.C.C.C.C.E.`.^.^.^.^.R.C.C.C.C.C.C.Z.Z.Z.z.8 . 3 S > . < A.K.K.K.K.K.",
"v.v.v.S.5 X & x x p = S j.j.c.C.C.C.g.g.C.C.c.k.g.&.&.k.C.C.C.C.C.C.F.W.`.).).T.C.C.C.C.C.C.C.C.C.C.Z.K   q j./ > . < h.K.K.K.K.",
"v.v.v.a.X & n V V m i @ t %.j.c.C.k.&.&.g.g.g.&.&.&.&.g.C.C.C.C.C.z.x.F.G.G.G.C.C.C.C.C.C.C.C.C.C.C.Z.y 2 ' &.f./ > X ] v.v.K.v.",
"v.v.v.a.X u V B B B m x E f.&.j.g.&.&.&.&.&.&.f.c.c.c.z.k.C.C.C.z.&.z.C.C.C.C.C.C.c.k.C.C.C.C.C.C.C.C.h.' &.&.&.j.2 X ] v.v.v.v.",
"v.v.v.a.X u V B B B B B O.&.&.&.&.&.&.x.c.f.f.c.C.C.C.C.z.j.g.g.f.&.f.x.C.C.C.C.C.c.f.j.g.k.C.C.C.C.x.f.&.&.&.%.9 @ X : h.v.v.v.",
"v.v.v.a.X u B B h % % A &.&.&.&.&.&.x.C.C.c.c.C.C.C.C.C.x.&.&.&.k.c.k.f.j.c.C.C.C.c.f.f.c.c.C.c.f.f.f.&.&.&.&.Q m u X X - @.u.v.",
"u.u.u.| X X s j # X 9 } &.&.&.&.&.&.c.C.C.C.C.C.C.C.C.C.C.c.z.&.z.C.C.k.&.x.C.C.c.g.f.c.C.C.C.c.&.&.&.&.&.&.f.>.B m u X X +.u.u.",
"u.u. .% X X + # . 7 &.&.&.&.&.&.&.&.f.c.c.C.C.C.C.C.C.C.C.C.C.k.k.C.C.C.g.&.c.c.g.&.f.c.C.C.C.x.&.&.&.&.&.&.&.>.B B N & X +.u.u.",
"v.k.- X X % % # . 7 &.&.&.} ' [ &.&.&.&.f.c.C.C.c.g.C.C.C.C.C.z.&.z.c.c.g.&.&.&.&.&.&.j.c.c.c.&.&.&.&.&.{ { W B B B V * X +.v.v.",
"v.h.o X i N B j # X 9 ' ' 4 $ v X.&.&.&.&.f.c.c.&.g.c.c.C.C.C.k.&.&.&.&.&.&.&.&.&.&.&.&.&.&.&.&.&.&.&.O.B V B B B B m & X ^ v.v.",
"v.^ o & B B B V j # X o o $ j B B X.[ [ &.&.&.&.&.&.&.g.c.c.k.&.&.&.&.&.&.&.&.&.&.&.&.&.&.&.&.&.&.&.&...V B B B m n * X - ^ z.v.",
"v.^ o & B B B B V h & $ . d N B B B B -.{ &.&.&.&.&.&.&.&.&.&.&.&.&.&.&.&.&.&.[ &.&.&.&.&.&.&.&.&.&.&.&.O.V B m u X X ; L s.s.J.",
"z.^ o & n V B B B B V g # . d m B B -.{ &.&.&.&.&.&.&.&.&.&.&.[ { &.&.&.&.&.[ Y [ &.&.&.&.[ &.&.&.&.&.&.f.Q B f # X X H p.s.d.J.",
"_ ^ : X & x b V B B B V g * * v B B [ &.&.&.&.&.o.&.&.&.&.&.{ =.=.{ &.&.&.[ -.-.{ &.&.&.[ -.&.&.&.&.&.&.{ >.B V f # X X L s.D.v.",
"I I ^ , X X & b B B B B B V V B B B O.&.&.&.&.O.-.&.&.&.&.{ Q =.M >.X.....-.B [ &.&.&.&.[ -.&.&.&.&.&.f.~ B B B V d # X L ] _ k.",
"U U I D X X # g V B B B B B B B B B B ~ ....{ =.-.&.&.&.f.O.>.f...=.M -.=.V B Q &.&.&...~ M X.&.&.&.f.[ F b B B B V u X J ] _ I ",
"e.S.s.D X % g V B B V B B B B B B B B B B >.&.[ M X.f.f.{ =.>.&.&.f.O.[ f.Q V B Q O.~ B B B M O.O.O...F u a V B B V u X J ] ] U ",
"J.p.s.L X u T B V b f v B B B B B B B B V &.&.[ B M ~ O.>.N W f.&.&.f.X.[ f.-.B B B B B B B B B B n f u O f V B V x & X L I I w.",
"K.A.s.L X % j R n u O d V B B B B B B B B Q { W B B B B B B -.o.&.&.f.=.=.Q M B B B B B B B B B B b s a * * b T j % X 6 i.s.A.K.",
"K.J.s.i.4 X % d u . * v B B B B B B B B B B >.B B B B B B B B -.o.f.X.-.B B B B B B B B B B V B B B V T g O * d & X 6 i.s.p.J.K.",
"K.K.h._ _ 4 X X X X d T B B B B V B B B B B B B B B B B B B B B -.W -.B B B B B B B B B B m g V B B V v * X X X 6 0 ^ ] p.S.K.K.",
"v.v.v.h._ ^ w w w 2 & x V V V V f n B B B B B B B B B V B B B B B B B B B B B B B B B B B n # f V V b & X 5 H H ^ ] _ _ h.K.K.K.",
"v.v.v.v.k.h.] ] ] 0 X & p p p p # b V B B B B B B V n f V B B B B V g x B B B B B B B V m i X # p p & X X 0 ] ] ] _ h.k.v.v.v.v.",
"v.v.v.v.v.v.+.E E G > X X X X X X * m B B B B B V n & # f V V V V h # j V B B B B B N i * X X X X X X < e K ] _ _ h.v.v.v.v.v.v.",
"v.v.v.v.v.v.v.z.h.E G Z Z Z Z r r r ) | B B B m u & X X # u u u u % X & v V B B B B B l e r r r r r r K ] ] E +.#.v.v.v.v.v.v.v.",
"v.v.v.v.v.v.v.v.v.x.h.] E E E ] ] ] ] ` ! ( ( ) y y J k X X X X X X X X & * * n B B | ( ] ] ] x.k.] ] ] _ +.t.t.u.u.v.v.v.v.v.v.",
"v.v.v.v.v.v.K.K.v.v.c.x.a._ _ _ _ _ _ _ ` ` ] z.] ] ] _ J J J J J J J J J J J ( ( ( _ ` _ _ E +.y.h._ a.t.t.u.u.u.u.v.v.v.v.v.v.",
"v.v.v.v.v.K.K.K.K.v.v.v.v.J.J.d.s.] ] _ _ ] x.x._ _ _ _ ] ] ] ] ] ] ] ] ] ] ] ] ` ` _ _ _ E E  .u.y.t.t.u.u.u.u.u.u.v.v.v.v.v.v.",
"v.v.v.K.K.K.K.K.K.K.K.K.K.K.K.J.J.J.J.] ] x.v.x._ _ _ E  .@.E _ _ _ _ _ _ ] z.c.] ] ] ] | t.t.t.u.u.u.u.u.u.u.u.u.u.u.u.u.v.v.v.",
"u.u.K.K.K.K.K.K.K.K.K.K.K.K.K.K.u.u.u.t.v.v.u.t.E E E  .#.E E E E _ _ E E #.u.v.v.v.v.t.t.u.u.u.u.u.u.u.u.u.u.u.u.u.u.u.u.u.u.u."
};
