/* XPM */
static const char *top_3[] = {
/* columns rows colors chars-per-pixel */
"64 64 189 2 ",
"   c #0D112C",
".  c #12162B",
"X  c #161C2E",
"o  c #181E2E",
"O  c #121227",
"+  c #171F30",
"@  c #1A212F",
"#  c #172031",
"$  c #182233",
"%  c #1B2835",
"&  c #1C2C3A",
"*  c #1E323E",
"=  c #222A2E",
"-  c #212B33",
";  c #282D33",
":  c #2B3332",
">  c #2E3B34",
",  c #263235",
"<  c #333E35",
"1  c #3C3F37",
"2  c #354235",
"3  c #3A4736",
"4  c #37433A",
"5  c #3E5038",
"6  c #43463A",
"7  c #45483A",
"8  c #415438",
"9  c #4C5D3B",
"0  c #495639",
"q  c #4B603B",
"w  c #54633C",
"e  c #5C6F3F",
"r  c #5E713F",
"t  c #63743F",
"y  c #607B3F",
"u  c #1F3541",
"i  c #1F3845",
"p  c #213B45",
"a  c #26484E",
"s  c #24434B",
"d  c #274D52",
"f  c #284E53",
"g  c #295155",
"h  c #2A5659",
"j  c #2C5B5D",
"k  c #3E5543",
"l  c #33635E",
"z  c #2A5D61",
"x  c #2E6262",
"c  c #2F6868",
"v  c #316664",
"b  c #316966",
"n  c #326D6A",
"m  c #35736E",
"M  c #3E7E6E",
"N  c #347772",
"B  c #377A73",
"V  c #397C74",
"C  c #496449",
"Z  c #4A6846",
"A  c #5E7A40",
"S  c #53734E",
"D  c #476258",
"F  c #49775A",
"G  c #626342",
"H  c #657A40",
"J  c #6A7C41",
"K  c #7B7B49",
"L  c #477F68",
"P  c #517261",
"I  c #597C68",
"U  c #567E63",
"Y  c #407F71",
"T  c #398077",
"R  c #398178",
"E  c #5E8254",
"W  c #578C5F",
"Q  c #5B8E5C",
"!  c #57815A",
"~  c #5F905A",
"^  c #6D8342",
"/  c #6D8C43",
"(  c #6B8B4D",
")  c #66864E",
"_  c #708643",
"`  c #778E45",
"'  c #788F44",
"]  c #799145",
"[  c #769845",
"{  c #7A9D46",
"}  c #749C4D",
"|  c #799E4A",
" . c #719244",
".. c #608555",
"X. c #668D58",
"o. c #648954",
"O. c #669455",
"+. c #699654",
"@. c #6E9950",
"#. c #629259",
"$. c #6A935B",
"%. c #6F995D",
"&. c #719C5E",
"*. c #7DA147",
"=. c #7CA148",
"-. c #7CA259",
";. c #4D8665",
":. c #44816D",
">. c #4B866D",
",. c #4E896C",
"<. c #528963",
"1. c #588D67",
"2. c #528B6A",
"3. c #598A6D",
"4. c #5D9165",
"5. c #5F9669",
"6. c #578C70",
"7. c #5E8D75",
"8. c #448272",
"9. c #649562",
"0. c #689661",
"q. c #6B9A62",
"w. c #67956E",
"e. c #739C6E",
"r. c #628E74",
"t. c #679175",
"y. c #6FA165",
"u. c #75A462",
"i. c #78A763",
"p. c #79A863",
"a. c #89874C",
"s. c #918F4E",
"d. c #839D48",
"f. c #809947",
"g. c #93914F",
"h. c #9D9A51",
"j. c #A19D52",
"k. c #81A345",
"l. c #84A448",
"z. c #8AA449",
"x. c #84A948",
"c. c #8CAA49",
"v. c #90A448",
"b. c #92AD4A",
"n. c #96B14C",
"m. c #9CB54C",
"M. c #9BB94E",
"N. c #86AA56",
"B. c #8AAC55",
"V. c #81A458",
"C. c #86A858",
"Z. c #92AF52",
"A. c #8FB153",
"S. c #93B351",
"D. c #A1B74C",
"F. c #A4B94C",
"G. c #ACBD4F",
"H. c #A7A455",
"J. c #A6BA51",
"K. c #ABBC53",
"L. c #A6B459",
"P. c #BAB55A",
"I. c #BFBA5B",
"U. c #B0BF56",
"Y. c #B0AC57",
"T. c #8CAA6C",
"R. c #8FA363",
"E. c #9EAA61",
"W. c #AFBE6A",
"Q. c #B3C157",
"!. c #B3C158",
"~. c #B4C25A",
"^. c #BAC55D",
"/. c #BDC760",
"(. c #BEC766",
"). c #BDC769",
"_. c #C1C963",
"`. c #C5CB66",
"'. c #C7CC67",
"]. c #C6CC67",
"[. c #C5CB66",
"{. c #C9CD67",
"}. c #CCCF67",
"|. c #C8CD68",
" X c #C8CD68",
".X c #CACE69",
"XX c #C8CD68",
"oX c #CED066",
"OX c #47ABA9",
/* pixels */
"X OXOXX X X X X OXOXOXOXOXOXOXOXOXOXOXOXOXOXOXOXOXOXOXOXOXOXOXOXOXOXOXX X X X X X X OXX X X OXOXX X X X X X OXOXOXOXOXOXOXOXX X ",
"X X X X X X X X X OXX X X X OXOXOXOXOXOXOXOXOXX X X X X OXOXOXOXOXOXX X X X X X X X X X X X X X X X X X X X X X X X OXOXOXX X X ",
"X X X X X M.M.X X X X X X X X OXX X X X OXOXX X X X X X X OXOXOXOXX X X X I.I.I.X X X p.p.X X X X I.I.I.X X X X X X X X X X I.I.",
"M.X X X M.M.M.M.X X X X X X X X X X X X X OXX X p.p.p.X X X OXOXOXX X X I.I.I.I.I.X p.p.p.p.X X I.I.I.I.I.X X X p.p.X X X I.I.I.",
"I.X X M.M.M.M.M.X X X I.I.I.X X X M.M.M.X X X p.p.p.p.p.X X X X X X X I.I.I.I.I.I.X p.p.p.p.X X I.I.I.I.I.X X p.p.p.p.X I.I.I.I.",
"I.X X M.M.M.M.M.X X I.I.I.I.I.X M.M.M.M.M.X X p.p.p.p.p.X X X X X X X I.I.I.I.I.I.I.p.p.p.p.I.I.I.I.I.I.I.X X p.p.p.p.X I.I.I.I.",
"I.X M.M.M.M.M.M.X I.I.I.I.I.I.X M.M.M.M.M.M.M.M.M.p.p.X X X I.I.I.X X X I.I.I.I.I.I.I.p.p.I.I.I.I.I.I.I.X X X p.I.I.I.X I.I.I.M.",
"I.M.M.M.M.M.M.X X I.M.M.M.M.I.p.p.M.M.M.M.M.M.M.M.M.p.X X I.I.I.I.I.I.X X I.I.I.I.I.I.p.I.I.I.I.I.I.I.I.X X I.I.I.I.I.I.I.I.M.M.",
"I.I.M.M.M.M.M.X M.M.M.M.M.M.M.p.p.M.M.M.M.M.M.M.M.M.M.X I.I.I.I.I.I.I.I.X I.I.I.I.I.I.I.I.I.I.I.I.I.I.X X I.I.I.I.I.I.I.I.I.M.I.",
"I.I.I.M.M.M.M.M.M.M.M.M.M.M.M.M.p.p.M.M.M.M.M.M.M.M.I.I.M.M.I.I.I.I.I.I.I.I.I.I.I.I.I.I.I.I.I.I.I.I.I.I.I.I.I.I.I.I.I.I.I.I.I.I.",
"I.I.I.M.M.M.I.I.M.M.M.M.M.M.M.M.M.M.M.M.M.M.M.M.M.M.I.M.M.M.M.I.I.I.I.I.I.I.I.M.M.M.I.I.I.I.I.M.M.I.I.I.I.M.M.I.I.I.I.I.I.I.I.I.",
"I.I.I.M.M.I.I.I.I.I.M.M.M.M.M.M.M.M.M.M.M.M.M.M.M.M.M.M.M.M.M.M.M.M.M.I.I.I.M.M.M.M.M.I.I.M.M.M.M.M.M.I.M.M.M.M.I.I.I.I.I.I.I.I.",
"I.I.I.I.I.I.I.I.I.I.I.I.I.I.I.I.I.I.I.M.M.M.M.M.M.M.M.M.M.M.M.M.M.M.M.M.I.I.M.M.M.M.M.I.M.M.M.M.M.M.M.M.M.M.M.M.I.I.I.I.I.I.I.I.",
"I.I.I.I.I.I.I.I.I.M.M.M.M.M.M.M.M.M.M.M.M.M.M.M.M.M.M.M.M.M.M.M.M.M.M.M.M.M.M.M.M.M.M.I.M.M.M.M.M.M.M.M.M.M.M.M.I.I.I.I.I.M.M.M.",
"M.M.M.M.M.M.M.M.M.M.M.M.p.p.p.p.p.p.M.M.M.M.M.M.M.M.M.M.M.M.M.M.M.M.M.M.M.M.M.M.M.M.M.M.M.M.M.M.M.M.M.M.M.M.M.M.M.M.M.M.M.M.M.M.",
"M.M.M.M.M.M.M.M.M.M.p.p.p.p.p.p.p.p.p.M.p.p.p.p.M.M.M.M.M.M.I.I.I.M.M.M.M.M.M.M.M.M.M.M.M.M.M.M.M.M.M.M.M.M.M.M.M.M.M.M.M.M.M.M.",
"M.M.M.M.M.M.M.M.p.p.p.p.p.p.p.p.p.p.p.p.p.p.p.p.p.M.M.M.I.I.I.I.I.I.M.M.M.M.M.M.M.M.M.M.p.p.p.M.M.M.M.M.M.M.M.M.M.M.M.M.M.M.M.M.",
"M.M.M.M.M.M.M.p.p.p.p.p.p.p.p.p.p.p.p.p.p.p.p.p.p.I.I.I.I.I.I.I.I.I.I.I.I.I.p.p.p.M.M.p.p.p.p.p.M.M.M.M.M.M.M.M.M.M.M.M.M.M.M.M.",
"M.M.M.M.M.p.p.p.p.p.p.M.M.M.M.M.p.p.p.p.p.p.p.p.p.p.p.p.I.I.I.I.I.I.I.I.I.p.p.p.p.p.p.p.M.M.p.p.p.M.M.M.M.M.M.p.p.p.M.M.M.M.M.M.",
"M.M.M.p.p.p.p.p.p.p.M.M.M.M.M.M.M.p.p.p.M.M.M.p.p.p.p.p.p.p.I.I.I.p.p.p.p.p.M.M.p.p.p.M.M.M.M.p.p.p.M.M.M.M.p.p.p.p.p.M.M.M.p.p.",
"p.M.M.M.M.M.M.M.M.M.M.M.M.M.M.M.M.p.p.M.M.M.M.N.B B B B B 4.M.M.M.M.m.1.B B B B V B.S.M.M.S.S.S.S.M.M.M.M.p.p.p.p.p.p.p.p.p.p.p.",
"p.p.p.p.M.M.M.M.M.M.M.M.M.M.M.M.M.M.M.S.A.S.N.V B :.:.:.V B 9.M.A.S.4.B B Y :.:.:.V :.B.N.V V B >.S.M.M.M.p.p.p.p.p.p.p.p.p.p.p.",
"M.M.M.M.M.M.M.M.M.M.M.M.M.M.M.M.M.M.A.:.B B B B 1.m.m.D.V.V 4.0.B B B B Y N.m.m.m.,.B B B B :.:.:.>.S.M.p.p.p.p.M.M.M.p.p.p.p.p.",
"M.M.M.M.M.M.M.M.t.t.t.t.t.M.M.t.t.r.:.B >.>.:.:.m.D.D.D.F.-.N B B B B :.N.D.J.K.D.m.2.B B 1.m.D.N.:.>.y.q.u.p.M.M.M.M.M.M.M.M.M.",
"M.M.M.M.M.M.M.t.t.t.t.t.t.t.t.t.7.V B ,.m.D.S.:.m.D.D.D.m.9.Y 6.6.8.N -.D.J._.'.J.D.m.V :.m.D.D.F.V.B B B 2.u.M.M.M.M.M.M.M.M.M.",
"M.M.M.M.M.t.t.t.I.I.I.I.t.7.7.E.>.B 2.m.D.m.-.4.K.K.D.m.0.V T.}.oXe.:.N.K._.{.'.F.D.J.r.w.K.D.D.m.0.N B B B 9.S.M.M.M.M.M.M.M.M.",
"M.M.t.t.t.t.I.I.I.I.I.I.L.3.B B B B Z.D.D.m.9.K. X_.J.9.V T.}.'.}.e.&.G._. X'.'.F.K.[.{.{.[.K.D.V.V 1.1.1.:.B 5.p.p.p.p.p.M.M.M.",
"I.t.t.I.I.I.I.I.I.I.I.j.U B ,.4.V B Z.K.K.K.F.'.'.{.W.t.T.}.'.'.{.T.C.^. X'.'.'.!.[.'.'.'.{._.D.B.&.F.F.F.V.:.,.u.p.p.p.p.p.p.p.",
"I.I.I.I.I.I.I.I.I.I.$.4 p U S.F.&.V 0.(. X'.~.'.'.'.{.}.{.'.'.'.'.{.^./.{.'.'.'. X'.'.'.'.{._.D.D.F.D.D.D.F.0.N R.I.I.I.I.I.I.I.",
"M.M.M.M.M.M.I.I.p.$.4 X   0 b.F.F.&.e.).{.'. X'.'.'.'.'.{. X'.'.'. X X'.'.'. X'.'.'.'.'.{.[.!.D.D.D.D.D.D.F.0.N R.I.I.I.I.I.I.I.",
"M.M.M.M.M.M.M.M.d.3 . > q - 3 v.D.F.~.~.'. X X X'.'.'. X_.^. X'. X/._. X'.'.^.[. X X X X'.!.D.D.D.F.F.F.F.N.,.2.B.M.M.M.M.M.M.M.",
"M.M.M.M.M.M.M.M.H X > / x.r w z.D.D.D.D.!.!.!.~. X X_.!.K.F./. X/.J.K._.'.'.^.!.!.!.!.!.Q.D.D.G.v.w w ' B.,.z ( M.M.M.M.M.M.M.M.",
"I.I.I.M.M.z.9 w 3 . q x.=.c.D.D.D.D.D.D.c.m.D.D.Q.!.K.m.D.D.J.!.K.m.K._.'.'. X^.~.D.D.D.D.D.v.9 3     : F x & < d.M.M.M.M.M.M.I.",
"I.I.I.I.z.3 X X X . 9 x.=.b.D.D.D.D.c.c.b.D.D.D.D.D.D.D.D.D.D.D.D.D.^. X'.'.'. X'.F.D.D.D.D.b.H J J 0   & & O X 2 d.M.M.M.M.I.I.",
"I.I.I.H.6 X & j j p = H *.b.D.D.D.D.n.k.m.D.D.D.D.m.c.b.D.D.D.D.D.D.K._. X'.'.'.'.F.D.D.D.D.D.F.F.F.b.0 . 3 A > . < H.I.I.I.I.I.",
"M.M.M.j.X & b V V m i = y x.m.D.D.D.D.l.c.D.D.m.c.l.=.=.b.D.D.D.D.D.D.K._. X{.'.U.D.D.D.D.D.D.D.D.D.F.J   q x./ > . < z.I.I.I.I.",
"M.M.M.d.X u V B B V n z E =.x.m.D.D.c.=.=.l.l.l.=.=.=.=.c.D.D.D.D.D.b.n.K.K.K.K.D.D.D.D.D.D.D.D.D.D.F.t 2  .=.*./ > X ] M.M.I.M.",
"M.M.M.d.X u V B B B B B #.=.=.x.l.l.=.=.=.=.=.=.x.m.m.m.b.c.D.D.D.b.=.b.D.D.D.D.D.D.m.c.D.D.D.D.D.D.D.z. .=.=.=.x.2 X ] M.M.M.M.",
"M.M.M.d.X u B V j & & Z =.=.=.=.=.=.=.=.m.m.=.k.m.D.D.D.D.b.x.x.l.=.=.k.m.D.D.D.D.D.m.=.x.l.c.D.D.D.n.l.=.=.=.*.0 @ X : z.M.M.M.",
"M.M.M.f.X X s j $ X 8 { =.=.=.=.=.=.=.m.D.D.m.m.D.D.D.D.D.b.=.=.=.c.m.l.k.x.m.D.D.D.m.=.x.m.m.D.m.l.k.=.=.=.=.Q m u X X - %.p.M.",
"p.p.$.- X X + $ . 5 { =.=.=.=.=.=.=.=.m.D.D.D.D.D.D.D.D.D.D.m.c.=.b.D.m.l.=.m.D.D.m.l.k.m.D.D.D.n.=.=.=.=.=.k.<.B m u X X $.p.p.",
"p.%.- X X $ $ # . 8 =.=.{ [ [ | | =.=.k.m.m.D.D.D.D.m.D.D.D.D.D.c.b.D.D.D.l.=.m.m.l.=.k.m.D.D.D.n.=.=.=.=.=.=.<.B B N & X $.p.p.",
"M.c.@ X u m N h + X 9 { 8 @ % v V } =.=.=.x.m.D.D.n.c.D.D.D.D.D.c.=.b.m.m.l.=.=.=.=.=.=.x.m.m.n.=.=.=.=.| | W B B B V * X $.M.M.",
"M.z.o & N B B B h + o @ o $ j B B +.=.=.=.=.l.m.m.=.l.m.D.D.D.m.c.=.=.=.=.=.=.=.=.=.=.=.=.=.=.=.=.=.=.#.B V B B B B m & X ^ m.M.",
"m.^ o & B B B B V h % & + d B B B B +.} =.=.=.=.=.=.=.l.m.m.c.=.=.=.=.=.=.=.=.=.=.=.=.=.=.=.=.=.=.=.=.O.V B B B m n * X - ^ b.M.",
"m.^ o & n B B B B B B V d X f N B B :.:.| =.=.=.=.=.=.=.=.=.=.=.=.=.=.=.=.=.=.} =.=.=.=.=.=.=.=.=.=.=.=.#.V B m u X X ; K g.g.P.",
"b.^ : X & v n V B B B B V d & v B B } =.=.=.=.=.=.=.=.=.=.=.=.} | =.=.=.=.=.} Y } =.=.=.=.} =.=.=.=.=.=.k.Q B f # X X G s.g.h.P.",
"' ' ^ : X X & b B B B B B B B B B B } =.=.=.=.=.@.=.=.=.=.=.| ;.;.| =.=.=.} Y :.| =.=.=.} :.=.=.=.=.=.=.| <.B V f $ X X K g.Y.M.",
"P P ] D X X # f V B B B B B B B B B #.=.=.=.=.#.:.=.=.=.=.| Q ;.M <.+.O.O.:.B } =.=.=.=.} :.=.=.=.=.=.k.~ B B B V d $ X K ] ' c.",
"I I P D X $ g V B B V B B B B B B B B ~ O.O.| ;.:.=.=.=.k.#.<.k.O.;.M :.;.V B Q =.=.=.O.~ M +.=.=.=.k.} F b V B B V u X H ] ' P ",
"t.Y.g.D X u R B V b g b B B B B B B B B B <.=.} M +.k.k.| ;.<.=.=.k.#.} l.Q V B Q #.~ B B B M #.#.#.O.F u a V B B V u X H ] ' I ",
"P.s.g.K X & x T n p O d V B B B B B B B V =.=.} B M ~ #.<.N W k.=.=.k.+.} k.:.B B B B B B B B B B b f u O f V B V x & X K P P r.",
"I.H.g.a.6 X % g p . * v V B B B B B B B B Q | W B B B B B B :.@.=.=.k.;.;.Q M B B B B B B B B B B b s a * * b R z % X 6 a.g.H.I.",
"I.P.s.g._ 3 X X X X f R B B B B V B B B B B <.B B B B B B B B :.@.l.+.:.B B B B B B B B B B V B B B V R g O * d & X 7 a.g.s.P.I.",
"I.I.z.' ] ^ 9 9 q 1 & v V V B B g n B B B B B B B B B B B B B B :.W :.B B B B B B B B B B m g V B B V v * X X X 6 9 ^ ] s.H.I.I.",
"M.M.m.z.' ' ] ] ] 9 X & s p b T * b V B B B B B B B B V B B B B B B B B B B B B B B B B B n $ f V V b & X 4 G G ^ ] ' ' z.I.I.I.",
"M.M.M.m.c.z.' ' ] ^ 2 X X . * p $ u m B B B B B B V b f V B B B B V g x B B B B B B B V m p X $ p p & X X 0 ] ] ] ' z.c.m.M.M.M.",
"M.M.M.M.M.m.$.E E ..S C C C , X X X u m B B B B V n & $ g V V V V h $ j V B B B B B N p * X X X X X X < e J ] ' ' z.m.M.M.M.M.M.",
"M.M.M.M.M.M.m.b.z.E E ......S r r r r ) B B B m u & X X $ u u u u % X & v V B B B B B l e r r r r r r J ] ] E $.&.m.M.M.M.M.M.M.",
"M.M.M.M.M.M.M.M.m.n.d.' E E E ] ] ] ] ' ! ( ( ) t t H k X X X X X X X X & * * n B B o.( ] ] ] n.c.] ] ] ' $.u.u.p.p.M.M.M.M.M.M.",
"M.M.M.M.M.M.I.I.M.M.m.n.d.' ' ' ' ' ' ' ' ' ] b.] ] ] _ H H H H H H H H H H H ( ( ( ' ' ' ' E $.i.z.' d.u.u.p.p.p.p.M.M.M.M.M.M.",
"M.M.M.M.M.I.I.I.I.M.M.M.m.P.P.h.g.] ] ' ' ] n.n.' ' ' ' ] ] ] ] ] ] ] ] ] ] ] ] ' ' ' ' ' E E X.p.i.u.u.p.p.p.p.p.p.M.M.M.M.M.M.",
"M.M.M.I.I.I.I.I.I.I.I.I.I.I.I.P.P.P.P.] ] n.M.n.' ' ' E X.%.E ' ' ' ' ' ' ] b.m.] ] ] ] o.u.u.u.p.p.p.p.p.p.p.p.p.p.p.p.p.M.M.M.",
"p.p.I.I.I.I.I.I.I.I.I.I.I.I.I.I.p.p.p.u.m.M.p.u.E E E X.&.E E E E ' ' E E &.p.M.m.m.m.u.u.p.p.p.p.p.p.p.p.p.p.p.p.p.p.p.p.p.p.p."
};
