/* XPM */
static const char *top_right1[] = {
/* columns rows colors chars-per-pixel */
"64 64 173 2 ",
"   c #0D112C",
".  c #121227",
"X  c #13162B",
"o  c #161C2E",
"O  c #191F2E",
"+  c #171E30",
"@  c #1C232E",
"#  c #172031",
"$  c #182333",
"%  c #1A2837",
"&  c #1B2C3A",
"*  c #1E323E",
"=  c #21292F",
"-  c #242C33",
";  c #2B3332",
":  c #2E3B34",
">  c #2E3D3A",
",  c #333E35",
"<  c #364236",
"1  c #3A4636",
"2  c #3C4B37",
"3  c #3C4038",
"4  c #43463A",
"5  c #424938",
"6  c #4A5639",
"7  c #465A3A",
"8  c #4C5C3B",
"9  c #4C613B",
"0  c #53633C",
"q  c #5B6D3E",
"w  c #5E713F",
"e  c #5E793F",
"r  c #63743F",
"t  c #1F3541",
"y  c #213B45",
"u  c #213E48",
"i  c #24434A",
"p  c #26484E",
"a  c #3E5543",
"s  c #274D52",
"d  c #284E53",
"f  c #295256",
"g  c #2B5759",
"h  c #2C5B5C",
"j  c #33635E",
"k  c #2A5E61",
"l  c #2E6161",
"z  c #306764",
"x  c #316967",
"c  c #326C69",
"v  c #34726D",
"b  c #3E7E6F",
"n  c #2E7575",
"m  c #347772",
"M  c #377A73",
"N  c #397C73",
"B  c #4B6847",
"V  c #4C684A",
"C  c #5E7940",
"Z  c #49775A",
"A  c #567750",
"S  c #626342",
"D  c #657A41",
"F  c #6A7C41",
"G  c #7B7B49",
"H  c #407B69",
"J  c #517261",
"K  c #597D68",
"L  c #407F72",
"P  c #398077",
"I  c #398178",
"U  c #5E8354",
"Y  c #57815A",
"T  c #578C5F",
"R  c #5B8E5C",
"E  c #5F905A",
"W  c #6D8342",
"Q  c #6E8D43",
"!  c #67864D",
"~  c #6B8B4D",
"^  c #778E45",
"/  c #788F44",
"(  c #739445",
")  c #799145",
"_  c #799C46",
"`  c #749C4C",
"'  c #799F4A",
"]  c #648954",
"[  c #668D59",
"{  c #669455",
"}  c #699654",
"|  c #6E9950",
" . c #629259",
".. c #6A935B",
"X. c #6D995F",
"o. c #7B9850",
"O. c #729C5D",
"+. c #7DA147",
"@. c #7CA148",
"#. c #7BA15A",
"$. c #4D8665",
"%. c #44826D",
"&. c #49856D",
"*. c #4E8A6C",
"=. c #528963",
"-. c #588D67",
";. c #538B69",
":. c #56896E",
">. c #5C9165",
",. c #5F9669",
"<. c #458272",
"1. c #578C70",
"2. c #629463",
"3. c #689661",
"4. c #6C9C63",
"5. c #68956C",
"6. c #719B6F",
"7. c #658E73",
"8. c #629270",
"9. c #6FA166",
"0. c #75A462",
"q. c #78A763",
"w. c #79A863",
"e. c #8A884C",
"r. c #918F4E",
"t. c #829C48",
"y. c #92914F",
"u. c #9D9A51",
"i. c #81A346",
"p. c #84A548",
"a. c #8AA349",
"s. c #83A949",
"d. c #8CAA49",
"f. c #90A448",
"g. c #92AD4A",
"h. c #96B14B",
"j. c #9CB44C",
"k. c #9BB94E",
"l. c #84A657",
"z. c #86AB56",
"x. c #8BAD54",
"c. c #83A658",
"v. c #91AE52",
"b. c #8FB252",
"n. c #93B351",
"m. c #A1B74C",
"M. c #A3B94C",
"N. c #A4A154",
"B. c #A8A455",
"V. c #B0AC57",
"C. c #A2B754",
"Z. c #A7BA50",
"A. c #ABBD53",
"S. c #BAB55A",
"D. c #BFBA5B",
"F. c #8FA363",
"G. c #8CAA6C",
"H. c #97AC66",
"J. c #AFBE6A",
"K. c #AAC04C",
"L. c #B2C057",
"P. c #B3C159",
"I. c #BAC55D",
"U. c #BEC761",
"Y. c #BEC765",
"T. c #C1C963",
"R. c #C6CC67",
"E. c #C7CC67",
"W. c #C8CC67",
"Q. c #CCCF67",
"!. c #C8CD68",
"~. c #CED066",
"^. c #47ABA9",
/* pixels */
"^.^.^.^.^.^.^.^.^.^.^.^.^.^.^.^.^.^.^.^.^.^.^.^.^.^.^.o o o o o o o ^.^.^.^.^.^.^.^.^.^.^.^.^.^.^.^.^.^.^.^.^.^.^.^.^.^.o o o o ",
"^.^.^.^.^.^.^.o o o o o o ^.^.^.^.^.^.^.^.^.^.^.^.^.o o o o o o o o o ^.^.^.^.^.^.^.^.^.^.o o o o o o ^.^.^.^.^.^.^.^.o o o o o ",
"^.^.^.^.^.^.o o o o o o o o ^.o o o o ^.^.^.^.^.^.^.o o o w.w.w.o o o o ^.o o o ^.^.^.^.o o o o o o o o ^.o o o o o o o o D.D.D.",
"^.^.^.^.^.o o o k.k.k.k.o o o o o o o o o ^.^.o o o o o w.w.w.w.w.o o o o o o o o o ^.o o o D.D.D.o o o o o o o o o o o D.D.D.D.",
"^.^.^.^.^.o o k.k.k.k.k.k.o o o o o o o o o o o o o o o w.w.w.w.w.w.o o o D.D.D.o o o o o D.D.D.D.D.o o o o w.w.w.w.o o D.D.D.D.",
"^.^.^.^.^.o o k.k.k.k.k.k.o o o k.k.k.o o o o o k.k.o o o w.w.w.w.w.o o D.D.D.D.D.o o o D.D.D.D.D.D.o o o w.w.w.w.w.w.o D.D.D.D.",
"^.^.^.^.^.o o k.k.k.k.k.k.k.o k.k.k.k.k.k.o o k.k.k.k.k.o w.w.w.w.o o D.D.D.D.D.D.o o D.D.D.D.D.D.D.o o o w.w.w.w.w.w.o D.D.D.D.",
"^.^.^.^.^.o o o k.k.k.k.k.k.o k.k.k.k.k.k.o o k.k.k.k.k.D.D.D.w.w.o D.D.D.D.D.D.D.o o D.D.D.D.D.D.o o o o o w.w.w.D.D.o D.D.D.D.",
"^.^.^.o o o o o o k.k.k.k.k.k.k.k.k.k.k.k.o o k.k.k.k.D.D.D.D.D.D.D.D.D.D.D.D.D.o o D.D.D.D.D.D.o o D.D.o o o w.D.D.D.D.D.D.D.D.",
"^.^.o o o o o o o o w.w.k.k.k.k.k.k.k.k.k.k.o o k.k.D.D.k.k.D.D.D.D.D.D.D.D.D.D.D.D.D.D.D.D.D.D.D.D.D.D.D.o o o D.D.D.D.D.D.D.D.",
"^.o o o w.w.w.o o o w.w.w.k.k.k.k.k.k.k.k.k.k.k.k.k.D.k.k.k.k.D.D.D.D.D.D.D.D.k.k.k.D.D.D.D.D.k.k.D.D.D.D.k.k.D.D.D.D.D.D.D.D.D.",
"^.o o w.w.w.w.w.w.o w.w.w.w.w.k.k.k.k.k.k.k.k.k.k.k.k.k.k.k.k.k.k.k.k.D.D.D.k.k.k.k.k.D.D.k.k.k.k.k.k.D.k.k.k.k.D.D.D.D.D.D.D.D.",
"^.o o w.w.w.w.w.w.k.k.k.k.k.k.k.k.k.k.k.k.k.k.k.k.k.k.k.k.k.k.k.k.k.k.k.D.D.k.k.k.k.k.D.k.k.k.k.k.k.k.k.k.k.k.k.D.D.D.D.D.D.D.D.",
"^.o o w.w.w.w.w.k.k.k.k.k.k.k.k.k.k.k.k.k.k.k.k.k.k.k.k.k.k.k.k.k.k.k.k.k.k.k.k.k.k.k.D.k.k.k.k.k.k.k.k.k.k.k.k.D.D.D.D.D.k.k.k.",
"^.o o w.w.w.w.w.k.k.k.k.k.k.k.k.k.w.k.k.k.k.k.k.k.k.k.k.k.k.k.k.k.k.k.k.k.k.k.k.k.k.k.k.k.k.k.k.k.k.k.k.k.k.k.k.k.k.k.k.k.k.k.k.",
"^.o o o w.w.w.o k.k.k.k.k.k.k.k.w.w.w.k.w.w.w.w.k.k.k.k.k.k.D.D.D.k.k.k.k.k.k.k.k.k.k.k.k.k.k.k.k.k.k.k.k.k.k.k.k.k.k.k.k.k.k.k.",
"^.^.o o o o o o o w.w.w.w.w.w.w.w.w.w.w.w.w.w.w.w.k.k.k.D.D.D.D.D.D.k.k.k.k.k.k.k.k.k.k.w.w.w.k.k.k.k.k.k.k.k.k.k.k.k.k.k.k.k.k.",
"^.^.^.o o o o o o w.w.w.w.w.w.w.w.w.w.w.w.w.w.w.w.D.D.D.D.D.D.D.D.D.D.D.D.D.w.w.w.k.k.w.w.w.w.w.k.k.k.k.k.k.k.k.k.k.k.k.k.k.k.k.",
"^.^.o o o k.k.k.o o w.k.k.k.k.k.w.w.w.w.w.w.w.w.w.w.w.w.D.D.D.D.D.D.D.D.D.w.w.w.w.w.w.w.k.k.w.w.w.k.k.k.k.k.k.w.w.w.k.k.k.k.k.k.",
"^.^.o o k.k.k.k.k.k.k.k.k.k.k.k.k.w.w.w.k.k.k.w.w.w.w.w.w.w.D.D.D.w.w.w.w.w.k.k.w.w.w.k.k.k.k.w.w.w.k.k.k.k.w.w.w.w.w.k.k.k.w.w.",
"^.^.o o k.k.k.k.k.k.k.k.k.k.k.k.k.w.w.k.k.k.x.N M M M M -.k.k.k.k.k.>.M M M M M z.n.k.k.n.n.n.n.k.k.k.k.k.w.w.w.w.w.w.w.w.w.w.w.",
"^.^.o o k.k.k.k.k.k.k.k.k.k.k.k.k.k.n.b.n.x.N M %.%.%.N M 2.k.b.n.>.M M L &.%.%.N N x.x.N N M &.0.k.k.k.k.w.w.w.w.w.w.w.w.w.w.w.",
"^.^.^.o o k.k.k.k.k.k.k.k.k.k.k.k.b.&.M M M M ;.j.j.m.l.N >.4.M M M M N l.m.j.j.;.M M M M &.&.%.&.0.k.k.w.w.w.w.k.k.k.w.w.w.w.w.",
"^.^.^.o o o o o o o o k.k.k.k.o % x M &.&.&.%.j.m.m.m.M.#.m M M M M L l.M.Z.Z.m.j.;.M M ;.j.m.z.M &.9.4.0.w.w.k.k.k.k.k.k.k.k.k.",
"^.^.^.^.o o o o o o o o o o o & x M &.n.m.h.&.j.m.m.m.j.X.L 1.1.<.m #.M.M.T.W.Z.m.j.N b j.m.M.x.&.M M M *.4.0.k.k.k.k.k.k.k.k.k.",
"^.^.^.o o o o o D.D.o o o & H.:.M M v.m.m.h.&.j.A.Z.M.l.n 6.~.Q.G.L O.M.I.!.W.A.m.j.8.8.A.Z.m.M.l.M M M M M 2.n.k.k.k.k.k.k.k.k.",
"^.^.o o o D.D.D.D.D.D.D.& :.M M M M v.m.m.h.2.A.W.T.C.3.N G.W.E.~.6.O.A.T.W.E.E.M.A.W.W.!.T.A.M.c.N -.-.-.&.M ,.w.w.w.w.w.k.k.k.",
"^.o o D.D.D.D.D.D.D.D.D.5.M *.>.N M v.A.A.A.M.E.E.W.J.8.G.Q.E.E.W.G.l.I.!.E.E.E.P.E.E.E.E.W.T.M.x.O.M.M.M.c.&.*.0.w.w.w.w.w.w.w.",
"o o D.D.D.D.D.D.D.D.w.] H ;.v.M.O.N 3.Y.!.E.P.E.E.E.W.Q.W.E.E.E.E.W.I.U.E.E.E.E.W.W.E.E.E.W.T.m.m.M.m.m.m.M.3.m F.D.D.D.D.D.D.D.",
"o o D.D.D.D.o o w.w.[ > t o.K.m.M.O.6.Y.W.E.!.E.E.E.E.E.E.!.E.E.E.W.!.E.E.E.!.E.E.E.E.E.W.E.P.m.m.m.m.m.m.M.3.m F.D.D.D.D.D.D.D.",
"o o o D.D.o o k.k.t.< o X 5 q a.m.M.P.P.E.!.!.!.E.E.E.!.T.I.!.E.!.U.T.!.E.E.I.E.!.!.!.!.E.P.m.m.m.M.M.M.M.x.*.;.x.k.k.k.k.k.k.k.",
"o o o o o o k.k.t.< X , 9 7 0 a.m.m.m.m.P.P.P.P.!.!.T.P.A.M.U.!.U.Z.A.T.E.E.I.P.P.P.P.P.L.m.m.Z.f.0 0 / x.*.k ~ k.k.k.k.k.k.k.k.",
"^.o o o o o k.k.D o , Q s.d.m.m.m.m.m.d.j.m.m.m.L.P.A.j.m.m.Z.P.Z.j.A.T.E.E.!.I.P.m.m.m.m.m.f.8 1     ; Z l & , t.k.k.k.k.k.k.D.",
"^.^.^.o o o o 8 < X 7 s.@.g.m.m.m.d.d.g.m.m.m.m.m.m.m.m.m.m.m.m.m.m.I.!.E.E.E.!.!.M.m.m.m.m.g.r F F 6   & & . o < t.k.k.k.k.D.D.",
"^.^.o o o o o o o X 7 s.@.h.m.m.m.h.i.j.m.m.m.m.j.d.g.m.m.m.m.m.m.m.I.!.E.E.E.E.P.m.m.m.m.m.m.M.M.M.g.6 X 1 C : X , N.D.D.D.D.D.",
"^.^.o o o o & l l u = C s.s.j.m.m.m.p.p.m.m.j.d.p.@.@.d.m.m.m.m.m.m.Z.U.!.W.W.L.m.m.m.m.m.m.m.m.m.m.M.F   9 s.Q : X , a.D.D.D.D.",
"^.o o t.o & c N N v y @ e +.s.j.m.d.@.@.p.p.p.@.@.@.@.p.m.m.m.m.m.g.h.Z.A.A.A.m.m.m.m.m.m.m.m.m.m.m.M.r < ( @.i.Q : o ) k.k.D.k.",
"o o k.t.o t N M M N v l U i.@.s.p.@.@.@.@.@.@.i.j.j.j.g.d.m.m.m.g.@.g.m.m.m.m.m.m.j.d.m.m.m.m.m.m.m.m.a.( @.@.@.s.< o ) k.k.k.k.",
"o o k.t.o t N M M M M M  .@.@.@.@.@.@.h.j.i.i.j.m.m.m.m.g.s.p.p.i.@.i.h.m.m.m.m.m.j.i.s.p.d.m.m.m.m.h.i.@.@.@.+.7 @ o ; a.k.k.k.",
"o o k.t.o t M N g % % B @.@.@.@.@.@.h.m.m.j.j.m.m.m.m.m.h.@.@.@.d.j.d.i.s.j.m.m.m.j.i.i.j.j.m.j.i.i.i.@.@.@.@.R v t o o - X.w.k.",
"o o o o o o i h # o 7 _ @.@.@.@.@.@.j.m.m.m.m.m.m.m.m.m.m.j.g.@.g.m.m.d.@.h.m.m.j.p.i.j.m.m.m.j.@.@.@.@.@.@.i.=.M v t o o ..w.w.",
"^.o o o o o + $ X 2 @.@.@.@.@.@.@.@.i.j.j.m.m.m.m.j.m.m.m.m.m.d.d.m.m.m.p.@.j.j.p.@.i.j.m.m.m.h.@.@.@.@.@.@.@.=.M M m & o ..w.w.",
"^.^.o o o % % $ X 2 @.@.@._ ( ` @.@.@.@.i.j.m.m.j.p.m.m.m.m.m.g.@.g.j.j.p.@.@.@.@.@.@.s.j.j.j.@.@.@.@.@.' ' T M M M N * o ..k.k.",
"^.^.o o y m M h # o 7 ( ( 2 $ z } @.@.@.@.i.j.j.@.p.j.j.m.m.m.d.@.@.@.@.@.@.@.@.@.@.@.@.@.@.@.@.@.@.@. .M N M M M M v & o W k.k.",
"^.o o & M M M N g $ o O O $ h M M } ` ` @.@.@.@.@.@.@.p.j.j.d.@.@.@.@.@.@.@.@.@.@.@.@.@.@.@.@.@.@.@.@.{ N M M M v c * o = W g.k.",
"^.o o & M M M M N g & $ X s m M M M M %.' @.@.@.@.@.@.@.@.@.@.@.@.@.@.@.@.@.@.` @.@.@.@.@.@.@.@.@.@.@.@. .N M v t o o - G y.y.S.",
"^.o o & c N M M M M N f $ X s v M M %.' @.@.@.@.@.@.@.@.@.@.@.` ' @.@.@.@.@.` L ` @.@.@.@.` @.@.@.@.@.@.i.R M d # o o S r.y.u.S.",
"^.o o o & l x N M M M N f * * z N M ` @.@.@.@.@.| @.@.@.@.@.' $.$.' @.@.@.` %.%.' @.@.@.` %.@.@.@.@.@.@.' =.M N d $ o o G y.V.k.",
"^.^.o o o X & x M M M M M N N M M M  .@.@.@.@. .%.@.@.@.@.' R $.b =.} { { %.M ` @.@.@.@.` %.@.@.@.@.@.i.E M M M N s $ o G ) ^ d.",
"^.^.o o o o $ f N M M M M M M M M M M E { { ' $.%.@.@.@.i. .=.i.{ $.b %.$.N M R @.@.@.{ E b } @.@.@.i.` Z x M M M N t o D ) ^ J ",
"^.o o o o % f N M M N N M M M M M M M M M =.@.` b } i.i.' $.=.@.@.i. .` i.R N M R  .E M M M b  . . .{ Z t p N M M N t o D ) ) K ",
"^.o o D o t I M N x d z M M M M M M M M N @.@.` M b E  .=.m T i.@.@.i.} ` i.%.M M M M M M M M M M c d t . d N M N l & o G J J 7.",
"^.o o D o % h P c t . s N M M M M M M M M R ' T M M M M M M %.| @.@.i.$.$.R b M M M M M M M M M M x i p * * x I h % o 4 e.y.N.D.",
"^.o o W 2 o % s t X * z M M M M M M M M M M =.M M M M M M M M %.| i.} %.M M M M M M M M M M N M M M N I f . * s & o 4 e.y.r.S.D.",
"^.o o o ^ 2 o o o o s I M M M M N M M M M M M M M M M M M M M M %.T %.M M M M M M M M M M v f N M M N z * o o o 4 8 W ) r.B.D.D.",
"^.^.o o o o 0 0 0 < & l N N N N d c M M M M M M M M M N M M M M M M M M M M M M M M M M M c $ d N N x & o 3 S S W ) ^ ^ a.D.D.D.",
"^.^.o o o a.) ) ) 8 o & u u u u $ x N M M M M M M N c d N M M M M N f l M M M M M M M N v y o $ u u & o o 8 ) ) ) ^ a.d.k.k.k.k.",
"^.^.o o k.k...U U A > o o o o o o * v M M M M M N c & $ d N N N N g $ h N M M M M M m y * o o o o o o , q F ) ^ ^ a.k.k.k.k.k.k.",
"^.o o o k.k.k.g.a.U A V V V V w w w ! ] M M M v t & o o $ t t t t % o & z N M M M M M j q w w w w w w F ) ) U ..O.k.k.k.k.k.k.k.",
"o o o o o k.k.k.k.h.a.) U U U ) ) ) / / Y ~ ~ ! r r D a o o o o o o o o & * * c M M ] ~ ) ) ) h.d.) ) ) ^ ..0.0.w.w.k.k.k.k.k.k.",
"o o k.k.k.k.k.k.k.k.j.h.t.^ ^ ^ ^ ^ ^ ^ / / ) g.) ) ) ^ D D D D D D D D D D D ~ ~ ~ ^ / ^ ^ U ..q.a.^ t.0.0.w.w.w.w.k.k.k.k.k.k.",
"o k.k.k.k.k.k.D.D.D.D.k.k.S.S.u.y.) ) ^ ^ ) h.h.^ ^ ^ ^ ) ) ) ) ) ) ) ) ) ) ) ) / / ^ ^ ^ U U [ w.q.0.0.w.w.w.w.w.w.k.k.k.k.k.k.",
"o k.k.k.k.k.k.k.D.D.D.D.D.D.D.S.S.S.S.) ) h.k.h.^ ^ ^ U [ X.U ^ ^ ^ ^ ^ ^ ) g.j.) ) ) ) ] 0.0.0.w.w.w.w.w.w.w.w.w.w.w.w.w.k.k.k.",
"o k.k.k.k.k.k.k.D.D.D.D.D.D.D.D.w.w.w.0.k.k.w.0.U U U [ O.U U U U ^ ^ U U O.w.k.k.k.k.0.0.w.w.w.w.w.w.w.w.w.w.w.w.w.w.w.w.w.w.w."
};
