/* XPM */
static const char *top_right7[] = {
/* columns rows colors chars-per-pixel */
"64 64 173 2 ",
"   c #0D112C",
".  c #121227",
"X  c #13162B",
"o  c #161C2E",
"O  c #191F2E",
"+  c #171E30",
"@  c #1C232E",
"#  c #172031",
"$  c #182333",
"%  c #1A2837",
"&  c #1B2C3A",
"*  c #1E323E",
"=  c #21292F",
"-  c #242C33",
";  c #2B3332",
":  c #2E3B34",
">  c #2E3D3A",
",  c #333E35",
"<  c #364236",
"1  c #3A4636",
"2  c #3C4B37",
"3  c #3C4038",
"4  c #43463A",
"5  c #424938",
"6  c #4A5639",
"7  c #465A3A",
"8  c #4C5C3B",
"9  c #4C613B",
"0  c #53633C",
"q  c #5B6D3E",
"w  c #5E713F",
"e  c #5E793F",
"r  c #63743F",
"t  c #1F3541",
"y  c #213B45",
"u  c #213E48",
"i  c #24434A",
"p  c #26484E",
"a  c #3E5543",
"s  c #274D52",
"d  c #284E53",
"f  c #295256",
"g  c #2B5759",
"h  c #2C5B5C",
"j  c #33635E",
"k  c #2A5E61",
"l  c #2E6161",
"z  c #306764",
"x  c #316967",
"c  c #326C69",
"v  c #34726D",
"b  c #3E7E6F",
"n  c #2E7575",
"m  c #347773",
"M  c #377A73",
"N  c #397C73",
"B  c #4B6847",
"V  c #4C684A",
"C  c #5E7940",
"Z  c #49775A",
"A  c #567750",
"S  c #626342",
"D  c #657A41",
"F  c #6A7C41",
"G  c #7B7B49",
"H  c #417665",
"J  c #407F6D",
"K  c #517261",
"L  c #597D68",
"P  c #407F72",
"I  c #398077",
"U  c #398178",
"Y  c #5E8354",
"T  c #57815A",
"R  c #578C5F",
"E  c #5B8E5D",
"W  c #5E905B",
"Q  c #6D8342",
"!  c #6E8D43",
"~  c #67864D",
"^  c #6B8B4D",
"/  c #778E45",
"(  c #788F44",
")  c #739445",
"_  c #799145",
"`  c #799C46",
"'  c #759C4C",
"]  c #799F4A",
"[  c #648954",
"{  c #668D59",
"}  c #669456",
"|  c #699654",
" . c #6D9851",
".. c #619259",
"X. c #6A935B",
"o. c #6D995F",
"O. c #7B9850",
"+. c #729C5D",
"@. c #7DA147",
"#. c #7CA148",
"$. c #7BA15A",
"%. c #4D8665",
"&. c #44826D",
"*. c #49856C",
"=. c #4E8A6C",
"-. c #528962",
";. c #588D67",
":. c #538B69",
">. c #56896E",
",. c #5C9165",
"<. c #5F9669",
"1. c #458272",
"2. c #578C70",
"3. c #629463",
"4. c #689661",
"5. c #6C9C63",
"6. c #68956C",
"7. c #719B6F",
"8. c #658E73",
"9. c #629270",
"0. c #6FA166",
"q. c #75A462",
"w. c #78A763",
"e. c #79A863",
"r. c #8A884C",
"t. c #918F4E",
"y. c #829C48",
"u. c #92914F",
"i. c #9D9A51",
"p. c #81A346",
"a. c #84A548",
"s. c #8AA349",
"d. c #83A949",
"f. c #8CAA49",
"g. c #90A448",
"h. c #92AD4A",
"j. c #96B14B",
"k. c #9CB44C",
"l. c #9BB94E",
"z. c #84A657",
"x. c #86AB56",
"c. c #8BAD54",
"v. c #83A658",
"b. c #91AE52",
"n. c #8FB252",
"m. c #93B351",
"M. c #A1B74C",
"N. c #A3B94C",
"B. c #A5A254",
"V. c #B0AC57",
"C. c #A2B754",
"Z. c #A7BA50",
"A. c #ABBD53",
"S. c #BAB55A",
"D. c #BFBA5B",
"F. c #8FA363",
"G. c #8CAA6C",
"H. c #97AC66",
"J. c #AFBE6A",
"K. c #AAC04C",
"L. c #B2C057",
"P. c #B3C159",
"I. c #BAC55D",
"U. c #BEC761",
"Y. c #BEC765",
"T. c #C1C963",
"R. c #C6CC67",
"E. c #C7CC67",
"W. c #C8CC67",
"Q. c #CCCF67",
"!. c #C8CD68",
"~. c #CED066",
"^. c #47ABA9",
/* pixels */
"^.^.^.^.^.^.^.^.^.^.^.^.^.^.^.^.^.^.^.^.^.^.^.^.^.^.^.o o o o o o o ^.^.^.^.^.^.^.^.^.^.^.^.^.^.^.^.^.^.^.^.^.^.^.^.^.^.o o o o ",
"^.^.^.^.^.^.^.o o o o o o ^.^.^.^.^.^.^.^.^.^.^.^.^.o o o o o o o o o ^.^.^.^.^.^.^.^.^.^.o o o o o o ^.^.^.^.^.^.^.^.o o o o o ",
"^.^.^.^.^.^.o o o o o o o o ^.o o o o ^.^.^.^.^.^.^.o o o e.e.e.o o o o ^.o o o ^.^.^.^.o o o o o o o o ^.o o o o o o o o D.D.D.",
"^.^.^.^.^.o o o l.l.l.l.o o o o o o o o o ^.^.o o o o o e.e.e.e.e.o o o o o o o o o ^.o o o D.D.D.o o o o o o o o o o o D.D.D.D.",
"^.^.^.^.^.o o l.l.l.l.l.l.o o o o o o o o o o o o o o o e.e.e.e.e.e.o o o D.D.D.o o o o o D.D.D.D.D.o o o o e.e.e.e.o o D.D.D.D.",
"^.^.^.^.^.o o l.l.l.l.l.l.o o o l.l.l.o o o o o l.l.o o o e.e.e.e.e.o o D.D.D.D.D.o o o D.D.D.D.D.D.o o o e.e.e.e.e.e.o D.D.D.D.",
"^.^.^.^.^.o o l.l.l.l.l.l.l.o l.l.l.l.l.l.o o l.l.l.l.l.o e.e.e.e.o o D.D.D.D.D.D.o o D.D.D.D.D.D.D.o o o e.e.e.e.e.e.o D.D.D.D.",
"^.^.^.^.^.o o o l.l.l.l.l.l.o l.l.l.l.l.l.o o l.l.l.l.l.D.D.D.e.e.o D.D.D.D.D.D.D.o o D.D.D.D.D.D.o o o o o e.e.e.D.D.o D.D.D.D.",
"^.^.^.o o o o o o l.l.l.l.l.l.l.l.l.l.l.l.o o l.l.l.l.D.D.D.D.D.D.D.D.D.D.D.D.D.o o D.D.D.D.D.D.o o D.D.o o o e.D.D.D.D.D.D.D.D.",
"^.^.o o o o o o o o e.e.l.l.l.l.l.l.l.l.l.l.o o l.l.D.D.l.l.D.D.D.D.D.D.D.D.D.D.D.D.D.D.D.D.D.D.D.D.D.D.D.o o o D.D.D.D.D.D.D.D.",
"^.o o o e.e.e.o o o e.e.e.l.l.l.l.l.l.l.l.l.l.l.l.l.D.l.l.l.l.D.D.D.D.D.D.D.D.l.l.l.D.D.D.D.D.l.l.D.D.D.D.l.l.D.D.D.D.D.D.D.D.D.",
"^.o o e.e.e.e.e.e.o e.e.e.e.e.l.l.l.l.l.l.l.l.l.l.l.l.l.l.l.l.l.l.l.l.D.D.D.l.l.l.l.l.D.D.l.l.l.l.l.l.D.l.l.l.l.D.D.D.D.D.D.D.D.",
"^.o o e.e.e.e.e.e.l.l.l.l.l.l.l.l.l.l.l.l.l.l.l.l.l.l.l.l.l.l.l.l.l.l.l.D.D.l.l.l.l.l.D.l.l.l.l.l.l.l.l.l.l.l.l.D.D.D.D.D.D.D.D.",
"^.o o e.e.e.e.e.l.l.l.l.l.l.l.l.l.l.l.l.l.l.l.l.l.l.l.l.l.l.l.l.l.l.l.l.l.l.l.l.l.l.l.D.l.l.l.l.l.l.l.l.l.l.l.l.D.D.D.D.D.l.l.l.",
"^.o o e.e.e.e.e.l.l.l.l.l.l.l.l.l.e.l.l.l.l.l.l.l.l.l.l.l.l.l.l.l.l.l.l.l.l.l.l.l.l.l.l.l.l.l.l.l.l.l.l.l.l.l.l.l.l.l.l.l.l.l.l.",
"^.o o o e.e.e.o l.l.l.l.l.l.l.l.e.e.e.l.e.e.e.e.l.l.l.l.l.l.D.D.D.l.l.l.l.l.l.l.l.l.l.l.l.l.l.l.l.l.l.l.l.l.l.l.l.l.l.l.l.l.l.l.",
"^.^.o o o o o o o e.e.e.e.e.e.e.e.e.e.e.e.e.e.e.e.l.l.l.D.D.D.D.D.D.l.l.l.l.l.l.l.l.l.l.e.e.e.l.l.l.l.l.l.l.l.l.l.l.l.l.l.l.l.l.",
"^.^.^.o o o o o o e.e.e.e.e.e.e.e.e.e.e.e.e.e.e.e.D.D.D.D.D.D.D.D.D.D.D.D.D.e.e.e.l.l.e.e.e.e.e.l.l.l.l.l.l.l.l.l.l.l.l.l.l.l.l.",
"^.^.o o o l.l.l.o o e.l.l.l.l.l.e.e.e.e.e.e.e.e.e.e.e.e.D.D.D.D.D.D.D.D.D.e.e.e.e.e.e.e.l.l.e.e.e.l.l.l.l.l.l.e.e.e.l.l.l.l.l.l.",
"^.^.o o l.l.l.l.l.l.l.l.l.l.l.l.l.e.e.e.l.l.l.e.e.e.e.e.e.e.D.D.D.e.e.e.e.e.l.l.e.e.e.l.l.l.l.e.e.e.l.l.l.l.e.e.e.e.e.l.l.l.e.e.",
"^.^.o o l.l.l.l.l.l.l.l.l.l.l.l.l.e.e.l.l.l.c.N M M M M ;.l.l.l.l.l.,.M M M M M x.m.l.l.m.m.m.m.l.l.l.l.l.e.e.e.e.e.e.e.e.e.e.e.",
"^.^.o o l.l.l.l.l.l.l.l.l.l.l.l.l.l.m.n.m.c.N M &.&.&.N M 3.l.n.m.,.M M P *.&.&.N N c.c.N N M *.q.l.l.l.l.e.e.e.e.e.e.e.e.e.e.e.",
"^.^.^.o o l.l.l.l.l.l.l.l.l.l.l.l.n.*.M M M M :.k.k.M.z.N ,.5.M M M M N z.M.k.k.:.M M M M *.*.&.*.q.l.l.e.e.e.e.l.l.l.e.e.e.e.e.",
"^.^.^.o o o o o o o o l.l.l.l.o % x M *.*.*.&.k.M.M.M.N.$.m M M M M P z.N.Z.Z.N.k.:.M M :.k.N.x.M *.0.5.q.e.e.l.l.l.l.l.l.l.l.l.",
"^.^.^.^.o o o o o o o o o o o & x M *.m.M.j.*.k.M.M.M.k.o.P 2.2.1.m $.N.N.T.W.Z.M.k.N b k.M.N.c.*.M M M =.5.q.l.l.l.l.l.l.l.l.l.",
"^.^.^.o o o o o D.D.o o o & H.>.M M b.N.M.j.*.k.A.Z.N.z.n 7.~.Q.G.P +.N.I.!.W.A.N.k.9.9.A.Z.M.N.z.M M M M M 3.m.l.l.l.l.l.l.l.l.",
"^.^.o o o D.D.D.D.D.D.D.& >.M M M M b.M.M.j.3.A.W.T.C.4.N G.W.E.~.7.+.A.T.W.E.E.N.A.W.W.!.T.A.N.v.N ;.;.;.*.M <.e.e.e.e.e.l.l.l.",
"^.o o D.D.D.D.D.D.D.D.D.6.M =.,.N M b.A.A.A.N.E.E.W.J.9.G.Q.E.E.W.G.z.I.!.E.E.E.P.E.E.E.E.E.T.N.c.+.N.N.N.v.*.=.q.e.e.e.e.e.e.e.",
"o o D.D.D.D.D.D.D.D.e.[ H :.b.N.+.N 4.Y.!.E.P.E.E.E.W.Q.W.E.E.E.E.W.I.U.E.E.E.E.W.W.E.E.E.W.T.M.N.N.M.M.M.N.4.m F.D.D.D.D.D.D.D.",
"o o D.D.D.D.o o e.e.{ > t O.K.N.N.+.7.Y.W.E.!.E.E.E.E.E.E.!.E.E.E.W.!.E.E.E.!.E.E.E.E.E.E.E.P.M.M.M.M.M.M.N.4.m F.D.D.D.D.D.D.D.",
"o o o D.D.o o l.l.y.< o   5 q s.N.N.P.P.E.!.!.!.E.E.E.!.T.I.!.E.!.U.T.!.E.E.I.E.!.!.!.!.E.P.M.M.N.N.N.N.N.c.=.:.c.l.l.l.l.l.l.l.",
"o o o o o o l.l.y.< X , 9 7 0 s.N.M.M.M.P.P.P.P.!.!.T.P.A.N.U.!.U.Z.A.T.E.E.I.P.P.P.P.P.L.M.N.Z.g.0 0 ( c.=.k ^ l.l.l.l.l.l.l.l.",
"^.o o o o o l.l.D o , ! d.f.N.N.M.N.N.f.k.M.M.N.L.P.A.M.M.M.Z.P.Z.k.A.T.E.E.!.I.P.N.M.M.M.N.g.8 1     ; Z l & , y.l.l.l.l.l.l.D.",
"^.^.^.o o o o 8 < X 7 d.#.h.N.M.M.f.f.h.M.M.M.M.M.M.M.M.M.M.M.M.M.M.I.!.E.E.E.!.!.N.M.M.M.N.h.r F F 6   & & . o < y.l.l.l.l.D.D.",
"^.^.o o o o o o o X 7 d.#.j.N.M.M.j.p.k.M.M.M.N.k.f.f.N.M.M.M.M.M.M.I.!.E.E.E.E.P.N.M.M.M.M.N.N.N.N.h.6 X 1 C : X , B.D.D.D.D.D.",
"^.^.o o o o & l l u = C d.d.k.M.M.N.a.a.k.N.k.f.a.#.#.f.M.M.M.M.M.M.Z.U.!.W.W.L.M.M.M.M.M.M.M.M.M.M.N.F   9 d.! : X , s.D.D.D.D.",
"^.o o y.o & c N N v y @ e @.d.k.N.f.#.#.a.a.a.#.#.#.#.a.N.M.M.M.N.h.j.Z.A.A.A.M.M.M.M.M.M.M.M.M.M.M.N.r < ) #.@.! : o _ l.l.D.l.",
"o o l.y.o t N M M N v l Y #.#.d.a.#.#.#.#.#.#.p.k.k.k.h.f.M.M.N.h.#.h.M.M.M.M.M.M.k.f.k.M.M.M.M.M.M.N.s.) #.#.#.d.< o _ l.l.l.l.",
"o o l.y.o t N M M M M M ..#.#.#.#.#.#.j.k.p.p.k.M.M.M.M.h.d.d.a.p.#.p.j.M.M.M.M.M.k.p.d.a.f.M.M.M.M.j.p.#.#.#.@.7 @ o ; s.l.l.l.",
"o o l.y.o t M N g % % B #.#.#.#.#.#.j.M.M.k.k.M.M.M.M.N.j.#.#.#.f.k.f.p.d.k.M.M.M.k.p.p.k.k.M.k.p.p.p.#.#.#.#.E v t o o - o.e.l.",
"o o o o o o i h # o 7 ` #.#.#.#.#.#.k.M.M.M.M.M.M.M.M.M.M.k.h.#.h.N.M.f.#.j.M.M.k.a.p.k.M.M.M.k.#.#.#.#.#.#.p.-.M v t o o X.e.e.",
"^.o o o o o + $ X 2 #.#.#.#.#.#.#.#.p.k.k.M.M.M.M.k.M.M.M.M.M.f.f.M.M.M.a.#.k.k.a.#.p.k.M.M.M.j.#.#.#.#.#.#.#.-.M M m & o X.e.e.",
"^.^.o o o % % $ X 2 #.#.#.` ) ' #.#.#.#.p.k.M.M.k.a.M.M.M.M.N.h.#.h.k.k.a.#.#.#.#.#.#.d.k.k.k.#.#.#.#.#.] ] R M M M N * o X.l.l.",
"^.^.o o y m M h # o 7 ) ) 2 $ z | #.#.#.#.p.k.k.#.a.k.k.M.M.M.f.#.#.#.#.#.#.#.#.#.#.#.#.#.#.#.#.#.#.#...M N M M M M v & o Q l.l.",
"^.o o & M M M N g $ o O O $ h M M | ' ' #.#.#.#.#.#.#.a.k.k.f.#.#.#.#.#.#.#.#.#.#.#.#.#.#.#.#.#.#.#.#.} N M M M v c * o = Q h.l.",
"^.o o & M M M M N g & $ X s m M M M M &.] #.#.#.#.#.#.#.#.#.#.#.#.#.#.#.#.#.#.' #.#.#.#.#.#.#.#.#.#.#.#...N M v t o o - G u.u.S.",
"^.o o & c N M M M M N f $ X s v M M &.] #.#.#.#.#.#.#.#.#.#.#.] ] #.#.#.#.#.' J ' #.#.#.#.' #.#.#.#.#.#.p.E M d # o o S t.u.i.S.",
"^.o o o & l x N M M M N f * * z M M ' #.#.#.#.#. .#.#.#.#.] | %.-.] #.#.#.' J &.] #.#.#.' &.#.#.#.#.#.#.] -.M N d $ o o G u.V.l.",
"^.^.o o o X & x M M M M M N N M M M ..#.#.#.| } -.#.#.#.] -.b &.m -.| } | &.*.] #.#.#.#.} -.#.#.#.#.#.p.W M M M N s $ o G _ / f.",
"^.^.o o o o $ f N M M M M M M M M M M W } ] %.J #.#.#.#.} N } | %.b &.%.N M E #.#.#.} ..b | #.#.#.#.p.' Z x M M M N t o D _ / K ",
"^.o o o o % f N M M N N M M M M M M M M -.] ] b } #.p.] -.-.p.#.p.}  .p.W b M E ....M M M b ........} Z t p N M M N t o D _ _ L ",
"^.o o D o t U M N x d z M M M M M M M N ] #.] M N W ..-.m -.p.#.#.p.| ' p.%.M M M M M M M M M M M c d t . d N M N l & o G K K 8.",
"^.o o D o % h I c t . s N M M M M M M M E ] E M M M M M M &. .#.#.p.-.%.E J M M M M M M M M M M M x i p * * x U k % o 4 r.u.B.D.",
"^.o o Q 2 o % s t X * z M M M M M M M M M -.M M M M M M M M &. .p.| &.M M M M M M M M M M M N M M M N U f . * s & o 4 r.u.t.S.D.",
"^.o o o / 2 o o o o s U M M M M N M M M M M M M M M M M M M M &.R &.M M M M M M M M M M M v f N M M N z * o o o 4 8 Q _ t.B.D.D.",
"^.^.o o o o 0 0 0 < & l N N N N d c M M M M M M M M M N M M M M M M N M M M M M M M M M M c $ d N N x & o 3 S S Q _ / / s.D.D.D.",
"^.^.o o o s._ _ _ 8 o & u u u u $ x N M M M M M M N c d N M M M M N f l M M M M M M M N v y o $ u u & o o 8 _ _ _ / s.f.l.l.l.l.",
"^.^.o o l.l.X.Y Y A > o o o o o o * v M M M M M N c & $ d N N N N g # h N M M M M M m y * o o o o o o , q F _ / / s.l.l.l.l.l.l.",
"^.o o o l.l.l.h.s.Y A V V V V w w w ~ [ M M M v t & o o $ t t t t % o & z N M M M M M j q w w w w w w F _ _ Y X.+.l.l.l.l.l.l.l.",
"o o o o o l.l.l.l.j.s._ Y Y Y _ _ _ ( ( T ^ ^ ~ r r D a o o o o o o o o & * * c M M [ ^ _ _ _ j.f._ _ _ / X.q.q.e.e.l.l.l.l.l.l.",
"o o l.l.l.l.l.l.l.l.k.j.y./ / / / / / / ( ( _ h._ _ _ / D D D D D D D D D D D ^ ^ ^ / ( / / Y X.w.s./ y.q.q.e.e.e.e.l.l.l.l.l.l.",
"o l.l.l.l.l.l.D.D.D.D.l.l.S.S.i.u._ _ / / _ j.j./ / / / _ _ _ _ _ _ _ _ _ _ _ _ ( ( / / / Y Y { e.w.q.q.e.e.e.e.e.e.l.l.l.l.l.l.",
"o l.l.l.l.l.l.l.D.D.D.D.D.D.D.S.S.S.S._ _ j.l.j./ / / Y { o.Y / / / / / / _ h.k._ _ _ _ [ q.q.q.e.e.e.e.e.e.e.e.e.e.e.e.e.l.l.l.",
"o l.l.l.l.l.l.l.D.D.D.D.D.D.D.D.e.e.e.q.l.l.e.q.Y Y Y { +.Y Y Y Y / / Y Y +.e.l.l.l.l.q.q.e.e.e.e.e.e.e.e.e.e.e.e.e.e.e.e.e.e.e."
};
