/* XPM */
static const char *top_right6[] = {
/* columns rows colors chars-per-pixel */
"64 64 192 2 ",
"   c #0D122C",
".  c #13162B",
"X  c #161C2E",
"o  c #181E2E",
"O  c #121227",
"+  c #171E30",
"@  c #1C222E",
"#  c #172031",
"$  c #192333",
"%  c #1A2837",
"&  c #1C2C3A",
"*  c #182739",
"=  c #1E313E",
"-  c #21292F",
";  c #232B31",
":  c #2C3533",
">  c #2B3936",
",  c #313E35",
"<  c #393C36",
"1  c #2F403B",
"2  c #364335",
"3  c #3C4B37",
"4  c #3E4139",
"5  c #364438",
"6  c #404B36",
"7  c #405238",
"8  c #495639",
"9  c #465A3A",
"0  c #4B5C3B",
"q  c #4C613B",
"w  c #53633C",
"e  c #596B3E",
"r  c #5D713E",
"t  c #5E793F",
"y  c #63753F",
"u  c #1F3541",
"i  c #1F3A45",
"p  c #213C46",
"a  c #213E48",
"s  c #23434B",
"d  c #26484E",
"f  c #314F48",
"g  c #3C5444",
"h  c #274D52",
"j  c #284F53",
"k  c #295256",
"l  c #2C5B5C",
"z  c #295659",
"x  c #32605B",
"c  c #2B5F62",
"v  c #2E6161",
"b  c #306764",
"n  c #316967",
"m  c #326C69",
"M  c #34726D",
"N  c #3E7E6F",
"B  c #357671",
"V  c #377A73",
"C  c #397C74",
"Z  c #35777B",
"A  c #2E7575",
"S  c #5C5D40",
"D  c #4C684A",
"F  c #4B6847",
"G  c #5E6041",
"H  c #5E7940",
"J  c #476358",
"K  c #47765A",
"L  c #567750",
"P  c #657A41",
"I  c #6A7C41",
"U  c #617540",
"Y  c #7B7A48",
"T  c #417F6D",
"R  c #417665",
"E  c #517261",
"W  c #587C68",
"Q  c #407F72",
"!  c #398078",
"~  c #398077",
"^  c #5E8354",
"/  c #5B8E5C",
"(  c #55855C",
")  c #5E905B",
"_  c #6E8443",
"`  c #6D8C43",
"'  c #68874C",
"]  c #698A4F",
"[  c #65854E",
"{  c #778E45",
"}  c #788F44",
"|  c #739445",
" . c #799145",
".. c #749C4C",
"X. c #799F4A",
"o. c #799C46",
"O. c #648955",
"+. c #668D59",
"@. c #698E55",
"#. c #659456",
"$. c #699654",
"%. c #6D9851",
"&. c #619159",
"*. c #6A935B",
"=. c #6D995F",
"-. c #729C5D",
";. c #769A50",
":. c #7DA147",
">. c #7BA048",
",. c #79A15B",
"<. c #4D8665",
"1. c #44816D",
"2. c #49856D",
"3. c #4F8A6D",
"4. c #528963",
"5. c #588D67",
"6. c #538B69",
"7. c #56896E",
"8. c #5C9165",
"9. c #478672",
"0. c #578C70",
"q. c #5D8C75",
"w. c #629463",
"e. c #689661",
"r. c #6C9C63",
"t. c #68956C",
"y. c #719B6F",
"u. c #608E75",
"i. c #679175",
"p. c #6FA166",
"a. c #75A462",
"s. c #78A763",
"d. c #79A863",
"f. c #918F4E",
"g. c #829C48",
"h. c #879F47",
"j. c #93914F",
"k. c #92904F",
"l. c #81A346",
"z. c #84A548",
"x. c #8AA449",
"c. c #8CAA49",
"v. c #83A949",
"b. c #90A448",
"n. c #92AD4A",
"m. c #96B14B",
"M. c #9BB54C",
"N. c #9BB94E",
"B. c #84A657",
"V. c #86AB56",
"C. c #8BAC54",
"Z. c #83A658",
"A. c #91AE52",
"S. c #8FB154",
"D. c #92B351",
"F. c #A1B74C",
"G. c #A3B94C",
"H. c #A9A555",
"J. c #A7BA50",
"K. c #ABBD53",
"L. c #A6B459",
"P. c #BAB55A",
"I. c #BFBA5B",
"U. c #B1B45D",
"Y. c #8CAA6C",
"T. c #8FA363",
"R. c #91AD6B",
"E. c #AFBE6A",
"W. c #AAC04C",
"Q. c #B2C057",
"!. c #B3C159",
"~. c #BAC55D",
"^. c #BEC761",
"/. c #BEC765",
"(. c #C1C963",
"). c #C5CB66",
"_. c #C7CC67",
"`. c #C6CC67",
"'. c #C7CC67",
"]. c #C9CD67",
"[. c #CCCF67",
"{. c #C8CD68",
"}. c #C8CD68",
"|. c #CACE69",
" X c #C8CD68",
".X c #CED066",
"XX c #3F9394",
"oX c #3A8688",
"OX c #45A6A5",
"+X c #46A9A7",
"@X c #47ABA9",
"#X c #47ABA9",
/* pixels */
"X X X @X@X@X@X@X@X@X@X@X@X@X@X@X@X@XX X X X @X@X@X@X@X@X@X@X@XX X X X X X X @X@X@X@X@X@X@X@X@X@X@X@X@X@X@X@X@X@X@X@X@X@X@X@X@X@X",
"X X X X X @X@X@XX X X X X X @X@X@XX X X X X X @X@X@X@X@X@X@XX X X X X X X X X @X@X@X@X@X@X@X@X@X@X@XX X X X @X@X@X@X@X@X@X@X@X@X",
"I.I.I.X X X @XX X X X X X X X @XX X X N.N.X X @XX X X X X @XX X X I.I.I.I.X X @X@X@X@X@X@X@X@X@XX X X X X X X X @X@X@X@X@X@X@X@X",
"I.I.I.I.X X X X X X I.I.I.I.X X X X N.N.N.N.X X X X X X X X X X I.I.I.I.I.I.X X @X@X@X@X@X@X@XX X X X N.N.N.X X X @X@X@X@X@X@X@X",
"I.I.I.I.X X X X X I.I.I.I.I.I.X X X N.N.N.N.N.X X X d.d.X X X X I.I.I.I.I.I.X X X X X X X @X@XX X X N.N.N.N.N.X X X @X@X@X@X@X@X",
"N.N.N.I.I.X X X X I.I.I.I.I.I.I.X X N.N.N.N.N.X X d.d.d.d.X X X I.I.I.I.I.X X X X X X X X X @XX X d.N.N.N.N.N.N.X X @X@X@X@X@X@X",
"N.N.N.N.N.N.I.X X I.I.I.I.I.I.I.I.X X N.N.N.N.N.X d.d.d.I.I.X X I.I.I.I.I.X X I.I.I.I.I.X X X X X N.N.N.N.N.N.N.X X @X@X@X@X@X@X",
"N.N.N.N.N.N.N.N.X X X I.N.N.N.N.I.N.X N.N.N.N.N.d.d.d.I.I.I.I.X I.I.I.I.X X I.I.I.I.I.I.I.X X d.d.N.N.N.N.N.N.N.X X @X@X@X@X@X@X",
"I.I.N.N.N.N.N.N.N.I.I.I.N.N.N.N.N.N.N.N.N.N.N.N.N.d.d.I.I.I.I.X I.I.I.I.X I.I.I.I.I.I.I.I.X X d.d.N.N.N.N.N.N.N.X X @X@X@X@X@X@X",
"I.I.I.N.N.N.N.N.N.N.N.N.N.N.N.N.N.N.N.N.N.N.N.N.N.N.I.I.N.N.I.I.I.I.I.I.I.I.I.I.I.I.I.I.I.X X d.d.N.N.N.N.N.X X X X X @X@X@X@X@X",
"I.I.I.N.N.N.I.I.N.N.N.N.N.N.N.N.N.N.N.N.N.N.N.N.N.N.I.N.N.N.N.I.I.I.I.I.I.I.I.N.N.N.I.X X X d.d.d.d.N.N.X X X X X X X X @X@X@X@X",
"I.I.I.N.N.I.I.I.I.I.N.N.N.N.N.N.N.N.N.N.N.N.N.N.N.N.N.N.N.N.N.N.N.N.N.I.I.I.N.N.N.N.X X X X d.d.d.d.d.N.X X N.N.N.N.X X X @X@X@X",
"I.I.I.I.I.I.I.I.I.I.I.I.I.I.I.I.I.I.I.N.N.N.N.N.N.N.N.N.N.N.N.N.N.N.N.N.I.I.N.N.N.N.X N.N.N.d.d.d.d.d.N.N.N.N.N.N.N.N.X X @X@X@X",
"I.I.I.I.I.I.I.I.I.N.N.N.N.N.N.N.N.N.N.N.N.N.N.N.N.N.N.N.N.N.N.N.N.N.N.N.N.N.N.N.N.N.N.N.N.N.N.d.d.d.d.N.N.N.N.N.N.N.N.X X @X@X@X",
"N.N.N.N.N.N.N.N.N.N.N.N.d.d.d.d.d.d.N.N.N.N.N.N.N.N.N.N.N.N.N.N.N.N.N.N.N.N.N.N.N.N.N.d.d.d.d.d.d.N.N.N.N.N.N.N.N.N.N.X X @X@X@X",
"N.N.N.N.N.N.N.N.N.N.d.d.d.d.d.d.d.d.d.N.d.d.d.d.N.N.N.N.N.N.I.I.I.N.N.N.N.N.N.N.N.N.N.d.d.d.d.d.d.N.N.N.X X N.N.N.N.X X X @X@X@X",
"N.N.N.N.N.N.N.N.d.d.d.d.d.d.d.d.d.d.d.d.d.d.d.d.d.N.N.N.I.I.I.I.I.I.N.N.N.N.N.N.N.N.N.N.d.d.d.d.N.N.N.N.N.N.X X X X X X @X@X@X@X",
"N.N.N.N.N.N.N.d.d.d.d.d.d.d.d.d.d.d.d.d.d.d.d.d.d.I.I.I.I.I.I.I.I.I.I.I.I.I.d.d.d.N.N.d.d.d.d.d.N.N.N.N.N.N.d.X X X X X @X@X@X@X",
"N.N.N.N.N.d.d.d.d.d.d.N.N.N.N.N.d.d.d.d.d.d.d.d.d.d.d.d.I.I.I.I.I.I.I.I.I.d.d.d.d.d.d.d.N.N.d.d.d.N.N.N.N.N.N.N.X X @X@X@X@X@X@X",
"N.N.N.d.d.d.d.d.d.d.N.N.N.N.N.N.N.d.d.d.N.N.N.d.d.d.d.d.d.d.I.I.I.d.d.d.d.d.N.N.d.d.d.N.N.N.N.d.d.N.N.N.N.N.N.N.X X @X@X@X@X@X@X",
"d.N.N.N.N.N.N.N.N.N.N.N.N.N.N.N.N.d.d.N.N.N.C.C V V V V 5.N.N.N.N.N.8.V V V V V V.D.N.N.D.D.D.a.d.d.N.N.N.N.N.X X X X @X@X@X@X@X",
"d.d.d.d.N.N.N.N.N.N.N.N.N.N.N.N.N.N.D.S.D.C.C V 1.1.1.C V w.N.S.D.w.V V Q 1.1.1.C C C.C.C C V 2.a.d.d.d.N.N.N.d.X X X @X@X@X@X@X",
"N.N.N.N.N.N.N.N.N.N.N.N.N.N.N.N.N.S.2.V V V V 6.M.M.F.B.C 8.r.V V V V C B.F.M.M.6.V V V V 1.1.1.2.a.d.d.d.d.d.d.d.X X @X@X@X@X@X",
"N.N.N.N.N.N.N.N.i.i.i.i.i.N.N.i.u.C V 2.2.2.1.M.F.F.F.G.,.B V V V V Q B.G.J.J.G.M.6.V V 6.M.G.V.V 2.p.r.a.d.d.d.d.X X X @X@X@X@X",
"N.N.N.N.N.N.N.i.i.i.i.i.i.i.i.u.Q V 2.D.F.m.2.M.F.F.F.M.=.Q 0.0.9.B ,.G.J.(.].J.F.M.C N M.F.G.C.1.V V V 3.r.a.d.X X X X X X @X@X",
"N.N.N.N.N.i.i.i.I.I.I.I.i.q.q.7.V V A.G.F.m.1.M.K.J.G.B.A y..X[.R.Q -.G.~.{._.K.F.M.t.t.K.J.F.G.B.V V V V V w.D.N.I.I.I.X X X @X",
"N.N.i.i.i.i.I.I.I.I.I.I.L.7.V V V V A.F.F.m.w.K.].(.J.e.C Y.]._..Xy.-.K.(._._._.J.K.].].{.(.K.G.Z.C 5.5.5.1.V ,.I.I.I.I.I.X X @X",
"I.i.i.I.I.I.I.I.I.I.I.I.t.V 3.8.C V A.K.K.K.G._._.].E.i.Y.[._._.].Y.B.~.{._._._.!.`._._._._.(.G.C.-.G.G.G.Z.1.3.U.I.I.I.I.X X @X",
"I.I.I.I.I.I.I.I.I.I.d.O.R 6.A.G.-.C e./.{._.!._._._.].[.]._._._._.].~.^._._._._.{._._._._.].(.F.G.G.F.F.F.G.e.B T.I.I.I.I.X X @X",
"N.N.N.N.N.N.I.I.d.d.+.> i ;.W.G.G.-.y./.]._.{._._._._._._.{._._._.].{._._._.{._._._._._._.`.!.F.F.F.F.F.F.G.e.B T.I.I.I.X X X @X",
"N.N.N.N.N.N.N.N.N.g.2 X . 6 e x.G.G.!.!._.{.{.{._._._.{.(.~.{._.{.^.(.{._._.~.`.{.{.{.{._.!.F.F.G.G.G.G.G.C.3.9.& X X X X X @X@X",
"N.N.N.N.N.N.N.N.g.2 . , q 9 w x.G.F.F.F.!.!.!.!.{.{.(.!.K.G.^.{.^.J.K.(._._.~.!.!.!.!.!.Q.F.G.J.b.w w } S.3.c g *.X X X X @X@X@X",
"I.I.I.N.N.N.N.N.P X , ` v.c.G.G.F.G.G.c.M.F.F.G.Q.!.K.F.F.F.J.!.J.M.K.(._._.{.~.!.F.F.F.F.G.b.0 3     : g s & X 1 *.X X X @X@X@X",
"I.I.I.I.N.h.8 0 2 . 9 v.>.n.G.F.F.c.c.n.F.F.F.F.F.F.F.F.F.F.F.F.F.F.~.{._._._.{.{.G.F.F.F.G.n.y P I 8   . 2 r > . 2 z.X X X @X@X",
"I.I.I.I.H.4 X X X . 9 v.>.m.G.F.F.m.l.M.F.F.F.G.M.c.c.G.F.F.F.F.F.F.~.{._._._._.!.G.F.F.F.F.G.G.G.G.n.8   q v.` > X } N.X X @X@X",
"N.N.N.H.4 X & v v a - H v.v.M.F.F.G.z.x.M.G.M.c.z.>.>.c.F.F.F.F.F.F.J.^.{.].].Q.F.F.F.F.F.F.F.F.F.F.G.y , | >.v.3 . , z.N.X X @X",
"N.N.N.g.X & m C C M p @ t :.v.M.G.c.>.>.z.z.z.>.>.>.>.z.G.F.F.F.G.n.m.J.K.K.K.F.F.F.F.F.F.F.F.F.F.F.G.h.` :.>.>.` > X  .N.X X @X",
"N.N.N.g.X u C V V C M v ^ >.>.v.z.>.>.>.>.>.>.l.M.M.M.n.c.F.F.G.n.>.n.F.F.F.F.F.F.M.c.M.F.F.F.F.G.G.m.l.>.>.>.>.v.2 X  .N.X X @X",
"N.N.N.g.X u C V V V V V &.>.>.>.>.>.>.m.M.l.l.M.F.F.G.F.n.v.v.z.l.>.l.m.F.F.F.F.F.M.l.v.z.c.F.M.z.z.l.>.>.>.>.) f @ X : z.X X @X",
"N.N.N.g.X u V C l % % F >.>.>.>.>.>.m.F.F.M.M.F.F.F.F.G.m.>.>.>.c.M.c.l.v.M.F.F.F.M.l.l.M.M.F.M.>.>.>.>.>.>.l.4.M u X X X X X @X",
"d.d.d.O.X X s l # X 9 o.>.>.>.>.>.>.M.F.F.F.F.F.F.F.F.F.F.M.n.>.n.G.F.c.>.m.F.F.M.z.l.M.F.F.F.M.>.>.>.>.>.>.>.4.V M u X X X X @X",
"d.d.+.% X X + # . 7 X.>.>.>.>.>.>.>.l.M.M.F.F.F.F.F.F.F.F.F.F.c.c.F.F.F.z.>.M.M.z.>.l.M.F.F.F.m.>.>.>.>.X.>./ V V V B & X X @X@X",
"N.c.; X X % % # . 7 >.>.>.o.| o.>.>.>.>.l.M.F.F.M.z.F.F.F.F.G.n.>.n.F.M.z.>.>.>.>.>.>.v.M.M.M.>.>.>.l.&.V N V V V V C = X XX@X@X",
"N.x.o X p B V l # X 9 | | 3 $ b $.>.>.>.>.l.M.M.>.z.M.M.F.F.F.c.>.>.>.>.>.>.>.>.>.>.>.>.>.>.>.>.>.>.l.#.V V V V V V M & X Z OX@X",
"N._ o & V V V C l # X o o $ l V V $.....>.>.>.>.>.>.>.z.M.M.c.>.>.>.>.>.>.>.X.>.>.>.>.>.>.>.>.>.>.>.>.>.&.C V M m m = X & Z OX@X",
"N._ o & V V V V C z & $ . h B V V V 1.1.X.>.>.>.>.>.>.>.>.>.>.>.>.>.>.>.>...1...>.>.>.>...>.>.>.>.>.>.>.>./ V h # X X X Z oXoXOX",
"n._ o & m C V V V V C k # . h B V 1...>.>.>.>.>.>.>.>.>.>.>.X...>.>.>.>...1.1...>.>.>.X.1.>.>.>.>.>.>.>.X.4.V C a X X X X X X +X",
"{ _ : X & v n C V V V C k = = b C ..>.>.>.>.>.%.>.>.>.>.>.X.4.<.X.l.>.l.<.V ..>.>.>.>.X.1.>.>.>.>.>.>.l.) V V C h # X X Y X X X ",
"E E _ > X X & n V V V V V C C V V ) >.>.>.>.&.1.>.>.>.>.X./ <.N <.$.#.$.1.V ) >.>.>.$.&.N $.X.$.$.$...>.K m V V C h # X Y j.X X ",
"W W E J X X # k C V V V V V V V V V / #.#.X.<.1.>.>.>.>.#.<.l.$.<.N 1.<.<.N V / #.&.V V V N / V m z K ( i d C V V C u X Y j.X X ",
"i.H.j.J X % k C V V C V V V V V V V V V 4.>.X.N #.>.l.X.4.4.l.>.l.#.%.l.l.<.V V V V V V V V V C n p d i O h C V V C u X Y X X X ",
"P.f.j.Y X u ! V C n j b V V V V V V V C >.>.X.V C ) &.4.B 4.l.>.>.l.$...$.T V V V V V V V V V V V C b s = u m C C v & X X X X OX",
"I.H.j.Y X % l ~ m u O h C V V V V V V V / X./ V V V V V V 1.%.>.>.l.4.<.T V V V V V V V V V C V V V V ! k O u j j % X X X X X +X",
"I.P.f.f.3 X % h u . = b V V V V V V V V V 4.V V V V V V V V 1.%.l.$.1.V V V V V V V V V V M k C C V V C k X X X X X X X X X X X ",
"I.I.x.{ { 3 X X X X h ! V V V V C V V V V V V V V V V V V V V 1./ 1.V V V V V V V V V V C m # s k C C b = < G S S S X  .{ X X X ",
"N.N.N.x.{ _ w w w 2 & v C C C C j m V V V V V V V V V C V V V V V V C V V V V V V V V C B a X . % s s = X 0  .j.j. .{ { x.N.X X ",
"N.N.N.N.c.x. . . .0 X & a a a a # n C V V V V V V C m j C V V V V C k v C V V V V V B a p X X ; e 6 X X , I ^ ^ ^ { x.c.N.N.X X ",
"N.N.N.N.N.N.*.^ ^ L > X X X X X X = M V V V V V C m & # j C C C C z # l C C C V V V V x e e e U  ._ e e I X X X ^ *.N.N.N.N.X X ",
"N.N.N.N.N.N.N.n.z.^ L D D D D r r r [ O.V V V M u & X X # u u u u % X & u u u m V V O.]  . . . .{ }  . . .{ X X X a.N.N.N.N.X X ",
"N.N.N.N.N.N.N.N.N.m.z. .O.O.^  . . . .} ( ] ] ' y y P g X X X X X X X X g y y [ ] ] { } { {  .m.x.{ { { { *.a.X X X N.N.N.X X X ",
"N.N.N.N.N.N.I.I.N.N.N.m.g.{ { { { { { { } }  .n. . . .{ P P P P P P P P {  . .} } } { { { { ^ *.d.x.{ g.a.a.d.X X X X X X X X @X",
"N.N.N.N.N.I.I.I.I.N.N.N.N.P.P.j.j. . .{ {  .m.m.{ { { {  . . . . . . . .{ { { } { { { { { ^ ^ +.d.d.a.a.d.d.d.X X X X X X X @X@X",
"N.N.N.I.I.I.I.I.I.I.I.I.I.I.I.P.P.P.P. . .m.N.m.} { { ^ +.=.^ { { { { { {  .n.m. . . . .O.a.a.a.d.d.d.d.d.d.d.X X d.d.d.X X X @X",
"d.d.I.I.I.I.I.I.I.I.I.I.I.I.I.I.d.d.d.a.N.N.d.a.^ ^ ^ +.-.^ ^ ^ ^ { { ^ ^ -.d.N.N.N.N.a.a.d.d.d.d.d.d.d.d.d.X X d.d.d.N.N.N.X X "
};
