/* XPM */
static const char *active[] = {
/* columns rows colors chars-per-pixel */
"71 64 233 2 ",
"   c #161B2D",
".  c #191E2F",
"X  c #121629",
"o  c #181F30",
"O  c #171E30",
"+  c #1C2433",
"@  c #1F2A3A",
"#  c #1F2837",
"$  c #1D202F",
"%  c #242934",
"&  c #232D3B",
"*  c #282936",
"=  c #322F38",
"-  c #26313E",
";  c #2A333E",
":  c #2D3334",
">  c #3B343A",
",  c #373739",
"<  c #232A2F",
"1  c #473C3C",
"2  c #3C4331",
"3  c #484637",
"4  c #57483E",
"5  c #585739",
"6  c #5C6335",
"7  c #656738",
"8  c #737938",
"9  c #6D733B",
"0  c #253442",
"q  c #2A3641",
"w  c #2D3B45",
"e  c #2E3E49",
"r  c #333C44",
"t  c #353F47",
"y  c #4D3F41",
"u  c #34444C",
"i  c #3A454A",
"p  c #39454A",
"a  c #3C4D52",
"s  c #354953",
"d  c #3E5257",
"f  c #3D545B",
"g  c #36505C",
"h  c #2D414E",
"j  c #3D5B64",
"k  c #3F5761",
"l  c #494847",
"z  c #584742",
"x  c #5A5849",
"c  c #454F52",
"v  c #41565B",
"b  c #445A5D",
"n  c #465556",
"m  c #4D5550",
"M  c #654E44",
"N  c #675747",
"B  c #765A48",
"V  c #695E50",
"C  c #586254",
"Z  c #6A6448",
"A  c #7B6548",
"S  c #726E56",
"D  c #445C63",
"F  c #475F64",
"G  c #5A5F60",
"H  c #4B6465",
"J  c #45646C",
"K  c #49656A",
"L  c #4D696B",
"P  c #496567",
"I  c #516C6B",
"U  c #576764",
"Y  c #58736E",
"T  c #4B6C73",
"R  c #4D747A",
"E  c #4E7478",
"W  c #537372",
"Q  c #53747A",
"!  c #567B7C",
"~  c #5A7C7C",
"^  c #577776",
"/  c #516E73",
"(  c #6B6E62",
")  c #677667",
"_  c #647D7B",
"`  c #787662",
"'  c #83644B",
"]  c #8A684D",
"[  c #936D4E",
"{  c #85754A",
"}  c #97794B",
"|  c #8B7355",
" . c #997655",
".. c #8D6A52",
"X. c #A57A53",
"o. c #AA7C55",
"O. c #A27854",
"+. c #8F7F62",
"@. c #7E833B",
"#. c #7B8558",
"$. c #768873",
"%. c #5A807F",
"&. c #85873C",
"*. c #89903A",
"=. c #A4AB3D",
"-. c #ABB23D",
";. c #D0D83E",
":. c #9B8657",
">. c #959551",
",. c #A2864C",
"<. c #AA8559",
"1. c #B38356",
"2. c #B58B59",
"3. c #A6995A",
"4. c #B99456",
"5. c #A9984A",
"6. c #99A54E",
"7. c #BAB744",
"8. c #B1A84E",
"9. c #969A76",
"0. c #908E69",
"q. c #BB9663",
"w. c #AD9361",
"e. c #94A973",
"r. c #B3A572",
"t. c #C5A74E",
"y. c #CEA554",
"u. c #CFA953",
"i. c #D1AC52",
"p. c #D7B857",
"a. c #C8B352",
"s. c #C29962",
"d. c #C4A66B",
"f. c #C7B86A",
"g. c #D7AF6D",
"h. c #C29F56",
"j. c #B7C866",
"k. c #BDC242",
"l. c #C7C844",
"z. c #DBC84D",
"x. c #D9D847",
"c. c #D9D056",
"v. c #D0CB4A",
"b. c #E2DA49",
"n. c #E2D35A",
"m. c #DFE444",
"M. c #E5EB43",
"N. c #E7EA47",
"B. c #EAF144",
"V. c #EAF048",
"C. c #EBF255",
"Z. c #E7EA58",
"A. c #CACE70",
"S. c #EFF372",
"D. c #ECEE6D",
"F. c #E6DF77",
"G. c #537D81",
"H. c #5C7E85",
"J. c #5C8484",
"K. c #5D8A8B",
"L. c #5A8588",
"P. c #5C8E90",
"I. c #5F9293",
"U. c #628C8C",
"Y. c #648687",
"T. c #768C83",
"R. c #61908F",
"E. c #75968C",
"W. c #658E92",
"Q. c #629494",
"!. c #6D9593",
"~. c #6C9996",
"^. c #659C9C",
"/. c #6A9C9C",
"(. c #669698",
"). c #719C9D",
"_. c #739892",
"`. c #6CA09E",
"'. c #74A39D",
"]. c #7AA58C",
"[. c #6CA2A2",
"{. c #74A4A3",
"}. c #7CABA3",
"|. c #73AAAA",
" X c #7AABAC",
".X c #75A7A7",
"XX c #7CAFB1",
"oX c #77AEB0",
"OX c #7CB2B3",
"+X c #679FA0",
"@X c #849B8F",
"#X c #87A99B",
"$X c #94AC91",
"%X c #A4A688",
"&X c #B4B992",
"*X c #82ADA3",
"=X c #82AAA8",
"-X c #8AB5A9",
";X c #9BBEAA",
":X c #94BBAB",
">X c #81B4B5",
",X c #85BBBC",
"<X c #89BDBE",
"1X c #85B7B7",
"2X c #92BDB5",
"3X c #A7BDA2",
"4X c #C3B88E",
"5X c #BDCE99",
"6X c #8CC1BF",
"7X c #97C3B9",
"8X c #A4CBBC",
"9X c #A9CBB7",
"0X c #B1D2BD",
"qX c #ABCFB5",
"wX c #DDD88D",
"eX c #E5DB8D",
"rX c #F2F689",
"tX c #E9E68B",
"yX c #F6F9A6",
"uX c #F7F9B9",
"iX c #ECEDB1",
"pX c #D4DAA0",
"aX c #88BFC0",
"sX c #8CC3C4",
"dX c #8FC7C8",
"fX c #92C6C3",
"gX c #96C9C5",
"hX c #A5CDC0",
"jX c #FEFFFB",
"kX c #FCFDE6",
"lX c #FBFCDC",
"zX c None",
"xX c black",
/* pixels */
"zXzXzXzXzXzXzXzXzXzXzXzXzXzXzXzXzXzXzXzXzXzXzXzXzXzXzXzXzXzXzXzXzXzXzXzXzXzXzXzXzXzXzXzXzXzXzXzXzXzXzXzXzXzXzXzXzXzXzXzXzXzXzXzXzXzXzXzXzXzXzX",
"zXzXzXzXzXzXzXzXzXzXzXzXzXzXzXzXzXzXzXzXzXzXzXzXzXzXzXzXzXzXzXzXzXzXzXzXzXzXzXzXzXzXzXzXzXzXzXzXzXzXzXzXzXzXzXzXzXzXzXzXzXzXzXzXzXzXzXzXzXzXzX",
"zXzXzXzXzXzXzXzXzXzXzXzXzXzXzXzXzXzXzXzXzXzXzXzXzXzXzXzXzXzXzXzXzX  + & & + zXzXzXzXzXzXzXzXzXzXzXzXzXzXzXzXzXzXzXzXzXzXzXzXzXzXzXzXzXzXzXzXzX",
"zXzXzXzXzXzXzXzXzXzXzXzXzXzXzXzXzXzXzXzXzXzXzXzXzXzXzXzXzXzX- & + w K W H d - + + zXzXzXzXzXzXzXzXzXzXzXzXzXzXzXzXzXzXzXzXzXzXzXzXzXzXzXzXzXzX",
"zXzXzXzXzXzXzXzXzXzXzXzXzXzXzXzXzXzXzXzXzXzXzXzXzXzX  D h g P.Q.L.! Q.^.(.(.J.L / S 3.v X zXzXzXzXzXzXzXzXzXzXzXzXzXzXzXzXzXzXzXzXzXzXzXzXzXzX",
"zXzXzXzXzXzXzXzXzXzXzXzXzXzXzXzXzXzXzXzXzXzXzXzXzX@ J XXJ [.1XOX[.Q.K.^.^.^.^.J.(.#.&X.XD @ zXzXzXzXzXzXzXzXzXzXzXzXzXzXzXzXzXzXzXzXzXzXzXzXzX",
"zXzXzXzXzXzXzXzXzXzXzXzXzXzXzXzXzXzXzXzXzXzXzXzX& G.1X<X(.|.[.^.^.[.(.^.^.[.|.^.[.^ ^ <XOXG.& zXzXzXzXzXzXzXzXzXzXzXzXzXzXzXzXzXzXzXzXzXzXzXzX",
"zXzXzXzXzXzXzXzXzXzXzXzXzXzXzXzXzXzXzXzXzXzX  + d Q.1X1X~.T. XOX X~.U. XOXsXOX|.OX/.^.1X1XQ.d +   zXzXzXzXzXzXzXzXzXzXzXzXzXzXzXzXzXzXzXzXzXzX",
"zXzXzXzXzXzXzXzXzXzXzXzXzXzXzXzXzXzXzXzXzX@ 0 + H Q.>X<X$Xd.:XsX>X(.J.>XsXsXsXsXU.f ^.<XOXQ.H + 0 @ zXzXzXzXzXzXzXzXzXzXzXzXzXzXzXzXzXzXzXzXzX",
"zXzXzXzXzXzXzXzXzXzXzXzXzXzXzXzXzXzXzXX 0 K.E - H J.}.qX5XtX$.(.^.^.Q.U. XsX>XXXk ~ ,X8X}.J.H - E K.0 X zXzXzXzXzXzXzXzXzXzXzXzXzXzXzXzXzXzXzX",
"zXzXzXzXzXzXzXzXzXzXzXzXzXzXzXzXzXzXw h s ^.I w v I Q.{.].` H /.^.^.^.^.^.^.J.{./ ~ /.[.Q.I d w L ^.s h w zXzXzXzXzXzXzXzXzXzXzXzXzXzXzXzXzXzX",
"zXzXzXzXzXzXzXzXzXzXzXzXzXzXzXzXzXzXJ Q.K T. .m K K Q.^.J.P ~  X[.[.|.|.{.(.{.sX!.` 0.E.Q.K s a ! (.K Q.J zXzXzXzXzXzXzXzXzXzXzXzXzXzXzXzXzXzX",
"zXzXzXzXzXzXzXzXzXzXzXzXzXzXzXzXzX  j (.L %XeX#.(.OX|.U.L H L {.OX>X{.H.D ~ OXOX_ 5.D.&X|.>X XW K.Q.I (.j   zXzXzXzXzXzXzXzXzXzXzXzXzXzXzXzXzX",
"zXzXzXzXzXzXzXzXzXzXzXzXzXzXzXzX  w f K.v 0.f.x Q.sXsX(.a e H /.<XsX1X#Xn L.|.^.v 4.uXpX1XsX XI K.G.v U.b w   zXzXzXzXzXzXzXzXzXzXzXzXzXzXzXzX",
"zXzXzXzXzXzXzXzXzXzXzXzXzXzXzXzX- H b D i c , a ~ 2XgXsX(.& L Q.[.|.>X;XE.J.^.^.L } n.j.>X1XY.v u a i b b H - zXzXzXzXzXzXzXzXzXzXzXzXzXzXzXzX",
"zXzXzXzXzXzXzXzXzXzXzXzXzXzXzX  u I a p V x ; P Q.{.-X[.J q I (.^.^.^.^.J.W ^.^.L.; Z $.|.[.Q.P ; i p t a I u   zXzXzXzXzXzXzXzXzXzXzXzXzXzXzX",
"zXzXzXzXzXzXzXzXzXzXzXzXzXzX  & a v D _ 4X3.t I Q.^.^.Q.Q Q W J.(.^.^.^.! D (.^.T D T R ^.^.Q./ a q J H.D v a &   zXzXzXzXzXzXzXzXzXzXzXzXzXzX",
"zXzXzXzXzXzXzXzXzXzXzXzXzX+ u F w e OX*XwXr.l ( Y.K.R OXdXsX{.^ ~ Q.^.(.L d U.|.XX<XfX XR P.! D P R >XdX.Xw w F u zXzXzXzXzXzXzXzXzXzXzXzXzXzX",
"zXzXzXzXzXzXzXzXzXzXzXzXzXu H H ; P <X{.0.x :.f.| t d /.sXsXsX<X).b ! J.D w U.,XgX8X9X*Xv 0 & g K.OXsXsX1XD % v H u zXzXzXzXzXzXzXzXzXzXzXzXzX",
"zXzXzXzXzXzXzXzXzXzXzXzXzXn I s u I  XsX<Xe.iXrX5.c L K.|.7X9X0X9XH a H u 0 D ^ #X*X`.Q.W v H Y.<XsXsXsX XW u u I n zXzXzXzXzXzXzXzXzXzXzXzXzX",
"zXzXzXzXzXzXzXzXzXzXzXzXq b b 0 H ^ ^.|.7XA.S.eX:.p I ~ (.`.*X;X#Xv / J.W.OXOXU.W (.^.(.I ( :.0.#X<XOX[.^.^ H - a v q zXzXzXzXzXzXzXzXzXzXzXzX",
"zXzXzXzXzXzXzXzXzXzXzXzX+ q ; + H W Q.^.(.e.k.t.A s I J.Q.^.^.^.L.u W.sXsXgX8X!.K (.~.T.D 9 m.tX$X^.[.^.(.W H % { #.+ zXzXzXzXzXzXzXzXzXzXzXzX",
"zXzXzXzXzXzXzXzXzXzXzX+ e i + q s L L.(.^.^.c Z u u W (.^.^.^.^.L.w L (.|.-X}.Q K (.) r.G 5.D.yXA.R.^.(.K.I s q { 9.e o zXzXzXzXzXzXzXzXzXzXzX",
"zXzXzXzXzXzXzXzXzXzXzX& H b w H U.|./ f K.^.J H s e K ^.^.^.^.(.J.c W (.^.^.^.J b Q Z F.x { p.Z.-.Q K.f / |.U.H r n H & zXzXzXzXzXzXzXzXzXzXzX",
"zXzXzXzXzXzXzXzXzXzX& u U U u H  XsX<XH.W. X^ a + w Q G.(.^.^.J.0.w._ (.(.[.(.D Y.>XY e.%.i A 8.) {.W.H.<XsX XL e P L u + zXzXzXzXzXzXzXzXzXzX",
"zXzXzXzXzXzXzXzXzXzXa m 3.<.m ! >XsXsXsXsXsX1XW w Q sX XU.(.^.G.{ wX) L J.<X<X1XfXsXOXOXsXQ w _ >XsXsXsXsXsX>X^ u b I n e zXzXzXzXzXzXzXzXzXzX",
"zXzXzXzXzXzXzXzXzXzXH ( wXz.( (.aXsXsXsXsXsX<XY.w P {.sX,XOX|.~.Y.9.H u v ~.>X:X-X[.^.[.).P w Y.<XsXsXsXfXgXsX^.d a H a b zXzXzXzXzXzXzXzXzXzX",
"zXzXzXzXzXzXzXzXzXzXF x c.t.c (.[.OX<X8X0X8XY.W u v W  X7X0X0X0X6X|.U.s d K.^.^.^.^.^.(.W v u W Y.8X0X0X9X:X}.^.L & q p H zXzXzXzXzXzXzXzXzXzX",
"zXzXzXzXzXzXzXzXzX+ a p 4 5 f ^.^.^.|.:X;X'.W I u b I Q.{.;X;X;X*X^.U.v v ~ Q.^.^.^.^.K.W b u I W '.;X;X-X~.(.+XJ + % i a + zXzXzXzXzXzXzXzXzX",
"zXzXzXzXzXzXzXzXzX& i u u E J I.^.^.^.^.^.Q.I I w e W K.(.^.^.^.^.(.L x c H I.`.^.^.+X(.W v e I I Q.^.^.~ 3.@XI.J Q u t i & zXzXzXzXzXzXzXzXzX",
"zXzXzXzXzXzXzXzXzX- i & b Q.L.Q.[.^.^.^.^.(.W d % 4 C ^ Q.E.~._.$.G A 2. .l ) I ^ U.J P l V % d W (.^.Q.m wX5XW.L.Q.b = i - zXzXzXzXzXzXzXzXzX",
"zXzXzXzXzXzXzXzX  - t - H W /.sX<XOX|.^.^.^.P + = 1.2.q.V | q.d.<.N g.g.g.V <.1.<.| N 2.2.4.> + P ~.0.:.z 8.6.XX).W ( 3.S &   zXzXzXzXzXzXzXzX",
"zXzXzXzXzXzXzXzX  q ; u I L ^ =XaXsXsX X(.K.L v ; ' 2. .4 A 2.s...l w.<. .3 | q.O.N z <.2.A ; v K ( a.F.9.Y =X{.W H N F.` ;   zXzXzXzXzXzXzXzX",
"zXzXzXzXzXzXzXzX  & f Y.W U +.<.$.{.OX[.W H I I u ' O.X.4 ' O.1.] 3 o.O.O.4 ] <.o.B 4 o.o.A u I H l f.uXrX$XJ.I I L b 9.l &   zXzXzXzXzXzXzXzX",
"zXzXzXzXzXzXzXzX+ d K.sX X$XtXN.@.T T._.K d I v ; [ 1.o.M ] 4.2.} z 1.1.4.4 } 2.<.] z 1.1.[ ; v H i 4.c.m.Z P I I U. XaXJ.d o zXzXzXzXzXzXzXzX",
"zXzXzXzXzXzXzXzX& W {.sX,Xj.yXS.8.t r.` g s P & + B ,.} 3 z 8.7.8 > [ 8.7., &.l.{ z 3 ,.X.B + - D u Z :.#.r u ^ ).<XsXsX{.W @ zXzXzXzXzXzXzXzX",
"zXzXzXzXzXzXzX  q ~ [.<X~.=.V.p.,.x F.A F  X XW w . % <   . : 2 3 6 , 3 3 6 3 3 % .   % * . w / =X>XOX1XOXv D 1XgXhXgX1X[.~ q   zXzXzXzXzXzXzX",
"zXzXzXzXzXzXzXzXu U.^.[.R.^ 8.,., a >.U <X8XE.I d = > > l * 8 x.x.M.;.;.x.Z.x.x.8 * 1 > > = d I @X0X0XsX>XD v /.-X:X=X[.^.U.u zXzXzXzXzXzXzXzX",
"zXzXzXzXzXzXzX  s (.^.^.^.^.~.^ s P J.(.-X*X(.W d y B M ] z =.B.C.rXyXrXD.rXD.B.=.z z M B z d W (.}.:X.XR.D v K.^.^.^.^.^.(.s   zXzXzXzXzXzXzX",
"zXzXzXzXzXzXzX  e (.+X^.^.^.^.T.l b ^.^.^.^.^.J.v = ] ] X.B &.B.D.lXjXkXrXB.B.B.@.N ' ] ..> v L.^.^.^.^./.D ; D (.^.^.^.[.(.e   zXzXzXzXzXzXzX",
"zXzXzXzXzXzXzX  u K.>X|.^.^.U.%X3.r K.^.^.^.^.K.H r  .o.4.{ 7 M.S.kXjXjXuXrXB.B.7 5.4.O. .r H U.^.^.^.!.0.3.U g U.^.^.|.>XK.u   zXzXzXzXzXzXzX",
"zXzXzXzXzXzXzX& L (.1XaXOX1X1XpXA.: L.^.^.^.^.J.b ; [  .<.5.9 B.S.yXyXuXuXrXB.M.7 7.h.O.[ = S 0.~.^.^._ a.tX%X>X1X1XOXaX1X(.L & zXzXzXzXzXzXzX",
"zXzXzXzXzXzX  q ! ^.[.6XgXfXsXqXS q ! ^.[.^.! D - . ] O.<.7.8 B.B.B.B.uXuXS.B.l.3 l.s.<.] $ 3.wX$.^.[.b ,.c.0.aXsXfXgXsX[.^.! ;   zXzXzXzXzXzX",
"zXzXzXzXzXzX  u J.^.^.}.#X#X7X XE L.1X<XaX<X).Q j & ' [ <.a.5 x.B.B.B.C.C.C.B.l.2 l.2.2.' + { A.#X,XsXH.x $.W  X7X#X#X}.^.^.J.u   zXzXzXzXzXzX",
"zXzXzXzXzXzX  a ! ^.^.^.Q.U.`.^.J.>XsXsXsXsXsXsX|.f M O.q.v.5 l.B.N.N.N.B.B.B.l.3 v. .<.M g ~ *XsXsXsXsXOXOXL.^.`.U.Q.^.^.(.! a   zXzXzXzXzXzX",
"zXzXzXzXzXzX# w @ j R (.^.^.^.Q._.8XsXsXsXsXsXsX~.0 3 o.d.p.8 l.N.z.b.b.b.z.N.l.7 a.o.o.3 0 /.sXsXsXsXsXsX8X_.Q.^.^.^.(.R j @ w # zXzXzXzXzXzX",
"zXzXzXzXzXzXzXzXzXo + R ^.^.Q.D Y 3X9X8X*X).).Q.^ b , X.s.a.8 l.b.x.z.i.u.z.B.=.7 a.o.O., b W Q.)./.*X8X9X3XY D Q.^.^.R + o zXzXzXzXzXzXzXzXzX",
"zXzXzXzXzXzXzXzXzXzXzXzXQ.Q.G.0 b U.{.'./.Q.Q.(.K.L p X.2.4.7 l.x.x.z.y.i.b.B.*.5 4.1. .p H J.(.Q.Q./.{.{.U.b 0 G.Q.Q.zXzXzXzXzXzXzXzXzXzXzXzX",
"zXzXzXzXzXzXzXzXzXzXzXzXzXzX&   u L.^.^.^.^.^.T K v n [ 1.O.5 l.b.b.i.y.p.i.z.*.1 o.o.B u w j R ^.^.^.^.^.L.u   @ zXzXzXzXzXzXzXzXzXzXzXzXzXzX",
"zXzXzXzXzXzXzXzXzXzXzXzXzXzXzXzXo j P.(.^.(.L.@ O & q N o.O.A l.B.x.y.y.y.u.z.&.M o.o.B & o o + J (.^.Q.P.f     zXzXzXzXzXzXzXzXzXzXzXzXzXzXzX",
"zXzXzXzXzXzXzXzXzXzXzXzXzXzXzXzXzXzX- j R zXzXzXzXzX  z ] ] ' =.B.z.zXzXy.y.y.3 z B  .B   zX  zXzXzXG.g & + zXzXzXzXzXzXzXzXzXzXzXzXzXzXzXzXzX",
"zXzXzXzXzXzXzXzXzXzXzXzXzXzXzXzXzXzXzXzXzXzXzXzXzXzX  + 1 M B % zXzXzXzXzXzXzXzX$ + z > zXzXzXzXzXzXzXzXzXzXzXzXzXzXzXzXzXzXzXzXzXzXzXzXzXzXzX",
"zXzXzXzXzXzXzXzXzXzXzXzXzXzXzXzXzXzXzXzXzXzXzXzXzXzXzXzX. zXzXzXzXzXzXzXzXzXzXzXzXzXzXzXzXzXzXzXzXzXzXzXzXzXzXzXzXzXzXzXzXzXzXzXzXzXzXzXzXzXzX",
"zXzXzXzXzXzXzXzXzXzXzXzXzXzXzXzXzXzXzXzXzXzXzXzXzXzXzXzXzXzXzXzXzXzXzXzXzXzXzXzXzXzXzXzXzXzXzXzXzXzXzXzXzXzXzXzXzXzXzXzXzXzXzXzXzXzXzXzXzXzXzX",
"zXzXzXzXzXzXzXzXzXzXzXzXzXzXzXzXzXzXzXzXzXzXzXzXzXzXzXzXzXzXzXzXzXzXzXzXzXzXzXzXzXzXzXzXzXzXzXzXzXzXzXzXzXzXzXzXzXzXzXzXzXzXzXzXzXzXzXzXzXzXzX",
"zXzXzXzXzXzXzXzXzXzXzXzXzXzXzXzXzXzXzXzXzXzXzXzXzXzXzXzXzXzXzXzXzXzXzXzXzXzXzXzXzXzXzXzXzXzXzXzXzXzXzXzXzXzXzXzXzXzXzXzXzXzXzXzXzXzXzXzXzXzXzX",
"zXzXzXzXzXzXzXzXzXzXzXzXzXzXzXzXzXzXzXzXzXzXzXzXzXzXzXzXzXzXzXzXzXzXzXzXzXzXzXzXzXzXzXzXzXzXzXzXzXzXzXzXzXzXzXzXzXzXzXzXzXzXzXzXzXzXzXzXzXzXzX",
"zXzXzXzXzXzXzXzXzXzXzXzXzXzXzXzXzXzXzXzXzXzXzXzXzXzXzXzXzXzXzXzXzXzXzXzXzXzXzXzXzXzXzXzXzXzXzXzXzXzXzXzXzXzXzXzXzXzXzXzXzXzXzXzXzXzXzXzXzXzXzX",
"zXzXzXzXzXzXzXzXzXzXzXzXzXzXzXzXzXzXzXzXzXzXzXzXzXzXzXzXzXzXzXzXzXzXzXzXzXzXzXzXzXzXzXzXzXzXzXzXzXzXzXzXzXzXzXzXzXzXzXzXzXzXzXzXzXzXzXzXzXzXzX",
"zXzXzXzXzXzXzXzXzXzXzXzXzXzXzXzXzXzXzXzXzXzXzXzXzXzXzXzXzXzXzXzXzXzXzXzXzXzXzXzXzXzXzXzXzXzXzXzXzXzXzXzXzXzXzXzXzXzXzXzXzXzXzXzXzXzXzXzXzXzXzX",
"zXzXzXzXzXzXzXzXzXzXzXzXzXzXzXzXzXzXzXzXzXzXzXzXzXzXzXzXzXzXzXzXzXzXzXzXzXzXzXzXzXzXzXzXzXzXzXzXzXzXzXzXzXzXzXzXzXzXzXzXzXzXzXzXzXzXzXzXzXzXzX",
"zXzXzXzXzXzXzXzXzXzXzXzXzXzXzXzXzXzXzXzXzXzXzXzXzXzXzXzXzXzXzXzXzXzXzXzXzXzXzXzXzXzXzXzXzXzXzXzXzXzXzXzXzXzXzXzXzXzXzXzXzXzXzXzXzXzXzXzXzXzXzX",
"zXzXzXzXzXzXzXzXzXzXzXzXzXzXzXzXzXzXzXzXzXzXzXzXzXzXzXzXzXzXzXzXzXzXzXzXzXzXzXzXzXzXzXzXzXzXzXzXzXzXzXzXzXzXzXzXzXzXzXzXzXzXzXzXzXzXzXzXzXzXzX",
"zXzXzXzXzXzXzXzXzXzXzXzXzXzXzXzXzXzXzXzXzXzXzXzXzXzXzXzXzXzXzXzXzXzXzXzXzXzXzXzXzXzXzXzXzXzXzXzXzXzXzXzXzXzXzXzXzXzXzXzXzXzXzXzXzXzXzXzXzXzXzX"
};
