/* XPM */
static const char *back_obs[] = {
/* columns rows colors chars-per-pixel */
"64 64 72 1 ",
"  c #552F16",
". c #573216",
"X c #593517",
"o c #5A3917",
"O c #583718",
"+ c #5C3D19",
"@ c #5E4417",
"# c #5E4518",
"$ c #535714",
"% c #5C5714",
"& c #555914",
"* c #5B5D15",
"= c #604619",
"- c #634C19",
"; c #605614",
": c #645B17",
"> c #67501A",
", c #695E1A",
"< c #5E6117",
"1 c #5F6218",
"2 c #626417",
"3 c #6A6117",
"4 c #636917",
"5 c #676917",
"6 c #656C17",
"7 c #686F16",
"8 c #646618",
"9 c #6C631B",
"0 c #666919",
"q c #6B6C1B",
"w c #746716",
"e c #71661B",
"r c #716B1A",
"t c #6F701C",
"y c #72751B",
"u c #72731D",
"i c #7F731D",
"p c #7D7C1F",
"a c #777720",
"s c #787720",
"d c #797820",
"f c #787B21",
"g c #7C7B23",
"h c #7E7D21",
"j c #7A7927",
"k c #7D7B27",
"l c #7E7D24",
"z c #7D7A29",
"x c #7E7D2B",
"c c #807F23",
"v c #807E25",
"b c #807E29",
"n c #A2783C",
"m c #7F8124",
"M c #7F8226",
"N c #838126",
"B c #858226",
"V c #838228",
"C c #848228",
"Z c #87842B",
"A c #87832D",
"S c #87842D",
"D c #88842B",
"F c #88852D",
"G c #8B8632",
"H c #8C8632",
"J c #8D8833",
"K c #A2814F",
"L c #BD9842",
"P c #C6A740",
"I c #9CA8AD",
"U c #B3B0A9",
/* pixels */
"yyyyyyyyyyyyyyyyyyyyyyyyyyyyyyyyyyyyyyyyyyyyyyyyyyyyyyyyyyyyyyyy",
"yyyyyyyyyyyyyyyyyyyyyyyyyyyyyyyyyyyyyyyyyyyyyyyyyyyyyyyyyyyyyyyy",
"yyyyyyyyyyyyyyyyyyyyyyyyyyyyyyyyyyyyyyyyyyyyyyyyyyyyyyyyyyyyyyyy",
"yyyyyyyyyyyyyyyyyyyyyyyyyyyyyyyyyyyyyyyyyyyyyfMyyyyyyyyyyyyyyyyy",
"yyyyyyyyyyyyyyyyyyyyyyyyyyyyyyyyyyyyyyyyyyyyyyMMyyyyyyyyyyyyyyyy",
"yyyyyyyyyyyyyyyyyyyyyyyyyyyyyyyyyyyyyyyyyyyyyyfffyyyyyyyyyyyyyyy",
"yyyyyyyyyyyyyyyyyyyyyyyyyyyyyyyyyyyyyyyyyyyyyy6ff6ffMMyyyyyyyyyy",
"yyyyyyyyyyyyyyyyyyyyyyyyyyyyyyyyyyyyyyyyyyyyyyyIIfffyyyyyyyyyyyy",
"yyyyyyyyyyyyyyyyyyyyyyyyyyyyyyyyyyyyyyyyyyyyyyIKIff6yyyyyyyyyyyy",
"yyyyyyyyyyyyyyyyyyyfMyyyyffyyyyyyyyyyyyyyyyyyyII4f6yyyyyyyyyyyyy",
"yyyyyyyyyyyyyyyyyyyyMMyyffyyyyyyyyyyyyyyyyyyyy44yyyyyyyyyyyyyyyy",
"yyyyyyyyyyyyyyyyyyyy6ffyffyyyyyyyyyyyyyyyyyyyyyyyyyyyyyyyyyyyyyy",
"yyyyyyyyyyyyyyyyyyyy6ffy66yyyyyyyyyyyyyyyyyyyyyyyyyyyyyyyyyyyyyy",
"yyyyyyyyyyyyyyyyyyyyy66yyyyyyyyyyyyyyyyyyyyyyyyyyyyyyyyyyyyMyyyy",
"yyyyyyyyyyyyyyyyyyyyyyyyyyyyyyyyyyyyyyyyyyyyyyyyyyyyyyyyyyMyyyyy",
"yyyyyyyyyyyyyyyyyyyyyyyyyyyyyyyyyyyyyyyyyyyyyyyyyyyyyyyyyffyyyyy",
"yyyyyyyyyyyyyyyyyyyyyyyyyyyyyyyyyyyyyyyyyyyyyyyyyyyyyyyyyff6yyyy",
"yyyyyyyyyyyyyyyyyyyyyyyyyyyyyyyyyy--yyyyyyyyyyyyyyyyyyyyy66fMyyy",
"yyyyyyyyyyyyyyyyyyyyyyyyyyyyy---y-tt-yyyyyyyyyyyyyyyyyyyyyyffyyy",
"yyyyyyyyyyyyyyyyyyyyyyy---yy-000-GGt-yyy=#yyyyyyyyyyyyyyyyy66yyy",
"yyyyyyyyLLyyyyyyyyyyyy-qqu>>000NGGGtt-y-aa#yyyyyyyyyyyyyyyyyyyyy",
"yyyyyyyLnnLyPPyyyyyyy-GGGuuu00BGGGGutt-0aa0#yMyyyyyyyyyyyyyyyyyy",
"yyyyyyy4LL4PnPyyyyyyy-GGGGuu00BHGGuuGGG0000#Myyyyyyyyyyyyyyyyyyy",
"yyyyyyyy44yPP4yyyyy--vGGGGGBBuuBBuuNGGGulk00#@yyyyyyyyyyyyyyyyyy",
"yyyyyyyyyyy44yyyy--uullGGGGBBBuBBBNNGGGubxk0jz@UUyyyyyyyyyyyyyyy",
"yyyyyyyyyyyyyyyy-00uulhBGGHHHBBBBBNNGGuubbb0zx@KUyyyyyyyyyyyyyyy",
"yyyyyyyyyyyyyyy-000llllHHHHHHVCCCVGGGuuuubx08#y44yyyyyyyyyyyyyyy",
"yyyyyyyyyyyyyyy-000vGGHHHHuuBBBBNNGGGNuuu00088#@yyyyyyyyyyyyyyyy",
"yyyyyyyyyyyyyyyy-0NGGHHHHHGuasfBNNHGavvGGGttt8qq@yyyyyyyyyyyyyyy",
"yyyyyyyyyyyyyyy-uuNGGHHBHHHssJJJJNaavvvGGGGut8tq@yyyyyyyyyyyyyyy",
"yyyyyyyyyyyyyy-uffgGGHrNNHJfJJJJJNNNNvuGGGGt00tt@yyyyyyyyyyyyyyy",
"yyyyyyyyyyyyy-8alvluuwwNNNthJJJJCCvvvuuuHGG0088=yyyyyyyyyyyyyyyy",
"yyyyyyyyyyyyy-88ff0uNNNNNBhhhhhCCCvvuhCuuu888888-#yyyyyyyyyyyyyy",
"yyyyyyyyyyyyyy-8888CCCDZNFZDhhggvvvllCCuuutSS88008#yyyyyyyyyyyyy",
"yyyyyyyyyyyyyyy-888CCCZSDZDDhhhpvviiiCCuutSSSS80008#yyyyyyyyyyyy",
"yyyyyyMyyyyyyyy-88uCCCNvDDDDrhhhDDCiiCCCCqSAAS22888=yyyyyyyyyyyy",
"yyyyyyyMyyyyyy-82uuq99vDDDrru9hCDDCChFCFFhFSAqqq*<8=yyyyyyyyyyyy",
"yyyyyyyffyyyy=22uaauuCZFDrrrucCCCDCChFFFFFe99000*<=yyyyyyyyyyyyy",
"yyyyyy7ffyyy@800uuaarCFFDrruCCCCCtCC,SFFFFrqqqq**-yyyyyyyyyyyyyy",
"yyyyyMf77yyy+8q08uaa2CSZ9qtrCCCCCqqqq9CFF00qqq:**=yyyyyyyyyyyyyy",
"yyyyyffyyyyyy+00228<q999quuutCCC3qqq00,3900uqq:*@yyyyyMyyyyyyyyy",
"yyyyy77yyyyyyy++*22qqruqquuuq0qq33330000005::::*&@yyyffyyMMfyyyy",
"yyyyyyyyyyyyyyyy+qqqqqt;;uuu%quut33300000ttqq::*&&+yyf7yffMyyyyy",
"yyyyyyyyyyyyyyy+qqq*qq%%;;;*uuuuq3**2uu0%tqqqq&*&&+Mf7yyff7yyyyy",
"yyyyyyyyyyyyyyy+qqq*<***%002tuut*3<*uuu&%%qqqq$1<+yffPPff7fMyyyy",
"yyyyyyyyyyyyyyyOqq******000**rq****<utt&%%%&&$12<oyyPnnP7ff7yyyy",
"yyyyyyyyyyyyyyyyX*&o**&0000********Xqq*&&&&&$$22<oyy4PP47f7yyyyy",
"yyyyyyyyyyyyyyyyyXXyX%%000*%%%%*00XyX**&&88*$o<<oyyyy44yyLLyyyyy",
"yyyyyyyyyyyyyyyyyyyyX%%%XX*%%%%000XyyX&*X288oyoofyyyyyyyLnnLyyyy",
"yyyyyyyyyyyyyyyyyyyyyXXXUU.%%.%000.yyy.XyX22XyyMffyyyyyy4LL4yyyy",
"yyyyMMyyyyyMyyyyyyyyyyyy44y..y.88.yyyyyyyyXXyyy7ffyyyyyPP44yyyyy",
"yyyyyMffyfMyyyyyyyyyyyyyyyyyyyy  yyyyyyyyyyyyyyy77yyyyPnP4yyyyyy",
"yyfMM7f7ff7yyyyyyyyyyyyyyyyyyyyyyyyyyyyyyyyyyyyyyyyyyyPP4yyyyyyy",
"yyyMfUU7ff7yMMyyyMyyyyyyyyyyyyyyyyyyyyyyyyyyyyyyyyyyyy44yyyyyyyy",
"yyy7UKKUf7yyyMMyMyyyyyyyyyyyyyyyyyyyyyyyyyyyyyyyyyyyyyyyyyyyyyyy",
"yyyy4UU4yyyyyff7fyyyyyyyyyyyyyyyyyyMMyyyyffyyyyyyyyyyyyyyyyyyyyy",
"yyyyy44yyyyyIIf77yyyyyyyyyyyyyyyyyyyMfyPPfyyyyyyyyyyyyyyyyyyyMMy",
"yyyyyyyyyyyIKKIyyyyyyyyyyyyyyyyyyyyy7ffPnfyyyyyyyyyyyyyyfyyffMyy",
"yyyyyyyyyyy4II4yIIyyyyyyyyyyyyyyyyyy7ff447yyyyyyyyyyyyyyMM7ff7yy",
"yyyyyyyyyyyy44yyKIyyyyyyyyyyyyyyyyyyy77yyyyyyyyyyyyyyyyyMff77yyy",
"yyyyyyyyyyyyyyyy44yyyyyyyyyyyyyyyyyyyyyyyyyyyyyyyyyyyyyy7ffyyyyy",
"yyyyyyyyyyyyyyyyyyyyyyyyyyyyyyyyyyyyyyyyyyyyyyyyyyyyyyyyyyyyyyyy",
"yyyyyyyyyyyyyyyyyyyyyyyyyyyyyyyyyyyyyyyyyyyyyyyyyyyyyyyyyyyyyyyy",
"yyyyyyyyyyyyyyyyyyyyyyyyyyyyyyyyyyyyyyyyyyyyyyyyyyyyyyyyyyyyyyyy"
};
