/* XPM */
static const char *bot_t[] = {
/* columns rows colors chars-per-pixel */
"64 64 10 1 ",
"  c #161C2E",
". c #2A485E",
"X c #27716F",
"o c #2F966A",
"O c #5AB659",
"+ c #679175",
"@ c #79A863",
"# c #9BB94E",
"$ c #BFBA5B",
"% c #47ABA9",
/* pixels */
"#####$$$$$$$$$$@@@@@@@@@@@@@@@@@@@@@@@@@@@@@@@@@@@@@@@@@@@@@@@@@",
"######$$$$$$#@@@###@@@@@@@@@@@@@@@@@@@@@++++@@@@@@@@@@@@@@@@@###",
"##$$$$$$$$$############@@@@@@@@@@@@@@@@++++++########++++@@@####",
"$$$$$$$$$$$#######@@@@@@@@@@@@@@@@@+++@+++++++++++##+++++++@####",
"$$$$$$$$$$##########@@@@@@@@@@@@@@+++++++++++++++++++$$$++++###$",
"#####$$$$$############@@@@@@@@@@@+++++$$$$++++$$$$++$$$$$++++$$$",
"######$$$$$#$$############@@@@@@@+++$$$$$$$++$$$$$$$$$$$$$$$$$##",
"########$$$$$$$###########@@@@@++++$$$$$$$$+$$$$$$$$$$$$$$$$$$##",
"$$#######$$$###$###########$$$$$$+$$$$$$$$$$$$$$$$$$$$$$$$$$$$#$",
"$$$#######################$$##$$$$$$$$$$$$$$$$$$$$$$$$$$$$$$$$$$",
"$$$###$$##################$####$$$$$$$$###$$$$$##$$$$##$$$$$$$$$",
"$$$##$$$$$#########################$    ###$$######$####$$$$$$$$",
"$$$$$$$$$$$$$$$$$$$    #######    #      ##$############$$$$$$$$",
"$$$$$$$$$#########      #   #        ..  ##$############$$$$$###",
"############@@@@@   XX        OOO   ....  ######################",
"##########@@@@@@@  XXXX      OOOOO  ....   #####################",
"########@@@@@@@@@  XXXX  OO  OOOOO   ..     @    ###############",
"#######@@@@@   @   XXXX OOOO OOOO     OOO         ##############",
"#####@@@@@@         XXXoOOOOOOOOO    OOOOO           ##@@@######",
"###@@@@@@@   ..        oOOOOOOOoo  OOOOOOOo  ooo      @@@@@###@@",
"@#########  ....   OO  ooOOOOooo  OOOOOOOOo ooooo  .. @@@@@@@@@@",
"@@@@######  ....  oOOO  ooooOOOOOOOOOOOOOoo ooooo ....    @@@@@@",
"#########    ... ooOOO  ooooOOOOOOOOOoooOoooooooo ....     @@@@@",
"########         ooOOO     ooOOOOOOOoooooOOOoooo  ...      #####",
"#######+    XXX  ooOO   OO  oOOooOOOoooooOOOoooo           #####",
"#####+     XXXXX oooo  OOOO oOooooOOOoooOOOO     ooo      ######",
"##+++      XXXXX XX    OOOOoooooooooooooOOO     ooooo      @@###",
"$++$        XXXXXXX oo  OOOoooooooooooooOO      ooooo       @@@@",
"$$$$  ..     XXXXX  oo    oooooooooXXXoooo ooo  ooXXo  XXX   $$$",
"#### .... .. .XXXX  oooo  ooooooooXXXXXoooooooo  XXX  XXXXX  $$$",
"#### .........XXXX  ooooo oXXoooooXXXXXooXXXooo  XXX  XXXXX  ###",
"####  ... ....XXXX   oooooXXXXooooXXXXXoXXXXXoo XXXXXXXXXX   ###",
"$$$##     ....XXXXX  XXXXXXXXXoooXXXXXXXXXXXXoo XXXXXXXXX   ###$",
"$$$$##   ...XXXXXXXXXXXXXXXXXXoXXXXoooXXXXXXooooXXXXXX     ###$$",
"$$$$$   ....XXX..XXXoooXXXXXXooXXXooooXXXXXXXooXXXXXXXX     $$$$",
"###$$   ....XX....XXoooXXXXXooooXXoooXXXXXXXXXXXX..XXXX ..   $$$",
"####$    ....X....XXXooXXXXXXoooXXXXXXXXXXXXXXXX....XX ....  #$#",
"######     ......XXXXXXXXXXXXXooXXXXXXXXX...XXXX...........  ###",
"#######  ........XX.....XXXXXXXXXX...XXX.....XXX...........  ###",
"######  .........X.......XXXXXXX......XX.....XXXX.........  @@@#",
"@@@@@@ ..... ............X..XXXXX............XXXX...       @@@@@",
"@@@@## ....  ...........XX...XXXX..XXX......XXXXX....     @@@@@@",
"######  ..   ...... ...XXXX..XXX..XXXX......XXXX........   @@@##",
"######       ...... ...XXXX...XX..XXXX.......XX..........   ####",
"#######       ....  ....XX........XXXX ........... ......   ####",
"###########          ..............XX. .........    ....    $$$$",
"#####+++++##            ...... .....   .... .....          $$$$$",
"####+++++++++++++      .......  ..      ...  ....         $$$$$#",
"++#+++$$+++++$$+++$$   ......                   ###$$   $$$$$###",
"+++++$$$$+++$$$$$+$$$   ....       $$$$$     $$################+",
"+$$++$$$$$$$$$$$$$$$$$$$$$$$$$####$$$$$@@$$$$$$$$$#############+",
"$$$$$$$$$$$$$$$$$$$$$@@@@$$$$######$$$@@@@$$$$$$$$$########$$+++",
"$$$$$###$$$$$####$$$@@@@@@##$#######@@@@@@$$$$$$#########$$$$$$$",
"$$$$#####$$$###@@@@@@@@@@@#######@@@@@@@@@###########$$$$$$$$$$$",
"$$#######$$$##@@@@@@@@@@@#######@@@@@@@@@@@########$$$$$$###$$$$",
"###########  #@@@@@@@@@@@@@ @##@@@@@ ##@@@@@#########$$$ ####$$$",
"##########  @@@@@@@@@@@@@@@  @@@@@@  ####@@@@@#######$$  #######",
"#### ####   @######@@@@@@@@@   @@@   ########### ###$$$ ########",
"#### ####  #######@@@@###@@@@       #####  ##### $$$$$  ########",
"#### ####  #####  @@@@ ####@@       #####   ###   $$$   ##### ##",
"###   ##   #####  @@@@ #####   %%%   ###  %             ####  ##",
"##          ###    @@   ###    %%%%       %%    %        ##   ##",
"#  %%%                        %%%%%%     %%%%%%%%%    %        #",
"  %%%%%%%       %%   %       %%%%%%%%%%%%%%%%%%%%%%%%%%%     %  "
};
