/* XPM */
static const char *test1[] = {
/* columns rows colors chars-per-pixel */
"64 64 9 1 ",
"  c #161C2E",
". c #AC7A58",
"X c #679175",
"o c #79A863",
"O c #9BB94E",
"+ c #BFBA5B",
"@ c #CEA554",
"# c #E9F044",
"$ c white",
/* pixels */
"OOOOO++++++++++ooooooooooooooo     ooooooooooooooooooooooooooooo",
"OOOOOO++++++OoooOOOooooooooooo       oooXXXXoooooooooooooooooOOO",
"OO+++++++++OOOOOOOOOOOOooooooo  #     oXXXXXXOOOOOOOOXXXXoooOOOO",
"+++++++++++OOOOOOOoooooooooooo  ####   XXXXXXXXXXXOOXXXXXXXoOOOO",
"++++++++++OOOOOOOOOOoooooooooo  ######  XXXXXXXXXXXXX+++XXXXOOO+",
"OOOOO+++++OOOOOOOOOOOOoooooo    #@@####  +XXXX++++XX+++++XXXX+++",
"OOOOOO+++++O++OOOOOOOOOOOOo     #@@@##@@  +XX+++++++++++++++++OO",
"OOOOOOOO+++++++OOOOOOOOOOOo      @@##@@@   X++++++++++++++++++OO",
"++OOOOOOO+++OOO+OOOOOOOOOO   $$$   #@@@@@  +++++++++++++++++++O+",
"+++OOOOOOOOOOOOOOOO          $$$$   @@     +++++++++++++++++++++",
"+++OOO++OOOOOOOOO             $$$$       O+++++OO++++OO+++++++++",
"+++OO+++++OOOOO      ######    $$$#    OOOO++OOOOOO+OOOO++++++++",
"++++++++++++++     ###$$$$###    ###   OOOO+OOOOOOOOOOOO++++++++",
"+++++++++OOOOO    ###$$$$$$$##@   ##   OOOO+OOOOOOOOOOOO+++++OOO",
"OOOOOOOOOOOOo    ####$$$$$$$###@       OOOOOOOOOOOOOOOOOOOOOOOOO",
"OOOOOOOOOOooo    ####$$$$$$$###@      OOOOOOOOOOOOOOOOOOOOOOOOOO",
"OOOOOOOOoooo   ######$$$..$$###@@    OOOOOOOoooOOOOOOOOOOOOOOOOO",
"OOOOOOOooo     ######$$...$$####@@@  +oooOOoooooOOOOOOOOOOOOOOOO",
"OOOOOo        ###     ...$$$####@@@   ooooooOOoooOOOOOOoooOOOOOO",
"OOOoo       ..@@       ...######@@@   OOoooOOOOoooOOOOoooooOOOoo",
"oOOO     ##@@.@    @@  ...######@@@   OOOOOOOOOOOOOOOooooooooooo",
"ooo   #####@@@@   @@@###...#####@@@@  ooOOOOOooooOOOOooooooooooo",
"OO   #$$$$###@@    @@##########@@@@@  oooOooooooooOOooooOOOooooo",
"O   ##$$$$###@@     @@#########@@@@@  oooooooooooooooooOOOOOOOOO",
"O  ##$$$$$#####        #######@@@@@.  oooooooooooooooooOOOOOOOOO",
"   ##$$$$$#..####       @@####@@@...  ++oooOOooOOOooooOOOOOOOOOO",
"   ##$$$###...##   #@   @@@@@@@@....  +++ooOOOOOOOOooooooooooOOO",
"  @########....   ##@@  @@..........  +++++OOOOOOOOooooooooooooo",
"  @@########...   ###   @@@........   +++++++OOOOOOooooo++++++++",
"  @@#########....       ##@@......   OOOO+++OOOOOOoo++++++++++++",
"  @@#########.......   ####@@....    OOOOOOOOOOOOOOOOOOOOOOOOOOO",
"  @@########........   ####@@...     OOooooooOOOOOOOOOOOOOOOOOOO",
"  @@@#######...############@@.....   ooooooooOOOOOOOOOOOOOOOOOO+",
"  @@@@######..#############@@......   ooo+++oOOOOOOOOOOOOOOOOO++",
"+  @@@@####################@@......   OO+++++OOOOOOOOOOOOO++++++",
"O  @@@@@##################@@@......   OO++++++OOOOOOOOOOOOOO++++",
"O   @@@@@@@##############@@@......    ++++++++OOOOOOOOOOOOOOOO+O",
"OO  @@@@@@@@@@#########@@@@@......   ++++ooo++++++OOOOOOOOOOOOOO",
"OO   @@@@@@@@@@@@@@@@@@@@@@......    oooooooo++++++++++oooOOOOOO",
"OOO   @@@@@@@@@@@@@@@@@@@@......    OOoooooooooooooooooooooooooO",
"oooo   .@@@@@@@@@@@@@@@@......      OOOooooooooooooooooooooooooo",
"ooooO    ..@@@@@@@@@@@......       OOOOOOOoooooooooooooooooooooo",
"OOOOOO       ...@@@....          OOOOOOOOOOoooOOOOooooooooooooOO",
"OOOOOOOO                     XXXOOOOOO+++OOooOOOOOOoOOOooOOOOOOO",
"OOOOOOOOOOOO            OOXXXXXXXOOOO+++++OooOOOOOOOOOOOOOOOOOOO",
"OOOOOOOOOOOOOOOXXX+++XXXXXXX++++XXOO++++++++ooOOOOOOOOOOOOO+++++",
"OOOOOXXXXXOOXXXXX++++++XXXX+++++++XO+++++++++OOOOOOOOO++++++++++",
"OOOOXXXXXXXXXXXXX++++++++X+++++++++++++++++++OOOOOO++++++++++++O",
"XXOXXX++XXXXX++XXX+++++++++++++++++++++++++++++OOOO++++++++++OOO",
"XXXXX++++XXX+++++X+++++++++++++++++++++++++++++OOOOOOOOOOOOOOOOX",
"X++XX+++++++++++++++++++++++++OOOO+++++oo+++++++++OOOOOOOOOOOOOX",
"+++++++++++++++++++++oooo++++OOOOOO+++oooo+++++++++OOOOOOOO++XXX",
"+++++OOO+++++OOOO+++ooooooOO+OOOOOOOoooooo++++++OOOOOOOOO+++++++",
"++++OOOOO+++OOOoooooooooooOOOOOOOoooooooooOOOOOOOOOOOOO+++++++++",
"++OOOOOOO+++OOoooooooooooOOOOOOOoooooooooooOOOOOOOOOOO+++OOO++++",
"OOOOOOOOOOO+OOoooooooooooooooOOooooooOOoooooOOOOOOOO++++OOOOO+++",
"OOOOOOOOOOOOooooooooooooooooooooooooOOOOOoooooOOOOOOOOOOOOOOOOOO",
"OOOOOOooooooooooOOOoooooooooooooooooOOOOOOOOOOOOOOOOOOOOOOOOOOOO",
"OOOOOOOOOooooooOOOOOooOOOoooooooOOooOOOOOOOOOOOOOOOOOOoooOOOOOOO",
"OOOOOOOOOOOOoooOOOOOoOOOOOOooooOOOOooOOOOOOOOOOOOOOOOoooooOOOOOO",
"OOOOOO++OOOOOOOOOOOOOOOOOOOOOOOOOOOOOOOOOOOOOOoooOOOooooooOOOOOO",
"OOOOO++++OOOO++++OOOOOOOOOOOOOOOOOOOOOOOOOOOOoooooooooooooOOOOOO",
"OOO++++++++++++++++OOOOOOOOooooOOOOOOOOOOOOOoooooooooooooooooOOO",
"oo++++++++++++++ooooOOoooooooooooOOooooOOOOooooooooooooooooooooo"
};
