/* XPM */
static char *coll[] = {
/* columns rows colors chars-per-pixel */
"64 64 9 1 ",
"  c #161C2E",
". c #AC7A58",
"X c #679175",
"o c #79A863",
"O c #9BB94E",
"+ c #BFBA5B",
"@ c #CEA554",
"# c #E9F044",
"$ c white",
/* pixels */
"OOOOO++++++++++ooooooooooooooooooooooooooooooooooooooooooooooooo",
"OOOOOO++++++OoooOOOoooooooooooooooooooooXXXXoooooooooooooooooOOO",
"OO+++++++++OOOOOOOOOOOOooooooooooooooooXXXXXXOOOOOOOOXXXXoooOOOO",
"+++++++++++OOOOOOOoooooooooooooooooXXXoXXXXXXXXXXXOOXXXXXXXoOOOO",
"++++++++++OOOOOOOOOOooooooooooooooXXXXXXXXXXXXXXXXXXX+++XXXXOOO+",
"OOOOO+++++OOOOOOOOOOOOoooooooooooXXXXX++++XXXX++++XX+++++XXXX+++",
"OOOOOO+++++O++OOOOOOOOOOOOoooooooXXX+++++++XX+++++++++++++++++OO",
"OOOOOOOO+++++++OOOOOOOOOOOoooooXXXX++++++++X++++++++++++++++++OO",
"++OOOOOOO+++OOO+OOOOOOOOOOO++++++X++++++++++++++++++++++++++++O+",
"+++OOOOOOOOOOOOOOOOOOOOOOO++OO++++++++++++++++++++++++++++++++++",
"+++OOO++OOOOOOOOOOOOOOOOOO+OOOO++++++++OOO+++++OO++++OO+++++++++",
"+++OO+++++OOOOOOOOOOOOOOOOOOOOOOOOO+++OOOOO++OOOOOO+OOOO++++++++",
"+++++++++++++++++++OOOOOOOOOOOOOOOOO++OOOOO+OOOOOOOOOOOO++++++++",
"+++++++++OOOOOOOOOOOOOOOOOOOOOOOOOOOOOOOOOO+OOOOOOOOOOOO+++++OOO",
"OOOOOOOOOOOOooooooOOOOOOOOOOOOOOOOOOOOOOOOOOOOOOOOOOOOOOOOOOOOOO",
"OOOOOOOOOOoooooooooOooooOOOOOO+++OOOOOOOOOOOOOOOOOOOOOOOOOOOOOOO",
"OOOOOOOOoooooooooooooooooOOO++++++OOOOOOO     oOOOOOOOOOOOOOOOOO",
"OOOOOOOoooooooooooooooooo+++++++++++++ooo       OOOOOOOOOOOOOOOO",
"OOOOOooooooOOOOOoooooooooooo+++++++++oooo  #     OOOOOOoooOOOOOO",
"OOOoooooooOOOOOOOoooOOOooooooo+++oooooOOo  ####   OOOOoooooOOOoo",
"oOOOOOOOOOOOOOOOOooOOOOOOOOOOOOOOOOOOOOOO  ######  OOooooooooooo",
"ooooOOOOOOOOOOOOOOOOOOOOOOOOOOOOOOOOOOo    #@@####  Oooooooooooo",
"OOOOOOOOOOOOOOOOOOOOOOOXXXXXXOOOXXXOoo     #@@@##@@  oooOOOooooo",
"OOOOOOOOXXXXXOOXXXOOO++++XXXXXOXXXXXoo      @@##@@@   oOOOOOOOOO",
"OOOOOOOXXXXXXXXXXXXO+++++++XXXXXX++XX   $$$   #@@@@@  oOOOOOOOOO",
"OOOOOXXX++++XXX++XX+++++++++XX          $$$$   @@     OOOOOOOOOO",
"OOXXXX++++++++++++++++++++++             $$$$       oooooooooOOO",
"+XX++++++++++++++++++++ooo      ######    $$$#    Oooooooooooooo",
"++++++++++ooo+++++++++ooo     ###$$$$###    ###   Oooooo++++++++",
"OOOOOO++ooooooo++oooooooo    ###$$$$$$$##@   ##   oo++++++++++++",
"OOOOOOOOOOOOoooooooooooo    ####$$$$$$$###@       OOOOOOOOOOOOOO",
"OOOOOOOOOOOOOOOOoooooooo    ####$$$$$$$###@      OOOOOOOOOOOOOOO",
"+++OOOOOOOOOOOOOOOOOooo   ######$$$..$$###@@    OOOOOOOOOOOOOOO+",
"++++OOOOOOOOOOOOooooo     ######$$...$$####@@@  OOOOOOOOOOOOOO++",
"+++++++OOOOoooooo        ###     ...$$$####@@@   OOOOOOOOO++++++",
"OOO+++++OOOOOOOO       ..@@       ...######@@@   OOOOOOOOOOO++++",
"OOOO+++++OOOOOO     ##@@.@    @@  ...######@@@   OOOOOOOOOOOOO+O",
"OOOOOOOOOOOOOO   #####@@@@   @@@###...#####@@@@  +OOOOOOOOOOOOOO",
"OOOOOOOOOOOOO   #$$$$###@@    @@##########@@@@@  ++++++oooOOOOOO",
"OOOOOOOOOOOO   ##$$$$###@@     @@#########@@@@@  ooooooooooooooO",
"ooooooooOOOO  ##$$$$$#####        #######@@@@@.  ooooooooooooooo",
"ooooOOOOOOO   ##$$$$$#..####       @@####@@@...  ooooooooooooooo",
"OOOOOOOOOOO   ##$$$###...##   #@   @@@@@@@@....  OooooooooooooOO",
"OOOOOOOOOOO  @########....   ##@@  @@..........  OOoOOOooOOOOOOO",
"OOOOOOOOOOO  @@########...   ###   @@@........   OOOOOOOOOOOOOOO",
"OOOOOOOOOOO  @@#########....       ##@@......   OOOOOOOOOOO+++++",
"OOOOOXXXXXO  @@#########.......   ####@@....    OOOOOO++++++++++",
"OOOOXXXXXXX  @@########........   ####@@...     OOO++++++++++++O",
"XXOXXX++XXX  @@@#######...############@@.....   OOO++++++++++OOO",
"XXXXX++++XX  @@@@######..#############@@......   OOOOOOOOOOOOOOX",
"X++XX+++++++  @@@@####################@@......   +OOOOOOOOOOOOOX",
"++++++++++++  @@@@@##################@@@......   ++OOOOOOOO++XXX",
"+++++OOO++++   @@@@@@@##############@@@......    OOOOOOOO+++++++",
"++++OOOOO+++O  @@@@@@@@@@#########@@@@@......   OOOOOOO+++++++++",
"++OOOOOOO+++O   @@@@@@@@@@@@@@@@@@@@@@......    OOOOOO+++OOO++++",
"OOOOOOOOOOO+OO   @@@@@@@@@@@@@@@@@@@@......    OOOOO++++OOOOO+++",
"OOOOOOOOOOOOooo   .@@@@@@@@@@@@@@@@......      OOOOOOOOOOOOOOOOO",
"OOOOOOoooooooooo    ..@@@@@@@@@@@......       OOOOOOOOOOOOOOOOOO",
"OOOOOOOOOooooooOO       ...@@@....          OOOOOOOOOOoooOOOOOOO",
"OOOOOOOOOOOOoooOOOO                     OOOOOOOOOOOOOoooooOOOOOO",
"OOOOOO++OOOOOOOOOOOOOOO            OOOOOOOOOOOoooOOOooooooOOOOOO",
"OOOOO++++OOOO++++OOOOOOOOOOOOOOOOOOOOOOOOOOOOoooooooooooooOOOOOO",
"OOO++++++++++++++++OOOOOOOOooooOOOOOOOOOOOOOoooooooooooooooooOOO",
"oo++++++++++++++ooooOOoooooooooooOOooooOOOOooooooooooooooooooooo"
};
