/* XPM */
static char *down[] = {
/* columns rows colors chars-per-pixel */
"64 64 217 2 ",
"   c #0E1427",
".  c #0F162B",
"X  c #10172B",
"o  c #151B2E",
"O  c #191D2F",
"+  c #171E30",
"@  c #1C1F31",
"#  c #201D2F",
"$  c #201F32",
"%  c #1D2232",
"&  c #222334",
"*  c #2B2333",
"=  c #252936",
"-  c #2B2A37",
";  c #2C253A",
":  c #252B3A",
">  c #2D2D39",
",  c #352736",
"<  c #32273D",
"1  c #322D39",
"2  c #3C2B3A",
"3  c #2E303A",
"4  c #33323B",
"5  c #3A343C",
"6  c #3B3A3E",
"7  c #462D3A",
"8  c #44343D",
"9  c #4D343E",
"0  c #52313D",
"q  c #5A343F",
"w  c #352940",
"e  c #3C2B43",
"r  c #412D45",
"t  c #462F49",
"y  c #423D42",
"u  c #4C324C",
"i  c #593943",
"p  c #52344E",
"a  c #59364C",
"s  c #553550",
"d  c #593752",
"f  c #5E3854",
"g  c #633947",
"h  c #723C44",
"j  c #683D55",
"k  c #653B59",
"l  c #6B3E5C",
"z  c #703E59",
"x  c #3D424A",
"c  c #464546",
"v  c #4A4445",
"b  c #4E4549",
"n  c #4D4D4C",
"m  c #544145",
"M  c #544C4A",
"N  c #5A4D4C",
"B  c #55514C",
"V  c #5B534D",
"C  c #484B54",
"Z  c #575752",
"A  c #5C5452",
"S  c #5A5B55",
"D  c #6A494A",
"F  c #764048",
"G  c #72514F",
"H  c #7E4252",
"J  c #74405B",
"K  c #7B435A",
"L  c #635552",
"P  c #645B51",
"I  c #6A5D55",
"U  c #6E5E58",
"Y  c #795552",
"T  c #696358",
"R  c #69665C",
"E  c #74635A",
"W  c #7A665D",
"Q  c #766959",
"!  c #7C6D5C",
"~  c #7F705D",
"^  c #585C68",
"/  c #5D616D",
"(  c #71706A",
")  c #88464A",
"_  c #974A4E",
"`  c #894856",
"'  c #824559",
"]  c #8C4859",
"[  c #994C57",
"{  c #944B58",
"}  c #805B55",
"|  c #955658",
" . c #A14E54",
".. c #AA4F51",
"X. c #A65256",
"o. c #AB5254",
"O. c #A75956",
"+. c #B55555",
"@. c #B95655",
"#. c #B65857",
"$. c #B65B58",
"%. c #B95D59",
"&. c #8E685C",
"*. c #A46A5F",
"=. c #BA635C",
"-. c #BD695F",
";. c #846D62",
":. c #8B7465",
">. c #8E7B64",
",. c #927C65",
"<. c #95796A",
"1. c #9A7E6C",
"2. c #90757A",
"3. c #B66C61",
"4. c #BD6D62",
"5. c #AA7163",
"6. c #B77567",
"7. c #BD7C6A",
"8. c #C16E62",
"9. c #C17466",
"0. c #C17768",
"q. c #C37C6A",
"w. c #679175",
"e. c #79A863",
"r. c #9BB94E",
"t. c #BFBA5B",
"y. c #988568",
"u. c #9B846A",
"i. c #8B8772",
"p. c #948A76",
"a. c #9B957B",
"s. c #A2856F",
"d. c #A38B6E",
"f. c #B38169",
"g. c #A7916F",
"h. c #A38670",
"j. c #A78B71",
"k. c #AA9476",
"l. c #B29475",
"z. c #B59A75",
"x. c #B89F77",
"c. c #BB9D79",
"v. c #BEA27A",
"b. c #C5836E",
"n. c #CA8670",
"m. c #C78A72",
"M. c #CB9473",
"N. c #CE9D79",
"B. c #C3A67B",
"V. c #CFA27A",
"C. c #C6A97C",
"Z. c #CAAB7E",
"A. c #D1A77C",
"S. c #797B82",
"D. c #95938E",
"F. c #A9A382",
"G. c #B7A789",
"H. c #BFB58E",
"J. c #B4B09B",
"K. c #ABAAA8",
"L. c #BCBBB9",
"P. c #C3AA83",
"I. c #CCAE81",
"U. c #D3AF80",
"Y. c #CFB181",
"T. c #C9B98D",
"R. c #D5B583",
"E. c #D7B886",
"W. c #DAB985",
"Q. c #D7B788",
"!. c #D9BC89",
"~. c #C3B890",
"^. c #C9BF95",
"/. c #DCC28E",
"(. c #DEC592",
"). c #D2C79A",
"_. c #D9C798",
"`. c #D4CB9E",
"'. c #E1C68F",
"]. c #E0CA95",
"[. c #E3CE9A",
"{. c #E6D39E",
"}. c #E9D39C",
"|. c #C9C3A8",
" X c #D4C6AE",
".X c #DBD3A7",
"XX c #CBC6B3",
"oX c #DAD2BA",
"OX c #E7D5A1",
"+X c #E6D9A3",
"@X c #EBDBA4",
"#X c #ECDEA8",
"$X c #EBE3A8",
"%X c #EEE1AA",
"&X c #F1E3AC",
"*X c #F0E9AE",
"=X c #EEE2B6",
"-X c #F1E5B4",
";X c #F4E9B4",
":X c #F4E8BB",
">X c #BBBDC4",
",X c #DAD6C4",
"<X c #D4D6D9",
"1X c #EEE5C8",
"2X c #F5EBC2",
"3X c #F6F2CE",
"4X c #F0E5D3",
"5X c #F5EDD2",
"6X c #F6EDD7",
"7X c #F8F1D3",
"8X c #F9F3DB",
"9X c #EDEBE4",
"0X c #FAF5E2",
"qX c #FCF9EB",
"wX c #FAF6F0",
"eX c #FDFBF5",
"rX c #FFFEFC",
/* pixels */
"r.r.r.r.r.t.t.t.t.t.t.t.t.t.t.e.e.e.e.e.e.e.e.O o O o o + O o o o o e.e.e.e.e.e.e.e.e.e.e.e.e.e.e.e.e.e.e.e.e.e.e.e.e.e.e.e.e.e.",
"r.r.r.r.r.r.t.t.t.t.t.t.r.e.e.e.r.r.r.e.@ o , $ 0 ) ) ) ) g 1 1 1 = o o e.e.e.e.w.w.w.w.e.e.e.e.e.e.e.e.e.e.e.e.e.e.e.e.e.r.r.r.",
"r.r.t.t.t.t.t.t.t.t.t.r.r.r.r.r.r.r.r.o o 7  ...+.@.@.@.@.4.-.6.7.*.5 o o o e.w.w.w.w.w.w.r.r.r.r.r.r.r.r.w.w.w.w.e.e.e.r.r.r.r.",
"t.t.t.t.t.t.t.t.t.t.t.r.r.r.r.r.r.r.o $ g +.@.+.@.=.%.@.-.0.7.b.4.=...0 o o o w.w.w.w.w.w.w.w.w.w.w.r.r.w.R.!.R.w.w.w.e.r.r.r.r.",
"t.t.t.t.t.t.t.t.t.t.r.r.r.r.r.r.r.o @ g @.@.@.#.%.4.q.b.b.9.4.q.b.4.4.4.G O % o w.w.w.w.w.w.w.w.w.w.w.w.w.R.!.c.T w.w.w.r.r.r.t.",
"r.r.r.r.r.t.t.t.t.t.r.r.r.r.r.r.o O w z ..@.) _ q.q.b.b.b.7.@.0.b.b.m.b.7.G D o t.t.w.w.w.w.t.t.t.t.w.w.t.R.4XG.o w.w.w.w.t.t.t.",
"r.r.r.r.r.r.t.t.t.t.t.r.t.t.r.r.O O j [ X...* + } n.b.b.b.b.0.%.q.b.b.b.b.m.Y o t.t.t.w.w.t.t.t.t.t.t.t.R.!.wX<X= o t.t.t.t.r.r.",
"r.r.r.r.r.r.r.r.t.t.t.t.t.t.t.r.o @ l @.+.i o + 5 5.b.b.b.b.b.@.@.b.b.b.b.m.G o t.t.t.w.t.t.t.t.t.t.t.t.R.1XrXeXp.X t.t.t.t.r.r.",
"t.t.r.r.r.r.r.r.r.t.t.t.r.r.r.t.o t z o.@.i $ + X Y n.b.b.b.b.o.$.b.b.b.b.*.- o t.t.t.t.t.t.t.t.t.t.t.b I.9XrXqX.XS . t.t.t.r.t.",
"t.t.t.r.r.r.r.r.r.r.r.r.r.r.r.r.o p l z  .o.z w o Y n.b.b.b.b.y O.b.b.b.-.q o o t.t.t.t.t.t.t.t.t.t.t.  D.rXrXqX*X( o t.t.t.t.t.",
"t.t.t.r.r.r.t.t.r.r.r.r.r.r.r.r.o ; k l [ { l d o h q.n.b.b.b.5 i b.b.b.*.@ o O r.r.t.t.t.t.t.r.r.t.x.c D.rXeX_.[.{.c o t.t.t.t.",
"t.t.t.r.r.t.t.t.t.t.r.r.r.r.r.r.o o e l z K l d o h 0.b.b.b.4.7 3 b.b.4.[ O o r.r.r.r.t.t.r.r.r.r.r.I.R._.qXwXR.Z.'.n X t.t.t.t.",
"t.t.t.t.t.t.t.t.t.t.t.t.t.t.t.t.t.o % s l l k r . h 8.7.b.b.| ) 8 b.9.#.2 O r.r.r.r.r.t.r.r.r.r.r.r.6 k.4X3X5XT.W.A.c X t.t.t.t.",
"t.t.t.t.t.t.t.t.t.r.r.r.r.r.r.r.r.o o @ < < ; @ o - _ 9.b.m.m 2 &.b.3.g O o r.r.r.r.r.t.r.r.r.r.r.r.o : L.3X+X/.R.W.c X t.r.r.r.",
"r.r.r.r.r.r.r.r.r.r.r.r.e.e.e.e.e.e.o o o o o o o o i 4.b.6.d e 7.q.D X O r.r.r.r.r.r.r.r.r.r.r.r.r.o > J.:X$XW.I.W.c o r.r.r.r.",
"r.r.r.r.r.r.r.r.r.r.e.e.e.e.e.e.e.e.e.r.e.o o o o o @ | | ) e e 6.&.O X o o r.r.r.r.r.r.r.r.r.r.r.r.o S *X*XOXW.R.W.c o r.r.r.r.",
"r.r.r.r.r.r.r.r.e.e.e.e.e.e.e.e.e.e.e.e.e.o & % y ! 6 j l i < r j ! ;.Q > o + r.r.r.r.r.e.e.e.r.r.r.o S *X$X/.R.R.R.c X r.r.r.r.",
"r.r.r.r.r.r.r.e.e.e.e.e.e.e.e.e.e.e.e.e.o O T >.I.[. X X2.A C W 2._.}.W.! @ o + e.r.r.e.e.e.e.e.r.r.. S *X$Xz.Y.R.E.v . r.r.r.r.",
"r.r.r.r.r.e.e.e.e.e.e.r.r.r.r.r.e.e.o o O % o = P L.eXrXrX0X0X0X0X8X0XD.4 5 y @ o o e.e.r.r.e.e.e.r.. S *X$XB C.E.u.& o r.r.r.r.",
"r.r.r.e.e.e.e.e.e.e.r.r.r.r.r.r.r.e.o = I u.T v X A p.p.L.4X4X4X6XeX4X,XP.v.h.N @ o e.r.r.r.r.e.e.e.. S *X$Xn C.W.T   o r.r.e.e.",
"e.r.r.r.r.r.r.r.r.r.r.r.r.r.r.r.r.o o b 1.B.W.Z.u.k.F.F.H.{.)._.@X=X(.R.U.l.h.U 1 o o r.r.r.r.r.r.r.X S *X$Xx P W.P X o e.e.e.e.",
"e.e.e.e.r.r.r.r.r.r.r.r.r.r.r.r.r.o - :.l.R.R.R.R.}.;X3XoXi.n XX3X&XOXW.R.C.l.u.;.& o r.r.e.e.e.e.r.X S *X).S 8 W.R o + e.e.e.e.",
"r.r.r.r.r.r.r.r.r.r.r.r.r.r.r.r.o + y <.s.z.A.W.(.=X0XrX>X  o <XrX8X#X].R.R.R.I.u.4 @ o e.e.e.e.e.e.X Z $X~.Q c W.P X o e.e.e.e.",
"r.r.r.r.r.r.r.r.w.w.w.w.w.r.r.w.o & ;.s.C.R.R.!.#X2X3X3XJ.O % XX7X2X#X#X[.(.R.Q.v.;.@ o e.e.e.e.e.e.o b ].S X y W.T X + r.r.r.r.",
"r.r.r.r.r.r.r.w.w.w.w.w.w.w.w.o + I 1.R.R.R.R.(.{.#X&X2XJ.o o |.2X#X#X[.].Q.!.(.R.u.L + o e.e.e.e.e.  b W.N X 6 B.P o o r.r.r.r.",
"r.r.r.r.r.w.w.w.t.t.t.t.w.w.w.o o U c.I.R.R.Q.#X#X=X;X9X^ o o / 1X;X-X&X&X].!.'.Q.c.U @ o e.+ @ - =   M W.N X 4 1.m X o o r.r.r.",
"r.r.w.w.w.w.t.t.t.t.t.t.t.t.o o < Z <.s.C.R.].&X:XqXrX<X% o o : 9XqX8X;X&XOXR.R.R.C.<.b o o o i 6.O.0 M !.B X 4 1.b o o O O O o ",
"t.w.w.t.t.t.t.t.t.t.t.t.t.t.o o S 5.c.I.C.z.~.^. X<X<X/ % o o % / |.).^.^.~.z.C.R.j.b = o o + 8 9 7 , v v.v X - ;.y o e g F , o ",
"t.t.t.t.t.t.t.t.t.t.e.e.e.t.o o L u.U.W.;.+ @ % & % % o % o o o o % = % & @ O ,.W.l.W 1 o X 8 7.) q q @ & O O O @ + o & r < o o ",
"o o 3 = o r.t.t.e.e.e.e.e.e.o X L u.Y.R.C.T v + o O o o o o o o o o o X + n Q Z.l.<.1.N X o 1 5.0.=.+._ _ [ j a d d d a ; ; $ o ",
"o o Q u.4 % r.r.r.r.r.r.e.e.o o L 1.U.R.R.{.+Xa.R % = o o o O o + = = S.K.1X{.R.c.l.d.v o o o , q _ ..o.o.o.] k k k k k k p & o ",
"o o & ! v.d.6 X r.r.r.r.r.r.+ o y W c.P.R.{.&X;X1XoX).3 o o o o x ).).=X:X-X(.R.c.j.N v = o r.o o $ * * * ; * $ $ @ $ $ @ @ o r.",
"o O O o V C.v.B o O r.r.r.r.o + o N <.k.R.{.#X&X1X5X=XC o + + + ^ 8X0X8X=X&X[.R.Q.Z.1.U & o r.r.o o > I U :.u.y.:.v o o o r.r.t.",
"X 0 ) 0 + 6 g.A.! & + . r.r.o O 4 ;.s.R.W.(.{.OX%X2X8XXX% o + % ,X8X8X2X%X#X(.R.R.C.1.M . O r.r.O % ;.1.l.R.R.W.W.Z.c . r.r.t.t.",
"o 0 @.@._ h 9 ,.z.y.Q - % . + + - ;.s.Q.[.!.[.@X&X%X#X.Xx o o c OX$X$X%X&XOXR.R.R.C.W = o r.r.r.o + y <.l.Y.!.R.W.C.8 o t.t.t.t.",
"X 0 @.+.@.@...Y V 1.j.z.y.R % % o y <.C.R.Q.@X#X&X%X=XwX>Xo % XX8X2X&X#X#X'.R.R.R.x.y o o t.r.r.+ o @ L <.j.l.d.Q y O + t.t.t.t.",
"o 0 +.+.+.+.+.$.7.M.y.d.d.g.v.v.Q n R S 4 ! !.$X%X&X:X5X1XD.K.6XqX7X&X&X{.Q.W.z.b > o o t.t.r.r.r.o o % > - > & o o + r.r.r.t.r.",
"X 9 @.+.+.#.%.@.N.C.y.B & 3 R T k.`.$XF.X + B.@X#X&X2XwXeXrX0X=X%X%X$X$X!.R.u.4 . o o e.t.t.t.t.t.t.r.o ; t & o o r.r.r.r.r.r.r.",
"X 0 @.$.$.4.4.=.B./.R.Z.B.z.V 6 % 6 Y.y.o o ;.!.&X&X&X-X-X-X=X&X%X&X&X}.R.Q $ o ; < o o e.t.t.t.t.t.t.o < p r @ o e.r.r.r.r.r.r.",
"X 0 @.+.+.%.4.4./.{.{./.R.R.W.B.c % ).u.o + + c i.).#X&X#X&X&X$X-X@Xi.b v + & e k f & o e.e.e.e.e.e.e.O o o o o e.e.e.e.e.e.e.r.",
"o 0 @.@.@.+.=.0.Q.$X#X].!.R.R.W.T % !.y.o o < o o & ( a.#X&X-X+Xa.R + X + t k l l l u X @ e.e.e.e.e.e.e.o o + e.e.e.e.e.e.e.e.e.",
"o 9 =.+.+.+.@.9.m.].'._.(.R.R.W.Q % C.y.o o d u ; @ . o R ~.H.S X X $ ; s l z K l l s @ o o e.e.e.e.e.e.e.e.e.e.e.e.e.e.e.e.e.e.",
". V A.M.=.@.+.=.9.(._.OX#X!.R.R.g.6 B.u.o + d J k s t @ o % + X $ r a l z [ +.+.[ z l e o o r.r.r.r.e.e.e.e.e.e.e.e.e.e.e.e.r.r.",
"X V W.Z.A.N.b.4.-.W.!.W.!.R.R.Q.l.B C.u.o + s J ' z l d ; o o - d l z ' X.#.+.+.+. .l u @ + r.r.r.r.r.e.r.r.r.e.e.r.r.r.r.r.r.r.",
"+ Z W.W.A.'.;X{.N.A.Y.R.R.R.R.R.l.u.R.y.o + H K +.X.K l f t u k z K o.+.+.+.+.@.+.+.' k ; o r.r.r.r.r.r.r.r.r.r.r.r.r.r.r.r.r.r.",
"+ e v.Z.!.].{.$XOX4.8.m.A.R.R.W.<.;.R.y.o o H j ` @.+.X.' l l ' o.#.@.+.+.@.+.+.+.o.z t o + r.r.r.r.r.r.r.r.r.r.r.r.r.t.t.t.t.t.",
"o   ! W.Z./.[.$X$Xq.9.-.-.q.V.U.P I R.u.o o H ` K +.+.@.+.[ [ +.#.@.+.+.+.+.+.+.X.K p $ o + o r.r.r.r.r.r.r.t.t.t.t.t.t.t.t.t.t.",
"r.o M Z.Z./.Z./.].q.b.0.%.9.@.4.N % l.u.o + f J ` X.@.@.@.@.@.@.+.+.+.+.+.@.+.+.{ e + o + o + o r.r.r.t.t.t.t.t.t.t.t.t.t.t.t.r.",
"w.w.o ~ Z.W.E.W.Z.6.-.9.=.@.+.@.0 @ <.>.X + d l ] X.+.+.@.@.@.@.+.#.@.+.@.@.] z 7 + O o O o o o r.r.r.t.t.t.t.t.t.t.t.t.t.r.r.r.",
"w.w.o % T Z.A.W.Z.A.+.$.+.+.@.@.i % :.I X + d l l l ' ] { +.o.+.+.+.o.{ ` H p % o o o o o + o O r.r.r.r.r.r.r.r.r.r.r.r.r.r.r.w.",
"w.t.t.+ + v z.W.W.A.8.@.@.@.@...i E I & + O $ u u p u u p a a a a a a s t & % o o o t.t.o O + o t.o r.r.r.r.r.r.r.r.r.r.r.r.r.w.",
"t.t.t.t.t.  3 y.A./.M.@.+.@.) , A M @ o + O o o o o o o o o o o o o o o o O o o e.e.t.t.t.o o o + t.t.r.r.r.r.r.r.r.r.t.t.w.w.w.",
"t.t.t.t.t.r.o % ! Z.M.+.+.h # 3 5 o o t.e.e.o O o o o o o + o O o + o o o e.e.e.e.e.t.t.t.o O o r.r.r.r.r.r.r.r.r.t.t.t.t.t.t.t.",
"t.t.t.t.r.r.r.+ o B f.o.q 5 V o o e.e.e.e.e.e.e.o + + o O r.r.r.r.e.e.e.e.e.e.e.e.e.r.r.r.r.r.r.r.r.r.r.r.r.r.t.t.t.t.t.t.t.t.t.",
"t.t.r.r.r.r.r.r.r.o , 7 o Q v O e.e.e.e.e.e.e.e.+ o o o O r.r.r.e.e.e.e.e.e.e.e.e.e.e.r.r.r.r.r.r.r.r.r.r.r.t.t.t.r.r.r.t.t.t.t.",
"r.r.r.r.r.r.r.r.r.r.o o o - o e.e.e.e.e.e.e.e.e.o + o + o r.r.e.e.e.e.e.e.r.r.e.e.e.e.e.r.r.r.r.r.r.r.r.t.t.t.t.r.r.r.r.r.t.t.t.",
"r.r.r.r.r.r.r.r.r.r.r.o o e.e.e.e.e.e.e.e.e.e.e.e.@ o + + e.e.e.e.e.e.e.r.r.r.r.r.e.e.e.e.e.r.r.r.r.r.r.r.r.r.r.r.r.r.r.r.r.r.r.",
"r.r.r.r.r.r.e.e.e.e.e.e.e.e.e.e.r.r.r.e.e.e.e.e.e.o o o o + e.e.e.e.e.e.r.r.r.r.r.r.r.r.r.r.r.r.r.r.r.r.r.r.r.r.r.r.r.r.r.r.r.r.",
"r.r.r.r.r.r.r.r.r.e.e.e.e.e.e.r.r.r.r.r.e.e.r.o o o + o o e.e.e.r.r.e.e.r.r.r.r.r.r.r.r.r.r.r.r.r.r.r.r.r.r.e.e.e.r.r.r.r.r.r.r.",
"r.r.r.r.r.r.r.r.r.r.r.r.e.e.e.r.r.r.r.r.e.r.r.r.r.r.r.e.e.e.e.r.r.r.r.e.e.r.r.r.r.r.r.r.r.r.r.r.r.r.r.r.r.e.e.e.e.e.r.r.r.r.r.r.",
"r.r.r.r.r.r.t.t.r.r.r.r.r.r.r.r.r.r.r.r.r.r.r.r.r.r.r.r.r.r.r.r.r.r.r.r.r.r.r.r.r.r.r.r.r.r.e.e.e.r.r.r.e.e.e.e.e.e.r.r.r.r.r.r.",
"r.r.r.r.r.t.t.t.t.r.r.r.r.t.t.t.t.r.r.r.r.r.r.r.r.r.r.r.r.r.r.r.r.r.r.r.r.r.r.r.r.r.r.r.r.e.e.e.e.e.e.e.e.e.e.e.e.e.r.r.r.r.r.r.",
"r.r.r.t.t.t.t.t.t.t.t.t.t.t.t.t.t.t.t.r.r.r.r.r.r.r.r.e.e.e.e.r.r.r.r.r.r.r.r.r.r.r.r.r.e.e.e.e.e.e.e.e.e.e.e.e.e.e.e.e.e.r.r.r.",
"e.e.t.t.t.t.t.t.t.t.t.t.t.t.t.t.e.e.e.e.r.r.e.e.e.e.e.e.e.e.e.e.e.r.r.e.e.e.e.r.r.r.r.e.e.e.e.e.e.e.e.e.e.e.e.e.e.e.e.e.e.e.e.e."
};
