/* XPM */
static char *exit_active[] = {
/* columns rows colors chars-per-pixel */
"64 64 214 2 ",
"   c #161C2E",
".  c #181E2F",
"X  c #181F30",
"o  c #1F252F",
"O  c #1D2535",
"+  c #1F2838",
"@  c #272934",
"#  c #232D3B",
"$  c #312D35",
"%  c #25303D",
"&  c #2D333E",
"*  c #393837",
"=  c #443B3B",
"-  c #3B4338",
";  c #4C4639",
":  c #51463D",
">  c #4A5133",
",  c #5A5938",
"<  c #646738",
"1  c #6C7237",
"2  c #79743E",
"3  c #273442",
"4  c #2A3541",
"5  c #2C3A44",
"6  c #2D3D4A",
"7  c #323C44",
"8  c #313F49",
"9  c #2E414E",
"0  c #33434B",
"q  c #3A454B",
"w  c #39484E",
"e  c #2E4450",
"r  c #344953",
"t  c #354A55",
"y  c #3A4D53",
"u  c #3D5156",
"i  c #3B545C",
"p  c #3D585F",
"a  c #3D5A63",
"s  c #474947",
"d  c #544642",
"f  c #5D4B43",
"g  c #5A5548",
"h  c #444F52",
"j  c #425254",
"k  c #4D5853",
"l  c #41565A",
"z  c #445A5D",
"x  c #4B5C5D",
"c  c #555B57",
"v  c #634E44",
"b  c #695343",
"n  c #675946",
"m  c #735849",
"M  c #576152",
"N  c #786449",
"B  c #646958",
"V  c #736D51",
"C  c #687256",
"Z  c #445C61",
"A  c #485F62",
"S  c #466165",
"D  c #4B6364",
"F  c #4F6867",
"G  c #44646B",
"H  c #4B666A",
"J  c #4C696C",
"K  c #576A66",
"L  c #516C6B",
"P  c #56726E",
"I  c #4C6C72",
"U  c #526E72",
"Y  c #4C7076",
"T  c #4E757A",
"R  c #547374",
"E  c #52767B",
"W  c #54797B",
"Q  c #5A7D7C",
"!  c #6D6860",
"~  c #697769",
"^  c #737966",
"/  c #687A73",
"(  c #8A684C",
")  c #936D4E",
"_  c #887248",
"`  c #95774C",
"'  c #8A6951",
"]  c #867756",
"[  c #987554",
"{  c #A27854",
"}  c #A47B55",
"|  c #AB7D55",
" . c #827D65",
".. c #7E8439",
"X. c #5B807D",
"o. c #758770",
"O. c #679175",
"+. c #79A863",
"@. c #828839",
"#. c #A4AA3D",
"$. c #AFB53E",
"%. c #8F9246",
"&. c #968858",
"*. c #A79A48",
"=. c #AE8255",
"-. c #A4845B",
";. c #AC835A",
":. c #B38455",
">. c #B68A59",
",. c #A59458",
"<. c #B39750",
"1. c #95A148",
"2. c #9BB94E",
"3. c #B3A747",
"4. c #B6AC4E",
"5. c #ACA657",
"6. c #BFBA5B",
"7. c #998964",
"8. c #8F926E",
"9. c #A69565",
"0. c #B69260",
"q. c #A99B71",
"w. c #93A977",
"e. c #B5B070",
"r. c #D5BB4F",
"t. c #CDA554",
"y. c #D1AE52",
"u. c #CEBA53",
"i. c #C29864",
"p. c #D3AE6A",
"a. c #B7C76C",
"s. c #D6C54E",
"d. c #D6DD42",
"f. c #DFD34A",
"g. c #D3CE50",
"h. c #E2D64B",
"j. c #E2DC48",
"k. c #E1DD5F",
"l. c #DAE141",
"z. c #E7EA45",
"x. c #EBF245",
"c. c #EBF24B",
"v. c #EBE65D",
"b. c #ECF258",
"n. c #D6D06E",
"m. c #CCC279",
"M. c #E4DA6C",
"N. c #ECEC6E",
"B. c #F2F775",
"V. c #547D82",
"C. c #5B7E85",
"Z. c #5B8383",
"A. c #588487",
"S. c #5A8589",
"D. c #5D8B8C",
"F. c #5C8E91",
"G. c #5E9194",
"H. c #628687",
"J. c #628D8D",
"K. c #788C86",
"L. c #6A918D",
"P. c #789587",
"I. c #638D91",
"U. c #639394",
"Y. c #6A9494",
"T. c #679897",
"R. c #6A9599",
"E. c #669C9C",
"W. c #6A9C9C",
"Q. c #759B95",
"!. c #729D9C",
"~. c #6BA19F",
"^. c #76A49D",
"/. c #709FA1",
"(. c #6CA3A3",
"). c #73A4A5",
"_. c #79A8A5",
"`. c #74AAAB",
"'. c #7AACAC",
"]. c #7BAFB1",
"[. c #7BB1B2",
"{. c #7FB7B8",
"}. c #83988B",
"|. c #8A9E97",
" X c #81A699",
".X c #91AB90",
"XX c #99B89D",
"oX c #83ADA6",
"OX c #88B3A9",
"+X c #94BBAB",
"@X c #98BCA9",
"#X c #81B3B4",
"$X c #89BAB7",
"%X c #84BBBC",
"&X c #94BEB4",
"*X c #A5C59B",
"=X c #93C0B7",
"-X c #94C3BD",
";X c #9BC5B9",
":X c #99C4BA",
">X c #A6C9B5",
",X c #D6D08C",
"<X c #EFF086",
"1X c #F6F995",
"2X c #F3F4AE",
"3X c #87BFC1",
"4X c #89BFC0",
"5X c #8CC3C4",
"6X c #8EC6C8",
"7X c #91C5C3",
"8X c #9BC9C2",
"9X c #A1CBC0",
"0X c #F8FAC7",
"qX c white",
/* pixels */
"2.2.2.2.2.6.6.6.6.6.6.6.6.6.6.+.+.+.+.+.+.+.+.+.+.+.+.+.+.+.+.+.+.+.+.+.+.+.+.+.+.+.+.+.+.+.+.+.+.+.+.+.+.+.+.+.+.+.+.+.+.+.+.+.",
"2.2.2.2.2.2.6.6.6.6.6.6.2.+.+.+.2.2.2.+.+.+.+.+.+.+.+.+.+.+.+.+.+.+.+.+.+.+.+.+.O.O.O.O.+.+.+.+.+.+.+.+.+.+.+.+.+.+.+.+.+.2.2.2.",
"2.2.6.6.6.6.6.6.6.6.6.2.2.2.2.2.2.2.2.2.2.2.2.+.+.+.+.+.+.+.+.+.+.+.+.+.+.+.+.O.O.O.O.O.O.2.2.2.2.2.2.2.2.O.O.O.O.+.+.+.2.2.2.2.",
"6.6.6.6.6.6.6.6.6.6.6.2.2.2.2.2.2.2.+.+.+.+.+.+.+.+.+.+.+.+.+.+.+.+.+.O.O.O.+.O.O.O.O.O.O.O.O.O.O.O.2.2.O.O.O.O.O.O.O.+.2.2.2.2.",
"6.6.6.6.6.6.6.6.6.6.2.2.2.2.2.2.2.2.2.2.+.+.+.+.+.+.+.+.+.+.+.+.+.+.O.O.O.O.O.O.O.O.O.O.O.O.O.O.O.O.O.O.O.6.6.6.O.O.O.O.2.2.2.6.",
"2.2.2.2.2.6.6.6.6.6.2.2.2.2.2.2.2.2.2.2.2.2.+.+.+.+.+.+.+.+.+.+.+.O.O.O.O.O.6.6.6.6.O.O.O.O.6.6.6.6.O.O.6.6.6.6.6.O.O.O.O.6.6.6.",
"2.2.2.2.2.2.6.6.6.6.6.2.6.6.2.2.2.2.2.2.2.2.2.2.2.2.+.+.+.+.+.+.+.O.O.O.6.6.6.6.6.6.6.O.O.6.6.6.6.6.6.6.6.6.6.6.6.6.6.6.6.6.2.2.",
"2.2.2.2.2.2.2.2.6.6.6.6.6.6.6.2.2.2.2.2.2.2.2.2.2.2.+.+.+.+.+.O.O.O.O.6.6.6.6.6.6.6.6.O.6.6.6.6.6.6.6.6.6.6.6.6.6.6.6.6.6.6.2.2.",
"6.6.2.2.2.2.2.2.2.6.6.6.2.2.2.6.2.2.2.2.2.2.2.2.2.2.2.6.6.6.6.6.6.O.6.6.6.6.6.6.6.6.6.6.6.6.6.6.6.6.6.6.6.6.6.6.6.6.6.6.6.6.2.6.",
"6.6.6.2.2.2.2.2.2.2.2.2.2.2.2.2.2.2.2.2.2.2.2.2.2.2.6.6.2.2.6.6.6.6.6.6.6.6.6.6.6.6.6.6.6.6.6.6.6.6.6.6.6.6.6.6.6.6.6.6.6.6.6.6.",
"6.6.6.2.2.2.6.6.2.2.2.2.2.2.2.2.2.2.2.2.2.2.2.2.2.2.6.2.2.2.2.6.6.6.6.6.6.6.6.2.2.2.6.6.6.6.6.2.2.6.6.6.6.2.2.6.6.6.6.6.6.6.6.6.",
"6.6.6.2.2.6.6.6.6.6.2.2.2.2.2.2.2.2.2.2.2.2.2.2.2.2.2.2.2.2.2.2.2.2.2.6.6.6.2.2.2.2.2.6.6.2.2.2.2.2.2.6.2.2.2.2.6.6.6.6.6.6.6.6.",
"6.6.6.6.6.6.6.6.6.6.6.6.6.6.6.6.6.6.6.2.2.2.2.2.2.2.2.2.2.2.2.2.2.2.2.2.6.6.2.2.2.2.2.6.2.2.2.2.2.2.2.2.2.2.2.2.6.6.6.6.6.6.6.6.",
"6.6.6.6.6.6.6.6.6.2.2.2.2.2.2.2.2.2.2.2.2.2.2.2.2.2.2.2.2.2.2.2.2.2.2.2.2.2.2.2.2.2.2.6.2.2.2.2.2.2.2.2.2.2.2.2.6.6.6.6.6.2.2.2.",
"2.2.2.2.2.2.2.2.2.2.2.2.+.+.+.+.+.+.2.2.2.2.2.2.2.2.2.2.2.2.2.2.2.2.2.2.2.2.2.2.2.2.2.2.2.2.2.2.2.2.2.2.2.2.2.2.2.2.2.2.2.2.2.2.",
"2.2.2.2.2.2.2.2.2.2.+.+.+.+.+.+.+.+.+.2.+.+.+.+.2.2.2.2.2.2.6.6.6.2.2.2.2.2.2.2.2.2.2.2.2.2.2.2.2.2.2.2.2.2.2.2.2.2.2.2.2.2.2.2.",
"2.2.2.2.2.2.2.2.+.+.+.+.+.+.+.+.+.+.+.+.+.+.+.+.+.2.2.2.6.6.6.6.6.6.2.2.2.2.2.2.2.2.2.2.+.+.+.2.2.2.2.2.2.2.2.2.2.2.2.2.2.2.2.2.",
"2.2.2.2.2.2.2.+.+.+.+.+.+.+.+.+.+.+.+.+.+.+.+.+.+.6.6.6.6.6.6.6.6.6.6.6.6.6.+.+.+.2.2.+.+.+.+.+.2.2.2.2.2.2.2.2.2.2.2.2.2.2.2.2.",
"2.2.2.2.2.+.+.+.+.+.+.2.2.2.2.2.+.+.+.+.+.+.+.+.+.+.+.+.6.6.6.6.6.6.6.6.6.+.+.+.+.+.+.+.2.2.+.+.+.2.2.2.2.2.2.+.+.+.2.2.2.2.2.2.",
"2.2.2.+.+.+.+.+.+.+.2.2.2.2.2.2.2.+.+.+.2.2.2.+.+.+.+.+.+.+.6.6.6.+.+.+.+.+.2.2.+.+.+.2.2.2.2.+.+.+.2.2.2.2.+.+.+.+.+.2.2.2.+.+.",
"+.2.2.2.2.2.2.2.2.2.2.2.2.2.2.2.2.+.+.2.2.2.2.2.2.2.2.2.2.2.2.2.2.2.2.2.2.2.2.2.2.2.2.2.2.2.2.2.2.2.2.2.2.+.+.+.+.+.+.+.+.+.+.+.",
"+.+.+.+.2.2.2.2.2.2.2.2.2.2.2.2.2.2.2.2.2.2.2.2.2.2.2.+ O # r S z u % + + 2.+.+.2.2.2.2.2.+.+.+.+.2.2.2.2.+.+.+.+.+.+.+.+.+.+.+.",
"2.2.2.2.2.2.2.2.2.2.2.2.2.2.2.2.2.2.2.2.2.2.O I i i F.U.D.W S.E.E.U.D.Y J K ,.o.6 2.+.+.+.+.+.+.+.+.2.2.+.+.+.+.2.2.2.+.+.+.+.+.",
"2.2.2.2.2.2.2.2.O.O.O.O.O.2.2.O.O.O.2.2.+ i I.%XC.~.[.`.(.E.U.E.E.E.(.T.T.Y.o.oX).T 9 +.+.+.+.+.+.+.+.+.+.+.+.2.2.2.2.2.2.2.2.2.",
"2.2.2.2.2.2.2.O.O.O.O.O.O.O.O.O.O.O.O.  t U.{.%XW.}.).].'.(.H.).[.{.%X(.].W.D.(.5X`.W &   +.+.+.+.+.+.+.+.+.+.2.2.2.2.2.2.2.2.2.",
"2.2.2.2.2.O.O.O.6.6.6.6.O.O.O.6.+ t t + D D.].;XXX,Xw.{.[.(.D.T.#X4X4X4X).u I.%X-X~.Q w # a 6 2.2.2.+.+.+.+.2.2.2.2.2.2.2.2.2.2.",
"2.2.O.O.O.O.6.6.6.6.6.6.6.6.6 3 t T.R 5 z U T.oX.Xq.B U.E.E.T.E./.`.W.!.J.A !.'._.D.D y 6 D.S.3 9 2.2.+.+.+.+.+.+.+.+.+.+.2.2.2.",
"6.O.O.6.6.6.6.6.6.6.6.6.6.6.G F.I }.9.c Y R T.E.Q D L ).`.(.`.`.R.U.R.%X].~ ,.w.R.I.H A z U.D.J G.9 2.+.+.+.+.+.+.+.+.+.+.+.+.+.",
"6.6.6.6.6.6.6.6.6.6.+.+.+.# G U.D w.n.C U.5X%XE.Z u D J.#X%X#XQ.x H `.`.S.N n.2XXX%X4XY.J E.R L U.0 # +.+.+.+.+.6.6.6.6.6.6.6.6.",
"2.2.2.2.2.2.6.6.+.+.+.+.5 D l D 0 k ; u X.$X;X=XR.3 z J.(.`.[.+X XR E.E.D.g e.M..X%X`.R y l y h D x l # 6.6.6.6.6.6.6.6.6.6.6.6.",
"2.2.2.2.2.2.2.2.2.2.2.O u D y h 8.V % H U.~.'.W.I 0 J J.E.E.E.E.U.A U.E.G.u s B E.(.~.Z.l 4 8 y y u D 6 O 2.2.2.2.2.2.2.2.2.2.2.",
"2.2.2.2.2.2.2.2.2.O 0 j 7 y ). X,X,.s C H.F.V.).#X[.(.C.Z.G.E.E.Z.u V.(.).R.#X_.D.A.F.Y Z p V.[.%XW 5 q y 4 2.2.2.2.2.2.2.2.2.2.",
"6.6.6.2.2.2.2.2.2.y L l 4 R %X_.w.B q.m.&.s i U.%X6X8X$XOXI H Q J % z ).%X>X;XOXZ.y 5 r V.(.%X6X7X).y % x D 0 2.2.2.2.2.2.2.2.6.",
"6.6.6.6.2.2.2.2.q x D 5 A W ).%X=Xa.1X1X,.s J Q W._.+X>X>X~ t R H W S.H./ W.~.E.A.F ! ^ }.$X5X[.`.T.L y 6 x j 2.2.2.2.2.2.2.6.6.",
"6.6.6.6.6.6.6.  # 0 # # D R T.W.Q.w.4.4.N 0 J Z.U.E.E.~.T.y I ].%X7X8XOXD D.E.P.X.h 3.k.,X X(.(.~.G.L l O &.C O 2.2.6.6.6.6.6.6.",
"2.2.2.6.6.6.u.% l q # u I Z.T A.T.E.z M w 0 J T.E.E.E.E.G.t z J.(.).).U.t F.H <.e.d r.B.B...E.G.E V.C.z w V ~ r O 2.2.2.6.6.6.6.",
"2.2.2.2.6.6.# w K x q U '.3X).Y U.`.E l # 5 Y S.T.E.E.I.o.&.^ U.T.(.(.V.Z ).H.8.w.z n *.5.o.(.A.C.[.5XY.x 5 D F 5 2.2.2.2.2.6.2.",
"2.2.2.2.2.2.l ! e.&.c J.-X5X5X5X5X5X%XR 5 H %X[.W.(.W.D.B p.o.F D ).%XOX&X%X{.(.%X).e h !.3X6X3X6X6X7X[.E 8 D F j 0 2.2.2.2.2.2.",
"2.2.2.2.2.2.F ] N.<.x W.{.{.-X8X;X7X^.Q 0 l H.#X-X;X:X&X#X'.H.z 0 Q (.).).E.E.E.U.R 0 l H.oX8X9X;X;X=X].T.u 5 0 y F 2.2.2.2.2.2.",
"2.2.2.2.2.5 j - n g G W.E.(.`.=X=X^.P F 0 i L J.).@X@X@XOX~.G.F 0 R D.E.E.E.W.R.Q L 8 z L C.#X@X@X^.P.W.E.i # # s y +.+.+.+.+.2.",
"+.+.+.+.+.5 q 4 Z S.Y U.~.G.~.G.(.G.P D 5 * x A.T.W.W.W.Q.D.K V N k R I.D.T.F.J.I c 7 w K Q E.E.D.B ,X.XA.T Z.r 4 q # +.+.+.+.+.",
"+.+.+.+.  6 4 6 L C.!.%X{.`.).~.E.E.H 3 @ [ -.&.^ V q.q.9.g 0.p.i.] N -.[ 7.k ] [ ;.N O 0 Z.L.8. ., m.w.`.G.E C &.M # +.+.+.+.+.",
"2.2.2.2.O & 9 x F F / |.#X3X3X`.D.X.F z & N ;.| v b :.>.} = [ :.-.n f 0.| ) = ' 0.-.d r D D ] k.2X8.P.^.U.L S n ,Xg # +.+.+.2.2.",
"2.2.2.2.# y J.'.L.w.m.r.C D.!.!.H l F x 5 ( :.| m m >.:.=.; } :.>.N b >.:.| = ) :.| : w F l n p.N.d.P L F L / Y.oXA 8 . 2.2.2.2.",
"2.2.2.2.8 Z.].6XoXn.1Xv.@.h e.C i Z R 8 O v ( _ = = %.*.2 * m _ 3., ; 3.@.b * 2 ) ( * # p J x 7.7.o.- a J.^.5X6X5XW.J # 2.2.2.2.",
"2.2.2.  a U.(.[.X.1.g.<., c u.B U.-X XL r o @ @ @ X * @.@.#.@.....@.#.@.1 o @ @ O @ @ Z / &X;X-X%X'.0 U #X;X>X$X'.E.Z.5 6.6.6.6.",
"2.2.2.O G ~.~.T.G.E.P.P 6 H X.U.$XOXY.R z = m f ' d 2 x.c.B.1X1XB.B.B.x.l.> f f f m 7 H C.!.OX&X).I.y Z U.~.W.~.E.E.E.e 6.6.6.6.",
"2.2.2.  a ~.(.(.~.E.T.8.v a E.W.E.E.W.D.S $ ( ( :._ < z.b.0XqXqX2XB.x.x.$.: ,.( { m 6 U U.E.E.E.W.K.c 8 S E.E.E.(.(.I.5   6.6.2.",
"O.O.2.& Y E.-X[.`.[.'.,X5.% G.E.E.E.E.Z.A $ ) { :.*., d.b.2X0X0X0X2Xc.x.#.1 r.{ } b 0 ^ K.E.E.E.o.r.m.K.Y.`.`.`.%X{.J.Z O 2.2.2.",
"O.O.  y D.E.`.-X-X-X-X*XB r D.(.`.(.C.A 5 X ( { { u.< d.x.x.x.<X2X<Xz.x.1 @.s.;.| = = n.e.U.(.E.h <.u.P.5X-X-X:X%X(.E.W 4 2.2.O.",
"O.6.O D G.~.~.).Y.Q.oX~.E `.5X5X5X5X#X).D.e b [ &.s.< $.x.x.z.x.x.c.x.x.< @.p.[ :.* u 8.*X%X5X5XL.K.L.A.`.'.L.).~.~.E.V.w   2.O.",
"6.6.4 6 9 I V.E.E.E.E.D.!.>X7X6X5X5X5X4XW.9 = | i.u.@.#.z.f.f.f.z.f.z.z.1 *.>.} ) # G `.5X5X-X5X6X;X;XH.G.E.T.E.~.Y G 5 0 O.O.O.",
"6.6.6.6.6.2.2.G.~.E.A.r P XX&X+X^.T.Y.T.Z.D 5 ) i.t.2 #.j.f.f.y.t.r.z.l.> 3.>.:.b 0 J D.R.E.T.OX=X;XP.x a T.G.(.Y 6.6.6.6.6.6.6.",
"6.6.6.6.2.2.2.2.2.T r O u D.(.E.(.F.T.V.I A h ` :.=.n #.h.j.r.t.y.r.s.s.* ` | | : y y E S.E.E.E.~.E.E 5 O a 2.6.6.6.6.6.6.6.6.6.",
"6.6.2.2.2.2.2.2.2.6.6.6.2.G A.T.(.(.S.# + +.5 f | { m $.x.j.y.t.t.t.r.3.; ( { { * # +.# e S.E.E.S.V.9 . 2.2.6.6.6.2.2.2.6.6.6.6.",
"2.2.2.2.2.2.2.2.2.2.2.6.2.2.+.+.+.+.+.+.+.+.+.$ v m _ , 4.2.2.+.+.+.+.N $ : b m $ +.+.+.2.2.2.2.2.2.2.2.u.6.6.6.2.2.2.2.2.6.6.6.",
"2.2.2.2.2.2.2.2.2.2.2.2.+.+.+.+.+.+.+.+.+.+.+.+.+.+.+.+.+.+.+.+.+.+.+.+.2.2.2.2.2.+.+.+.+.+.2.2.2.2.2.2.2.2.2.2.2.2.2.2.2.2.2.2.",
"2.2.2.2.2.2.+.+.+.+.+.+.+.+.+.+.2.2.2.+.+.+.+.+.+.+.+.+.+.+.+.+.+.+.+.+.2.2.2.2.2.2.2.2.2.2.2.2.2.2.2.2.2.2.2.2.2.2.2.2.2.2.2.2.",
"2.2.2.2.2.2.2.2.2.+.+.+.+.+.+.2.2.2.2.2.+.+.2.2.2.+.+.+.+.+.+.+.2.2.+.+.2.2.2.2.2.2.2.2.2.2.2.2.2.2.2.2.2.2.+.+.+.2.2.2.2.2.2.2.",
"2.2.2.2.2.2.2.2.2.2.2.2.+.+.+.2.2.2.2.2.+.2.2.2.2.2.2.+.+.+.+.2.2.2.2.+.+.2.2.2.2.2.2.2.2.2.2.2.2.2.2.2.2.+.+.+.+.+.2.2.2.2.2.2.",
"2.2.2.2.2.2.6.6.2.2.2.2.2.2.2.2.2.2.2.2.2.2.2.2.2.2.2.2.2.2.2.2.2.2.2.2.2.2.2.2.2.2.2.2.2.2.+.+.+.2.2.2.+.+.+.+.+.+.2.2.2.2.2.2.",
"2.2.2.2.2.6.6.6.6.2.2.2.2.6.6.6.6.2.2.2.2.2.2.2.2.2.2.2.2.2.2.2.2.2.2.2.2.2.2.2.2.2.2.2.2.+.+.+.+.+.+.+.+.+.+.+.+.+.2.2.2.2.2.2.",
"2.2.2.6.6.6.6.6.6.6.6.6.6.6.6.6.6.6.6.2.2.2.2.2.2.2.2.+.+.+.+.2.2.2.2.2.2.2.2.2.2.2.2.2.+.+.+.+.+.+.+.+.+.+.+.+.+.+.+.+.+.2.2.2.",
"+.+.6.6.6.6.6.6.6.6.6.6.6.6.6.6.+.+.+.+.2.2.+.+.+.+.+.+.+.+.+.+.+.2.2.+.+.+.+.2.2.2.2.+.+.+.+.+.+.+.+.+.+.+.+.+.+.+.+.+.+.+.+.+."
};
