/* XPM */
static const char *gold[] = {
/* columns rows colors chars-per-pixel */
"64 64 224 2 ",
"   c #121629",
".  c #161C2E",
"X  c #1A1E2F",
"o  c #171E30",
"O  c #181F30",
"+  c #1D202F",
"@  c #1C2333",
"#  c #1F2837",
"$  c #1F2A3A",
"%  c #242532",
"&  c #222937",
"*  c #2A2B37",
"=  c #232D3B",
"-  c #322F38",
";  c #2D3334",
":  c #26313E",
">  c #2A333E",
",  c #36363A",
"<  c #3B343A",
"1  c #443A3B",
"2  c #4C3F3B",
"3  c #4C403C",
"4  c #57483E",
"5  c #5D533F",
"6  c #6C723F",
"7  c #253442",
"8  c #2A3641",
"9  c #2D3B45",
"0  c #2E3E49",
"q  c #333C44",
"w  c #353F47",
"e  c #4D3F41",
"r  c #2D414E",
"t  c #34444C",
"y  c #39454A",
"u  c #3A454A",
"i  c #354853",
"p  c #354A53",
"a  c #3C4D52",
"s  c #3E5257",
"d  c #36505C",
"f  c #3D545B",
"g  c #3F5761",
"h  c #3D5B64",
"j  c #494847",
"k  c #524542",
"l  c #5D4A43",
"z  c #47534A",
"x  c #5A5849",
"c  c #454F52",
"v  c #465556",
"b  c #41565B",
"n  c #445A5D",
"m  c #525856",
"M  c #644E44",
"N  c #665144",
"B  c #685949",
"V  c #745946",
"C  c #775B48",
"Z  c #7B5D4A",
"A  c #695E50",
"S  c #6A6448",
"D  c #7B6649",
"F  c #716857",
"G  c #727155",
"H  c #445C63",
"J  c #475F64",
"K  c #5A5F60",
"L  c #4B6465",
"P  c #496567",
"I  c #45646C",
"U  c #49656A",
"Y  c #4D696B",
"T  c #576764",
"R  c #516C6B",
"E  c #58736E",
"W  c #486872",
"Q  c #4D6E74",
"!  c #516E73",
"~  c #4E7478",
"^  c #4D747A",
"/  c #537372",
"(  c #577776",
")  c #53747A",
"_  c #567B7C",
"`  c #5A7C7C",
"'  c #6B6E62",
"]  c #726E64",
"[  c #677667",
"{  c #797861",
"}  c #647D7B",
"|  c #83634B",
" . c #89664E",
".. c #8B694D",
"X. c #936D4E",
"o. c #83744B",
"O. c #98774B",
"+. c #896852",
"@. c #946D51",
"#. c #8B7355",
"$. c #9C7352",
"%. c #967A58",
"&. c #A17653",
"*. c #A57953",
"=. c #AB7D55",
"-. c #A67E58",
";. c #7E823D",
":. c #7B8558",
">. c #5A807F",
",. c #7D8868",
"<. c #71887A",
"1. c #679175",
"2. c #79A863",
"3. c #ABB23D",
"4. c #9B8657",
"5. c #959551",
"6. c #A8904C",
"7. c #AD8256",
"8. c #A8875B",
"9. c #B48356",
"0. c #B78A5A",
"q. c #B48A5C",
"w. c #A6995A",
"e. c #B8955A",
"r. c #99A54E",
"t. c #9BB94E",
"y. c #AEA851",
"u. c #BFBA5B",
"i. c #9B8865",
"p. c #91896C",
"a. c #859A67",
"s. c #969A76",
"d. c #AD9361",
"f. c #BB9662",
"g. c #8BA96B",
"h. c #97AA76",
"j. c #B3A572",
"k. c #CBB054",
"l. c #C39A64",
"z. c #C5A66B",
"x. c #D7AF6D",
"c. c #C7B86A",
"v. c #BDC242",
"b. c #B7C866",
"n. c #D4C653",
"m. c #D9D056",
"M. c #DFE444",
"N. c #E8E94E",
"B. c #CACE70",
"V. c #EBEB72",
"C. c #537D81",
"Z. c #5C7E85",
"A. c #5C8484",
"S. c #5A8588",
"D. c #5D8A8B",
"F. c #5C8E90",
"G. c #5F9293",
"H. c #648687",
"J. c #628C8C",
"K. c #768C83",
"L. c #61908F",
"P. c #75968C",
"I. c #648E92",
"U. c #688F90",
"Y. c #629494",
"T. c #6D9593",
"R. c #6C9996",
"E. c #649798",
"W. c #6A9599",
"Q. c #659C9C",
"!. c #6A9C9C",
"~. c #739892",
"^. c #719C9D",
"/. c #7AA58C",
"(. c #6CA09E",
"). c #74A39D",
"_. c #679FA0",
"`. c #6CA2A2",
"'. c #74A4A3",
"]. c #75A7A7",
"[. c #7CABA3",
"{. c #73AAAA",
"}. c #7AABAC",
"|. c #7CAFB1",
" X c #7CB2B3",
".X c #849B8F",
"XX c #87A99B",
"oX c #94AC91",
"OX c #A4A688",
"+X c #B4B992",
"@X c #82ADA3",
"#X c #82AAA8",
"$X c #8AB5A9",
"%X c #94BBAB",
"&X c #9BBEAA",
"*X c #81B4B5",
"=X c #8AB8B4",
"-X c #81B7B8",
";X c #85BBBC",
":X c #89BDBE",
">X c #92BDB5",
",X c #A7BDA2",
"<X c #C3B88E",
"1X c #BDCE99",
"2X c #8CC1BF",
"3X c #97C3B9",
"4X c #A6CBA3",
"5X c #A9CBB7",
"6X c #A4CBBC",
"7X c #AED1BE",
"8X c #B1D2BD",
"9X c #DDD88D",
"0X c #E5DB8D",
"qX c #E9E389",
"wX c #EDEF8A",
"eX c #D4DAA0",
"rX c #F6F7B3",
"tX c #86BDC0",
"yX c #89BFC0",
"uX c #8CC3C4",
"iX c #8FC7C8",
"pX c #92C6C3",
"aX c #96C9C5",
"sX c #A5CDC0",
/* pixels */
"t.t.t.t.t.u.u.u.u.u.u.u.u.u.u.2.2.2.2.2.2.2.2.2.2.2.2.2.2.2.2.2.2.2.2.2.2.2.2.2.2.2.2.2.2.2.2.2.2.2.2.2.2.2.2.2.2.2.2.2.2.2.2.2.",
"t.t.t.t.t.t.u.u.u.u.u.u.t.2.2.2.t.t.t.2.2.2.2.2.2.2.2.2.2.2.2.2.2.2.2.2.2.2.2.2.1.1.1.1.2.2.2.2.2.2.2.2.2.2.2.2.2.2.2.2.2.t.t.t.",
"t.t.u.u.u.u.u.u.u.u.u.t.t.t.t.t.t.t.t.t.t.t.t.2.2.2.2.2.2.2.2.2.2.. @ = = @ 2.1.1.1.1.1.1.t.t.t.t.t.t.t.t.1.1.1.1.2.2.2.t.t.t.t.",
"u.u.u.u.u.u.u.u.u.u.u.t.t.t.t.t.t.t.2.2.2.2.2.2.2.2.2.2.2.2.: = @ 9 U / L s : @ @ 1.1.1.1.1.1.1.1.1.t.t.1.1.1.1.1.1.1.2.t.t.t.t.",
"u.u.u.u.u.u.u.u.u.u.t.t.t.t.t.t.t.t.t.t.2.2.2.2.2.2.. H r d D.Y.S._ Y.Q.E.E.A.Y Q G w.b   1.1.1.1.1.1.1.1.u.u.u.1.1.1.1.t.t.t.u.",
"t.t.t.t.t.u.u.u.u.u.t.t.t.t.t.t.t.t.t.t.t.t.2.2.2.$ I |.I `.-X X`.Y.J.Q.Q.Q.Q.A.E.,.+X'.H $ u.u.u.u.1.1.u.u.u.u.u.1.1.1.1.u.u.u.",
"t.t.t.t.t.t.u.u.u.u.u.t.u.u.t.t.t.t.t.t.t.t.t.t.= C.-X:XE.{.`.Q.Q.`.E.Q.Q.`.{.Q.`.( ( :X XC.= u.u.u.u.u.u.u.u.u.u.u.u.u.u.u.t.t.",
"t.t.t.t.t.t.t.t.u.u.u.u.u.u.u.t.t.t.t.t.t.t.. @ f Y.-X-XR.K.}. X}.R.J.}. XuX X{. X!.Q.-X-XY.f @ . u.u.u.u.u.u.u.u.u.u.u.u.u.t.t.",
"u.u.t.t.t.t.t.t.t.u.u.u.t.t.t.u.t.t.t.t.t.$ 7 @ L Y. X:XoXz.%XuX-XE.A.*XuXuXuXuXJ.f Q.:X XY.L @ 7 $ u.u.u.u.u.u.u.u.u.u.u.u.t.u.",
"u.u.u.t.t.t.t.t.t.t.t.t.t.t.t.t.t.t.t.  7 D.~ : L A.[.5X1XqX,.E.Q.Q.Y.J.}.uX*X|.g ` ;X6X[.A.L : ~ D.7   u.u.u.u.u.u.u.u.u.u.u.u.",
"u.u.u.t.t.t.u.u.t.t.t.t.t.t.t.t.t.t.9 r i Q.R 9 b R Y.'./.{ L !.Q.Q.Q.Q.Q.Q.A.'.Q ` !.`.E.R s 9 Y Q.i r 9 t.t.u.u.u.u.u.u.u.u.u.",
"u.u.u.t.t.u.u.u.u.u.t.t.t.t.t.t.t.t.I Y.Y K.%.c U Y Y.Q.A.L ` }.`.`.{.{.'.E.'.uXT.{ i.P.Y.U i a _ E.Y Y.I t.t.t.u.u.u.u.u.u.u.u.",
"u.u.u.u.u.u.u.u.u.u.u.u.u.u.u.u.u.. h E.Y OX0X:.E.*X{.J.Y L Y '. X*X'.Z.H `  X X} 6.V.+X{.*X}./ D.Y.R E.h . t.t.u.u.u.u.u.u.u.u.",
"u.u.u.u.u.u.u.u.u.t.t.t.t.t.t.t.. 9 f J.b a.c.m Y.uXuXW.a 0 L !.:XuX-XXXv S.{.Q.b e.rXeX=XuX}.R D.C.b J.n 9 . t.u.u.u.u.u.t.t.t.",
"t.t.t.t.t.t.t.t.t.t.t.t.2.2.2.2.: L n n u c , a ` >XaXuXW.= Y Y.`.{.*X&XP.A.Q.Q.Y O.m.b.*X-XH.b t a u n n L : t.t.t.t.t.t.t.t.t.",
"t.t.t.t.t.t.t.t.t.t.2.2.2.2.2.. t R a u B x > L Y.'.$X`.I 8 R Y.Q.Q.Q.Q.A./ Q.Q.S.> S <.{.`.Y.L > u u w a R t . t.t.t.t.t.t.t.t.",
"t.t.t.t.t.t.t.t.2.2.2.2.2.2.. = a b H } <Xw.w R Y.Q.Q.Y.) ) / A.E.Q.Q.Q._ H E.Q.W H W ~ Q.Q.E./ a 8 I Z.H b a = . t.t.t.t.t.t.t.",
"t.t.t.t.t.t.t.2.2.2.2.2.2.@ t J 9 0  X@X9Xj.j ] H.D.~  XiXuX'.( ` Y.Q.E.Y f J.{.|.:XpX}.~ F._ J L ~ *XiX].9 q J t t.t.t.t.t.t.t.",
"t.t.t.t.t.2.2.2.2.2.2.t.t.t L L > L :X'.a.x 4.c.#.w s !.uXuXuX:X^.n _ A.H 9 J.;XaX6X5X@Xb 7 = d D. XuXuX-XH & b L t t.t.t.t.t.t.",
"t.t.t.2.2.2.2.2.2.2.t.t.t.v R i t R }.uX:Xh.rXwXe.c Y D.{.3X5X8X5XL a L t 7 H ( XX@X(.Y./ b L H.:XuXuXyX}./ t t R v 2.t.t.t.2.2.",
"2.t.t.t.t.t.t.t.t.t.t.t.8 n n 7 L ( Q.{.3XB.V.0X4.u R ` E.(.@X&XXXb ! A.I. X XJ./ E.Q.E.R ' 4.i.XX:X X`.Q.( L : a b 8 2.2.2.2.2.",
"2.2.2.2.t.t.t.t.t.t.t.t.@ 8 > @ L / Y.Q.E.g.v.k.D i R A.Y.Q.Q.Q.S.t U.uXuXaX6XT.U E.R.K.H 6 M.qXoXQ.`.Q.E./ L & o.:.@ 2.2.2.2.2.",
"t.t.t.t.t.t.t.t.t.t.t.@ 0 u @ 8 a R S.E.Q.E.z S t t / E.Q.Q.Q.Q.S.9 Y E.{.$X[.) Y E.[ j.m 6.V.rXB.L.Q.E.D.R i 9 o.s.0 O 2.2.2.2.",
"t.t.t.t.t.t.t.t.1.1.1.= L n 9 L J.{.Q f D.Q.I L i 0 Y Q.Q.Q.Q.E.A.c / E.Q.Q.Q.I n ) S V.x o.k.N.3.) D.f Q {.J.L q v L = t.t.t.t.",
"t.t.t.t.t.t.t.1.1.1.= t T T t L }.uX:XZ.I.}.( a @ 9 ) C.E.Q.Q.A.p.d.} E.E.`.E.H H.*XE h.>.u D y.[ '.I.Z.:XuX}.L 0 L Y t @ t.t.t.",
"t.t.t.t.t.1.1.1.u.u.a m w.8.m _ *XuXuXuXuXuX-X/ 9 ) uX}.J.E.Q.C.o.9X[ Y A.:X:X=XpXuX X XuX) 9 } -XuXuXuXuXuX*X( t n R v t t.t.t.",
"t.t.1.1.1.1.u.u.u.u.L F 9Xn.' E.yXuXuXuXuXuX:XH.9 L '.uX;X X{.W.H.h.T t b R.*X%X$X`.Q.`.^.L 9 H.:XuXuXuXpXaXuXQ.s a L a n t.t.t.",
"u.1.1.u.u.u.u.u.u.u.J x m.k.c E.`. X:X6X8X6XH./ t b ( }.3X8X8X8X2X{.J.i s D.Q.Q.Q.Q.Q.E./ b t / H.6X7X8X5X%X[.Q.Y = 8 u L 2.2.2.",
"u.u.u.u.u.u.u.u.u.@ a u 4 5 f Q.Q.Q.{.%X&X)./ R t n R Y.'.&X&X&X@XQ.L.b b ` Y.Q.Q.Q.Q.D./ n t R / ).&X&X$XR.E._.W @ & u a @ u.u.",
"t.t.t.t.t.t.u.u.2.= u t t ~ I G.Q.Q.Q.Q.Q.Y.R R 9 0 / D.E.Q.Q.Q.Q.E.Y x c L G.Q.Q.Q.Q.E./ b 0 R R Y.Q.Q.` w..XG.I ) t w u = u.u.",
"t.t.t.t.t.t.t.t.t.: u = n Y.S.Y.`.Q.Q.Q.Q.E./ s & 4 m ( Y.P.R.~.<.K D 0.%.j [ R ( J.I L j A & s / E.Q.Y.z 9X1XJ.S.Y.n * u = t.t.",
"t.t.t.t.t.t.t.t.. : w : L / !.uX:X X{.Q.Q.Q.L @ - 9.0.f.F #.f.z.8.B x.x.x.B 8.9.7.#.N e.e.e.< @ L R.p.i.l y.r.|.^./ ' w.F = . t.",
"u.u.u.t.t.t.t.t.. 8 > t R Y ( #XyXuXuX}.E.D.Y b > | q.%.k D q.l.+.k q.q.%.3 #.f.-.B k q.q.D > b L ' k.V.s.E #X'./ L B B.{ > . u.",
"u.u.u.u.t.t.t.t.. = s H.E T i.8.<.'. X`./ L R R t | *.*.4 | *.9...3 =.&.&.3 ..7.=.Z 4 =.*.Z t R L j c.rXwXoXA.R Y Y n s.z = . u.",
"u.u.u.u.u.u.u.t.@ s J.uX}.oX0XM.;.W K.~.U s R b > X.9.-.N ..0.9.X.l 9.=.9.4 X.9.=...l 9.9.X.> b L u e.m.M.G L R R H.}.tXA.s O u.",
"t.t.t.u.u.u.u.u.= / '.uX-Xb.rXV.y.w j.{ d i L = @ V $.| 1 l *.X.N < X.$.$.< C *.Z l 1 @.*.V @ = H t S 4.:.q t ( ^.:XuXuX'./ = u.",
"t.t.t.t.u.u.u.. 8 ` `.:XW.r.N.x.4.x V.D J }.}./ 9 X % @ . X % % X . % % % . @ % @ X . % % X 9 ! }.*X X=X Xb H -XaXsXaX-X`.` 8 . ",
"t.t.t.t.t.t.t.t.t J.Q.`.Y.( y.6.< a 5.T :X6XP.R s - < < e % . . . . . . . . . . . % 1 < < - s R .X8X7XuX*XH b !.$X%X#X`.Q.L.t t.",
"t.t.t.t.t.t.t.. i E.Q.Q.Q.Q.R.( i L A.E.$X@XE./ s e C N +.k . . . . . . . . . . . k l M Z k f / E.[.%X].L.H b D.Q.Q.Q.Q.Q.E.i . ",
"t.t.t.t.t.t.t.. 0 E.`.Q.Q.Q.Q.K.j n Q.Q.Q.Q.Q.A.b -  . .$.B X . . . . . . . . . . M Z +.@.< b S.Q.Q.Q.Q.!.H > H E.Q.Q.Q.`.E.0 . ",
"2.2.2.2.2.2.2.. t D.*X{.Q.Q.J.OXw.q D.Q.Q.Q.Q.D.L q $.=.9.| % . . . . . . . . . @ ..*.*.$.q L J.Q.Q.Q.T.i.w.T d J.Q.Q.{.*XJ.t X ",
"2.2.2.2.t.t.t.= Y E.-XyX X-X=XeXc.; S.Q.Q.Q.Q.A.n - $.$.*.X.% . . . . . . . . . % $.0.&.@.- F p.R.Q.Q.} k.qXOX*X-X-X XtX-XE.Y = ",
"t.t.t.t.t.t.. 8 _ Q.`.2XaXpXuX4XG 8 _ Q.`.Q._ H : X  .*.-.$.% . . . . . . . . . % -.f.7. .+ w.9X<.Q.`.n 6.m.a.yXuXpXaXuX`.Q._ > ",
"t.t.t.t.t.t.. t A.Q.Q.[.XXXX3X}.~ H.-X:XyX:X^.) h = | X.8.*.% . . . . . . . . . % 7.8.q.| @ o.B.XX;XuXZ.x ,./ }.3XXXXX[.Q.Q.A.t ",
"t.t.t.t.t.t.. i _ Q.Q.Q.Y.J.(.Q.A.*XuXuXuXuXuXuX{.f M *.f.7.< . . . . . . . . . - 9.%.7.M d ` [.uXuXuXuX X XS.Q.(.J.Y.Q.Q.E._ i ",
"t.t.t.t.t.t.# 9 $ h ~ E.Q.Q.Q.Y.~.6XuXuXuXuXuXuXW.7 3 -.z.0.2 . . . . . . . . . 1 0.-.=.3 7 !.uXuXuXuXuXuX6X~.Y.Q.Q.Q.E.~ h $ 9 ",
"t.t.t.t.t.1.1.1.1.O @ ~ Q.Q.Y.H E ,X5X6X@X^.^.Y./ n , *.l.9.2 . . . . . . . . . 2 9.7.&., n ( Y.^.!.@X6X5X,XE H Y.Q.Q.~ @ O u.u.",
"t.t.t.t.1.1.1.1.1.1.1.1.Y.Y.C.7 n J.'.).!.Y.Y.E.D.Y u *.0.=.2 . . . . . . . . . 2 9.9.$.u L A.E.Y.Y.!.'.'.J.n 7 C.Y.Y.u.u.u.u.t.",
"1.1.t.1.1.1.u.u.1.1.1.1.1.u.= . t S.Q.Q.Q.Q.Q.Q U b v X.9.*.2 . . . u.. . . . . 2 *.=.Z t 9 h ~ Q.Q.Q.Q.Q.S.t . $ u.u.u.u.t.t.t.",
"1.1.1.1.1.u.u.u.u.1.1.1.u.u.u.u.O h F.E.Q.E.S.$ o = 8 N =.&.M . . u.u.u.u.. . . N =.*.V = O O @ I E.Q.Y.F.f . . t.t.t.t.t.t.t.1.",
"1.u.u.1.1.u.u.u.u.u.u.u.u.u.u.u.u.u.: h ~ u.u.u.u.u.. k .. .Z . . . . u.. . . X M V $.V . u.. u.u.u.C.d = @ t.t.t.t.t.t.t.t.t.1.",
"u.u.u.u.u.u.u.u.u.u.u.u.u.u.u.u.u.u.u.u.u.2.2.2.2.u.. @ 1 N V . . t.t.u.u.u.. . @ @ l < u.u.u.u.u.u.u.t.t.t.t.t.t.t.t.u.u.1.1.1.",
"u.u.u.u.u.t.t.t.u.u.u.u.u.t.t.t.t.u.u.u.2.2.2.2.2.2.t.t.X t.t.t.t.t.t.t.2.2.2.2.2.2.u.u.u.u.u.u.t.t.t.t.t.t.t.t.t.u.u.u.u.u.u.u.",
"u.u.u.u.t.t.t.t.t.u.u.u.t.t.t.2.2.2.2.2.2.2.2.2.2.2.t.t.t.t.t.t.t.2.2.2.2.2.2.2.2.2.t.t.t.t.t.t.t.t.t.t.t.t.t.u.u.u.u.u.u.u.u.u.",
"u.u.t.t.t.t.t.t.t.u.u.u.t.t.2.2.2.2.2.2.2.2.2.2.2.t.t.t.t.t.t.t.2.2.2.2.2.2.2.2.2.2.2.t.t.t.t.t.t.t.t.t.t.t.u.u.u.t.t.t.u.u.u.u.",
"t.t.t.t.t.t.t.t.t.t.t.u.t.t.2.2.2.2.2.2.2.2.2.2.2.2.2.2.2.t.t.2.2.2.2.2.2.t.t.2.2.2.2.2.t.t.t.t.t.t.t.t.u.u.u.u.t.t.t.t.t.u.u.u.",
"t.t.t.t.t.t.t.t.t.t.t.t.2.2.2.2.2.2.2.2.2.2.2.2.2.2.2.2.2.2.2.2.2.2.2.2.t.t.t.t.t.2.2.2.2.2.t.t.t.t.t.t.t.t.t.t.t.t.t.t.t.t.t.t.",
"t.t.t.t.t.t.2.2.2.2.2.2.2.2.2.2.t.t.t.2.2.2.2.2.2.2.2.2.2.2.2.2.2.2.2.2.t.t.t.t.t.t.t.t.t.t.t.t.t.t.t.t.t.t.t.t.t.t.t.t.t.t.t.t.",
"t.t.t.t.t.t.t.t.t.2.2.2.2.2.2.t.t.t.t.t.2.2.t.t.t.2.2.2.2.2.2.2.t.t.2.2.t.t.t.t.t.t.t.t.t.t.t.t.t.t.t.t.t.t.2.2.2.t.t.t.t.t.t.t.",
"t.t.t.t.t.t.t.t.t.t.t.t.2.2.2.t.t.t.t.t.2.t.t.t.t.t.t.2.2.2.2.t.t.t.t.2.2.t.t.t.t.t.t.t.t.t.t.t.t.t.t.t.t.2.2.2.2.2.t.t.t.t.t.t.",
"t.t.t.t.t.t.u.u.t.t.t.t.t.t.t.t.t.t.t.t.t.t.t.t.t.t.t.t.t.t.t.t.t.t.t.t.t.t.t.t.t.t.t.t.t.t.2.2.2.t.t.t.2.2.2.2.2.2.t.t.t.t.t.t.",
"t.t.t.t.t.u.u.u.u.t.t.t.t.u.u.u.u.t.t.t.t.t.t.t.t.t.t.t.t.t.t.t.t.t.t.t.t.t.t.t.t.t.t.t.t.2.2.2.2.2.2.2.2.2.2.2.2.2.t.t.t.t.t.t.",
"t.t.t.u.u.u.u.u.u.u.u.u.u.u.u.u.u.u.u.t.t.t.t.t.t.t.t.2.2.2.2.t.t.t.t.t.t.t.t.t.t.t.t.t.2.2.2.2.2.2.2.2.2.2.2.2.2.2.2.2.2.t.t.t.",
"2.2.u.u.u.u.u.u.u.u.u.u.u.u.u.u.2.2.2.2.t.t.2.2.2.2.2.2.2.2.2.2.2.t.t.2.2.2.2.t.t.t.t.2.2.2.2.2.2.2.2.2.2.2.2.2.2.2.2.2.2.2.2.2."
};
