/* XPM */
static char *e716e700eed44abc892f289cd5e8034c[] = {
/* columns rows colors chars-per-pixel */
"32 32 5 1 ",
"  c None",
". c #2F2F2E",
"X c #DE7586",
"o c gray71",
"O c gray88",
/* pixels */
"                                ",
"                                ",
"                                ",
"                                ",
"                                ",
"                                ",
"                                ",
"                                ",
"                                ",
"                                ",
"                                ",
"                                ",
"                                ",
"                                ",
"                                ",
"                                ",
"                                ",
"                                ",
"                                ",
"                                ",
"             ..  ..             ",
"             .o.....            ",
"              .o..o.            ",
"              .oOOOO.           ",
"              .oOOXX.           ",
"              .ooooo.           ",
"             .ooOO...           ",
"             .ooO.oOO.          ",
"             .oOO....           ",
"          ...ooO.O.             ",
"         .oo.ooO.O.             ",
"         ..........             "
};
