/* XPM */
static const char *obstacle[] = {
/* columns rows colors chars-per-pixel */
"64 64 152 2 ",
"   c #552F16",
".  c #573216",
"X  c #593517",
"o  c #5A3917",
"O  c #583718",
"+  c #5C3D19",
"@  c #5E4417",
"#  c #5E4518",
"$  c #535714",
"%  c #5C5714",
"&  c #555914",
"*  c #5B5D15",
"=  c #604619",
"-  c #634C19",
";  c #605614",
":  c #645B17",
">  c #67501A",
",  c #695E1A",
"<  c #5E6117",
"1  c #5F6218",
"2  c #626417",
"3  c #6A6117",
"4  c #676917",
"5  c #646618",
"6  c #6C631B",
"7  c #666919",
"8  c #6B6C1B",
"9  c #746716",
"0  c #71661B",
"q  c #716B1A",
"w  c #6F701C",
"e  c #72731D",
"r  c #7F731D",
"t  c #7D7C1F",
"y  c #767720",
"u  c #777720",
"i  c #767620",
"p  c #777622",
"a  c #757620",
"s  c #777622",
"d  c #787720",
"f  c #787820",
"g  c #797820",
"h  c #797821",
"j  c #7A7822",
"k  c #7A7922",
"l  c #7A7A22",
"z  c #7D7B20",
"x  c #7D7B21",
"c  c #7C7B23",
"v  c #7C7C21",
"b  c #7D7C21",
"n  c #7E7D21",
"m  c #7C7C22",
"M  c #7D7D23",
"N  c #7E7C22",
"B  c #7E7D22",
"V  c #7F7E22",
"C  c #7F7E23",
"Z  c #7A7927",
"A  c #7D7B27",
"S  c #7D7C24",
"D  c #7E7C24",
"F  c #7E7D24",
"G  c #7F7D24",
"H  c #7F7E24",
"J  c #7F7E25",
"K  c #7D7C27",
"L  c #7E7D26",
"P  c #7D7A29",
"I  c #7D7B29",
"U  c #7F7C28",
"Y  c #7E7D2B",
"T  c #807F23",
"R  c #807E24",
"E  c #807F24",
"W  c #817F24",
"Q  c #807E25",
"!  c #807F25",
"~  c #817F25",
"^  c #827F24",
"/  c #827F25",
"(  c #807E26",
")  c #817F26",
"_  c #807E29",
"`  c #817E29",
"'  c #818024",
"]  c #818025",
"[  c #828124",
"{  c #828025",
"}  c #818026",
"|  c #828026",
" . c #838026",
".. c #828126",
"X. c #838126",
"o. c #838226",
"O. c #838227",
"+. c #848126",
"@. c #848226",
"#. c #858226",
"$. c #858326",
"%. c #848227",
"&. c #858227",
"*. c #848327",
"=. c #858327",
"-. c #838228",
";. c #848028",
":. c #848128",
">. c #848228",
",. c #858329",
"<. c #868328",
"1. c #868329",
"2. c #878329",
"3. c #85822A",
"4. c #85832A",
"5. c #86832A",
"6. c #87832A",
"7. c #86832B",
"8. c #87832B",
"9. c #87842B",
"0. c #87852B",
"q. c #86832D",
"w. c #87832D",
"e. c #86842D",
"r. c #87842D",
"t. c #868329",
"y. c #88842A",
"u. c #88842B",
"i. c #88852B",
"p. c #88852D",
"a. c #89852E",
"s. c #89862E",
"d. c #88852D",
"f. c #898431",
"g. c #898531",
"h. c #8A8631",
"j. c #8B8631",
"k. c #898432",
"l. c #898532",
"z. c #8A8532",
"x. c #8A8632",
"c. c #8B8632",
"v. c #8B8732",
"b. c #8C8632",
"n. c #8C8732",
"m. c #8C8733",
"M. c #8D8733",
"N. c #8C8832",
"B. c #8D8832",
"V. c #8D8833",
"C. c None",
"Z. c black",
/* pixels */
"C.C.C.C.C.C.C.C.C.C.C.C.C.C.C.C.C.C.C.C.C.C.C.C.C.C.C.C.C.C.C.C.C.C.C.C.C.C.C.C.C.C.C.C.C.C.C.C.C.C.C.C.C.C.C.C.C.C.C.C.C.C.C.C.",
"C.C.C.C.C.C.C.C.C.C.C.C.C.C.C.C.C.C.C.C.C.C.C.C.C.C.C.C.C.C.C.C.C.C.C.C.C.C.C.C.C.C.C.C.C.C.C.C.C.C.C.C.C.C.C.C.C.C.C.C.C.C.C.C.",
"C.C.C.C.C.C.C.C.C.C.C.C.C.C.C.C.C.C.C.C.C.C.C.C.C.C.C.C.C.C.C.C.C.C.C.C.C.C.C.C.C.C.C.C.C.C.C.C.C.C.C.C.C.C.C.C.C.C.C.C.C.C.C.C.",
"C.C.C.C.C.C.C.C.C.C.C.C.C.C.C.C.C.C.C.C.C.C.C.C.C.C.C.C.C.C.C.C.C.C.C.C.C.C.C.C.C.C.C.C.C.C.C.C.C.C.C.C.C.C.C.C.C.C.C.C.C.C.C.C.",
"C.C.C.C.C.C.C.C.C.C.C.C.C.C.C.C.C.C.C.C.C.C.C.C.C.C.C.C.C.C.C.C.C.C.C.C.C.C.C.C.C.C.C.C.C.C.C.C.C.C.C.C.C.C.C.C.C.C.C.C.C.C.C.C.",
"C.C.C.C.C.C.C.C.C.C.C.C.C.C.C.C.C.C.C.C.C.C.C.C.C.C.C.C.C.C.C.C.C.C.C.C.C.C.C.C.C.C.C.C.C.C.C.C.C.C.C.C.C.C.C.C.C.C.C.C.C.C.C.C.",
"C.C.C.C.C.C.C.C.C.C.C.C.C.C.C.C.C.C.C.C.C.C.C.C.C.C.C.C.C.C.C.C.C.C.C.C.C.C.C.C.C.C.C.C.C.C.C.C.C.C.C.C.C.C.C.C.C.C.C.C.C.C.C.C.",
"C.C.C.C.C.C.C.C.C.C.C.C.C.C.C.C.C.C.C.C.C.C.C.C.C.C.C.C.C.C.C.C.C.C.C.C.C.C.C.C.C.C.C.C.C.C.C.C.C.C.C.C.C.C.C.C.C.C.C.C.C.C.C.C.",
"C.C.C.C.C.C.C.C.C.C.C.C.C.C.C.C.C.C.C.C.C.C.C.C.C.C.C.C.C.C.C.C.C.C.C.C.C.C.C.C.C.C.C.C.C.C.C.C.C.C.C.C.C.C.C.C.C.C.C.C.C.C.C.C.",
"C.C.C.C.C.C.C.C.C.C.C.C.C.C.C.C.C.C.C.C.C.C.C.C.C.C.C.C.C.C.C.C.C.C.C.C.C.C.C.C.C.C.C.C.C.C.C.C.C.C.C.C.C.C.C.C.C.C.C.C.C.C.C.C.",
"C.C.C.C.C.C.C.C.C.C.C.C.C.C.C.C.C.C.C.C.C.C.C.C.C.C.C.C.C.C.C.C.C.C.C.C.C.C.C.C.C.C.C.C.C.C.C.C.C.C.C.C.C.C.C.C.C.C.C.C.C.C.C.C.",
"C.C.C.C.C.C.C.C.C.C.C.C.C.C.C.C.C.C.C.C.C.C.C.C.C.C.C.C.C.C.C.C.C.C.C.C.C.C.C.C.C.C.C.C.C.C.C.C.C.C.C.C.C.C.C.C.C.C.C.C.C.C.C.C.",
"C.C.C.C.C.C.C.C.C.C.C.C.C.C.C.C.C.C.C.C.C.C.C.C.C.C.C.C.C.C.C.C.C.C.C.C.C.C.C.C.C.C.C.C.C.C.C.C.C.C.C.C.C.C.C.C.C.C.C.C.C.C.C.C.",
"C.C.C.C.C.C.C.C.C.C.C.C.C.C.C.C.C.C.C.C.C.C.C.C.C.C.C.C.C.C.C.C.C.C.C.C.C.C.C.C.C.C.C.C.C.C.C.C.C.C.C.C.C.C.C.C.C.C.C.C.C.C.C.C.",
"C.C.C.C.C.C.C.C.C.C.C.C.C.C.C.C.C.C.C.C.C.C.C.C.C.C.C.C.C.C.C.C.C.C.C.C.C.C.C.C.C.C.C.C.C.C.C.C.C.C.C.C.C.C.C.C.C.C.C.C.C.C.C.C.",
"C.C.C.C.C.C.C.C.C.C.C.C.C.C.C.C.C.C.C.C.C.C.C.C.C.C.C.C.C.C.C.C.C.C.C.C.C.C.C.C.C.C.C.C.C.C.C.C.C.C.C.C.C.C.C.C.C.C.C.C.C.C.C.C.",
"C.C.C.C.C.C.C.C.C.C.C.C.C.C.C.C.C.C.C.C.C.C.C.C.C.C.C.C.C.C.C.C.C.C.C.C.C.C.C.C.C.C.C.C.C.C.C.C.C.C.C.C.C.C.C.C.C.C.C.C.C.C.C.C.",
"C.C.C.C.C.C.C.C.C.C.C.C.C.C.C.C.C.C.C.C.C.C.C.C.C.C.C.C.C.C.C.C.C.C.- - C.C.C.C.C.C.C.C.C.C.C.C.C.C.C.C.C.C.C.C.C.C.C.C.C.C.C.C.",
"C.C.C.C.C.C.C.C.C.C.C.C.C.C.C.C.C.C.C.C.C.C.C.C.C.C.C.C.C.- - - C.- w w - C.C.C.C.C.C.C.C.C.C.C.C.C.C.C.C.C.C.C.C.C.C.C.C.C.C.C.",
"C.C.C.C.C.C.C.C.C.C.C.C.C.C.C.C.C.C.C.C.C.C.C.- - - C.C.- 7 7 7 - c.c.w - C.C.C.= # C.C.C.C.C.C.C.C.C.C.C.C.C.C.C.C.C.C.C.C.C.C.",
"C.C.C.C.C.C.C.C.C.C.C.C.C.C.C.C.C.C.C.C.C.C.- 8 8 e > > 7 7 7 X.c.c.c.w w - C.- u u # C.C.C.C.C.C.C.C.C.C.C.C.C.C.C.C.C.C.C.C.C.",
"C.C.C.C.C.C.C.C.C.C.C.C.C.C.C.C.C.C.C.C.C.- c.c.c.e e e 7 7 #.c.c.c.c.e w w - 7 u u 7 # C.C.C.C.C.C.C.C.C.C.C.C.C.C.C.C.C.C.C.C.",
"C.C.C.C.C.C.C.C.C.C.C.C.C.C.C.C.C.C.C.C.C.- c.c.c.c.e e 7 7 #.b.c.c.e e c.c.c.7 7 7 7 # C.C.C.C.C.C.C.C.C.C.C.C.C.C.C.C.C.C.C.C.",
"C.C.C.C.C.C.C.C.C.C.C.C.C.C.C.C.C.C.C.- - Q c.c.c.c.c.#.#.e e #.#.e e X.c.c.c.e F A 7 7 # @ C.C.C.C.C.C.C.C.C.C.C.C.C.C.C.C.C.C.",
"C.C.C.C.C.C.C.C.C.C.C.C.C.C.C.C.C.- - e e F F c.c.c.c.#.#.#.e #.#.#.X.X.c.c.c.e _ Y A 7 Z P @ C.C.C.C.C.C.C.C.C.C.C.C.C.C.C.C.C.",
"C.C.C.C.C.C.C.C.C.C.C.C.C.C.C.C.- 7 7 e e F n #.c.c.b.b.b.#.#.#.#.#.X.X.c.c.e e _ _ _ 7 P Y @ C.C.C.C.C.C.C.C.C.C.C.C.C.C.C.C.C.",
"C.C.C.C.C.C.C.C.C.C.C.C.C.C.C.- 7 7 7 F F F F b.b.b.b.b.b.-.>.>.>.-.c.c.c.e e e e _ Y 7 5 # C.C.C.C.C.C.C.C.C.C.C.C.C.C.C.C.C.C.",
"C.C.C.C.C.C.C.C.C.C.C.C.C.C.C.- 7 7 7 Q c.c.b.b.b.b.e e #.#.#.#.X.X.c.c.c.X.e e e 7 7 7 5 5 # @ C.C.C.C.C.C.C.C.C.C.C.C.C.C.C.C.",
"C.C.C.C.C.C.C.C.C.C.C.C.C.C.C.C.- 7 X.c.c.b.b.b.b.b.c.e u d g #.X.X.b.c.u Q Q c.c.c.w w w 5 8 8 @ C.C.C.C.C.C.C.C.C.C.C.C.C.C.C.",
"C.C.C.C.C.C.C.C.C.C.C.C.C.C.C.- e e X.c.c.b.b.#.b.b.b.d d V.V.V.V.X.u u Q Q Q c.c.c.c.e w 5 w 8 @ C.C.C.C.C.C.C.C.C.C.C.C.C.C.C.",
"C.C.C.C.C.C.C.C.C.C.C.C.C.C.- e g g c c.c.b.q X.X.b.V.g V.V.V.V.V.X.X.X.X.Q e c.c.c.c.w 7 7 w w @ C.C.C.C.C.C.C.C.C.C.C.C.C.C.C.",
"C.C.C.C.C.C.C.C.C.C.C.C.C.- 5 u F Q F e e 9 9 X.X.X.w n V.V.V.V.>.>.Q Q Q e e e b.c.c.7 7 5 5 = C.C.C.C.C.C.C.C.C.C.C.C.C.C.C.C.",
"C.C.C.C.C.C.C.C.C.C.C.C.C.- 5 5 g g 7 e X.X.X.X.X.#.n n n n n >.>.>.Q Q e n >.e e e 5 5 5 5 5 5 - # C.C.C.C.C.C.C.C.C.C.C.C.C.C.",
"C.C.C.C.C.C.C.C.C.C.C.C.C.C.- 5 5 5 5 >.>.>.u.9.X.p.9.u.n n c c Q Q Q F F >.>.e e e w r.r.5 5 7 7 5 # C.C.C.C.C.C.C.C.C.C.C.C.C.",
"C.C.C.C.C.C.C.C.C.C.C.C.C.C.C.- 5 5 5 >.>.>.9.r.u.9.u.u.n n n t Q Q r r r >.>.e e w r.r.r.r.5 7 7 7 5 # C.C.C.C.C.C.C.C.C.C.C.C.",
"C.C.C.C.C.C.C.C.C.C.C.C.C.C.C.- 5 5 e >.>.>.X.Q u.u.u.u.q n n n u.u.>.r r >.>.>.>.8 r.w.w.r.2 2 5 5 5 = C.C.C.C.C.C.C.C.C.C.C.C.",
"C.C.C.C.C.C.C.C.C.C.C.C.C.C.- 5 2 e e 8 6 6 Q u.u.u.q q e 6 n >.u.u.>.>.n p.>.p.p.n p.r.w.8 8 8 * < 5 = C.C.C.C.C.C.C.C.C.C.C.C.",
"C.C.C.C.C.C.C.C.C.C.C.C.C.= 2 2 e u u e e >.9.p.u.q q q e T >.>.>.u.>.>.n p.p.p.p.p.0 6 6 7 7 7 * < = C.C.C.C.C.C.C.C.C.C.C.C.C.",
"C.C.C.C.C.C.C.C.C.C.C.C.@ 5 7 7 e e u u q >.p.p.u.q q e >.>.>.>.>.w >.>., r.p.p.p.p.q 8 8 8 8 * * - C.C.C.C.C.C.C.C.C.C.C.C.C.C.",
"C.C.C.C.C.C.C.C.C.C.C.C.+ 5 8 7 5 e u u 2 >.r.9.6 8 w q >.>.>.>.>.8 8 8 8 6 >.p.p.7 7 8 8 8 : * * = C.C.C.C.C.C.C.C.C.C.C.C.C.C.",
"C.C.C.C.C.C.C.C.C.C.C.C.C.+ 7 7 2 2 5 < 8 6 6 6 8 e e e w >.>.>.3 8 8 8 7 7 , 3 6 7 7 e 8 8 : * @ C.C.C.C.C.C.C.C.C.C.C.C.C.C.C.",
"C.C.C.C.C.C.C.C.C.C.C.C.C.C.+ + * 2 2 8 8 q e 8 8 e e e 8 7 8 8 3 3 3 3 7 7 7 7 7 7 4 : : : : * & @ C.C.C.C.C.C.C.C.C.C.C.C.C.C.",
"C.C.C.C.C.C.C.C.C.C.C.C.C.C.C.C.+ 8 8 8 8 8 w ; ; e e e % 8 e e w 3 3 3 7 7 7 7 7 w w 8 8 : : * & & + C.C.C.C.C.C.C.C.C.C.C.C.C.",
"C.C.C.C.C.C.C.C.C.C.C.C.C.C.C.+ 8 8 8 * 8 8 % % ; ; ; * e e e e 8 3 * * 2 e e 7 % w 8 8 8 8 & * & & + C.C.C.C.C.C.C.C.C.C.C.C.C.",
"C.C.C.C.C.C.C.C.C.C.C.C.C.C.C.+ 8 8 8 * < * * * % 7 7 2 w e e w * 3 < * e e e & % % 8 8 8 8 $ 1 < + C.C.C.C.C.C.C.C.C.C.C.C.C.C.",
"C.C.C.C.C.C.C.C.C.C.C.C.C.C.C.O 8 8 * * * * * * 7 7 7 * * q 8 * * * * < e w w & % % % & & $ 1 2 < o C.C.C.C.C.C.C.C.C.C.C.C.C.C.",
"C.C.C.C.C.C.C.C.C.C.C.C.C.C.C.C.X * & o * * & 7 7 7 7 * * * * * * * * X 8 8 * & & & & & $ $ 2 2 < o C.C.C.C.C.C.C.C.C.C.C.C.C.C.",
"C.C.C.C.C.C.C.C.C.C.C.C.C.C.C.C.C.X X C.X % % 7 7 7 * % % % % * 7 7 X C.X * * & & 5 5 * $ o < < o C.C.C.C.C.C.C.C.C.C.C.C.C.C.C.",
"C.C.C.C.C.C.C.C.C.C.C.C.C.C.C.C.C.C.C.C.X % % % X X * % % % % 7 7 7 X C.C.X & * X 2 5 5 o C.o o C.C.C.C.C.C.C.C.C.C.C.C.C.C.C.C.",
"C.C.C.C.C.C.C.C.C.C.C.C.C.C.C.C.C.C.C.C.C.X X X C.C.. % % . % 7 7 7 . C.C.C.. X C.X 2 2 X C.C.C.C.C.C.C.C.C.C.C.C.C.C.C.C.C.C.C.",
"C.C.C.C.C.C.C.C.C.C.C.C.C.C.C.C.C.C.C.C.C.C.C.C.C.C.C.. . C.. 5 5 . C.C.C.C.C.C.C.C.X X C.C.C.C.C.C.C.C.C.C.C.C.C.C.C.C.C.C.C.C.",
"C.C.C.C.C.C.C.C.C.C.C.C.C.C.C.C.C.C.C.C.C.C.C.C.C.C.C.C.C.C.C.    C.C.C.C.C.C.C.C.C.C.C.C.C.C.C.C.C.C.C.C.C.C.C.C.C.C.C.C.C.C.C.",
"C.C.C.C.C.C.C.C.C.C.C.C.C.C.C.C.C.C.C.C.C.C.C.C.C.C.C.C.C.C.C.C.C.C.C.C.C.C.C.C.C.C.C.C.C.C.C.C.C.C.C.C.C.C.C.C.C.C.C.C.C.C.C.C.",
"C.C.C.C.C.C.C.C.C.C.C.C.C.C.C.C.C.C.C.C.C.C.C.C.C.C.C.C.C.C.C.C.C.C.C.C.C.C.C.C.C.C.C.C.C.C.C.C.C.C.C.C.C.C.C.C.C.C.C.C.C.C.C.C.",
"C.C.C.C.C.C.C.C.C.C.C.C.C.C.C.C.C.C.C.C.C.C.C.C.C.C.C.C.C.C.C.C.C.C.C.C.C.C.C.C.C.C.C.C.C.C.C.C.C.C.C.C.C.C.C.C.C.C.C.C.C.C.C.C.",
"C.C.C.C.C.C.C.C.C.C.C.C.C.C.C.C.C.C.C.C.C.C.C.C.C.C.C.C.C.C.C.C.C.C.C.C.C.C.C.C.C.C.C.C.C.C.C.C.C.C.C.C.C.C.C.C.C.C.C.C.C.C.C.C.",
"C.C.C.C.C.C.C.C.C.C.C.C.C.C.C.C.C.C.C.C.C.C.C.C.C.C.C.C.C.C.C.C.C.C.C.C.C.C.C.C.C.C.C.C.C.C.C.C.C.C.C.C.C.C.C.C.C.C.C.C.C.C.C.C.",
"C.C.C.C.C.C.C.C.C.C.C.C.C.C.C.C.C.C.C.C.C.C.C.C.C.C.C.C.C.C.C.C.C.C.C.C.C.C.C.C.C.C.C.C.C.C.C.C.C.C.C.C.C.C.C.C.C.C.C.C.C.C.C.C.",
"C.C.C.C.C.C.C.C.C.C.C.C.C.C.C.C.C.C.C.C.C.C.C.C.C.C.C.C.C.C.C.C.C.C.C.C.C.C.C.C.C.C.C.C.C.C.C.C.C.C.C.C.C.C.C.C.C.C.C.C.C.C.C.C.",
"C.C.C.C.C.C.C.C.C.C.C.C.C.C.C.C.C.C.C.C.C.C.C.C.C.C.C.C.C.C.C.C.C.C.C.C.C.C.C.C.C.C.C.C.C.C.C.C.C.C.C.C.C.C.C.C.C.C.C.C.C.C.C.C.",
"C.C.C.C.C.C.C.C.C.C.C.C.C.C.C.C.C.C.C.C.C.C.C.C.C.C.C.C.C.C.C.C.C.C.C.C.C.C.C.C.C.C.C.C.C.C.C.C.C.C.C.C.C.C.C.C.C.C.C.C.C.C.C.C.",
"C.C.C.C.C.C.C.C.C.C.C.C.C.C.C.C.C.C.C.C.C.C.C.C.C.C.C.C.C.C.C.C.C.C.C.C.C.C.C.C.C.C.C.C.C.C.C.C.C.C.C.C.C.C.C.C.C.C.C.C.C.C.C.C.",
"C.C.C.C.C.C.C.C.C.C.C.C.C.C.C.C.C.C.C.C.C.C.C.C.C.C.C.C.C.C.C.C.C.C.C.C.C.C.C.C.C.C.C.C.C.C.C.C.C.C.C.C.C.C.C.C.C.C.C.C.C.C.C.C.",
"C.C.C.C.C.C.C.C.C.C.C.C.C.C.C.C.C.C.C.C.C.C.C.C.C.C.C.C.C.C.C.C.C.C.C.C.C.C.C.C.C.C.C.C.C.C.C.C.C.C.C.C.C.C.C.C.C.C.C.C.C.C.C.C."
};
