/* XPM */
static const char *player_right_tile[] = {
/* columns rows colors chars-per-pixel */
"64 64 200 2 ",
"   c #10172B",
".  c #151B2D",
"X  c #181D2F",
"o  c #1C1E31",
"O  c #1D2231",
"+  c #232334",
"@  c #2B2435",
"#  c #262A36",
"$  c #2C2B37",
"%  c #2D253A",
"&  c #2D2E38",
"*  c #362735",
"=  c #352936",
"-  c #32263B",
";  c #322B3C",
":  c #392A3A",
">  c #2F313A",
",  c #33323B",
"<  c #3B383E",
"1  c #422C39",
"2  c #4B2E3E",
"3  c #43333D",
"4  c #47353E",
"5  c #56323D",
"6  c #372840",
"7  c #3A2A41",
"8  c #353840",
"9  c #3E3A41",
"0  c #4C2E40",
"q  c #433D42",
"w  c #493049",
"e  c #543543",
"r  c #5C3641",
"t  c #533C42",
"y  c #52344D",
"u  c #5A3753",
"i  c #5E3852",
"p  c #6E3C45",
"a  c #683A48",
"s  c #643A51",
"d  c #6A3C55",
"f  c #6A3D5B",
"g  c #703E51",
"h  c #3D4048",
"j  c #434345",
"k  c #4C4647",
"l  c #434648",
"z  c #4B4748",
"x  c #504749",
"c  c #574F4D",
"v  c #5C534D",
"b  c #414653",
"n  c #434856",
"m  c #464A5A",
"M  c #545451",
"N  c #5B5353",
"B  c #5D5953",
"V  c #7B434C",
"C  c #75484A",
"Z  c #7A4F4E",
"A  c #71504F",
"S  c #784158",
"D  c #635A52",
"F  c #685855",
"G  c #7B5552",
"H  c #6C6255",
"J  c #67645A",
"K  c #726557",
"L  c #73655A",
"P  c #766A59",
"I  c #7B6B5C",
"U  c #7B705E",
"Y  c #66566A",
"T  c #5D606B",
"R  c #5F6370",
"E  c #6A6866",
"W  c #757366",
"Q  c #85434C",
"!  c #854A4C",
"~  c #974A4D",
"^  c #9B4B4E",
"/  c #864655",
"(  c #954A56",
")  c #9B4C55",
"_  c #964B58",
"`  c #9D4D58",
"'  c #8A5753",
"]  c #965657",
"[  c #A34F55",
"{  c #A04E58",
"}  c #AB5255",
"|  c #A15956",
" . c #B45455",
".. c #B85655",
"X. c #B75957",
"o. c #B85C59",
"O. c #96685C",
"+. c #A4665D",
"@. c #BD655E",
"#. c #836C62",
"$. c #857461",
"%. c #8A7464",
"&. c #8C7A64",
"*. c #967E69",
"=. c #A96E61",
"-. c #B26C61",
";. c #BD6A60",
":. c #AA7465",
">. c #BC7264",
",. c #BF7F6B",
"<. c #C17566",
"1. c #C37C6A",
"2. c #679175",
"3. c #79A863",
"4. c #9BB94E",
"5. c #BFBA5B",
"6. c #85836D",
"7. c #89846F",
"8. c #958166",
"9. c #928369",
"0. c #9C836B",
"q. c #9D886A",
"w. c #898877",
"e. c #968B76",
"r. c #999377",
"t. c #A28C6D",
"y. c #A9926F",
"u. c #A58B71",
"i. c #AC9372",
"p. c #AB9B7D",
"a. c #B09474",
"s. c #B59C75",
"d. c #BB9E78",
"f. c #BEA179",
"g. c #C5826D",
"h. c #C8856F",
"j. c #C98D74",
"k. c #CB9473",
"l. c #CE9C77",
"z. c #C5A97D",
"x. c #CAAB7F",
"c. c #D2AB7E",
"v. c #9F8B81",
"b. c #8F9293",
"n. c #9A9A97",
"m. c #A79480",
"M. c #B6A783",
"N. c #B3AB8A",
"B. c #BFAE97",
"V. c #BDB990",
"C. c #9E9FA1",
"Z. c #B3ADA6",
"A. c #CEAE80",
"S. c #D3AC82",
"D. c #C9B084",
"F. c #D5B583",
"G. c #D7B487",
"H. c #D9B986",
"J. c #DABE8A",
"K. c #C4B897",
"L. c #D5BA91",
"P. c #C5BCA0",
"I. c #DBC18D",
"U. c #CDC49A",
"Y. c #DCC595",
"T. c #DACA99",
"R. c #E0C695",
"E. c #E1C994",
"W. c #E2CE99",
"Q. c #E4D39D",
"!. c #E8D49E",
"~. c #CEC2AC",
"^. c #DACCA5",
"/. c #DCD3A6",
"(. c #D0CBBA",
"). c #E4CEA1",
"_. c #E7D7A5",
"`. c #EADBA5",
"'. c #EDDEA9",
"]. c #EDDEB0",
"[. c #EFE1AB",
"{. c #F1E3AD",
"}. c #EDE1BF",
"|. c #F2E5B1",
" X c #F4E8BA",
".X c #D2CCC0",
"XX c #EDDFC2",
"oX c #E7DFD1",
"OX c #EDE3C7",
"+X c #F0E4C2",
"@X c #F3E9C4",
"#X c #F6EDCD",
"$X c #F9F0CB",
"%X c #EAE4D8",
"&X c #F1ECDE",
"*X c #FAF3D7",
"=X c #E8E7E4",
"-X c #F2EEE0",
";X c #F8EFE0",
":X c #FDFBF3",
/* pixels */
"4.4.4.4.4.5.5.5.5.5.5.5.5.5.5.3.3.3.3.3.3.3.3.3.3.3.3.3.3.3.3.3.3.3.3.3.3.3.3.3.3.3.3.3.3.3.3.3.3.3.3.3.3.3.3.3.3.3.3.3.3.3.3.3.",
"4.4.4.4.4.4.5.5.5.5.5.5.4.3.3.3.4.4.4.3.3.3.3.3.3.3.3.3.3.3.3.3.3.3.3.3.3.3.3.3.2.2.2.2.3.3.3.3.3.3.3.3.3.3.3.3.3.3.3.3.3.4.4.4.",
"4.4.5.5.5.5.5.5.5.5.5.4.4.4.4.4.4.4.4.4.4.4.4.3.3.3.3.3.3.3.3.3.3.3.3.3.3.3.3.2.2.2.2.2.2.4.4.4.4.4.4.4.4.2.2.2.2.3.3.3.4.4.4.4.",
"5.5.5.5.5.5.5.5.5.5.5.4.4.4.4.4.4.4.3.3.3.3.3.3.3.3.3.3.3.3.3.3.3.3.3.2.2.2.3.2.2.2.2.2.2.2.2.2.2.2.4.4.2.2.2.2.2.2.2.3.4.4.4.4.",
"5.5.5.5.5.5.5.5.5.5.4.4.4.4.4.4.4.4.4.4.3.3.3.3.3.3.3.3.3.3.3.3.3.3.2.2.2.2.2.2.2.2.2.2.2.2.2.2.2.2.2.2.2.5.5.5.2.2.2.2.4.4.4.5.",
"4.4.4.4.4.5.5.5.5.5.4.4.4.4.4.4.4.4.4.4.4.4.3.3.3.3.3.3.3.3.3.3.3.2.2.2.2.2.5.5.5.5.2.2.2.2.5.5.5.5.2.2.5.5.5.5.5.2.2.2.2.5.5.5.",
"4.4.4.4.4.4.5.5.5.5.5.4.5.5.4.4.4.4.4.4.4.4.4.4.4.4.3.3.3.3.3.3.3.2.2.2.5.5.5.5.5.5.5.2.2.5.5.5.5.5.5.5.5.5.5.5.5.5.5.5.5.5.4.4.",
"4.4.4.4.4.4.4.4.5.5.5.5.5.5.5.4.4.4.4.4.4.4.4.4.4.4.3.3.3.3.3.2.2.2.2.5.5.5.5.5.5.5.5.2.5.5.5.5.5.5.5.5.5.5.5.5.5.5.5.5.5.5.4.4.",
"5.5.4.4.4.4.4.4.4.5.5.5.4.4.4.5.4.4.4.4.4.4.4.4.4.4.4.5.5.5.5.5.5.2.5.5.5.5.5.5.5.5.5.5.5.5.5.5.5.5.5.5.5.5.5.5.5.5.5.5.5.5.4.5.",
"5.5.5.4.4.4.4.4.4.4.4.4.4.4.4.4.4.4.4.4.4.4.4.4.4.4.5.5.4.4.5.5.5.5.5.5.5.5.5.5.5.5.5.5.5.5.5.5.5.5.5.5.5.5.5.5.5.5.5.5.5.5.5.5.",
"5.5.5.4.4.4.5.5.4.4.4.4.4.4.4.4.4.4.4.4.4.4.4.4.4.4.5.4.4.4.4.5.5.5.5.5.5.5.5.4.4.4.5.5.5.5.5.4.4.5.5.5.5.4.4.5.5.5.5.5.5.5.5.5.",
"5.5.5.4.4.5.5.5.5.5.4.4.4.4.4.4.4.4.4.4.4.4.4.4.4.4.4.4.4.4.4.4.4.4.4.5.5.5.4.4.4.4.4.5.5.4.4.4.4.4.4.5.4.4.4.4.5.5.5.5.5.5.5.5.",
"5.5.5.5.5.5.5.5.5.5.5.5.5.5.5.5.5.5.5.4.4.4.4.4.4.4.4.4.4.4.4.4.4.4.4.4.5.5.4.4.4.4.4.5.4.4.4.4.4.4.4.4.4.4.4.4.5.5.5.5.5.5.5.5.",
"5.5.5.5.5.5.5.5.5.4.4.4.4.4.4.4.4.4.4.4.4.4.4.4.4.4.4.4.4.4.4.4.4.4.4.4.4.4.4.4.4.4.4.5.4.4.4.4.4.4.4.4.4.4.4.4.5.5.5.5.5.4.4.4.",
"4.4.4.4.4.4.4.4.4.4.4.4.3.3.3.3.3.3.4.4.4.4.4.4.4.4.4.4.4.4.4.4.4.4.4.4.4.4.4.4.4.4.4.4.4.4.4.4.4.4.4.4.4.4.4.4.4.4.4.4.4.4.4.4.",
"4.4.4.4.4.4.4.4.4.4.3.3.3.3.3.3.3.3.3.4.3.3.3.3.4.4.4.4.4.4.5.5.5.4.4.4.4.4.4.4.4.4.4.4.4.4.4.4.4.4.4.4.4.4.4.4.4.4.4.4.4.4.4.4.",
"4.4.4.4.4.4.4.4.3.3.3.3.3.3.3.3.3.3.3.3.3.3.3.3.3.4.4.4.5.5.5.5.5.5.4.4.4.4.4.4.4.4.4.4.3.3.3.4.4.4.4.4.4.4.4.4.4.4.4.4.4.4.4.4.",
"4.4.4.4.4.4.4.3.3.3.3.3.3.3.3.3.3.3.3.3.3.3.3.3.3.5.5.5.5.5.5.5.5.5.5.5.5.5.3.3.3.4.4.3.3.3.3.3.4.4.4.4.4.4.4.4.4.4.4.4.4.4.4.4.",
"4.4.4.4.4.3.3.3.3.3.3.4.4.4.4.4.3.3.3.3.3.3.3.3.3.3.3.3.5.5.5.5.5.5.5.5.5.3.3.3.3.3.3.3.4.4.3.3.3.4.4.4.4.4.4.3.3.3.4.4.4.4.4.4.",
"4.4.4.3.3.3.3.3.3.3.4.4.4.4.4.4.4.3.3.3.4.4.4.3.3.3.3.3.3.3.5.5.5.3.3.3.3.3.4.4.3.3.3.4.4.4.4.3.3.3.4.4.4.4.3.3.3.3.3.4.4.4.3.3.",
"3.4.4.4.4.4.4.4.4.4.4.4.4.4.4.4.4.3.3.4.4.4.4.4.4.4.4.4.4.4.4.4.4.4.4.  5 p + . 4.4.4.4.4.4.4.4.4.4.4.4.4.3.3.3.3.3.3.3.3.3.3.3.",
"3.3.3.3.4.4.4.4.4.4.4.4.4.4.4.4.4.4.4.4.4.4.4.4.4.4.4.4.4.4.4.4.4.4.X * ! -.O.' t $ 4.4.4.3.3.3.3.4.4.4.4.3.3.3.3.3.3.3.3.3.3.3.",
"4.4.4.4.4.4.4.4.4.4.4.4.4.4.4.4.4.4.4.4.4.4.4.2.2.2.2.2.2.4.4.4.2.o a } ;.1.1.;.1.=.Z # 3.3.3.3.3.3.4.4.3.3.3.3.4.4.4.3.3.3.3.3.",
"4.4.4.4.4.4.4.4.2.2.2.2.2.4.4.2.2.2.4.4.4.5.5.5.5.2.2.2.2.2.4.2.X r } ..<.h.g.1.<.g.g.! * 3.3.3.3.3.3.3.3.3.3.4.4.4.4.4.4.4.4.4.",
"4.4.4.4.4.4.4.2.2.2.2.2.2.2.2.2.2.2.2.4.5.5.5.5.5.5.5.2.2.2.2.. - /  .} ] O.:.g.<.-.1.>.3 3.3.3.3.3.3.3.3.3.3.4.4.4.4.4.4.4.4.4.",
"4.4.4.4.4.2.2.2.5.5.5.5.2.2.2.5.5.2.2.5.5.5.5.5.5.5.5.5.2.2.2.. w ` ^ 1 + o $ G g.=.Z ,.' @ 3.4.4.4.3.3.3.3.4.4.4.4.4.4.4.4.4.4.",
"4.4.2.2.2.2.5.5.5.5.5.5.5.5.5.5.5.5.5.5.5.5.5.5.5.5.5.5.5.2.2.. y } ) i u w o o A 1.G A -.* 4.4.4.4.4.3.3.3.3.3.3.3.3.3.3.4.4.4.",
"5.2.2.5.5.5.5.5.5.5.5.5.5.5.5.5.5.5.5.5.5.5.5.3.3.3.5.5.5.5.2.5.% S ` S f f 7 . o ] +.t ] : 4.4.4.4.4.3.3.3.3.3.3.3.3.3.3.3.3.3.",
"5.5.5.5.5.5.5.5.5.5.3.3.3.5.5.5.5.5.5.5.5.5.3.3.3.3.3.5.5.5.5.5.X - y y y 7 o 5.. r / a S % 4.4.4.4.4.3.3.3.3.3.5.5.5.5.5.5.5.5.",
"4.4.4.4.4.4.5.5.3.3.3.3.3.3.3.5.5.3.3.3.3.3.3.3.3.3.3.3.3.3.4.4.4.. . X X . 4.4.  5 a p 2   4.4.4.4.3.3.5.5.5.5.5.5.5.5.5.5.5.5.",
"4.4.4.4.4.4.4.4.4.4.4.4.3.3.3.3.3.3.3.3.3.3.3.3.3.3.3.3.3.3.3.3.3.4.4.4.4.4.# , X 0 - 2 = + 4.4.4.4.4.4.4.4.4.4.4.4.4.4.4.4.4.4.",
"4.4.4.4.4.4.4.4.4.4.4.4.4.4.4.4.3.3.3.3.3.3.3.3.3.3.3.3.3.3.3.3.3.3.3.3.  < m.v.Y Y n m Z.Z.b   4.4.4.4.4.4.4.4.4.4.4.4.4.F.4.4.",
"5.5.5.4.4.4.4.4.4.4.4.4.4.4.4.4.4.4.4.4.3.3.3.3.3.3.3.3.3.3.3.3.3.3.3.3.+ < E ~.&X&X%XoXXXK.B $ 4.4.4.4.4.4.4.4.4.4.4.4.Y.B.4.5.",
"5.5.5.5.4.4.4.4.4.4.4.4.4.4.4.4.3.3.3.3.3.3.3.4.4.4.3.3.3.3.3.3.3.3.3.  9 %.u.T.{.|.].+X@X XY.8.O 4.4.4.4.4.4.4.4.4.4.L.;Xb.5.5.",
"5.5.5.5.5.5.5.4.4.4.4.3.3.3.3.3.3.3.3.3.3.3.4.4.4.4.4.3.3.3.3.3.3.3.4.o F u.F.!.{.@X#X*X:X=X}.Y.c 4.4.4.4.4.4.4.4.4.N %X:Xw.5.5.",
"4.4.4.5.5.5.5.5.4.4.4.4.4.4.4.4.4.4.4.4.4.4.4.4.4.4.4.3.3.3.3.4.4.4.4.& %.a.F.E.'.[.[.[.OXE M.{.e.. 4.4.4.4.4.4.4.z.P.:X+X7.5.5.",
"4.4.4.4.5.5.5.5.5.4.4.4.4.4.4.4.4.4.4.4.4.4.4.4.4.4.4.4.4.4.4.4.4.4.. , #.f.F.F.E.'.[.@X-Xb D _.N.O 4.4.4.4.4.4.4.e.*XOXE.6.5.4.",
"4.4.4.4.4.4.4.4.4.4.4.4.4.4.4.4.4.4.4.4.4.4.4.4.4.4.4.4.4.4.4.4.4.5.. N *.x.F.F.F.J._.#X-Xn & D.^.N 4.4.4.4.4.4.. n.@XI.M.j 4.4.",
"4.4.4.4.4.4.4.4.4.4.4.4.4.4.4.4.4.4.4.4.4.4.4.4.4.4.4.4.X + 4.4.3.3.. D u.F.F.F.F.H.'. X%Xb . $.K.h 5.5.5.5.5.3.l /.W.F.H   4.4.",
"4.4.4.4.4.4.4.4.4.4.4.4.4.4.4.4.4.4.4.4.4.4.4.4.4.4.4.4.o H z 3.3.3.. , F a.x.i.K D J W T O . O # O . 3.3.3.3.. r.`.H.s.& 3.3.4.",
"3.3.3.3.3.3.3.3.4.4.4.4.4.4.4.4.4.4.4.4.4.4.4.4.4.4.4.4.. , q.H X 3.. # #.a.F.F.M.J 8 X X . . O E E . 3.3.3.3.l V.r.F.J   3.3.3.",
"3.3.3.3.4.4.4.4.4.4.4.4.4.4.4.4.4.4.4.4.4.4.4.4.4.4.4.4.* 5 4 t.H +   O L a.d.A.J.W.T.K.(.R   v ).U.> 3.3.3.. r.r.$.s.& 3.3.3.3.",
"4.4.4.4.4.4.4.4.4.4.4.4.4.4.4.4.4.4.4.4.4.4.4.4.4.4.4.4.1  .^ Z &.$.k + & I 0.A.F.F.!.|.*XC.+ p.#X^.< 3.3.3.j U.L s.H   3.3.4.4.",
"4.4.4.4.4.4.4.4.4.4.4.4.4.4.4.4.4.4.2.2.2.2.2.4.4.4.4.2.1  ... .:.t.q.9.P B D 8.F.F.I.'. Xn.q Y.|.p.# < # . &.e.I i.& 4.4.4.4.4.",
"4.4.4.4.4.4.4.4.4.4.4.4.4.4.4.4.2.2.2.2.2.2.2.2.4.4.2.2.1  .X.o.k.i.D B J N.W , d.F.J.'.{.(..X'._.M : +.C < i.9 i.H   4.4.4.4.4.",
"4.4.4.4.4.4.4.4.4.4.4.4.4.4.4.2.2.2.5.5.5.2.2.2.2.2.2.2.1  .X.;.S.E.F.f.v J U   > v i.`.{.$X$X!.$.# ' e 3 &.P k 0.& 4.5.5.5.5.5.",
"4.4.4.4.4.2.2.2.2.2.4.4.2.2.2.2.2.5.5.5.5.5.5.2.2.2.2.5.1  . .@.G.`.J.H.q.J U . o   + J M./._.7.w : +.| : v < I x   5.5.5.5.5.5.",
"4.4.4.4.2.2.2.2.2.2.2.2.2.2.2.2.2.5.5.5.5.5.5.5.5.2.5.5.q >.X.X.j.E.W.H.i.P P + s w % o O j l % d y 2 ~ ^ 0 # q ; : @ 5.5.5.5.4.",
"2.2.4.2.2.2.5.5.2.2.2.2.2.5.5.2.2.2.5.5.5.5.5.5.5.5.5.5.k c.l.g.g.J.I.F.f.*.P @ ) _ S u 7 o + d ` y + 3 r V i 7 + e 1 5.5.4.4.4.",
"2.2.2.2.2.5.5.5.5.2.2.2.5.5.5.5.5.2.5.5.5.5.5.5.5.5.5.5.j x.I.`.G.k.F.F.f.a.P + ( ..} _ S u d ` g + x *.$., 6 y 7 + . 4.4.4.4.2.",
"2.5.5.2.2.5.5.5.5.5.5.5.5.5.5.5.5.5.5.5.5.5.5.5.5.5.5.5.+ y.J.Q.R.>.<.l.t.*.P @ (  .....} _ { Q @   c f.H.t.< o ; + 4.4.4.4.4.2.",
"5.5.5.5.5.5.5.5.5.5.5.5.5.5.5.5.5.5.5.5.5.3.3.3.3.5.5.5.. K F.J.S.1.;.@.' v K + f / ` [ [ [ V @ . . < 0.x.F.v   4.4.4.5.5.2.2.2.",
"5.5.5.5.5.4.4.4.5.5.5.5.5.4.4.4.4.5.5.5.3.3.3.3.3.3.4.4.5.& t.F.c.;.X...Q x v X % % % % % % o . 4.o % ; q j O 4.4.5.5.5.5.5.5.5.",
"5.5.5.5.4.4.4.4.4.5.5.5.4.4.4.3.3.3.3.3.3.3.3.3.3.3.4.4.4.4., t.H.1. . .V N # . . . . . . . . 4.4.o w %     4.5.5.5.5.5.5.5.5.5.",
"5.5.4.4.4.4.4.4.4.5.5.5.4.4.3.3.3.3.3.3.3.3.3.3.3.4.4.4.4.4.4., t.k. .p 9 & . . . 3.3.. . . 4.4.4.. o o 4.4.5.5.5.4.4.4.5.5.5.5.",
"4.4.4.4.4.4.4.4.4.4.4.5.4.4.3.3.3.3.3.3.3.3.3.3.3.3.3.3.3.4.4.3., O.V q O . 4.. . . 3.. . . 4.4.4.4.4.4.5.5.5.5.4.4.4.4.4.5.5.5.",
"4.4.4.4.4.4.4.4.4.4.4.4.3.3.3.3.3.3.3.3.3.3.3.3.3.3.3.3.3.3.3.3.3.+ # 9 X 4.. . . . 3.. . . 4.4.4.4.4.4.4.4.4.4.4.4.4.4.4.4.4.4.",
"4.4.4.4.4.4.3.3.3.3.3.3.3.3.3.3.4.4.4.3.3.3.3.3.3.3.3.3.3.3.3.3.3.3.. . 4.4.4.4.4.4.4.4.4.4.4.4.4.4.4.4.4.4.4.4.4.4.4.4.4.4.4.4.",
"4.4.4.4.4.4.4.4.4.3.3.3.3.3.3.4.4.4.4.4.3.3.4.4.4.3.3.3.3.3.3.3.4.4.3.3.4.4.4.4.4.4.4.4.4.4.4.4.4.4.4.4.4.4.3.3.3.4.4.4.4.4.4.4.",
"4.4.4.4.4.4.4.4.4.4.4.4.3.3.3.4.4.4.4.4.3.4.4.4.4.4.4.3.3.3.3.4.4.4.4.3.3.4.4.4.4.4.4.4.4.4.4.4.4.4.4.4.4.3.3.3.3.3.4.4.4.4.4.4.",
"4.4.4.4.4.4.5.5.4.4.4.4.4.4.4.4.4.4.4.4.4.4.4.4.4.4.4.4.4.4.4.4.4.4.4.4.4.4.4.4.4.4.4.4.4.4.3.3.3.4.4.4.3.3.3.3.3.3.4.4.4.4.4.4.",
"4.4.4.4.4.5.5.5.5.4.4.4.4.5.5.5.5.4.4.4.4.4.4.4.4.4.4.4.4.4.4.4.4.4.4.4.4.4.4.4.4.4.4.4.4.3.3.3.3.3.3.3.3.3.3.3.3.3.4.4.4.4.4.4.",
"4.4.4.5.5.5.5.5.5.5.5.5.5.5.5.5.5.5.5.4.4.4.4.4.4.4.4.3.3.3.3.4.4.4.4.4.4.4.4.4.4.4.4.4.3.3.3.3.3.3.3.3.3.3.3.3.3.3.3.3.3.4.4.4.",
"3.3.5.5.5.5.5.5.5.5.5.5.5.5.5.5.3.3.3.3.4.4.3.3.3.3.3.3.3.3.3.3.3.4.4.3.3.3.3.4.4.4.4.3.3.3.3.3.3.3.3.3.3.3.3.3.3.3.3.3.3.3.3.3."
};
