/* XPM */
static const char *player_tile[] = {
/* columns rows colors chars-per-pixel */
"64 64 93 2 ",
"   c #53321D",
".  c #573622",
"X  c #583521",
"o  c #593724",
"O  c #593A27",
"+  c #5A3B28",
"@  c #5B3C29",
"#  c #5E3F2B",
"$  c #636917",
"%  c #656C17",
"&  c #686F16",
"*  c #72751B",
"=  c #5F402C",
"-  c #60402B",
";  c #62432E",
":  c #684B36",
">  c #6D4B34",
",  c #6E4C35",
"<  c #6A4D39",
"1  c #6E523F",
"2  c #74513A",
"3  c #787B21",
"4  c #6F5341",
"5  c #705340",
"6  c #725543",
"7  c #745643",
"8  c #775946",
"9  c #785A48",
"0  c #785C4A",
"q  c #7C5F4B",
"w  c #795D4C",
"e  c #7B624E",
"r  c #7C604D",
"t  c #7E6352",
"y  c #7E6450",
"u  c #A2783C",
"i  c #846552",
"p  c #896F5C",
"a  c #8B7565",
"s  c #8E7665",
"d  c #8C7E67",
"f  c #8D7F69",
"g  c #7F8124",
"h  c #7F8226",
"j  c #A2814F",
"k  c #BD9842",
"l  c #8E816A",
"z  c #8F816C",
"x  c #8F836E",
"c  c #90836E",
"v  c #90846E",
"b  c #908470",
"n  c #938673",
"m  c #938774",
"M  c #948873",
"N  c #968A77",
"B  c #998C77",
"V  c #978B78",
"C  c #978C79",
"Z  c #988D7B",
"A  c #9A8F7F",
"S  c #9B907F",
"D  c #9D927F",
"F  c #C6A740",
"G  c #46809E",
"H  c #48819F",
"J  c #548BA8",
"K  c #70A1B4",
"L  c #9B9080",
"P  c #9D9383",
"I  c #9E9483",
"U  c #9D9384",
"Y  c #9E9585",
"T  c #9F9788",
"R  c #A09686",
"E  c #A09689",
"W  c #A09889",
"Q  c #A1998C",
"!  c #A59D8F",
"~  c #A79F91",
"^  c #A7A091",
"/  c #A9A190",
"(  c #AAA294",
")  c #ABA495",
"_  c #ACA497",
"`  c #ADA598",
"'  c #AFA79C",
"]  c #B0A79B",
"[  c #B0A89B",
"{  c #B0A89C",
"}  c #9CA8AD",
"|  c #B7B0A5",
" . c #B3B0A9",
/* pixels */
"* * * * * * * * * * * * * * * * * * * * * * * * * * * * * * * * * * * * * * * * * * * * * * * * * * * * * * * * * * * * * * * * ",
"* * * * * * * * * * * * * * * * * * * * * * * * * * * * * * * * * * * * * * * * * * * * * * * * * * * * * * * * * * * * * * * * ",
"* * * * * * * * * * * * * * * * * * * * * * * * * * * * * * * * * * * * * * * * * * * * * * * * * * * * * * * * * * * * * * * * ",
"* * * * * * * * * * * * * * * * * * * * * * * * * * * * * * * * * * * * * * * * * * * * * 3 h * * * * * * * * * * * * * * * * * ",
"* * * * * * * * * * * * * * * * * * * * * * * * * * * * * * * * * * * * * * * * * * * * * * h h * * * * * * * * * * * * * * * * ",
"* * * * * * * * * * * * * * * * * * * * * * * * * * * * * * * * * * * * * * * * * * * * * * 3 3 3 * * * * * * * * * * * * * * * ",
"* * * * * * * * * * * * * * * * * * * * * * * * * * * * * * * * * * * * * * * * * * * * * * % 3 3 % 3 3 h h * * * * * * * * * * ",
"* * * * * * * * * * * * * * * * * * * * * * * * * * * * * * * * * * * * * * * * * * * * * * * } } 3 3 3 * * * * * * * * * * * * ",
"* * * * * * * * * * * * * * * * * * * * * * * * * * * * * * * * * * * * * * * * * * * * * * } j } 3 3 % * * * * * * * * * * * * ",
"* * * * * * * * * * * * * * * * * * * 3 h * * * * 3 3 * * * * * * * * * * * * * * * * * * * } } $ 3 % * * * * * * * * * * * * * ",
"* * * * * * * * * * * * * * * * * * * * h h * * 3 3 * * * * * * * * * * * * * * * * * * * * $ $ * * * * * * * * * * * * * * * * ",
"* * * * * * * * * * * * * * * * * * * * % 3 3 * 3 3 * * * * * * * * * * * * * * * * * * * * * * * * * * * * * * * * * * * * * * ",
"* * * * * * * * * * * * * * * * * * * * % 3 3 * % % * * * * * * * * * * * * * * * * * * * * * * * * * * * * * * * * * * * * * * ",
"* * * * * * * * * * * * * * * * * * * * * % % * * * * * * * * * * * * * * * * * * * * * * * * * * * * * * * * * * * * h * * * * ",
"* * * * * * * * < < < < < < < < < < < < < < < < < * * * * * * * * * * * * * * * * * * * * * * * * * * * * * * * * * h * * * * * ",
"* * * * * * * < / / / / / / / / / / / / / / / / / < * * * * * * * * * * * * * * * * * * * * * * * * * * * * * * * 3 3 * * * * * ",
"* * * * * * < ` / / / / / / / / / / / / / / / / / ` < * * * * * * * * * * * * * * * * * * * * * * * * * * * * * * 3 3 % * * * * ",
"* * * * * * < ` ( ( ( ( / / / / / / / / / / / / / ] < * * * * * * * * * * * * * * * * * * * * * * * * * * * * * * % % 3 h * * * ",
"* * * * * * < ` ( ( ( ( ( ( ( ( ( ( ( ( ( ( ( / / [ < * * * * * * * * * * * * * * * * * * * * * * * * * * * * * * * * 3 3 * * * ",
"* * * * * * < ` ( ( ( ( ( ( ( ( ( ( ( ( ( _ ) ( ( [ < * * * * * * * * * * * * * * * * * * * * * * * * * * * * * * * * % % * * * ",
"* * * * * * < ` ( ( ( _ _ _ _ _ _ _ _ ( _ _ _ _ _ { < * * * * * * * * * * * * * * * * * * * * * * * * * * * * * * * * * * * * * ",
"* * * * * * < ` _ _ _ _ ` ` ` ` ` ` ` _ _ _ _ _ _ { < * * * * * * * * * * * h h * * * * * h * * * * * * * * * * * * * * * * * * ",
"* * * * * * < ` _ _ _ _ ` ` ` ` ` ` ` ` ` _ _ _ _ { < * * * * * * * * * * * * h 3 3 * 3 h * * * * * * * * * * * * * * * * * * * ",
"* * * * * * < ` _ _ ` ` ` ` ` ` ` ` ` ` ` ` _ _ _ { < * * * * * * * * * 3 h h % 3 % 3 3 % * * * * * * * * * * * * * * * * * * * ",
"* * * * * * < ' ` ` ` p ` ` ` ` ` ` ` ` ` s ` ` ` { < * * * * * * * * * * h 3 3 } } 3 3 % * *  . .* * * * * * * * * * * * * * * ",
"* * * * * * < { ` ` i Q t ` ` ` ` ` ` ` i W t ` ` { < * * * * * * * * * * % 3 } j j } % * * * j  .* * * * * * * * * * * * * * * ",
"* * * * * * < { ` 0 Q Q Q 0 ` ` ` ` ` 0 W Q W w ` { < * * * * * * * * * * * % $ } } $  . .* * $ $ * * * * * * * * * * * * * * * ",
"* * * * * * < { ` q W a W r ` ` ` ` ` w W a W 0 ` { < * * * * * * * * * * * * * $ $  .j  .* * * * * * * * * * * * * * * * * * * ",
"* * * * * * : { 9 W a a a W 7 { { { 4 W a a a W 5 { < * * * * * * * * * * * * * * *  . .$ * * * * * * * * * * * * * * * * * * * ",
"* * * * * * ; ~ 8 T T T T T 8 P U U 6 E T T Y T 1 ^ ; * * * * * * * * * * * * * * * $ $ * * * * * * * * * * * * * * * * * * * * ",
"* * * * * * ; ! L P P P P P P P P P P P P I Y Y Y ~ ; * * * * * * * * * * * * * * * * * * * * * * * * * * * * * * * * * * * * * ",
"* * * * * * ; ! L L S S S L L L L L L P P P P P U ! ; * * * * * * * * * * * * * * * * * * * * * * * * * * * * * * * * * * * * * ",
"* * * * * * ; W A A A A A S A A A S A S S L P P P ! ; * * * * * * * * * * * * * * * * * * * * * * * * * * * * * * * * * * * * * ",
"* * * * * * ; W A e 0 8 0 0 r A A A e 0 8 r r y S ! ; * * * * * * * * * * * * * * * * * * * * * * * * * * * * * * * * * * * * * ",
"* * * * * * ; Y A A | H G | A A A A A | H G | A A ! ; * * * * * * * * * * * * * * * * * * * * * * * * * * * * * * * * * * * * * ",
"* * * * * * ; Y A A | K J | Z Z Z Z Z | K J | A A Q ; * * * * * * * * * * * * * * * * * * * * * * * * * * * * * * * * * * * * * ",
"* * * * * * ; Y Z Z Z Z Z Z Z Z Z V C C C Z Z C A W ; * * * * * * * * 3 3 * * * * * * * * * * * * * * * * * * * * * * * * * * * ",
"* * * * * * ; Y C C V V V V V V N N V V V V V V Z W ; * * * * * * * * & h h * * * * * * * * * * * * * * * * * * * * * * * * * * ",
"* * * * * * ; P V V V V V V V N 2 N N N N V V V V Y ; * * * * * * * * * h 3 3 * * * 3 * * * * * * * * * * * * * * * * * * * * * ",
"* * * * * h ; P V V V V V V N N , N N N N N N N V R ; * * * * * * * * * & 3 3 * h 3 * * * * * * * * * * * * * * * * * * * * * * ",
"* * * * * 3 - P V V V N N N N > N , N N N N N N V Y ; * * * * * * * * * & 3 3 3 F F * * * * * * * * * * * * h * * * * * * * * * ",
"* * * * * & # S N N N N N N : N N N > N N N N N V I ; * * * * * * * * * * & & F u u F * * * * * * * * * * 3 3 * * h h 3 * * * * ",
"* * * * * * # A N N N N N N N N N N N N N N N N N D ; * * * * * * * * * * * * $ F F $ k k * * * * * 3 * * 3 & * 3 3 h * * * * * ",
"* * * * * * # Z N N N N N N N N N N N N N N N N N D ; * * * * * * * * * * * * * $ $ * u k * * * * * * h 3 & * * 3 3 & * * * * * ",
"* * * * * * # Z N N N m m m m m m m m m m N N N N D ; * * * * * * * * * * * * * * * * $ $ * * * * * * 3 3 F F 3 3 & 3 h * * * * ",
"* * * * * * # Z N N m m m m n n m m m m n m N N m D ; * * * * * * * * * * * * * * * * * * * * * * * * * F u u F & 3 3 & * * * * ",
"* * * * * * # Z n n n n m m n n m m m n n n n m n A ; 3 * * * * * * * * * * * * * * * * * * * * * * * * $ F F $ & 3 & * * * * * ",
"* * * * * * # Z n n n n n n n n n n n n n n n n n Z ; 3 * * * * * * * * * * * * * * * * * * * * * * * * * $ $ * * k k * * * * * ",
"* * * * * * # Z n n n n n n n n n n n n n n n n n Z ; & * * * * * * * * * * * * * * * * * * h h 3 * * * * * * * k u u k * * * * ",
"* * * * * * # Z c c n n n n z n n n n n n n n n n Z ; * * * * * * * * * * * * * * * * * * * * h 3 3 * * * * * * $ k k $ * * * * ",
"* * * * h h @ N z c c v v v z z v v v n n n c v v B ; * * * * * * * * * * * * * * * * * * * * & 3 3 * * * * * F F $ $ * * * * * ",
"* * * * * h @ N z z z z z z z z z z z z c z z z c Z ; * * * * * * * * * * * * * * * * * * * * * & & * * * * F u F $ * * * * * * ",
"* * 3 h h & O N z l z z z z z z z z z z z z z z z N = * * * * * * * * * * * * * * * * * * * * * * * * * * * F F $ * * * * * * * ",
"* * * h 3  .O N l l l l z z z z z z z z z z z z l N + * * * * * * * * * * * * * * * * * * * * * * * * * * * $ $ * * * * * * * * ",
"* * * &  .j O N l l l l l l l l l l l z l l l l l M + * * * * * * * * * * * * * * * * * * * * * * * * * * * * * * * * * * * * * ",
"* * * * $  .O N f f f l l l l l l l l l l l f f f M + * * * * * * * * h h * * * * 3 3 * * * * * * * * * * * * * * * * * * * * * ",
"* * * * * $   M f f f f f f f f f f f f f f f f d M . * * * * * * * * * h 3 * F F 3 * * * * * * * * * * * * * * * * * * * h h * ",
"* * * * * * * X O O O O O O O O O O O O O O O O O o * * * * * * * * * * & 3 3 F u 3 * * * * * * * * * * * * * * 3 * * 3 3 h * * ",
"* * * * * * * * * * * $ } } $ * } } * * * * * * * * * * * * * * * * * * & 3 3 $ $ & * * * * * * * * * * * * * * h h & 3 3 & * * ",
"* * * * * * * * * * * * $ $ * * j } * * * * * * * * * * * * * * * * * * * & & * * * * * * * * * * * * * * * * * h 3 3 & & * * * ",
"* * * * * * * * * * * * * * * * $ $ * * * * * * * * * * * * * * * * * * * * * * * * * * * * * * * * * * * * * * & 3 3 * * * * * ",
"* * * * * * * * * * * * * * * * * * * * * * * * * * * * * * * * * * * * * * * * * * * * * * * * * * * * * * * * * * * * * * * * ",
"* * * * * * * * * * * * * * * * * * * * * * * * * * * * * * * * * * * * * * * * * * * * * * * * * * * * * * * * * * * * * * * * ",
"* * * * * * * * * * * * * * * * * * * * * * * * * * * * * * * * * * * * * * * * * * * * * * * * * * * * * * * * * * * * * * * * "
};
