/* XPM */
static char *right[] = {
/* columns rows colors chars-per-pixel */
"64 64 226 2 ",
"   c #0E162A",
".  c #0E182C",
"X  c #10172B",
"o  c #151B2D",
"O  c #191D2F",
"+  c #1B1E31",
"@  c #211F31",
"#  c #1C202E",
"$  c #1D2131",
"%  c #232334",
"&  c #2B2434",
"*  c #252835",
"=  c #2A2A37",
"-  c #272338",
";  c #2C253A",
":  c #262B3B",
">  c #2C2D39",
",  c #372937",
"<  c #32273E",
"1  c #34293C",
"2  c #2E303A",
"3  c #34343C",
"4  c #3B353E",
"5  c #482E3B",
"6  c #4C303C",
"7  c #51313C",
"8  c #5A343F",
"9  c #3B2B42",
"0  c #2C3242",
"q  c #3C3B42",
"w  c #393C44",
"e  c #422D46",
"r  c #433E43",
"t  c #493844",
"y  c #4B314B",
"u  c #593841",
"i  c #53344D",
"p  c #4C3E53",
"a  c #543550",
"s  c #593752",
"d  c #5D3854",
"f  c #603640",
"g  c #683B47",
"h  c #713D44",
"j  c #763E48",
"k  c #633A56",
"l  c #693C52",
"z  c #653C59",
"x  c #6A3D5B",
"c  c #444142",
"v  c #4A4446",
"b  c #4B4849",
"n  c #564347",
"m  c #554C4B",
"M  c #594E4E",
"N  c #4F504E",
"B  c #5C544D",
"V  c #4E515C",
"C  c #585653",
"Z  c #644649",
"A  c #7C444A",
"S  c #7B4252",
"D  c #74405B",
"F  c #7C435A",
"G  c #625452",
"H  c #635357",
"J  c #635A51",
"K  c #695D54",
"L  c #605F59",
"P  c #785B56",
"I  c #6F6355",
"U  c #67655C",
"Y  c #75635A",
"T  c #756659",
"R  c #7C6C5C",
"E  c #7F705D",
"W  c #565A68",
"Q  c #7A516C",
"!  c #716D62",
"~  c #71736A",
"^  c #646872",
"/  c #824248",
"(  c #8A464B",
")  c #914A4D",
"_  c #9C4B4E",
"`  c #85504F",
"'  c #894654",
"]  c #824559",
"[  c #8E4858",
"{  c #914952",
"}  c #9C4D57",
"|  c #944A58",
" . c #9A4D58",
".. c #8D5754",
"X. c #965855",
"o. c #A24F55",
"O. c #AC5255",
"+. c #A75758",
"@. c #B55555",
"#. c #B95656",
"$. c #B65858",
"%. c #B85C59",
"&. c #94665C",
"*. c #82725E",
"=. c #A7675E",
"-. c #BB635C",
";. c #BF685F",
":. c #836D62",
">. c #8A7763",
",. c #907766",
"<. c #917668",
"1. c #957A6A",
"2. c #9A7D6C",
"3. c #A16E61",
"4. c #B56C62",
"5. c #BE6C62",
"6. c #A87264",
"7. c #B97968",
"8. c #BC7D6A",
"9. c #C16D62",
"0. c #C07466",
"q. c #C17866",
"w. c #C17768",
"e. c #C47B6A",
"r. c #679175",
"t. c #79A863",
"y. c #9BB94E",
"u. c #BFBA5B",
"i. c #88826C",
"p. c #9B856A",
"a. c #9A896C",
"s. c #8A8577",
"d. c #9A957A",
"f. c #A38C6D",
"g. c #BD896D",
"h. c #A8916F",
"j. c #A48770",
"k. c #A49473",
"l. c #AC9372",
"z. c #A09B7D",
"x. c #B29575",
"c. c #B49A75",
"v. c #B99E77",
"b. c #BC9D79",
"n. c #BCA379",
"m. c #C6836E",
"M. c #C8856F",
"N. c #C98A6E",
"B. c #C88870",
"V. c #CC9877",
"C. c #C3A57B",
"Z. c #CFA17A",
"A. c #C6A97C",
"S. c #CAAC7E",
"D. c #D2A97D",
"F. c #8F8E90",
"G. c #A69886",
"H. c #AAA587",
"J. c #B6AA86",
"K. c #ACA994",
"L. c #ADAAA9",
"P. c #B1B0B2",
"I. c #C2AC82",
"U. c #CDAE80",
"Y. c #D3AD80",
"T. c #CBB187",
"R. c #D5B583",
"E. c #D8B784",
"W. c #D7B986",
"Q. c #DAB985",
"!. c #D7BA88",
"~. c #DABD8A",
"^. c #C8BC93",
"/. c #DABE93",
"(. c #DCC28E",
"). c #CBC397",
"_. c #DDC593",
"`. c #D9C697",
"'. c #D5CA9B",
"]. c #DED49F",
"[. c #E2C691",
"{. c #E2CB96",
"}. c #E4CE9B",
"|. c #E5D39D",
" X c #E9D49D",
".X c #D9CCAD",
"XX c #DFD6A3",
"oX c #E1CBA3",
"OX c #E3D4A2",
"+X c #EAD6A1",
"@X c #E6DCA4",
"#X c #EBDBA5",
"$X c #E6D2AA",
"%X c #EDDFA9",
"&X c #E4CFB0",
"*X c #E9D9B7",
"=X c #EEE1AA",
"-X c #EEE6AC",
";X c #F1E3AC",
":X c #F1EAAE",
">X c #EEE3B1",
",X c #F2E5B3",
"<X c #F3E9BA",
"1X c #F3E9BD",
"2X c #CECECD",
"3X c #D1CAC0",
"4X c #E5DCC5",
"5X c #EFE2C9",
"6X c #F4EAC3",
"7X c #F5EBC4",
"8X c #F6EDCC",
"9X c #EBE2D6",
"0X c #F6ECD6",
"qX c #F9F2D5",
"wX c #F7F3DA",
"eX c #F9F4DD",
"rX c #DFE0E2",
"tX c #E9E8E6",
"yX c #ECEDEE",
"uX c #F2ECE5",
"iX c #FAF7EB",
"pX c #EDEDF0",
"aX c #F3EFF3",
"sX c #F5F4F1",
"dX c #FDFBF3",
"fX c #FFFEFC",
/* pixels */
"y.y.y.y.y.u.u.u.u.u.u.u.u.u.o & 7 6 5 o O t.t.t.t.t.t.t.t.t.t.t.t.t.t.t.t.t.t.t.t.t.t.t.t.t.t.t.t.t.t.t.t.t.t.t.t.t.t.t.t.t.t.t.",
"y.y.y.y.y.y.u.u.u.u.u.u.o o X , ) @.u @ % + o X t.t.t.t.t.t.t.t.t.t.t.t.t.t.t.t.r.r.r.r.t.t.t.t.t.t.t.t.t.t.t.t.t.t.t.t.t.y.y.y.",
"y.y.u.u.u.u.u.u.u.u.u.O X X , u $.7.6.6.6.6.t 4 = X t.t.t.t.t.t.t.t.t.t.t.t.t.r.r.r.r.r.r.y.y.y.y.y.y.y.y.r.r.r.r.t.t.t.y.y.y.y.",
"u.u.u.u.u.u.u.u.u.O o o 6 h @.@.-.5.m.m.q.9.0.m.3.g f % t.t.t.t.t.t.t.r.r.r.t.r.r.r.r.r.r.r.r.r.r.r.y.y.r.r.r.r.r.r.r.t.y.y.y.y.",
"u.u.u.u.u.u.u.u.O X - y } #.%.0.w.w.m.w.-.%.0.m.m.m.q.&.= t.t.t.t.t.r.r.r.r.r.r.r.r.r.r.r.r.r.r.r.r.r.r.r.u.u.u.r.r.r.r.y.y.y.u.",
"y.y.y.y.y.u.u.o O @ 7 ( #.#.@.5.B.B.m.m.e.e.0.0.m.m.m.m.X.7 , t.t.r.r.r.r.r.u.u.u.u.r.r.r.r.u.u.u.u.r.r.u.u.u.u.u.r.r.r.r.u.u.u.",
"y.y.y.y.y.y.u.o + 1 O.@.#.@.@.;.M.M.M.M.B.m.0.%.5.m.m.m.9.) & o t.r.r.r.u.u.u.u.u.u.u.r.r.u.u.u.u.u.u.u.u.u.u.u.u.u.u.u.u.u.y.y.",
"y.y.y.y.y.y.y.o 9 k ' o.@.#.O.( ..&.&.3.M.m.m.7.-.=.7.m.M.8.t X r.r.r.u.u.u.u.u.u.u.u.r.u.u.u.u.u.u.u.u.u.u.u.u.u.u.u.u.u.u.y.y.",
"u.u.y.y.y.y.y.o 9 x  .@.@.g 5 o o o o > Z 3.B.m.M.X.Z =.M.M...f % r.u.u.u.u.u.u.u.u.u.u.u.u.u.u.u.u.u.u.u.u.u.u.u.u.u.u.u.u.y.u.",
"u.u.u.y.y.y.y.o d O.O.#.h % @ & - % o o X = &.B.m.e.Z 4 6.M.e.g O u.u.u.u.u.u.u.u.u.u.u.u.u.u.u.u.u.u.u.u.u.u.u.u.u.u.u.u.u.u.u.",
"u.u.u.y.y.y.u.+ s  .@.@.} x z z z z 9 o O o % ` q.m.e.8 , &.M.+.% o u.u.u.u.u.y.y.y.u.u.u.u.u.y.y.u.u.u.u.y.y.u.u.u.u.u.u.u.u.u.",
"u.u.u.y.y.u.u.o ; z F o.O.| x x x x x e o o o O A 0.m.+.O G 9.o.@ O y.u.u.u.y.y.y.y.y.u.u.y.y.y.y.y.y.u.y.y.y.y.u.u.u.u.u.u.u.u.",
"u.u.u.u.u.u.u.o + y D  . .x x x z x z 9 o o O X 5 o.4.=.@ ` +.x < o y.y.u.u.y.y.y.y.y.u.y.y.y.y.y.y.y.y.y.y.y.y.u.u.u.u.u.u.u.u.",
"u.u.u.u.u.u.u.u.o + < y z z z z z e < o O y.o o O g O.] s }  .x < O y.y.y.y.y.y.y.y.y.u.y.y.y.y.y.y.y.y.y.y.y.y.u.u.u.u.u.y.y.y.",
"y.y.y.y.y.y.y.y.y.o o + @ @ @ % % O o o y.y.y.O X h @.; @ S j - o y.y.y.y.y.y.y.y.y.y.y.y.y.y.y.y.y.y.y.y.y.y.y.y.y.y.y.y.y.y.y.",
"y.y.y.y.y.y.y.y.y.y.t.t.+ o o o o o t.y.t.t.t.o o h } e f @.u o u.y.y.y.y.y.y.y.y.y.y.y.y.y.y.y.y.y.y.y.y.y.y.y.y.y.y.y.y.y.y.y.",
"y.y.y.y.y.y.y.y.t.t.t.t.t.t.t.t.t.t.t.X o ; $ X o j y % u j O X . o y.y.y.y.y.y.y.y.y.y.t.t.t.y.y.y.y.y.y.y.y.y.y.y.y.y.y.y.y.y.",
"y.y.y.y.y.y.y.t.t.t.t.t.t.t.t.t.t.o $ b v Y > + y a @ X @ ; v K m O O # u.u.t.t.t.y.y.t.t.t.t.t.y.y.y.y.y.y.y.y.y.y.y.y.y.y.E.E.",
"y.y.y.y.y.t.t.t.t.t.t.y.y.y.y.y.O $ >.T.T.G.H p Q p 0 0 0 : L.eX9XP.W X o t.t.t.t.t.t.t.y.y.t.t.t.y.y.y.y.y.y.t.t.t.y.y.y.R.R.E.",
"y.y.y.t.t.t.t.t.t.t.y.y.y.y.y.o o X w P.3X4XyXpXaXpXyXpXpXpXuX9X4X! $ o o o y.y.t.t.t.y.y.y.y.t.t.t.y.y.y.y.t.t.t.t.t.y.R._./.f.",
"t.y.y.y.y.y.y.y.y.y.y.y.y.y.o o r G % + t I.8X8X8X8X*X*X*X*XOX{.`.d.,.:.= o y.y.y.y.y.y.y.y.y.y.y.y.y.y.y.t.t.t.t.t.t.R.`.uXG.$ ",
"t.t.t.t.y.y.y.y.y.y.y.y.y.O o X G 2.,.n.^.$X;X;X=X#X#X#X*X*X1X6X<X;X_.Q.h.$ O t.y.y.y.y.y.t.t.t.t.y.y.y.y.t.t.t.t.x.E.oXsXfX^   ",
"y.y.y.y.y.y.y.y.y.y.y.y.y.o o > ! 2.j.R.(.#X=X=X<X0X0XwXfXfXfXfXdX8X$X{.U.B o t.t.y.t.t.t.t.t.t.t.t.y.y.t.t.t.t.  *.*XdXfXeXU   ",
"y.y.y.y.y.y.y.y.r.r.r.r.O o O m 6.2.C.R.R.|.;X=X,X6X1X6X1XqXdXiXrXtX8X-X#Xc.* t.t.t.t.t.t.t.t.t.t.t.t.t.t.t.t.p.o K.fXfXdX<XU X ",
"y.y.y.y.y.y.y.r.r.r.r.r.o o 3 1.2.2.U.R.R.|.=X=X;X=X=X%X=X;X6X5X0 L [.%X;X+XR o t.t.t.t.t.t.t.t.t.t.t.t.t.t.t.n.s.eXfXfX5X:XU   ",
"y.y.y.y.y.r.r.r.u.u.u.u.o o 1 ,.2.p.U.R.R.~._.}.=X=X;X;X=X=X7X4X: = a.[.;X,Xi.X o t.t.y.y.t.t.y.y.y.t.t.t.t.C.`.6XwXfX&X(.-XU   ",
"y.y.r.r.r.r.u.u.u.u.u.u.o + 4 K 2.C.R.R.R.R.R.{.#X;X=X%X;XeXdXtX: X B U.5XqXs.X o t.t.y.y.y.y.y.y.y.y.t.t.o w .XeXwXuX~.(.|.U . ",
"u.r.r.u.u.u.u.u.u.u.u.o o % <.2.1.I.R.R.R.R.R.R.!.{.{.#X6XfXfXyX: O o a.(.=XT.R 2 u.u.y.y.y.y.y.y.y.y.t.t.o 0 sXeX*X(.~.|.k.w . ",
"u.u.u.u.u.u.u.u.u.u.t.o o * <.1.2.U.R.R.R.R.E.R.R.R.}.;X;X6X8X4X> o o *.D.}.eXs.O u.u.u.u.y.y.y.y.y.y.t.o o K.wX:X(.D.(.J.* X u.",
"o o o X y.y.u.u.t.t.t.O o * <.1.b.E.R.R.R.R.E.E.E.R.+X;X;X1XdXpX: o o % n.(.,XU X O u.u.y.y.y.y.y.y.t.t.. L XX:X|.W.Q.S.J o u.u.",
"O o K m X X y.y.y.y.y.o o * :.:.2.I.Y.Y.E.C.v.n.n.n.^.'.'..XrX^ $ O o + c b N 0 o o y.y.y.y.y.y.y.y.y.o $ J.:X X(.S.W.h.O o y.y.",
"o X B n.I v o y.y.y.y.o o O $ > Y 2.x.b.E.,.B % % % * * * * : o o o o o o X X X o o t.t.t.y.y.y.y.y.y.X ~ :X-XQ.W.W.U.4 o y.y.y.",
"o o o v A.S.B o o y.y.o o o = R 2.2.Y.E.R.E._.H.! % * o X X X X o O o o # $ C G.3 o o t.t.y.y.y.y.y.o w ).@Xi.S.(.S.E # o y.y.u.",
"o & & o 3 c.S.E $ o o o o X > :.2.j.Y.E.E.R.Q.#XOX'.).L C N m V O o o o : c..X7X! O o u.t.y.y.y.y.o $ i.:X! $ S.W.n.3 o y.y.u.u.",
"o 6 ) f * 2 p.D.>.* O o O o o v 2.l.x.x.x.U.R.R.~.{.%X=X%X1XwXsXF.$ o O R !.#X-XXX> o u.u.y.y.y.y.. w -X].b I D.W.K . u.u.u.u.u.",
"o 6 #.#._ h , i.v.h.R = $ X O $ B 1.1.<.l.R.R.R.R.R.}.%X%X>XeXdX2Xo o 0 C.&XiX1XOX> o u.u.u.y.y.o $ J.-Xn.3 v.(.a.* o y.u.u.u.u.",
"o 6 #.@.#.@.@.A m 1.j.l.E B O O O b 1.1.c.E.R.R.R.R.R.%X;X%X;X<X2X+ o p.(.0X7X+X(.: o u.u.u.y.y.o C =X'.m b S.S.B o y.y.y.y.u.y.",
"o 6 #.@.@.$.@.$.4.v.x.C.C.C.k.h.M : b v r p.R.R.R.R.R._.%X;X%XeX2XX + h. X=X=X#XI o O = * O o u.$ n.'.U m p.D.p.o O y.y.y.y.y.y.",
"o 6 #.@.@.@.@.@.V.C.I q * 3 z.k.n.].@XG.X % v.E.R.R.R.!.%X;X=X,X.X^ G.`.#X;X;X^.3   t 7.7.u O . E R.*.o I (.S.2 o t.y.y.y.y.y.y.",
"o 6 #.@.$.5.;.-.Z.W.W.l.*.E * O b ! (.d.o o B A.U.R.E.!.%X=X=X;XwXfXfX6X%X=X XC X , Z ..7.+.O 6 n.C.* > a.D.I # O t.t.t.t.t.t.y.",
"o 6 #.@.@.-.;.-.Y.(.(.~.W.R.C.*.$ $ S.p.. o o 2 2 T l.!.-X=X=X=X8X8X6X=X{.R.T $ $ 3.) & , h % *.Q.B + m x.x.= o t.t.t.t.t.t.t.t.",
"o 6 #.@.@.%.-.m.XX-X@X(.E.R.R.W.L $ '.a.. # o o X O $ I d.%X;X,X8X0X1X-XOXC ; - % 7.m.) & X r R.p.* ; 1.2.r o t.t.t.t.t.t.t.t.t.",
"o 6 @.@.@.@.-.m.V.=X X|.~.E.R.W.B # T.a.o o @ @ X O o X * b a.J.'.;XXX^.C @ z a & X.e.9._ , $ r * + Y 2.K + o o t.t.t.t.t.t.y.y.",
"o u ;.@.@.@.@.5.B._.~.]._.!.R.E.*.> C.a.o O s d 9 9 + o o X O # w d.C + o e x y 9 & ( #.@.O.u , o O M G q & $ X o y.y.y.y.y.y.y.",
". B D.V.-.%.@.%.5._.{. X=X!.R.E.x.4 n.p.. O / | x x s a 9 $ O o o X o + y F  .F d + @ 5 ( O.@.S y ; O X X y s A 8 o y.y.y.y.y.y.",
"o B Q.E.D.Z.m.5.-.R.~.R.W.R.R.E.l.B A.p.o o z @.@.| F x x k 9 ; o o % i x @. .x ; o $ w & & j ' ] z s < % $ y l 8 o y.u.u.u.u.u.",
"  B Q.Q.D.(.-X{.V.D.R.W.R.R.R.E.x.2.R.p.o o d O.@.@.@. .[ x D k y y s x | O.F y + * P 2.P M $ % 9 d x d ; o O o o O u.u.u.u.u.u.",
". v S.S.(.|.@X-X X;.7.Z.U.W.E.R.f.<.R.p.o O l | @.@.@.@.@.+.[ z z z x o.@.] 9 + o > 1.p.C.U.p.> . % ; y i d y $ o u.u.u.u.u.u.y.",
"# . *.(.D.(.{.=X=X7.;.-.7.N.D.Q.J Y E.p.X O S @.@.#.@.@.@.#.@.| [ [ o.o.' u o o o 1 1.x.E.E.W.l.B * X O ; e % o u.u.u.u.u.y.y.y.",
"r.. I D.E.E.(.|.|.N.m.e.%.0.0.N.J 3 C.p.X O d F [ O.@.#.@.$.#.#.#.#.@.{ < o o O o > :.x.R.E.E.R.R.r X o o o o O y.y.y.y.y.y.y.r.",
"r.# # f.Q.W.S.R.R.-.7.0.-.;.@.#.8 o 1.p.o O s x x x [  . . . . . .{ g - o o o o o o 3 :.x.C.R.W.l.2 o y.y.y.y.y.y.y.y.y.y.y.y.r.",
"u.u.o v n.E.E.E.R.N.%.;.$.@.#.#.8 o ,.:.o o ; 1 9 1 < < < < < < 9 - o o o O t.t.o + + > r r B B 2 o O y.y.y.y.y.y.y.y.u.u.r.r.r.",
"u.u.u.o 4 k.E.W.D.Z.@.@.@.@.@.#.u 1 <.M o o o o X o o o o o o o X o o o t.t.t.O + d y % X o X o o O y.y.y.y.y.y.y.u.u.u.u.u.u.u.",
"u.u.u.u.o > a.Q.(.D.0.@.@.@.#.) n :.b O o O o o o t.y.y.y.o o O o o t.t.t.t.t.o O e x 9 X O y.y.y.y.y.y.y.y.y.u.u.u.u.u.u.u.u.u.",
"u.u.y.y.y.o $ *.D.(.V.@.#.#./ & C r o o O o O o o y.y.y.y.O o o o O t.t.t.t.t.o o O - + o y.y.y.y.y.y.y.y.y.u.u.u.y.y.y.u.u.u.u.",
"y.y.y.y.y.y.o O I S.V.@.@.h O 3 3 o O t.t.o o o o t.t.t.t.o O o O t.t.t.t.y.y.t.t.o o o y.y.y.y.y.y.y.y.u.u.u.u.y.y.y.y.y.u.u.u.",
"y.y.y.y.y.y.y.o # B g.O.8 2 m o o t.t.t.t.o o O o t.t.t.t.O o o t.t.t.t.y.y.y.y.y.t.t.t.t.t.y.y.y.y.y.y.y.y.y.y.y.y.y.y.y.y.y.y.",
"y.y.y.y.y.y.t.t.o o 5 7 $ R B O y.y.y.o o O O o O t.t.t.o o O O o o t.t.y.y.y.y.y.y.y.y.y.y.y.y.y.y.y.y.y.y.y.y.y.y.y.y.y.y.y.y.",
"y.y.y.y.y.y.y.y.y.t.O o o 4 o y.y.y.y.y.t.t.y.y.y.t.t.t.t.t.t.t.y.y.t.t.y.y.y.y.y.y.y.y.y.y.y.y.y.y.y.y.y.y.t.t.t.y.y.y.y.y.y.y.",
"y.y.y.y.y.y.y.y.y.y.y.O o o t.y.y.y.y.y.t.y.y.y.y.y.y.t.t.t.t.y.y.y.y.t.t.y.y.y.y.y.y.y.y.y.y.y.y.y.y.y.y.t.t.t.t.t.y.y.y.y.y.y.",
"y.y.y.y.y.y.u.u.y.y.y.y.y.y.y.y.y.y.y.y.y.y.y.y.y.y.y.y.y.y.y.y.y.y.y.y.y.y.y.y.y.y.y.y.y.y.t.t.t.y.y.y.t.t.t.t.t.t.y.y.y.y.y.y.",
"y.y.y.y.y.u.u.u.u.y.y.y.y.u.u.u.u.y.y.y.y.y.y.y.y.y.y.y.y.y.y.y.y.y.y.y.y.y.y.y.y.y.y.y.y.t.t.t.t.t.t.t.t.t.t.t.t.t.y.y.y.y.y.y.",
"y.y.y.u.u.u.u.u.u.u.u.u.u.u.u.u.u.u.u.y.y.y.y.y.y.y.y.t.t.t.t.y.y.y.y.y.y.y.y.y.y.y.y.y.t.t.t.t.t.t.t.t.t.t.t.t.t.t.t.t.t.y.y.y.",
"t.t.u.u.u.u.u.u.u.u.u.u.u.u.u.u.t.t.t.t.y.y.t.t.t.t.t.t.t.t.t.t.t.y.y.t.t.t.t.y.y.y.y.t.t.t.t.t.t.t.t.t.t.t.t.t.t.t.t.t.t.t.t.t."
};
