/* XPM */
static const char *test[] = {
/* columns rows colors chars-per-pixel */
"64 64 222 2 ",
"   c #0E162A",
".  c #0E182C",
"X  c #10172B",
"o  c #151B2D",
"O  c #191D2F",
"+  c #1B1E31",
"@  c #211F31",
"#  c #1D2131",
"$  c #232334",
"%  c #2B2434",
"&  c #252835",
"*  c #2A2A37",
"=  c #272338",
"-  c #2C253A",
";  c #262B3B",
":  c #2C2D39",
">  c #372937",
",  c #32273E",
"<  c #34293C",
"1  c #2E303A",
"2  c #34343C",
"3  c #3B353E",
"4  c #482E3B",
"5  c #4C303C",
"6  c #51313C",
"7  c #5A343F",
"8  c #3B2B42",
"9  c #2C3242",
"0  c #3C3B42",
"q  c #393C44",
"w  c #422D46",
"e  c #433E43",
"r  c #493844",
"t  c #4B314B",
"y  c #593841",
"u  c #53344D",
"i  c #4C3E53",
"p  c #543550",
"a  c #593752",
"s  c #5D3854",
"d  c #663A45",
"f  c #713D44",
"g  c #763E48",
"h  c #633A56",
"j  c #693C52",
"k  c #653C59",
"l  c #6A3D5B",
"z  c #444142",
"x  c #4A4446",
"c  c #4B4849",
"v  c #564347",
"b  c #554C4B",
"n  c #594E4E",
"m  c #4F504E",
"M  c #5C544D",
"N  c #4E515C",
"B  c #585653",
"V  c #644649",
"C  c #7C444A",
"Z  c #7B4252",
"A  c #74405B",
"S  c #7C435A",
"D  c #625653",
"F  c #635357",
"G  c #635A51",
"H  c #695D54",
"J  c #785B56",
"K  c #6F6355",
"L  c #67655C",
"P  c #75635A",
"I  c #756659",
"U  c #7C6C5C",
"Y  c #7F705D",
"T  c #565A68",
"R  c #7A516C",
"E  c #716D62",
"W  c #71736A",
"Q  c #646872",
"!  c #824248",
"~  c #8A464B",
"^  c #914A4D",
"/  c #9C4B4E",
"(  c #85504F",
")  c #894654",
"_  c #824559",
"`  c #8E4858",
"'  c #914952",
"]  c #9C4D57",
"[  c #944A58",
"{  c #9A4D58",
"}  c #8D5754",
"|  c #965855",
" . c #A24F55",
".. c #AC5255",
"X. c #A75758",
"o. c #B55555",
"O. c #B95656",
"+. c #B65858",
"@. c #B85C59",
"#. c #94665C",
"$. c #82725E",
"%. c #A7675E",
"&. c #BB635C",
"*. c #BF685F",
"=. c #836D62",
"-. c #8A7763",
";. c #907766",
":. c #917668",
">. c #957A6A",
",. c #9A7D6C",
"<. c #A16E61",
"1. c #B56C62",
"2. c #BE6C62",
"3. c #A87264",
"4. c #BA7B69",
"5. c #C16D62",
"6. c #C07466",
"7. c #C17866",
"8. c #C17768",
"9. c #C47B6A",
"0. c #679175",
"q. c #79A863",
"w. c #9BB94E",
"e. c #BFBA5B",
"r. c #88826C",
"t. c #9B856A",
"y. c #9A896C",
"u. c #8A8577",
"i. c #9A957A",
"p. c #A38C6D",
"a. c #BD896D",
"s. c #A8916F",
"d. c #A48770",
"f. c #A49473",
"g. c #AC9372",
"h. c #A09B7D",
"j. c #B29575",
"k. c #B49A75",
"l. c #B99E77",
"z. c #BC9D79",
"x. c #BCA379",
"c. c #C5826E",
"v. c #C6846F",
"b. c #C8856F",
"n. c #C98A6E",
"m. c #C88870",
"M. c #CC9877",
"N. c #C3A57B",
"B. c #CFA17A",
"V. c #C6A97C",
"C. c #CAAC7E",
"Z. c #D2A97D",
"A. c #8F8E90",
"S. c #A69886",
"D. c #AAA587",
"F. c #B6AA86",
"G. c #ACA994",
"H. c #ADAAA9",
"J. c #B1B0B2",
"K. c #C2AC82",
"L. c #CDAE80",
"P. c #D3AD80",
"I. c #CBB187",
"U. c #D5B583",
"Y. c #D8B784",
"T. c #D7B986",
"R. c #DAB985",
"E. c #D7BA88",
"W. c #DABD8A",
"Q. c #C8BC93",
"!. c #DABE93",
"~. c #DCC28E",
"^. c #DDC593",
"/. c #D9C697",
"(. c #D1C99A",
"). c #D5CA9B",
"_. c #E2C691",
"`. c #E2CB96",
"'. c #E4CE9B",
"]. c #E5D39D",
"[. c #E9D49D",
"{. c #D9CCAD",
"}. c #DFD6A3",
"|. c #E1CBA3",
" X c #E3D4A2",
".X c #EAD6A1",
"XX c #E6DCA4",
"oX c #EBDBA5",
"OX c #E6D2AA",
"+X c #EDDFA9",
"@X c #E4CFB0",
"#X c #E9D9B7",
"$X c #EEE1AA",
"%X c #EEE6AC",
"&X c #F1E3AC",
"*X c #F1EAAE",
"=X c #EEE3B1",
"-X c #F2E5B3",
";X c #F3E9BA",
":X c #F3E9BD",
">X c #CECECD",
",X c #D1CAC0",
"<X c #DADADA",
"1X c #E5DCC5",
"2X c #EFE2C9",
"3X c #F4EAC3",
"4X c #F5EBC4",
"5X c #F6EDCC",
"6X c #EBE2D6",
"7X c #F6ECD6",
"8X c #F9F2D5",
"9X c #F7F3DA",
"0X c #F9F4DD",
"qX c #DFE0E2",
"wX c gray92",
"eX c #F2ECE5",
"rX c #FAF7EB",
"tX c #EDEDF0",
"yX c #F3EFF3",
"uX c #F5F4F1",
"iX c #FDFBF3",
"pX c #FFFEFC",
/* pixels */
"w.w.w.w.w.e.e.e.e.e.e.e.e.e.o % 6 5 4 O o q.q.q.q.q.q.q.q.q.q.q.q.q.q.q.q.q.q.q.q.q.q.q.q.q.q.q.q.q.q.q.q.q.q.q.q.q.q.q.q.q.q.q.",
"w.w.w.w.w.w.e.e.e.e.e.e.o o o % ^ o.y # # # o o q.q.q.q.q.q.q.q.q.q.q.q.q.q.q.q.0.0.0.0.q.q.q.q.q.q.q.q.q.q.q.q.q.q.q.q.q.w.w.w.",
"w.w.e.e.e.e.e.e.e.e.e.o o o > y ..6.3.3.3.<.r 3 * o q.q.q.q.q.q.q.q.q.q.q.q.q.0.0.0.0.0.0.w.w.w.w.w.w.w.w.0.0.0.0.q.q.q.w.w.w.w.",
"e.e.e.e.e.e.e.e.e.o o o 4 f ..o.&.2.c.b.9.2.2.c.<.V d $ q.q.q.q.q.q.q.0.0.0.q.0.0.0.0.0.0.0.0.0.0.0.w.w.0.0.0.0.0.0.0.q.w.w.w.w.",
"e.e.e.e.e.e.e.e.o o $ u ] O.@.6.6.8.c.9.&.@.6.c.v.9.9.#.* q.q.q.q.q.0.0.0.0.0.0.0.0.0.0.0.0.0.0.0.0.0.0.0.e.e.e.0.0.0.0.w.w.w.e.",
"w.w.w.w.w.e.e.o o $ 6 ~ O.o.o.2.v.v.v.c.c.c.6.6.c.v.v.c.| 6 > q.q.0.0.0.0.0.e.e.e.e.0.0.0.0.e.e.e.e.0.0.e.e.e.e.e.0.0.0.0.e.e.e.",
"w.w.w.w.w.w.e.o + > ..o.o.o.o.*.b.b.b.b.c.c.6.@.2.c.v.c.5.^ % o q.0.0.0.e.e.e.e.e.e.e.0.0.e.e.e.e.e.e.e.e.e.e.e.e.e.e.e.e.e.w.w.",
"w.w.w.w.w.w.w.o 8 h ) ] O.O...~ } #.#.<.b.v.v.9.&.%.4.v.c.4.r . 0.0.0.e.e.e.e.e.e.e.e.0.e.e.e.e.e.e.e.e.e.e.e.e.e.e.e.e.e.e.w.w.",
"e.e.w.w.w.w.w.o 8 l { o.o.d 4 o o o o * V <.b.c.v.| V %.v.b.} d + 0.e.e.e.e.e.e.e.e.e.e.e.e.e.e.e.e.e.e.e.e.e.e.e.e.e.e.e.e.w.e.",
"e.e.e.w.w.w.w.o s  ...O.f = $ = = = o o o * #.v.v.9.v > 3.b.9.V O e.e.e.e.e.e.e.e.e.e.e.e.e.e.e.e.e.e.e.e.e.e.e.e.e.e.e.e.e.e.e.",
"e.e.e.w.w.w.e.o a { o.o.{ l k k k k 8 o o o $ ( 6.v.4.y > #.b.X.$ o e.e.e.e.e.w.w.w.e.e.e.e.e.w.w.e.e.e.e.w.w.e.e.e.e.e.e.e.e.e.",
"e.e.e.w.w.e.e.o - k _  ...[ k k k k k w o o o O f 6.c.X.o V 2. .@ o w.e.e.e.w.w.w.w.w.e.e.w.w.w.w.w.w.e.w.w.w.w.e.e.e.e.e.e.e.e.",
"e.e.e.e.e.e.e.o O t A { { A k k k l k 8 o o o o 4 ] 1.%.% ( X.l , o w.w.e.e.w.w.w.w.w.e.w.w.w.w.w.w.w.w.w.w.w.w.e.e.e.e.e.e.e.e.",
"e.e.e.e.e.e.e.e.o + , t k k k k k w - o o w.o o # j ..Z u { { k , o w.w.w.w.w.w.w.w.w.e.w.w.w.w.w.w.w.w.w.w.w.w.e.e.e.e.e.w.w.w.",
"w.w.w.w.w.w.w.w.w.o o + $ $ $ $ $ O o o w.w.w.o o f o.% = C Z = o w.w.w.w.w.w.w.w.w.w.w.w.w.w.w.w.w.w.w.w.w.w.w.w.w.w.w.w.w.w.w.",
"w.w.w.w.w.w.w.w.w.w.q.q.o o o o o o q.w.q.q.q.o o f { w d O.5 o e.w.w.w.w.w.w.w.w.w.w.w.w.w.w.w.w.w.w.w.w.w.w.w.w.w.w.w.w.w.w.w.",
"w.w.w.w.w.w.w.w.q.q.q.q.q.q.q.q.q.q.q.o o & + o O g r $ y g O X o o w.w.w.w.w.w.w.w.w.w.q.q.q.w.w.w.w.w.w.w.w.w.w.w.w.w.w.w.w.w.",
"w.w.w.w.w.w.w.q.q.q.q.q.q.q.q.q.q.o # x x P : + t p @ X = - x H b o o o e.e.q.q.q.w.w.q.q.q.q.q.w.w.w.w.w.w.w.w.w.w.w.w.w.w.U.U.",
"w.w.w.w.w.q.q.q.q.q.q.w.w.w.w.w.o # -.I.I.S.F e R i 9 9 9 ; H.0X6XJ.T X o q.q.q.q.q.q.q.w.w.q.q.q.w.w.w.w.w.w.q.q.q.w.w.w.U.U.R.",
"w.w.w.q.q.q.q.q.q.q.w.w.w.w.w.o o o q H.,X2XtXtXyXtXtXtXtXtXeX7X1XE # o o o w.w.q.q.q.w.w.w.w.q.q.q.w.w.w.w.q.q.q.q.q.w.U.^.^.p.",
"q.w.w.w.w.w.w.w.w.w.w.w.w.w.o o e D $ # z F.4X5X5X5X#X#X#X#X X'.~.i.r.$.: o w.w.w.w.w.w.w.w.w.w.w.w.w.w.w.q.q.q.q.q.q.U./.eXA.$ ",
"q.q.q.q.w.w.w.w.w.w.w.w.w.o o o D ,.;.x.Q. X&X$X$X+X.X.X#X#X;X:X:X&X_.Y.s.+ o q.w.w.w.w.w.q.q.q.q.w.w.w.w.q.q.q.q.j.U.|.rXpXQ   ",
"w.w.w.w.w.w.w.w.w.w.w.w.w.o o : U ,.d.U.~.oX$X$X;X8X8X9XpXpXpXpXpX5XOX`.L.M o q.q.w.q.q.q.q.q.q.q.q.w.w.q.q.q.q.  $.#XiXpX0XL X ",
"w.w.w.w.w.w.w.w.0.0.0.0.o o o b ,.,.N.U.U.].&X$X-X3X3X3X:X8XiXrXqXwX5X$X.Xj.& q.q.q.q.q.q.q.q.q.q.q.q.q.q.q.q.t.# G.pXpXiX;XL X ",
"w.w.w.w.w.w.w.0.0.0.0.0.o o 2 >.>.,.L.U.U.].&X$X$X$X$X$X$X$X4X1X9 G `.+X&X.XU X q.q.q.q.q.q.q.q.q.q.q.q.q.q.q.k.y.9XpXiX2X*XL X ",
"w.w.w.w.w.0.0.0.e.e.e.e.o o < :.>.t.L.U.U.W.^.'.$X$X$X$X$X$X4X1X; * y._.=X-Xr.X o q.q.w.w.q.q.w.w.w.q.q.q.q.N.!.3X9XpX@X~.*XL X ",
"w.w.0.0.0.0.e.e.e.e.e.e.o + 0 H ,.N.U.U.U.U.U.'.oX&X$X$X-X9XiXwX; X M L.2X8Xu.  o q.q.w.w.w.w.w.w.w.w.q.q.o 2 @X0X9XeXW.W.[.L X ",
"e.0.0.e.e.e.e.e.e.e.e.o o & :.>.>.N.U.U.U.U.U.U.W.`.`.+X3XpXpXwX; o o p.W.&XI.U : e.e.w.w.w.w.w.w.w.w.q.q.o 9 yX0X#X!.W. Xf.q o ",
"e.e.e.e.e.e.e.e.e.e.q.o o & :.>.t.C.U.U.U.U.U.U.U.U.'.$X&X3X5X#X; o o $.U.|.0Xu.O e.e.e.e.w.w.w.w.w.w.q.o o D.0X=X~.U.W.F.$ o e.",
"o o o o w.w.e.e.q.q.q.o o & :.>.z.U.U.U.U.U.U.U.U.U..X&X&X:XiXtX; o o # l.~.-XL X o e.e.w.w.w.w.w.w.q.q.o B }.*X].U.U.C.G o e.e.",
"o o G b o X w.w.w.w.w.o o $ =.=.,.N.L.L.U.N.l.x.x.x.Q.).).{.<XQ + o o O e c m 1 o o w.w.w.w.w.w.w.w.w.o # F.*XXXW.U.U.s.O o w.w.",
"o o M x.K x o w.w.w.w.o o o # : P t.g.z.Y.-.M & $ $ $ & & ; ; o o o o o o o X X o o q.q.q.w.w.w.w.w.w.  W %X%XE.U.U.L.2 o w.w.w.",
"o o o x N.C.M o o w.w.o o o * U ,.,.L.U.U.U.^.D.E $ $ o X X X X o o o o o # B S.2 o o q.q.w.w.w.w.w.o q (.XXr.L.U.Y.U # o w.w.e.",
"o $ % . 2 g.U.I # o o o o o : =.,.d.U.U.U.U.W..X X).(.G m m m N o o o o * k.{.4XE O o e.q.w.w.w.w.o # r.*XE $ V.U.l.2 o w.w.e.e.",
"o 6 ^ d $ : t.U.-.$ O o o o o x ,.g.j.j.j.C.U.U.W.`.+X$X$X:X9XuXA.O o O U T..X&X X* o e.e.w.w.w.w.o q $X).m K U.R.G X e.e.e.e.e.",
"o 5 O.O./ g > ;.k.s.U * + o o # D >.>.>.g.U.U.U.U.U.].$X$X-X0XiX<X+ o 2 N.@XrX3X X* o e.e.e.w.w.o # F.$XD.2 k.R.y.$ o w.e.e.e.e.",
"o 6 O.o.O.o.o.C b >.d.j.$.M + o o c :.>.k.R.U.U.U.U.T.+X$X$X$X;X>X+ o t.W.8X5X.X~.* o e.e.e.w.w.o M XX).n c V.C.M o w.w.w.w.e.w.",
"o 6 O.o.o.o.o.+.1.z.j.N.V.N.f.f.M * c c e t.U.U.U.U.U.^.$X$X$X9X>XX O p.[.$X$XoXK O + & & o o e.$ j.).L n t.R.t.o o w.w.w.w.w.w.",
"o 5 O.o.o.o.o.o.M.N.H z # 2 h.f.x.}.XXi.  $ l.U.U.U.U.E.+X$X$X-X{.Q S./.+X$X&XQ.2   r 4.4.y O X U U.-.o K U.V.: o q.w.w.w.w.w.w.",
"o 5 O.o.+.2.2.@.M.U.Y.g.-.U $ o c W ~.f.o o M V.C.U.Y.E.+X$X$X&X0XpXpX3X+X$X.XB X % d ( 4.X.O e l.V.& * t.R.K O o q.q.q.q.q.q.w.",
"o 6 O.o.o.&.2.&.P.~.~.W.R.U.x.-.$ O L.t.o o o 1 : I g.E.&X$X$X$X5X5X3X$X`.U.I # # %.^ % * f $ $.R.M O b j.j.* o q.q.q.q.q.q.q.q.",
"o 6 O.o.o.@.2.9.'.%XoX~.U.U.U.R.G # ).t.o o o o o o # K h.+X$X&X8X8X:X&X}.G = = $ 4.9.} % o z U.t.* * >.,.e o q.q.q.q.q.q.q.q.q.",
"o 6 O.o.o.o.&.9.M.$XXX].W.U.U.R.G # L.t.o o $ # o o o o $ c y.K.).&X}.Q.m $ h p = | 9.2./ > # e & + P t.H # o o q.q.q.q.q.q.w.w.",
"o v *.o.o.o.o.2.m.^.W.`.^.T.U.R.$.* N.t.o o p s 8 8 + o o o O # q i.B # o w l t , % ~ O.O...7 > o + M D 0 = + o o w.w.w.w.w.w.w.",
"X M Z.M.&.+.o.@.2.^.`.].$XW.U.U.j.0 N.t.o O ! [ A l p t w + o o o o o + t S { S s + $ 4 ~ ..o.Z u = + o o t a C 7 o w.w.w.w.w.w.",
"X M R.U.P.B.v.2.&.U.T.U.T.U.U.U.j.n V.t.o o j o.o.[ S l k h w - o o $ u A o.{ k - o $ 0 & % C ) _ h a , = + t j 7 o w.e.e.e.e.e.",
"X M R.U.U.^.%X'.M.Z.U.U.U.U.U.U.j.,.U.t.o o h ..o.o.o.{ ` l k k t w a l [ ..S t + $ J ,.P n # $ 8 a k s - o + o o o e.e.e.e.e.e.",
"o x V.U.T.].XX$X X2.7.B.U.T.U.U.d.:.U.t.o O j [ o.o.o.O.o...` k l l l ] o._ w + o : >.t.N.L.t.*   + - u u s t + o e.e.e.e.e.e.w.",
"o o Y R.U.W.`.oX$X8.2.&.7.n.U.R.G P U.t.o O Z o.o.o.o.o.o.o.o.[ ` `  .] ` 6 o o o : >.k.U.U.R.g.M & o o - w # o e.e.e.e.e.w.w.w.",
"0.o K U.U.T.~.].oXm.v.9.@.2.2.n.G 2 N.t.o o a S ` ..o.O.O.O.O.O.O.O.o.' < o o o o * -.j.U.U.U.U.U.e o o o o o o w.w.w.w.w.w.w.0.",
"0.o + p.R.U.U.U.U.&.9.6.@.2.o.O.7 o t.t.o o a l k l ` { { { { { { ' d - o o o o o o 2 =.j.N.U.R.g.2 o w.w.w.w.w.w.w.w.w.w.w.w.0.",
"e.e.o x x.Y.U.U.U.n.@.&.@.o.o.O.7 o :.=.o o - , , , , , , , , , , = o o o o q.q.o + o : e e M M 2 o o w.w.w.w.w.w.w.w.e.e.0.0.0.",
"e.e.e.o 2 g.U.U.U.B.o.o.o.o.o.O.7 2 ;.b o o o o o o o o o o o o o o o o q.q.q.o + s t + o o o o o o w.w.w.w.w.w.w.e.e.e.e.e.e.e.",
"e.e.e.e.o * t.U.U.P.7.o.o.o.O.~ v =.c O o o o o o q.w.w.w.o o o o o q.q.q.q.q.o O w k 8 o o w.w.w.w.w.w.w.w.w.e.e.e.e.e.e.e.e.e.",
"e.e.w.w.w.o $ -.U.T.M.o.o.O.! * M e o o o o o o o w.w.w.w.o o o o o q.q.q.q.q.o o o = + o w.w.w.w.w.w.w.w.w.e.e.e.w.w.w.e.e.e.e.",
"w.w.w.w.w.w.o O K U.M.o.o.f O 2 2 o o q.q.o o o o q.q.q.q.o o o o q.q.q.q.w.w.q.q.o o o w.w.w.w.w.w.w.w.e.e.e.e.w.w.w.w.w.e.e.e.",
"w.w.w.w.w.w.w.o o M a.o.d : n o o q.q.q.q.o o o o q.q.q.q.o o o q.q.q.q.w.w.w.w.w.q.q.q.q.q.w.w.w.w.w.w.w.w.w.w.w.w.w.w.w.w.w.w.",
"w.w.w.w.w.w.q.q.o o 4 6 O P n o w.w.w.o o o o o o q.q.q.o o o o o o q.q.w.w.w.w.w.w.w.w.w.w.w.w.w.w.w.w.w.w.w.w.w.w.w.w.w.w.w.w.",
"w.w.w.w.w.w.w.w.w.q.o o o 3 O w.w.w.w.w.q.q.w.w.w.q.q.q.q.q.q.q.w.w.q.q.w.w.w.w.w.w.w.w.w.w.w.w.w.w.w.w.w.w.q.q.q.w.w.w.w.w.w.w.",
"w.w.w.w.w.w.w.w.w.w.w.o o o q.w.w.w.w.w.q.w.w.w.w.w.w.q.q.q.q.w.w.w.w.q.q.w.w.w.w.w.w.w.w.w.w.w.w.w.w.w.w.q.q.q.q.q.w.w.w.w.w.w.",
"w.w.w.w.w.w.e.e.w.w.w.w.w.w.w.w.w.w.w.w.w.w.w.w.w.w.w.w.w.w.w.w.w.w.w.w.w.w.w.w.w.w.w.w.w.w.q.q.q.w.w.w.q.q.q.q.q.q.w.w.w.w.w.w.",
"w.w.w.w.w.e.e.e.e.w.w.w.w.e.e.e.e.w.w.w.w.w.w.w.w.w.w.w.w.w.w.w.w.w.w.w.w.w.w.w.w.w.w.w.w.q.q.q.q.q.q.q.q.q.q.q.q.q.w.w.w.w.w.w.",
"w.w.w.e.e.e.e.e.e.e.e.e.e.e.e.e.e.e.e.w.w.w.w.w.w.w.w.q.q.q.q.w.w.w.w.w.w.w.w.w.w.w.w.w.q.q.q.q.q.q.q.q.q.q.q.q.q.q.q.q.q.w.w.w.",
"q.q.e.e.e.e.e.e.e.e.e.e.e.e.e.e.q.q.q.q.w.w.q.q.q.q.q.q.q.q.q.q.q.w.w.q.q.q.q.w.w.w.w.q.q.q.q.q.q.q.q.q.q.q.q.q.q.q.q.q.q.q.q.q."
};
