/* XPM */
static char *up[] = {
/* columns rows colors chars-per-pixel */
"64 64 198 2 ",
"   c #0F162A",
".  c #10172A",
"X  c #151B2D",
"o  c #191D2F",
"O  c #1C1E31",
"+  c #201F30",
"@  c #1D2131",
"#  c #232434",
"$  c #2A2437",
"%  c #252936",
"&  c #292A37",
"*  c #2C243A",
"=  c #2C2D39",
"-  c #332635",
";  c #32273D",
":  c #342B3C",
">  c #3C2B3C",
",  c #2E323C",
"<  c #33323B",
"1  c #3A343D",
"2  c #3B393E",
"3  c #432D39",
"4  c #4C2E3B",
"5  c #4E313C",
"6  c #56343E",
"7  c #382740",
"8  c #3B2B42",
"9  c #353940",
"0  c #3D3A41",
"q  c #432E46",
"w  c #423D42",
"e  c #4B3A41",
"r  c #473049",
"t  c #4A314A",
"y  c #553640",
"u  c #53344F",
"i  c #563651",
"p  c #5A3752",
"a  c #5F3956",
"s  c #613740",
"d  c #663A48",
"f  c #723D47",
"g  c #613A57",
"h  c #643B58",
"j  c #6B3E5C",
"k  c #703F5B",
"l  c #3E4045",
"z  c #454145",
"x  c #4B4546",
"c  c #4E4947",
"v  c #4D4548",
"b  c #564749",
"n  c #544A4B",
"m  c #4F514E",
"M  c #5D534E",
"N  c #5E5150",
"B  c #5F5E57",
"V  c #684548",
"C  c #654A4B",
"Z  c #694C4C",
"A  c #7B4248",
"S  c #60574F",
"D  c #61584F",
"F  c #74405A",
"G  c #7C435A",
"H  c #655653",
"J  c #635A51",
"K  c #6A5A56",
"L  c #6E5D58",
"P  c #795652",
"I  c #715F59",
"U  c #6D6155",
"Y  c #65655C",
"T  c #74635B",
"R  c #7A665D",
"E  c #746959",
"W  c #7C6B5C",
"Q  c #4E5360",
"!  c #676762",
"~  c #757367",
"^  c #7F7B73",
"/  c #824248",
"(  c #94494D",
")  c #9A4B4E",
"_  c #874659",
"`  c #894758",
"'  c #8D4859",
"]  c #994C56",
"[  c #9D4D56",
"{  c #954B58",
"}  c #895A55",
"|  c #A14E55",
" . c #A55055",
".. c #AC5254",
"X. c #A55B58",
"o. c #B55555",
"O. c #B95656",
"+. c #B95857",
"@. c #B95D59",
"#. c #90645B",
"$. c #82725E",
"%. c #A1635B",
"&. c #BB635D",
"*. c #856D62",
"=. c #8C7366",
"-. c #887764",
";. c #917A66",
":. c #977B6B",
">. c #997C6C",
",. c #BB6D62",
"<. c #A97364",
"1. c #B27767",
"2. c #BF7265",
"3. c #B37867",
"4. c #BC7C6A",
"5. c #C17466",
"6. c #C17768",
"7. c #C37D6B",
"8. c #679175",
"9. c #79A863",
"0. c #9BB94E",
"q. c #BFBA5B",
"w. c #958167",
"e. c #968468",
"r. c #9D836C",
"t. c #9D886A",
"y. c #908D7B",
"u. c #989479",
"i. c #A1846F",
"p. c #A58D6F",
"a. c #A68A71",
"s. c #AA8D73",
"d. c #A69677",
"f. c #AD9372",
"g. c #B29475",
"h. c #B49975",
"j. c #BD9F7A",
"k. c #BBA077",
"l. c #BEA17B",
"z. c #C5836E",
"x. c #CA8670",
"c. c #C2A47B",
"v. c #C6A87D",
"b. c #C9AB7E",
"n. c #7B7F8A",
"m. c #81848E",
"M. c #A59E84",
"N. c #AFAB8E",
"B. c #B3AA85",
"V. c #B2B3B6",
"C. c #CBAE81",
"Z. c #CEB081",
"A. c #D5B583",
"S. c #D8B785",
"D. c #D7B986",
"F. c #D9B985",
"G. c #D2B98B",
"H. c #D9BC89",
"J. c #C5BC95",
"K. c #DCC28E",
"L. c #C9C497",
"P. c #DEC492",
"I. c #DFC897",
"U. c #E1C995",
"Y. c #E3CE9A",
"T. c #E6D29D",
"R. c #D5C3A7",
"E. c #DCD3A1",
"W. c #D2CAB0",
"Q. c #E0D4A2",
"!. c #E8D6A1",
"~. c #E6DCA5",
"^. c #EBDBA5",
"/. c #EDDEAA",
"(. c #E9DBB9",
"). c #E9E0A7",
"_. c #EFE1AB",
"`. c #F0E2AD",
"'. c #EDE3B8",
"]. c #F1E4B4",
"[. c #F2E8B9",
"{. c #F3E8BE",
"}. c #DAD9CC",
"|. c #E1DECF",
" X c #F4EAC3",
".X c #F5EDCC",
"XX c #EDE5D1",
"oX c #F4ECD4",
"OX c #F6EBDB",
"+X c #F7F3DB",
"@X c #F8F2DB",
"#X c #DFE1E4",
"$X c #E7E8E7",
"%X c #FAF6E5",
"&X c #FAF5E9",
"*X c #FAF7E8",
"=X c #FDFBF4",
"-X c #FFFFFE",
/* pixels */
"0.0.0.0.0.q.q.q.q.q.q.q.q.q.q.9.9.9.9.9.9.9.9.9.9.9.9.9.9.9.9.9.9.9.9.9.X X X o X X X X 9.9.9.9.9.9.9.9.9.9.9.9.9.9.9.9.9.9.9.9.",
"0.0.0.0.0.0.q.q.q.q.q.q.0.9.9.9.0.0.0.9.9.9.9.9.9.9.9.9.9.9.9.9.9.9.X X & C } P #.P - + X 9.9.9.9.9.9.9.9.9.9.9.9.9.9.9.9.0.0.0.",
"0.0.q.q.q.q.q.q.q.q.q.0.0.0.0.0.0.0.0.0.0.0.0.9.9.9.9.9.9.9.9.9.9.9.X C 6.s.N } x.x.s.P o X 0.0.0.0.0.0.0.8.8.8.8.9.9.9.0.0.0.0.",
"q.q.q.q.q.q.q.q.q.q.q.0.0.0.0.0.0.0.9.9.9.9.9.9.9.9.9.9.9.9.9.9.9.X e 4.7.C : 3.x.7.7.2.V X X 8.8.8.0.0.8.8.8.8.8.8.8.9.0.0.0.0.",
"q.q.q.q.q.q.q.q.q.q.0.0.0.0.0.0.0.0.0.0.9.9.9.9.9.9.9.9.9.9.9.9.X < 1.x.<.o Z x.z.5.@.O.X.7 X 8.8.8.8.8.8.q.q.q.8.8.8.8.0.0.0.q.",
"0.0.0.0.0.q.q.q.q.q.0.0.0.0.0.0.0.0.0.0.0.0.9.9.9.9.9.9.9.9.9.9.X V z.x.X.1 <.x.7.+.o. .o.d : X q.q.8.8.q.q.q.q.q.8.8.8.8.q.q.q.",
"0.0.0.0.0.0.q.q.q.q.q.0.q.q.0.0.0.0.0.0.0.0.0.0.0.0.9.9.9.9.9.9.+ X.x.z.X.%.x.z.5.o.) f +.{ t X q.q.q.q.q.q.q.q.q.q.q.q.q.q.0.0.",
"0.0.0.0.0.0.0.0.q.q.q.q.q.q.q.0.0.0.0.0.0.0.0.0.0.0.9.9.9.9.9.X o X.z.7.+.5.z.z.5.O.( > o.{ r X q.q.q.q.q.q.q.q.q.q.q.q.q.q.0.0.",
"q.q.0.0.0.0.0.0.0.q.q.q.0.0.0.q.0.0.0.0.0.0.0.0.0.0.0.q.q.q.q.X 5 &.z.6.+.z.z.z.@.o...3 / ..> X q.q.q.q.q.q.q.q.q.q.q.q.q.q.0.q.",
"q.q.q.0.0.0.0.0.0.0.0.0.0.0.0.0.0.0.0.0.0.0.0.0.0.0.q.q.0.0.q.  S x.z.7.&.7.z.6.&.o.o.6 s ) # X q.q.q.q.q.q.q.q.q.q.q.q.q.q.q.q.",
"q.q.q.0.0.0.q.q.0.0.0.0.0.0.0.0.0.0.0.0.0.0.0.0.0.0.q.0.0.0.0.X < 1.z.z.,.z.z.z.5.o.o.4 f f X X 0.q.q.q.q.0.0.q.q.q.q.q.q.q.q.q.",
"q.q.q.0.0.q.q.q.q.q.0.0.0.0.0.0.0.0.0.0.0.0.0.0.0.0.0.0.0.0.0.0.+ X.z.z.z.z.z.z.&.O.) $ ` f X 0.0.0.0.q.0.0.0.0.q.q.q.q.q.q.q.q.",
"q.q.q.q.q.q.q.q.q.q.q.q.q.q.q.q.q.q.q.0.0.0.0.0.0.0.0.0.0.0.0.0.X s ,.7.7.7.7.5.+.o.6 8 ` 3 X 0.0.0.0.0.0.0.0.0.q.q.q.q.q.q.q.q.",
"q.q.q.q.q.q.q.q.q.0.0.0.0.0.0.0.0.0.0.0.0.0.0.0.0.0.0.0.0.0.0.0.0.o 6  .+.+.O.O.| 6 O i d + 0.0.0.0.0.0.0.0.0.0.q.q.q.q.q.0.0.0.",
"0.0.0.0.0.0.0.0.0.0.0.0.9.9.9.9.9.9.0.0.0.0.0.0.0.0.0.0.0.0.0.0.0.o X - A ) ) ) 3 # t g # X 0.0.0.0.0.0.0.0.0.0.0.0.0.0.0.0.0.0.",
"0.0.0.0.0.0.0.0.0.0.9.9.9.9.9.9.9.9.9.0.9.9.9.9.0.0.0.0.0.0.q.q.q.0.X X o o o o X 3 j r X X 0.0.0.0.0.0.0.0.0.0.0.0.0.0.0.0.0.0.",
"0.0.0.0.0.0.0.0.9.9.9.9.9.9.9.9.9.9.9.9.9.9.9.9.9.0.0.0.q.q.q.q.q.q.0.X @ 0 X $ u g i % l O X 0.0.0.0.0.0.0.0.0.0.0.0.0.0.0.0.0.",
"0.0.0.0.0.0.0.9.9.9.9.9.9.9.9.9.9.9.9.9.9.9.9.9.9.q.q.q.q.q.q.q.q.q.X , y.E.Y p r 7 # ! Q.B X X 0.0.0.0.0.0.0.0.0.0.0.0.0.0.0.0.",
"0.0.0.0.0.9.9.9.9.9.9.0.0.0.0.0.9.9.9.9.9.9.9.9.9.9.9.9.q.q.q.q.q.q.X O ! oX|.(.M.m N.(.J.0 % X 9.0.0.0.0.0.0.9.9.9.0.0.0.0.0.0.",
"0.0.0.9.9.9.9.9.9.9.0.0.0.0.0.0.0.9.9.9.0.0.0.9.9.9.9.9.9.9.q.q.q.X = x 2 n.#X$X%X@X=X&Xu.H R : X 9.0.0.0.0.9.9.9.9.9.0.0.0.9.9.",
"9.0.0.0.0.0.0.0.0.0.0.0.0.0.0.0.0.9.9.0.0.0.0.0.0.0.0.0.0.0.0.0.0.X T >.*.M ~ -.|.&XOXU.Z.a.:.n X 0.0.0.0.9.9.9.9.9.9.9.9.9.9.9.",
"9.9.9.9.0.0.0.0.0.0.0.0.0.0.0.0.0.0.0.0.0.0.0.0.0.0.0.0.0.0.0.0.X 1 =.r.Z.F.T./././._.U.S.j.:.I , 0.0.0.0.9.9.9.9.9.9.9.9.9.9.9.",
"0.0.0.0.0.0.0.0.0.0.0.0.0.0.0.0.0.0.0.0.0.0.0.8.8.8.8.8.8.0.0.0.X w >.g.A.K._._._.`._.!.S.Z.s.:.0 X 0.0.9.9.9.9.0.0.0.9.9.9.9.9.",
"0.0.0.0.0.0.0.0.8.8.8.8.8.0.0.8.8.8.0.0.0.q.q.q.q.8.8.8.8.8.0.8.O T r.Z.A.Y. X%X%X*X@X/.H.A.c.:.H o X X 9.9.9.0.0.0.0.0.0.0.0.0.",
"0.0.0.0.0.0.0.8.8.8.8.8.8.8.8.8.8.8.8.0.q.q.q.q.q.q.q.8.8.8.8.X < a.A.A.A.!.'.=X-X-X@X`.U.A.v.r.-.= @ 2 X 9.9.0.0.0.0.0.0.0.0.0.",
"0.0.0.0.0.8.8.8.q.q.q.q.8.8.8.q.q.8.8.q.q.q.q.q.q.q.q.q.8.8.8.X n i.g.C.A.Y./. X=X=X X_.!.F.A.i.:.z & e.x @ 0.0.0.0.0.0.0.0.0.0.",
"0.0.8.8.8.8.q.q.q.q.q.q.q.q.q.q.q.q.q.q.q.q.q.q.q.q.q.q.q.8.8.X 9 =.>.c.A.A.H.^.=X X_._.^.H.g.>.:.H o c c.U X 9.9.9.9.9.9.0.0.0.",
"q.8.8.q.q.q.q.q.q.q.q.q.q.q.q.q.q.q.q.q.q.q.q.9.9.9.q.q.q.q.X # I :.g.H.!./.(. X=X=X@X`./.F.b.b.r.K @ X M v.n X 9.9.9.9.9.9.9.9.",
"q.q.q.q.q.q.q.q.q.q.9.9.9.q.q.q.q.q.q.q.q.q.9.9.9.9.9.q.q.q.X # =.>.v.A.T.@X-X-X-X-X@X`.^.H.A.A.r.< X < % W c.z X X q.q.q.q.q.q.",
"0.0.0.0.0.0.q.q.9.9.9.9.9.9.9.q.q.9.9.9.9.9.9.9.9.9.9.9.9.9.X # =.>.b.A.T.].oX&X%X%X{._./.F.A.j.>.R o n *.n -.p.J % X q.q.q.q.q.",
"0.0.0.0.0.0.0.0.0.0.0.0.9.9.9.9.9.9.9.9.9.9.9.9.9.9.9.9.9.9.X % *.>.v.A.T.`././.`.`.`.`./.P.A.i.:.*.@ n >.>.I =.h.f.M % X 0.0.0.",
"0.0.0.0.0.0.0.0.0.0.0.0.0.0.0.0.9.9.9.9.9.9.9.9.9.9.9.9.9.9.X # =.>.c.A.T.]. X X{.^._.!.U.F.b.s.;.N o n >.:.>.a.w.w.d.C.E Y 9 X ",
"q.q.q.0.0.0.0.0.0.0.0.0.0.0.0.0.0.0.0.0.9.9.9.9.9.9.9.9.9.9.X @ e r.v.A.P.].=X-XoX/.U.H.F.F.A.A.g.K 1 n >.:.>.;.H * 0 B B.^.Y X ",
"q.q.q.q.0.0.0.0.0.0.0.0.0.0.0.0.9.9.9.9.9.9.9.0.0.0.9.9.9.9.X X v a.v.A.H.`.oX-X-X%X!.U.^.P.A.C.a.*.# c >.:.:.>.:.=.I : % p.J   ",
"q.q.q.q.q.q.q.0.0.0.0.9.9.9.9.9.9.9.X X # X X 0.0.0.0.9.9.9.9.@ I :.>.g.A.`.{.=X-X%X`.`.^.G.v.a.>.R % R >.:.:.>.:.:.>.=.= d.B . ",
"0.0.0.q.q.q.q.q.0.0.0.0.0.0.0.0.0.X - # r 7 X X 0.0.0.9.9.9.9.X n >.>.:.s.U.T.{.+X.X_.`.T.j.A.c.>.w # =.>.:.:.:.:.:.:.:.< u.J X ",
"0.0.0.0.q.q.q.q.q.0.0.0.0.0.0.0.0.X y q ; a # X = & X 0.0.0.0.X & W :.i.b.A.H.P.^._.T.U.j.g.C.a.T # v :.:.:.:.:.:.:.:.:.w t.J   ",
"0.0.0.0.0.0.0.0.0.0.0.0.0.0.0.0.0.X # i * i ; # t.t.# X X X 0.0.X : *.i.v.A.F.^.`.^.K.A.g.:.:.*.% X H >.:.:.:.:.:.:.:.>.U i.D   ",
"0.0.0.0.0.0.0.0.0.0.0.0.0.0.0.0.0.X X + O i t 2 b.A.$.% ; ; X 0.O X w =.r.c.F.T.T.H.T.G.:.=.N % X X S :.:.:.:.:.:.:.:.:.W p.D X ",
"0.0.0.0.0.0.0.0.0.0.0.0.0.0.. X # & H n # i i 2 b.S.j.K 8 i O 9.X X X 0 R g.C.C.b.C.G.g.L 8 X # q # 0 =.:.:.:.:.:.>.:.:.:.v.D . ",
"9.9.9.9.9.9.9.9.0.0.0.X X , c Y j.r.W c X 8 A @ ;.D.h.K X # O X O q $ X @ = , , < , < = @ + * p k 7 X n >.:.:.:.:.:.:.:.*.c.S . ",
"9.9.9.9.0.0.0.X . o % J w.f.D.b.f.n = @ @ : { - L g.:.0 X X 0.X O * 8 r 7 O O O O O O # q p { ' j t X b >.:.>.:.:.:.:.;.n c.H . ",
"0.0.0.0.0.X X , M E k.b.b.b.t.l # 0 J k.W -  .5 N *.x X X 0.0.X O + p j h g a h g g g a j { o.o.` a O n >.>.:.:.>.:.:.:.1 w.D X ",
"0.0.0.0.z u.e.h.F.F.b.K.p.E E w.d.j.C.j.v X ( / 1 & X X 8.8.8.X X 8 k k G { k k k k k k [ o.o.O.| j ; c >.:.:.:.:.:.:.:.1 R M . ",
"0.0.0., N.Y.F.D.G.D.P.~.~.E.).).B.E & & - 3 &.) O X X 8.8.8.8.X O r k  .{ | o...o.o.o.o.o.o.o.O...k * # I :.:.:.:.:.:.:.< L x X ",
"0.0.  y.[.T.(.oX).'.[._.L.L.Y m %   X 6 A 5 5.} # 8.8.8.q.q.q.X O 8 j G G { o.o.o.o.o.o.o.o.o.O.| p O X % R :.:.:.:.:.=.n L % X ",
"0.^ n.}.-X=X=X%X+XV.m.~ , @ o   8.q.q.e 3.V 5.6 8.8.8.q.q.q.q.q.; 8 h k ` ' o.o.o.o.o.O.o.o.O...j $ X X X = =.>.:.:.:.n J : X q.",
"A.P.OX&X=X#XW.XXI.E o X 8.8.8.8.8.q.q.o < 3 6 % q.8.q.q.q.q.q.q.. X t h k [ o.o.o.o.o.o.o.o.o.] 3 X X X X X 0 =.:.:.M , 1 X q.0.",
"8.A.S.S.R.Q c Z.h.8.8.8.8.q.q.8.8.8.q.q.X X X q.q.q.q.q.q.q.q.q.q.X @ a F G [ o.o.o.o.O.o...` 8 X X X O X q.X x :.L 1 # X 0.0.0.",
"8.8.8.8.8.q.q.q.q.8.8.8.q.q.q.q.q.8.q.q.q.q.q.q.q.q.q.q.q.q.q.q.q.X @ r g F F G [  . . .' k r X X X X X X 0.0.@ v < K = 0.0.0.8.",
"8.q.q.8.8.q.q.q.q.q.q.q.q.q.q.q.q.q.q.q.q.q.q.q.q.q.q.q.q.q.0.0.0.0.O X > 7 8 8 8 8 : 8 8 * X X q.q.X X O X 0.0.X @ : 0.0.0.0.8.",
"q.q.q.q.q.q.q.q.q.q.q.q.q.q.q.q.q.q.q.q.q.9.9.9.9.q.q.q.q.0.0.0.0.0.0.X X   X X X X X X X X @ q.q.q.q.O X X 0.0.X X 0.q.q.8.8.8.",
"q.q.q.q.q.0.0.0.q.q.q.q.q.0.0.0.0.q.q.q.9.9.9.9.9.9.0.0.q.0.0.0.0.0.0.0.9.X O X 9.9.q.q.q.q.q.q.0.0.0.X 0.0.0.0.0.q.q.q.q.q.q.q.",
"q.q.q.q.0.0.0.0.0.q.q.q.0.0.0.9.9.9.9.9.9.9.9.9.9.9.0.0.0.0.0.0.0.9.9.9.9.X X X 9.9.0.0.0.0.0.0.0.0.0.0.0.0.0.q.q.q.q.q.q.q.q.q.",
"q.q.0.0.0.0.0.0.0.q.q.q.0.0.9.9.9.9.9.9.9.9.9.9.9.0.0.0.0.0.0.0.9.9.9.9.9.X X X 9.9.9.0.0.0.0.0.0.0.0.0.0.0.q.q.q.0.0.0.q.q.q.q.",
"0.0.0.0.0.0.0.0.0.0.0.q.0.0.9.9.9.9.9.9.9.9.9.9.9.9.9.9.9.0.0.9.9.9.9.9.9.X O X 9.9.9.9.0.0.0.0.0.0.0.0.q.q.q.q.0.0.0.0.0.q.q.q.",
"0.0.0.0.0.0.0.0.0.0.0.0.9.9.9.9.9.9.9.9.9.9.9.9.9.9.9.9.9.9.9.9.9.9.9.9.0.0.O X X 9.9.9.9.9.0.0.0.0.0.0.0.0.0.0.0.0.0.0.0.0.0.0.",
"0.0.0.0.0.0.9.9.9.9.9.9.9.9.9.9.0.0.0.9.9.9.9.9.9.9.9.9.9.9.9.9.9.9.9.9.0.X X X X 0.0.0.0.0.0.0.0.0.0.0.0.0.0.0.0.0.0.0.0.0.0.0.",
"0.0.0.0.0.0.0.0.0.9.9.9.9.9.9.0.0.0.0.0.9.9.0.0.0.9.9.9.9.9.9.9.0.0.9.9.0.X X O X 0.0.0.0.0.0.0.0.0.0.0.0.0.9.9.9.0.0.0.0.0.0.0.",
"0.0.0.0.0.0.0.0.0.0.0.0.9.9.9.0.0.0.0.0.9.0.0.0.0.0.0.9.9.9.9.0.0.0.0.9.9.0.0.0.0.0.0.0.0.0.0.0.0.0.0.0.0.9.9.9.9.9.0.0.0.0.0.0.",
"0.0.0.0.0.0.q.q.0.0.0.0.0.0.0.0.0.0.0.0.0.0.0.0.0.0.0.0.0.0.0.0.0.0.0.0.0.0.0.0.0.0.0.0.0.0.9.9.9.0.0.0.9.9.9.9.9.9.0.0.0.0.0.0.",
"0.0.0.0.0.q.q.q.q.0.0.0.0.q.q.q.q.0.0.0.0.0.0.0.0.0.0.0.0.0.0.0.0.0.0.0.0.0.0.0.0.0.0.0.0.9.9.9.9.9.9.9.9.9.9.9.9.9.0.0.0.0.0.0.",
"0.0.0.q.q.q.q.q.q.q.q.q.q.q.q.q.q.q.q.0.0.0.0.0.0.0.0.9.9.9.9.0.0.0.0.0.0.0.0.0.0.0.0.0.9.9.9.9.9.9.9.9.9.9.9.9.9.9.9.9.9.0.0.0.",
"9.9.q.q.q.q.q.q.q.q.q.q.q.q.q.q.9.9.9.9.0.0.9.9.9.9.9.9.9.9.9.9.9.0.0.9.9.9.9.0.0.0.0.9.9.9.9.9.9.9.9.9.9.9.9.9.9.9.9.9.9.9.9.9."
};
